  0
SECTION
  2
HEADER
  9
$ACADVER
  1
AC1032
  9
$ACADMAINTVER
 90
        4
  9
$DWGCODEPAGE
  3
ANSI_1252
  9
$LASTSAVEDBY
  1
jleclerc
  9
$REQUIREDVERSIONS
160
                 0
  9
$INSBASE
 10
0.0
 20
0.0
 30
0.0
  9
$EXTMIN
 10
-33.82909623576043
 20
-75.19426631214769
 30
-6.352673089795572
  9
$EXTMAX
 10
10.03703158885015
 20
12.73277364016383
 30
-6.352673089795572
  9
$LIMMIN
 10
0.0
 20
0.0
  9
$LIMMAX
 10
12.0
 20
9.0
  9
$ORTHOMODE
 70
     0
  9
$REGENMODE
 70
     1
  9
$FILLMODE
 70
     1
  9
$QTEXTMODE
 70
     0
  9
$MIRRTEXT
 70
     0
  9
$LTSCALE
 40
1.0
  9
$ATTMODE
 70
     1
  9
$TEXTSIZE
 40
0.2
  9
$TRACEWID
 40
0.05
  9
$TEXTSTYLE
  7
STANDARD
  9
$CLAYER
  8
0
  9
$CELTYPE
  6
Continuous
  9
$CECOLOR
 62
   256
  9
$CELTSCALE
 40
1.0
  9
$DISPSILH
 70
     0
  9
$DIMSCALE
 40
1.0
  9
$DIMASZ
 40
0.18
  9
$DIMEXO
 40
0.0625
  9
$DIMDLI
 40
0.38
  9
$DIMRND
 40
0.0
  9
$DIMDLE
 40
0.0
  9
$DIMEXE
 40
0.18
  9
$DIMTP
 40
0.0
  9
$DIMTM
 40
0.0
  9
$DIMTXT
 40
0.18
  9
$DIMCEN
 40
0.09
  9
$DIMTSZ
 40
0.0
  9
$DIMTOL
 70
     0
  9
$DIMLIM
 70
     0
  9
$DIMTIH
 70
     1
  9
$DIMTOH
 70
     1
  9
$DIMSE1
 70
     0
  9
$DIMSE2
 70
     0
  9
$DIMTAD
 70
     0
  9
$DIMZIN
 70
     0
  9
$DIMBLK
  1

  9
$DIMASO
 70
     1
  9
$DIMSHO
 70
     1
  9
$DIMPOST
  1

  9
$DIMAPOST
  1

  9
$DIMALT
 70
     0
  9
$DIMALTD
 70
     2
  9
$DIMALTF
 40
25.4
  9
$DIMLFAC
 40
1.0
  9
$DIMTOFL
 70
     0
  9
$DIMTVP
 40
0.0
  9
$DIMTIX
 70
     0
  9
$DIMSOXD
 70
     0
  9
$DIMSAH
 70
     0
  9
$DIMBLK1
  1

  9
$DIMBLK2
  1

  9
$DIMSTYLE
  2
Standard
  9
$DIMCLRD
 70
     0
  9
$DIMCLRE
 70
     0
  9
$DIMCLRT
 70
     0
  9
$DIMTFAC
 40
1.0
  9
$DIMGAP
 40
0.09
  9
$DIMJUST
 70
     0
  9
$DIMSD1
 70
     0
  9
$DIMSD2
 70
     0
  9
$DIMTOLJ
 70
     1
  9
$DIMTZIN
 70
     0
  9
$DIMALTZ
 70
     0
  9
$DIMALTTZ
 70
     0
  9
$DIMUPT
 70
     0
  9
$DIMDEC
 70
     4
  9
$DIMTDEC
 70
     4
  9
$DIMALTU
 70
     2
  9
$DIMALTTD
 70
     2
  9
$DIMTXSTY
  7
STANDARD
  9
$DIMAUNIT
 70
     0
  9
$DIMADEC
 70
     0
  9
$DIMALTRND
 40
0.0
  9
$DIMAZIN
 70
     0
  9
$DIMDSEP
 70
    46
  9
$DIMATFIT
 70
     3
  9
$DIMFRAC
 70
     0
  9
$DIMLDRBLK
  1

  9
$DIMLUNIT
 70
     2
  9
$DIMLWD
 70
    -2
  9
$DIMLWE
 70
    -2
  9
$DIMTMOVE
 70
     0
  9
$DIMFXL
 40
1.0
  9
$DIMFXLON
 70
     0
  9
$DIMJOGANG
 40
0.7853981633974483
  9
$DIMTFILL
 70
     0
  9
$DIMTFILLCLR
 70
     0
  9
$DIMARCSYM
 70
     0
  9
$DIMLTYPE
  6

  9
$DIMLTEX1
  6

  9
$DIMLTEX2
  6

  9
$DIMTXTDIRECTION
 70
     0
  9
$LUNITS
 70
     2
  9
$LUPREC
 70
     4
  9
$SKETCHINC
 40
0.1
  9
$FILLETRAD
 40
0.0
  9
$AUNITS
 70
     0
  9
$AUPREC
 70
     0
  9
$MENU
  1
.
  9
$ELEVATION
 40
0.0
  9
$PELEVATION
 40
0.0
  9
$THICKNESS
 40
0.0
  9
$LIMCHECK
 70
     0
  9
$CHAMFERA
 40
0.0
  9
$CHAMFERB
 40
0.0
  9
$CHAMFERC
 40
0.0
  9
$CHAMFERD
 40
0.0
  9
$SKPOLY
 70
     0
  9
$TDCREATE
 40
2459132.596886574
  9
$TDUCREATE
 40
2459132.805219907
  9
$TDUPDATE
 40
2459132.597812500
  9
$TDUUPDATE
 40
2459132.806145833
  9
$TDINDWG
 40
0.0009259259
  9
$TDUSRTIMER
 40
0.0009259259
  9
$USRTIMER
 70
     1
  9
$ANGBASE
 50
0.0
  9
$ANGDIR
 70
     0
  9
$PDMODE
 70
     0
  9
$PDSIZE
 40
0.0
  9
$PLINEWID
 40
0.0
  9
$SPLFRAME
 70
     0
  9
$SPLINETYPE
 70
     6
  9
$SPLINESEGS
 70
     8
  9
$HANDSEED
  5
1006B
  9
$SURFTAB1
 70
     6
  9
$SURFTAB2
 70
     6
  9
$SURFTYPE
 70
     6
  9
$SURFU
 70
     6
  9
$SURFV
 70
     6
  9
$UCSBASE
  2

  9
$UCSNAME
  2

  9
$UCSORG
 10
0.0
 20
0.0
 30
0.0
  9
$UCSXDIR
 10
1.0
 20
0.0
 30
0.0
  9
$UCSYDIR
 10
0.0
 20
1.0
 30
0.0
  9
$UCSORTHOREF
  2

  9
$UCSORTHOVIEW
 70
     0
  9
$UCSORGTOP
 10
0.0
 20
0.0
 30
0.0
  9
$UCSORGBOTTOM
 10
0.0
 20
0.0
 30
0.0
  9
$UCSORGLEFT
 10
0.0
 20
0.0
 30
0.0
  9
$UCSORGRIGHT
 10
0.0
 20
0.0
 30
0.0
  9
$UCSORGFRONT
 10
0.0
 20
0.0
 30
0.0
  9
$UCSORGBACK
 10
0.0
 20
0.0
 30
0.0
  9
$PUCSBASE
  2

  9
$PUCSNAME
  2

  9
$PUCSORG
 10
0.0
 20
0.0
 30
0.0
  9
$PUCSXDIR
 10
1.0
 20
0.0
 30
0.0
  9
$PUCSYDIR
 10
0.0
 20
1.0
 30
0.0
  9
$PUCSORTHOREF
  2

  9
$PUCSORTHOVIEW
 70
     0
  9
$PUCSORGTOP
 10
0.0
 20
0.0
 30
0.0
  9
$PUCSORGBOTTOM
 10
0.0
 20
0.0
 30
0.0
  9
$PUCSORGLEFT
 10
0.0
 20
0.0
 30
0.0
  9
$PUCSORGRIGHT
 10
0.0
 20
0.0
 30
0.0
  9
$PUCSORGFRONT
 10
0.0
 20
0.0
 30
0.0
  9
$PUCSORGBACK
 10
0.0
 20
0.0
 30
0.0
  9
$USERI1
 70
     0
  9
$USERI2
 70
     0
  9
$USERI3
 70
     0
  9
$USERI4
 70
     0
  9
$USERI5
 70
     0
  9
$USERR1
 40
0.0
  9
$USERR2
 40
0.0
  9
$USERR3
 40
0.0
  9
$USERR4
 40
0.0
  9
$USERR5
 40
0.0
  9
$WORLDVIEW
 70
     1
  9
$SHADEDGE
 70
     3
  9
$SHADEDIF
 70
    70
  9
$TILEMODE
 70
     1
  9
$MAXACTVP
 70
    64
  9
$PINSBASE
 10
0.0
 20
0.0
 30
0.0
  9
$PLIMCHECK
 70
     0
  9
$PEXTMIN
 10
1.000000000000000E+20
 20
1.000000000000000E+20
 30
1.000000000000000E+20
  9
$PEXTMAX
 10
-1.000000000000000E+20
 20
-1.000000000000000E+20
 30
-1.000000000000000E+20
  9
$PLIMMIN
 10
0.0
 20
0.0
  9
$PLIMMAX
 10
12.0
 20
9.0
  9
$UNITMODE
 70
     0
  9
$VISRETAIN
 70
     1
  9
$PLINEGEN
 70
     0
  9
$PSLTSCALE
 70
     1
  9
$TREEDEPTH
 70
  3020
  9
$CMLSTYLE
  2
Standard
  9
$CMLJUST
 70
     0
  9
$CMLSCALE
 40
1.0
  9
$PROXYGRAPHICS
 70
     1
  9
$MEASUREMENT
 70
     0
  9
$CELWEIGHT
370
    -1
  9
$ENDCAPS
280
     0
  9
$JOINSTYLE
280
     0
  9
$LWDISPLAY
290
     0
  9
$INSUNITS
 70
     4
  9
$HYPERLINKBASE
  1

  9
$STYLESHEET
  1

  9
$XEDIT
290
     1
  9
$CEPSNTYPE
380
     0
  9
$PSTYLEMODE
290
     1
  9
$FINGERPRINTGUID
  2
{EFB297E7-1852-F842-91B6-B3D8342D7E86}
  9
$VERSIONGUID
  2
{1FF15024-8580-DD4B-9188-BB2A1DE27489}
  9
$EXTNAMES
290
     1
  9
$PSVPSCALE
 40
0.0
  9
$OLESTARTUP
290
     0
  9
$SORTENTS
280
   127
  9
$INDEXCTL
280
     0
  9
$HIDETEXT
280
     0
  9
$XCLIPFRAME
280
     2
  9
$HALOGAP
280
     0
  9
$OBSCOLOR
 70
   257
  9
$OBSLTYPE
280
     0
  9
$INTERSECTIONDISPLAY
280
     0
  9
$INTERSECTIONCOLOR
 70
   257
  9
$DIMASSOC
280
     1
  9
$PROJECTNAME
  1

  9
$CAMERADISPLAY
290
     0
  9
$LENSLENGTH
 40
50.0
  9
$CAMERAHEIGHT
 40
0.0
  9
$STEPSPERSEC
 40
2.0
  9
$STEPSIZE
 40
6.0
  9
$3DDWFPREC
 40
2.0
  9
$PSOLWIDTH
 40
0.25
  9
$PSOLHEIGHT
 40
4.0
  9
$LOFTANG1
 40
1.570796326794896
  9
$LOFTANG2
 40
1.570796326794896
  9
$LOFTMAG1
 40
0.0
  9
$LOFTMAG2
 40
0.0
  9
$LOFTPARAM
 70
     7
  9
$LOFTNORMALS
280
     1
  9
$LATITUDE
 40
37.795
  9
$LONGITUDE
 40
-122.394
  9
$NORTHDIRECTION
 40
0.0
  9
$TIMEZONE
 70
 -8000
  9
$LIGHTGLYPHDISPLAY
280
     1
  9
$TILEMODELIGHTSYNCH
280
     1
  9
$CMATERIAL
347
10005
  9
$SOLIDHIST
280
     0
  9
$SHOWHIST
280
     1
  9
$DWFFRAME
280
     2
  9
$DGNFRAME
280
     0
  9
$REALWORLDSCALE
290
     1
  9
$INTERFERECOLOR
 62
     1
  9
$INTERFEREOBJVS
345
10027
  9
$INTERFEREVPVS
346
10024
  9
$CSHADOW
280
     0
  9
$SHADOWPLANELOCATION
 40
0.0
  0
ENDSEC
  0
SECTION
  2
CLASSES
  0
CLASS
  1
ACDBDICTIONARYWDFLT
  2
AcDbDictionaryWithDefault
  3
ObjectDBX Classes
 90
        0
 91
        1
280
     0
281
     0
  0
CLASS
  1
MATERIAL
  2
AcDbMaterial
  3
ObjectDBX Classes
 90
     1153
 91
        3
280
     0
281
     0
  0
CLASS
  1
VISUALSTYLE
  2
AcDbVisualStyle
  3
ObjectDBX Classes
 90
     4095
 91
       24
280
     0
281
     0
  0
CLASS
  1
TABLESTYLE
  2
AcDbTableStyle
  3
ObjectDBX Classes
 90
     4095
 91
        1
280
     0
281
     0
  0
CLASS
  1
SCALE
  2
AcDbScale
  3
ObjectDBX Classes
 90
     1153
 91
       17
280
     0
281
     0
  0
CLASS
  1
MLEADERSTYLE
  2
AcDbMLeaderStyle
  3
ACDB_MLEADERSTYLE_CLASS
 90
     4095
 91
        1
280
     0
281
     0
  0
CLASS
  1
ACDBSECTIONVIEWSTYLE
  2
AcDbSectionViewStyle
  3
ObjectDBX Classes
 90
     1025
 91
        1
280
     0
281
     0
  0
CLASS
  1
ACDBDETAILVIEWSTYLE
  2
AcDbDetailViewStyle
  3
ObjectDBX Classes
 90
     1025
 91
        1
280
     0
281
     0
  0
CLASS
  1
DICTIONARYVAR
  2
AcDbDictionaryVar
  3
ObjectDBX Classes
 90
        0
 91
        9
280
     0
281
     0
  0
CLASS
  1
CELLSTYLEMAP
  2
AcDbCellStyleMap
  3
ObjectDBX Classes
 90
     1152
 91
        1
280
     0
281
     0
  0
ENDSEC
  0
SECTION
  2
TABLES
  0
TABLE
  2
VPORT
  5
8
330
0
100
AcDbSymbolTable
 70
     1
  0
VPORT
  5
10059
330
8
100
AcDbSymbolTableRecord
100
AcDbViewportTableRecord
  2
*Active
 70
     0
 10
0.0
 20
0.0
 11
1.0
 21
1.0
 12
-2.429863521677248
 22
2.495706663812171
 13
0.0
 23
0.0
 14
1.0
 24
1.0
 15
0.0
 25
0.0
 16
0.0
 26
0.0
 36
1.0
 17
0.0
 27
0.0
 37
0.0
 40
34.56519225695507
 41
1.471306471306471
 42
50.0
 43
0.0
 44
0.0
 50
0.0
 51
0.0
 71
     0
 72
  1000
 73
     1
 74
     3
 75
     0
 76
     0
 77
     0
 78
     0
281
     0
 65
     1
110
0.0
120
0.0
130
0.0
111
1.0
121
0.0
131
0.0
112
0.0
122
1.0
132
0.0
 79
     0
146
0.0
348
10023
 60
     3
 61
     5
292
     1
282
     1
141
0.0
142
0.0
 63
   250
421
  3355443
1001
ACAD_NAV_VCDISPLAY
1070
     1
  0
ENDTAB
  0
TABLE
  2
LTYPE
  5
5
330
0
100
AcDbSymbolTable
 70
     1
  0
LTYPE
  5
14
330
5
100
AcDbSymbolTableRecord
100
AcDbLinetypeTableRecord
  2
BYBLOCK
 70
     0
  3

 72
    65
 73
     0
 40
0.0
  0
LTYPE
  5
15
330
5
100
AcDbSymbolTableRecord
100
AcDbLinetypeTableRecord
  2
BYLAYER
 70
     0
  3

 72
    65
 73
     0
 40
0.0
  0
LTYPE
  5
10001
330
5
100
AcDbSymbolTableRecord
100
AcDbLinetypeTableRecord
  2
Continuous
 70
     0
  3
Solid line
 72
    65
 73
     0
 40
0.0
  0
ENDTAB
  0
TABLE
  2
LAYER
  5
2
330
0
100
AcDbSymbolTable
 70
     1
  0
LAYER
  5
50
102
{ACAD_XDICTIONARY
360
1005C
102
}
330
2
100
AcDbSymbolTableRecord
100
AcDbLayerTableRecord
  2
0
 70
     0
 62
     7
  6
Continuous
370
    -3
390
10003
347
10015
348
0
  0
ENDTAB
  0
TABLE
  2
STYLE
  5
3
330
0
100
AcDbSymbolTable
 70
     1
  0
STYLE
  5
11
330
3
100
AcDbSymbolTableRecord
100
AcDbTextStyleTableRecord
  2
STANDARD
 70
     0
 40
0.0
 41
1.0
 50
0.0
 71
     0
 42
0.2
  3

  4

  0
ENDTAB
  0
TABLE
  2
VIEW
  5
6
330
0
100
AcDbSymbolTable
 70
     0
  0
ENDTAB
  0
TABLE
  2
UCS
  5
7
330
0
100
AcDbSymbolTable
 70
     0
  0
ENDTAB
  0
TABLE
  2
APPID
  5
9
330
0
100
AcDbSymbolTable
 70
     2
  0
APPID
  5
12
330
9
100
AcDbSymbolTableRecord
100
AcDbRegAppTableRecord
  2
ACAD
 70
     0
  0
APPID
  5
10058
330
9
100
AcDbSymbolTableRecord
100
AcDbRegAppTableRecord
  2
ACAD_NAV_VCDISPLAY
 70
     0
  0
ENDTAB
  0
TABLE
  2
DIMSTYLE
  5
A
330
0
100
AcDbSymbolTable
 70
     1
100
AcDbDimStyleTable
 71
     0
  0
DIMSTYLE
105
10053
330
A
100
AcDbSymbolTableRecord
100
AcDbDimStyleTableRecord
  2
Standard
 70
     0
340
11
  0
ENDTAB
  0
TABLE
  2
BLOCK_RECORD
  5
1
330
0
100
AcDbSymbolTable
 70
     0
  0
BLOCK_RECORD
  5
1F
330
1
100
AcDbSymbolTableRecord
100
AcDbBlockTableRecord
  2
*MODEL_SPACE
340
10055
 70
     0
280
     1
281
     0
  0
BLOCK_RECORD
  5
1B
330
1
100
AcDbSymbolTableRecord
100
AcDbBlockTableRecord
  2
*PAPER_SPACE
340
10056
 70
     0
280
     1
281
     0
  0
ENDTAB
  0
ENDSEC
  0
SECTION
  2
BLOCKS
  0
BLOCK
  5
20
330
1F
100
AcDbEntity
  8
0
100
AcDbBlockBegin
  2
*MODEL_SPACE
 70
     0
 10
0.0
 20
0.0
 30
0.0
  3
*MODEL_SPACE
  1

  0
ENDBLK
  5
21
330
1F
100
AcDbEntity
  8
0
100
AcDbBlockEnd
  0
BLOCK
  5
1C
330
1B
100
AcDbEntity
 67
     1
  8
0
100
AcDbBlockBegin
  2
*PAPER_SPACE
 70
     0
 10
0.0
 20
0.0
 30
0.0
  3
*PAPER_SPACE
  1

  0
ENDBLK
  5
1D
330
1B
100
AcDbEntity
 67
     1
  8
0
100
AcDbBlockEnd
  0
ENDSEC
  0
SECTION
  2
ENTITIES
  0
ARC
  5
100
102
{ACAD_REACTORS
330
1005B
102
}
330
1F
100
AcDbEntity
  8
0
 62
     1
100
AcDbCircle
 10
-1.717428354484843
 20
-5.909396933421547
 30
-6.352673089795572
 40
0.5000000000000011
100
AcDbArc
 50
347.9554331251984
 51
73.14014431750509
  0
LINE
  5
101
102
{ACAD_REACTORS
330
1005B
102
}
330
1F
100
AcDbEntity
  8
0
 62
     1
100
AcDbLine
 10
-1.228435562942605
 20
-6.013733167874065
 30
-6.352673089795572
 11
-1.539292354026214
 21
-7.470626171915156
 31
-6.352673089795572
  0
ARC
  5
102
102
{ACAD_REACTORS
330
1005B
102
}
330
1F
100
AcDbEntity
  8
0
 62
     1
100
AcDbCircle
 10
0.0370315888501462
 20
-0.1202095165872237
 30
-6.352673089795572
 40
5.549200000000005
100
AcDbArc
 50
241.8598556824942
 51
253.1401443175057
  0
ARC
  5
103
102
{ACAD_REACTORS
330
1005B
102
}
330
1F
100
AcDbEntity
  8
0
 62
     1
100
AcDbCircle
 10
0.0370315888501462
 20
-0.1202095165872237
 30
-6.352673089795572
 40
10.0
100
AcDbArc
 50
266.8988210856685
 51
273.1011789143312
  0
LINE
  5
104
102
{ACAD_REACTORS
330
1005B
102
}
330
1F
100
AcDbEntity
  8
0
 62
     1
100
AcDbLine
 10
1.613355531726506
 20
-7.470626171915156
 30
-6.352673089795572
 11
1.302498740642894
 21
-6.013733167874065
 31
-6.352673089795572
  0
ARC
  5
105
102
{ACAD_REACTORS
330
1005B
102
}
330
1F
100
AcDbEntity
  8
0
 62
     1
100
AcDbCircle
 10
0.0370315888501462
 20
-0.1202095165872237
 30
-6.352673089795572
 40
9.999999999999996
100
AcDbArc
 50
311.8988210856684
 51
318.1011789143314
  0
SPLINE
  5
106
102
{ACAD_REACTORS
330
1005B
102
}
330
1F
100
AcDbEntity
  8
0
 62
     1
100
AcDbSpline
210
0.0
220
0.0
230
1.0
 70
     8
 71
     5
 72
    81
 73
    75
 74
     0
 42
0.000000001
 43
0.0000000001
 40
-1.0
 40
-1.0
 40
-1.0
 40
-1.0
 40
-1.0
 40
-1.0
 40
-0.9857142857142841
 40
-0.9714285714285695
 40
-0.9571428571428556
 40
-0.9428571428571411
 40
-0.9285714285714272
 40
-0.9142857142857128
 40
-0.8999999999999987
 40
-0.8857142857142845
 40
-0.8714285714285702
 40
-0.857142857142856
 40
-0.8428571428571418
 40
-0.8285714285714275
 40
-0.8142857142857133
 40
-0.7999999999999991
 40
-0.7857142857142848
 40
-0.7714285714285706
 40
-0.7571428571428564
 40
-0.7428571428571421
 40
-0.7285714285714277
 40
-0.7142857142857137
 40
-0.6999999999999994
 40
-0.6857142857142852
 40
-0.6714285714285709
 40
-0.6571428571428567
 40
-0.6428571428571425
 40
-0.6285714285714282
 40
-0.614285714285714
 40
-0.5999999999999998
 40
-0.5857142857142855
 40
-0.5714285714285713
 40
-0.5571428571428571
 40
-0.5428571428571428
 40
-0.5285714285714286
 40
-0.5142857142857144
 40
-0.5000000000000001
 40
-0.4857142857142859
 40
-0.4714285714285715
 40
-0.4571428571428573
 40
-0.442857142857143
 40
-0.4285714285714288
 40
-0.4142857142857145
 40
-0.4000000000000001
 40
-0.3857142857142857
 40
-0.3714285714285715
 40
-0.3571428571428572
 40
-0.3428571428571429
 40
-0.3285714285714286
 40
-0.3142857142857143
 40
-0.3
 40
-0.2857142857142857
 40
-0.2714285714285714
 40
-0.2571428571428572
 40
-0.2428571428571429
 40
-0.2285714285714286
 40
-0.2142857142857144
 40
-0.2
 40
-0.1857142857142857
 40
-0.1714285714285715
 40
-0.1571428571428571
 40
-0.1428571428571429
 40
-0.1285714285714286
 40
-0.1142857142857143
 40
-0.1
 40
-0.0857142857142858
 40
-0.0714285714285715
 40
-0.0571428571428571
 40
-0.0428571428571429
 40
-0.0285714285714286
 40
-0.0142857142857143
 40
0.0
 40
0.0
 40
0.0
 40
0.0
 40
0.0
 40
0.0
 10
0.5780251768564551
 20
-10.10556509051326
 30
-6.352673089795572
 10
0.5836321558093172
 20
-10.09842816304645
 30
-6.352673089795572
 10
0.5948144533966886
 20
-10.08414420032423
 30
-6.352673089795572
 10
0.6114929188206429
 20
-10.06268793289095
 30
-6.352673089795572
 10
0.6335408477110871
 20
-10.03401890932788
 30
-6.352673089795572
 10
0.6607835795773394
 20
-9.998081504287839
 30
-6.352673089795572
 10
0.6877083525759265
 20
-9.962043131443195
 30
-6.352673089795572
 10
0.7143140826035559
 20
-9.925904263091112
 30
-6.352673089795572
 10
0.7405993901545412
 20
-9.889665813736016
 30
-6.352673089795572
 10
0.7665626018989738
 20
-9.853329309290515
 30
-6.352673089795572
 10
0.7922018174659602
 20
-9.816896760877355
 30
-6.352673089795572
 10
0.8175149892858311
 20
-9.780370479981243
 30
-6.352673089795572
 10
0.8425000035623266
 20
-9.743752908647806
 30
-6.352673089795572
 10
0.8671547549606142
 20
-9.707046458511143
 30
-6.352673089795572
 10
0.8914772467986527
 20
-9.670253310957718
 30
-6.352673089795572
 10
0.9154655787412604
 20
-9.633375417387853
 30
-6.352673089795572
 10
0.9391178797928727
 20
-9.596414600217045
 30
-6.352673089795572
 10
0.9624322583807565
 20
-9.559372625646147
 30
-6.352673089795572
 10
0.9854067531409658
 20
-9.52225128194027
 30
-6.352673089795572
 10
1.008039272705596
 20
-9.48505247250722
 30
-6.352673089795572
 10
1.030327596011156
 20
-9.447778235514377
 30
-6.352673089795572
 10
1.052269425938996
 20
-9.410430695897346
 30
-6.352673089795572
 10
1.073862433695316
 20
-9.373012035930926
 30
-6.352673089795572
 10
1.095104301686015
 20
-9.335524461278552
 30
-6.352673089795572
 10
1.115992788479696
 20
-9.297970163589766
 30
-6.352673089795572
 10
1.136525718963016
 20
-9.260351306760668
 30
-6.352673089795572
 10
1.156700874372495
 20
-9.222670047548476
 30
-6.352673089795572
 10
1.176515903661689
 20
-9.184928548416721
 30
-6.352673089795572
 10
1.1959682410434
 20
-9.147128993105113
 30
-6.352673089795572
 10
1.215054993668518
 20
-9.10927360365207
 30
-6.352673089795572
 10
1.233772943965119
 20
-9.071364650009186
 30
-6.352673089795572
 10
1.252118759475079
 20
-9.033404443992324
 30
-6.352673089795572
 10
1.270089171860528
 20
-8.995395337092375
 30
-6.352673089795572
 10
1.28768114421924
 20
-8.9573397172107
 30
-6.352673089795572
 10
1.304892110244354
 20
-8.919240006178313
 30
-6.352673089795572
 10
1.321719978942175
 20
-8.881098657678393
 30
-6.352673089795572
 10
1.338162610014299
 20
-8.842918156706716
 30
-6.352673089795572
 10
1.354217370036034
 20
-8.80470101872352
 30
-6.352673089795572
 10
1.369880717044361
 20
-8.766449789844998
 30
-6.352673089795572
 10
1.385147636276306
 20
-8.728167045529119
 30
-6.352673089795572
 10
1.400011584191952
 20
-8.689855394632402
 30
-6.352673089795572
 10
1.414465660135048
 20
-8.651517495782343
 30
-6.352673089795572
 10
1.428503612245455
 20
-8.613156072399888
 30
-6.352673089795572
 10
1.442120766828894
 20
-8.574773926899112
 30
-6.352673089795572
 10
1.455315342002046
 20
-8.536373959419833
 30
-6.352673089795572
 10
1.468088483295526
 20
-8.497959172348984
 30
-6.352673089795572
 10
1.480441412879711
 20
-8.459532642927825
 30
-6.352673089795572
 10
1.492372975325013
 20
-8.421097500035642
 30
-6.352673089795572
 10
1.503877407738409
 20
-8.382656904461597
 30
-6.352673089795572
 10
1.514941100958795
 20
-8.344214015928173
 30
-6.352673089795572
 10
1.525542824771124
 20
-8.305772005562516
 30
-6.352673089795572
 10
1.535660302690855
 20
-8.267334152128157
 30
-6.352673089795572
 10
1.545275900205288
 20
-8.22890392576788
 30
-6.352673089795572
 10
1.554381629351121
 20
-8.190485065086292
 30
-6.352673089795572
 10
1.562986981298083
 20
-8.152081685968624
 30
-6.352673089795572
 10
1.571116598162726
 20
-8.113698275594742
 30
-6.352673089795572
 10
1.578794439595798
 20
-8.075339534938393
 30
-6.352673089795572
 10
1.586029997547763
 20
-8.037010242372375
 30
-6.352673089795572
 10
1.592806392778717
 20
-7.998715143581833
 30
-6.352673089795572
 10
1.599060984527328
 20
-7.960458744639907
 30
-6.352673089795572
 10
1.604695747577034
 20
-7.922245492242197
 30
-6.352673089795572
 10
1.609613338610801
 20
-7.884080312479497
 30
-6.352673089795572
 10
1.61374900316626
 20
-7.845969052382159
 30
-6.352673089795572
 10
1.617097694135393
 20
-7.807918957393965
 30
-6.352673089795572
 10
1.61975966431766
 20
-7.769939147060313
 30
-6.352673089795572
 10
1.62189667827433
 20
-7.732041017129873
 30
-6.352673089795572
 10
1.623643507195135
 20
-7.694238553006513
 30
-6.352673089795572
 10
1.625029172782459
 20
-7.656548746366439
 30
-6.352673089795572
 10
1.625903408697174
 20
-7.618991810731799
 30
-6.352673089795572
 10
1.625836287602306
 20
-7.581591907092757
 30
-6.352673089795572
 10
1.624227991073263
 20
-7.544374225502764
 30
-6.352673089795572
 10
1.621218194486216
 20
-7.514763853127405
 30
-6.352673089795572
 10
1.6177732071655
 20
-7.492655553207299
 30
-6.352673089795572
 10
1.614920728685548
 20
-7.477961782926342
 30
-6.352673089795572
 10
1.613355531726506
 20
-7.470626171915156
 30
-6.352673089795572
  0
ARC
  5
107
102
{ACAD_REACTORS
330
1005B
102
}
330
1F
100
AcDbEntity
  8
0
 62
     1
100
AcDbCircle
 10
1.791491532185135
 20
-5.909396933421547
 30
-6.352673089795572
 40
0.4999999999999986
100
AcDbArc
 50
106.8598556824949
 51
192.0445668748015
  0
SPLINE
  5
108
102
{ACAD_REACTORS
330
1005B
102
}
330
1F
100
AcDbEntity
  8
0
 62
     1
100
AcDbSpline
210
0.0
220
0.0
230
1.0
 70
     8
 71
     5
 72
    81
 73
    75
 74
     0
 42
0.000000001
 43
0.0000000001
 40
0.0
 40
0.0
 40
0.0
 40
0.0
 40
0.0
 40
0.0
 40
0.0142857142857143
 40
0.0285714285714286
 40
0.0428571428571429
 40
0.0571428571428571
 40
0.0714285714285715
 40
0.0857142857142858
 40
0.1
 40
0.1142857142857143
 40
0.1285714285714286
 40
0.1428571428571429
 40
0.1571428571428571
 40
0.1714285714285715
 40
0.1857142857142857
 40
0.2
 40
0.2142857142857144
 40
0.2285714285714286
 40
0.2428571428571429
 40
0.2571428571428572
 40
0.2714285714285714
 40
0.2857142857142857
 40
0.3
 40
0.3142857142857143
 40
0.3285714285714286
 40
0.3428571428571429
 40
0.3571428571428572
 40
0.3714285714285715
 40
0.3857142857142857
 40
0.4000000000000001
 40
0.4142857142857145
 40
0.4285714285714288
 40
0.442857142857143
 40
0.4571428571428573
 40
0.4714285714285715
 40
0.4857142857142859
 40
0.5000000000000001
 40
0.5142857142857144
 40
0.5285714285714286
 40
0.5428571428571428
 40
0.5571428571428571
 40
0.5714285714285713
 40
0.5857142857142855
 40
0.5999999999999998
 40
0.614285714285714
 40
0.6285714285714282
 40
0.6428571428571425
 40
0.6571428571428567
 40
0.6714285714285709
 40
0.6857142857142852
 40
0.6999999999999994
 40
0.7142857142857137
 40
0.7285714285714277
 40
0.7428571428571421
 40
0.7571428571428564
 40
0.7714285714285706
 40
0.7857142857142848
 40
0.7999999999999991
 40
0.8142857142857133
 40
0.8285714285714275
 40
0.8428571428571418
 40
0.857142857142856
 40
0.8714285714285702
 40
0.8857142857142845
 40
0.8999999999999987
 40
0.9142857142857128
 40
0.9285714285714272
 40
0.9428571428571411
 40
0.9571428571428556
 40
0.9714285714285695
 40
0.9857142857142841
 40
1.0
 40
1.0
 40
1.0
 40
1.0
 40
1.0
 40
1.0
 10
4.119931701024471
 20
-6.432368327470726
 30
-6.352673089795572
 10
4.124011999931008
 20
-6.438662149144533
 30
-6.352673089795572
 10
4.13238505766151
 20
-6.451069220627758
 30
-6.352673089795572
 10
4.145582012559954
 20
-6.469138123317364
 30
-6.352673089795572
 10
4.16439146008332
 20
-6.492204065994101
 30
-6.352673089795572
 10
4.189571097733798
 20
-6.519658178408292
 30
-6.352673089795572
 10
4.215969361431339
 20
-6.546151365668507
 30
-6.352673089795572
 10
4.24314430344282
 20
-6.572089951392683
 30
-6.352673089795572
 10
4.270774834832911
 20
-6.597760855716259
 30
-6.352673089795572
 10
4.298740408135584
 20
-6.623256039867996
 30
-6.352673089795572
 10
4.327049529863918
 20
-6.648542967475833
 30
-6.352673089795572
 10
4.355787608466231
 20
-6.673516451743751
 30
-6.352673089795572
 10
4.38506097074954
 20
-6.698054049842298
 30
-6.352673089795572
 10
4.414934057655822
 20
-6.722078423844806
 30
-6.352673089795572
 10
4.445398177038279
 20
-6.745588019293123
 30
-6.352673089795572
 10
4.476403406102734
 20
-6.768624490031939
 30
-6.352673089795572
 10
4.507877429457346
 20
-6.791253184908555
 30
-6.352673089795572
 10
4.539747788518161
 20
-6.813540273929731
 30
-6.352673089795572
 10
4.571967003303159
 20
-6.83552686452775
 30
-6.352673089795572
 10
4.604519782681249
 20
-6.857221536421434
 30
-6.352673089795572
 10
4.637409459655126
 20
-6.878614198968435
 30
-6.352673089795572
 10
4.670649652165922
 20
-6.899684586046817
 30
-6.352673089795572
 10
4.704254611905989
 20
-6.920412100133546
 30
-6.352673089795572
 10
4.738228139775488
 20
-6.940787119587852
 30
-6.352673089795572
 10
4.772561943838725
 20
-6.96081264915999
 30
-6.352673089795572
 10
4.80724110085068
 20
-6.980498704572013
 30
-6.352673089795572
 10
4.842247540522167
 20
-6.99985871924126
 30
-6.352673089795572
 10
4.877564008498643
 20
-7.018905462871344
 30
-6.352673089795572
 10
4.913178647388805
 20
-7.037646324331035
 30
-6.352673089795572
 10
4.949085147196482
 20
-7.056083143585738
 30
-6.352673089795572
 10
4.985280478457751
 20
-7.074214525195657
 30
-6.352673089795572
 10
5.02176332943952
 20
-7.092037429017793
 30
-6.352673089795572
 10
5.058532387146021
 20
-7.109548922031464
 30
-6.352673089795572
 10
5.095584340886992
 20
-7.126748213509955
 30
-6.352673089795572
 10
5.132913904255444
 20
-7.143636626648145
 30
-6.352673089795572
 10
5.170514730769321
 20
-7.16021665642927
 30
-6.352673089795572
 10
5.208380060994267
 20
-7.176491302420743
 30
-6.352673089795572
 10
5.246503423208624
 20
-7.192463346863803
 30
-6.352673089795572
 10
5.284879450315782
 20
-7.208134514607564
 30
-6.352673089795572
 10
5.323503837393596
 20
-7.223505509822075
 30
-6.352673089795572
 10
5.36237294363064
 20
-7.238576415920846
 30
-6.352673089795572
 10
5.401483498450017
 20
-7.253346989165947
 30
-6.352673089795572
 10
5.440832288279908
 20
-7.267816973097268
 30
-6.352673089795572
 10
5.480415785974178
 20
-7.281986469874595
 30
-6.352673089795572
 10
5.520230155617403
 20
-7.295855938410838
 30
-6.352673089795572
 10
5.560271423390618
 20
-7.309426027014765
 30
-6.352673089795572
 10
5.600535598189383
 20
-7.322697457389438
 30
-6.352673089795572
 10
5.641018799748598
 20
-7.33567089960357
 30
-6.352673089795572
 10
5.681717411296597
 20
-7.348346827991989
 30
-6.352673089795572
 10
5.722628074410723
 20
-7.360725512703012
 30
-6.352673089795572
 10
5.763747597557452
 20
-7.372807087085007
 30
-6.352673089795572
 10
5.80507288677643
 20
-7.384591594982879
 30
-6.352673089795572
 10
5.846600873924652
 20
-7.396079044328516
 30
-6.352673089795572
 10
5.888328424340516
 20
-7.407269470322972
 30
-6.352673089795572
 10
5.930252339597993
 20
-7.418162952113192
 30
-6.352673089795572
 10
5.972369429889822
 20
-7.428759593303752
 30
-6.352673089795572
 10
6.014676568351481
 20
-7.439059515646434
 30
-6.352673089795572
 10
6.057170743251953
 20
-7.449062848468344
 30
-6.352673089795572
 10
6.099849129858222
 20
-7.458769724677338
 30
-6.352673089795572
 10
6.142709076782145
 20
-7.468180266672746
 30
-6.352673089795572
 10
6.18574799758724
 20
-7.4772945631059
 30
-6.352673089795572
 10
6.228963280637506
 20
-7.486112648328116
 30
-6.352673089795572
 10
6.272352202344601
 20
-7.494634486230808
 30
-6.352673089795572
 10
6.315911808368023
 20
-7.502859946208303
 30
-6.352673089795572
 10
6.359638904728358
 20
-7.510788811674302
 30
-6.352673089795572
 10
6.40353026995894
 20
-7.518420850521437
 30
-6.352673089795572
 10
6.447582821742811
 20
-7.525755876133587
 30
-6.352673089795572
 10
6.491793794236381
 20
-7.532793810197432
 30
-6.352673089795572
 10
6.536160925233504
 20
-7.539534756952633
 30
-6.352673089795572
 10
6.58068259262408
 20
-7.545979045204774
 30
-6.352673089795572
 10
6.625357695866837
 20
-7.552127107566178
 30
-6.352673089795572
 10
6.661219996867812
 20
-7.556808928508047
 30
-6.352673089795572
 10
6.688185325069907
 20
-7.560187344708026
 30
-6.352673089795572
 10
6.706192690426279
 20
-7.562380553157836
 30
-6.352673089795572
 10
6.715203993074444
 20
-7.563462390126943
 30
-6.352673089795572
  0
ARC
  5
109
102
{ACAD_REACTORS
330
1005B
102
}
330
1F
100
AcDbEntity
  8
0
 62
     1
100
AcDbCircle
 10
2.890014745601201
 20
-5.454373719842934
 30
-6.352673089795572
 40
0.5000000000000068
100
AcDbArc
 50
32.95543312520196
 51
118.1401443175058
  0
ARC
  5
110
102
{ACAD_REACTORS
330
1005B
102
}
330
1F
100
AcDbEntity
  8
0
 62
     1
100
AcDbCircle
 10
0.0370315888501462
 20
-0.1202095165872237
 30
-6.352673089795572
 40
5.549200000000001
100
AcDbArc
 50
331.8598556824942
 51
343.140144317506
  0
ARC
  5
111
102
{ACAD_REACTORS
330
1005B
102
}
330
1F
100
AcDbEntity
  8
0
 62
     1
100
AcDbCircle
 10
5.37119579210587
 20
2.732773640163834
 30
-6.352673089795572
 40
0.5000000000000018
100
AcDbArc
 50
122.9554331252004
 51
208.1401443175054
  0
LINE
  5
112
102
{ACAD_REACTORS
330
1005B
102
}
330
1F
100
AcDbEntity
  8
0
 62
     1
100
AcDbLine
 10
5.099202532159848
 20
3.152320617919535
 30
-6.352673089795572
 11
6.349190399733648
 21
3.962690595587105
 31
-6.352673089795572
  0
ARC
  5
113
102
{ACAD_REACTORS
330
1005B
102
}
330
1F
100
AcDbEntity
  8
0
 62
     1
100
AcDbCircle
 10
0.0370315888501462
 20
-0.1202095165872237
 30
-6.352673089795572
 40
5.549199999999999
100
AcDbArc
 50
16.85985568249401
 51
28.14014431750585
  0
SPLINE
  5
114
102
{ACAD_REACTORS
330
1005B
102
}
330
1F
100
AcDbEntity
  8
0
 62
     1
100
AcDbSpline
210
0.0
220
0.0
230
1.0
 70
     8
 71
     5
 72
    81
 73
    75
 74
     0
 42
0.000000001
 43
0.0000000001
 40
-1.0
 40
-1.0
 40
-1.0
 40
-1.0
 40
-1.0
 40
-1.0
 40
-0.9857142857142841
 40
-0.9714285714285695
 40
-0.9571428571428556
 40
-0.9428571428571411
 40
-0.9285714285714272
 40
-0.9142857142857128
 40
-0.8999999999999987
 40
-0.8857142857142845
 40
-0.8714285714285702
 40
-0.857142857142856
 40
-0.8428571428571418
 40
-0.8285714285714275
 40
-0.8142857142857133
 40
-0.7999999999999991
 40
-0.7857142857142848
 40
-0.7714285714285706
 40
-0.7571428571428564
 40
-0.7428571428571421
 40
-0.7285714285714277
 40
-0.7142857142857137
 40
-0.6999999999999994
 40
-0.6857142857142852
 40
-0.6714285714285709
 40
-0.6571428571428567
 40
-0.6428571428571425
 40
-0.6285714285714282
 40
-0.614285714285714
 40
-0.5999999999999998
 40
-0.5857142857142855
 40
-0.5714285714285713
 40
-0.5571428571428571
 40
-0.5428571428571428
 40
-0.5285714285714286
 40
-0.5142857142857144
 40
-0.5000000000000001
 40
-0.4857142857142859
 40
-0.4714285714285715
 40
-0.4571428571428573
 40
-0.442857142857143
 40
-0.4285714285714288
 40
-0.4142857142857145
 40
-0.4000000000000001
 40
-0.3857142857142857
 40
-0.3714285714285715
 40
-0.3571428571428572
 40
-0.3428571428571429
 40
-0.3285714285714286
 40
-0.3142857142857143
 40
-0.3
 40
-0.2857142857142857
 40
-0.2714285714285714
 40
-0.2571428571428572
 40
-0.2428571428571429
 40
-0.2285714285714286
 40
-0.2142857142857144
 40
-0.2
 40
-0.1857142857142857
 40
-0.1714285714285715
 40
-0.1571428571428571
 40
-0.1428571428571429
 40
-0.1285714285714286
 40
-0.1142857142857143
 40
-0.1
 40
-0.0857142857142858
 40
-0.0714285714285715
 40
-0.0571428571428571
 40
-0.0428571428571429
 40
-0.0285714285714286
 40
-0.0142857142857143
 40
0.0
 40
0.0
 40
0.0
 40
0.0
 40
0.0
 40
0.0
 10
7.480284462389844
 20
-6.798381920811522
 30
-6.352673089795572
 10
7.479202625420748
 20
-6.78937061816336
 30
-6.352673089795572
 10
7.477009416970945
 20
-6.771363252806963
 30
-6.352673089795572
 10
7.47363100077098
 20
-6.744397924604882
 30
-6.352673089795572
 10
7.468949179829111
 20
-6.708535623603907
 30
-6.352673089795572
 10
7.462801117467707
 20
-6.663860520361154
 30
-6.352673089795572
 10
7.456356829215549
 20
-6.619338852970585
 30
-6.352673089795572
 10
7.449615882460337
 20
-6.574971721973469
 30
-6.352673089795572
 10
7.442577948396513
 20
-6.530760749479867
 30
-6.352673089795572
 10
7.435242922784381
 20
-6.486708197696032
 30
-6.352673089795572
 10
7.427610883937228
 20
-6.442816832465439
 30
-6.352673089795572
 10
7.419682018471229
 20
-6.399089736105111
 30
-6.352673089795572
 10
7.411456558493719
 20
-6.355530130081675
 30
-6.352673089795572
 10
7.402934720591028
 20
-6.312141208374583
 30
-6.352673089795572
 10
7.394116635368822
 20
-6.268925925324339
 30
-6.352673089795572
 10
7.385002338935668
 20
-6.225887004519222
 30
-6.352673089795572
 10
7.375591796940268
 20
-6.183027057595296
 30
-6.352673089795572
 10
7.36588492073128
 20
-6.140348670989013
 30
-6.352673089795572
 10
7.355881587909371
 20
-6.097854496088544
 30
-6.352673089795572
 10
7.345581665566681
 20
-6.055547357626892
 30
-6.352673089795572
 10
7.334985024376132
 20
-6.013430267335081
 30
-6.352673089795572
 10
7.324091542585895
 20
-5.971506352077582
 30
-6.352673089795572
 10
7.312901116591442
 20
-5.929778801661726
 30
-6.352673089795572
 10
7.301413667245805
 20
-5.888250814513526
 30
-6.352673089795572
 10
7.289629159347915
 20
-5.846925525294523
 30
-6.352673089795572
 10
7.277547584965956
 20
-5.805806002147804
 30
-6.352673089795572
 10
7.265168900254897
 20
-5.764895339033685
 30
-6.352673089795572
 10
7.252492971866496
 20
-5.724196727485661
 30
-6.352673089795572
 10
7.239519529652357
 20
-5.683713525926478
 30
-6.352673089795572
 10
7.226248099277698
 20
-5.643449351127685
 30
-6.352673089795572
 10
7.212678010673757
 20
-5.603408083354494
 30
-6.352673089795572
 10
7.198808542137518
 20
-5.563593713711256
 30
-6.352673089795572
 10
7.18463904536018
 20
-5.524010216016989
 30
-6.352673089795572
 10
7.17016906142887
 20
-5.484661426187088
 30
-6.352673089795572
 10
7.155398488183761
 20
-5.445550871367714
 30
-6.352673089795572
 10
7.140327582084994
 20
-5.406681765130656
 30
-6.352673089795572
 10
7.124956586870494
 20
-5.368057378052839
 30
-6.352673089795572
 10
7.109285419126701
 20
-5.329681350945691
 30
-6.352673089795572
 10
7.093313374683672
 20
-5.291557988731341
 30
-6.352673089795572
 10
7.07703872869221
 20
-5.253692658506395
 30
-6.352673089795572
 10
7.06045869891105
 20
-5.216091831992514
 30
-6.352673089795572
 10
7.043570285772881
 20
-5.178762268624069
 30
-6.352673089795572
 10
7.026370994294394
 20
-5.141710314883113
 30
-6.352673089795572
 10
7.008859501280733
 20
-5.104941257176605
 30
-6.352673089795572
 10
6.99103659745859
 20
-5.068458406194821
 30
-6.352673089795572
 10
6.972905215848664
 20
-5.032263074933553
 30
-6.352673089795572
 10
6.954468396593968
 20
-4.996356575125886
 30
-6.352673089795572
 10
6.935727535134263
 20
-4.960741936235706
 30
-6.352673089795572
 10
6.916680791504214
 20
-4.925425468259263
 30
-6.352673089795572
 10
6.897320776834925
 20
-4.890419028587743
 30
-6.352673089795572
 10
6.877634721422912
 20
-4.855739871575792
 30
-6.352673089795572
 10
6.857609191850761
 20
-4.821406067512555
 30
-6.352673089795572
 10
6.837234172396494
 20
-4.787432539643063
 30
-6.352673089795572
 10
6.816506658309746
 20
-4.753827579902988
 30
-6.352673089795572
 10
6.795436271231361
 20
-4.720587387392185
 30
-6.352673089795572
 10
6.77404360868436
 20
-4.687697710418319
 30
-6.352673089795572
 10
6.752348936790669
 20
-4.655144931040211
 30
-6.352673089795572
 10
6.730362346192668
 20
-4.622925716255224
 30
-6.352673089795572
 10
6.708075257171481
 20
-4.59105535719442
 30
-6.352673089795572
 10
6.685446562294865
 20
-4.559581333839815
 30
-6.352673089795572
 10
6.662410091556049
 20
-4.528576104775353
 30
-6.352673089795572
 10
6.638900496107746
 20
-4.498111985392895
 30
-6.352673089795572
 10
6.61487612210522
 20
-4.468238898486632
 30
-6.352673089795572
 10
6.59033852400667
 20
-4.438965536203312
 30
-6.352673089795572
 10
6.565365039738752
 20
-4.410227457600996
 30
-6.352673089795572
 10
6.540078112130911
 20
-4.381918335872654
 30
-6.352673089795572
 10
6.514582927979182
 20
-4.353952762569974
 30
-6.352673089795572
 10
6.488912023655617
 20
-4.326322231179887
 30
-6.352673089795572
 10
6.462973437931426
 20
-4.299147289168416
 30
-6.352673089795572
 10
6.436480250671211
 20
-4.272749025470872
 30
-6.352673089795572
 10
6.409026138257042
 20
-4.247569387820391
 30
-6.352673089795572
 10
6.385960195580283
 20
-4.228759940297038
 30
-6.352673089795572
 10
6.36789129289068
 20
-4.215562985398591
 30
-6.352673089795572
 10
6.355484221407452
 20
-4.207189927668082
 30
-6.352673089795572
 10
6.349190399733648
 20
-4.203109628761552
 30
-6.352673089795572
  0
ARC
  5
115
102
{ACAD_REACTORS
330
1005B
102
}
330
1F
100
AcDbEntity
  8
0
 62
     1
100
AcDbCircle
 10
0.0370315888501462
 20
-0.1202095165872237
 30
-6.352673089795572
 40
10.0
100
AcDbArc
 50
41.89882108566853
 51
48.10117891433162
  0
ARC
  5
116
102
{ACAD_REACTORS
330
1005B
102
}
330
1F
100
AcDbEntity
  8
0
 62
     1
100
AcDbCircle
 10
0.0370315888501462
 20
-0.1202095165872237
 30
-6.352673089795572
 40
10.0
100
AcDbArc
 50
86.89882108566852
 51
93.10117891433129
  0
LINE
  5
117
102
{ACAD_REACTORS
330
1005B
102
}
330
1F
100
AcDbEntity
  8
0
 62
     1
100
AcDbLine
 10
1.302498740642894
 20
5.77331413469961
 30
-6.352673089795572
 11
1.613355531726517
 21
7.230207138740709
 31
-6.352673089795572
  0
SPLINE
  5
118
102
{ACAD_REACTORS
330
1005B
102
}
330
1F
100
AcDbEntity
  8
0
 62
     1
100
AcDbSpline
210
0.0
220
0.0
230
1.0
 70
     8
 71
     5
 72
    81
 73
    75
 74
     0
 42
0.000000001
 43
0.0000000001
 40
-1.0
 40
-1.0
 40
-1.0
 40
-1.0
 40
-1.0
 40
-1.0
 40
-0.9857142857142841
 40
-0.9714285714285695
 40
-0.9571428571428556
 40
-0.9428571428571411
 40
-0.9285714285714272
 40
-0.9142857142857128
 40
-0.8999999999999987
 40
-0.8857142857142845
 40
-0.8714285714285702
 40
-0.857142857142856
 40
-0.8428571428571418
 40
-0.8285714285714275
 40
-0.8142857142857133
 40
-0.7999999999999991
 40
-0.7857142857142848
 40
-0.7714285714285706
 40
-0.7571428571428564
 40
-0.7428571428571421
 40
-0.7285714285714277
 40
-0.7142857142857137
 40
-0.6999999999999994
 40
-0.6857142857142852
 40
-0.6714285714285709
 40
-0.6571428571428567
 40
-0.6428571428571425
 40
-0.6285714285714282
 40
-0.614285714285714
 40
-0.5999999999999998
 40
-0.5857142857142855
 40
-0.5714285714285713
 40
-0.5571428571428571
 40
-0.5428571428571428
 40
-0.5285714285714286
 40
-0.5142857142857144
 40
-0.5000000000000001
 40
-0.4857142857142859
 40
-0.4714285714285715
 40
-0.4571428571428573
 40
-0.442857142857143
 40
-0.4285714285714288
 40
-0.4142857142857145
 40
-0.4000000000000001
 40
-0.3857142857142857
 40
-0.3714285714285715
 40
-0.3571428571428572
 40
-0.3428571428571429
 40
-0.3285714285714286
 40
-0.3142857142857143
 40
-0.3
 40
-0.2857142857142857
 40
-0.2714285714285714
 40
-0.2571428571428572
 40
-0.2428571428571429
 40
-0.2285714285714286
 40
-0.2142857142857144
 40
-0.2
 40
-0.1857142857142857
 40
-0.1714285714285715
 40
-0.1571428571428571
 40
-0.1428571428571429
 40
-0.1285714285714286
 40
-0.1142857142857143
 40
-0.1
 40
-0.0857142857142858
 40
-0.0714285714285715
 40
-0.0571428571428571
 40
-0.0428571428571429
 40
-0.0285714285714286
 40
-0.0142857142857143
 40
0.0
 40
0.0
 40
0.0
 40
0.0
 40
0.0
 40
0.0
 10
6.715203993074448
 20
7.323043356952489
 30
-6.352673089795572
 10
6.706192690426279
 20
7.321961519983389
 30
-6.352673089795572
 10
6.688185325069907
 20
7.319768311533579
 30
-6.352673089795572
 10
6.661219996867812
 20
7.316389895333614
 30
-6.352673089795572
 10
6.625357695866837
 20
7.311708074391738
 30
-6.352673089795572
 10
6.580682592624087
 20
7.305560012030333
 30
-6.352673089795572
 10
6.536160925233504
 20
7.299115723778172
 30
-6.352673089795572
 10
6.491793794236381
 20
7.292374777022963
 30
-6.352673089795572
 10
6.447582821742811
 20
7.285336842959139
 30
-6.352673089795572
 10
6.403530269958951
 20
7.278001817347011
 30
-6.352673089795572
 10
6.359638904728358
 20
7.270369778499855
 30
-6.352673089795572
 10
6.315911808368023
 20
7.26244091303387
 30
-6.352673089795572
 10
6.272352202344604
 20
7.254215453056353
 30
-6.352673089795572
 10
6.228963280637506
 20
7.245693615153669
 30
-6.352673089795572
 10
6.18574799758724
 20
7.236875529931459
 30
-6.352673089795572
 10
6.142709076782148
 20
7.227761233498299
 30
-6.352673089795572
 10
6.099849129858222
 20
7.218350691502905
 30
-6.352673089795572
 10
6.057170743251953
 20
7.208643815293903
 30
-6.352673089795572
 10
6.014676568351481
 20
7.198640482472001
 30
-6.352673089795572
 10
5.972369429889822
 20
7.188340560129326
 30
-6.352673089795572
 10
5.930252339597993
 20
7.17774391893878
 30
-6.352673089795572
 10
5.888328424340519
 20
7.166850437148532
 30
-6.352673089795572
 10
5.846600873924652
 20
7.155660011154068
 30
-6.352673089795572
 10
5.80507288677643
 20
7.144172561808446
 30
-6.352673089795572
 10
5.763747597557452
 20
7.132388053910545
 30
-6.352673089795572
 10
5.722628074410723
 20
7.120306479528601
 30
-6.352673089795572
 10
5.681717411296597
 20
7.107927794817527
 30
-6.352673089795572
 10
5.641018799748598
 20
7.095251866429123
 30
-6.352673089795572
 10
5.600535598189383
 20
7.082278424215004
 30
-6.352673089795572
 10
5.560271423390618
 20
7.069006993840332
 30
-6.352673089795572
 10
5.520230155617403
 20
7.05543690523639
 30
-6.352673089795572
 10
5.480415785974178
 20
7.041567436700141
 30
-6.352673089795572
 10
5.440832288279908
 20
7.027397939922821
 30
-6.352673089795572
 10
5.401483498450017
 20
7.012927955991507
 30
-6.352673089795572
 10
5.36237294363064
 20
6.998157382746391
 30
-6.352673089795572
 10
5.323503837393596
 20
6.983086476647628
 30
-6.352673089795572
 10
5.284879450315782
 20
6.967715481433124
 30
-6.352673089795572
 10
5.246503423208624
 20
6.952044313689327
 30
-6.352673089795572
 10
5.208380060994267
 20
6.936072269246309
 30
-6.352673089795572
 10
5.170514730769321
 20
6.919797623254851
 30
-6.352673089795572
 10
5.132913904255444
 20
6.903217593473684
 30
-6.352673089795572
 10
5.095584340886992
 20
6.886329180335515
 30
-6.352673089795572
 10
5.058532387146032
 20
6.869129888857031
 30
-6.352673089795572
 10
5.02176332943952
 20
6.851618395843352
 30
-6.352673089795572
 10
4.985280478457751
 20
6.833795492021231
 30
-6.352673089795572
 10
4.949085147196482
 20
6.815664110411283
 30
-6.352673089795572
 10
4.913178647388813
 20
6.797227291156609
 30
-6.352673089795572
 10
4.877564008498643
 20
6.778486429696897
 30
-6.352673089795572
 10
4.842247540522167
 20
6.759439686066848
 30
-6.352673089795572
 10
4.80724110085068
 20
6.740079671397566
 30
-6.352673089795572
 10
4.772561943838725
 20
6.72039361598555
 30
-6.352673089795572
 10
4.738228139775488
 20
6.700368086413384
 30
-6.352673089795572
 10
4.704254611905989
 20
6.679993066959127
 30
-6.352673089795572
 10
4.670649652165922
 20
6.65926555287239
 30
-6.352673089795572
 10
4.637409459655126
 20
6.638195165793995
 30
-6.352673089795572
 10
4.604519782681249
 20
6.616802503246994
 30
-6.352673089795572
 10
4.571967003303159
 20
6.59510783135331
 30
-6.352673089795572
 10
4.539747788518168
 20
6.573121240755313
 30
-6.352673089795572
 10
4.507877429457357
 20
6.550834151734115
 30
-6.352673089795572
 10
4.476403406102734
 20
6.528205456857499
 30
-6.352673089795572
 10
4.445398177038279
 20
6.505168986118682
 30
-6.352673089795572
 10
4.414934057655822
 20
6.48165939067038
 30
-6.352673089795572
 10
4.38506097074954
 20
6.457635016667865
 30
-6.352673089795572
 10
4.355787608466231
 20
6.43309741856931
 30
-6.352673089795572
 10
4.327049529863925
 20
6.408123934301386
 30
-6.352673089795572
 10
4.298740408135584
 20
6.382837006693549
 30
-6.352673089795572
 10
4.270774834832911
 20
6.357341822541819
 30
-6.352673089795572
 10
4.24314430344282
 20
6.33167091821825
 30
-6.352673089795572
 10
4.215969361431339
 20
6.305732332494059
 30
-6.352673089795572
 10
4.189571097733798
 20
6.279239145233852
 30
-6.352673089795572
 10
4.16439146008332
 20
6.251785032819675
 30
-6.352673089795572
 10
4.145582012559954
 20
6.228719090142931
 30
-6.352673089795572
 10
4.13238505766151
 20
6.21065018745331
 30
-6.352673089795572
 10
4.124011999931008
 20
6.198243115970079
 30
-6.352673089795572
 10
4.119931701024471
 20
6.191949294296286
 30
-6.352673089795572
  0
LINE
  5
119
102
{ACAD_REACTORS
330
1005B
102
}
330
1F
100
AcDbEntity
  8
0
 62
     1
100
AcDbLine
 10
-3.235498545656595
 20
4.941961426722492
 30
-6.352673089795572
 11
-4.045868523324179
 21
6.191949294296286
 31
-6.352673089795572
  0
LINE
  5
120
102
{ACAD_REACTORS
330
1005B
102
}
330
1F
100
AcDbEntity
  8
0
 62
     1
100
AcDbLine
 10
6.349190399733648
 20
-4.203109628761552
 30
-6.352673089795572
 11
5.099202532159848
 21
-3.392739651093961
 31
-6.352673089795572
  0
ARC
  5
121
102
{ACAD_REACTORS
330
1005B
102
}
330
1F
100
AcDbEntity
  8
0
 62
     1
100
AcDbCircle
 10
5.82621900568448
 20
-1.874669459922216
 30
-6.352673089795572
 40
0.4999999999999973
100
AcDbArc
 50
77.9554331252003
 51
163.1401443175026
  0
SPLINE
  5
122
102
{ACAD_REACTORS
330
1005B
102
}
330
1F
100
AcDbEntity
  8
0
 62
     1
100
AcDbSpline
210
0.0
220
0.0
230
1.0
 70
     8
 71
     5
 72
    81
 73
    75
 74
     0
 42
0.000000001
 43
0.0000000001
 40
0.0
 40
0.0
 40
0.0
 40
0.0
 40
0.0
 40
0.0
 40
0.0142857142857143
 40
0.0285714285714286
 40
0.0428571428571429
 40
0.0571428571428571
 40
0.0714285714285715
 40
0.0857142857142858
 40
0.1
 40
0.1142857142857143
 40
0.1285714285714286
 40
0.1428571428571429
 40
0.1571428571428571
 40
0.1714285714285715
 40
0.1857142857142857
 40
0.2
 40
0.2142857142857144
 40
0.2285714285714286
 40
0.2428571428571429
 40
0.2571428571428572
 40
0.2714285714285714
 40
0.2857142857142857
 40
0.3
 40
0.3142857142857143
 40
0.3285714285714286
 40
0.3428571428571429
 40
0.3571428571428572
 40
0.3714285714285715
 40
0.3857142857142857
 40
0.4000000000000001
 40
0.4142857142857145
 40
0.4285714285714288
 40
0.442857142857143
 40
0.4571428571428573
 40
0.4714285714285715
 40
0.4857142857142859
 40
0.5000000000000001
 40
0.5142857142857144
 40
0.5285714285714286
 40
0.5428571428571428
 40
0.5571428571428571
 40
0.5714285714285713
 40
0.5857142857142855
 40
0.5999999999999998
 40
0.614285714285714
 40
0.6285714285714282
 40
0.6428571428571425
 40
0.6571428571428567
 40
0.6714285714285709
 40
0.6857142857142852
 40
0.6999999999999994
 40
0.7142857142857137
 40
0.7285714285714277
 40
0.7428571428571421
 40
0.7571428571428564
 40
0.7714285714285706
 40
0.7857142857142848
 40
0.7999999999999991
 40
0.8142857142857133
 40
0.8285714285714275
 40
0.8428571428571418
 40
0.857142857142856
 40
0.8714285714285702
 40
0.8857142857142845
 40
0.8999999999999987
 40
0.9142857142857128
 40
0.9285714285714272
 40
0.9428571428571411
 40
0.9571428571428556
 40
0.9714285714285695
 40
0.9857142857142841
 40
1.0
 40
1.0
 40
1.0
 40
1.0
 40
1.0
 40
1.0
 10
-1.539292354026214
 20
-7.470626171915156
 30
-6.352673089795572
 10
-1.540857550985256
 20
-7.477961782926342
 30
-6.352673089795572
 10
-1.543710029465207
 20
-7.492655553207299
 30
-6.352673089795572
 10
-1.547155016785923
 20
-7.514763853127405
 30
-6.352673089795572
 10
-1.550164813372978
 20
-7.544374225502764
 30
-6.352673089795572
 10
-1.55177310990201
 20
-7.581591907092757
 30
-6.352673089795572
 10
-1.551840230996878
 20
-7.618991810731799
 30
-6.352673089795572
 10
-1.550965995082167
 20
-7.656548746366439
 30
-6.352673089795572
 10
-1.549580329494842
 20
-7.694238553006513
 30
-6.352673089795572
 10
-1.547833500574041
 20
-7.732041017129873
 30
-6.352673089795572
 10
-1.545696486617364
 20
-7.769939147060313
 30
-6.352673089795572
 10
-1.543034516435104
 20
-7.807918957393965
 30
-6.352673089795572
 10
-1.539685825465964
 20
-7.845969052382159
 30
-6.352673089795572
 10
-1.535550160910512
 20
-7.884080312479497
 30
-6.352673089795572
 10
-1.530632569876738
 20
-7.922245492242197
 30
-6.352673089795572
 10
-1.524997806827043
 20
-7.960458744639907
 30
-6.352673089795572
 10
-1.518743215078421
 20
-7.998715143581833
 30
-6.352673089795572
 10
-1.511966819847474
 20
-8.037010242372375
 30
-6.352673089795572
 10
-1.504731261895509
 20
-8.075339534938393
 30
-6.352673089795572
 10
-1.49705342046243
 20
-8.113698275594742
 30
-6.352673089795572
 10
-1.488923803597794
 20
-8.152081685968624
 30
-6.352673089795572
 10
-1.480318451650825
 20
-8.190485065086292
 30
-6.352673089795572
 10
-1.471212722504992
 20
-8.22890392576788
 30
-6.352673089795572
 10
-1.461597124990563
 20
-8.267334152128157
 30
-6.352673089795572
 10
-1.451479647070831
 20
-8.305772005562516
 30
-6.352673089795572
 10
-1.440877923258499
 20
-8.344214015928173
 30
-6.352673089795572
 10
-1.429814230038116
 20
-8.382656904461597
 30
-6.352673089795572
 10
-1.41830979762472
 20
-8.421097500035642
 30
-6.352673089795572
 10
-1.406378235179419
 20
-8.459532642927825
 30
-6.352673089795572
 10
-1.394025305595237
 20
-8.497959172348984
 30
-6.352673089795572
 10
-1.381252164301754
 20
-8.536373959419833
 30
-6.352673089795572
 10
-1.368057589128605
 20
-8.574773926899112
 30
-6.352673089795572
 10
-1.354440434545162
 20
-8.613156072399888
 30
-6.352673089795572
 10
-1.340402482434759
 20
-8.651517495782343
 30
-6.352673089795572
 10
-1.32594840649166
 20
-8.689855394632402
 30
-6.352673089795572
 10
-1.31108445857601
 20
-8.728167045529119
 30
-6.352673089795572
 10
-1.295817539344072
 20
-8.766449789844998
 30
-6.352673089795572
 10
-1.280154192335738
 20
-8.80470101872352
 30
-6.352673089795572
 10
-1.264099432314006
 20
-8.842918156706716
 30
-6.352673089795572
 10
-1.247656801241882
 20
-8.881098657678393
 30
-6.352673089795572
 10
-1.230828932544058
 20
-8.919240006178313
 30
-6.352673089795572
 10
-1.213617966518944
 20
-8.9573397172107
 30
-6.352673089795572
 10
-1.196025994160239
 20
-8.995395337092375
 30
-6.352673089795572
 10
-1.178055581774787
 20
-9.033404443992324
 30
-6.352673089795572
 10
-1.15970976626483
 20
-9.071364650009186
 30
-6.352673089795572
 10
-1.140991815968233
 20
-9.10927360365207
 30
-6.352673089795572
 10
-1.121905063343115
 20
-9.147128993105113
 30
-6.352673089795572
 10
-1.1024527259614
 20
-9.184928548416721
 30
-6.352673089795572
 10
-1.082637696672202
 20
-9.222670047548476
 30
-6.352673089795572
 10
-1.062462541262723
 20
-9.260351306760668
 30
-6.352673089795572
 10
-1.0419296107794
 20
-9.297970163589766
 30
-6.352673089795572
 10
-1.021041123985719
 20
-9.335524461278552
 30
-6.352673089795572
 10
-0.9997992559950201
 20
-9.373012035930926
 30
-6.352673089795572
 10
-0.9782062482387008
 20
-9.410430695897346
 30
-6.352673089795572
 10
-0.9562644183108606
 20
-9.447778235514377
 30
-6.352673089795572
 10
-0.9339760950053008
 20
-9.48505247250722
 30
-6.352673089795572
 10
-0.9113435754406697
 20
-9.52225128194027
 30
-6.352673089795572
 10
-0.888369080680464
 20
-9.559372625646147
 30
-6.352673089795572
 10
-0.8650547020925767
 20
-9.596414600217045
 30
-6.352673089795572
 10
-0.8414024010409644
 20
-9.633375417387853
 30
-6.352673089795572
 10
-0.8174140690983637
 20
-9.670253310957718
 30
-6.352673089795572
 10
-0.7930915772603218
 20
-9.707046458511143
 30
-6.352673089795572
 10
-0.7684368258620343
 20
-9.743752908647806
 30
-6.352673089795572
 10
-0.7434518115855351
 20
-9.780370479981243
 30
-6.352673089795572
 10
-0.7181386397656678
 20
-9.816896760877355
 30
-6.352673089795572
 10
-0.6924994241986849
 20
-9.853329309290515
 30
-6.352673089795572
 10
-0.6665362124542487
 20
-9.889665813736016
 30
-6.352673089795572
 10
-0.6402509049032706
 20
-9.925904263091112
 30
-6.352673089795572
 10
-0.6136451748756376
 20
-9.962043131443195
 30
-6.352673089795572
 10
-0.5867204018770469
 20
-9.998081504287839
 30
-6.352673089795572
 10
-0.5594776700107947
 20
-10.03401890932788
 30
-6.352673089795572
 10
-0.5374297411203575
 20
-10.06268793289095
 30
-6.352673089795572
 10
-0.5207512756963926
 20
-10.08414420032423
 30
-6.352673089795572
 10
-0.5095689781090212
 20
-10.09842816304645
 30
-6.352673089795572
 10
-0.5039619991561662
 20
-10.10556509051326
 30
-6.352673089795572
  0
ARC
  5
123
102
{ACAD_REACTORS
330
1005B
102
}
330
1F
100
AcDbEntity
  8
0
 62
     1
100
AcDbCircle
 10
0.0370315888501462
 20
-0.1202095165872237
 30
-6.352673089795572
 40
10.0
100
AcDbArc
 50
356.8988210856687
 51
3.101178914331283
  0
LINE
  5
124
102
{ACAD_REACTORS
330
1005B
102
}
330
1F
100
AcDbEntity
  8
0
 62
     1
100
AcDbLine
 10
3.309561723356894
 20
-5.18238045989689
 30
-6.352673089795572
 11
4.119931701024471
 21
-6.432368327470726
 31
-6.352673089795572
  0
SPLINE
  5
125
102
{ACAD_REACTORS
330
1005B
102
}
330
1F
100
AcDbEntity
  8
0
 62
     1
100
AcDbSpline
210
0.0
220
0.0
230
1.0
 70
     8
 71
     5
 72
    81
 73
    75
 74
     0
 42
0.000000001
 43
0.0000000001
 40
0.0
 40
0.0
 40
0.0
 40
0.0
 40
0.0
 40
0.0
 40
0.0142857142857143
 40
0.0285714285714286
 40
0.0428571428571429
 40
0.0571428571428571
 40
0.0714285714285715
 40
0.0857142857142858
 40
0.1
 40
0.1142857142857143
 40
0.1285714285714286
 40
0.1428571428571429
 40
0.1571428571428571
 40
0.1714285714285715
 40
0.1857142857142857
 40
0.2
 40
0.2142857142857144
 40
0.2285714285714286
 40
0.2428571428571429
 40
0.2571428571428572
 40
0.2714285714285714
 40
0.2857142857142857
 40
0.3
 40
0.3142857142857143
 40
0.3285714285714286
 40
0.3428571428571429
 40
0.3571428571428572
 40
0.3714285714285715
 40
0.3857142857142857
 40
0.4000000000000001
 40
0.4142857142857145
 40
0.4285714285714288
 40
0.442857142857143
 40
0.4571428571428573
 40
0.4714285714285715
 40
0.4857142857142859
 40
0.5000000000000001
 40
0.5142857142857144
 40
0.5285714285714286
 40
0.5428571428571428
 40
0.5571428571428571
 40
0.5714285714285713
 40
0.5857142857142855
 40
0.5999999999999998
 40
0.614285714285714
 40
0.6285714285714282
 40
0.6428571428571425
 40
0.6571428571428567
 40
0.6714285714285709
 40
0.6857142857142852
 40
0.6999999999999994
 40
0.7142857142857137
 40
0.7285714285714277
 40
0.7428571428571421
 40
0.7571428571428564
 40
0.7714285714285706
 40
0.7857142857142848
 40
0.7999999999999991
 40
0.8142857142857133
 40
0.8285714285714275
 40
0.8428571428571418
 40
0.857142857142856
 40
0.8714285714285702
 40
0.8857142857142845
 40
0.8999999999999987
 40
0.9142857142857128
 40
0.9285714285714272
 40
0.9428571428571411
 40
0.9571428571428556
 40
0.9714285714285695
 40
0.9857142857142841
 40
1.0
 40
1.0
 40
1.0
 40
1.0
 40
1.0
 40
1.0
 10
7.387448244178065
 20
-1.69653345946358
 30
-6.352673089795572
 10
7.394783855189272
 20
-1.698098656422615
 30
-6.352673089795572
 10
7.409477625470229
 20
-1.700951134902581
 30
-6.352673089795572
 10
7.431585925390345
 20
-1.704396122223286
 30
-6.352673089795572
 10
7.461196297765701
 20
-1.707405918810323
 30
-6.352673089795572
 10
7.498413979355683
 20
-1.709014215339379
 30
-6.352673089795572
 10
7.535813882994707
 20
-1.709081336434252
 30
-6.352673089795572
 10
7.573370818629351
 20
-1.70820710051953
 30
-6.352673089795572
 10
7.611060625269439
 20
-1.706821434932209
 30
-6.352673089795572
 10
7.64886308939282
 20
-1.705074606011393
 30
-6.352673089795572
 10
7.686761219323242
 20
-1.702937592054738
 30
-6.352673089795572
 10
7.724741029656906
 20
-1.700275621872478
 30
-6.352673089795572
 10
7.762791124645085
 20
-1.696926930903345
 30
-6.352673089795572
 10
7.800902384742441
 20
-1.692791266347867
 30
-6.352673089795572
 10
7.839067564505105
 20
-1.687873675314108
 30
-6.352673089795572
 10
7.877280816902839
 20
-1.682238912264409
 30
-6.352673089795572
 10
7.915537215844773
 20
-1.675984320515794
 30
-6.352673089795572
 10
7.953832314635308
 20
-1.669207925284837
 30
-6.352673089795572
 10
7.992161607201301
 20
-1.66197236733285
 30
-6.352673089795572
 10
8.030520347857665
 20
-1.654294525899786
 30
-6.352673089795572
 10
8.068903758231547
 20
-1.646164909035164
 30
-6.352673089795572
 10
8.107307137349229
 20
-1.637559557088195
 30
-6.352673089795572
 10
8.14572599803081
 20
-1.628453827942351
 30
-6.352673089795572
 10
8.184156224391083
 20
-1.61883823042794
 30
-6.352673089795572
 10
8.222594077825448
 20
-1.60872075250819
 30
-6.352673089795572
 10
8.261036088191085
 20
-1.598119028695862
 30
-6.352673089795572
 10
8.299478976724516
 20
-1.587055335475469
 30
-6.352673089795572
 10
8.337919572298572
 20
-1.57555090306208
 30
-6.352673089795572
 10
8.376354715190746
 20
-1.563619340616753
 30
-6.352673089795572
 10
8.414781244611942
 20
-1.551266411032599
 30
-6.352673089795572
 10
8.453196031682738
 20
-1.538493269739134
 30
-6.352673089795572
 10
8.491595999162035
 20
-1.525298694565975
 30
-6.352673089795572
 10
8.529978144662802
 20
-1.511681539982532
 30
-6.352673089795572
 10
8.568339568045292
 20
-1.497643587872133
 30
-6.352673089795572
 10
8.606677466895339
 20
-1.483189511929026
 30
-6.352673089795572
 10
8.644989117792055
 20
-1.468325564013383
 30
-6.352673089795572
 10
8.683271862107954
 20
-1.453058644781435
 30
-6.352673089795572
 10
8.721523090986435
 20
-1.437395297773107
 30
-6.352673089795572
 10
8.759740228969649
 20
-1.421340537751376
 30
-6.352673089795572
 10
8.797920729941308
 20
-1.404897906679252
 30
-6.352673089795572
 10
8.836062078441242
 20
-1.388070037981435
 30
-6.352673089795572
 10
8.87416178947363
 20
-1.370859071956303
 30
-6.352673089795572
 10
8.912217409355317
 20
-1.353267099597601
 30
-6.352673089795572
 10
8.950226516255272
 20
-1.335296687212149
 30
-6.352673089795572
 10
8.988186722272093
 20
-1.316950871702189
 30
-6.352673089795572
 10
9.026095675914987
 20
-1.298232921405599
 30
-6.352673089795572
 10
9.063951065368039
 20
-1.279146168780485
 30
-6.352673089795572
 10
9.101750620679652
 20
-1.259693831398749
 30
-6.352673089795572
 10
9.139492119811391
 20
-1.239878802109572
 30
-6.352673089795572
 10
9.177173379023592
 20
-1.219703646700097
 30
-6.352673089795572
 10
9.214792235852698
 20
-1.199170716216769
 30
-6.352673089795572
 10
9.252346533541471
 20
-1.178282229423075
 30
-6.352673089795572
 10
9.289834108193845
 20
-1.157040361432393
 30
-6.352673089795572
 10
9.327252768160253
 20
-1.13544735367607
 30
-6.352673089795572
 10
9.364600307777312
 20
-1.113505523748244
 30
-6.352673089795572
 10
9.401874544770144
 20
-1.09121720044267
 30
-6.352673089795572
 10
9.439073354203193
 20
-1.068584680878032
 30
-6.352673089795572
 10
9.476194697909082
 20
-1.045610186117841
 30
-6.352673089795572
 10
9.513236672479989
 20
-1.022295807529943
 30
-6.352673089795572
 10
9.550197489650781
 20
-0.9986435064783307
 30
-6.352673089795572
 10
9.587075383220641
 20
-0.9746551745357123
 30
-6.352673089795572
 10
9.623868530774085
 20
-0.9503326826976916
 30
-6.352673089795572
 10
9.660574980910716
 20
-0.9256779312994041
 30
-6.352673089795572
 10
9.697192552244162
 20
-0.9006929170228943
 30
-6.352673089795572
 10
9.733718833140272
 20
-0.8753797452030198
 30
-6.352673089795572
 10
9.770151381553459
 20
-0.8497405296360511
 30
-6.352673089795572
 10
9.806487885998913
 20
-0.8237773178916256
 30
-6.352673089795572
 10
9.842726335354042
 20
-0.7974920103406334
 30
-6.352673089795572
 10
9.87886520370613
 20
-0.7708862803130075
 30
-6.352673089795572
 10
9.91490357655077
 20
-0.7439615073144239
 30
-6.352673089795572
 10
9.950840981590824
 20
-0.7167187754481433
 30
-6.352673089795572
 10
9.979510005153873
 20
-0.6946708465577274
 30
-6.352673089795572
 10
10.00096627258715
 20
-0.6779923811337625
 30
-6.352673089795572
 10
10.01525023530936
 20
-0.6668100835463946
 30
-6.352673089795572
 10
10.0223871627762
 20
-0.6612031045935254
 30
-6.352673089795572
  0
LINE
  5
126
102
{ACAD_REACTORS
330
1005B
102
}
330
1F
100
AcDbEntity
  8
0
 62
     1
100
AcDbLine
 10
5.93055524013698
 20
-1.385676668379971
 30
-6.352673089795572
 11
7.387448244178065
 21
-1.69653345946358
 31
-6.352673089795572
  0
ARC
  5
127
102
{ACAD_REACTORS
330
1005B
102
}
330
1F
100
AcDbEntity
  8
0
 62
     1
100
AcDbCircle
 10
0.0370315888501462
 20
-0.1202095165872237
 30
-6.352673089795572
 40
5.549199999999996
100
AcDbArc
 50
286.8598556824941
 51
298.1401443175057
  0
SPLINE
  5
128
102
{ACAD_REACTORS
330
1005B
102
}
330
1F
100
AcDbEntity
  8
0
 62
     1
100
AcDbSpline
210
0.0
220
0.0
230
1.0
 70
     8
 71
     5
 72
    81
 73
    75
 74
     0
 42
0.000000001
 43
0.0000000001
 40
0.0
 40
0.0
 40
0.0
 40
0.0
 40
0.0
 40
0.0
 40
0.0142857142857143
 40
0.0285714285714286
 40
0.0428571428571429
 40
0.0571428571428571
 40
0.0714285714285715
 40
0.0857142857142858
 40
0.1
 40
0.1142857142857143
 40
0.1285714285714286
 40
0.1428571428571429
 40
0.1571428571428571
 40
0.1714285714285715
 40
0.1857142857142857
 40
0.2
 40
0.2142857142857144
 40
0.2285714285714286
 40
0.2428571428571429
 40
0.2571428571428572
 40
0.2714285714285714
 40
0.2857142857142857
 40
0.3
 40
0.3142857142857143
 40
0.3285714285714286
 40
0.3428571428571429
 40
0.3571428571428572
 40
0.3714285714285715
 40
0.3857142857142857
 40
0.4000000000000001
 40
0.4142857142857145
 40
0.4285714285714288
 40
0.442857142857143
 40
0.4571428571428573
 40
0.4714285714285715
 40
0.4857142857142859
 40
0.5000000000000001
 40
0.5142857142857144
 40
0.5285714285714286
 40
0.5428571428571428
 40
0.5571428571428571
 40
0.5714285714285713
 40
0.5857142857142855
 40
0.5999999999999998
 40
0.614285714285714
 40
0.6285714285714282
 40
0.6428571428571425
 40
0.6571428571428567
 40
0.6714285714285709
 40
0.6857142857142852
 40
0.6999999999999994
 40
0.7142857142857137
 40
0.7285714285714277
 40
0.7428571428571421
 40
0.7571428571428564
 40
0.7714285714285706
 40
0.7857142857142848
 40
0.7999999999999991
 40
0.8142857142857133
 40
0.8285714285714275
 40
0.8428571428571418
 40
0.857142857142856
 40
0.8714285714285702
 40
0.8857142857142845
 40
0.8999999999999987
 40
0.9142857142857128
 40
0.9285714285714272
 40
0.9428571428571411
 40
0.9571428571428556
 40
0.9714285714285695
 40
0.9857142857142841
 40
1.0
 40
1.0
 40
1.0
 40
1.0
 40
1.0
 40
1.0
 10
6.349190399733648
 20
3.962690595587105
 30
-6.352673089795572
 10
6.355484221407452
 20
3.966770894493635
 30
-6.352673089795572
 10
6.36789129289068
 20
3.975143952224144
 30
-6.352673089795572
 10
6.385960195580283
 20
3.988340907122577
 30
-6.352673089795572
 10
6.409026138257042
 20
4.007150354645965
 30
-6.352673089795572
 10
6.436480250671211
 20
4.032329992296439
 30
-6.352673089795572
 10
6.462973437931426
 20
4.058728255993976
 30
-6.352673089795572
 10
6.48891202365562
 20
4.08590319800546
 30
-6.352673089795572
 10
6.514582927979182
 20
4.113533729395534
 30
-6.352673089795572
 10
6.540078112130911
 20
4.141499302698214
 30
-6.352673089795572
 10
6.565365039738752
 20
4.169808424426562
 30
-6.352673089795572
 10
6.59033852400667
 20
4.198546503028858
 30
-6.352673089795572
 10
6.61487612210522
 20
4.22781986531217
 30
-6.352673089795572
 10
6.638900496107746
 20
4.257692952218441
 30
-6.352673089795572
 10
6.662410091556056
 20
4.288157071600927
 30
-6.352673089795572
 10
6.685446562294869
 20
4.319162300665361
 30
-6.352673089795572
 10
6.708075257171488
 20
4.35063632401998
 30
-6.352673089795572
 10
6.730362346192672
 20
4.382506683080791
 30
-6.352673089795572
 10
6.752348936790673
 20
4.414725897865793
 30
-6.352673089795572
 10
6.77404360868436
 20
4.447278677243893
 30
-6.352673089795572
 10
6.795436271231361
 20
4.480168354217759
 30
-6.352673089795572
 10
6.816506658309746
 20
4.513408546728562
 30
-6.352673089795572
 10
6.837234172396494
 20
4.547013506468609
 30
-6.352673089795572
 10
6.857609191850761
 20
4.580987034338122
 30
-6.352673089795572
 10
6.877634721422912
 20
4.615320838401359
 30
-6.352673089795572
 10
6.897320776834925
 20
4.649999995413317
 30
-6.352673089795572
 10
6.916680791504214
 20
4.685006435084794
 30
-6.352673089795572
 10
6.935727535134263
 20
4.720322903061273
 30
-6.352673089795572
 10
6.954468396593968
 20
4.755937541951439
 30
-6.352673089795572
 10
6.972905215848664
 20
4.791844041759112
 30
-6.352673089795572
 10
6.99103659745859
 20
4.828039373020395
 30
-6.352673089795572
 10
7.008859501280733
 20
4.864522224002151
 30
-6.352673089795572
 10
7.026370994294394
 20
4.901291281708672
 30
-6.352673089795572
 10
7.043570285772881
 20
4.938343235449607
 30
-6.352673089795572
 10
7.06045869891105
 20
4.975672798818074
 30
-6.352673089795572
 10
7.07703872869221
 20
5.013273625331954
 30
-6.352673089795572
 10
7.093313374683672
 20
5.051138955556901
 30
-6.352673089795572
 10
7.109285419126701
 20
5.089262317771257
 30
-6.352673089795572
 10
7.124956586870494
 20
5.12763834487842
 30
-6.352673089795572
 10
7.140327582084994
 20
5.166262731956223
 30
-6.352673089795572
 10
7.155398488183761
 20
5.205131838193274
 30
-6.352673089795572
 10
7.17016906142887
 20
5.244242393012648
 30
-6.352673089795572
 10
7.18463904536018
 20
5.283591182842542
 30
-6.352673089795572
 10
7.198808542137518
 20
5.323174680536801
 30
-6.352673089795572
 10
7.212678010673757
 20
5.362989050180033
 30
-6.352673089795572
 10
7.226248099277698
 20
5.403030317953245
 30
-6.352673089795572
 10
7.23951952965236
 20
5.443294492752009
 30
-6.352673089795572
 10
7.252492971866496
 20
5.483777694311221
 30
-6.352673089795572
 10
7.265168900254897
 20
5.524476305859224
 30
-6.352673089795572
 10
7.277547584965956
 20
5.565386968973363
 30
-6.352673089795572
 10
7.289629159347919
 20
5.606506492120082
 30
-6.352673089795572
 10
7.301413667245808
 20
5.647831781339064
 30
-6.352673089795572
 10
7.312901116591442
 20
5.689359768487292
 30
-6.352673089795572
 10
7.324091542585895
 20
5.731087318903142
 30
-6.352673089795572
 10
7.334985024376136
 20
5.773011234160627
 30
-6.352673089795572
 10
7.345581665566681
 20
5.815128324452437
 30
-6.352673089795572
 10
7.355881587909371
 20
5.857435462914104
 30
-6.352673089795572
 10
7.36588492073128
 20
5.899929637814572
 30
-6.352673089795572
 10
7.375591796940268
 20
5.942608024420856
 30
-6.352673089795572
 10
7.385002338935672
 20
5.985467971344775
 30
-6.352673089795572
 10
7.394116635368822
 20
6.028506892149884
 30
-6.352673089795572
 10
7.402934720591028
 20
6.071722175200136
 30
-6.352673089795572
 10
7.411456558493719
 20
6.115111096907234
 30
-6.352673089795572
 10
7.419682018471229
 20
6.158670702930649
 30
-6.352673089795572
 10
7.427610883937228
 20
6.202397799290999
 30
-6.352673089795572
 10
7.435242922784381
 20
6.246289164521577
 30
-6.352673089795572
 10
7.442577948396513
 20
6.290341716305441
 30
-6.352673089795572
 10
7.449615882460337
 20
6.334552688799007
 30
-6.352673089795572
 10
7.456356829215549
 20
6.378919819796131
 30
-6.352673089795572
 10
7.462801117467707
 20
6.423441487186721
 30
-6.352673089795572
 10
7.468949179829111
 20
6.468116590429467
 30
-6.352673089795572
 10
7.473631000770984
 20
6.503978891430442
 30
-6.352673089795572
 10
7.477009416970945
 20
6.530944219632537
 30
-6.352673089795572
 10
7.479202625420748
 20
6.54895158498892
 30
-6.352673089795572
 10
7.480284462389844
 20
6.557962887637074
 30
-6.352673089795572
  0
LINE
  5
129
102
{ACAD_REACTORS
330
1005B
102
}
330
1F
100
AcDbEntity
  8
0
 62
     1
100
AcDbLine
 10
7.387448244178061
 20
1.45611442628914
 30
-6.352673089795572
 11
5.93055524013698
 21
1.145257635205538
 31
-6.352673089795572
  0
LINE
  5
130
102
{ACAD_REACTORS
330
1005B
102
}
330
1F
100
AcDbEntity
  8
0
 62
     1
100
AcDbLine
 10
4.119931701024471
 20
6.191949294296286
 30
-6.352673089795572
 11
3.309561723356894
 21
4.941961426722471
 31
-6.352673089795572
  0
ARC
  5
131
102
{ACAD_REACTORS
330
1005B
102
}
330
1F
100
AcDbEntity
  8
0
 62
     1
100
AcDbCircle
 10
1.791491532185135
 20
5.668977900247114
 30
-6.352673089795572
 40
0.4999999999999973
100
AcDbArc
 50
167.9554331252
 51
253.1401443175051
  0
SPLINE
  5
132
102
{ACAD_REACTORS
330
1005B
102
}
330
1F
100
AcDbEntity
  8
0
 62
     1
100
AcDbSpline
210
0.0
220
0.0
230
1.0
 70
     8
 71
     5
 72
    81
 73
    75
 74
     0
 42
0.000000001
 43
0.0000000001
 40
-1.0
 40
-1.0
 40
-1.0
 40
-1.0
 40
-1.0
 40
-1.0
 40
-0.9857142857142841
 40
-0.9714285714285695
 40
-0.9571428571428556
 40
-0.9428571428571411
 40
-0.9285714285714272
 40
-0.9142857142857128
 40
-0.8999999999999987
 40
-0.8857142857142845
 40
-0.8714285714285702
 40
-0.857142857142856
 40
-0.8428571428571418
 40
-0.8285714285714275
 40
-0.8142857142857133
 40
-0.7999999999999991
 40
-0.7857142857142848
 40
-0.7714285714285706
 40
-0.7571428571428564
 40
-0.7428571428571421
 40
-0.7285714285714277
 40
-0.7142857142857137
 40
-0.6999999999999994
 40
-0.6857142857142852
 40
-0.6714285714285709
 40
-0.6571428571428567
 40
-0.6428571428571425
 40
-0.6285714285714282
 40
-0.614285714285714
 40
-0.5999999999999998
 40
-0.5857142857142855
 40
-0.5714285714285713
 40
-0.5571428571428571
 40
-0.5428571428571428
 40
-0.5285714285714286
 40
-0.5142857142857144
 40
-0.5000000000000001
 40
-0.4857142857142859
 40
-0.4714285714285715
 40
-0.4571428571428573
 40
-0.442857142857143
 40
-0.4285714285714288
 40
-0.4142857142857145
 40
-0.4000000000000001
 40
-0.3857142857142857
 40
-0.3714285714285715
 40
-0.3571428571428572
 40
-0.3428571428571429
 40
-0.3285714285714286
 40
-0.3142857142857143
 40
-0.3
 40
-0.2857142857142857
 40
-0.2714285714285714
 40
-0.2571428571428572
 40
-0.2428571428571429
 40
-0.2285714285714286
 40
-0.2142857142857144
 40
-0.2
 40
-0.1857142857142857
 40
-0.1714285714285715
 40
-0.1571428571428571
 40
-0.1428571428571429
 40
-0.1285714285714286
 40
-0.1142857142857143
 40
-0.1
 40
-0.0857142857142858
 40
-0.0714285714285715
 40
-0.0571428571428571
 40
-0.0428571428571429
 40
-0.0285714285714286
 40
-0.0142857142857143
 40
0.0
 40
0.0
 40
0.0
 40
0.0
 40
0.0
 40
0.0
 10
10.0223871627762
 20
0.4207840714190923
 30
-6.352673089795572
 10
10.01525023530936
 20
0.4263910503719473
 30
-6.352673089795572
 10
10.00096627258715
 20
0.4375733479593152
 30
-6.352673089795572
 10
9.979510005153873
 20
0.4542518133832943
 30
-6.352673089795572
 10
9.950840981590824
 20
0.4762997422737385
 30
-6.352673089795572
 10
9.91490357655077
 20
0.5035424741399766
 30
-6.352673089795572
 10
9.87886520370613
 20
0.5304672471385601
 30
-6.352673089795572
 10
9.842726335354042
 20
0.5570729771662002
 30
-6.352673089795572
 10
9.806487885998913
 20
0.5833582847171784
 30
-6.352673089795572
 10
9.770151381553459
 20
0.6093214964616039
 30
-6.352673089795572
 10
9.733718833140272
 20
0.6349607120286152
 30
-6.352673089795572
 10
9.697192552244162
 20
0.6602738838484612
 30
-6.352673089795572
 10
9.660574980910716
 20
0.6852588981249568
 30
-6.352673089795572
 10
9.623868530774085
 20
0.7099136495232444
 30
-6.352673089795572
 10
9.587075383220641
 20
0.7342361413612935
 30
-6.352673089795572
 10
9.550197489650781
 20
0.7582244733038977
 30
-6.352673089795572
 10
9.513236672479989
 20
0.78187677435551
 30
-6.352673089795572
 10
9.476194697909082
 20
0.8051911529433937
 30
-6.352673089795572
 10
9.439073354203193
 20
0.8281656477035994
 30
-6.352673089795572
 10
9.401874544770144
 20
0.8507981672682234
 30
-6.352673089795572
 10
9.364600307777312
 20
0.8730864905737831
 30
-6.352673089795572
 10
9.327252768160253
 20
0.8950283205016233
 30
-6.352673089795572
 10
9.289834108193845
 20
0.9166213282579462
 30
-6.352673089795572
 10
9.252346533541471
 20
0.9378631962486565
 30
-6.352673089795572
 10
9.214792235852698
 20
0.9587516830423368
 30
-6.352673089795572
 10
9.177173379023592
 20
0.9792846135256638
 30
-6.352673089795572
 10
9.139492119811391
 20
0.9994597689351252
 30
-6.352673089795572
 10
9.101750620679652
 20
1.01927479822433
 30
-6.352673089795572
 10
9.063951065368039
 20
1.038727135606038
 30
-6.352673089795572
 10
9.026095675914987
 20
1.057813888231152
 30
-6.352673089795572
 10
8.988186722272093
 20
1.076531838527756
 30
-6.352673089795572
 10
8.950226516255272
 20
1.094877654037723
 30
-6.352673089795572
 10
8.912217409355317
 20
1.112848066423168
 30
-6.352673089795572
 10
8.87416178947363
 20
1.130440038781863
 30
-6.352673089795572
 10
8.836062078441242
 20
1.147651004806995
 30
-6.352673089795572
 10
8.797920729941308
 20
1.164478873504812
 30
-6.352673089795572
 10
8.759740228969649
 20
1.180921504576929
 30
-6.352673089795572
 10
8.721523090986435
 20
1.196976264598667
 30
-6.352673089795572
 10
8.683271862107954
 20
1.212639611607002
 30
-6.352673089795572
 10
8.644989117792055
 20
1.227906530838936
 30
-6.352673089795572
 10
8.606677466895339
 20
1.2427704787546
 30
-6.352673089795572
 10
8.568339568045292
 20
1.257224554697685
 30
-6.352673089795572
 10
8.529978144662802
 20
1.271262506808085
 30
-6.352673089795572
 10
8.491595999162035
 20
1.284879661391528
 30
-6.352673089795572
 10
8.453196031682738
 20
1.298074236564687
 30
-6.352673089795572
 10
8.414781244611942
 20
1.310847377858152
 30
-6.352673089795572
 10
8.376354715190746
 20
1.323200307442334
 30
-6.352673089795572
 10
8.337919572298572
 20
1.335131869887646
 30
-6.352673089795572
 10
8.299478976724516
 20
1.346636302301043
 30
-6.352673089795572
 10
8.261036088191085
 20
1.357699995521421
 30
-6.352673089795572
 10
8.222594077825448
 20
1.368301719333771
 30
-6.352673089795572
 10
8.184156224391083
 20
1.378419197253485
 30
-6.352673089795572
 10
8.14572599803081
 20
1.388034794767918
 30
-6.352673089795572
 10
8.107307137349229
 20
1.397140523913748
 30
-6.352673089795572
 10
8.068903758231547
 20
1.405745875860709
 30
-6.352673089795572
 10
8.030520347857665
 20
1.413875492725367
 30
-6.352673089795572
 10
7.992161607201301
 20
1.421553334158431
 30
-6.352673089795572
 10
7.953832314635308
 20
1.428788892110397
 30
-6.352673089795572
 10
7.915537215844773
 20
1.435565287341368
 30
-6.352673089795572
 10
7.877280816902839
 20
1.441819879089969
 30
-6.352673089795572
 10
7.839067564505105
 20
1.447454642139653
 30
-6.352673089795572
 10
7.800902384742441
 20
1.452372233173434
 30
-6.352673089795572
 10
7.762791124645085
 20
1.45650789772889
 30
-6.352673089795572
 10
7.724741029656906
 20
1.459856588698023
 30
-6.352673089795572
 10
7.686761219323242
 20
1.462518558880312
 30
-6.352673089795572
 10
7.64886308939282
 20
1.46465557283696
 30
-6.352673089795572
 10
7.611060625269439
 20
1.466402401757768
 30
-6.352673089795572
 10
7.573370818629351
 20
1.467788067345104
 30
-6.352673089795572
 10
7.535813882994707
 20
1.468662303259812
 30
-6.352673089795572
 10
7.498413979355683
 20
1.468595182164939
 30
-6.352673089795572
 10
7.461196297765701
 20
1.466986885635904
 30
-6.352673089795572
 10
7.431585925390345
 20
1.463977089048853
 30
-6.352673089795572
 10
7.409477625470229
 20
1.460532101728134
 30
-6.352673089795572
 10
7.394783855189272
 20
1.457679623248203
 30
-6.352673089795572
 10
7.387448244178065
 20
1.45611442628914
 30
-6.352673089795572
  0
LINE
  5
133
102
{ACAD_REACTORS
330
1005B
102
}
330
1F
100
AcDbEntity
  8
0
 62
     1
100
AcDbLine
 10
-1.539292354026214
 20
7.230207138740709
 30
-6.352673089795572
 11
-1.228435562942605
 21
5.773314134699624
 31
-6.352673089795572
  0
ARC
  5
134
102
{ACAD_REACTORS
330
1005B
102
}
330
1F
100
AcDbEntity
  8
0
 62
     1
100
AcDbCircle
 10
5.82621900568448
 20
1.634250426747762
 30
-6.352673089795572
 40
0.5000000000000028
100
AcDbArc
 50
196.8598556824948
 51
282.0445668747998
  0
ARC
  5
135
102
{ACAD_REACTORS
330
1005B
102
}
330
1F
100
AcDbEntity
  8
0
 62
     1
100
AcDbCircle
 10
-1.717428354484843
 20
5.668977900247128
 30
-6.352673089795572
 40
0.5000000000000071
100
AcDbArc
 50
286.8598556824944
 51
12.04456687479908
  0
ARC
  5
136
102
{ACAD_REACTORS
330
1005B
102
}
330
1F
100
AcDbEntity
  8
0
 62
     1
100
AcDbCircle
 10
0.0370315888501462
 20
-0.1202095165872237
 30
-6.352673089795572
 40
5.549200000000001
100
AcDbArc
 50
61.85985568249423
 51
73.14014431750583
  0
ARC
  5
137
102
{ACAD_REACTORS
330
1005B
102
}
330
1F
100
AcDbEntity
  8
0
 62
     1
100
AcDbCircle
 10
2.890014745601201
 20
5.213954686668493
 30
-6.352673089795572
 40
0.4999999999999988
100
AcDbArc
 50
241.8598556824939
 51
327.0445668748
  0
ARC
  5
138
102
{ACAD_REACTORS
330
1005B
102
}
330
1F
100
AcDbEntity
  8
0
 62
     1
100
AcDbCircle
 10
5.37119579210587
 20
-2.973192673338274
 30
-6.352673089795572
 40
0.4999999999999946
100
AcDbArc
 50
151.8598556824937
 51
237.0445668747993
  0
ARC
  5
139
102
{ACAD_REACTORS
330
1005B
102
}
330
1F
100
AcDbEntity
  8
0
 62
     1
100
AcDbCircle
 10
0.0370315888501462
 20
-0.1202095165872237
 30
-6.352673089795572
 40
10.00000000000001
100
AcDbArc
 50
176.8988210856683
 51
183.1011789143312
  0
ARC
  5
140
102
{ACAD_REACTORS
330
1005B
102
}
330
1F
100
AcDbEntity
  8
0
 62
     1
100
AcDbCircle
 10
-5.752155827984184
 20
-1.874669459922216
 30
-6.352673089795572
 40
0.5000000000000011
100
AcDbArc
 50
16.85985568249738
 51
102.0445668747997
  0
SPLINE
  5
141
102
{ACAD_REACTORS
330
1005B
102
}
330
1F
100
AcDbEntity
  8
0
 62
     1
100
AcDbSpline
210
0.0
220
0.0
230
1.0
 70
     8
 71
     5
 72
    81
 73
    75
 74
     0
 42
0.000000001
 43
0.0000000001
 40
0.0
 40
0.0
 40
0.0
 40
0.0
 40
0.0
 40
0.0
 40
0.0142857142857143
 40
0.0285714285714286
 40
0.0428571428571429
 40
0.0571428571428571
 40
0.0714285714285715
 40
0.0857142857142858
 40
0.1
 40
0.1142857142857143
 40
0.1285714285714286
 40
0.1428571428571429
 40
0.1571428571428571
 40
0.1714285714285715
 40
0.1857142857142857
 40
0.2
 40
0.2142857142857144
 40
0.2285714285714286
 40
0.2428571428571429
 40
0.2571428571428572
 40
0.2714285714285714
 40
0.2857142857142857
 40
0.3
 40
0.3142857142857143
 40
0.3285714285714286
 40
0.3428571428571429
 40
0.3571428571428572
 40
0.3714285714285715
 40
0.3857142857142857
 40
0.4000000000000001
 40
0.4142857142857145
 40
0.4285714285714288
 40
0.442857142857143
 40
0.4571428571428573
 40
0.4714285714285715
 40
0.4857142857142859
 40
0.5000000000000001
 40
0.5142857142857144
 40
0.5285714285714286
 40
0.5428571428571428
 40
0.5571428571428571
 40
0.5714285714285713
 40
0.5857142857142855
 40
0.5999999999999998
 40
0.614285714285714
 40
0.6285714285714282
 40
0.6428571428571425
 40
0.6571428571428567
 40
0.6714285714285709
 40
0.6857142857142852
 40
0.6999999999999994
 40
0.7142857142857137
 40
0.7285714285714277
 40
0.7428571428571421
 40
0.7571428571428564
 40
0.7714285714285706
 40
0.7857142857142848
 40
0.7999999999999991
 40
0.8142857142857133
 40
0.8285714285714275
 40
0.8428571428571418
 40
0.857142857142856
 40
0.8714285714285702
 40
0.8857142857142845
 40
0.8999999999999987
 40
0.9142857142857128
 40
0.9285714285714272
 40
0.9428571428571411
 40
0.9571428571428556
 40
0.9714285714285695
 40
0.9857142857142841
 40
1.0
 40
1.0
 40
1.0
 40
1.0
 40
1.0
 40
1.0
 10
-6.275127222033363
 20
-4.203109628761538
 30
-6.352673089795572
 10
-6.28142104370716
 20
-4.207189927668068
 30
-6.352673089795572
 10
-6.293828115190388
 20
-4.215562985398591
 30
-6.352673089795572
 10
-6.31189701787999
 20
-4.22875994029701
 30
-6.352673089795572
 10
-6.334962960556756
 20
-4.247569387820391
 30
-6.352673089795572
 10
-6.362417072970918
 20
-4.272749025470872
 30
-6.352673089795572
 10
-6.388910260231133
 20
-4.299147289168416
 30
-6.352673089795572
 10
-6.414848845955338
 20
-4.326322231179887
 30
-6.352673089795572
 10
-6.440519750278893
 20
-4.353952762569974
 30
-6.352673089795572
 10
-6.466014934430623
 20
-4.381918335872654
 30
-6.352673089795572
 10
-6.491301862038463
 20
-4.410227457600981
 30
-6.352673089795572
 10
-6.516275346306377
 20
-4.438965536203284
 30
-6.352673089795572
 10
-6.540812944404935
 20
-4.468238898486632
 30
-6.352673089795572
 10
-6.564837318407453
 20
-4.498111985392895
 30
-6.352673089795572
 10
-6.588346913855763
 20
-4.528576104775353
 30
-6.352673089795572
 10
-6.61138338459458
 20
-4.559581333839815
 30
-6.352673089795572
 10
-6.634012079471203
 20
-4.59105535719442
 30
-6.352673089795572
 10
-6.656299168492383
 20
-4.622925716255224
 30
-6.352673089795572
 10
-6.678285759090377
 20
-4.655144931040211
 30
-6.352673089795572
 10
-6.699980430984068
 20
-4.687697710418319
 30
-6.352673089795572
 10
-6.721373093531061
 20
-4.720587387392185
 30
-6.352673089795572
 10
-6.742443480609454
 20
-4.753827579902988
 30
-6.352673089795572
 10
-6.763170994696197
 20
-4.787432539643063
 30
-6.352673089795572
 10
-6.783546014150472
 20
-4.821406067512555
 30
-6.352673089795572
 10
-6.803571543722624
 20
-4.855739871575792
 30
-6.352673089795572
 10
-6.823257599134629
 20
-4.890419028587743
 30
-6.352673089795572
 10
-6.842617613803922
 20
-4.925425468259263
 30
-6.352673089795572
 10
-6.861664357433982
 20
-4.960741936235706
 30
-6.352673089795572
 10
-6.880405218893679
 20
-4.996356575125886
 30
-6.352673089795572
 10
-6.898842038148361
 20
-5.032263074933553
 30
-6.352673089795572
 10
-6.916973419758294
 20
-5.068458406194821
 30
-6.352673089795572
 10
-6.934796323580437
 20
-5.104941257176591
 30
-6.352673089795572
 10
-6.952307816594105
 20
-5.141710314883113
 30
-6.352673089795572
 10
-6.969507108072589
 20
-5.178762268624069
 30
-6.352673089795572
 10
-6.986395521210758
 20
-5.216091831992514
 30
-6.352673089795572
 10
-7.002975550991918
 20
-5.253692658506395
 30
-6.352673089795572
 10
-7.019250196983383
 20
-5.291557988731327
 30
-6.352673089795572
 10
-7.035222241426401
 20
-5.329681350945691
 30
-6.352673089795572
 10
-7.050893409170198
 20
-5.368057378052839
 30
-6.352673089795572
 10
-7.066264404384702
 20
-5.406681765130656
 30
-6.352673089795572
 10
-7.081335310483469
 20
-5.445550871367714
 30
-6.352673089795572
 10
-7.096105883728581
 20
-5.484661426187088
 30
-6.352673089795572
 10
-7.110575867659898
 20
-5.524010216016975
 30
-6.352673089795572
 10
-7.124745364437222
 20
-5.563593713711256
 30
-6.352673089795572
 10
-7.138614832973464
 20
-5.603408083354494
 30
-6.352673089795572
 10
-7.15218492157741
 20
-5.643449351127685
 30
-6.352673089795572
 10
-7.165456351952071
 20
-5.683713525926478
 30
-6.352673089795572
 10
-7.178429794166204
 20
-5.724196727485661
 30
-6.352673089795572
 10
-7.191105722554601
 20
-5.764895339033685
 30
-6.352673089795572
 10
-7.203484407265664
 20
-5.805806002147804
 30
-6.352673089795572
 10
-7.215565981647623
 20
-5.846925525294523
 30
-6.352673089795572
 10
-7.227350489545512
 20
-5.888250814513526
 30
-6.352673089795572
 10
-7.238837938891153
 20
-5.929778801661726
 30
-6.352673089795572
 10
-7.250028364885606
 20
-5.971506352077582
 30
-6.352673089795572
 10
-7.260921846675843
 20
-6.013430267335081
 30
-6.352673089795572
 10
-7.271518487866392
 20
-6.055547357626892
 30
-6.352673089795572
 10
-7.281818410209082
 20
-6.097854496088544
 30
-6.352673089795572
 10
-7.291821743030981
 20
-6.140348670989013
 30
-6.352673089795572
 10
-7.301528619239983
 20
-6.183027057595296
 30
-6.352673089795572
 10
-7.31093916123538
 20
-6.225887004519222
 30
-6.352673089795572
 10
-7.32005345766853
 20
-6.268925925324339
 30
-6.352673089795572
 10
-7.328871542890739
 20
-6.312141208374583
 30
-6.352673089795572
 10
-7.337393380793427
 20
-6.355530130081675
 30
-6.352673089795572
 10
-7.345618840770944
 20
-6.399089736105111
 30
-6.352673089795572
 10
-7.353547706236943
 20
-6.442816832465425
 30
-6.352673089795572
 10
-7.361179745084088
 20
-6.486708197696017
 30
-6.352673089795572
 10
-7.368514770696217
 20
-6.530760749479867
 30
-6.352673089795572
 10
-7.375552704760041
 20
-6.57497172197344
 30
-6.352673089795572
 10
-7.382293651515256
 20
-6.619338852970585
 30
-6.352673089795572
 10
-7.388737939767418
 20
-6.663860520361154
 30
-6.352673089795572
 10
-7.394886002128805
 20
-6.708535623603893
 30
-6.352673089795572
 10
-7.399567823070698
 20
-6.744397924604868
 30
-6.352673089795572
 10
-7.40294623927066
 20
-6.771363252806963
 30
-6.352673089795572
 10
-7.405139447720467
 20
-6.78937061816336
 30
-6.352673089795572
 10
-7.406221284689559
 20
-6.798381920811522
 30
-6.352673089795572
  0
SPLINE
  5
142
102
{ACAD_REACTORS
330
1005B
102
}
330
1F
100
AcDbEntity
  8
0
 62
     1
100
AcDbSpline
210
0.0
220
0.0
230
1.0
 70
     8
 71
     5
 72
    81
 73
    75
 74
     0
 42
0.000000001
 43
0.0000000001
 40
0.0
 40
0.0
 40
0.0
 40
0.0
 40
0.0
 40
0.0
 40
0.0142857142857143
 40
0.0285714285714286
 40
0.0428571428571429
 40
0.0571428571428571
 40
0.0714285714285715
 40
0.0857142857142858
 40
0.1
 40
0.1142857142857143
 40
0.1285714285714286
 40
0.1428571428571429
 40
0.1571428571428571
 40
0.1714285714285715
 40
0.1857142857142857
 40
0.2
 40
0.2142857142857144
 40
0.2285714285714286
 40
0.2428571428571429
 40
0.2571428571428572
 40
0.2714285714285714
 40
0.2857142857142857
 40
0.3
 40
0.3142857142857143
 40
0.3285714285714286
 40
0.3428571428571429
 40
0.3571428571428572
 40
0.3714285714285715
 40
0.3857142857142857
 40
0.4000000000000001
 40
0.4142857142857145
 40
0.4285714285714288
 40
0.442857142857143
 40
0.4571428571428573
 40
0.4714285714285715
 40
0.4857142857142859
 40
0.5000000000000001
 40
0.5142857142857144
 40
0.5285714285714286
 40
0.5428571428571428
 40
0.5571428571428571
 40
0.5714285714285713
 40
0.5857142857142855
 40
0.5999999999999998
 40
0.614285714285714
 40
0.6285714285714282
 40
0.6428571428571425
 40
0.6571428571428567
 40
0.6714285714285709
 40
0.6857142857142852
 40
0.6999999999999994
 40
0.7142857142857137
 40
0.7285714285714277
 40
0.7428571428571421
 40
0.7571428571428564
 40
0.7714285714285706
 40
0.7857142857142848
 40
0.7999999999999991
 40
0.8142857142857133
 40
0.8285714285714275
 40
0.8428571428571418
 40
0.857142857142856
 40
0.8714285714285702
 40
0.8857142857142845
 40
0.8999999999999987
 40
0.9142857142857128
 40
0.9285714285714272
 40
0.9428571428571411
 40
0.9571428571428556
 40
0.9714285714285695
 40
0.9857142857142841
 40
1.0
 40
1.0
 40
1.0
 40
1.0
 40
1.0
 40
1.0
 10
1.613355531726517
 20
7.230207138740709
 30
-6.352673089795572
 10
1.614920728685559
 20
7.237542749751895
 30
-6.352673089795572
 10
1.6177732071655
 20
7.252236520032866
 30
-6.352673089795572
 10
1.621218194486216
 20
7.274344819952986
 30
-6.352673089795572
 10
1.624227991073263
 20
7.303955192328324
 30
-6.352673089795572
 10
1.625836287602306
 20
7.341172873918317
 30
-6.352673089795572
 10
1.625903408697174
 20
7.378572777557337
 30
-6.352673089795572
 10
1.625029172782474
 20
7.416129713191985
 30
-6.352673089795572
 10
1.623643507195135
 20
7.45381951983208
 30
-6.352673089795572
 10
1.62189667827433
 20
7.491621983955468
 30
-6.352673089795572
 10
1.619759664317674
 20
7.529520113885887
 30
-6.352673089795572
 10
1.617097694135393
 20
7.567499924219539
 30
-6.352673089795572
 10
1.61374900316626
 20
7.605550019207726
 30
-6.352673089795572
 10
1.609613338610801
 20
7.643661279305071
 30
-6.352673089795572
 10
1.604695747577034
 20
7.681826459067735
 30
-6.352673089795572
 10
1.599060984527328
 20
7.720039711465474
 30
-6.352673089795572
 10
1.592806392778724
 20
7.7582961104074
 30
-6.352673089795572
 10
1.586029997547763
 20
7.796591209197941
 30
-6.352673089795572
 10
1.578794439595798
 20
7.834920501763939
 30
-6.352673089795572
 10
1.571116598162733
 20
7.873279242420309
 30
-6.352673089795572
 10
1.562986981298083
 20
7.911662652794184
 30
-6.352673089795572
 10
1.554381629351121
 20
7.950066031911859
 30
-6.352673089795572
 10
1.545275900205288
 20
7.98848489259344
 30
-6.352673089795572
 10
1.535660302690855
 20
8.026915118953724
 30
-6.352673089795572
 10
1.525542824771131
 20
8.06535297238809
 30
-6.352673089795572
 10
1.514941100958795
 20
8.103794982753726
 30
-6.352673089795572
 10
1.503877407738409
 20
8.142237871287143
 30
-6.352673089795572
 10
1.492372975325013
 20
8.180678466861209
 30
-6.352673089795572
 10
1.480441412879711
 20
8.219113609753392
 30
-6.352673089795572
 10
1.468088483295526
 20
8.257540139174579
 30
-6.352673089795572
 10
1.455315342002053
 20
8.295954926245379
 30
-6.352673089795572
 10
1.442120766828894
 20
8.334354893724672
 30
-6.352673089795572
 10
1.428503612245455
 20
8.372737039225434
 30
-6.352673089795572
 10
1.414465660135048
 20
8.411098462607931
 30
-6.352673089795572
 10
1.400011584191956
 20
8.449436361457969
 30
-6.352673089795572
 10
1.385147636276316
 20
8.487748012354678
 30
-6.352673089795572
 10
1.369880717044361
 20
8.526030756670579
 30
-6.352673089795572
 10
1.354217370036034
 20
8.564281985549079
 30
-6.352673089795572
 10
1.338162610014299
 20
8.60249912353229
 30
-6.352673089795572
 10
1.321719978942175
 20
8.640679624503938
 30
-6.352673089795572
 10
1.304892110244354
 20
8.678820973003887
 30
-6.352673089795572
 10
1.28768114421924
 20
8.716920684036267
 30
-6.352673089795572
 10
1.270089171860538
 20
8.754976303917942
 30
-6.352673089795572
 10
1.252118759475086
 20
8.792985410817898
 30
-6.352673089795572
 10
1.233772943965119
 20
8.830945616834739
 30
-6.352673089795572
 10
1.215054993668518
 20
8.868854570477623
 30
-6.352673089795572
 10
1.1959682410434
 20
8.906709959930687
 30
-6.352673089795572
 10
1.176515903661689
 20
8.94450951524228
 30
-6.352673089795572
 10
1.156700874372495
 20
8.982251014374035
 30
-6.352673089795572
 10
1.136525718963023
 20
9.019932273586228
 30
-6.352673089795572
 10
1.115992788479696
 20
9.057551130415333
 30
-6.352673089795572
 10
1.095104301686015
 20
9.095105428104112
 30
-6.352673089795572
 10
1.073862433695316
 20
9.1325930027565
 30
-6.352673089795572
 10
1.052269425938996
 20
9.170011662722885
 30
-6.352673089795572
 10
1.030327596011156
 20
9.207359202339965
 30
-6.352673089795572
 10
1.008039272705596
 20
9.24463343933278
 30
-6.352673089795572
 10
0.9854067531409658
 20
9.281832248765823
 30
-6.352673089795572
 10
0.9624322583807565
 20
9.318953592471714
 30
-6.352673089795572
 10
0.9391178797928763
 20
9.355995567042619
 30
-6.352673089795572
 10
0.9154655787412604
 20
9.39295638421342
 30
-6.352673089795572
 10
0.8914772467986527
 20
9.429834277783264
 30
-6.352673089795572
 10
0.8671547549606142
 20
9.466627425336717
 30
-6.352673089795572
 10
0.8425000035623266
 20
9.503333875473344
 30
-6.352673089795572
 10
0.8175149892858311
 20
9.539951446806796
 30
-6.352673089795572
 10
0.7922018174659602
 20
9.576477727702908
 30
-6.352673089795572
 10
0.7665626018989738
 20
9.612910276116096
 30
-6.352673089795572
 10
0.7405993901545412
 20
9.649246780561561
 30
-6.352673089795572
 10
0.7143140826035701
 20
9.685485229916686
 30
-6.352673089795572
 10
0.6877083525759265
 20
9.721624098268769
 30
-6.352673089795572
 10
0.66078357957735
 20
9.757662471113405
 30
-6.352673089795572
 10
0.6335408477111013
 20
9.793599876153457
 30
-6.352673089795572
 10
0.6114929188206642
 20
9.822268899716512
 30
-6.352673089795572
 10
0.5948144533966886
 20
9.843725167149813
 30
-6.352673089795572
 10
0.5836321558093172
 20
9.858009129872009
 30
-6.352673089795572
 10
0.5780251768564551
 20
9.865146057338833
 30
-6.352673089795572
  0
SPLINE
  5
143
102
{ACAD_REACTORS
330
1005B
102
}
330
1F
100
AcDbEntity
  8
0
 62
     1
100
AcDbSpline
210
0.0
220
0.0
230
1.0
 70
     8
 71
     5
 72
    81
 73
    75
 74
     0
 42
0.000000001
 43
0.0000000001
 40
0.0
 40
0.0
 40
0.0
 40
0.0
 40
0.0
 40
0.0
 40
0.0142857142857143
 40
0.0285714285714286
 40
0.0428571428571429
 40
0.0571428571428571
 40
0.0714285714285715
 40
0.0857142857142858
 40
0.1
 40
0.1142857142857143
 40
0.1285714285714286
 40
0.1428571428571429
 40
0.1571428571428571
 40
0.1714285714285715
 40
0.1857142857142857
 40
0.2
 40
0.2142857142857144
 40
0.2285714285714286
 40
0.2428571428571429
 40
0.2571428571428572
 40
0.2714285714285714
 40
0.2857142857142857
 40
0.3
 40
0.3142857142857143
 40
0.3285714285714286
 40
0.3428571428571429
 40
0.3571428571428572
 40
0.3714285714285715
 40
0.3857142857142857
 40
0.4000000000000001
 40
0.4142857142857145
 40
0.4285714285714288
 40
0.442857142857143
 40
0.4571428571428573
 40
0.4714285714285715
 40
0.4857142857142859
 40
0.5000000000000001
 40
0.5142857142857144
 40
0.5285714285714286
 40
0.5428571428571428
 40
0.5571428571428571
 40
0.5714285714285713
 40
0.5857142857142855
 40
0.5999999999999998
 40
0.614285714285714
 40
0.6285714285714282
 40
0.6428571428571425
 40
0.6571428571428567
 40
0.6714285714285709
 40
0.6857142857142852
 40
0.6999999999999994
 40
0.7142857142857137
 40
0.7285714285714277
 40
0.7428571428571421
 40
0.7571428571428564
 40
0.7714285714285706
 40
0.7857142857142848
 40
0.7999999999999991
 40
0.8142857142857133
 40
0.8285714285714275
 40
0.8428571428571418
 40
0.857142857142856
 40
0.8714285714285702
 40
0.8857142857142845
 40
0.8999999999999987
 40
0.9142857142857128
 40
0.9285714285714272
 40
0.9428571428571411
 40
0.9571428571428556
 40
0.9714285714285695
 40
0.9857142857142841
 40
1.0
 40
1.0
 40
1.0
 40
1.0
 40
1.0
 40
1.0
 10
-4.045868523324179
 20
6.191949294296286
 30
-6.352673089795572
 10
-4.049948822230701
 20
6.1982431159701
 30
-6.352673089795572
 10
-4.058321879961217
 20
6.21065018745331
 30
-6.352673089795572
 10
-4.071518834859658
 20
6.228719090142931
 30
-6.352673089795572
 10
-4.090328282383035
 20
6.251785032819682
 30
-6.352673089795572
 10
-4.115507920033506
 20
6.279239145233859
 30
-6.352673089795572
 10
-4.141906183731046
 20
6.305732332494066
 30
-6.352673089795572
 10
-4.16908112574252
 20
6.331670918218257
 30
-6.352673089795572
 10
-4.196711657132615
 20
6.357341822541819
 30
-6.352673089795572
 10
-4.224677230435284
 20
6.382837006693563
 30
-6.352673089795572
 10
-4.252986352163626
 20
6.408123934301386
 30
-6.352673089795572
 10
-4.281724430765939
 20
6.43309741856931
 30
-6.352673089795572
 10
-4.31099779304924
 20
6.457635016667865
 30
-6.352673089795572
 10
-4.340870879955522
 20
6.48165939067038
 30
-6.352673089795572
 10
-4.371334999337991
 20
6.505168986118682
 30
-6.352673089795572
 10
-4.402340228402442
 20
6.528205456857499
 30
-6.352673089795572
 10
-4.433814251757054
 20
6.550834151734122
 30
-6.352673089795572
 10
-4.465684610817861
 20
6.573121240755313
 30
-6.352673089795572
 10
-4.497903825602859
 20
6.59510783135331
 30
-6.352673089795572
 10
-4.530456604980964
 20
6.616802503247001
 30
-6.352673089795572
 10
-4.563346281954837
 20
6.638195165793995
 30
-6.352673089795572
 10
-4.596586474465633
 20
6.65926555287239
 30
-6.352673089795572
 10
-4.630191434205693
 20
6.679993066959127
 30
-6.352673089795572
 10
-4.664164962075199
 20
6.700368086413384
 30
-6.352673089795572
 10
-4.698498766138429
 20
6.72039361598555
 30
-6.352673089795572
 10
-4.733177923150387
 20
6.740079671397566
 30
-6.352673089795572
 10
-4.768184362821875
 20
6.759439686066855
 30
-6.352673089795572
 10
-4.803500830798343
 20
6.778486429696897
 30
-6.352673089795572
 10
-4.839115469688509
 20
6.797227291156616
 30
-6.352673089795572
 10
-4.875021969496193
 20
6.815664110411312
 30
-6.352673089795572
 10
-4.911217300757455
 20
6.833795492021245
 30
-6.352673089795572
 10
-4.947700151739235
 20
6.851618395843352
 30
-6.352673089795572
 10
-4.984469209445732
 20
6.869129888857031
 30
-6.352673089795572
 10
-5.021521163186699
 20
6.886329180335529
 30
-6.352673089795572
 10
-5.058850726555151
 20
6.903217593473684
 30
-6.352673089795572
 10
-5.096451553069032
 20
6.919797623254851
 30
-6.352673089795572
 10
-5.134316883293982
 20
6.936072269246309
 30
-6.352673089795572
 10
-5.172440245508321
 20
6.952044313689349
 30
-6.352673089795572
 10
-5.210816272615486
 20
6.967715481433124
 30
-6.352673089795572
 10
-5.249440659693304
 20
6.983086476647628
 30
-6.352673089795572
 10
-5.288309765930348
 20
6.998157382746391
 30
-6.352673089795572
 10
-5.327420320749736
 20
7.012927955991507
 30
-6.352673089795572
 10
-5.366769110579623
 20
7.027397939922821
 30
-6.352673089795572
 10
-5.406352608273882
 20
7.041567436700155
 30
-6.352673089795572
 10
-5.446166977917107
 20
7.055436905236398
 30
-6.352673089795572
 10
-5.486208245690322
 20
7.069006993840332
 30
-6.352673089795572
 10
-5.526472420489087
 20
7.082278424215004
 30
-6.352673089795572
 10
-5.566955622048302
 20
7.095251866429123
 30
-6.352673089795572
 10
-5.607654233596305
 20
7.107927794817527
 30
-6.352673089795572
 10
-5.64856489671043
 20
7.120306479528601
 30
-6.352673089795572
 10
-5.689684419857163
 20
7.132388053910545
 30
-6.352673089795572
 10
-5.731009709076138
 20
7.144172561808446
 30
-6.352673089795572
 10
-5.772537696224359
 20
7.155660011154083
 30
-6.352673089795572
 10
-5.81426524664022
 20
7.166850437148532
 30
-6.352673089795572
 10
-5.856189161897701
 20
7.17774391893878
 30
-6.352673089795572
 10
-5.898306252189522
 20
7.188340560129326
 30
-6.352673089795572
 10
-5.940613390651181
 20
7.198640482472001
 30
-6.352673089795572
 10
-5.983107565551653
 20
7.208643815293925
 30
-6.352673089795572
 10
-6.02578595215793
 20
7.218350691502905
 30
-6.352673089795572
 10
-6.068645899081859
 20
7.227761233498306
 30
-6.352673089795572
 10
-6.111684819886951
 20
7.236875529931459
 30
-6.352673089795572
 10
-6.15490010293721
 20
7.245693615153669
 30
-6.352673089795572
 10
-6.198289024644312
 20
7.254215453056353
 30
-6.352673089795572
 10
-6.24184863066773
 20
7.26244091303387
 30
-6.352673089795572
 10
-6.285575727028069
 20
7.270369778499862
 30
-6.352673089795572
 10
-6.329467092258658
 20
7.278001817347011
 30
-6.352673089795572
 10
-6.373519644042522
 20
7.285336842959146
 30
-6.352673089795572
 10
-6.417730616536088
 20
7.292374777022963
 30
-6.352673089795572
 10
-6.462097747533208
 20
7.299115723778179
 30
-6.352673089795572
 10
-6.506619414923791
 20
7.305560012030355
 30
-6.352673089795572
 10
-6.551294518166541
 20
7.311708074391745
 30
-6.352673089795572
 10
-6.587156819167523
 20
7.316389895333614
 30
-6.352673089795572
 10
-6.614122147369618
 20
7.319768311533579
 30
-6.352673089795572
 10
-6.632129512725986
 20
7.321961519983389
 30
-6.352673089795572
 10
-6.641140815374148
 20
7.323043356952489
 30
-6.352673089795572
  0
CIRCLE
  5
144
102
{ACAD_REACTORS
330
1005B
102
}
330
1F
100
AcDbEntity
  8
0
 62
     1
100
AcDbCircle
 10
0.0370315888501462
 20
-0.1202095165872237
 30
-6.352673089795572
 40
3.0
  0
ARC
  5
145
102
{ACAD_REACTORS
330
1005B
102
}
330
1F
100
AcDbEntity
  8
0
 62
     1
100
AcDbCircle
 10
0.0370315888501462
 20
-0.1202095165872237
 30
-6.352673089795572
 40
10.0
100
AcDbArc
 50
221.8988210856685
 51
228.1011789143312
  0
LINE
  5
146
102
{ACAD_REACTORS
330
1005B
102
}
330
1F
100
AcDbEntity
  8
0
 62
     1
100
AcDbLine
 10
-7.313385066477769
 20
-1.69653345946358
 30
-6.352673089795572
 11
-5.856492062436684
 21
-1.385676668379971
 31
-6.352673089795572
  0
LINE
  5
147
102
{ACAD_REACTORS
330
1005B
102
}
330
1F
100
AcDbEntity
  8
0
 62
     1
100
AcDbLine
 10
-4.045868523324179
 20
-6.432368327470726
 30
-6.352673089795572
 11
-3.235498545656605
 21
-5.18238045989689
 31
-6.352673089795572
  0
ARC
  5
148
102
{ACAD_REACTORS
330
1005B
102
}
330
1F
100
AcDbEntity
  8
0
 62
     1
100
AcDbCircle
 10
-5.752155827984184
 20
1.634250426747762
 30
-6.352673089795572
 40
0.4999999999999973
100
AcDbArc
 50
257.9554331252002
 51
343.140144317506
  0
LINE
  5
149
102
{ACAD_REACTORS
330
1005B
102
}
330
1F
100
AcDbEntity
  8
0
 62
     1
100
AcDbLine
 10
-5.856492062436684
 20
1.145257635205538
 30
-6.352673089795572
 11
-7.313385066477769
 21
1.456114426289147
 31
-6.352673089795572
  0
LINE
  5
150
102
{ACAD_REACTORS
330
1005B
102
}
330
1F
100
AcDbEntity
  8
0
 62
     1
100
AcDbLine
 10
-5.025139354459552
 20
-3.392739651093961
 30
-6.352673089795572
 11
-6.275127222033363
 21
-4.203109628761538
 31
-6.352673089795572
  0
ARC
  5
151
102
{ACAD_REACTORS
330
1005B
102
}
330
1F
100
AcDbEntity
  8
0
 62
     1
100
AcDbCircle
 10
0.0370315888501462
 20
-0.1202095165872237
 30
-6.352673089795572
 40
5.5492
100
AcDbArc
 50
196.859855682494
 51
208.1401443175054
  0
ARC
  5
152
102
{ACAD_REACTORS
330
1005B
102
}
330
1F
100
AcDbEntity
  8
0
 62
     1
100
AcDbCircle
 10
0.0370315888501462
 20
-0.1202095165872237
 30
-6.352673089795572
 40
5.549199999999996
100
AcDbArc
 50
151.8598556824941
 51
163.1401443175056
  0
ARC
  5
153
102
{ACAD_REACTORS
330
1005B
102
}
330
1F
100
AcDbEntity
  8
0
 62
     1
100
AcDbCircle
 10
-2.815951567900915
 20
-5.454373719842934
 30
-6.352673089795572
 40
0.4999999999999946
100
AcDbArc
 50
61.85985568249514
 51
147.044566874798
  0
LINE
  5
154
102
{ACAD_REACTORS
330
1005B
102
}
330
1F
100
AcDbEntity
  8
0
 62
     1
100
AcDbLine
 10
-6.275127222033352
 20
3.962690595587105
 30
-6.352673089795572
 11
-5.025139354459552
 21
3.152320617919535
 31
-6.352673089795572
  0
ARC
  5
155
102
{ACAD_REACTORS
330
1005B
102
}
330
1F
100
AcDbEntity
  8
0
 62
     1
100
AcDbCircle
 10
-5.297132614405578
 20
2.732773640163834
 30
-6.352673089795572
 40
0.5000000000000025
100
AcDbArc
 50
331.8598556824956
 51
57.04456687479963
  0
SPLINE
  5
156
102
{ACAD_REACTORS
330
1005B
102
}
330
1F
100
AcDbEntity
  8
0
 62
     1
100
AcDbSpline
210
0.0
220
0.0
230
1.0
 70
     8
 71
     5
 72
    81
 73
    75
 74
     0
 42
0.000000001
 43
0.0000000001
 40
-1.0
 40
-1.0
 40
-1.0
 40
-1.0
 40
-1.0
 40
-1.0
 40
-0.9857142857142841
 40
-0.9714285714285695
 40
-0.9571428571428556
 40
-0.9428571428571411
 40
-0.9285714285714272
 40
-0.9142857142857128
 40
-0.8999999999999987
 40
-0.8857142857142845
 40
-0.8714285714285702
 40
-0.857142857142856
 40
-0.8428571428571418
 40
-0.8285714285714275
 40
-0.8142857142857133
 40
-0.7999999999999991
 40
-0.7857142857142848
 40
-0.7714285714285706
 40
-0.7571428571428564
 40
-0.7428571428571421
 40
-0.7285714285714277
 40
-0.7142857142857137
 40
-0.6999999999999994
 40
-0.6857142857142852
 40
-0.6714285714285709
 40
-0.6571428571428567
 40
-0.6428571428571425
 40
-0.6285714285714282
 40
-0.614285714285714
 40
-0.5999999999999998
 40
-0.5857142857142855
 40
-0.5714285714285713
 40
-0.5571428571428571
 40
-0.5428571428571428
 40
-0.5285714285714286
 40
-0.5142857142857144
 40
-0.5000000000000001
 40
-0.4857142857142859
 40
-0.4714285714285715
 40
-0.4571428571428573
 40
-0.442857142857143
 40
-0.4285714285714288
 40
-0.4142857142857145
 40
-0.4000000000000001
 40
-0.3857142857142857
 40
-0.3714285714285715
 40
-0.3571428571428572
 40
-0.3428571428571429
 40
-0.3285714285714286
 40
-0.3142857142857143
 40
-0.3
 40
-0.2857142857142857
 40
-0.2714285714285714
 40
-0.2571428571428572
 40
-0.2428571428571429
 40
-0.2285714285714286
 40
-0.2142857142857144
 40
-0.2
 40
-0.1857142857142857
 40
-0.1714285714285715
 40
-0.1571428571428571
 40
-0.1428571428571429
 40
-0.1285714285714286
 40
-0.1142857142857143
 40
-0.1
 40
-0.0857142857142858
 40
-0.0714285714285715
 40
-0.0571428571428571
 40
-0.0428571428571429
 40
-0.0285714285714286
 40
-0.0142857142857143
 40
0.0
 40
0.0
 40
0.0
 40
0.0
 40
0.0
 40
0.0
 10
-0.5039619991561662
 20
9.865146057338833
 30
-6.352673089795572
 10
-0.509568978109007
 20
9.858009129872009
 30
-6.352673089795572
 10
-0.5207512756963926
 20
9.843725167149813
 30
-6.352673089795572
 10
-0.5374297411203575
 20
9.822268899716512
 30
-6.352673089795572
 10
-0.5594776700107947
 20
9.793599876153457
 30
-6.352673089795572
 10
-0.5867204018770469
 20
9.757662471113405
 30
-6.352673089795572
 10
-0.6136451748756376
 20
9.721624098268769
 30
-6.352673089795572
 10
-0.6402509049032706
 20
9.685485229916686
 30
-6.352673089795572
 10
-0.6665362124542487
 20
9.649246780561561
 30
-6.352673089795572
 10
-0.6924994241986849
 20
9.612910276116096
 30
-6.352673089795572
 10
-0.7181386397656678
 20
9.576477727702908
 30
-6.352673089795572
 10
-0.7434518115855351
 20
9.539951446806796
 30
-6.352673089795572
 10
-0.7684368258620343
 20
9.503333875473344
 30
-6.352673089795572
 10
-0.7930915772603218
 20
9.466627425336717
 30
-6.352673089795572
 10
-0.8174140690983531
 20
9.429834277783264
 30
-6.352673089795572
 10
-0.8414024010409644
 20
9.39295638421342
 30
-6.352673089795572
 10
-0.8650547020925767
 20
9.355995567042619
 30
-6.352673089795572
 10
-0.888369080680464
 20
9.318953592471714
 30
-6.352673089795572
 10
-0.9113435754406697
 20
9.281832248765823
 30
-6.352673089795572
 10
-0.9339760950053008
 20
9.24463343933278
 30
-6.352673089795572
 10
-0.9562644183108606
 20
9.207359202339965
 30
-6.352673089795572
 10
-0.9782062482387008
 20
9.170011662722885
 30
-6.352673089795572
 10
-0.9997992559950201
 20
9.1325930027565
 30
-6.352673089795572
 10
-1.021041123985719
 20
9.095105428104112
 30
-6.352673089795572
 10
-1.0419296107794
 20
9.057551130415333
 30
-6.352673089795572
 10
-1.062462541262723
 20
9.019932273586228
 30
-6.352673089795572
 10
-1.082637696672202
 20
8.982251014374035
 30
-6.352673089795572
 10
-1.1024527259614
 20
8.94450951524228
 30
-6.352673089795572
 10
-1.121905063343115
 20
8.906709959930687
 30
-6.352673089795572
 10
-1.140991815968233
 20
8.868854570477623
 30
-6.352673089795572
 10
-1.15970976626483
 20
8.830945616834739
 30
-6.352673089795572
 10
-1.178055581774787
 20
8.792985410817898
 30
-6.352673089795572
 10
-1.196025994160239
 20
8.754976303917942
 30
-6.352673089795572
 10
-1.213617966518937
 20
8.716920684036267
 30
-6.352673089795572
 10
-1.230828932544058
 20
8.678820973003887
 30
-6.352673089795572
 10
-1.247656801241882
 20
8.640679624503938
 30
-6.352673089795572
 10
-1.264099432314006
 20
8.60249912353229
 30
-6.352673089795572
 10
-1.280154192335738
 20
8.564281985549079
 30
-6.352673089795572
 10
-1.295817539344072
 20
8.526030756670579
 30
-6.352673089795572
 10
-1.31108445857601
 20
8.487748012354678
 30
-6.352673089795572
 10
-1.32594840649166
 20
8.449436361457969
 30
-6.352673089795572
 10
-1.340402482434759
 20
8.411098462607931
 30
-6.352673089795572
 10
-1.354440434545162
 20
8.372737039225434
 30
-6.352673089795572
 10
-1.368057589128605
 20
8.334354893724672
 30
-6.352673089795572
 10
-1.381252164301754
 20
8.295954926245379
 30
-6.352673089795572
 10
-1.394025305595237
 20
8.257540139174579
 30
-6.352673089795572
 10
-1.406378235179401
 20
8.219113609753392
 30
-6.352673089795572
 10
-1.41830979762472
 20
8.180678466861209
 30
-6.352673089795572
 10
-1.429814230038116
 20
8.142237871287143
 30
-6.352673089795572
 10
-1.440877923258499
 20
8.103794982753726
 30
-6.352673089795572
 10
-1.451479647070831
 20
8.06535297238809
 30
-6.352673089795572
 10
-1.461597124990563
 20
8.026915118953724
 30
-6.352673089795572
 10
-1.471212722504992
 20
7.98848489259344
 30
-6.352673089795572
 10
-1.480318451650825
 20
7.950066031911859
 30
-6.352673089795572
 10
-1.488923803597794
 20
7.911662652794184
 30
-6.352673089795572
 10
-1.49705342046243
 20
7.873279242420309
 30
-6.352673089795572
 10
-1.504731261895509
 20
7.834920501763939
 30
-6.352673089795572
 10
-1.511966819847463
 20
7.796591209197941
 30
-6.352673089795572
 10
-1.518743215078421
 20
7.7582961104074
 30
-6.352673089795572
 10
-1.524997806827043
 20
7.720039711465474
 30
-6.352673089795572
 10
-1.530632569876738
 20
7.681826459067735
 30
-6.352673089795572
 10
-1.535550160910512
 20
7.643661279305071
 30
-6.352673089795572
 10
-1.539685825465964
 20
7.605550019207726
 30
-6.352673089795572
 10
-1.543034516435104
 20
7.567499924219539
 30
-6.352673089795572
 10
-1.545696486617364
 20
7.529520113885887
 30
-6.352673089795572
 10
-1.547833500574041
 20
7.491621983955468
 30
-6.352673089795572
 10
-1.549580329494842
 20
7.45381951983208
 30
-6.352673089795572
 10
-1.550965995082167
 20
7.416129713191985
 30
-6.352673089795572
 10
-1.551840230996878
 20
7.378572777557337
 30
-6.352673089795572
 10
-1.55177310990201
 20
7.341172873918317
 30
-6.352673089795572
 10
-1.550164813372978
 20
7.303955192328324
 30
-6.352673089795572
 10
-1.547155016785923
 20
7.274344819952986
 30
-6.352673089795572
 10
-1.543710029465207
 20
7.252236520032866
 30
-6.352673089795572
 10
-1.540857550985256
 20
7.237542749751895
 30
-6.352673089795572
 10
-1.539292354026214
 20
7.230207138740709
 30
-6.352673089795572
  0
SPLINE
  5
157
102
{ACAD_REACTORS
330
1005B
102
}
330
1F
100
AcDbEntity
  8
0
 62
     1
100
AcDbSpline
210
0.0
220
0.0
230
1.0
 70
     8
 71
     5
 72
    81
 73
    75
 74
     0
 42
0.000000001
 43
0.0000000001
 40
-1.0
 40
-1.0
 40
-1.0
 40
-1.0
 40
-1.0
 40
-1.0
 40
-0.9857142857142841
 40
-0.9714285714285695
 40
-0.9571428571428556
 40
-0.9428571428571411
 40
-0.9285714285714272
 40
-0.9142857142857128
 40
-0.8999999999999987
 40
-0.8857142857142845
 40
-0.8714285714285702
 40
-0.857142857142856
 40
-0.8428571428571418
 40
-0.8285714285714275
 40
-0.8142857142857133
 40
-0.7999999999999991
 40
-0.7857142857142848
 40
-0.7714285714285706
 40
-0.7571428571428564
 40
-0.7428571428571421
 40
-0.7285714285714277
 40
-0.7142857142857137
 40
-0.6999999999999994
 40
-0.6857142857142852
 40
-0.6714285714285709
 40
-0.6571428571428567
 40
-0.6428571428571425
 40
-0.6285714285714282
 40
-0.614285714285714
 40
-0.5999999999999998
 40
-0.5857142857142855
 40
-0.5714285714285713
 40
-0.5571428571428571
 40
-0.5428571428571428
 40
-0.5285714285714286
 40
-0.5142857142857144
 40
-0.5000000000000001
 40
-0.4857142857142859
 40
-0.4714285714285715
 40
-0.4571428571428573
 40
-0.442857142857143
 40
-0.4285714285714288
 40
-0.4142857142857145
 40
-0.4000000000000001
 40
-0.3857142857142857
 40
-0.3714285714285715
 40
-0.3571428571428572
 40
-0.3428571428571429
 40
-0.3285714285714286
 40
-0.3142857142857143
 40
-0.3
 40
-0.2857142857142857
 40
-0.2714285714285714
 40
-0.2571428571428572
 40
-0.2428571428571429
 40
-0.2285714285714286
 40
-0.2142857142857144
 40
-0.2
 40
-0.1857142857142857
 40
-0.1714285714285715
 40
-0.1571428571428571
 40
-0.1428571428571429
 40
-0.1285714285714286
 40
-0.1142857142857143
 40
-0.1
 40
-0.0857142857142858
 40
-0.0714285714285715
 40
-0.0571428571428571
 40
-0.0428571428571429
 40
-0.0285714285714286
 40
-0.0142857142857143
 40
0.0
 40
0.0
 40
0.0
 40
0.0
 40
0.0
 40
0.0
 10
-7.406221284689555
 20
6.557962887637074
 30
-6.352673089795572
 10
-7.405139447720467
 20
6.54895158498892
 30
-6.352673089795572
 10
-7.402946239270645
 20
6.530944219632537
 30
-6.352673089795572
 10
-7.399567823070684
 20
6.503978891430442
 30
-6.352673089795572
 10
-7.394886002128826
 20
6.468116590429467
 30
-6.352673089795572
 10
-7.388737939767418
 20
6.423441487186721
 30
-6.352673089795572
 10
-7.382293651515256
 20
6.378919819796145
 30
-6.352673089795572
 10
-7.375552704760041
 20
6.334552688799007
 30
-6.352673089795572
 10
-7.368514770696217
 20
6.290341716305441
 30
-6.352673089795572
 10
-7.361179745084088
 20
6.246289164521577
 30
-6.352673089795572
 10
-7.353547706236936
 20
6.202397799290999
 30
-6.352673089795572
 10
-7.345618840770944
 20
6.15867070293067
 30
-6.352673089795572
 10
-7.337393380793427
 20
6.115111096907234
 30
-6.352673089795572
 10
-7.328871542890739
 20
6.071722175200136
 30
-6.352673089795572
 10
-7.32005345766853
 20
6.028506892149884
 30
-6.352673089795572
 10
-7.31093916123538
 20
5.985467971344789
 30
-6.352673089795572
 10
-7.301528619239983
 20
5.942608024420856
 30
-6.352673089795572
 10
-7.291821743030981
 20
5.89992963781458
 30
-6.352673089795572
 10
-7.281818410209082
 20
5.857435462914125
 30
-6.352673089795572
 10
-7.271518487866392
 20
5.815128324452459
 30
-6.352673089795572
 10
-7.260921846675843
 20
5.773011234160627
 30
-6.352673089795572
 10
-7.250028364885606
 20
5.731087318903171
 30
-6.352673089795572
 10
-7.238837938891153
 20
5.689359768487292
 30
-6.352673089795572
 10
-7.227350489545512
 20
5.647831781339064
 30
-6.352673089795572
 10
-7.215565981647623
 20
5.606506492120082
 30
-6.352673089795572
 10
-7.203484407265664
 20
5.565386968973363
 30
-6.352673089795572
 10
-7.191105722554601
 20
5.524476305859224
 30
-6.352673089795572
 10
-7.178429794166204
 20
5.483777694311221
 30
-6.352673089795572
 10
-7.165456351952071
 20
5.443294492752009
 30
-6.352673089795572
 10
-7.15218492157741
 20
5.403030317953266
 30
-6.352673089795572
 10
-7.138614832973464
 20
5.362989050180047
 30
-6.352673089795572
 10
-7.124745364437222
 20
5.323174680536801
 30
-6.352673089795572
 10
-7.110575867659898
 20
5.283591182842542
 30
-6.352673089795572
 10
-7.096105883728581
 20
5.244242393012648
 30
-6.352673089795572
 10
-7.081335310483469
 20
5.205131838193281
 30
-6.352673089795572
 10
-7.066264404384702
 20
5.166262731956223
 30
-6.352673089795572
 10
-7.050893409170198
 20
5.12763834487842
 30
-6.352673089795572
 10
-7.035222241426401
 20
5.089262317771257
 30
-6.352673089795572
 10
-7.019250196983383
 20
5.051138955556901
 30
-6.352673089795572
 10
-7.002975550991918
 20
5.013273625331954
 30
-6.352673089795572
 10
-6.986395521210761
 20
4.975672798818074
 30
-6.352673089795572
 10
-6.969507108072589
 20
4.938343235449607
 30
-6.352673089795572
 10
-6.952307816594105
 20
4.901291281708672
 30
-6.352673089795572
 10
-6.934796323580437
 20
4.864522224002151
 30
-6.352673089795572
 10
-6.916973419758294
 20
4.828039373020395
 30
-6.352673089795572
 10
-6.898842038148361
 20
4.791844041759119
 30
-6.352673089795572
 10
-6.880405218893679
 20
4.755937541951439
 30
-6.352673089795572
 10
-6.861664357433982
 20
4.720322903061273
 30
-6.352673089795572
 10
-6.842617613803922
 20
4.685006435084794
 30
-6.352673089795572
 10
-6.823257599134629
 20
4.649999995413317
 30
-6.352673089795572
 10
-6.803571543722624
 20
4.615320838401359
 30
-6.352673089795572
 10
-6.783546014150472
 20
4.580987034338122
 30
-6.352673089795572
 10
-6.763170994696197
 20
4.547013506468623
 30
-6.352673089795572
 10
-6.742443480609454
 20
4.513408546728562
 30
-6.352673089795572
 10
-6.721373093531061
 20
4.480168354217781
 30
-6.352673089795572
 10
-6.699980430984068
 20
4.447278677243893
 30
-6.352673089795572
 10
-6.678285759090377
 20
4.414725897865793
 30
-6.352673089795572
 10
-6.656299168492383
 20
4.382506683080805
 30
-6.352673089795572
 10
-6.634012079471192
 20
4.350636324019987
 30
-6.352673089795572
 10
-6.61138338459458
 20
4.319162300665361
 30
-6.352673089795572
 10
-6.588346913855763
 20
4.288157071600927
 30
-6.352673089795572
 10
-6.564837318407453
 20
4.257692952218469
 30
-6.352673089795572
 10
-6.540812944404935
 20
4.22781986531217
 30
-6.352673089795572
 10
-6.516275346306377
 20
4.198546503028858
 30
-6.352673089795572
 10
-6.491301862038463
 20
4.169808424426562
 30
-6.352673089795572
 10
-6.466014934430623
 20
4.141499302698214
 30
-6.352673089795572
 10
-6.440519750278893
 20
4.113533729395534
 30
-6.352673089795572
 10
-6.414848845955324
 20
4.085903198005468
 30
-6.352673089795572
 10
-6.388910260231133
 20
4.058728255993976
 30
-6.352673089795572
 10
-6.362417072970918
 20
4.032329992296439
 30
-6.352673089795572
 10
-6.334962960556756
 20
4.007150354645965
 30
-6.352673089795572
 10
-6.31189701787999
 20
3.988340907122584
 30
-6.352673089795572
 10
-6.293828115190388
 20
3.975143952224144
 30
-6.352673089795572
 10
-6.28142104370716
 20
3.966770894493649
 30
-6.352673089795572
 10
-6.275127222033352
 20
3.962690595587105
 30
-6.352673089795572
  0
ARC
  5
158
102
{ACAD_REACTORS
330
1005B
102
}
330
1F
100
AcDbEntity
  8
0
 62
     1
100
AcDbCircle
 10
-2.815951567900915
 20
5.213954686668493
 30
-6.352673089795572
 40
0.4999999999999896
100
AcDbArc
 50
212.9554331251996
 51
298.1401443175061
  0
ARC
  5
159
102
{ACAD_REACTORS
330
1005B
102
}
330
1F
100
AcDbEntity
  8
0
 62
     1
100
AcDbCircle
 10
0.0370315888501462
 20
-0.1202095165872237
 30
-6.352673089795572
 40
5.549200000000005
100
AcDbArc
 50
106.8598556824942
 51
118.1401443175057
  0
ARC
  5
160
102
{ACAD_REACTORS
330
1005B
102
}
330
1F
100
AcDbEntity
  8
0
 62
     1
100
AcDbCircle
 10
-5.297132614405578
 20
-2.973192673338274
 30
-6.352673089795572
 40
0.5000000000000018
100
AcDbArc
 50
302.9554331252007
 51
28.14014431750771
  0
SPLINE
  5
161
102
{ACAD_REACTORS
330
1005B
102
}
330
1F
100
AcDbEntity
  8
0
 62
     1
100
AcDbSpline
210
0.0
220
0.0
230
1.0
 70
     8
 71
     5
 72
    81
 73
    75
 74
     0
 42
0.000000001
 43
0.0000000001
 40
0.0
 40
0.0
 40
0.0
 40
0.0
 40
0.0
 40
0.0
 40
0.0142857142857143
 40
0.0285714285714286
 40
0.0428571428571429
 40
0.0571428571428571
 40
0.0714285714285715
 40
0.0857142857142858
 40
0.1
 40
0.1142857142857143
 40
0.1285714285714286
 40
0.1428571428571429
 40
0.1571428571428571
 40
0.1714285714285715
 40
0.1857142857142857
 40
0.2
 40
0.2142857142857144
 40
0.2285714285714286
 40
0.2428571428571429
 40
0.2571428571428572
 40
0.2714285714285714
 40
0.2857142857142857
 40
0.3
 40
0.3142857142857143
 40
0.3285714285714286
 40
0.3428571428571429
 40
0.3571428571428572
 40
0.3714285714285715
 40
0.3857142857142857
 40
0.4000000000000001
 40
0.4142857142857145
 40
0.4285714285714288
 40
0.442857142857143
 40
0.4571428571428573
 40
0.4714285714285715
 40
0.4857142857142859
 40
0.5000000000000001
 40
0.5142857142857144
 40
0.5285714285714286
 40
0.5428571428571428
 40
0.5571428571428571
 40
0.5714285714285713
 40
0.5857142857142855
 40
0.5999999999999998
 40
0.614285714285714
 40
0.6285714285714282
 40
0.6428571428571425
 40
0.6571428571428567
 40
0.6714285714285709
 40
0.6857142857142852
 40
0.6999999999999994
 40
0.7142857142857137
 40
0.7285714285714277
 40
0.7428571428571421
 40
0.7571428571428564
 40
0.7714285714285706
 40
0.7857142857142848
 40
0.7999999999999991
 40
0.8142857142857133
 40
0.8285714285714275
 40
0.8428571428571418
 40
0.857142857142856
 40
0.8714285714285702
 40
0.8857142857142845
 40
0.8999999999999987
 40
0.9142857142857128
 40
0.9285714285714272
 40
0.9428571428571411
 40
0.9571428571428556
 40
0.9714285714285695
 40
0.9857142857142841
 40
1.0
 40
1.0
 40
1.0
 40
1.0
 40
1.0
 40
1.0
 10
-7.313385066477769
 20
1.456114426289147
 30
-6.352673089795572
 10
-7.320720677488969
 20
1.457679623248203
 30
-6.352673089795572
 10
-7.335414447769943
 20
1.460532101728148
 30
-6.352673089795572
 10
-7.357522747690053
 20
1.46397708904886
 30
-6.352673089795572
 10
-7.387133120065408
 20
1.466986885635904
 30
-6.352673089795572
 10
-7.424350801655391
 20
1.468595182164946
 30
-6.352673089795572
 10
-7.461750705294418
 20
1.468662303259812
 30
-6.352673089795572
 10
-7.499307640929059
 20
1.467788067345104
 30
-6.352673089795572
 10
-7.536997447569147
 20
1.466402401757775
 30
-6.352673089795572
 10
-7.574799911692524
 20
1.464655572836974
 30
-6.352673089795572
 10
-7.612698041622953
 20
1.462518558880312
 30
-6.352673089795572
 10
-7.65067785195661
 20
1.459856588698045
 30
-6.352673089795572
 10
-7.688727946944796
 20
1.45650789772889
 30
-6.352673089795572
 10
-7.726839207042145
 20
1.452372233173434
 30
-6.352673089795572
 10
-7.765004386804809
 20
1.447454642139675
 30
-6.352673089795572
 10
-7.803217639202541
 20
1.441819879089969
 30
-6.352673089795572
 10
-7.841474038144484
 20
1.435565287341368
 30
-6.352673089795572
 10
-7.879769136935019
 20
1.428788892110397
 30
-6.352673089795572
 10
-7.918098429501009
 20
1.421553334158438
 30
-6.352673089795572
 10
-7.95645717015738
 20
1.413875492725367
 30
-6.352673089795572
 10
-7.994840580531258
 20
1.405745875860709
 30
-6.352673089795572
 10
-8.033243959648933
 20
1.397140523913748
 30
-6.352673089795572
 10
-8.071662820330525
 20
1.388034794767918
 30
-6.352673089795572
 10
-8.110093046690794
 20
1.378419197253492
 30
-6.352673089795572
 10
-8.148530900125157
 20
1.368301719333771
 30
-6.352673089795572
 10
-8.186972910490792
 20
1.357699995521421
 30
-6.352673089795572
 10
-8.225415799024224
 20
1.346636302301043
 30
-6.352673089795572
 10
-8.263856394598283
 20
1.335131869887646
 30
-6.352673089795572
 10
-8.302291537490466
 20
1.323200307442334
 30
-6.352673089795572
 10
-8.340718066911646
 20
1.310847377858173
 30
-6.352673089795572
 10
-8.379132853982445
 20
1.298074236564687
 30
-6.352673089795572
 10
-8.417532821461739
 20
1.284879661391535
 30
-6.352673089795572
 10
-8.455914966962508
 20
1.271262506808085
 30
-6.352673089795572
 10
-8.494276390344998
 20
1.257224554697685
 30
-6.352673089795572
 10
-8.532614289195043
 20
1.2427704787546
 30
-6.352673089795572
 10
-8.570925940091759
 20
1.227906530838936
 30
-6.352673089795572
 10
-8.60920868440766
 20
1.212639611607002
 30
-6.352673089795572
 10
-8.647459913286146
 20
1.196976264598667
 30
-6.352673089795572
 10
-8.685677051269356
 20
1.180921504576943
 30
-6.352673089795572
 10
-8.723857552241026
 20
1.164478873504812
 30
-6.352673089795572
 10
-8.761998900740946
 20
1.147651004806995
 30
-6.352673089795572
 10
-8.800098611773341
 20
1.130440038781863
 30
-6.352673089795572
 10
-8.838154231655023
 20
1.112848066423168
 30
-6.352673089795572
 10
-8.876163338554986
 20
1.094877654037723
 30
-6.352673089795572
 10
-8.914123544571806
 20
1.076531838527756
 30
-6.352673089795572
 10
-8.952032498214697
 20
1.057813888231152
 30
-6.352673089795572
 10
-8.989887887667753
 20
1.038727135606038
 30
-6.352673089795572
 10
-9.027687442979361
 20
1.01927479822433
 30
-6.352673089795572
 10
-9.065428942111102
 20
0.9994597689351252
 30
-6.352673089795572
 10
-9.103110201323316
 20
0.9792846135256638
 30
-6.352673089795572
 10
-9.140729058152421
 20
0.9587516830423368
 30
-6.352673089795572
 10
-9.178283355841186
 20
0.9378631962486565
 30
-6.352673089795572
 10
-9.215770930493553
 20
0.9166213282579462
 30
-6.352673089795572
 10
-9.253189590459959
 20
0.8950283205016376
 30
-6.352673089795572
 10
-9.290537130077018
 20
0.8730864905737831
 30
-6.352673089795572
 10
-9.327811367069854
 20
0.8507981672682234
 30
-6.352673089795572
 10
-9.365010176502911
 20
0.8281656477035994
 30
-6.352673089795572
 10
-9.402131520208795
 20
0.8051911529433937
 30
-6.352673089795572
 10
-9.439173494779707
 20
0.78187677435551
 30
-6.352673089795572
 10
-9.476134311950493
 20
0.7582244733038977
 30
-6.352673089795572
 10
-9.513012205520359
 20
0.7342361413612935
 30
-6.352673089795572
 10
-9.549805353073791
 20
0.7099136495232586
 30
-6.352673089795572
 10
-9.586511803210433
 20
0.6852588981249568
 30
-6.352673089795572
 10
-9.623129374543884
 20
0.6602738838484754
 30
-6.352673089795572
 10
-9.659655655440003
 20
0.6349607120286152
 30
-6.352673089795572
 10
-9.696088203853177
 20
0.6093214964616181
 30
-6.352673089795572
 10
-9.732424708298628
 20
0.5833582847171784
 30
-6.352673089795572
 10
-9.768663157653753
 20
0.5570729771662002
 30
-6.352673089795572
 10
-9.804802026005843
 20
0.5304672471385743
 30
-6.352673089795572
 10
-9.840840398850486
 20
0.5035424741399766
 30
-6.352673089795572
 10
-9.876777803890538
 20
0.4762997422737385
 30
-6.352673089795572
 10
-9.905446827453586
 20
0.4542518133832943
 30
-6.352673089795572
 10
-9.926903094886865
 20
0.4375733479593294
 30
-6.352673089795572
 10
-9.941187057609075
 20
0.4263910503719473
 30
-6.352673089795572
 10
-9.948323985075914
 20
0.4207840714190923
 30
-6.352673089795572
  0
SPLINE
  5
162
102
{ACAD_REACTORS
330
1005B
102
}
330
1F
100
AcDbEntity
  8
0
 62
     1
100
AcDbSpline
210
0.0
220
0.0
230
1.0
 70
     8
 71
     5
 72
    81
 73
    75
 74
     0
 42
0.000000001
 43
0.0000000001
 40
-1.0
 40
-1.0
 40
-1.0
 40
-1.0
 40
-1.0
 40
-1.0
 40
-0.9857142857142841
 40
-0.9714285714285695
 40
-0.9571428571428556
 40
-0.9428571428571411
 40
-0.9285714285714272
 40
-0.9142857142857128
 40
-0.8999999999999987
 40
-0.8857142857142845
 40
-0.8714285714285702
 40
-0.857142857142856
 40
-0.8428571428571418
 40
-0.8285714285714275
 40
-0.8142857142857133
 40
-0.7999999999999991
 40
-0.7857142857142848
 40
-0.7714285714285706
 40
-0.7571428571428564
 40
-0.7428571428571421
 40
-0.7285714285714277
 40
-0.7142857142857137
 40
-0.6999999999999994
 40
-0.6857142857142852
 40
-0.6714285714285709
 40
-0.6571428571428567
 40
-0.6428571428571425
 40
-0.6285714285714282
 40
-0.614285714285714
 40
-0.5999999999999998
 40
-0.5857142857142855
 40
-0.5714285714285713
 40
-0.5571428571428571
 40
-0.5428571428571428
 40
-0.5285714285714286
 40
-0.5142857142857144
 40
-0.5000000000000001
 40
-0.4857142857142859
 40
-0.4714285714285715
 40
-0.4571428571428573
 40
-0.442857142857143
 40
-0.4285714285714288
 40
-0.4142857142857145
 40
-0.4000000000000001
 40
-0.3857142857142857
 40
-0.3714285714285715
 40
-0.3571428571428572
 40
-0.3428571428571429
 40
-0.3285714285714286
 40
-0.3142857142857143
 40
-0.3
 40
-0.2857142857142857
 40
-0.2714285714285714
 40
-0.2571428571428572
 40
-0.2428571428571429
 40
-0.2285714285714286
 40
-0.2142857142857144
 40
-0.2
 40
-0.1857142857142857
 40
-0.1714285714285715
 40
-0.1571428571428571
 40
-0.1428571428571429
 40
-0.1285714285714286
 40
-0.1142857142857143
 40
-0.1
 40
-0.0857142857142858
 40
-0.0714285714285715
 40
-0.0571428571428571
 40
-0.0428571428571429
 40
-0.0285714285714286
 40
-0.0142857142857143
 40
0.0
 40
0.0
 40
0.0
 40
0.0
 40
0.0
 40
0.0
 10
-9.948323985075914
 20
-0.6612031045935112
 30
-6.352673089795572
 10
-9.941187057609075
 20
-0.6668100835463946
 30
-6.352673089795572
 10
-9.926903094886865
 20
-0.6779923811337625
 30
-6.352673089795572
 10
-9.905446827453586
 20
-0.6946708465577274
 30
-6.352673089795572
 10
-9.876777803890538
 20
-0.7167187754481433
 30
-6.352673089795572
 10
-9.840840398850486
 20
-0.7439615073144239
 30
-6.352673089795572
 10
-9.804802026005843
 20
-0.7708862803130075
 30
-6.352673089795572
 10
-9.768663157653753
 20
-0.7974920103406334
 30
-6.352673089795572
 10
-9.732424708298628
 20
-0.8237773178916114
 30
-6.352673089795572
 10
-9.696088203853177
 20
-0.8497405296360511
 30
-6.352673089795572
 10
-9.659655655440003
 20
-0.8753797452030198
 30
-6.352673089795572
 10
-9.623129374543884
 20
-0.9006929170228943
 30
-6.352673089795572
 10
-9.586511803210433
 20
-0.9256779312993899
 30
-6.352673089795572
 10
-9.549805353073791
 20
-0.9503326826976916
 30
-6.352673089795572
 10
-9.513012205520359
 20
-0.9746551745357123
 30
-6.352673089795572
 10
-9.476134311950493
 20
-0.9986435064783165
 30
-6.352673089795572
 10
-9.439173494779707
 20
-1.022295807529943
 30
-6.352673089795572
 10
-9.402131520208795
 20
-1.045610186117841
 30
-6.352673089795572
 10
-9.365010176502911
 20
-1.068584680878032
 30
-6.352673089795572
 10
-9.327811367069854
 20
-1.091217200442642
 30
-6.352673089795572
 10
-9.290537130077018
 20
-1.113505523748216
 30
-6.352673089795572
 10
-9.253189590459959
 20
-1.13544735367607
 30
-6.352673089795572
 10
-9.215770930493553
 20
-1.157040361432393
 30
-6.352673089795572
 10
-9.178283355841186
 20
-1.178282229423075
 30
-6.352673089795572
 10
-9.140729058152421
 20
-1.199170716216769
 30
-6.352673089795572
 10
-9.103110201323316
 20
-1.219703646700097
 30
-6.352673089795572
 10
-9.065428942111102
 20
-1.239878802109558
 30
-6.352673089795572
 10
-9.027687442979361
 20
-1.259693831398749
 30
-6.352673089795572
 10
-8.989887887667753
 20
-1.279146168780485
 30
-6.352673089795572
 10
-8.952032498214697
 20
-1.298232921405571
 30
-6.352673089795572
 10
-8.914123544571806
 20
-1.316950871702189
 30
-6.352673089795572
 10
-8.876163338554986
 20
-1.335296687212149
 30
-6.352673089795572
 10
-8.838154231655023
 20
-1.353267099597601
 30
-6.352673089795572
 10
-8.800098611773341
 20
-1.370859071956303
 30
-6.352673089795572
 10
-8.761998900740946
 20
-1.388070037981435
 30
-6.352673089795572
 10
-8.723857552241026
 20
-1.404897906679238
 30
-6.352673089795572
 10
-8.685677051269356
 20
-1.421340537751376
 30
-6.352673089795572
 10
-8.647459913286146
 20
-1.437395297773107
 30
-6.352673089795572
 10
-8.60920868440766
 20
-1.453058644781435
 30
-6.352673089795572
 10
-8.570925940091759
 20
-1.468325564013383
 30
-6.352673089795572
 10
-8.532614289195043
 20
-1.483189511929026
 30
-6.352673089795572
 10
-8.494276390344998
 20
-1.497643587872119
 30
-6.352673089795572
 10
-8.455914966962508
 20
-1.511681539982504
 30
-6.352673089795572
 10
-8.417532821461739
 20
-1.525298694565975
 30
-6.352673089795572
 10
-8.379132853982445
 20
-1.538493269739134
 30
-6.352673089795572
 10
-8.340718066911646
 20
-1.551266411032599
 30
-6.352673089795572
 10
-8.302291537490466
 20
-1.563619340616753
 30
-6.352673089795572
 10
-8.263856394598283
 20
-1.57555090306208
 30
-6.352673089795572
 10
-8.225415799024224
 20
-1.587055335475469
 30
-6.352673089795572
 10
-8.186972910490792
 20
-1.598119028695862
 30
-6.352673089795572
 10
-8.148530900125157
 20
-1.60872075250819
 30
-6.352673089795572
 10
-8.110093046690794
 20
-1.618838230427911
 30
-6.352673089795572
 10
-8.071662820330525
 20
-1.628453827942351
 30
-6.352673089795572
 10
-8.033243959648933
 20
-1.637559557088181
 30
-6.352673089795572
 10
-7.994840580531258
 20
-1.64616490903515
 30
-6.352673089795572
 10
-7.95645717015738
 20
-1.654294525899786
 30
-6.352673089795572
 10
-7.918098429501009
 20
-1.66197236733285
 30
-6.352673089795572
 10
-7.879769136935019
 20
-1.669207925284837
 30
-6.352673089795572
 10
-7.841474038144484
 20
-1.675984320515794
 30
-6.352673089795572
 10
-7.803217639202541
 20
-1.682238912264409
 30
-6.352673089795572
 10
-7.765004386804809
 20
-1.687873675314108
 30
-6.352673089795572
 10
-7.726839207042145
 20
-1.692791266347867
 30
-6.352673089795572
 10
-7.688727946944796
 20
-1.696926930903345
 30
-6.352673089795572
 10
-7.65067785195661
 20
-1.700275621872478
 30
-6.352673089795572
 10
-7.612698041622953
 20
-1.702937592054738
 30
-6.352673089795572
 10
-7.574799911692524
 20
-1.705074606011393
 30
-6.352673089795572
 10
-7.536997447569147
 20
-1.706821434932209
 30
-6.352673089795572
 10
-7.499307640929059
 20
-1.70820710051953
 30
-6.352673089795572
 10
-7.461750705294418
 20
-1.709081336434223
 30
-6.352673089795572
 10
-7.424350801655391
 20
-1.709014215339379
 30
-6.352673089795572
 10
-7.387133120065408
 20
-1.707405918810323
 30
-6.352673089795572
 10
-7.357522747690053
 20
-1.704396122223286
 30
-6.352673089795572
 10
-7.335414447769943
 20
-1.700951134902581
 30
-6.352673089795572
 10
-7.320720677488969
 20
-1.698098656422615
 30
-6.352673089795572
 10
-7.313385066477769
 20
-1.69653345946358
 30
-6.352673089795572
  0
SPLINE
  5
163
102
{ACAD_REACTORS
330
1005B
102
}
330
1F
100
AcDbEntity
  8
0
 62
     1
100
AcDbSpline
210
0.0
220
0.0
230
1.0
 70
     8
 71
     5
 72
    81
 73
    75
 74
     0
 42
0.000000001
 43
0.0000000001
 40
-1.0
 40
-1.0
 40
-1.0
 40
-1.0
 40
-1.0
 40
-1.0
 40
-0.9857142857142841
 40
-0.9714285714285695
 40
-0.9571428571428556
 40
-0.9428571428571411
 40
-0.9285714285714272
 40
-0.9142857142857128
 40
-0.8999999999999987
 40
-0.8857142857142845
 40
-0.8714285714285702
 40
-0.857142857142856
 40
-0.8428571428571418
 40
-0.8285714285714275
 40
-0.8142857142857133
 40
-0.7999999999999991
 40
-0.7857142857142848
 40
-0.7714285714285706
 40
-0.7571428571428564
 40
-0.7428571428571421
 40
-0.7285714285714277
 40
-0.7142857142857137
 40
-0.6999999999999994
 40
-0.6857142857142852
 40
-0.6714285714285709
 40
-0.6571428571428567
 40
-0.6428571428571425
 40
-0.6285714285714282
 40
-0.614285714285714
 40
-0.5999999999999998
 40
-0.5857142857142855
 40
-0.5714285714285713
 40
-0.5571428571428571
 40
-0.5428571428571428
 40
-0.5285714285714286
 40
-0.5142857142857144
 40
-0.5000000000000001
 40
-0.4857142857142859
 40
-0.4714285714285715
 40
-0.4571428571428573
 40
-0.442857142857143
 40
-0.4285714285714288
 40
-0.4142857142857145
 40
-0.4000000000000001
 40
-0.3857142857142857
 40
-0.3714285714285715
 40
-0.3571428571428572
 40
-0.3428571428571429
 40
-0.3285714285714286
 40
-0.3142857142857143
 40
-0.3
 40
-0.2857142857142857
 40
-0.2714285714285714
 40
-0.2571428571428572
 40
-0.2428571428571429
 40
-0.2285714285714286
 40
-0.2142857142857144
 40
-0.2
 40
-0.1857142857142857
 40
-0.1714285714285715
 40
-0.1571428571428571
 40
-0.1428571428571429
 40
-0.1285714285714286
 40
-0.1142857142857143
 40
-0.1
 40
-0.0857142857142858
 40
-0.0714285714285715
 40
-0.0571428571428571
 40
-0.0428571428571429
 40
-0.0285714285714286
 40
-0.0142857142857143
 40
0.0
 40
0.0
 40
0.0
 40
0.0
 40
0.0
 40
0.0
 10
-6.641140815374148
 20
-7.5634623901269
 30
-6.352673089795572
 10
-6.632129512725986
 20
-7.562380553157794
 30
-6.352673089795572
 10
-6.614122147369618
 20
-7.560187344707983
 30
-6.352673089795572
 10
-6.587156819167523
 20
-7.556808928508047
 30
-6.352673089795572
 10
-6.551294518166541
 20
-7.552127107566178
 30
-6.352673089795572
 10
-6.506619414923791
 20
-7.545979045204774
 30
-6.352673089795572
 10
-6.462097747533208
 20
-7.539534756952633
 30
-6.352673089795572
 10
-6.417730616536088
 20
-7.532793810197404
 30
-6.352673089795572
 10
-6.373519644042522
 20
-7.525755876133587
 30
-6.352673089795572
 10
-6.329467092258658
 20
-7.518420850521437
 30
-6.352673089795572
 10
-6.285575727028069
 20
-7.510788811674302
 30
-6.352673089795572
 10
-6.24184863066773
 20
-7.502859946208303
 30
-6.352673089795572
 10
-6.198289024644312
 20
-7.494634486230808
 30
-6.352673089795572
 10
-6.15490010293721
 20
-7.486112648328116
 30
-6.352673089795572
 10
-6.111684819886965
 20
-7.4772945631059
 30
-6.352673089795572
 10
-6.068645899081859
 20
-7.468180266672746
 30
-6.352673089795572
 10
-6.02578595215793
 20
-7.458769724677338
 30
-6.352673089795572
 10
-5.983107565551653
 20
-7.449062848468344
 30
-6.352673089795572
 10
-5.940613390651181
 20
-7.439059515646434
 30
-6.352673089795572
 10
-5.898306252189522
 20
-7.428759593303723
 30
-6.352673089795572
 10
-5.856189161897701
 20
-7.418162952113192
 30
-6.352673089795572
 10
-5.81426524664022
 20
-7.407269470322972
 30
-6.352673089795572
 10
-5.772537696224359
 20
-7.396079044328516
 30
-6.352673089795572
 10
-5.731009709076138
 20
-7.384591594982879
 30
-6.352673089795572
 10
-5.689684419857163
 20
-7.372807087085007
 30
-6.352673089795572
 10
-5.64856489671043
 20
-7.360725512703012
 30
-6.352673089795572
 10
-5.607654233596305
 20
-7.348346827991989
 30
-6.352673089795572
 10
-5.566955622048302
 20
-7.33567089960357
 30
-6.352673089795572
 10
-5.526472420489087
 20
-7.322697457389438
 30
-6.352673089795572
 10
-5.486208245690322
 20
-7.309426027014765
 30
-6.352673089795572
 10
-5.446166977917107
 20
-7.295855938410838
 30
-6.352673089795572
 10
-5.406352608273882
 20
-7.281986469874595
 30
-6.352673089795572
 10
-5.366769110579623
 20
-7.267816973097268
 30
-6.352673089795572
 10
-5.327420320749736
 20
-7.253346989165947
 30
-6.352673089795572
 10
-5.288309765930348
 20
-7.238576415920846
 30
-6.352673089795572
 10
-5.249440659693304
 20
-7.223505509822075
 30
-6.352673089795572
 10
-5.210816272615486
 20
-7.20813451460755
 30
-6.352673089795572
 10
-5.172440245508321
 20
-7.19246334686376
 30
-6.352673089795572
 10
-5.134316883293982
 20
-7.176491302420743
 30
-6.352673089795572
 10
-5.096451553069032
 20
-7.16021665642927
 30
-6.352673089795572
 10
-5.058850726555151
 20
-7.143636626648145
 30
-6.352673089795572
 10
-5.021521163186699
 20
-7.126748213509955
 30
-6.352673089795572
 10
-4.984469209445732
 20
-7.109548922031464
 30
-6.352673089795572
 10
-4.947700151739235
 20
-7.092037429017793
 30
-6.352673089795572
 10
-4.911217300757455
 20
-7.074214525195657
 30
-6.352673089795572
 10
-4.875021969496193
 20
-7.056083143585738
 30
-6.352673089795572
 10
-4.83911546968852
 20
-7.037646324331035
 30
-6.352673089795572
 10
-4.803500830798354
 20
-7.018905462871344
 30
-6.352673089795572
 10
-4.768184362821875
 20
-6.99985871924126
 30
-6.352673089795572
 10
-4.733177923150387
 20
-6.980498704571999
 30
-6.352673089795572
 10
-4.698498766138433
 20
-6.96081264915999
 30
-6.352673089795572
 10
-4.664164962075199
 20
-6.940787119587852
 30
-6.352673089795572
 10
-4.630191434205693
 20
-6.920412100133546
 30
-6.352673089795572
 10
-4.596586474465633
 20
-6.899684586046817
 30
-6.352673089795572
 10
-4.563346281954837
 20
-6.878614198968435
 30
-6.352673089795572
 10
-4.530456604980964
 20
-6.857221536421434
 30
-6.352673089795572
 10
-4.497903825602859
 20
-6.83552686452775
 30
-6.352673089795572
 10
-4.465684610817875
 20
-6.813540273929731
 30
-6.352673089795572
 10
-4.433814251757064
 20
-6.791253184908555
 30
-6.352673089795572
 10
-4.402340228402442
 20
-6.768624490031925
 30
-6.352673089795572
 10
-4.371334999337991
 20
-6.745588019293123
 30
-6.352673089795572
 10
-4.340870879955522
 20
-6.722078423844806
 30
-6.352673089795572
 10
-4.31099779304924
 20
-6.698054049842284
 30
-6.352673089795572
 10
-4.281724430765939
 20
-6.673516451743736
 30
-6.352673089795572
 10
-4.252986352163633
 20
-6.648542967475833
 30
-6.352673089795572
 10
-4.224677230435284
 20
-6.623256039867996
 30
-6.352673089795572
 10
-4.196711657132615
 20
-6.597760855716259
 30
-6.352673089795572
 10
-4.16908112574252
 20
-6.572089951392683
 30
-6.352673089795572
 10
-4.141906183731046
 20
-6.546151365668507
 30
-6.352673089795572
 10
-4.115507920033506
 20
-6.519658178408292
 30
-6.352673089795572
 10
-4.090328282383035
 20
-6.492204065994101
 30
-6.352673089795572
 10
-4.071518834859658
 20
-6.469138123317364
 30
-6.352673089795572
 10
-4.058321879961217
 20
-6.451069220627758
 30
-6.352673089795572
 10
-4.049948822230716
 20
-6.438662149144519
 30
-6.352673089795572
 10
-4.045868523324179
 20
-6.432368327470726
 30
-6.352673089795572
  0
ARC
  5
164
102
{ACAD_REACTORS
330
1005B
102
}
330
1F
100
AcDbEntity
  8
0
 62
     1
100
AcDbCircle
 10
0.0370315888501462
 20
-0.1202095165872237
 30
-6.352673089795572
 40
10.0
100
AcDbArc
 50
131.8988210856684
 51
138.1011789143315
  0
ENDSEC
  0
SECTION
  2
OBJECTS
  0
DICTIONARY
  5
C
330
0
100
AcDbDictionary
281
     1
  3
ACAD_CIP_PREVIOUS_PRODUCT_INFO
350
1005A
  3
ACAD_COLOR
350
10036
  3
ACAD_DETAILVIEWSTYLE
350
10051
  3
ACAD_GROUP
350
D
  3
ACAD_LAYOUT
350
10037
  3
ACAD_MATERIAL
350
10004
  3
ACAD_MLEADERSTYLE
350
1004D
  3
ACAD_MLINESTYLE
350
17
  3
ACAD_PLOTSETTINGS
350
10054
  3
ACAD_PLOTSTYLENAME
350
10002
  3
ACAD_SCALELIST
350
1003B
  3
ACAD_SECTIONVIEWSTYLE
350
1004F
  3
ACAD_TABLESTYLE
350
10038
  3
ACAD_VISUALSTYLE
350
1001D
  3
ACDB_RECOMPOSE_DATA
350
1006A
  3
AcDbVariableDictionary
350
1005E
  0
DICTIONARY
  5
1005C
330
50
100
AcDbDictionary
280
     1
281
     1
  3
ADSK_XREC_LAYER_RECONCILED
360
1005D
  0
XRECORD
  5
1005A
102
{ACAD_REACTORS
330
C
102
}
330
C
100
AcDbXrecord
280
     1
300
ACD
300
2018
300

  0
DICTIONARY
  5
10036
102
{ACAD_REACTORS
330
C
102
}
330
C
100
AcDbDictionary
281
     1
  0
DICTIONARY
  5
10051
102
{ACAD_REACTORS
330
C
102
}
330
C
100
AcDbDictionary
281
     1
  3
Imperial24
350
10052
  0
DICTIONARY
  5
D
330
C
100
AcDbDictionary
281
     1
  3
*A1
350
1005B
  0
DICTIONARY
  5
10037
102
{ACAD_REACTORS
330
C
102
}
330
C
100
AcDbDictionary
281
     1
  3
Layout1
350
10056
  3
Model
350
10055
  0
DICTIONARY
  5
10004
102
{ACAD_REACTORS
330
C
102
}
330
C
100
AcDbDictionary
281
     1
  3
ByBlock
350
1000D
  3
ByLayer
350
10005
  3
Global
350
10015
  0
DICTIONARY
  5
1004D
102
{ACAD_REACTORS
330
C
102
}
330
C
100
AcDbDictionary
281
     1
  3
Standard
350
1004E
  0
DICTIONARY
  5
17
330
C
100
AcDbDictionary
281
     1
  3
Standard
350
1003A
  0
DICTIONARY
  5
10054
102
{ACAD_REACTORS
330
C
102
}
330
C
100
AcDbDictionary
281
     1
  0
ACDBDICTIONARYWDFLT
  5
10002
102
{ACAD_REACTORS
330
C
102
}
330
C
100
AcDbDictionary
281
     1
  3
Normal
350
10003
100
AcDbDictionaryWithDefault
340
10003
  0
DICTIONARY
  5
1003B
102
{ACAD_REACTORS
330
C
102
}
330
C
100
AcDbDictionary
281
     1
  3
A0
350
1003C
  3
A1
350
1003D
  3
A2
350
1003E
  3
A3
350
1003F
  3
A4
350
10040
  3
A5
350
10041
  3
A6
350
10042
  3
A7
350
10043
  3
A8
350
10044
  3
A9
350
10045
  3
B0
350
10046
  3
B1
350
10047
  3
B2
350
10048
  3
B3
350
10049
  3
B4
350
1004A
  3
B5
350
1004B
  3
B6
350
1004C
  0
DICTIONARY
  5
1004F
102
{ACAD_REACTORS
330
C
102
}
330
C
100
AcDbDictionary
281
     1
  3
Imperial24
350
10050
  0
DICTIONARY
  5
10038
102
{ACAD_REACTORS
330
C
102
}
330
C
100
AcDbDictionary
281
     1
  3
Standard
350
10039
  0
DICTIONARY
  5
1001D
102
{ACAD_REACTORS
330
C
102
}
330
C
100
AcDbDictionary
281
     1
  3
2dWireframe
350
10023
  3
Basic
350
10022
  3
Brighten
350
10029
  3
ColorChange
350
1002D
  3
Conceptual
350
10026
  3
Dim
350
10028
  3
EdgeColorOff
350
10035
  3
Facepattern
350
1002C
  3
Flat
350
1001E
  3
FlatWithEdges
350
1001F
  3
Gouraud
350
10020
  3
GouraudWithEdges
350
10021
  3
Hidden
350
10025
  3
JitterOff
350
10033
  3
Linepattern
350
1002B
  3
OverhangOff
350
10034
  3
Realistic
350
10027
  3
Shaded
350
10032
  3
Shaded with edges
350
10031
  3
Shades of Gray
350
1002E
  3
Sketchy
350
1002F
  3
Thicken
350
1002A
  3
Wireframe
350
10024
  3
X-Ray
350
10030
  0
XRECORD
  5
1006A
102
{ACAD_REACTORS
330
C
102
}
330
C
100
AcDbXrecord
280
     1
 90
        1
330
10039
  0
DICTIONARY
  5
1005E
102
{ACAD_REACTORS
330
C
102
}
330
C
100
AcDbDictionary
281
     1
  3
CANNOSCALE
350
10064
  3
CMLEADERSTYLE
350
10060
  3
CTABLESTYLE
350
1005F
  3
CVIEWDETAILSTYLE
350
10061
  3
CVIEWSECTIONSTYLE
350
10062
  3
LAYEREVAL
350
10066
  3
LAYERNOTIFY
350
10067
  3
LIGHTINGUNITS
350
10065
  3
MSLTSCALE
350
10063
  0
XRECORD
  5
1005D
102
{ACAD_REACTORS
330
1005C
102
}
330
1005C
100
AcDbXrecord
280
     1
290
     1
  0
ACDBDETAILVIEWSTYLE
  5
10052
102
{ACAD_REACTORS
330
10051
102
}
330
10051
100
AcDbModelDocViewStyle
 70
     0
  3
Imperial24
290
     0
300
Imperial24
 90
        0
100
AcDbDetailViewStyle
 70
     0
 71
     0
 90
        3
 71
     1
340
11
 62
   256
 40
0.24
340
0
 62
   256
 40
0.24
300

 40
0.36
280
     3
 71
     2
340
0
 90
       25
 62
   256
 71
     3
340
11
 62
   256
 40
0.24
 90
        1
 40
0.75
 90
        1
300
%<\AcVar ViewType \f "%tc1">% %<\AcVar ViewDetailId>%\PSCALE %<\AcVar ViewScale \f "%sn">%
 71
     4
340
0
 90
       25
 62
   256
340
0
 90
       25
 62
   256
280
     0
  0
GROUP
  5
1005B
102
{ACAD_REACTORS
330
D
102
}
330
D
100
AcDbGroup
300

 70
     1
 71
     1
340
164
340
163
340
162
340
161
340
160
340
159
340
158
340
157
340
156
340
155
340
154
340
153
340
152
340
151
340
150
340
149
340
148
340
147
340
146
340
145
340
144
340
143
340
142
340
141
340
140
340
139
340
138
340
137
340
136
340
135
340
134
340
133
340
132
340
131
340
130
340
129
340
128
340
127
340
126
340
125
340
124
340
123
340
122
340
121
340
120
340
119
340
118
340
117
340
116
340
115
340
114
340
113
340
112
340
111
340
110
340
109
340
108
340
107
340
106
340
105
340
104
340
103
340
102
340
101
340
100
  0
LAYOUT
  5
10056
102
{ACAD_REACTORS
330
10037
102
}
330
10037
100
AcDbPlotSettings
  1

  2
Adobe PDF
  4

  6

 40
0.0
 41
0.0
 42
0.0
 43
0.0
 44
0.0
 45
0.0
 46
0.0
 47
0.0
 48
0.0
 49
0.0
140
0.0
141
0.0
142
1.0
143
1.0
 70
   688
 72
     0
 73
     0
 74
     5
  7

 75
    16
147
1.0
 76
     0
 77
     2
 78
   300
148
0.0
149
0.0
100
AcDbLayout
  1
Layout1
 70
     1
 71
     1
 10
0.0
 20
0.0
 11
12.0
 21
9.0
 12
0.0
 22
0.0
 32
0.0
 14
1.000000000000000E+20
 24
1.000000000000000E+20
 34
1.000000000000000E+20
 15
-1.000000000000000E+20
 25
-1.000000000000000E+20
 35
-1.000000000000000E+20
146
0.0
 13
0.0
 23
0.0
 33
0.0
 16
1.0
 26
0.0
 36
0.0
 17
0.0
 27
1.0
 37
0.0
 76
     0
330
1B
  0
LAYOUT
  5
10055
102
{ACAD_REACTORS
330
10037
102
}
330
10037
100
AcDbPlotSettings
  1

  2
Adobe PDF
  4

  6

 40
0.0
 41
0.0
 42
0.0
 43
0.0
 44
0.0
 45
0.0
 46
0.0
 47
0.0
 48
0.0
 49
0.0
140
0.0
141
0.0
142
1.0
143
1.0
 70
  1712
 72
     0
 73
     0
 74
     0
  7

 75
     0
147
1.0
 76
     0
 77
     2
 78
   300
148
0.0
149
0.0
100
AcDbLayout
  1
Model
 70
     1
 71
     0
 10
0.0
 20
0.0
 11
12.0
 21
9.0
 12
0.0
 22
0.0
 32
0.0
 14
0.0
 24
0.0
 34
0.0
 15
0.0
 25
0.0
 35
0.0
146
0.0
 13
0.0
 23
0.0
 33
0.0
 16
1.0
 26
0.0
 36
0.0
 17
0.0
 27
1.0
 37
0.0
 76
     0
330
1F
331
10059
  0
MATERIAL
  5
1000D
102
{ACAD_XDICTIONARY
360
1000E
102
}
102
{ACAD_REACTORS
330
10004
102
}
330
10004
100
AcDbMaterial
  1
ByBlock
 72
     0
 43
0.0008202099737533
 43
0.0
 43
0.0
 43
0.0
 43
0.0
 43
0.0008202099737533
 43
0.0
 43
0.0
 43
0.0
 43
0.0
 43
1.0
 43
0.0
 43
0.0
 43
0.0
 43
0.0
 43
1.0
 77
     0
 47
0.0008202099737533
 47
0.0
 47
0.0
 47
0.0
 47
0.0
 47
0.0008202099737533
 47
0.0
 47
0.0
 47
0.0
 47
0.0
 47
1.0
 47
0.0
 47
0.0
 47
0.0
 47
0.0
 47
1.0
171
     0
 49
0.0008202099737533
 49
0.0
 49
0.0
 49
0.0
 49
0.0
 49
0.0008202099737533
 49
0.0
 49
0.0
 49
0.0
 49
0.0
 49
1.0
 49
0.0
 49
0.0
 49
0.0
 49
0.0
 49
1.0
175
     0
142
0.0008202099737533
142
0.0
142
0.0
142
0.0
142
0.0
142
0.0008202099737533
142
0.0
142
0.0
142
0.0
142
0.0
142
1.0
142
0.0
142
0.0
142
0.0
142
0.0
142
1.0
179
     0
144
0.0008202099737533
144
0.0
144
0.0
144
0.0
144
0.0
144
0.0008202099737533
144
0.0
144
0.0
144
0.0
144
0.0
144
1.0
144
0.0
144
0.0
144
0.0
144
0.0
144
1.0
147
0.0008202099737533
147
0.0
147
0.0
147
0.0
147
0.0
147
0.0008202099737533
147
0.0
147
0.0
147
0.0
147
0.0
147
1.0
147
0.0
147
0.0
147
0.0
147
0.0
147
1.0
  0
MATERIAL
  5
10005
102
{ACAD_XDICTIONARY
360
10006
102
}
102
{ACAD_REACTORS
330
10004
102
}
330
10004
100
AcDbMaterial
  1
ByLayer
 72
     0
 43
0.0008202099737533
 43
0.0
 43
0.0
 43
0.0
 43
0.0
 43
0.0008202099737533
 43
0.0
 43
0.0
 43
0.0
 43
0.0
 43
1.0
 43
0.0
 43
0.0
 43
0.0
 43
0.0
 43
1.0
 77
     0
 47
0.0008202099737533
 47
0.0
 47
0.0
 47
0.0
 47
0.0
 47
0.0008202099737533
 47
0.0
 47
0.0
 47
0.0
 47
0.0
 47
1.0
 47
0.0
 47
0.0
 47
0.0
 47
0.0
 47
1.0
171
     0
 49
0.0008202099737533
 49
0.0
 49
0.0
 49
0.0
 49
0.0
 49
0.0008202099737533
 49
0.0
 49
0.0
 49
0.0
 49
0.0
 49
1.0
 49
0.0
 49
0.0
 49
0.0
 49
0.0
 49
1.0
175
     0
142
0.0008202099737533
142
0.0
142
0.0
142
0.0
142
0.0
142
0.0008202099737533
142
0.0
142
0.0
142
0.0
142
0.0
142
1.0
142
0.0
142
0.0
142
0.0
142
0.0
142
1.0
179
     0
144
0.0008202099737533
144
0.0
144
0.0
144
0.0
144
0.0
144
0.0008202099737533
144
0.0
144
0.0
144
0.0
144
0.0
144
1.0
144
0.0
144
0.0
144
0.0
144
0.0
144
1.0
147
0.0008202099737533
147
0.0
147
0.0
147
0.0
147
0.0
147
0.0008202099737533
147
0.0
147
0.0
147
0.0
147
0.0
147
1.0
147
0.0
147
0.0
147
0.0
147
0.0
147
1.0
  0
MATERIAL
  5
10015
102
{ACAD_XDICTIONARY
360
10016
102
}
102
{ACAD_REACTORS
330
10004
102
}
330
10004
100
AcDbMaterial
  1
Global
 72
     0
 43
0.0008202099737533
 43
0.0
 43
0.0
 43
0.0
 43
0.0
 43
0.0008202099737533
 43
0.0
 43
0.0
 43
0.0
 43
0.0
 43
1.0
 43
0.0
 43
0.0
 43
0.0
 43
0.0
 43
1.0
 77
     0
 47
0.0008202099737533
 47
0.0
 47
0.0
 47
0.0
 47
0.0
 47
0.0008202099737533
 47
0.0
 47
0.0
 47
0.0
 47
0.0
 47
1.0
 47
0.0
 47
0.0
 47
0.0
 47
0.0
 47
1.0
171
     0
 49
0.0008202099737533
 49
0.0
 49
0.0
 49
0.0
 49
0.0
 49
0.0008202099737533
 49
0.0
 49
0.0
 49
0.0
 49
0.0
 49
1.0
 49
0.0
 49
0.0
 49
0.0
 49
0.0
 49
1.0
175
     0
142
0.0008202099737533
142
0.0
142
0.0
142
0.0
142
0.0
142
0.0008202099737533
142
0.0
142
0.0
142
0.0
142
0.0
142
1.0
142
0.0
142
0.0
142
0.0
142
0.0
142
1.0
179
     0
144
0.0008202099737533
144
0.0
144
0.0
144
0.0
144
0.0
144
0.0008202099737533
144
0.0
144
0.0
144
0.0
144
0.0
144
1.0
144
0.0
144
0.0
144
0.0
144
0.0
144
1.0
147
0.0008202099737533
147
0.0
147
0.0
147
0.0
147
0.0
147
0.0008202099737533
147
0.0
147
0.0
147
0.0
147
0.0
147
1.0
147
0.0
147
0.0
147
0.0
147
0.0
147
1.0
  0
MLEADERSTYLE
  5
1004E
102
{ACAD_REACTORS
330
1004D
102
}
330
1004D
100
AcDbMLeaderStyle
179
     2
170
     2
171
     1
172
     0
 90
        2
 40
0.0
 41
0.0
173
     1
 91
-1056964608
340
14
 92
       -2
290
     1
 42
0.09
291
     1
 43
0.36
  3
Standard
 44
0.18
300

342
11
174
     1
178
     6
175
     1
176
     0
 93
-1056964608
 45
0.18
292
     0
297
     0
 46
0.18
 94
-1056964608
 47
1.0
 49
1.0
140
1.0
293
     1
141
0.0
294
     1
177
     0
142
1.0
295
     0
296
     0
143
0.125
271
     0
272
     9
273
     9
298
     0
  0
MLINESTYLE
  5
1003A
102
{ACAD_REACTORS
330
17
102
}
330
17
100
AcDbMlineStyle
  2
STANDARD
 70
     0
  3

 62
   256
 51
90.0
 52
90.0
 71
     2
 49
0.5
 62
   256
  6
BYLAYER
 49
-0.5
 62
   256
  6
BYLAYER
  0
ACDBPLACEHOLDER
  5
10003
102
{ACAD_REACTORS
330
10002
102
}
330
10002
  0
SCALE
  5
1003C
102
{ACAD_REACTORS
330
1003B
102
}
330
1003B
100
AcDbScale
 70
     0
300
1:1
140
1.0
141
1.0
290
     1
  0
SCALE
  5
1003D
102
{ACAD_REACTORS
330
1003B
102
}
330
1003B
100
AcDbScale
 70
     0
300
1/128" = 1'-0"
140
0.0078125
141
12.0
290
     0
  0
SCALE
  5
1003E
102
{ACAD_REACTORS
330
1003B
102
}
330
1003B
100
AcDbScale
 70
     0
300
1/64" = 1'-0"
140
0.015625
141
12.0
290
     0
  0
SCALE
  5
1003F
102
{ACAD_REACTORS
330
1003B
102
}
330
1003B
100
AcDbScale
 70
     0
300
1/32" = 1'-0"
140
0.03125
141
12.0
290
     0
  0
SCALE
  5
10040
102
{ACAD_REACTORS
330
1003B
102
}
330
1003B
100
AcDbScale
 70
     0
300
1/16" = 1'-0"
140
0.0625
141
12.0
290
     0
  0
SCALE
  5
10041
102
{ACAD_REACTORS
330
1003B
102
}
330
1003B
100
AcDbScale
 70
     0
300
3/32" = 1'-0"
140
0.09375
141
12.0
290
     0
  0
SCALE
  5
10042
102
{ACAD_REACTORS
330
1003B
102
}
330
1003B
100
AcDbScale
 70
     0
300
1/8" = 1'-0"
140
0.125
141
12.0
290
     0
  0
SCALE
  5
10043
102
{ACAD_REACTORS
330
1003B
102
}
330
1003B
100
AcDbScale
 70
     0
300
3/16" = 1'-0"
140
0.1875
141
12.0
290
     0
  0
SCALE
  5
10044
102
{ACAD_REACTORS
330
1003B
102
}
330
1003B
100
AcDbScale
 70
     0
300
1/4" = 1'-0"
140
0.25
141
12.0
290
     0
  0
SCALE
  5
10045
102
{ACAD_REACTORS
330
1003B
102
}
330
1003B
100
AcDbScale
 70
     0
300
3/8" = 1'-0"
140
0.375
141
12.0
290
     0
  0
SCALE
  5
10046
102
{ACAD_REACTORS
330
1003B
102
}
330
1003B
100
AcDbScale
 70
     0
300
1/2" = 1'-0"
140
0.5
141
12.0
290
     0
  0
SCALE
  5
10047
102
{ACAD_REACTORS
330
1003B
102
}
330
1003B
100
AcDbScale
 70
     0
300
3/4" = 1'-0"
140
0.75
141
12.0
290
     0
  0
SCALE
  5
10048
102
{ACAD_REACTORS
330
1003B
102
}
330
1003B
100
AcDbScale
 70
     0
300
1" = 1'-0"
140
1.0
141
12.0
290
     0
  0
SCALE
  5
10049
102
{ACAD_REACTORS
330
1003B
102
}
330
1003B
100
AcDbScale
 70
     0
300
1-1/2" = 1'-0"
140
1.5
141
12.0
290
     0
  0
SCALE
  5
1004A
102
{ACAD_REACTORS
330
1003B
102
}
330
1003B
100
AcDbScale
 70
     0
300
3" = 1'-0"
140
3.0
141
12.0
290
     0
  0
SCALE
  5
1004B
102
{ACAD_REACTORS
330
1003B
102
}
330
1003B
100
AcDbScale
 70
     0
300
6" = 1'-0"
140
6.0
141
12.0
290
     0
  0
SCALE
  5
1004C
102
{ACAD_REACTORS
330
1003B
102
}
330
1003B
100
AcDbScale
 70
     0
300
1'-0" = 1'-0"
140
12.0
141
12.0
290
     0
  0
ACDBSECTIONVIEWSTYLE
  5
10050
102
{ACAD_REACTORS
330
1004F
102
}
330
1004F
100
AcDbModelDocViewStyle
 70
     0
  3
Imperial24
290
     0
300
Imperial24
 90
        0
100
AcDbSectionViewStyle
 70
     0
 71
     0
 90
       78
 71
     1
340
11
 62
   256
 40
0.24
340
0
340
0
 62
   256
 40
0.24
300
I, O, Q, S, X, Z
 40
0.48
 90
        3
 40
0.18
 90
        1
 71
     2
340
0
 90
       25
 62
   256
340
0
 90
       50
 62
   256
 40
0.24
 40
0.0
 40
0.24
 71
     3
340
11
 62
   256
 40
0.24
 90
        1
 40
0.75
 90
        1
300
%<\AcVar ViewType \f "%tc1">% %<\AcVar ViewSectionStartId>%-%<\AcVar ViewSectionEndId>%\PSCALE %<\AcVar ViewScale \f "%sn">%
 71
     4
 62
   256
 62
   257
300
ANSI31
 40
1.0
 90
        0
290
     0
290
     0
 90
        6
 40
0.0
 40
1.570796326794896
 40
0.2617993877991494
 40
1.308996938995747
 40
-0.2617993877991494
 40
1.832595714594046
  0
TABLESTYLE
  5
10039
102
{ACAD_XDICTIONARY
360
10068
102
}
102
{ACAD_REACTORS
330
10038
102
}
330
10038
100
AcDbTableStyle
280
     0
  3
Standard
 70
     0
 71
     0
 40
0.06
 41
0.06
280
     0
281
     0
  7
STANDARD
140
0.18
170
     2
 62
     0
 63
     7
283
     0
 90
      512
 91
        0
  1

274
    -2
284
     1
 64
     0
275
    -2
285
     1
 65
     0
276
    -2
286
     1
 66
     0
277
    -2
287
     1
 67
     0
278
    -2
288
     1
 68
     0
279
    -2
289
     1
 69
     0
  7
STANDARD
140
0.25
170
     5
 62
     0
 63
     7
283
     0
 90
      512
 91
        0
  1

274
    -2
284
     1
 64
     0
275
    -2
285
     1
 65
     0
276
    -2
286
     1
 66
     0
277
    -2
287
     1
 67
     0
278
    -2
288
     1
 68
     0
279
    -2
289
     1
 69
     0
  7
STANDARD
140
0.18
170
     5
 62
     0
 63
     7
283
     0
 90
      512
 91
        0
  1

274
    -2
284
     1
 64
     0
275
    -2
285
     1
 65
     0
276
    -2
286
     1
 66
     0
277
    -2
287
     1
 67
     0
278
    -2
288
     1
 68
     0
279
    -2
289
     1
 69
     0
  0
VISUALSTYLE
  5
10023
102
{ACAD_REACTORS
330
1001D
102
}
330
1001D
100
AcDbVisualStyle
  2
2dWireframe
 70
     4
177
     3
291
     0
 70
    58
 90
        0
176
     1
 90
        2
176
     1
 90
        0
176
     1
 90
        0
176
     1
 40
0.6
176
     1
 40
30.0
176
     1
 62
     7
420
 16777215
176
     1
 90
        1
176
     1
 90
        4
176
     1
 62
     7
176
     1
 62
   257
176
     1
 90
        1
176
     1
 90
        1
176
     1
 40
1.0
176
     1
 90
        0
176
     1
 62
   257
176
     1
 40
1.0
176
     1
 90
        1
176
     1
 90
        6
176
     1
 90
        2
176
     1
 62
     7
176
     1
 90
        5
176
     1
 90
        0
176
     1
 90
        0
176
     1
290
     0
176
     1
 90
        1
176
     1
 40
0.0
176
     1
 90
        0
176
     1
290
     1
176
     1
290
     1
176
     1
290
     0
176
     1
290
     0
176
     1
290
     0
176
     1
290
     0
176
     1
290
     0
176
     1
290
     0
176
     1
290
     0
176
     1
 90
       50
176
     1
 40
0.0
176
     1
 40
1.0
176
     1
 90
        0
176
     1
 62
    18
420
        0
176
     1
 90
       50
176
     1
 90
        3
176
     1
 62
     5
420
      255
176
     1
290
     0
176
     1
 90
       50
176
     1
 90
       50
176
     1
 90
       50
176
     1
290
     0
176
     1
 90
       50
176
     1
 62
   256
176
     0
 40
1.0
176
     0
 90
        2
176
     1
  1
strokes_ogs.tif
176
     1
290
     0
176
     1
 40
1.0
176
     1
 40
1.0
176
     1
  0
VISUALSTYLE
  5
10022
102
{ACAD_REACTORS
330
1001D
102
}
330
1001D
100
AcDbVisualStyle
  2
Basic
 70
     7
177
     3
291
     1
 70
    58
 90
        1
176
     1
 90
        0
176
     1
 90
        1
176
     1
 90
        0
176
     1
 40
0.6
176
     1
 40
30.0
176
     1
 62
     7
420
 16777215
176
     1
 90
        0
176
     1
 90
        4
176
     1
 62
     7
176
     1
 62
   257
176
     1
 90
        1
176
     1
 90
        1
176
     1
 40
1.0
176
     1
 90
        8
176
     1
 62
     7
176
     1
 40
1.0
176
     1
 90
        1
176
     1
 90
        6
176
     1
 90
        2
176
     1
 62
     7
176
     1
 90
        5
176
     1
 90
        0
176
     1
 90
        0
176
     1
290
     0
176
     1
 90
        1
176
     1
 40
0.0
176
     1
 90
        0
176
     1
290
     0
176
     1
290
     1
176
     1
290
     1
176
     1
290
     0
176
     1
290
     0
176
     1
290
     0
176
     1
290
     0
176
     1
290
     0
176
     1
290
     0
176
     1
 90
       50
176
     1
 40
0.0
176
     1
 40
1.0
176
     1
 90
        0
176
     1
 62
    18
420
        0
176
     1
 90
       50
176
     1
 90
        3
176
     1
 62
     5
420
      255
176
     1
290
     0
176
     1
 90
       50
176
     1
 90
       50
176
     1
 90
       50
176
     1
290
     0
176
     1
 90
       50
176
     1
 62
   256
176
     0
 40
1.0
176
     0
 90
        2
176
     1
  1
strokes_ogs.tif
176
     1
290
     0
176
     1
 40
1.0
176
     1
 40
1.0
176
     1
  0
VISUALSTYLE
  5
10029
102
{ACAD_REACTORS
330
1001D
102
}
330
1001D
100
AcDbVisualStyle
  2
Brighten
 70
    12
177
     3
291
     1
 70
    58
 90
        2
176
     1
 90
        2
176
     1
 90
        0
176
     1
 90
        0
176
     1
 40
0.6
176
     1
 40
30.0
176
     1
 62
     7
420
 16777215
176
     1
 90
        1
176
     1
 90
        4
176
     1
 62
     7
176
     1
 62
   257
176
     1
 90
        1
176
     1
 90
        1
176
     1
 40
1.0
176
     1
 90
        8
176
     1
 62
     7
176
     1
 40
1.0
176
     1
 90
        1
176
     1
 90
        6
176
     1
 90
        2
176
     1
 62
     7
176
     1
 90
        5
176
     1
 90
        0
176
     1
 90
        0
176
     1
290
     0
176
     1
 90
        1
176
     1
 40
50.0
176
     1
 90
        0
176
     1
290
     0
176
     1
290
     1
176
     1
290
     1
176
     1
290
     0
176
     1
290
     0
176
     1
290
     0
176
     1
290
     0
176
     1
290
     0
176
     1
290
     0
176
     1
 90
       50
176
     1
 40
0.0
176
     1
 40
1.0
176
     1
 90
        0
176
     1
 62
    18
420
        0
176
     1
 90
       50
176
     1
 90
        3
176
     1
 62
     5
420
      255
176
     1
290
     0
176
     1
 90
       50
176
     1
 90
       50
176
     1
 90
       50
176
     1
290
     0
176
     1
 90
       50
176
     1
 62
   256
176
     0
 40
1.0
176
     0
 90
        2
176
     1
  1
strokes_ogs.tif
176
     1
290
     0
176
     1
 40
1.0
176
     1
 40
1.0
176
     1
  0
VISUALSTYLE
  5
1002D
102
{ACAD_REACTORS
330
1001D
102
}
330
1001D
100
AcDbVisualStyle
  2
ColorChange
 70
    16
177
     3
291
     1
 70
    58
 90
        2
176
     1
 90
        2
176
     1
 90
        3
176
     1
 90
        0
176
     1
 40
0.6
176
     1
 40
30.0
176
     1
 62
     8
420
  8421504
176
     1
 90
        1
176
     1
 90
        4
176
     1
 62
     7
176
     1
 62
   257
176
     1
 90
        1
176
     1
 90
        1
176
     1
 40
1.0
176
     1
 90
        8
176
     1
 62
     8
420
  8421504
176
     1
 40
1.0
176
     1
 90
        1
176
     1
 90
        6
176
     1
 90
        2
176
     1
 62
     7
176
     1
 90
        5
176
     1
 90
        0
176
     1
 90
        0
176
     1
290
     0
176
     1
 90
        1
176
     1
 40
0.0
176
     1
 90
        0
176
     1
290
     0
176
     1
290
     1
176
     1
290
     1
176
     1
290
     0
176
     1
290
     0
176
     1
290
     0
176
     1
290
     0
176
     1
290
     0
176
     1
290
     0
176
     1
 90
       50
176
     1
 40
0.0
176
     1
 40
1.0
176
     1
 90
        0
176
     1
 62
    18
420
        0
176
     1
 90
       50
176
     1
 90
        3
176
     1
 62
     5
420
      255
176
     1
290
     0
176
     1
 90
       50
176
     1
 90
       50
176
     1
 90
       50
176
     1
290
     0
176
     1
 90
       50
176
     1
 62
   256
176
     0
 40
1.0
176
     0
 90
        2
176
     1
  1
strokes_ogs.tif
176
     1
290
     0
176
     1
 40
1.0
176
     1
 40
1.0
176
     1
  0
VISUALSTYLE
  5
10026
102
{ACAD_REACTORS
330
1001D
102
}
330
1001D
100
AcDbVisualStyle
  2
Conceptual
 70
     9
177
     3
291
     0
 70
    58
 90
        3
176
     1
 90
        2
176
     1
 90
        0
176
     1
 90
        0
176
     1
 40
0.6
176
     1
 40
30.0
176
     1
 62
     7
420
 16777215
176
     1
 90
        2
176
     1
 90
        2
176
     1
 62
     7
176
     1
 62
   257
176
     1
 90
        1
176
     1
 90
        1
176
     1
 40
179.0
176
     1
 90
        8
176
     1
 62
     7
176
     1
 40
1.0
176
     1
 90
        1
176
     1
 90
        6
176
     1
 90
        2
176
     1
 62
     7
176
     1
 90
        3
176
     1
 90
        0
176
     1
 90
        0
176
     1
290
     0
176
     1
 90
        1
176
     1
 40
0.0
176
     1
 90
        0
176
     1
290
     0
176
     1
290
     1
176
     1
290
     1
176
     1
290
     0
176
     1
290
     0
176
     1
290
     0
176
     1
290
     0
176
     1
290
     0
176
     1
290
     0
176
     1
 90
       50
176
     1
 40
0.0
176
     1
 40
1.0
176
     1
 90
        0
176
     1
 62
    18
420
        0
176
     1
 90
       50
176
     1
 90
        3
176
     1
 62
     5
420
      255
176
     1
290
     0
176
     1
 90
       50
176
     1
 90
       50
176
     1
 90
       50
176
     1
290
     0
176
     1
 90
       50
176
     1
 62
   256
176
     0
 40
1.0
176
     0
 90
        2
176
     1
  1
strokes_ogs.tif
176
     1
290
     0
176
     1
 40
1.0
176
     1
 40
1.0
176
     1
  0
VISUALSTYLE
  5
10028
102
{ACAD_REACTORS
330
1001D
102
}
330
1001D
100
AcDbVisualStyle
  2
Dim
 70
    11
177
     3
291
     1
 70
    58
 90
        2
176
     1
 90
        2
176
     1
 90
        0
176
     1
 90
        0
176
     1
 40
0.6
176
     1
 40
30.0
176
     1
 62
     7
420
 16777215
176
     1
 90
        1
176
     1
 90
        4
176
     1
 62
     7
176
     1
 62
   257
176
     1
 90
        1
176
     1
 90
        1
176
     1
 40
1.0
176
     1
 90
        8
176
     1
 62
     7
176
     1
 40
1.0
176
     1
 90
        1
176
     1
 90
        6
176
     1
 90
        2
176
     1
 62
     7
176
     1
 90
        5
176
     1
 90
        0
176
     1
 90
        0
176
     1
290
     0
176
     1
 90
        1
176
     1
 40
-50.0
176
     1
 90
        0
176
     1
290
     0
176
     1
290
     1
176
     1
290
     1
176
     1
290
     0
176
     1
290
     0
176
     1
290
     0
176
     1
290
     0
176
     1
290
     0
176
     1
290
     0
176
     1
 90
       50
176
     1
 40
0.0
176
     1
 40
1.0
176
     1
 90
        0
176
     1
 62
    18
420
        0
176
     1
 90
       50
176
     1
 90
        3
176
     1
 62
     5
420
      255
176
     1
290
     0
176
     1
 90
       50
176
     1
 90
       50
176
     1
 90
       50
176
     1
290
     0
176
     1
 90
       50
176
     1
 62
   256
176
     0
 40
1.0
176
     0
 90
        2
176
     1
  1
strokes_ogs.tif
176
     1
290
     0
176
     1
 40
1.0
176
     1
 40
1.0
176
     1
  0
VISUALSTYLE
  5
10035
102
{ACAD_REACTORS
330
1001D
102
}
330
1001D
100
AcDbVisualStyle
  2
EdgeColorOff
 70
    22
177
     3
291
     1
 70
    58
 90
        2
176
     0
 90
        2
176
     0
 90
        0
176
     0
 90
        0
176
     0
 40
0.6
176
     0
 40
30.0
176
     0
 62
     7
420
 16777215
176
     0
 90
        1
176
     0
 90
        4
176
     0
 62
     7
176
     0
 62
   257
176
     0
 90
        1
176
     0
 90
        1
176
     0
 40
1.0
176
     0
 90
        8
176
     2
 62
     7
176
     0
 40
1.0
176
     0
 90
        1
176
     0
 90
        6
176
     0
 90
        2
176
     0
 62
     7
176
     0
 90
        5
176
     0
 90
        0
176
     0
 90
        0
176
     0
290
     0
176
     0
 90
        1
176
     0
 40
0.0
176
     0
 90
        0
176
     0
290
     0
176
     1
290
     1
176
     1
290
     1
176
     1
290
     0
176
     1
290
     0
176
     1
290
     0
176
     1
290
     0
176
     1
290
     0
176
     1
290
     0
176
     1
 90
       50
176
     0
 40
0.0
176
     0
 40
1.0
176
     0
 90
        0
176
     0
 62
    18
420
        0
176
     0
 90
       50
176
     0
 90
        3
176
     0
 62
     5
420
      255
176
     0
290
     0
176
     1
 90
       50
176
     0
 90
       50
176
     0
 90
       50
176
     0
290
     0
176
     1
 90
       50
176
     0
 62
   256
176
     0
 40
1.0
176
     0
 90
        2
176
     0
  1
strokes_ogs.tif
176
     0
290
     0
176
     1
 40
1.0
176
     0
 40
1.0
176
     0
  0
VISUALSTYLE
  5
1002C
102
{ACAD_REACTORS
330
1001D
102
}
330
1001D
100
AcDbVisualStyle
  2
Facepattern
 70
    15
177
     3
291
     1
 70
    58
 90
        2
176
     1
 90
        2
176
     1
 90
        0
176
     1
 90
        0
176
     1
 40
0.6
176
     1
 40
30.0
176
     1
 62
     7
420
 16777215
176
     1
 90
        1
176
     1
 90
        4
176
     1
 62
     7
176
     1
 62
   257
176
     1
 90
        1
176
     1
 90
        1
176
     1
 40
1.0
176
     1
 90
        8
176
     1
 62
     7
176
     1
 40
1.0
176
     1
 90
        1
176
     1
 90
        6
176
     1
 90
        2
176
     1
 62
     7
176
     1
 90
        5
176
     1
 90
        0
176
     1
 90
        0
176
     1
290
     0
176
     1
 90
        1
176
     1
 40
0.0
176
     1
 90
        0
176
     1
290
     0
176
     1
290
     1
176
     1
290
     1
176
     1
290
     0
176
     1
290
     0
176
     1
290
     0
176
     1
290
     0
176
     1
290
     0
176
     1
290
     0
176
     1
 90
       50
176
     1
 40
0.0
176
     1
 40
1.0
176
     1
 90
        0
176
     1
 62
    18
420
        0
176
     1
 90
       50
176
     1
 90
        3
176
     1
 62
     5
420
      255
176
     1
290
     0
176
     1
 90
       50
176
     1
 90
       50
176
     1
 90
       50
176
     1
290
     0
176
     1
 90
       50
176
     1
 62
   256
176
     0
 40
1.0
176
     0
 90
        2
176
     1
  1
strokes_ogs.tif
176
     1
290
     0
176
     1
 40
1.0
176
     1
 40
1.0
176
     1
  0
VISUALSTYLE
  5
1001E
102
{ACAD_REACTORS
330
1001D
102
}
330
1001D
100
AcDbVisualStyle
  2
Flat
 70
     0
177
     3
291
     1
 70
    58
 90
        2
176
     1
 90
        1
176
     1
 90
        1
176
     1
 90
        2
176
     1
 40
0.6
176
     1
 40
30.0
176
     1
 62
     7
420
 16777215
176
     1
 90
        0
176
     1
 90
        0
176
     1
 62
     7
176
     1
 62
   257
176
     1
 90
        1
176
     1
 90
        1
176
     1
 40
1.0
176
     1
 90
        8
176
     1
 62
     7
176
     1
 40
1.0
176
     1
 90
        1
176
     1
 90
        6
176
     1
 90
        2
176
     1
 62
     7
176
     1
 90
        5
176
     1
 90
        0
176
     1
 90
        0
176
     1
290
     0
176
     1
 90
       13
176
     1
 40
0.0
176
     1
 90
        0
176
     1
290
     0
176
     1
290
     1
176
     1
290
     1
176
     1
290
     0
176
     1
290
     0
176
     1
290
     0
176
     1
290
     0
176
     1
290
     0
176
     1
290
     0
176
     1
 90
       50
176
     1
 40
0.0
176
     1
 40
1.0
176
     1
 90
        0
176
     1
 62
    18
420
        0
176
     1
 90
       50
176
     1
 90
        3
176
     1
 62
     5
420
      255
176
     1
290
     0
176
     1
 90
       50
176
     1
 90
       50
176
     1
 90
       50
176
     1
290
     0
176
     1
 90
       50
176
     1
 62
   256
176
     0
 40
1.0
176
     0
 90
        2
176
     1
  1
strokes_ogs.tif
176
     1
290
     0
176
     1
 40
1.0
176
     1
 40
1.0
176
     1
  0
VISUALSTYLE
  5
1001F
102
{ACAD_REACTORS
330
1001D
102
}
330
1001D
100
AcDbVisualStyle
  2
FlatWithEdges
 70
     1
177
     3
291
     1
 70
    58
 90
        2
176
     1
 90
        1
176
     1
 90
        1
176
     1
 90
        2
176
     1
 40
0.6
176
     1
 40
30.0
176
     1
 62
     7
420
 16777215
176
     1
 90
        1
176
     1
 90
        0
176
     1
 62
     7
176
     1
 62
   257
176
     1
 90
        1
176
     1
 90
        1
176
     1
 40
1.0
176
     1
 90
        0
176
     1
 62
   257
176
     1
 40
1.0
176
     1
 90
        1
176
     1
 90
        6
176
     1
 90
        2
176
     1
 62
     7
176
     1
 90
        5
176
     1
 90
        0
176
     1
 90
        0
176
     1
290
     0
176
     1
 90
       13
176
     1
 40
0.0
176
     1
 90
        0
176
     1
290
     0
176
     1
290
     1
176
     1
290
     1
176
     1
290
     0
176
     1
290
     0
176
     1
290
     0
176
     1
290
     0
176
     1
290
     0
176
     1
290
     0
176
     1
 90
       50
176
     1
 40
0.0
176
     1
 40
1.0
176
     1
 90
        0
176
     1
 62
    18
420
        0
176
     1
 90
       50
176
     1
 90
        3
176
     1
 62
     5
420
      255
176
     1
290
     0
176
     1
 90
       50
176
     1
 90
       50
176
     1
 90
       50
176
     1
290
     0
176
     1
 90
       50
176
     1
 62
   256
176
     0
 40
1.0
176
     0
 90
        2
176
     1
  1
strokes_ogs.tif
176
     1
290
     0
176
     1
 40
1.0
176
     1
 40
1.0
176
     1
  0
VISUALSTYLE
  5
10020
102
{ACAD_REACTORS
330
1001D
102
}
330
1001D
100
AcDbVisualStyle
  2
Gouraud
 70
     2
177
     3
291
     1
 70
    58
 90
        2
176
     1
 90
        2
176
     1
 90
        1
176
     1
 90
        2
176
     1
 40
0.6
176
     1
 40
30.0
176
     1
 62
     7
420
 16777215
176
     1
 90
        0
176
     1
 90
        0
176
     1
 62
     7
176
     1
 62
   257
176
     1
 90
        1
176
     1
 90
        1
176
     1
 40
1.0
176
     1
 90
        0
176
     1
 62
     7
176
     1
 40
1.0
176
     1
 90
        1
176
     1
 90
        6
176
     1
 90
        2
176
     1
 62
     7
176
     1
 90
        5
176
     1
 90
        0
176
     1
 90
        0
176
     1
290
     0
176
     1
 90
       13
176
     1
 40
0.0
176
     1
 90
        0
176
     1
290
     0
176
     1
290
     1
176
     1
290
     1
176
     1
290
     0
176
     1
290
     0
176
     1
290
     0
176
     1
290
     0
176
     1
290
     0
176
     1
290
     0
176
     1
 90
       50
176
     1
 40
0.0
176
     1
 40
1.0
176
     1
 90
        0
176
     1
 62
    18
420
        0
176
     1
 90
       50
176
     1
 90
        3
176
     1
 62
     5
420
      255
176
     1
290
     0
176
     1
 90
       50
176
     1
 90
       50
176
     1
 90
       50
176
     1
290
     0
176
     1
 90
       50
176
     1
 62
   256
176
     0
 40
1.0
176
     0
 90
        2
176
     1
  1
strokes_ogs.tif
176
     1
290
     0
176
     1
 40
1.0
176
     1
 40
1.0
176
     1
  0
VISUALSTYLE
  5
10021
102
{ACAD_REACTORS
330
1001D
102
}
330
1001D
100
AcDbVisualStyle
  2
GouraudWithEdges
 70
     3
177
     3
291
     1
 70
    58
 90
        2
176
     1
 90
        2
176
     1
 90
        1
176
     1
 90
        2
176
     1
 40
0.6
176
     1
 40
30.0
176
     1
 62
     7
420
 16777215
176
     1
 90
        1
176
     1
 90
        0
176
     1
 62
     7
176
     1
 62
   257
176
     1
 90
        1
176
     1
 90
        1
176
     1
 40
1.0
176
     1
 90
        0
176
     1
 62
   257
176
     1
 40
1.0
176
     1
 90
        1
176
     1
 90
        6
176
     1
 90
        2
176
     1
 62
     7
176
     1
 90
        5
176
     1
 90
        0
176
     1
 90
        0
176
     1
290
     0
176
     1
 90
       13
176
     1
 40
0.0
176
     1
 90
        0
176
     1
290
     0
176
     1
290
     1
176
     1
290
     1
176
     1
290
     0
176
     1
290
     0
176
     1
290
     0
176
     1
290
     0
176
     1
290
     0
176
     1
290
     0
176
     1
 90
       50
176
     1
 40
0.0
176
     1
 40
1.0
176
     1
 90
        0
176
     1
 62
    18
420
        0
176
     1
 90
       50
176
     1
 90
        3
176
     1
 62
     5
420
      255
176
     1
290
     0
176
     1
 90
       50
176
     1
 90
       50
176
     1
 90
       50
176
     1
290
     0
176
     1
 90
       50
176
     1
 62
   256
176
     0
 40
1.0
176
     0
 90
        2
176
     1
  1
strokes_ogs.tif
176
     1
290
     0
176
     1
 40
1.0
176
     1
 40
1.0
176
     1
  0
VISUALSTYLE
  5
10025
102
{ACAD_REACTORS
330
1001D
102
}
330
1001D
100
AcDbVisualStyle
  2
Hidden
 70
     6
177
     3
291
     0
 70
    58
 90
        1
176
     1
 90
        2
176
     1
 90
        2
176
     1
 90
        0
176
     1
 40
0.6
176
     1
 40
30.0
176
     1
 62
     7
420
 16777215
176
     1
 90
        2
176
     1
 90
        2
176
     1
 62
     7
176
     1
 62
   257
176
     1
 90
        2
176
     1
 90
        1
176
     1
 40
40.0
176
     1
 90
        0
176
     1
 62
   257
176
     1
 40
1.0
176
     1
 90
        1
176
     1
 90
        6
176
     1
 90
        2
176
     1
 62
     7
176
     1
 90
        3
176
     1
 90
        0
176
     1
 90
        0
176
     1
290
     0
176
     1
 90
        1
176
     1
 40
0.0
176
     1
 90
        0
176
     1
290
     0
176
     1
290
     1
176
     1
290
     1
176
     1
290
     0
176
     1
290
     0
176
     1
290
     0
176
     1
290
     0
176
     1
290
     0
176
     1
290
     0
176
     1
 90
       50
176
     1
 40
0.0
176
     1
 40
1.0
176
     1
 90
        0
176
     1
 62
    18
420
        0
176
     1
 90
       50
176
     1
 90
        3
176
     1
 62
     5
420
      255
176
     1
290
     0
176
     1
 90
       50
176
     1
 90
       50
176
     1
 90
       50
176
     1
290
     0
176
     1
 90
       50
176
     1
 62
   256
176
     0
 40
1.0
176
     0
 90
        2
176
     1
  1
strokes_ogs.tif
176
     1
290
     0
176
     1
 40
1.0
176
     1
 40
1.0
176
     1
  0
VISUALSTYLE
  5
10033
102
{ACAD_REACTORS
330
1001D
102
}
330
1001D
100
AcDbVisualStyle
  2
JitterOff
 70
    20
177
     3
291
     1
 70
    58
 90
        2
176
     0
 90
        2
176
     0
 90
        0
176
     0
 90
        0
176
     0
 40
0.6
176
     0
 40
30.0
176
     0
 62
     7
420
 16777215
176
     0
 90
        1
176
     0
 90
        4
176
     0
 62
     7
176
     0
 62
   257
176
     0
 90
        1
176
     0
 90
        1
176
     0
 40
1.0
176
     0
 90
       10
176
     2
 62
     7
176
     0
 40
1.0
176
     0
 90
        1
176
     0
 90
        6
176
     0
 90
        2
176
     0
 62
     7
176
     0
 90
        5
176
     0
 90
        0
176
     0
 90
        0
176
     0
290
     0
176
     0
 90
        1
176
     0
 40
0.0
176
     0
 90
        0
176
     0
290
     0
176
     1
290
     1
176
     1
290
     1
176
     1
290
     0
176
     1
290
     0
176
     1
290
     0
176
     1
290
     0
176
     1
290
     0
176
     1
290
     0
176
     1
 90
       50
176
     0
 40
0.0
176
     0
 40
1.0
176
     0
 90
        0
176
     0
 62
    18
420
        0
176
     0
 90
       50
176
     0
 90
        3
176
     0
 62
     5
420
      255
176
     0
290
     0
176
     1
 90
       50
176
     0
 90
       50
176
     0
 90
       50
176
     0
290
     0
176
     1
 90
       50
176
     0
 62
   256
176
     0
 40
1.0
176
     0
 90
        2
176
     0
  1
strokes_ogs.tif
176
     0
290
     0
176
     1
 40
1.0
176
     0
 40
1.0
176
     0
  0
VISUALSTYLE
  5
1002B
102
{ACAD_REACTORS
330
1001D
102
}
330
1001D
100
AcDbVisualStyle
  2
Linepattern
 70
    14
177
     3
291
     1
 70
    58
 90
        2
176
     1
 90
        2
176
     1
 90
        0
176
     1
 90
        0
176
     1
 40
0.6
176
     1
 40
30.0
176
     1
 62
     7
420
 16777215
176
     1
 90
        1
176
     1
 90
        4
176
     1
 62
     7
176
     1
 62
   257
176
     1
 90
        7
176
     1
 90
        7
176
     1
 40
1.0
176
     1
 90
        8
176
     1
 62
     7
176
     1
 40
1.0
176
     1
 90
        1
176
     1
 90
        6
176
     1
 90
        2
176
     1
 62
     7
176
     1
 90
        5
176
     1
 90
        0
176
     1
 90
        0
176
     1
290
     0
176
     1
 90
        1
176
     1
 40
0.0
176
     1
 90
        0
176
     1
290
     0
176
     1
290
     1
176
     1
290
     1
176
     1
290
     0
176
     1
290
     0
176
     1
290
     0
176
     1
290
     0
176
     1
290
     0
176
     1
290
     0
176
     1
 90
       50
176
     1
 40
0.0
176
     1
 40
1.0
176
     1
 90
        0
176
     1
 62
    18
420
        0
176
     1
 90
       50
176
     1
 90
        3
176
     1
 62
     5
420
      255
176
     1
290
     0
176
     1
 90
       50
176
     1
 90
       50
176
     1
 90
       50
176
     1
290
     0
176
     1
 90
       50
176
     1
 62
   256
176
     0
 40
1.0
176
     0
 90
        2
176
     1
  1
strokes_ogs.tif
176
     1
290
     0
176
     1
 40
1.0
176
     1
 40
1.0
176
     1
  0
VISUALSTYLE
  5
10034
102
{ACAD_REACTORS
330
1001D
102
}
330
1001D
100
AcDbVisualStyle
  2
OverhangOff
 70
    21
177
     3
291
     1
 70
    58
 90
        2
176
     0
 90
        2
176
     0
 90
        0
176
     0
 90
        0
176
     0
 40
0.6
176
     0
 40
30.0
176
     0
 62
     7
420
 16777215
176
     0
 90
        1
176
     0
 90
        4
176
     0
 62
     7
176
     0
 62
   257
176
     0
 90
        1
176
     0
 90
        1
176
     0
 40
1.0
176
     0
 90
        9
176
     2
 62
     7
176
     0
 40
1.0
176
     0
 90
        1
176
     0
 90
        6
176
     0
 90
        2
176
     0
 62
     7
176
     0
 90
        5
176
     0
 90
        0
176
     0
 90
        0
176
     0
290
     0
176
     0
 90
        1
176
     0
 40
0.0
176
     0
 90
        0
176
     0
290
     0
176
     1
290
     1
176
     1
290
     1
176
     1
290
     0
176
     1
290
     0
176
     1
290
     0
176
     1
290
     0
176
     1
290
     0
176
     1
290
     0
176
     1
 90
       50
176
     0
 40
0.0
176
     0
 40
1.0
176
     0
 90
        0
176
     0
 62
    18
420
        0
176
     0
 90
       50
176
     0
 90
        3
176
     0
 62
     5
420
      255
176
     0
290
     0
176
     1
 90
       50
176
     0
 90
       50
176
     0
 90
       50
176
     0
290
     0
176
     1
 90
       50
176
     0
 62
   256
176
     0
 40
1.0
176
     0
 90
        2
176
     0
  1
strokes_ogs.tif
176
     0
290
     0
176
     1
 40
1.0
176
     0
 40
1.0
176
     0
  0
VISUALSTYLE
  5
10027
102
{ACAD_REACTORS
330
1001D
102
}
330
1001D
100
AcDbVisualStyle
  2
Realistic
 70
     8
177
     3
291
     0
 70
    58
 90
        2
176
     1
 90
        3
176
     1
 90
        0
176
     1
 90
        2
176
     1
 40
0.6
176
     1
 40
30.0
176
     1
 62
     7
420
 16777215
176
     1
 90
        0
176
     1
 90
        0
176
     1
 62
     7
176
     1
 62
   257
176
     1
 90
        1
176
     1
 90
        1
176
     1
 40
1.0
176
     1
 90
        8
176
     1
 62
   257
176
     1
 40
1.0
176
     1
 90
        1
176
     1
 90
        6
176
     1
 90
        2
176
     1
 62
     7
176
     1
 90
        3
176
     1
 90
        0
176
     1
 90
        0
176
     1
290
     0
176
     1
 90
       13
176
     1
 40
0.0
176
     1
 90
        0
176
     1
290
     0
176
     1
290
     1
176
     1
290
     1
176
     1
290
     0
176
     1
290
     0
176
     1
290
     0
176
     1
290
     0
176
     1
290
     0
176
     1
290
     0
176
     1
 90
       50
176
     1
 40
0.0
176
     1
 40
1.0
176
     1
 90
        0
176
     1
 62
    18
420
        0
176
     1
 90
       50
176
     1
 90
        3
176
     1
 62
     5
420
      255
176
     1
290
     0
176
     1
 90
       50
176
     1
 90
       50
176
     1
 90
       50
176
     1
290
     0
176
     1
 90
       50
176
     1
 62
   256
176
     0
 40
1.0
176
     0
 90
        2
176
     1
  1
strokes_ogs.tif
176
     1
290
     0
176
     1
 40
1.0
176
     1
 40
1.0
176
     1
  0
VISUALSTYLE
  5
10032
102
{ACAD_REACTORS
330
1001D
102
}
330
1001D
100
AcDbVisualStyle
  2
Shaded
 70
    27
177
     3
291
     0
 70
    58
 90
        2
176
     1
 90
        2
176
     1
 90
        1
176
     1
 90
        2
176
     1
 40
0.6
176
     1
 40
30.0
176
     1
 62
     7
420
 16777215
176
     1
 90
        0
176
     1
 90
        4
176
     1
 62
     7
176
     1
 62
   257
176
     1
 90
        1
176
     1
 90
        1
176
     1
 40
1.0
176
     1
 90
        8
176
     1
 62
   257
176
     1
 40
1.0
176
     1
 90
        1
176
     1
 90
        6
176
     1
 90
        2
176
     1
 62
     8
420
  7895160
176
     1
 90
        3
176
     1
 90
        0
176
     1
 90
        0
176
     1
290
     0
176
     1
 90
        5
176
     1
 40
0.0
176
     1
 90
        0
176
     1
290
     0
176
     1
290
     1
176
     1
290
     1
176
     1
290
     0
176
     1
290
     0
176
     1
290
     0
176
     1
290
     0
176
     1
290
     0
176
     1
290
     0
176
     1
 90
       50
176
     1
 40
0.0
176
     1
 40
1.0
176
     1
 90
        0
176
     1
 62
    18
420
        0
176
     1
 90
       50
176
     1
 90
        3
176
     1
 62
     5
420
      255
176
     1
290
     0
176
     1
 90
       50
176
     1
 90
       50
176
     1
 90
       50
176
     1
290
     0
176
     1
 90
       50
176
     1
 62
   256
176
     0
 40
1.0
176
     0
 90
        2
176
     1
  1
strokes_ogs.tif
176
     1
290
     0
176
     1
 40
1.0
176
     1
 40
1.0
176
     1
  0
VISUALSTYLE
  5
10031
102
{ACAD_REACTORS
330
1001D
102
}
330
1001D
100
AcDbVisualStyle
  2
Shaded with edges
 70
    26
177
     3
291
     0
 70
    58
 90
        2
176
     1
 90
        2
176
     1
 90
        1
176
     1
 90
        2
176
     1
 40
0.6
176
     1
 40
30.0
176
     1
 62
     7
420
 16777215
176
     1
 90
        1
176
     1
 90
        2
176
     1
 62
     7
176
     1
 62
   257
176
     1
 90
        2
176
     1
 90
        1
176
     1
 40
1.0
176
     1
 90
        8
176
     1
 62
   257
176
     1
 40
1.0
176
     1
 90
        1
176
     1
 90
        6
176
     1
 90
        2
176
     1
 62
     7
176
     1
 90
        3
176
     1
 90
        0
176
     1
 90
        0
176
     1
290
     0
176
     1
 90
        5
176
     1
 40
0.0
176
     1
 90
        0
176
     1
290
     0
176
     1
290
     1
176
     1
290
     1
176
     1
290
     0
176
     1
290
     0
176
     1
290
     0
176
     1
290
     0
176
     1
290
     0
176
     1
290
     0
176
     1
 90
       50
176
     1
 40
0.0
176
     1
 40
1.0
176
     1
 90
        0
176
     1
 62
    18
420
        0
176
     1
 90
       50
176
     1
 90
        3
176
     1
 62
     5
420
      255
176
     1
290
     0
176
     1
 90
       50
176
     1
 90
       50
176
     1
 90
       50
176
     1
290
     0
176
     1
 90
       50
176
     1
 62
   256
176
     0
 40
1.0
176
     0
 90
        2
176
     1
  1
strokes_ogs.tif
176
     1
290
     0
176
     1
 40
1.0
176
     1
 40
1.0
176
     1
  0
VISUALSTYLE
  5
1002E
102
{ACAD_REACTORS
330
1001D
102
}
330
1001D
100
AcDbVisualStyle
  2
Shades of Gray
 70
    23
177
     3
291
     0
 70
    58
 90
        2
176
     1
 90
        2
176
     1
 90
        3
176
     1
 90
        0
176
     1
 40
0.6
176
     1
 40
30.0
176
     1
 62
     7
420
 16777215
176
     1
 90
        2
176
     1
 90
        2
176
     1
 62
     7
176
     1
 62
     7
176
     1
 90
        1
176
     1
 90
        1
176
     1
 40
40.0
176
     1
 90
        8
176
     1
 62
     7
176
     1
 40
1.0
176
     1
 90
        1
176
     1
 90
        6
176
     1
 90
        2
176
     1
 62
     7
176
     1
 90
        3
176
     1
 90
        0
176
     1
 90
        0
176
     1
290
     0
176
     1
 90
        1
176
     1
 40
0.0
176
     1
 90
        0
176
     1
290
     0
176
     1
290
     1
176
     1
290
     1
176
     1
290
     0
176
     1
290
     0
176
     1
290
     0
176
     1
290
     0
176
     1
290
     0
176
     1
290
     0
176
     1
 90
       50
176
     1
 40
0.0
176
     1
 40
1.0
176
     1
 90
        0
176
     1
 62
    18
420
        0
176
     1
 90
       50
176
     1
 90
        3
176
     1
 62
     5
420
      255
176
     1
290
     0
176
     1
 90
       50
176
     1
 90
       50
176
     1
 90
       50
176
     1
290
     0
176
     1
 90
       50
176
     1
 62
   256
176
     0
 40
1.0
176
     0
 90
        2
176
     1
  1
strokes_ogs.tif
176
     1
290
     0
176
     1
 40
1.0
176
     1
 40
1.0
176
     1
  0
VISUALSTYLE
  5
1002F
102
{ACAD_REACTORS
330
1001D
102
}
330
1001D
100
AcDbVisualStyle
  2
Sketchy
 70
    24
177
     3
291
     0
 70
    58
 90
        1
176
     1
 90
        2
176
     1
 90
        2
176
     1
 90
        0
176
     1
 40
0.6
176
     1
 40
30.0
176
     1
 62
     7
420
 16777215
176
     1
 90
        2
176
     1
 90
        2
176
     1
 62
     7
176
     1
 62
     7
176
     1
 90
        1
176
     1
 90
        1
176
     1
 40
40.0
176
     1
 90
       11
176
     1
 62
     7
176
     1
 40
1.0
176
     1
 90
        1
176
     1
 90
        6
176
     1
 90
        2
176
     1
 62
     7
176
     1
 90
        6
176
     1
 90
        0
176
     1
 90
        0
176
     1
290
     0
176
     1
 90
        1
176
     1
 40
0.0
176
     1
 90
        0
176
     1
290
     0
176
     1
290
     1
176
     1
290
     1
176
     1
290
     0
176
     1
290
     0
176
     1
290
     0
176
     1
290
     0
176
     1
290
     0
176
     1
290
     0
176
     1
 90
       50
176
     1
 40
0.0
176
     1
 40
1.0
176
     1
 90
        0
176
     1
 62
    18
420
        0
176
     1
 90
       50
176
     1
 90
        3
176
     1
 62
     5
420
      255
176
     1
290
     0
176
     1
 90
       50
176
     1
 90
       50
176
     1
 90
       50
176
     1
290
     0
176
     1
 90
       50
176
     1
 62
   256
176
     0
 40
1.0
176
     0
 90
        2
176
     1
  1
strokes_ogs.tif
176
     1
290
     0
176
     1
 40
1.0
176
     1
 40
1.0
176
     1
  0
VISUALSTYLE
  5
1002A
102
{ACAD_REACTORS
330
1001D
102
}
330
1001D
100
AcDbVisualStyle
  2
Thicken
 70
    13
177
     3
291
     1
 70
    58
 90
        2
176
     1
 90
        2
176
     1
 90
        0
176
     1
 90
        0
176
     1
 40
0.6
176
     1
 40
30.0
176
     1
 62
     7
420
 16777215
176
     1
 90
        1
176
     1
 90
        4
176
     1
 62
     7
176
     1
 62
   257
176
     1
 90
        1
176
     1
 90
        1
176
     1
 40
1.0
176
     1
 90
       12
176
     1
 62
     7
176
     1
 40
1.0
176
     1
 90
        1
176
     1
 90
        6
176
     1
 90
        2
176
     1
 62
     7
176
     1
 90
        5
176
     1
 90
        0
176
     1
 90
        0
176
     1
290
     0
176
     1
 90
        1
176
     1
 40
0.0
176
     1
 90
        0
176
     1
290
     0
176
     1
290
     1
176
     1
290
     1
176
     1
290
     0
176
     1
290
     0
176
     1
290
     0
176
     1
290
     0
176
     1
290
     0
176
     1
290
     0
176
     1
 90
       50
176
     1
 40
0.0
176
     1
 40
1.0
176
     1
 90
        0
176
     1
 62
    18
420
        0
176
     1
 90
       50
176
     1
 90
        3
176
     1
 62
     5
420
      255
176
     1
290
     0
176
     1
 90
       50
176
     1
 90
       50
176
     1
 90
       50
176
     1
290
     0
176
     1
 90
       50
176
     1
 62
   256
176
     0
 40
1.0
176
     0
 90
        2
176
     1
  1
strokes_ogs.tif
176
     1
290
     0
176
     1
 40
1.0
176
     1
 40
1.0
176
     1
  0
VISUALSTYLE
  5
10024
102
{ACAD_REACTORS
330
1001D
102
}
330
1001D
100
AcDbVisualStyle
  2
Wireframe
 70
     5
177
     3
291
     0
 70
    58
 90
        0
176
     1
 90
        2
176
     1
 90
        0
176
     1
 90
        0
176
     1
 40
0.6
176
     1
 40
30.0
176
     1
 62
     7
420
 16777215
176
     1
 90
        1
176
     1
 90
        4
176
     1
 62
     7
176
     1
 62
   257
176
     1
 90
        1
176
     1
 90
        1
176
     1
 40
1.0
176
     1
 90
        0
176
     1
 62
   257
176
     1
 40
1.0
176
     1
 90
        1
176
     1
 90
        6
176
     1
 90
        2
176
     1
 62
     7
176
     1
 90
        3
176
     1
 90
        0
176
     1
 90
        0
176
     1
290
     0
176
     1
 90
        1
176
     1
 40
0.0
176
     1
 90
        0
176
     1
290
     0
176
     1
290
     1
176
     1
290
     1
176
     1
290
     0
176
     1
290
     0
176
     1
290
     0
176
     1
290
     0
176
     1
290
     0
176
     1
290
     0
176
     1
 90
       50
176
     1
 40
0.0
176
     1
 40
1.0
176
     1
 90
        0
176
     1
 62
    18
420
        0
176
     1
 90
       50
176
     1
 90
        3
176
     1
 62
     5
420
      255
176
     1
290
     0
176
     1
 90
       50
176
     1
 90
       50
176
     1
 90
       50
176
     1
290
     0
176
     1
 90
       50
176
     1
 62
   256
176
     0
 40
1.0
176
     0
 90
        2
176
     1
  1
strokes_ogs.tif
176
     1
290
     0
176
     1
 40
1.0
176
     1
 40
1.0
176
     1
  0
VISUALSTYLE
  5
10030
102
{ACAD_REACTORS
330
1001D
102
}
330
1001D
100
AcDbVisualStyle
  2
X-Ray
 70
    25
177
     3
291
     0
 70
    58
 90
        2
176
     1
 90
        2
176
     1
 90
        1
176
     1
 90
        1
176
     1
 40
0.5
176
     1
 40
30.0
176
     1
 62
     7
420
 16777215
176
     1
 90
        1
176
     1
 90
        0
176
     1
 62
     7
176
     1
 62
   257
176
     1
 90
        1
176
     1
 90
        1
176
     1
 40
1.0
176
     1
 90
        8
176
     1
 62
     7
176
     1
 40
1.0
176
     1
 90
        1
176
     1
 90
        6
176
     1
 90
        2
176
     1
 62
     7
176
     1
 90
        3
176
     1
 90
        0
176
     1
 90
        0
176
     1
290
     0
176
     1
 90
       13
176
     1
 40
0.0
176
     1
 90
        0
176
     1
290
     0
176
     1
290
     1
176
     1
290
     1
176
     1
290
     0
176
     1
290
     0
176
     1
290
     0
176
     1
290
     0
176
     1
290
     0
176
     1
290
     0
176
     1
 90
       50
176
     1
 40
0.0
176
     1
 40
1.0
176
     1
 90
        0
176
     1
 62
    18
420
        0
176
     1
 90
       50
176
     1
 90
        3
176
     1
 62
     5
420
      255
176
     1
290
     0
176
     1
 90
       50
176
     1
 90
       50
176
     1
 90
       50
176
     1
290
     0
176
     1
 90
       50
176
     1
 62
   256
176
     0
 40
1.0
176
     0
 90
        2
176
     1
  1
strokes_ogs.tif
176
     1
290
     0
176
     1
 40
1.0
176
     1
 40
1.0
176
     1
  0
DICTIONARYVAR
  5
10064
102
{ACAD_REACTORS
330
1005E
102
}
330
1005E
100
DictionaryVariables
280
     0
  1
1:1
  0
DICTIONARYVAR
  5
10060
102
{ACAD_REACTORS
330
1005E
102
}
330
1005E
100
DictionaryVariables
280
     0
  1
STANDARD
  0
DICTIONARYVAR
  5
1005F
102
{ACAD_REACTORS
330
1005E
102
}
330
1005E
100
DictionaryVariables
280
     0
  1
STANDARD
  0
DICTIONARYVAR
  5
10061
102
{ACAD_REACTORS
330
1005E
102
}
330
1005E
100
DictionaryVariables
280
     0
  1
Imperial24
  0
DICTIONARYVAR
  5
10062
102
{ACAD_REACTORS
330
1005E
102
}
330
1005E
100
DictionaryVariables
280
     0
  1
Imperial24
  0
DICTIONARYVAR
  5
10066
102
{ACAD_REACTORS
330
1005E
102
}
330
1005E
100
DictionaryVariables
280
     0
  1
1
  0
DICTIONARYVAR
  5
10067
102
{ACAD_REACTORS
330
1005E
102
}
330
1005E
100
DictionaryVariables
280
     0
  1
15
  0
DICTIONARYVAR
  5
10065
102
{ACAD_REACTORS
330
1005E
102
}
330
1005E
100
DictionaryVariables
280
     0
  1
0
  0
DICTIONARYVAR
  5
10063
102
{ACAD_REACTORS
330
1005E
102
}
330
1005E
100
DictionaryVariables
280
     0
  1
0
  0
DICTIONARY
  5
1000E
330
1000D
100
AcDbDictionary
280
     1
281
     1
  3
BUMPTILE
360
10010
  3
DIFFUSETILE
360
1000F
  3
OPACITYTILE
360
10013
  3
REFLECTIONTILE
360
10012
  3
REFRACTIONTILE
360
10014
  3
SPECULARTILE
360
10011
  0
DICTIONARY
  5
10006
330
10005
100
AcDbDictionary
280
     1
281
     1
  3
BUMPTILE
360
10008
  3
DIFFUSETILE
360
10007
  3
OPACITYTILE
360
1000B
  3
REFLECTIONTILE
360
1000A
  3
REFRACTIONTILE
360
1000C
  3
SPECULARTILE
360
10009
  0
DICTIONARY
  5
10016
330
10015
100
AcDbDictionary
280
     1
281
     1
  3
BUMPTILE
360
10018
  3
DIFFUSETILE
360
10017
  3
OPACITYTILE
360
1001B
  3
REFLECTIONTILE
360
1001A
  3
REFRACTIONTILE
360
1001C
  3
SPECULARTILE
360
10019
  0
DICTIONARY
  5
10068
330
10039
100
AcDbDictionary
280
     1
281
     1
  3
ACAD_ROUNDTRIP_2008_TABLESTYLE_CELLSTYLEMAP
360
10069
  0
XRECORD
  5
10010
102
{ACAD_REACTORS
330
1000E
102
}
330
1000E
100
AcDbXrecord
280
     1
270
     1
271
     1
  0
XRECORD
  5
1000F
102
{ACAD_REACTORS
330
1000E
102
}
330
1000E
100
AcDbXrecord
280
     1
270
     1
271
     1
  0
XRECORD
  5
10013
102
{ACAD_REACTORS
330
1000E
102
}
330
1000E
100
AcDbXrecord
280
     1
270
     1
271
     1
  0
XRECORD
  5
10012
102
{ACAD_REACTORS
330
1000E
102
}
330
1000E
100
AcDbXrecord
280
     1
270
     1
271
     1
  0
XRECORD
  5
10014
102
{ACAD_REACTORS
330
1000E
102
}
330
1000E
100
AcDbXrecord
280
     1
270
     1
271
     1
  0
XRECORD
  5
10011
102
{ACAD_REACTORS
330
1000E
102
}
330
1000E
100
AcDbXrecord
280
     1
270
     1
271
     1
  0
XRECORD
  5
10008
102
{ACAD_REACTORS
330
10006
102
}
330
10006
100
AcDbXrecord
280
     1
270
     1
271
     1
  0
XRECORD
  5
10007
102
{ACAD_REACTORS
330
10006
102
}
330
10006
100
AcDbXrecord
280
     1
270
     1
271
     1
  0
XRECORD
  5
1000B
102
{ACAD_REACTORS
330
10006
102
}
330
10006
100
AcDbXrecord
280
     1
270
     1
271
     1
  0
XRECORD
  5
1000A
102
{ACAD_REACTORS
330
10006
102
}
330
10006
100
AcDbXrecord
280
     1
270
     1
271
     1
  0
XRECORD
  5
1000C
102
{ACAD_REACTORS
330
10006
102
}
330
10006
100
AcDbXrecord
280
     1
270
     1
271
     1
  0
XRECORD
  5
10009
102
{ACAD_REACTORS
330
10006
102
}
330
10006
100
AcDbXrecord
280
     1
270
     1
271
     1
  0
XRECORD
  5
10018
102
{ACAD_REACTORS
330
10016
102
}
330
10016
100
AcDbXrecord
280
     1
270
     1
271
     1
  0
XRECORD
  5
10017
102
{ACAD_REACTORS
330
10016
102
}
330
10016
100
AcDbXrecord
280
     1
270
     1
271
     1
  0
XRECORD
  5
1001B
102
{ACAD_REACTORS
330
10016
102
}
330
10016
100
AcDbXrecord
280
     1
270
     1
271
     1
  0
XRECORD
  5
1001A
102
{ACAD_REACTORS
330
10016
102
}
330
10016
100
AcDbXrecord
280
     1
270
     1
271
     1
  0
XRECORD
  5
1001C
102
{ACAD_REACTORS
330
10016
102
}
330
10016
100
AcDbXrecord
280
     1
270
     1
271
     1
  0
XRECORD
  5
10019
102
{ACAD_REACTORS
330
10016
102
}
330
10016
100
AcDbXrecord
280
     1
270
     1
271
     1
  0
CELLSTYLEMAP
  5
10069
102
{ACAD_REACTORS
330
10068
102
}
330
10068
100
AcDbCellStyleMap
 90
        3
300
CELLSTYLE
  1
TABLEFORMAT_BEGIN
 90
        5
170
     1
 91
        0
 92
    32768
 62
   257
 93
        1
300
CONTENTFORMAT
  1
CONTENTFORMAT_BEGIN
 90
        0
 91
        0
 92
      512
 93
        0
300

 40
0.0
140
1.0
 94
        5
 62
     0
340
11
144
0.25
309
CONTENTFORMAT_END
171
     0
 94
        0
309
TABLEFORMAT_END
  1
CELLSTYLE_BEGIN
 90
        1
 91
        1
300
_TITLE
309
CELLSTYLE_END
300
CELLSTYLE
  1
TABLEFORMAT_BEGIN
 90
        5
170
     1
 91
        0
 92
        0
 62
   257
 93
        1
300
CONTENTFORMAT
  1
CONTENTFORMAT_BEGIN
 90
        0
 91
        0
 92
      512
 93
        0
300

 40
0.0
140
1.0
 94
        5
 62
     0
340
11
144
0.18
309
CONTENTFORMAT_END
171
     0
 94
        0
309
TABLEFORMAT_END
  1
CELLSTYLE_BEGIN
 90
        2
 91
        1
300
_HEADER
309
CELLSTYLE_END
300
CELLSTYLE
  1
TABLEFORMAT_BEGIN
 90
        5
170
     1
 91
        0
 92
        0
 62
   257
 93
        1
300
CONTENTFORMAT
  1
CONTENTFORMAT_BEGIN
 90
        0
 91
        0
 92
      512
 93
        0
300

 40
0.0
140
1.0
 94
        2
 62
     0
340
11
144
0.18
309
CONTENTFORMAT_END
171
     0
 94
        0
309
TABLEFORMAT_END
  1
CELLSTYLE_BEGIN
 90
        3
 91
        2
300
_DATA
309
CELLSTYLE_END
  0
ENDSEC
  0
EOF
