0
SECTION
2
HEADER
9
$INSUNITS
70
4
9
$ACADVER
1
AC1014
9
$HANDSEED
5
FFFF
0
ENDSEC
0
SECTION
2
TABLES
0
TABLE
2
VPORT
5
8
100
AcDbSymbolTable
0
ENDTAB
0
TABLE
2
LTYPE
5
5
100
AcDbSymbolTable
0
LTYPE
5
14
100
AcDbSymbolTableRecord
100
AcDbLinetypeTableRecord
2
BYBLOCK
70
0
0
LTYPE
5
15
100
AcDbSymbolTableRecord
100
AcDbLinetypeTableRecord
2
BYLAYER
70
0
0
ENDTAB
0
TABLE
2
LAYER
5
2
100
AcDbSymbolTable
70
2
0
LAYER
5
50
100
AcDbSymbolTableRecord
100
AcDbLayerTableRecord
2
0
70
0
6
CONTINUOUS
0
ENDTAB
0
TABLE
2
STYLE
5
3
100
AcDbSymbolTable
70
1
0
STYLE
5
11
100
AcDbSymbolTableRecord
100
AcDbTextStyleTableRecord
2
STANDARD
70
0
0
ENDTAB
0
TABLE
2
VIEW
5
6
100
AcDbSymbolTable
70
0
0
ENDTAB
0
TABLE
2
UCS
5
7
100
AcDbSymbolTable
70
0
0
ENDTAB
0
TABLE
2
APPID
5
9
100
AcDbSymbolTable
70
2
0
APPID
5
12
100
AcDbSymbolTableRecord
100
AcDbRegAppTableRecord
2
ACAD
70
0
0
ENDTAB
0
TABLE
2
DIMSTYLE
5
A
100
AcDbSymbolTable
70
1
0
ENDTAB
0
TABLE
2
BLOCK_RECORD
5
1
100
AcDbSymbolTable
70
1
0
BLOCK_RECORD
5
1F
100
AcDbSymbolTableRecord
100
AcDbBlockTableRecord
2
*MODEL_SPACE
0
BLOCK_RECORD
5
1B
100
AcDbSymbolTableRecord
100
AcDbBlockTableRecord
2
*PAPER_SPACE
0
ENDTAB
0
ENDSEC
0
SECTION
2
BLOCKS
0
BLOCK
5
20
100
AcDbEntity
100
AcDbBlockBegin
2
*MODEL_SPACE
0
ENDBLK
5
21
100
AcDbEntity
100
AcDbBlockEnd
0
BLOCK
5
1C
100
AcDbEntity
100
AcDbBlockBegin
2
*PAPER_SPACE
0
ENDBLK
5
1D
100
AcDbEntity
100
AcDbBlockEnd
0
ENDSEC
0
SECTION
2
ENTITIES
0
LINE
5
100
100
AcDbEntity
8
0
100
AcDbLine
10
-54.481196543266464
20
-102.83120332309188
30
0
11
-54.924387914665651
21
-103.78990334941783
31
0
0
ARC
5
101
100
AcDbEntity
8
0
100
AcDbCircle
10
-49
20
-91.000000000000014
30
0
40
12.549199999999985
210
0
220
0
230
1
100
AcDbArc
50
237.0534041855627
51
242.94659581443727
0
ARC
5
102
100
AcDbEntity
8
0
100
AcDbCircle
10
-45.610871542022196
20
-103.60140583170488
30
0
40
0.50000000000001055
210
0
220
0
230
1
100
AcDbArc
50
105.05340418556244
51
192.81033006042611
0
ARC
5
103
100
AcDbEntity
8
0
100
AcDbCircle
10
-54.935047462900179
20
-102.62139545205834
30
0
40
0.49999999999999922
210
0
220
0
230
1
100
AcDbArc
50
-24.810330060428623
51
62.946595814434644
0
SPLINE
5
104
100
AcDbEntity
8
0
100
AcDbSpline
70
0
71
5
72
81
73
75
74
0
42
0.000000001
43
0.0000000001
44
0.0000000001
40
0
40
0
40
0
40
0
40
0
40
0
40
0.014285714285714284
40
0.028571428571428567
40
0.042857142857142858
40
0.057142857142857134
40
0.071428571428571438
40
0.085714285714285715
40
0.10000000000000001
40
0.1142857142857143
40
0.12857142857142859
40
0.14285714285714288
40
0.15714285714285714
40
0.17142857142857146
40
0.18571428571428572
40
0.20000000000000004
40
0.21428571428571436
40
0.22857142857142865
40
0.24285714285714291
40
0.25714285714285717
40
0.27142857142857146
40
0.2857142857142857
40
0.30000000000000004
40
0.31428571428571433
40
0.32857142857142863
40
0.34285714285714292
40
0.35714285714285721
40
0.3714285714285715
40
0.38571428571428573
40
0.40000000000000008
40
0.41428571428571442
40
0.42857142857142871
40
0.44285714285714295
40
0.4571428571428573
40
0.47142857142857147
40
0.48571428571428582
40
0.50000000000000011
40
0.51428571428571435
40
0.52857142857142858
40
0.54285714285714282
40
0.55714285714285705
40
0.57142857142857129
40
0.58571428571428552
40
0.59999999999999976
40
0.61428571428571399
40
0.62857142857142823
40
0.64285714285714246
40
0.6571428571428567
40
0.67142857142857093
40
0.68571428571428517
40
0.6999999999999994
40
0.71428571428571364
40
0.72857142857142776
40
0.74285714285714211
40
0.75714285714285634
40
0.77142857142857058
40
0.78571428571428481
40
0.79999999999999905
40
0.81428571428571328
40
0.82857142857142752
40
0.84285714285714175
40
0.85714285714285599
40
0.87142857142857022
40
0.88571428571428445
40
0.89999999999999869
40
0.91428571428571281
40
0.92857142857142716
40
0.94285714285714117
40
0.95714285714285563
40
0.97142857142856975
40
0.98571428571428399
40
1
40
1
40
1
40
1
40
1
40
1
10
-54.924387914665651
20
-103.78990334941783
30
0
10
-54.928001975553997
20
-103.79772119175951
30
0
10
-54.934993766030701
20
-103.81343815349524
30
0
10
-54.94477246687984
20
-103.83725742462993
30
0
10
-54.956463341125456
20
-103.86948277656811
30
0
10
-54.969240289563459
20
-103.91041733024643
30
0
10
-54.980699946888798
20
-103.95184560612485
30
0
10
-54.991353965572173
20
-103.99360865544818
30
0
10
-55.001579066820696
20
-104.03558537763125
30
0
10
-55.011515387494839
20
-104.07772275094675
30
0
10
-55.021146233077332
20
-104.12001337498754
30
0
10
-55.030360776727591
20
-104.1624779885542
30
0
10
-55.039020181413754
20
-104.20514693903854
30
0
10
-55.047029199964626
20
-104.24804019364888
30
0
10
-55.054383713801215
20
-104.29115394826849
30
0
10
-55.061133943075134
20
-104.33447044319571
30
0
10
-55.067361055464147
20
-104.37796408218401
30
0
10
-55.073150202008478
20
-104.42160855641919
30
0
10
-55.078561178041312
20
-104.46538457268716
30
0
10
-55.083613076814125
20
-104.50928388641096
30
0
10
-55.088300700950079
20
-104.55330491963565
30
0
10
-55.09260462505209
20
-104.59745006183257
30
0
10
-55.096502951301304
20
-104.64172252318039
30
0
10
-55.09998432374595
20
-104.68612285092871
30
0
10
-55.103053411859584
20
-104.73064745336544
30
0
10
-55.105723944602758
20
-104.77529044148167
30
0
10
-55.108014565801724
20
-104.82004471860883
30
0
10
-55.109943936893053
20
-104.86490327133734
30
0
10
-55.111525254174381
20
-104.90986061478051
30
0
10
-55.11276439494744
20
-104.95491327685478
30
0
10
-55.113662910845527
20
-105.00005899843327
30
0
10
-55.114219847611999
20
-105.04529624435001
30
0
10
-55.114433872867494
20
-105.09062363316666
30
0
10
-55.114305681784771
20
-105.13603929256095
30
0
10
-55.113838722683049
20
-105.18154066276392
30
0
10
-55.113037946395039
20
-105.22712482677181
30
0
10
-55.111909054934848
20
-105.27278870756919
30
0
10
-55.110457621049747
20
-105.31852929980698
30
0
10
-55.108688092602222
20
-105.36434393231609
30
0
10
-55.106603517977618
20
-105.41023033832613
30
0
10
-55.104206087025261
20
-105.45618650828072
30
0
10
-55.101497466920286
20
-105.50221059731538
30
0
10
-55.098479192418367
20
-105.54830081863702
30
0
10
-55.095153110011104
20
-105.59445532186101
30
0
10
-55.091521513772044
20
-105.64067215640861
30
0
10
-55.087586916821884
20
-105.68694933501521
30
0
10
-55.083351916596712
20
-105.73328487190085
30
0
10
-55.078819036358759
20
-105.77967682693651
30
0
10
-55.073990549629634
20
-105.82612335628383
30
0
10
-55.06886842269104
20
-105.87262272514894
30
0
10
-55.063454416329229
20
-105.91917327031038
30
0
10
-55.057750151055451
20
-105.96577337392546
30
0
10
-55.05175718333453
20
-106.01242143531529
30
0
10
-55.045477093049044
20
-106.05911583636316
30
0
10
-55.03891151943094
20
-106.10585493349203
30
0
10
-55.032062110207022
20
-106.15263709212928
30
0
10
-55.024930492113555
20
-106.19946071238434
30
0
10
-55.017518237236509
20
-106.24632425466451
30
0
10
-55.009826827445785
20
-106.29322627303537
30
0
10
-55.001857640530645
20
-106.34016541888315
30
0
10
-54.993611984488275
20
-106.38714038095692
30
0
10
-54.985091124438696
20
-106.43414983616225
30
0
10
-54.976296312198336
20
-106.4811924006091
30
0
10
-54.967228822034642
20
-106.52826656884159
30
0
10
-54.957889969351726
20
-106.57537069305985
30
0
10
-54.948281064869875
20
-106.62250310180366
30
0
10
-54.938403381050804
20
-106.66966219681865
30
0
10
-54.928258115700515
20
-106.71684655557971
30
0
10
-54.917846358515845
20
-106.76405503790804
30
0
10
-54.907169058712995
20
-106.81128687198847
30
0
10
-54.896226998524057
20
-106.85854157457752
30
0
10
-54.88726201357737
20
-106.89636342541
30
0
10
-54.880419565366779
20
-106.924739942945
30
0
10
-54.875805190973651
20
-106.94366212178451
30
0
10
-54.873484818213768
20
-106.95312433632398
30
0
0
LINE
5
105
100
AcDbEntity
8
0
100
AcDbLine
10
-51.724786062799815
20
-104.82951701119231
30
0
11
-51.519825677175326
21
-103.7934110453352
31
0
0
ARC
5
106
100
AcDbEntity
8
0
100
AcDbCircle
10
-51.029330597870548
20
-103.89043978941551
30
0
40
0.49999999999998457
210
0
220
-0
230
1
100
AcDbArc
50
81.053404185563281
51
168.81033006042907
0
LINE
5
107
100
AcDbEntity
8
0
100
AcDbLine
10
-49.195138281365757
20
-104.03774553630353
30
0
11
-49.210075315149389
21
-105.0938237612385
31
0
0
SPLINE
5
108
100
AcDbEntity
8
0
100
AcDbSpline
70
0
71
5
72
81
73
75
74
0
42
0.000000001
43
0.0000000001
44
0.0000000001
40
0
40
0
40
0
40
0
40
0
40
0
40
0.014285714285714284
40
0.028571428571428567
40
0.042857142857142858
40
0.057142857142857134
40
0.071428571428571438
40
0.085714285714285715
40
0.10000000000000001
40
0.1142857142857143
40
0.12857142857142859
40
0.14285714285714288
40
0.15714285714285714
40
0.17142857142857146
40
0.18571428571428572
40
0.20000000000000004
40
0.21428571428571436
40
0.22857142857142865
40
0.24285714285714291
40
0.25714285714285717
40
0.27142857142857146
40
0.2857142857142857
40
0.30000000000000004
40
0.31428571428571433
40
0.32857142857142863
40
0.34285714285714292
40
0.35714285714285721
40
0.3714285714285715
40
0.38571428571428573
40
0.40000000000000008
40
0.41428571428571442
40
0.42857142857142871
40
0.44285714285714295
40
0.4571428571428573
40
0.47142857142857147
40
0.48571428571428582
40
0.50000000000000011
40
0.51428571428571435
40
0.52857142857142858
40
0.54285714285714282
40
0.55714285714285705
40
0.57142857142857129
40
0.58571428571428552
40
0.59999999999999976
40
0.61428571428571399
40
0.62857142857142823
40
0.64285714285714246
40
0.6571428571428567
40
0.67142857142857093
40
0.68571428571428517
40
0.6999999999999994
40
0.71428571428571364
40
0.72857142857142776
40
0.74285714285714211
40
0.75714285714285634
40
0.77142857142857058
40
0.78571428571428481
40
0.79999999999999905
40
0.81428571428571328
40
0.82857142857142752
40
0.84285714285714175
40
0.85714285714285599
40
0.87142857142857022
40
0.88571428571428445
40
0.89999999999999869
40
0.91428571428571281
40
0.92857142857142716
40
0.94285714285714117
40
0.95714285714285563
40
0.97142857142856975
40
0.98571428571428399
40
1
40
1
40
1
40
1
40
1
40
1
10
-49.210075315149389
20
-105.0938237612385
30
0
10
-49.210197121107427
20
-105.10243568659189
30
0
10
-49.210191775282475
20
-105.11963766298109
30
0
10
-49.209436892642991
20
-105.14537500588759
30
0
10
-49.207009806236684
20
-105.17956943671692
30
0
10
-49.202032546495829
20
-105.22216186540678
30
0
10
-49.195651066532335
20
-105.2646695412048
30
0
10
-49.188397434419784
20
-105.30715536500597
30
0
10
-49.180665058151249
20
-105.34966193223997
30
0
10
-49.172603524998408
20
-105.39219780394487
30
0
10
-49.164200593777622
20
-105.43474942924038
30
0
10
-49.155346583901945
20
-105.47729067662658
30
0
10
-49.145902318035304
20
-105.51979279971701
30
0
10
-49.135772662161841
20
-105.56223529894947
30
0
10
-49.124955401046044
20
-105.60461302391349
30
0
10
-49.113503636600775
20
-105.64693017669012
30
0
10
-49.101501930120726
20
-105.68919638781341
30
0
10
-49.089038771710712
20
-105.73142225703386
30
0
10
-49.076176634382847
20
-105.7736144800765
30
0
10
-49.062936314061872
20
-105.81577329107051
30
0
10
-49.049313704519868
20
-105.85789513451874
30
0
10
-49.035290087888015
20
-105.89997429229103
30
0
10
-49.020844153816078
20
-105.94200479038622
30
0
10
-49.005965305539441
20
-105.98398250985997
30
0
10
-48.990659269715366
20
-106.02590606876601
30
0
10
-48.974940983649091
20
-106.06777567129839
30
0
10
-48.958830365798619
20
-106.10959241745498
30
0
10
-48.942347316845165
20
-106.15135749045749
30
0
10
-48.925506123110942
20
-106.1930712470303
30
0
10
-48.908313566001823
20
-106.2347329057813
30
0
10
-48.890771981875076
20
-106.27634103400148
30
0
10
-48.872881123382115
20
-106.31789384111573
30
0
10
-48.854640335215407
20
-106.35938952318998
30
0
10
-48.836051013988964
20
-106.40082665252481
30
0
10
-48.817117351050982
20
-106.44220429321277
30
0
10
-48.797845055664489
20
-106.48352179412339
30
0
10
-48.778240588413524
20
-106.52477866348124
30
0
10
-48.758310262641622
20
-106.56597442240385
30
0
10
-48.738059228135725
20
-106.60710843976553
30
0
10
-48.717491191712966
20
-106.64817988465853
30
0
10
-48.696608971260474
20
-106.68918781195359
30
0
10
-48.675414840192502
20
-106.73013121438447
30
0
10
-48.65391092733239
20
-106.77100908387584
30
0
10
-48.632099672153323
20
-106.81182048105292
30
0
10
-48.609983963767647
20
-106.85256455705726
30
0
10
-48.587566906318713
20
-106.89324051861047
30
0
10
-48.564851680371902
20
-106.93384760808473
30
0
10
-48.541841380163561
20
-106.9743850793873
30
0
10
-48.518538832615626
20
-107.01485217281245
30
0
10
-48.494946539620074
20
-107.05524810330601
30
0
10
-48.471066786228285
20
-107.09557206761585
30
0
10
-48.446901710886863
20
-107.1358232468904
30
0
10
-48.422453386551908
20
-107.17600081190803
30
0
10
-48.397723914665377
20
-107.21610392704171
30
0
10
-48.372715461243146
20
-107.25613175754482
30
0
10
-48.347430196399145
20
-107.29608348035183
30
0
10
-48.32187025696502
20
-107.33595829554318
30
0
10
-48.296037705321524
20
-107.37575543605598
30
0
10
-48.269934483338695
20
-107.41547418369414
30
0
10
-48.243562398220305
20
-107.45511386683506
30
0
10
-48.216923178215012
20
-107.49467381960187
30
0
10
-48.190018517218469
20
-107.53415334785828
30
0
10
-48.162850121700686
20
-107.57355169651746
30
0
10
-48.135419768086948
20
-107.61286800856823
30
0
10
-48.107729328279312
20
-107.65210131369361
30
0
10
-48.079780679524468
20
-107.6912506180567
30
0
10
-48.051575634342633
20
-107.73031497913624
30
0
10
-48.02311586557714
20
-107.7692935845825
30
0
10
-47.99440283246809
20
-107.80818583600993
30
0
10
-47.96543771609312
20
-107.84699141441131
30
0
10
-47.936221427609652
20
-107.88571019648418
30
0
10
-47.91264797369125
20
-107.91661578862943
30
0
10
-47.894855316724957
20
-107.93975595291161
30
0
10
-47.882943532457361
20
-107.95516538828863
30
0
10
-47.876975137084685
20
-107.96286577077336
30
0
0
ARC
5
109
100
AcDbEntity
8
0
100
AcDbCircle
10
-44.33494201259532
20
-103.18683119658888
30
0
40
0.49999999999999911
210
0
220
-0
230
1
100
AcDbArc
50
23.189669939571083
51
110.94659581443695
0
LINE
5
110
100
AcDbEntity
8
0
100
AcDbLine
10
-39.441639865339148
20
-99.868970580308797
30
0
11
-38.666815623652234
21
-100.5867252226862
31
0
0
SPLINE
5
111
100
AcDbEntity
8
0
100
AcDbSpline
70
0
71
5
72
81
73
75
74
0
42
0.000000001
43
0.0000000001
44
0.0000000001
40
0
40
0
40
0
40
0
40
0
40
0
40
0.014285714285714284
40
0.028571428571428567
40
0.042857142857142858
40
0.057142857142857134
40
0.071428571428571438
40
0.085714285714285715
40
0.10000000000000001
40
0.1142857142857143
40
0.12857142857142859
40
0.14285714285714288
40
0.15714285714285714
40
0.17142857142857146
40
0.18571428571428572
40
0.20000000000000004
40
0.21428571428571436
40
0.22857142857142865
40
0.24285714285714291
40
0.25714285714285717
40
0.27142857142857146
40
0.2857142857142857
40
0.30000000000000004
40
0.31428571428571433
40
0.32857142857142863
40
0.34285714285714292
40
0.35714285714285721
40
0.3714285714285715
40
0.38571428571428573
40
0.40000000000000008
40
0.41428571428571442
40
0.42857142857142871
40
0.44285714285714295
40
0.4571428571428573
40
0.47142857142857147
40
0.48571428571428582
40
0.50000000000000011
40
0.51428571428571435
40
0.52857142857142858
40
0.54285714285714282
40
0.55714285714285705
40
0.57142857142857129
40
0.58571428571428552
40
0.59999999999999976
40
0.61428571428571399
40
0.62857142857142823
40
0.64285714285714246
40
0.6571428571428567
40
0.67142857142857093
40
0.68571428571428517
40
0.6999999999999994
40
0.71428571428571364
40
0.72857142857142776
40
0.74285714285714211
40
0.75714285714285634
40
0.77142857142857058
40
0.78571428571428481
40
0.79999999999999905
40
0.81428571428571328
40
0.82857142857142752
40
0.84285714285714175
40
0.85714285714285599
40
0.87142857142857022
40
0.88571428571428445
40
0.89999999999999869
40
0.91428571428571281
40
0.92857142857142716
40
0.94285714285714117
40
0.95714285714285563
40
0.97142857142856975
40
0.98571428571428399
40
1
40
1
40
1
40
1
40
1
40
1
10
-45.864244606226606
20
-104.74216278324872
30
0
10
-45.862334942059576
20
-104.75056119248819
30
0
10
-45.85876367906895
20
-104.76738837588066
30
0
10
-45.854150971230744
20
-104.79272024501984
30
0
10
-45.849415598045567
20
-104.82667206513253
30
0
10
-45.845428628854364
20
-104.86936857755332
30
0
10
-45.8428328154219
20
-104.91227414293704
30
0
10
-45.841094638807107
20
-104.95533966447044
30
0
10
-45.839820431837666
20
-104.99852501264985
30
0
10
-45.838862096142776
20
-105.04180746049147
30
0
10
-45.838234422793285
20
-105.08517629831957
30
0
10
-45.838050128636496
20
-105.12862876954635
30
0
10
-45.838451326359561
20
-105.17216569255822
30
0
10
-45.839535333170495
20
-105.21578679523166
30
0
10
-45.841305386727143
20
-105.25948750027837
30
0
10
-45.843708671859069
20
-105.30326087744538
30
0
10
-45.846660472838145
20
-105.34709876553471
30
0
10
-45.850072029468585
20
-105.39099313453953
30
0
10
-45.853880841803999
20
-105.43493754499771
30
0
10
-45.858066519682261
20
-105.47892790220618
30
0
10
-45.862633818829828
20
-105.52296158209678
30
0
10
-45.867602236951264
20
-105.56703688315795
30
0
10
-45.872993860779204
20
-105.61115239260576
30
0
10
-45.878819911890218
20
-105.65530628469588
30
0
10
-45.885075076091042
20
-105.69949601704195
30
0
10
-45.891744700038032
20
-105.74371868373547
30
0
10
-45.898809071836901
20
-105.78797121945644
30
0
10
-45.906248479678418
20
-105.83225064398604
30
0
10
-45.914048875263624
20
-105.87655433596005
30
0
10
-45.922203787837191
20
-105.92088012112796
30
0
10
-45.930711229973831
20
-105.96522611233294
30
0
10
-45.939571815898432
20
-106.009590609555
30
0
10
-45.948786561657506
20
-106.05397198452629
30
0
10
-45.958354397991769
20
-106.09836855037383
30
0
10
-45.968271419730186
20
-106.14277852021154
30
0
10
-45.97853217774842
20
-106.18720007011532
30
0
10
-45.989130454887572
20
-106.23163137582523
30
0
10
-46.000060175331079
20
-106.27607065630559
30
0
10
-46.011316433045621
20
-106.32051622352139
30
0
10
-46.022895774972319
20
-106.36496649403159
30
0
10
-46.03479564130506
20
-106.40941995748864
30
0
10
-46.047014017731591
20
-106.45387515596806
30
0
10
-46.059549031539134
20
-106.49833066081609
30
0
10
-46.072398491869805
20
-106.5427850459906
30
0
10
-46.085559749232914
20
-106.58723688050242
30
0
10
-46.099029932249934
20
-106.63168474302061
30
0
10
-46.112806087378139
20
-106.67612723119657
30
0
10
-46.126885343119106
20
-106.72056297191349
30
0
10
-46.1412650922776
20
-106.76499063431706
30
0
10
-46.155943050855939
20
-106.80940893033572
30
0
10
-46.170917150742106
20
-106.85381659918143
30
0
10
-46.186185470468494
20
-106.89821239528854
30
0
10
-46.201746154782917
20
-106.942595076564
30
0
10
-46.217597321901643
20
-106.98696338872693
30
0
10
-46.233737026694982
20
-107.03131606493187
30
0
10
-46.25016331759619
20
-107.07565184890723
30
0
10
-46.266874270781102
20
-107.11996951394127
30
0
10
-46.283868028418297
20
-107.16426788094026
30
0
10
-46.301142840393595
20
-107.20854584366492
30
0
10
-46.318697078633193
20
-107.25280236943043
30
0
10
-46.336529191098364
20
-107.29703644758779
30
0
10
-46.354637665228218
20
-107.34124704698857
30
0
10
-46.373020988834583
20
-107.38543307425132
30
0
10
-46.391677602493928
20
-107.42959332175306
30
0
10
-46.410605876950044
20
-107.47372645119022
30
0
10
-46.429804182608891
20
-107.51783110014205
30
0
10
-46.44927094251932
20
-107.56190596983956
30
0
10
-46.469004689290671
20
-107.60594991788108
30
0
10
-46.489004119982091
20
-107.64996205556415
30
0
10
-46.509268145650665
20
-107.6939418252928
30
0
10
-46.529795900685933
20
-107.73788891701872
30
0
10
-46.546428584158583
20
-107.77302034448745
30
0
10
-46.559021318199143
20
-107.79935414205468
30
0
10
-46.567468999637157
20
-107.81690344350508
30
0
10
-46.57170597170883
20
-107.82567645333067
30
0
0
SPLINE
5
112
100
AcDbEntity
8
0
100
AcDbSpline
70
0
71
5
72
81
73
75
74
0
42
0.000000001
43
0.0000000001
44
0.0000000001
40
0
40
0
40
0
40
0
40
0
40
0
40
0.014285714285714284
40
0.028571428571428567
40
0.042857142857142858
40
0.057142857142857134
40
0.071428571428571438
40
0.085714285714285715
40
0.10000000000000001
40
0.1142857142857143
40
0.12857142857142859
40
0.14285714285714288
40
0.15714285714285714
40
0.17142857142857146
40
0.18571428571428572
40
0.20000000000000004
40
0.21428571428571436
40
0.22857142857142865
40
0.24285714285714291
40
0.25714285714285717
40
0.27142857142857146
40
0.2857142857142857
40
0.30000000000000004
40
0.31428571428571433
40
0.32857142857142863
40
0.34285714285714292
40
0.35714285714285721
40
0.3714285714285715
40
0.38571428571428573
40
0.40000000000000008
40
0.41428571428571442
40
0.42857142857142871
40
0.44285714285714295
40
0.4571428571428573
40
0.47142857142857147
40
0.48571428571428582
40
0.50000000000000011
40
0.51428571428571435
40
0.52857142857142858
40
0.54285714285714282
40
0.55714285714285705
40
0.57142857142857129
40
0.58571428571428552
40
0.59999999999999976
40
0.61428571428571399
40
0.62857142857142823
40
0.64285714285714246
40
0.6571428571428567
40
0.67142857142857093
40
0.68571428571428517
40
0.6999999999999994
40
0.71428571428571364
40
0.72857142857142776
40
0.74285714285714211
40
0.75714285714285634
40
0.77142857142857058
40
0.78571428571428481
40
0.79999999999999905
40
0.81428571428571328
40
0.82857142857142752
40
0.84285714285714175
40
0.85714285714285599
40
0.87142857142857022
40
0.88571428571428445
40
0.89999999999999869
40
0.91428571428571281
40
0.92857142857142716
40
0.94285714285714117
40
0.95714285714285563
40
0.97142857142856975
40
0.98571428571428399
40
1
40
1
40
1
40
1
40
1
40
1
10
-38.666815623652234
20
-100.5867252226862
30
0
10
-38.660497219983007
20
-100.59257824498727
30
0
10
-38.647710083186297
20
-100.60408464115699
30
0
10
-38.628078394905508
20
-100.6207452978947
30
0
10
-38.601042942775805
20
-100.64182216142581
30
0
10
-38.566060162962017
20
-100.66662323423986
30
0
10
-38.530200760092214
20
-100.69032405730773
30
0
10
-38.493774012724444
20
-100.71336212317914
30
0
10
-38.457011507614524
20
-100.73605829287402
30
0
10
-38.420006976093134
20
-100.75852945985197
30
0
10
-38.382762297476141
20
-100.78075745983196
30
0
10
-38.345223500614942
20
-100.80264329886691
30
0
10
-38.307318820422523
20
-100.82406431295271
30
0
10
-38.268999833960763
20
-100.84493608685332
30
0
10
-38.230268886448691
20
-100.86525352803054
30
0
10
-38.191158387246666
20
-100.88505891063726
30
0
10
-38.151717762023537
20
-100.90442152004712
30
0
10
-38.111998345067029
20
-100.92341420984113
30
0
10
-38.072036963088223
20
-100.94208788682951
30
0
10
-38.031847357284974
20
-100.96045816205913
30
0
10
-37.991429422303838
20
-100.97851960491593
30
0
10
-37.950774882844698
20
-100.99625447913674
30
0
10
-37.909873919048046
20
-101.013642950658
30
0
10
-37.868722501266525
20
-101.03067438843716
30
0
10
-37.827325488367983
20
-101.04735212350744
30
0
10
-37.785692723614815
20
-101.0636873930824
30
0
10
-37.74383671759913
20
-101.07969573550332
30
0
10
-37.701769907170771
20
-101.09539273158823
30
0
10
-37.659501586647245
20
-101.11078923683888
30
0
10
-37.61703687436237
20
-101.1258897679685
30
0
10
-37.574378398354533
20
-101.14069510255942
30
0
10
-37.531527323771812
20
-101.15520385866733
30
0
10
-37.488484552712258
20
-101.16941434223619
30
0
10
-37.445252080680369
20
-101.18332663583523
30
0
10
-37.401833407750374
20
-101.19694322799876
30
0
10
-37.358232838049105
20
-101.21026792584476
30
0
10
-37.31445506001144
20
-101.22330520146086
30
0
10
-37.270504653967784
20
-101.23605942614074
30
0
10
-37.226385534816025
20
-101.24853400461629
30
0
10
-37.182100800385768
20
-101.26073113560373
30
0
10
-37.137653038579373
20
-101.27265228078649
30
0
10
-37.09304451915267
20
-101.28429845564781
30
0
10
-37.048277415712448
20
-101.29567056767769
30
0
10
-37.003354058676372
20
-101.30676980119368
30
0
10
-36.958277012062752
20
-101.31759773522738
30
0
10
-36.913048942469572
20
-101.32815614580011
30
0
10
-36.867672541137686
20
-101.33844688958061
30
0
10
-36.822150432970361
20
-101.348471766801
30
0
10
-36.776485074118874
20
-101.35823236993147
30
0
10
-36.730678722084747
20
-101.36773003293627
30
0
10
-36.684733502798416
20
-101.37696591645891
30
0
10
-36.638651455685249
20
-101.38594106175631
30
0
10
-36.592434584055404
20
-101.39465645447746
30
0
10
-36.546084915039899
20
-101.4031130971545
30
0
10
-36.499604518323935
20
-101.41131204089635
30
0
10
-36.452995457653984
20
-101.41925434767361
30
0
10
-36.406259757305619
20
-101.42694107021107
30
0
10
-36.359399367319732
20
-101.434373227891
30
0
10
-36.31241612078469
20
-101.44155178323712
30
0
10
-36.265311726068738
20
-101.44847762986029
30
0
10
-36.218087834438883
20
-101.45515160654099
30
0
10
-36.170746095176362
20
-101.46157450762115
30
0
10
-36.123288211271316
20
-101.46774709600344
30
0
10
-36.075716008267726
20
-101.47367011837673
30
0
10
-36.028031459798591
20
-101.47934431656648
30
0
10
-35.980236560551894
20
-101.48477042063223
30
0
10
-35.932333223770144
20
-101.48994914686917
30
0
10
-35.884323172497552
20
-101.49488119487408
30
0
10
-35.836207827843431
20
-101.49956724867565
30
0
10
-35.787988217171566
20
-101.50400797252803
30
0
10
-35.739665041796798
20
-101.5082039610478
30
0
10
-35.700923991401368
20
-101.51136534836172
30
0
10
-35.671821886709758
20
-101.51362661956313
30
0
10
-35.65239990511602
20
-101.51508536355993
30
0
10
-35.642683769703581
20
-101.51580254302353
30
0
0
ARC
5
113
100
AcDbEntity
8
0
100
AcDbCircle
10
-49
20
-91.000000000000014
30
0
40
12.549199999999983
210
0
220
0
230
1
100
AcDbArc
50
309.05340418556284
51
314.94659581443705
0
SPLINE
5
114
100
AcDbEntity
8
0
100
AcDbSpline
70
0
71
5
72
81
73
75
74
0
42
0.000000001
43
0.0000000001
44
0.0000000001
40
0
40
0
40
0
40
0
40
0
40
0
40
0.014285714285714284
40
0.028571428571428567
40
0.042857142857142858
40
0.057142857142857134
40
0.071428571428571438
40
0.085714285714285715
40
0.10000000000000001
40
0.1142857142857143
40
0.12857142857142859
40
0.14285714285714288
40
0.15714285714285714
40
0.17142857142857146
40
0.18571428571428572
40
0.20000000000000004
40
0.21428571428571436
40
0.22857142857142865
40
0.24285714285714291
40
0.25714285714285717
40
0.27142857142857146
40
0.2857142857142857
40
0.30000000000000004
40
0.31428571428571433
40
0.32857142857142863
40
0.34285714285714292
40
0.35714285714285721
40
0.3714285714285715
40
0.38571428571428573
40
0.40000000000000008
40
0.41428571428571442
40
0.42857142857142871
40
0.44285714285714295
40
0.4571428571428573
40
0.47142857142857147
40
0.48571428571428582
40
0.50000000000000011
40
0.51428571428571435
40
0.52857142857142858
40
0.54285714285714282
40
0.55714285714285705
40
0.57142857142857129
40
0.58571428571428552
40
0.59999999999999976
40
0.61428571428571399
40
0.62857142857142823
40
0.64285714285714246
40
0.6571428571428567
40
0.67142857142857093
40
0.68571428571428517
40
0.6999999999999994
40
0.71428571428571364
40
0.72857142857142776
40
0.74285714285714211
40
0.75714285714285634
40
0.77142857142857058
40
0.78571428571428481
40
0.79999999999999905
40
0.81428571428571328
40
0.82857142857142752
40
0.84285714285714175
40
0.85714285714285599
40
0.87142857142857022
40
0.88571428571428445
40
0.89999999999999869
40
0.91428571428571281
40
0.92857142857142716
40
0.94285714285714117
40
0.95714285714285563
40
0.97142857142856975
40
0.98571428571428399
40
1
40
1
40
1
40
1
40
1
40
1
10
-51.724786062799815
20
-104.82951701119231
30
0
10
-51.726457438555641
20
-104.83796607019713
30
0
10
-51.730039159557975
20
-104.85479103067061
30
0
10
-51.736128640681464
20
-104.87980900195791
30
0
10
-51.745612111356849
20
-104.91275158279358
30
0
10
-51.759336069895532
20
-104.95337843423766
30
0
10
-51.774415941958864
20
-104.9936304310431
30
0
10
-51.790344364268641
20
-105.03367972274233
30
0
10
-51.806745381828172
20
-105.07364976807366
30
0
10
-51.823474456146421
20
-105.11358004193855
30
0
10
-51.840540743521402
20
-105.15345474449074
30
0
10
-51.858046094711725
20
-105.19322551138998
30
0
10
-51.876120668984946
20
-105.23283528783213
30
0
10
-51.894853259351791
20
-105.27224424274547
30
0
10
-51.914244961808997
20
-105.31144687769498
30
0
10
-51.934244708509681
20
-105.35045834344466
30
0
10
-51.954771788326958
20
-105.38930564136002
30
0
10
-51.975741848689154
20
-105.42801753768896
30
0
10
-51.99709517388888
20
-105.46661357070839
30
0
10
-52.018811471120408
20
-105.50509829314709
30
0
10
-52.04089401765134
20
-105.5434673734712
30
0
10
-52.063359933454024
20
-105.58171132684177
30
0
10
-52.086228821131726
20
-105.61981987913288
30
0
10
-52.10951018950766
20
-105.65778679821778
30
0
10
-52.133198149742988
20
-105.69561192298806
30
0
10
-52.157278133402727
20
-105.73329855881596
30
0
10
-52.181730885997418
20
-105.77085192294213
30
0
10
-52.20653718772909
20
-105.80827731031626
30
0
10
-52.231683138633144
20
-105.84557804016089
30
0
10
-52.25716194303309
20
-105.88275475809272
30
0
10
-52.282971017749759
20
-105.91980654846691
30
0
10
-52.309110232445065
20
-105.95673160841002
30
0
10
-52.33557985304752
20
-105.99352803716215
30
0
10
-52.362378216627064
20
-106.03019472859501
30
0
10
-52.389501028840442
20
-106.06673163868311
30
0
10
-52.416942569808064
20
-106.10313931754743
30
0
10
-52.4446964178793
20
-106.13941862738986
30
0
10
-52.472756298107051
20
-106.17557041241068
30
0
10
-52.501117042021178
20
-106.21159512597657
30
0
10
-52.529774851051918
20
-106.24749272602784
30
0
10
-52.558726772386379
20
-106.28326287396033
30
0
10
-52.587970372867375
20
-106.31890505718822
30
0
10
-52.617503360600878
20
-106.35441873227234
30
0
10
-52.647323154114993
20
-106.38980348756057
30
0
10
-52.67742675094383
20
-106.42505909342421
30
0
10
-52.707810949845197
20
-106.46018541930765
30
0
10
-52.738472482236965
20
-106.49518238541582
30
0
10
-52.769408166377907
20
-106.53004990528768
30
0
10
-52.800615079169418
20
-106.56478782356913
30
0
10
-52.832090610169899
20
-106.59939589253381
30
0
10
-52.863832357256314
20
-106.63387380157154
30
0
10
-52.895838058463475
20
-106.66822119433266
30
0
10
-52.92810551372942
20
-106.70243769070787
30
0
10
-52.960632493797149
20
-106.73652291024489
30
0
10
-52.993416706429826
20
-106.77047648677831
30
0
10
-53.026455857810802
20
-106.80429806642067
30
0
10
-53.059747691490671
20
-106.83798731100484
30
0
10
-53.09329003067532
20
-106.87154389902318
30
0
10
-53.127080826607852
20
-106.90496753171135
30
0
10
-53.161118171938071
20
-106.93825792786214
30
0
10
-53.195400237740088
20
-106.97141479547277
30
0
10
-53.229925222814877
20
-107.00443780775622
30
0
10
-53.264691300991558
20
-107.03732658092115
30
0
10
-53.299696556481294
20
-107.07008064602377
30
0
10
-53.33493895654739
20
-107.10269944314113
30
0
10
-53.370416458335164
20
-107.13518239045558
30
0
10
-53.406127092971126
20
-107.16752894288639
30
0
10
-53.442069055270579
20
-107.19973865363926
30
0
10
-53.478240793469979
20
-107.23181124079794
30
0
10
-53.514641085975718
20
-107.26374663788607
30
0
10
-53.551269015905348
20
-107.29554491373598
30
0
10
-53.58075296721529
20
-107.32087394787951
30
0
10
-53.602967922619264
20
-107.33980914265874
30
0
10
-53.617823207584834
20
-107.3524052456937
30
0
10
-53.625262178741202
20
-107.35869645717244
30
0
0
ARC
5
115
100
AcDbEntity
8
0
100
AcDbCircle
10
-49
20
-91.000000000000014
30
0
40
16.999999999999986
210
0
220
0
230
1
100
AcDbArc
50
297.78773391907686
51
302.2122660809232
0
SPLINE
5
116
100
AcDbEntity
8
0
100
AcDbSpline
70
0
71
5
72
81
73
75
74
0
42
0.000000001
43
0.0000000001
44
0.0000000001
40
0
40
0
40
0
40
0
40
0
40
0
40
0.014285714285714284
40
0.028571428571428567
40
0.042857142857142858
40
0.057142857142857134
40
0.071428571428571438
40
0.085714285714285715
40
0.10000000000000001
40
0.1142857142857143
40
0.12857142857142859
40
0.14285714285714288
40
0.15714285714285714
40
0.17142857142857146
40
0.18571428571428572
40
0.20000000000000004
40
0.21428571428571436
40
0.22857142857142865
40
0.24285714285714291
40
0.25714285714285717
40
0.27142857142857146
40
0.2857142857142857
40
0.30000000000000004
40
0.31428571428571433
40
0.32857142857142863
40
0.34285714285714292
40
0.35714285714285721
40
0.3714285714285715
40
0.38571428571428573
40
0.40000000000000008
40
0.41428571428571442
40
0.42857142857142871
40
0.44285714285714295
40
0.4571428571428573
40
0.47142857142857147
40
0.48571428571428582
40
0.50000000000000011
40
0.51428571428571435
40
0.52857142857142858
40
0.54285714285714282
40
0.55714285714285705
40
0.57142857142857129
40
0.58571428571428552
40
0.59999999999999976
40
0.61428571428571399
40
0.62857142857142823
40
0.64285714285714246
40
0.6571428571428567
40
0.67142857142857093
40
0.68571428571428517
40
0.6999999999999994
40
0.71428571428571364
40
0.72857142857142776
40
0.74285714285714211
40
0.75714285714285634
40
0.77142857142857058
40
0.78571428571428481
40
0.79999999999999905
40
0.81428571428571328
40
0.82857142857142752
40
0.84285714285714175
40
0.85714285714285599
40
0.87142857142857022
40
0.88571428571428445
40
0.89999999999999869
40
0.91428571428571281
40
0.92857142857142716
40
0.94285714285714117
40
0.95714285714285563
40
0.97142857142856975
40
0.98571428571428399
40
1
40
1
40
1
40
1
40
1
40
1
10
-57.114187255210666
20
-102.52562211068287
30
0
10
-57.119150674837172
20
-102.53266090039386
30
0
10
-57.129266067732267
20
-102.54657444943248
30
0
10
-57.145004811210001
20
-102.56695268835119
30
0
10
-57.167067347511548
20
-102.59318995840945
30
0
10
-57.196129236670529
20
-102.62472239717873
30
0
10
-57.226277347353559
20
-102.65536088948036
30
0
10
-57.257118199665399
20
-102.68546906497423
30
0
10
-57.288358556819276
20
-102.71531262350325
30
0
10
-57.319882432222172
20
-102.74498641628497
30
0
10
-57.35169176419214
20
-102.77447228523971
30
0
10
-57.383859926477641
20
-102.80368462090846
30
0
10
-57.416482619206818
20
-102.83251836059051
30
0
10
-57.449624758074904
20
-102.86090100142012
30
0
10
-57.48328510790973
20
-102.88882707454488
30
0
10
-57.517423178282634
20
-102.91633119204107
30
0
10
-57.551976218355051
20
-102.94347084905635
30
0
10
-57.586878868505345
20
-102.97030663414752
30
0
10
-57.622084522653481
20
-102.99688068498523
30
0
10
-57.657576494160594
20
-103.02320541452175
30
0
10
-57.693356015166032
20
-103.04927553271921
30
0
10
-57.729434867711255
20
-103.07507541142598
30
0
10
-57.765826780801923
20
-103.10058769166396
30
0
10
-57.802537906345989
20
-103.1258028125152
30
0
10
-57.839562799092768
20
-103.1507230220064
30
0
10
-57.876889494530694
20
-103.17535726526177
30
0
10
-57.914502524851315
20
-103.1997181399741
30
0
10
-57.952386485545553
20
-103.22381830071677
30
0
10
-57.990530028413346
20
-103.24766643337543
30
0
10
-58.02892720789125
20
-103.27126589180089
30
0
10
-58.06757529170136
20
-103.29461689018359
30
0
10
-58.106473427479258
20
-103.31771783453004
30
0
10
-58.145621085053953
20
-103.34056688024667
30
0
10
-58.185016295360406
20
-103.36316369320966
30
0
10
-58.224655117414024
20
-103.38550997986647
30
0
10
-58.264532549599153
20
-103.40760856926227
30
0
10
-58.30464307613515
20
-103.4294628609783
30
0
10
-58.344981307939776
20
-103.45107617848083
30
0
10
-58.385542707781461
20
-103.47245103814707
30
0
10
-58.42632378838681
20
-103.49358894657112
30
0
10
-58.467321714504301
20
-103.51449079543983
30
0
10
-58.508534054846848
20
-103.53515710613706
30
0
10
-58.549958494628392
20
-103.55558831440362
30
0
10
-58.591592508123057
20
-103.57578509415586
30
0
10
-58.633433259043329
20
-103.59574845683035
30
0
10
-58.675477769807202
20
-103.61547958522117
30
0
10
-58.717723021960737
20
-103.63497973588395
30
0
10
-58.760166073671812
20
-103.65425012396341
30
0
10
-58.802804191368793
20
-103.67329179646781
30
0
10
-58.845634889535191
20
-103.69210558885013
30
0
10
-58.88865584738592
20
-103.71069219438525
30
0
10
-58.931864853572449
20
-103.72905220755577
30
0
10
-58.975259743633799
20
-103.74718617596031
30
0
10
-59.0188383262985
20
-103.76509465875895
30
0
10
-59.062598358571094
20
-103.78277825377971
30
0
10
-59.106537601006806
20
-103.80023757070951
30
0
10
-59.150653854691562
20
-103.81747321839799
30
0
10
-59.194945000256055
20
-103.83448578851525
30
0
10
-59.23940904454934
20
-103.85127584143099
30
0
10
-59.284044130743005
20
-103.86784389603886
30
0
10
-59.328848469261899
20
-103.88419042947217
30
0
10
-59.373820281712568
20
-103.90031587580981
30
0
10
-59.418957743702912
20
-103.91622062721157
30
0
10
-59.464258914336114
20
-103.93190503449752
30
0
10
-59.509721708873599
20
-103.94736941294101
30
0
10
-59.555344024428216
20
-103.96261406192909
30
0
10
-59.60112384064022
20
-103.97763928431874
30
0
10
-59.647059326663708
20
-103.99244540617779
30
0
10
-59.693148950226487
20
-104.00703280112199
30
0
10
-59.739391568308882
20
-104.02140190528911
30
0
10
-59.785786371293746
20
-104.03555315449026
30
0
10
-59.82302354740618
20
-104.04670017519813
30
0
10
-59.851019556567699
20
-104.05496269999119
30
0
10
-59.869713831334259
20
-104.06042762396393
30
0
10
-59.879068535881444
20
-104.06314922947736
30
0
0
ARC
5
117
100
AcDbEntity
8
0
100
AcDbCircle
10
-49
20
-91.000000000000014
30
0
40
16.999999999999993
210
0
220
0
230
1
100
AcDbArc
50
249.7877339190768
51
254.21226608092314
0
ARC
5
118
100
AcDbEntity
8
0
100
AcDbCircle
10
-49
20
-91.000000000000014
30
0
40
16.999999999999996
210
0
220
0
230
1
100
AcDbArc
50
321.78773391907686
51
326.21226608092314
0
ARC
5
119
100
AcDbEntity
8
0
100
AcDbCircle
10
-40.77842358582366
20
-101.13347432551438
30
0
40
0.50000000000000988
210
0
220
0
230
1
100
AcDbArc
50
129.05340418556372
51
216.81033006042907
0
SPLINE
5
120
100
AcDbEntity
8
0
100
AcDbSpline
70
0
71
5
72
81
73
75
74
0
42
0.000000001
43
0.0000000001
44
0.0000000001
40
0
40
0
40
0
40
0
40
0
40
0
40
0.014285714285714284
40
0.028571428571428567
40
0.042857142857142858
40
0.057142857142857134
40
0.071428571428571438
40
0.085714285714285715
40
0.10000000000000001
40
0.1142857142857143
40
0.12857142857142859
40
0.14285714285714288
40
0.15714285714285714
40
0.17142857142857146
40
0.18571428571428572
40
0.20000000000000004
40
0.21428571428571436
40
0.22857142857142865
40
0.24285714285714291
40
0.25714285714285717
40
0.27142857142857146
40
0.2857142857142857
40
0.30000000000000004
40
0.31428571428571433
40
0.32857142857142863
40
0.34285714285714292
40
0.35714285714285721
40
0.3714285714285715
40
0.38571428571428573
40
0.40000000000000008
40
0.41428571428571442
40
0.42857142857142871
40
0.44285714285714295
40
0.4571428571428573
40
0.47142857142857147
40
0.48571428571428582
40
0.50000000000000011
40
0.51428571428571435
40
0.52857142857142858
40
0.54285714285714282
40
0.55714285714285705
40
0.57142857142857129
40
0.58571428571428552
40
0.59999999999999976
40
0.61428571428571399
40
0.62857142857142823
40
0.64285714285714246
40
0.6571428571428567
40
0.67142857142857093
40
0.68571428571428517
40
0.6999999999999994
40
0.71428571428571364
40
0.72857142857142776
40
0.74285714285714211
40
0.75714285714285634
40
0.77142857142857058
40
0.78571428571428481
40
0.79999999999999905
40
0.81428571428571328
40
0.82857142857142752
40
0.84285714285714175
40
0.85714285714285599
40
0.87142857142857022
40
0.88571428571428445
40
0.89999999999999869
40
0.91428571428571281
40
0.92857142857142716
40
0.94285714285714117
40
0.95714285714285563
40
0.97142857142856975
40
0.98571428571428399
40
1
40
1
40
1
40
1
40
1
40
1
10
-40.54590374468026
20
-102.27866376645184
30
0
10
-40.540743238873617
20
-102.28555936467129
30
0
10
-40.530636495705004
20
-102.29947919810402
30
0
10
-40.516119177995463
20
-102.32074485478816
30
0
10
-40.497983749992969
20
-102.34983533603774
30
0
10
-40.476975236265517
20
-102.38721889455203
30
0
10
-40.457152577061933
20
-102.42535926647435
30
0
10
-40.438048348050103
20
-102.46399459793085
30
0
10
-40.419319238512529
20
-102.50292810993152
30
0
10
-40.400839197752347
20
-102.54207880330945
30
0
10
-40.382626094102747
20
-102.5814429103594
30
0
10
-40.36478402073282
20
-102.62106375888528
30
0
10
-40.347442471174645
20
-102.66099989895761
30
0
10
-40.33069045980416
20
-102.70129066445364
30
0
10
-40.314532806119878
20
-102.74193319068655
30
0
10
-40.298924079850565
20
-102.78289966469004
30
0
10
-40.283790208785888
20
-102.82414817384793
30
0
10
-40.269053372550161
20
-102.86563528035995
30
0
10
-40.254659093766485
20
-102.90732968046619
30
0
10
-40.240590410560642
20
-102.94921934004329
30
0
10
-40.226852734809633
20
-102.99130379621381
30
0
10
-40.213464570619955
20
-103.03358942500061
30
0
10
-40.200446669856916
20
-103.07608391924472
30
0
10
-40.187810026537903
20
-103.11879017527218
30
0
10
-40.175550819987514
20
-103.16170370902032
30
0
10
-40.163656845649705
20
-103.20481590575778
30
0
10
-40.152111342590899
20
-103.24811594762576
30
0
10
-40.140897515341571
20
-103.29159309454376
30
0
10
-40.130003596346882
20
-103.3352392378184
30
0
10
-40.119424558625042
20
-103.3790497592797
30
0
10
-40.109159354148545
20
-103.42302212656551
30
0
10
-40.099209235500169
20
-103.46715503645797
30
0
10
-40.089575793160805
20
-103.51144741472375
30
0
10
-40.080258736426515
20
-103.55589728542078
30
0
10
-40.071255224538085
20
-103.60050142777129
30
0
10
-40.062561021329529
20
-103.64525595917911
30
0
10
-40.054171189136923
20
-103.6901566843535
30
0
10
-40.046080901838096
20
-103.73519950498019
30
0
10
-40.038286364134315
20
-103.78038088349894
30
0
10
-40.030785065542815
20
-103.82569796887879
30
0
10
-40.023575281878024
20
-103.8711483401817
30
0
10
-40.016655765965474
20
-103.9167298462327
30
0
10
-40.010025388082724
20
-103.9624404201908
30
0
10
-40.003682726805074
20
-104.00827786819953
30
0
10
-39.997625943738115
20
-104.05423980534022
30
0
10
-39.991852993854387
20
-104.10032376526758
30
0
10
-39.986361749344908
20
-104.1465272655584
30
0
10
-39.981150145462266
20
-104.19284788386446
30
0
10
-39.976216341722321
20
-104.23928334394787
30
0
10
-39.971558775495261
20
-104.28583154011129
30
0
10
-39.967176070275421
20
-104.3324904793906
30
0
10
-39.963066977332019
20
-104.37925824237357
30
0
10
-39.959230307012589
20
-104.42613293975278
30
0
10
-39.955664850384139
20
-104.47311266029523
30
0
10
-39.952369345754768
20
-104.52019545552439
30
0
10
-39.949342521251211
20
-104.56737938400543
30
0
10
-39.94658311832125
20
-104.61466254259167
30
0
10
-39.944089919332079
20
-104.66204309847917
30
0
10
-39.941861775422879
20
-104.70951932923256
30
0
10
-39.939897619304979
20
-104.75708962925
30
0
10
-39.938196444188435
20
-104.80475244398673
30
0
10
-39.936757287685957
20
-104.85250621622771
30
0
10
-39.935579213063214
20
-104.90034933205713
30
0
10
-39.934661286900457
20
-104.94828005398169
30
0
10
-39.93400256513516
20
-104.99629649672204
30
0
10
-39.933602113205509
20
-105.04439675282931
30
0
10
-39.933459018751947
20
-105.09257899441522
30
0
10
-39.933572405902972
20
-105.14084158100229
30
0
10
-39.933941445830754
20
-105.18918317076665
30
0
10
-39.934565370531146
20
-105.23760281140603
30
0
10
-39.93544351533766
20
-105.28609986760181
30
0
10
-39.936348988897436
20
-105.32495914542736
30
0
10
-39.937142103457553
20
-105.35413819294817
30
0
10
-39.937721500502604
20
-105.3736062591629
30
0
10
-39.938023862526713
20
-105.38334413423613
30
0
0
ARC
5
121
100
AcDbEntity
8
0
100
AcDbCircle
10
-37.367560882313136
20
-96.913373048718341
30
0
40
0.50000000000000111
210
0
220
0
230
1
100
AcDbArc
50
153.05340418556182
51
240.81033006042978
0
LINE
5
122
100
AcDbEntity
8
0
100
AcDbLine
10
-40.54590374468026
20
-102.27866376645184
30
0
11
-41.178735264740752
21
-101.43305830326116
31
0
0
LINE
5
123
100
AcDbEntity
8
0
100
AcDbLine
10
-57.114187255210666
20
-102.52562211068287
30
0
11
-56.505524363503206
21
-101.66245711115018
31
0
0
ARC
5
124
100
AcDbEntity
8
0
100
AcDbCircle
10
-56.096899957457367
20
-101.95059960156712
30
0
40
0.50000000000001543
210
0
220
-0
230
1
100
AcDbArc
50
57.053404185565753
51
144.81033006042944
0
ARC
5
125
100
AcDbEntity
8
0
100
AcDbCircle
10
-49
20
-91.000000000000014
30
0
40
12.549200000000001
210
0
220
0
230
1
100
AcDbArc
50
285.05340418556284
51
290.94659581443722
0
LINE
5
126
100
AcDbEntity
8
0
100
AcDbLine
10
-43.875338837841284
20
-102.98994310208847
30
0
11
-43.459438785169489
21
-103.96079400637174
31
0
0
ARC
5
127
100
AcDbEntity
8
0
100
AcDbCircle
10
-49
20
-91.000000000000014
30
0
40
12.549199999999995
210
0
220
0
230
1
100
AcDbArc
50
213.05340418556281
51
218.94659581443707
0
ARC
5
128
100
AcDbEntity
8
0
100
AcDbCircle
10
-49
20
-91.000000000000014
30
0
40
12.549200000000006
210
0
220
0
230
1
100
AcDbArc
50
261.05340418556278
51
266.94659581443727
0
ARC
5
129
100
AcDbEntity
8
0
100
AcDbCircle
10
-59.148783024652275
20
-99.202671745140734
30
0
40
0.49999999999999134
210
0
220
0
230
1
100
AcDbArc
50
-48.810330060429372
51
38.946595814440222
0
SPLINE
5
130
100
AcDbEntity
8
0
100
AcDbSpline
70
0
71
5
72
81
73
75
74
0
42
0.000000001
43
0.0000000001
44
0.0000000001
40
0
40
0
40
0
40
0
40
0
40
0
40
0.014285714285714284
40
0.028571428571428567
40
0.042857142857142858
40
0.057142857142857134
40
0.071428571428571438
40
0.085714285714285715
40
0.10000000000000001
40
0.1142857142857143
40
0.12857142857142859
40
0.14285714285714288
40
0.15714285714285714
40
0.17142857142857146
40
0.18571428571428572
40
0.20000000000000004
40
0.21428571428571436
40
0.22857142857142865
40
0.24285714285714291
40
0.25714285714285717
40
0.27142857142857146
40
0.2857142857142857
40
0.30000000000000004
40
0.31428571428571433
40
0.32857142857142863
40
0.34285714285714292
40
0.35714285714285721
40
0.3714285714285715
40
0.38571428571428573
40
0.40000000000000008
40
0.41428571428571442
40
0.42857142857142871
40
0.44285714285714295
40
0.4571428571428573
40
0.47142857142857147
40
0.48571428571428582
40
0.50000000000000011
40
0.51428571428571435
40
0.52857142857142858
40
0.54285714285714282
40
0.55714285714285705
40
0.57142857142857129
40
0.58571428571428552
40
0.59999999999999976
40
0.61428571428571399
40
0.62857142857142823
40
0.64285714285714246
40
0.6571428571428567
40
0.67142857142857093
40
0.68571428571428517
40
0.6999999999999994
40
0.71428571428571364
40
0.72857142857142776
40
0.74285714285714211
40
0.75714285714285634
40
0.77142857142857058
40
0.78571428571428481
40
0.79999999999999905
40
0.81428571428571328
40
0.82857142857142752
40
0.84285714285714175
40
0.85714285714285599
40
0.87142857142857022
40
0.88571428571428445
40
0.89999999999999869
40
0.91428571428571281
40
0.92857142857142716
40
0.94285714285714117
40
0.95714285714285563
40
0.97142857142856975
40
0.98571428571428399
40
1
40
1
40
1
40
1
40
1
40
1
10
-43.459438785169489
20
-103.96079400637174
30
0
10
-43.4560472748405
20
-103.96871093460635
30
0
10
-43.449045717055583
20
-103.98442354765632
30
0
10
-43.437887776993747
20
-104.00762874192964
30
0
10
-43.421762395224555
20
-104.03787972391306
30
0
10
-43.399891540731026
20
-104.07476540975395
30
0
10
-43.376772339338302
20
-104.11100252215597
30
0
10
-43.352865275319267
20
-104.14686493552819
30
0
10
-43.328512419636922
20
-104.18255157617833
30
0
10
-43.303846944975966
20
-104.21813110762855
30
0
10
-43.278863180098206
20
-104.25358617159586
30
0
10
-43.253471555440257
20
-104.28884828465335
30
0
10
-43.227556618387624
20
-104.32383457714789
30
0
10
-43.201039797615373
20
-104.35848762730721
30
0
10
-43.173921164265849
20
-104.39280182897981
30
0
10
-43.146247520209997
20
-104.42680261945149
30
0
10
-43.118092198943359
20
-104.46053319083006
30
0
10
-43.089531728892325
20
-104.4940392186376
30
0
10
-43.06062045859661
20
-104.52735222978653
30
0
10
-43.031377290849875
20
-104.56048089662914
30
0
10
-43.001799920577248
20
-104.59342030090372
30
0
10
-42.971873573927731
20
-104.62615760559544
30
0
10
-42.941581212772874
20
-104.65867868548223
30
0
10
-42.910914831812065
20
-104.69097546762879
30
0
10
-42.879880224695235
20
-104.72304901880574
30
0
10
-42.848490954276528
20
-104.75490560110299
30
0
10
-42.816764769563321
20
-104.78655432098535
30
0
10
-42.784719369472953
20
-104.81800435371593
30
0
10
-42.752367660117244
20
-104.84926183594939
30
0
10
-42.71971615443961
20
-104.88032881209477
30
0
10
-42.686767569543832
20
-104.91120492358934
30
0
10
-42.653522407758217
20
-104.94188843405574
30
0
10
-42.619980804155695
20
-104.97237742898044
30
0
10
-42.586144615304264
20
-105.00267117214935
30
0
10
-42.552018050858919
20
-105.03277051334325
30
0
10
-42.517606591329567
20
-105.06267717989144
30
0
10
-42.482916338776526
20
-105.09239335029091
30
0
10
-42.447953255505112
20
-105.12192115492894
30
0
10
-42.412722302781773
20
-105.15126211185056
30
0
10
-42.377227204913098
20
-105.18041696968208
30
0
10
-42.341470920585735
20
-105.20938601114307
30
0
10
-42.305455936359081
20
-105.23816924073071
30
0
10
-42.269184607031164
20
-105.26676660339291
30
0
10
-42.232659543249795
20
-105.29517823319132
30
0
10
-42.195883729612298
20
-105.32340452976285
30
0
10
-42.158860324550069
20
-105.35144603098061
30
0
10
-42.121592541809193
20
-105.37930333836965
30
0
10
-42.084083511578491
20
-105.40697702887951
30
0
10
-42.046336125379781
20
-105.43446755829731
30
0
10
-42.008352988115462
20
-105.46177522705143
30
0
10
-41.970136513995875
20
-105.48890023074875
30
0
10
-41.931688989646148
20
-105.51584269111575
30
0
10
-41.893012646080749
20
-105.54260269376795
30
0
10
-41.854109742942541
20
-105.56918033005547
30
0
10
-41.814982598507569
20
-105.5955757183974
30
0
10
-41.775633530044416
20
-105.62178898955079
30
0
10
-41.736064815002564
20
-105.64782028188051
30
0
10
-41.696278649453134
20
-105.67366973348558
30
0
10
-41.656277099499363
20
-105.69933747809095
30
0
10
-41.616062089277563
20
-105.72482363719476
30
0
10
-41.575635468457975
20
-105.75012830543034
30
0
10
-41.534999066821953
20
-105.77525153764199
30
0
10
-41.494154750428862
20
-105.80019333810756
30
0
10
-41.453104490701861
20
-105.82495364644558
30
0
10
-41.411850392372003
20
-105.84953233759855
30
0
10
-41.370394574619368
20
-105.87392926719623
30
0
10
-41.328739076621503
20
-105.89814431142109
30
0
10
-41.286885757009244
20
-105.9221774085614
30
0
10
-41.244836192250069
20
-105.94602860549109
30
0
10
-41.202591591064049
20
-105.9696980911702
30
0
10
-41.160152835986487
20
-105.99318612355745
30
0
10
-41.126046977436971
20
-106.011831599365
30
0
10
-41.100380623745636
20
-106.02573426576825
30
0
10
-41.08323108531863
20
-106.0349665263157
30
0
10
-41.074646657114265
20
-106.03957361065831
30
0
0
ARC
5
131
100
AcDbEntity
8
0
100
AcDbCircle
10
-49
20
-91.000000000000014
30
0
40
16.999999999999996
210
0
220
0
230
1
100
AcDbArc
50
273.78773391907686
51
278.2122660809232
0
ARC
5
132
100
AcDbEntity
8
0
100
AcDbCircle
10
-49
20
-91.000000000000014
30
0
40
16.999999999999993
210
0
220
0
230
1
100
AcDbArc
50
225.78773391907686
51
230.21226608092323
0
LINE
5
133
100
AcDbEntity
8
0
100
AcDbLine
10
-58.819506127729049
20
-99.578938572209779
30
0
11
-59.614320022361653
21
-100.27449245585859
31
0
0
LINE
5
134
100
AcDbEntity
8
0
100
AcDbLine
10
-45.864244606226606
20
-104.74216278324872
30
0
11
-46.098426239366205
21
-103.71226798529115
31
0
0
LINE
5
135
100
AcDbEntity
8
0
100
AcDbLine
10
-36.660668195095624
20
-95.21447247312544
30
0
11
-35.660893914838532
21
-95.555024555333716
31
0
0
SPLINE
5
136
100
AcDbEntity
8
0
100
AcDbSpline
70
0
71
5
72
81
73
75
74
0
42
0.000000001
43
0.0000000001
44
0.0000000001
40
0
40
0
40
0
40
0
40
0
40
0
40
0.014285714285714284
40
0.028571428571428567
40
0.042857142857142858
40
0.057142857142857134
40
0.071428571428571438
40
0.085714285714285715
40
0.10000000000000001
40
0.1142857142857143
40
0.12857142857142859
40
0.14285714285714288
40
0.15714285714285714
40
0.17142857142857146
40
0.18571428571428572
40
0.20000000000000004
40
0.21428571428571436
40
0.22857142857142865
40
0.24285714285714291
40
0.25714285714285717
40
0.27142857142857146
40
0.2857142857142857
40
0.30000000000000004
40
0.31428571428571433
40
0.32857142857142863
40
0.34285714285714292
40
0.35714285714285721
40
0.3714285714285715
40
0.38571428571428573
40
0.40000000000000008
40
0.41428571428571442
40
0.42857142857142871
40
0.44285714285714295
40
0.4571428571428573
40
0.47142857142857147
40
0.48571428571428582
40
0.50000000000000011
40
0.51428571428571435
40
0.52857142857142858
40
0.54285714285714282
40
0.55714285714285705
40
0.57142857142857129
40
0.58571428571428552
40
0.59999999999999976
40
0.61428571428571399
40
0.62857142857142823
40
0.64285714285714246
40
0.6571428571428567
40
0.67142857142857093
40
0.68571428571428517
40
0.6999999999999994
40
0.71428571428571364
40
0.72857142857142776
40
0.74285714285714211
40
0.75714285714285634
40
0.77142857142857058
40
0.78571428571428481
40
0.79999999999999905
40
0.81428571428571328
40
0.82857142857142752
40
0.84285714285714175
40
0.85714285714285599
40
0.87142857142857022
40
0.88571428571428445
40
0.89999999999999869
40
0.91428571428571281
40
0.92857142857142716
40
0.94285714285714117
40
0.95714285714285563
40
0.97142857142856975
40
0.98571428571428399
40
1
40
1
40
1
40
1
40
1
40
1
10
-35.660893914838532
20
-95.555024555333716
30
0
10
-35.652741127224374
20
-95.557801630972321
30
0
10
-35.636379423535502
20
-95.563112249831761
30
0
10
-35.611668484287797
20
-95.57034759012663
30
0
10
-35.578397637080187
20
-95.57860595402353
30
0
10
-35.536351772384513
20
-95.587034083010565
30
0
10
-35.493952584566266
20
-95.594100529120638
30
0
10
-35.451304669396258
20
-95.600330756607804
30
0
10
-35.408489085969144
20
-95.606112081418999
30
0
10
-35.365543917262976
20
-95.61158941501003
30
0
10
-35.322478268196924
20
-95.616746927871105
30
0
10
-35.279283098139032
20
-95.621472232487719
30
0
10
-35.23594273836531
20
-95.625624080225606
30
0
10
-35.192447287090346
20
-95.62910565854591
30
0
10
-35.148800958100175
20
-95.631913269070097
30
0
10
-35.105016164371747
20
-95.634098713232873
30
0
10
-35.061109877600003
20
-95.635745389603272
30
0
10
-35.017099361769382
20
-95.636940732775201
30
0
10
-34.972997554089396
20
-95.637746227206691
30
0
10
-34.928810658184119
20
-95.638181723347373
30
0
10
-34.884540786638134
20
-95.638242217233397
30
0
10
-34.840187593576729
20
-95.637908140114291
30
0
10
-34.795750175352325
20
-95.63715737857467
30
0
10
-34.75122917473341
20
-95.635978581668695
30
0
10
-34.706627675663377
20
-95.634376768726213
30
0
10
-34.661950099823358
20
-95.632366209068095
30
0
10
-34.617201556195184
20
-95.629966186191737
30
0
10
-34.572387069116886
20
-95.627195992405234
30
0
10
-34.527510714039693
20
-95.624069325042313
30
0
10
-34.482575329681431
20
-95.620592392139827
30
0
10
-34.437583000603375
20
-95.616766972974119
30
0
10
-34.392535353308695
20
-95.612592278984579
30
0
10
-34.347433900939599
20
-95.608067129490337
30
0
10
-34.302280432896254
20
-95.603192411567051
30
0
10
-34.25707713447747
20
-95.597971822212244
30
0
10
-34.211826389204354
20
-95.59241059004745
30
0
10
-34.166530661213407
20
-95.586514707486174
30
0
10
-34.121192356879362
20
-95.580290030892201
30
0
10
-34.075813667810159
20
-95.573741262975318
30
0
10
-34.030396529715489
20
-95.566871672363504
30
0
10
-33.984942712241626
20
-95.559683646965752
30
0
10
-33.939453875879423
20
-95.552179037665042
30
0
10
-33.893931637208077
20
-95.544359557580236
30
0
10
-33.848377643464708
20
-95.536227236505511
30
0
10
-33.802793594746561
20
-95.527784559838267
30
0
10
-33.757181204739211
20
-95.519034234657767
30
0
10
-33.711542176838279
20
-95.509979051741595
30
0
10
-33.665878176791821
20
-95.500621723328038
30
0
10
-33.620190800689741
20
-95.490964703217642
30
0
10
-33.57448156829016
20
-95.481010128255974
30
0
10
-33.528751949650903
20
-95.47075992343747
30
0
10
-33.483003384362419
20
-95.460215869506726
30
0
10
-33.437237301640025
20
-95.44937968171854
30
0
10
-33.391455145593525
20
-95.438253100439994
30
0
10
-33.345658379449908
20
-95.426837927723767
30
0
10
-33.299848456593011
20
-95.415135973129537
30
0
10
-33.254026798108889
20
-95.403149021716274
30
0
10
-33.208194770828371
20
-95.390878797889158
30
0
10
-33.162353657867371
20
-95.378326926541604
30
0
10
-33.116504656433634
20
-95.365494918883655
30
0
10
-33.070648933871894
20
-95.352384212810193
30
0
10
-33.024787673787571
20
-95.338996204811863
30
0
10
-32.978922121639087
20
-95.325332284503361
30
0
10
-32.933053641438136
20
-95.311393876534609
30
0
10
-32.887183734460571
20
-95.297182461345713
30
0
10
-32.841313926002577
20
-95.282699517191929
30
0
10
-32.795445672554663
20
-95.267946476627287
30
0
10
-32.74958026364439
20
-95.252924679590592
30
0
10
-32.703718719300198
20
-95.23763532899018
30
0
10
-32.657861707889062
20
-95.222079449519086
30
0
10
-32.612009628241665
20
-95.206257869636943
30
0
10
-32.575332065565085
20
-95.193388535870369
30
0
10
-32.547826228158684
20
-95.183617417536198
30
0
10
-32.529490040458946
20
-95.177050414893046
30
0
10
-32.52032220591957
20
-95.173753682632992
30
0
0
SPLINE
5
137
100
AcDbEntity
8
0
100
AcDbSpline
70
0
71
5
72
81
73
75
74
0
42
0.000000001
43
0.0000000001
44
0.0000000001
40
0
40
0
40
0
40
0
40
0
40
0
40
0.014285714285714284
40
0.028571428571428567
40
0.042857142857142858
40
0.057142857142857134
40
0.071428571428571438
40
0.085714285714285715
40
0.10000000000000001
40
0.1142857142857143
40
0.12857142857142859
40
0.14285714285714288
40
0.15714285714285714
40
0.17142857142857146
40
0.18571428571428572
40
0.20000000000000004
40
0.21428571428571436
40
0.22857142857142865
40
0.24285714285714291
40
0.25714285714285717
40
0.27142857142857146
40
0.2857142857142857
40
0.30000000000000004
40
0.31428571428571433
40
0.32857142857142863
40
0.34285714285714292
40
0.35714285714285721
40
0.3714285714285715
40
0.38571428571428573
40
0.40000000000000008
40
0.41428571428571442
40
0.42857142857142871
40
0.44285714285714295
40
0.4571428571428573
40
0.47142857142857147
40
0.48571428571428582
40
0.50000000000000011
40
0.51428571428571435
40
0.52857142857142858
40
0.54285714285714282
40
0.55714285714285705
40
0.57142857142857129
40
0.58571428571428552
40
0.59999999999999976
40
0.61428571428571399
40
0.62857142857142823
40
0.64285714285714246
40
0.6571428571428567
40
0.67142857142857093
40
0.68571428571428517
40
0.6999999999999994
40
0.71428571428571364
40
0.72857142857142776
40
0.74285714285714211
40
0.75714285714285634
40
0.77142857142857058
40
0.78571428571428481
40
0.79999999999999905
40
0.81428571428571328
40
0.82857142857142752
40
0.84285714285714175
40
0.85714285714285599
40
0.87142857142857022
40
0.88571428571428445
40
0.89999999999999869
40
0.91428571428571281
40
0.92857142857142716
40
0.94285714285714117
40
0.95714285714285563
40
0.97142857142856975
40
0.98571428571428399
40
1
40
1
40
1
40
1
40
1
40
1
10
-36.689352928732042
20
-97.864981320991831
30
0
10
-36.681833879621479
20
-97.869181796614555
30
0
10
-36.666939203985613
20
-97.877787414429349
30
0
10
-36.645027452522413
20
-97.891309833425282
30
0
10
-36.616627749959406
20
-97.910508967325001
30
0
10
-36.582230254575535
20
-97.936115615046731
30
0
10
-36.548608267460381
20
-97.962895976707856
30
0
10
-36.515441280804112
20
-97.990420718287652
30
0
10
-36.482495701886066
20
-98.018370436184796
30
0
10
-36.449689322993933
20
-98.046619864541071
30
0
10
-36.417040000126086
20
-98.075172829092281
30
0
10
-36.384625204118834
20
-98.10411125026306
30
0
10
-36.352539418741046
20
-98.133541285968874
30
0
10
-36.320847964142359
20
-98.163535074903123
30
0
10
-36.289556408326824
20
-98.194091960310772
30
0
10
-36.258634561229073
20
-98.225168055626852
30
0
10
-36.228031801914618
20
-98.256694943889016
30
0
10
-36.197694705677847
20
-98.288601290293684
30
0
10
-36.1675862373447
20
-98.320836339487911
30
0
10
-36.137695796191011
20
-98.353382198737123
30
0
10
-36.108028514481639
20
-98.386240646390419
30
0
10
-36.078598703196896
20
-98.41942503353269
30
0
10
-36.049422191148714
20
-98.452950828468005
30
0
10
-36.020507843829854
20
-98.486825148791468
30
0
10
-35.991853994712201
20
-98.521042344099385
30
0
10
-35.963452998305947
20
-98.555589580402909
30
0
10
-35.935293942755955
20
-98.59045015781038
30
0
10
-35.907365853021602
20
-98.625607433437139
30
0
10
-35.879661277009355
20
-98.661049213327487
30
0
10
-35.852177500721766
20
-98.696769233915489
30
0
10
-35.824914596742559
20
-98.732764755501961
30
0
10
-35.797874239429511
20
-98.769035097009493
30
0
10
-35.771058318689235
20
-98.805579923984013
30
0
10
-35.744467372638567
20
-98.842397313072638
30
0
10
-35.718100116123146
20
-98.879483166507612
30
0
10
-35.691954258406902
20
-98.916832214356845
30
0
10
-35.666026995087869
20
-98.954438615702784
30
0
10
-35.640315584218634
20
-98.992296663588277
30
0
10
-35.614817997476678
20
-99.030401582604128
30
0
10
-35.589533101040608
20
-99.068749747098678
30
0
10
-35.56446030447276
20
-99.107338244145524
30
0
10
-35.539599343384218
20
-99.146164601276965
30
0
10
-35.514950026382195
20
-99.185226470840249
30
0
10
-35.490511947252415
20
-99.224521270502322
30
0
10
-35.466284396571794
20
-99.264046073789132
30
0
10
-35.442266509267824
20
-99.303797795794651
30
0
10
-35.418457351182738
20
-99.343773303254395
30
0
10
-35.394856021333737
20
-99.383969543434816
30
0
10
-35.371461764184183
20
-99.424383688296814
30
0
10
-35.348274008665044
20
-99.46501317861123
30
0
10
-35.325292307887331
20
-99.505855633839559
30
0
10
-35.302516301773991
20
-99.546908792606885
30
0
10
-35.279945671973991
20
-99.588170445069721
30
0
10
-35.257580091440587
20
-99.62963835351249
30
0
10
-35.235419200077644
20
-99.671310224737056
30
0
10
-35.213462625623819
20
-99.713183767836853
30
0
10
-35.191709992413976
20
-99.755256732301689
30
0
10
-35.17016093355366
20
-99.797526948525928
30
0
10
-35.148815100083915
20
-99.839992375702764
30
0
10
-35.127672170045102
20
-99.8826511129365
30
0
10
-35.106731855979177
20
-99.925501330581483
30
0
10
-35.085993912077981
20
-99.968541214612898
30
0
10
-35.065458139030881
20
-100.01176890964101
30
0
10
-35.045124390818643
20
-100.05518244873066
30
0
10
-35.024992571809449
20
-100.09877972560872
30
0
10
-35.005062604067959
20
-100.14255861761342
30
0
10
-34.985334397581383
20
-100.18651708379554
30
0
10
-34.965807819443583
20
-100.2306532692554
30
0
10
-34.946482658251576
20
-100.27496561106126
30
0
10
-34.92735859973493
20
-100.31945292686626
30
0
10
-34.908435295097945
20
-100.36411436593369
30
0
10
-34.893456994140386
20
-100.39998237195455
30
0
10
-34.882313352507396
20
-100.42696134702929
30
0
10
-34.874924282146729
20
-100.44498197249794
30
0
10
-34.871239752982433
20
-100.45400094575288
30
0
0
ARC
5
138
100
AcDbEntity
8
0
100
AcDbCircle
10
-49
20
-91.000000000000014
30
0
40
12.549199999999994
210
0
220
0
230
1
100
AcDbArc
50
333.0534041855629
51
338.94659581443716
0
ARC
5
139
100
AcDbEntity
8
0
100
AcDbCircle
10
-49
20
-91.000000000000014
30
0
40
17
210
0
220
0
230
1
100
AcDbArc
50
345.78773391907686
51
350.21226608092314
0
LINE
5
140
100
AcDbEntity
8
0
100
AcDbLine
10
-36.689352928732042
20
-97.864981320991831
30
0
11
-37.611412016801104
21
-97.349878059238193
31
0
0
SPLINE
5
141
100
AcDbEntity
8
0
100
AcDbSpline
70
0
71
5
72
81
73
75
74
0
42
0.000000001
43
0.0000000001
44
0.0000000001
40
0
40
0
40
0
40
0
40
0
40
0
40
0.014285714285714284
40
0.028571428571428567
40
0.042857142857142858
40
0.057142857142857134
40
0.071428571428571438
40
0.085714285714285715
40
0.10000000000000001
40
0.1142857142857143
40
0.12857142857142859
40
0.14285714285714288
40
0.15714285714285714
40
0.17142857142857146
40
0.18571428571428572
40
0.20000000000000004
40
0.21428571428571436
40
0.22857142857142865
40
0.24285714285714291
40
0.25714285714285717
40
0.27142857142857146
40
0.2857142857142857
40
0.30000000000000004
40
0.31428571428571433
40
0.32857142857142863
40
0.34285714285714292
40
0.35714285714285721
40
0.3714285714285715
40
0.38571428571428573
40
0.40000000000000008
40
0.41428571428571442
40
0.42857142857142871
40
0.44285714285714295
40
0.4571428571428573
40
0.47142857142857147
40
0.48571428571428582
40
0.50000000000000011
40
0.51428571428571435
40
0.52857142857142858
40
0.54285714285714282
40
0.55714285714285705
40
0.57142857142857129
40
0.58571428571428552
40
0.59999999999999976
40
0.61428571428571399
40
0.62857142857142823
40
0.64285714285714246
40
0.6571428571428567
40
0.67142857142857093
40
0.68571428571428517
40
0.6999999999999994
40
0.71428571428571364
40
0.72857142857142776
40
0.74285714285714211
40
0.75714285714285634
40
0.77142857142857058
40
0.78571428571428481
40
0.79999999999999905
40
0.81428571428571328
40
0.82857142857142752
40
0.84285714285714175
40
0.85714285714285599
40
0.87142857142857022
40
0.88571428571428445
40
0.89999999999999869
40
0.91428571428571281
40
0.92857142857142716
40
0.94285714285714117
40
0.95714285714285563
40
0.97142857142856975
40
0.98571428571428399
40
1
40
1
40
1
40
1
40
1
40
1
10
-34.961424830123683
20
-89.735718761265062
30
0
10
-34.952847349608831
20
-89.734939708634357
30
0
10
-34.935740166237032
20
-89.733136295937257
30
0
10
-34.910222721910166
20
-89.729695263721254
30
0
10
-34.87646931136301
20
-89.723707181841348
30
0
10
-34.834630473766019
20
-89.714305066932326
30
0
10
-34.793022705757636
20
-89.703515283355529
30
0
10
-34.751527834762435
20
-89.691860409526058
30
0
10
-34.710062376360035
20
-89.679727245872002
30
0
10
-34.668602180283003
20
-89.667263665338211
30
0
10
-34.627162002730536
20
-89.654458910252188
30
0
10
-34.585779296794776
20
-89.641206632354255
30
0
10
-34.544497199379435
20
-89.627371421551942
30
0
10
-34.503346041960469
20
-89.612860807771227
30
0
10
-34.462331178289048
20
-89.597673126276391
30
0
10
-34.421442878642225
20
-89.581860748845372
30
0
10
-34.380662726180809
20
-89.565506766872304
30
0
10
-34.339970929486178
20
-89.548698077728346
30
0
10
-34.299354299305222
20
-89.531496112298058
30
0
10
-34.258810429025282
20
-89.513921528110785
30
0
10
-34.218343283883897
20
-89.495970613083543
30
0
10
-34.177960507236662
20
-89.477625349593382
30
0
10
-34.137670267896773
20
-89.458865168483541
30
0
10
-34.097477769908068
20
-89.439679961586478
30
0
10
-34.057383789047648
20
-89.420075568640982
30
0
10
-34.017386560866555
20
-89.400066823780094
30
0
10
-33.977482909346961
20
-89.379673421365283
30
0
10
-33.937669577561387
20
-89.358915029379418
30
0
10
-33.897944717412258
20
-89.337805818594916
30
0
10
-33.858308397161309
20
-89.316352614946126
30
0
10
-33.818761797453114
20
-89.294557891750316
30
0
10
-33.77930672490875
20
-89.272421590180016
30
0
10
-33.73994504207856
20
-89.249943247079983
30
0
10
-33.700678022854824
20
-89.227124400648677
30
0
10
-33.661506159902927
20
-89.203969317102576
30
0
10
-33.622429504005808
20
-89.180483742490452
30
0
10
-33.583447868929994
20
-89.156674153409128
30
0
10
-33.544561071010477
20
-89.132546878673821
30
0
10
-33.505769199616324
20
-89.108107105830996
30
0
10
-33.467072693635565
20
-89.083358608244993
30
0
10
-33.428472198470438
20
-89.058304287159132
30
0
10
-33.389968478232873
20
-89.032946508821709
30
0
10
-33.351562312953227
20
-89.007287495766604
30
0
10
-33.313254381865846
20
-88.981329772294828
30
0
10
-33.275045227184627
20
-88.955076300421723
30
0
10
-33.236935313370921
20
-88.928530250205924
30
0
10
-33.198925061442559
20
-88.901694863983082
30
0
10
-33.161014889969429
20
-88.87457329702687
30
0
10
-33.123205259001587
20
-88.847168440183964
30
0
10
-33.08549668777377
20
-88.819482863701182
30
0
10
-33.047889736284858
20
-88.791518924074893
30
0
10
-33.0103849953721
20
-88.763278833630324
30
0
10
-32.972983073031671
20
-88.734764740645033
30
0
10
-32.935684580652456
20
-88.705978822395792
30
0
10
-32.898490121997966
20
-88.676923320287671
30
0
10
-32.861400288786172
20
-88.647600478580202
30
0
10
-32.82441565319489
20
-88.618012506013656
30
0
10
-32.787536762507443
20
-88.588161533850709
30
0
10
-32.750764128004867
20
-88.558049568395603
30
0
10
-32.71409822872635
20
-88.527678477155717
30
0
10
-32.677539546249818
20
-88.497050048515263
30
0
10
-32.641088593848728
20
-88.46616603964759
30
0
10
-32.604745944098745
20
-88.435028226602469
30
0
10
-32.568512263629245
20
-88.403638465655916
30
0
10
-32.532388321774675
20
-88.371998719881162
30
0
10
-32.496374910701917
20
-88.340110960125443
30
0
10
-32.460472778308983
20
-88.307977087500092
30
0
10
-32.424682557635769
20
-88.275598850598058
30
0
10
-32.389004691257668
20
-88.242977763213943
30
0
10
-32.353439372978123
20
-88.210115033300667
30
0
10
-32.31798663018219
20
-88.177011579912772
30
0
10
-32.28971443901645
20
-88.150336749788138
30
0
10
-32.268560878065522
20
-88.130222757046184
30
0
10
-32.25448097769209
20
-88.116765502179391
30
0
10
-32.247446645904787
20
-88.110024893153351
30
0
0
ARC
5
142
100
AcDbEntity
8
0
100
AcDbCircle
10
-49
20
-91.000000000000014
30
0
40
17.000000000000007
210
0
220
-0
230
1
100
AcDbArc
50
9.7877339190768851
51
14.21226608092317
0
LINE
5
143
100
AcDbEntity
8
0
100
AcDbLine
10
-36.013279093230324
20
-89.831253788058262
30
0
11
-34.961424830123683
21
-89.735718761265062
31
0
0
ARC
5
144
100
AcDbEntity
8
0
100
AcDbCircle
10
-39.781426655335125
20
-100.23577425715001
30
0
40
0.49999999999999745
210
0
220
-0
230
1
100
AcDbArc
50
47.189669939573243
51
134.94659581444006
0
ARC
5
145
100
AcDbEntity
8
0
100
AcDbCircle
10
-36.821886377477178
20
-95.68776804427479
30
0
40
0.50000000000000056
210
0
220
-0
230
1
100
AcDbArc
50
71.189669939570095
51
158.94659581443835
0
ARC
5
146
100
AcDbEntity
8
0
100
AcDbCircle
10
-49.695088276599115
20
-104.03067430825186
30
0
40
0.49999999999999517
210
0
220
0
230
1
100
AcDbArc
50
-0.81033006042762046
51
86.946595814435625
0
ARC
5
147
100
AcDbEntity
8
0
100
AcDbCircle
10
-35.968052579642453
20
-90.329204149508769
30
0
40
0.49999999999998956
210
0
220
0
230
1
100
AcDbArc
50
95.189669939570592
51
182.946595814441
0
LINE
5
148
100
AcDbEntity
8
0
100
AcDbLine
10
-34.961424830123683
20
-92.264281238734924
30
0
11
-36.013279093230324
21
-92.168746211941723
31
0
0
ARC
5
149
100
AcDbEntity
8
0
100
AcDbCircle
10
-49
20
-91.000000000000014
30
0
40
12.549200000000001
210
0
220
0
230
1
100
AcDbArc
50
-2.9465958144370719
51
2.9465958144370523
0
ARC
5
150
100
AcDbEntity
8
0
100
AcDbCircle
10
-35.968052579642453
20
-91.670795850491231
30
0
40
0.50000000000000067
210
0
220
0
230
1
100
AcDbArc
50
177.05340418556048
51
264.81033006042924
0
SPLINE
5
151
100
AcDbEntity
8
0
100
AcDbSpline
70
0
71
5
72
81
73
75
74
0
42
0.000000001
43
0.0000000001
44
0.0000000001
40
0
40
0
40
0
40
0
40
0
40
0
40
0.014285714285714284
40
0.028571428571428567
40
0.042857142857142858
40
0.057142857142857134
40
0.071428571428571438
40
0.085714285714285715
40
0.10000000000000001
40
0.1142857142857143
40
0.12857142857142859
40
0.14285714285714288
40
0.15714285714285714
40
0.17142857142857146
40
0.18571428571428572
40
0.20000000000000004
40
0.21428571428571436
40
0.22857142857142865
40
0.24285714285714291
40
0.25714285714285717
40
0.27142857142857146
40
0.2857142857142857
40
0.30000000000000004
40
0.31428571428571433
40
0.32857142857142863
40
0.34285714285714292
40
0.35714285714285721
40
0.3714285714285715
40
0.38571428571428573
40
0.40000000000000008
40
0.41428571428571442
40
0.42857142857142871
40
0.44285714285714295
40
0.4571428571428573
40
0.47142857142857147
40
0.48571428571428582
40
0.50000000000000011
40
0.51428571428571435
40
0.52857142857142858
40
0.54285714285714282
40
0.55714285714285705
40
0.57142857142857129
40
0.58571428571428552
40
0.59999999999999976
40
0.61428571428571399
40
0.62857142857142823
40
0.64285714285714246
40
0.6571428571428567
40
0.67142857142857093
40
0.68571428571428517
40
0.6999999999999994
40
0.71428571428571364
40
0.72857142857142776
40
0.74285714285714211
40
0.75714285714285634
40
0.77142857142857058
40
0.78571428571428481
40
0.79999999999999905
40
0.81428571428571328
40
0.82857142857142752
40
0.84285714285714175
40
0.85714285714285599
40
0.87142857142857022
40
0.88571428571428445
40
0.89999999999999869
40
0.91428571428571281
40
0.92857142857142716
40
0.94285714285714117
40
0.95714285714285563
40
0.97142857142856975
40
0.98571428571428399
40
1
40
1
40
1
40
1
40
1
40
1
10
-34.961424830123683
20
-92.264281238734924
30
0
10
-34.952847349608831
20
-92.265060291365657
30
0
10
-34.935740166237032
20
-92.266863704062729
30
0
10
-34.910222721910166
20
-92.270304736278746
30
0
10
-34.876469311363003
20
-92.276292818158666
30
0
10
-34.834630473766019
20
-92.285694933067674
30
0
10
-34.793022705757643
20
-92.296484716644471
30
0
10
-34.751527834762435
20
-92.308139590473957
30
0
10
-34.710062376360035
20
-92.320272754128013
30
0
10
-34.668602180283003
20
-92.332736334661803
30
0
10
-34.627162002730536
20
-92.345541089747798
30
0
10
-34.585779296794776
20
-92.35879336764576
30
0
10
-34.544497199379421
20
-92.372628578448044
30
0
10
-34.503346041960469
20
-92.387139192228773
30
0
10
-34.462331178289048
20
-92.402326873723624
30
0
10
-34.421442878642225
20
-92.418139251154628
30
0
10
-34.380662726180809
20
-92.434493233127711
30
0
10
-34.339970929486178
20
-92.451301922271654
30
0
10
-34.299354299305222
20
-92.468503887701957
30
0
10
-34.258810429025282
20
-92.486078471889229
30
0
10
-34.21834328388389
20
-92.504029386916471
30
0
10
-34.177960507236662
20
-92.522374650406618
30
0
10
-34.137670267896773
20
-92.541134831516473
30
0
10
-34.097477769908068
20
-92.560320038413522
30
0
10
-34.057383789047648
20
-92.579924431359018
30
0
10
-34.017386560866555
20
-92.599933176219906
30
0
10
-33.977482909346961
20
-92.620326578634717
30
0
10
-33.937669577561387
20
-92.641084970620568
30
0
10
-33.897944717412258
20
-92.662194181405084
30
0
10
-33.858308397161309
20
-92.683647385053888
30
0
10
-33.818761797453121
20
-92.705442108249684
30
0
10
-33.77930672490875
20
-92.727578409819984
30
0
10
-33.73994504207856
20
-92.750056752920003
30
0
10
-33.700678022854824
20
-92.772875599351323
30
0
10
-33.661506159902927
20
-92.796030682897438
30
0
10
-33.622429504005815
20
-92.819516257509562
30
0
10
-33.583447868929994
20
-92.843325846590858
30
0
10
-33.544561071010477
20
-92.867453121326164
30
0
10
-33.505769199616324
20
-92.89189289416899
30
0
10
-33.467072693635558
20
-92.916641391755022
30
0
10
-33.428472198470438
20
-92.941695712840868
30
0
10
-33.389968478232873
20
-92.967053491178305
30
0
10
-33.351562312953227
20
-92.992712504233381
30
0
10
-33.313254381865832
20
-93.018670227705158
30
0
10
-33.275045227184627
20
-93.044923699578277
30
0
10
-33.236935313370921
20
-93.071469749794062
30
0
10
-33.198925061442559
20
-93.098305136016933
30
0
10
-33.161014889969422
20
-93.125426702973115
30
0
10
-33.12320525900158
20
-93.152831559816036
30
0
10
-33.08549668777377
20
-93.180517136298846
30
0
10
-33.047889736284858
20
-93.208481075925107
30
0
10
-33.0103849953721
20
-93.236721166369676
30
0
10
-32.972983073031671
20
-93.265235259354967
30
0
10
-32.935684580652456
20
-93.294021177604208
30
0
10
-32.898490121997966
20
-93.323076679712329
30
0
10
-32.861400288786172
20
-93.352399521419784
30
0
10
-32.82441565319489
20
-93.381987493986358
30
0
10
-32.787536762507436
20
-93.411838466149277
30
0
10
-32.750764128004867
20
-93.441950431604397
30
0
10
-32.71409822872635
20
-93.472321522844311
30
0
10
-32.677539546249825
20
-93.502949951484737
30
0
10
-32.641088593848728
20
-93.533833960352439
30
0
10
-32.604745944098745
20
-93.564971773397545
30
0
10
-32.568512263629245
20
-93.596361534344084
30
0
10
-32.532388321774675
20
-93.628001280118838
30
0
10
-32.496374910701903
20
-93.659889039874571
30
0
10
-32.460472778308983
20
-93.692022912499908
30
0
10
-32.424682557635762
20
-93.724401149401928
30
0
10
-32.389004691257668
20
-93.757022236786042
30
0
10
-32.353439372978123
20
-93.789884966699361
30
0
10
-32.31798663018219
20
-93.822988420087228
30
0
10
-32.28971443901645
20
-93.849663250211847
30
0
10
-32.268560878065514
20
-93.869777242953802
30
0
10
-32.25448097769209
20
-93.883234497820609
30
0
10
-32.247446645904787
20
-93.889975106846634
30
0
0
SPLINE
5
152
100
AcDbEntity
8
0
100
AcDbSpline
70
0
71
5
72
81
73
75
74
0
42
0.000000001
43
0.0000000001
44
0.0000000001
40
0
40
0
40
0
40
0
40
0
40
0
40
0.014285714285714284
40
0.028571428571428567
40
0.042857142857142858
40
0.057142857142857134
40
0.071428571428571438
40
0.085714285714285715
40
0.10000000000000001
40
0.1142857142857143
40
0.12857142857142859
40
0.14285714285714288
40
0.15714285714285714
40
0.17142857142857146
40
0.18571428571428572
40
0.20000000000000004
40
0.21428571428571436
40
0.22857142857142865
40
0.24285714285714291
40
0.25714285714285717
40
0.27142857142857146
40
0.2857142857142857
40
0.30000000000000004
40
0.31428571428571433
40
0.32857142857142863
40
0.34285714285714292
40
0.35714285714285721
40
0.3714285714285715
40
0.38571428571428573
40
0.40000000000000008
40
0.41428571428571442
40
0.42857142857142871
40
0.44285714285714295
40
0.4571428571428573
40
0.47142857142857147
40
0.48571428571428582
40
0.50000000000000011
40
0.51428571428571435
40
0.52857142857142858
40
0.54285714285714282
40
0.55714285714285705
40
0.57142857142857129
40
0.58571428571428552
40
0.59999999999999976
40
0.61428571428571399
40
0.62857142857142823
40
0.64285714285714246
40
0.6571428571428567
40
0.67142857142857093
40
0.68571428571428517
40
0.6999999999999994
40
0.71428571428571364
40
0.72857142857142776
40
0.74285714285714211
40
0.75714285714285634
40
0.77142857142857058
40
0.78571428571428481
40
0.79999999999999905
40
0.81428571428571328
40
0.82857142857142752
40
0.84285714285714175
40
0.85714285714285599
40
0.87142857142857022
40
0.88571428571428445
40
0.89999999999999869
40
0.91428571428571281
40
0.92857142857142716
40
0.94285714285714117
40
0.95714285714285563
40
0.97142857142856975
40
0.98571428571428399
40
1
40
1
40
1
40
1
40
1
40
1
10
-45.864244606226627
20
-77.257837216751284
30
0
10
-45.862334942059597
20
-77.249438807511837
30
0
10
-45.858763679068971
20
-77.232611624119357
30
0
10
-45.854150971230759
20
-77.207279754980163
30
0
10
-45.849415598045589
20
-77.173327934867487
30
0
10
-45.845428628854386
20
-77.130631422446712
30
0
10
-45.842832815421914
20
-77.087725857062978
30
0
10
-45.841094638807114
20
-77.044660335529571
30
0
10
-45.83982043183768
20
-77.001474987350164
30
0
10
-45.83886209614279
20
-76.958192539508516
30
0
10
-45.838234422793306
20
-76.914823701680433
30
0
10
-45.83805012863651
20
-76.871371230453661
30
0
10
-45.838451326359575
20
-76.82783430744179
30
0
10
-45.83953533317051
20
-76.784213204768349
30
0
10
-45.841305386727157
20
-76.740512499721632
30
0
10
-45.84370867185909
20
-76.696739122554632
30
0
10
-45.846660472838153
20
-76.652901234465318
30
0
10
-45.850072029468606
20
-76.609006865460472
30
0
10
-45.853880841804006
20
-76.565062455002305
30
0
10
-45.858066519682275
20
-76.521072097793819
30
0
10
-45.862633818829849
20
-76.477038417903231
30
0
10
-45.867602236951285
20
-76.43296311684206
30
0
10
-45.872993860779218
20
-76.388847607394268
30
0
10
-45.878819911890233
20
-76.344693715304132
30
0
10
-45.885075076091056
20
-76.300503982958062
30
0
10
-45.891744700038046
20
-76.256281316264548
30
0
10
-45.898809071836915
20
-76.212028780543562
30
0
10
-45.906248479678425
20
-76.167749356013957
30
0
10
-45.914048875263646
20
-76.123445664039963
30
0
10
-45.922203787837212
20
-76.079119878872049
30
0
10
-45.930711229973852
20
-76.034773887667072
30
0
10
-45.939571815898447
20
-75.990409390445024
30
0
10
-45.948786561657528
20
-75.946028015473729
30
0
10
-45.958354397991783
20
-75.901631449626194
30
0
10
-45.9682714197302
20
-75.85722147978845
30
0
10
-45.978532177748441
20
-75.812799929884676
30
0
10
-45.989130454887587
20
-75.768368624174769
30
0
10
-46.0000601753311
20
-75.723929343694408
30
0
10
-46.011316433045636
20
-75.679483776478605
30
0
10
-46.022895774972326
20
-75.635033505968437
30
0
10
-46.034795641305081
20
-75.590580042511363
30
0
10
-46.047014017731613
20
-75.546124844031951
30
0
10
-46.059549031539149
20
-75.501669339183934
30
0
10
-46.072398491869819
20
-75.45721495400943
30
0
10
-46.085559749232928
20
-75.412763119497598
30
0
10
-46.099029932249955
20
-75.3683152569794
30
0
10
-46.112806087378154
20
-75.32387276880344
30
0
10
-46.126885343119127
20
-75.279437028086505
30
0
10
-46.141265092277621
20
-75.235009365682942
30
0
10
-46.155943050855953
20
-75.190591069664308
30
0
10
-46.170917150742127
20
-75.146183400818572
30
0
10
-46.186185470468502
20
-75.10178760471149
30
0
10
-46.201746154782938
20
-75.057404923436025
30
0
10
-46.217597321901664
20
-75.01303661127308
30
0
10
-46.233737026695003
20
-74.968683935068142
30
0
10
-46.250163317596211
20
-74.924348151092801
30
0
10
-46.266874270781116
20
-74.880030486058743
30
0
10
-46.283868028418311
20
-74.835732119059742
30
0
10
-46.301142840393616
20
-74.791454156335078
30
0
10
-46.318697078633207
20
-74.747197630569573
30
0
10
-46.336529191098386
20
-74.702963552412214
30
0
10
-46.354637665228239
20
-74.658752953011444
30
0
10
-46.373020988834597
20
-74.61456692574869
30
0
10
-46.391677602493942
20
-74.570406678246954
30
0
10
-46.410605876950058
20
-74.526273548809797
30
0
10
-46.429804182608905
20
-74.482168899857967
30
0
10
-46.449270942519334
20
-74.438094030160457
30
0
10
-46.469004689290685
20
-74.394050082118937
30
0
10
-46.489004119982113
20
-74.350037944435869
30
0
10
-46.50926814565068
20
-74.306058174707218
30
0
10
-46.529795900685954
20
-74.262111082981264
30
0
10
-46.546428584158605
20
-74.226979655512565
30
0
10
-46.559021318199157
20
-74.200645857945332
30
0
10
-46.567468999637178
20
-74.183096556494931
30
0
10
-46.571705971708852
20
-74.174323546669342
30
0
0
SPLINE
5
153
100
AcDbEntity
8
0
100
AcDbSpline
70
0
71
5
72
81
73
75
74
0
42
0.000000001
43
0.0000000001
44
0.0000000001
40
0
40
0
40
0
40
0
40
0
40
0
40
0.014285714285714284
40
0.028571428571428567
40
0.042857142857142858
40
0.057142857142857134
40
0.071428571428571438
40
0.085714285714285715
40
0.10000000000000001
40
0.1142857142857143
40
0.12857142857142859
40
0.14285714285714288
40
0.15714285714285714
40
0.17142857142857146
40
0.18571428571428572
40
0.20000000000000004
40
0.21428571428571436
40
0.22857142857142865
40
0.24285714285714291
40
0.25714285714285717
40
0.27142857142857146
40
0.2857142857142857
40
0.30000000000000004
40
0.31428571428571433
40
0.32857142857142863
40
0.34285714285714292
40
0.35714285714285721
40
0.3714285714285715
40
0.38571428571428573
40
0.40000000000000008
40
0.41428571428571442
40
0.42857142857142871
40
0.44285714285714295
40
0.4571428571428573
40
0.47142857142857147
40
0.48571428571428582
40
0.50000000000000011
40
0.51428571428571435
40
0.52857142857142858
40
0.54285714285714282
40
0.55714285714285705
40
0.57142857142857129
40
0.58571428571428552
40
0.59999999999999976
40
0.61428571428571399
40
0.62857142857142823
40
0.64285714285714246
40
0.6571428571428567
40
0.67142857142857093
40
0.68571428571428517
40
0.6999999999999994
40
0.71428571428571364
40
0.72857142857142776
40
0.74285714285714211
40
0.75714285714285634
40
0.77142857142857058
40
0.78571428571428481
40
0.79999999999999905
40
0.81428571428571328
40
0.82857142857142752
40
0.84285714285714175
40
0.85714285714285599
40
0.87142857142857022
40
0.88571428571428445
40
0.89999999999999869
40
0.91428571428571281
40
0.92857142857142716
40
0.94285714285714117
40
0.95714285714285563
40
0.97142857142856975
40
0.98571428571428399
40
1
40
1
40
1
40
1
40
1
40
1
10
-49.21007531514941
20
-76.906176238761532
30
0
10
-49.210197121107441
20
-76.897564313408125
30
0
10
-49.210191775282482
20
-76.880362337018923
30
0
10
-49.209436892643012
20
-76.854624994112427
30
0
10
-49.207009806236705
20
-76.820430563283097
30
0
10
-49.20203254649585
20
-76.777838134593225
30
0
10
-49.195651066532342
20
-76.735330458795218
30
0
10
-49.188397434419798
20
-76.692844634994032
30
0
10
-49.180665058151263
20
-76.650338067760032
30
0
10
-49.172603524998422
20
-76.607802196055147
30
0
10
-49.164200593777636
20
-76.565250570759616
30
0
10
-49.155346583901959
20
-76.522709323373448
30
0
10
-49.145902318035326
20
-76.480207200283004
30
0
10
-49.135772662161862
20
-76.43776470105054
30
0
10
-49.124955401046066
20
-76.395386976086513
30
0
10
-49.113503636600797
20
-76.353069823309895
30
0
10
-49.101501930120747
20
-76.310803612186618
30
0
10
-49.089038771710733
20
-76.268577742966158
30
0
10
-49.076176634382868
20
-76.226385519923497
30
0
10
-49.062936314061893
20
-76.184226708929486
30
0
10
-49.049313704519889
20
-76.142104865481272
30
0
10
-49.035290087888029
20
-76.100025707708966
30
0
10
-49.020844153816093
20
-76.057995209613793
30
0
10
-49.005965305539462
20
-76.016017490140058
30
0
10
-48.99065926971538
20
-75.974093931234009
30
0
10
-48.974940983649105
20
-75.932224328701636
30
0
10
-48.958830365798633
20
-75.890407582545038
30
0
10
-48.942347316845186
20
-75.848642509542529
30
0
10
-48.925506123110964
20
-75.806928752969696
30
0
10
-48.908313566001844
20
-75.765267094218714
30
0
10
-48.890771981875091
20
-75.723658965998538
30
0
10
-48.872881123382129
20
-75.682106158884253
30
0
10
-48.854640335215421
20
-75.640610476810039
30
0
10
-48.836051013988985
20
-75.599173347475187
30
0
10
-48.817117351050996
20
-75.55779570678726
30
0
10
-48.79784505566451
20
-75.516478205876638
30
0
10
-48.778240588413546
20
-75.475221336518786
30
0
10
-48.758310262641643
20
-75.434025577596145
30
0
10
-48.738059228135739
20
-75.392891560234474
30
0
10
-48.71749119171298
20
-75.351820115341496
30
0
10
-48.696608971260495
20
-75.310812188046413
30
0
10
-48.675414840192524
20
-75.269868785615529
30
0
10
-48.653910927332404
20
-75.228990916124175
30
0
10
-48.632099672153338
20
-75.188179518947067
30
0
10
-48.609983963767661
20
-75.147435442942751
30
0
10
-48.587566906318727
20
-75.106759481389545
30
0
10
-48.564851680371923
20
-75.066152391915267
30
0
10
-48.541841380163575
20
-75.025614920612725
30
0
10
-48.518538832615647
20
-74.985147827187546
30
0
10
-48.494946539620088
20
-74.944751896694001
30
0
10
-48.471066786228299
20
-74.904427932384181
30
0
10
-48.446901710886877
20
-74.864176753109618
30
0
10
-48.422453386551929
20
-74.823999188091989
30
0
10
-48.397723914665391
20
-74.783896072958285
30
0
10
-48.372715461243168
20
-74.743868242455193
30
0
10
-48.347430196399159
20
-74.703916519648189
30
0
10
-48.321870256965042
20
-74.664041704456835
30
0
10
-48.296037705321538
20
-74.624244563944046
30
0
10
-48.269934483338716
20
-74.58452581630587
30
0
10
-48.24356239822032
20
-74.544886133164951
30
0
10
-48.216923178215026
20
-74.505326180398143
30
0
10
-48.190018517218491
20
-74.465846652141749
30
0
10
-48.1628501217007
20
-74.426448303482559
30
0
10
-48.135419768086969
20
-74.387131991431787
30
0
10
-48.107729328279333
20
-74.347898686306394
30
0
10
-48.079780679524482
20
-74.308749381943315
30
0
10
-48.051575634342647
20
-74.269685020863776
30
0
10
-48.023115865577154
20
-74.230706415417515
30
0
10
-47.994402832468104
20
-74.191814163990074
30
0
10
-47.965437716093142
20
-74.153008585588722
30
0
10
-47.936221427609667
20
-74.114289803515817
30
0
10
-47.912647973691271
20
-74.0833842113706
30
0
10
-47.894855316724971
20
-74.060244047088389
30
0
10
-47.882943532457382
20
-74.04483461171138
30
0
10
-47.876975137084699
20
-74.037134229226652
30
0
0
ARC
5
154
100
AcDbEntity
8
0
100
AcDbCircle
10
-49.695088276599137
20
-77.969325691748168
30
0
40
0.499999999999996
210
0
220
0
230
1
100
AcDbArc
50
-86.946595814436378
51
0.81033006042939748
0
ARC
5
155
100
AcDbEntity
8
0
100
AcDbCircle
10
-51.029330597870555
20
-78.109560210584505
30
0
40
0.49999999999999706
210
0
220
0
230
1
100
AcDbArc
50
191.18966993957108
51
278.94659581444233
0
ARC
5
156
100
AcDbEntity
8
0
100
AcDbCircle
10
-49
20
-91.000000000000014
30
0
40
17.000000000000014
210
0
220
0
230
1
100
AcDbArc
50
105.78773391907686
51
110.2122660809232
0
ARC
5
157
100
AcDbEntity
8
0
100
AcDbCircle
10
-54.935047462900179
20
-79.378604547941663
30
0
40
0.50000000000000266
210
0
220
0
230
1
100
AcDbArc
50
-62.946595814438275
51
24.810330060428974
0
SPLINE
5
158
100
AcDbEntity
8
0
100
AcDbSpline
70
0
71
5
72
81
73
75
74
0
42
0.000000001
43
0.0000000001
44
0.0000000001
40
0
40
0
40
0
40
0
40
0
40
0
40
0.014285714285714284
40
0.028571428571428567
40
0.042857142857142858
40
0.057142857142857134
40
0.071428571428571438
40
0.085714285714285715
40
0.10000000000000001
40
0.1142857142857143
40
0.12857142857142859
40
0.14285714285714288
40
0.15714285714285714
40
0.17142857142857146
40
0.18571428571428572
40
0.20000000000000004
40
0.21428571428571436
40
0.22857142857142865
40
0.24285714285714291
40
0.25714285714285717
40
0.27142857142857146
40
0.2857142857142857
40
0.30000000000000004
40
0.31428571428571433
40
0.32857142857142863
40
0.34285714285714292
40
0.35714285714285721
40
0.3714285714285715
40
0.38571428571428573
40
0.40000000000000008
40
0.41428571428571442
40
0.42857142857142871
40
0.44285714285714295
40
0.4571428571428573
40
0.47142857142857147
40
0.48571428571428582
40
0.50000000000000011
40
0.51428571428571435
40
0.52857142857142858
40
0.54285714285714282
40
0.55714285714285705
40
0.57142857142857129
40
0.58571428571428552
40
0.59999999999999976
40
0.61428571428571399
40
0.62857142857142823
40
0.64285714285714246
40
0.6571428571428567
40
0.67142857142857093
40
0.68571428571428517
40
0.6999999999999994
40
0.71428571428571364
40
0.72857142857142776
40
0.74285714285714211
40
0.75714285714285634
40
0.77142857142857058
40
0.78571428571428481
40
0.79999999999999905
40
0.81428571428571328
40
0.82857142857142752
40
0.84285714285714175
40
0.85714285714285599
40
0.87142857142857022
40
0.88571428571428445
40
0.89999999999999869
40
0.91428571428571281
40
0.92857142857142716
40
0.94285714285714117
40
0.95714285714285563
40
0.97142857142856975
40
0.98571428571428399
40
1
40
1
40
1
40
1
40
1
40
1
10
-54.924387914665658
20
-78.210096650582216
30
0
10
-54.928001975553997
20
-78.202278808240521
30
0
10
-54.934993766030701
20
-78.186561846504787
30
0
10
-54.94477246687984
20
-78.162742575370075
30
0
10
-54.956463341125463
20
-78.130517223431909
30
0
10
-54.969240289563459
20
-78.089582669753611
30
0
10
-54.980699946888798
20
-78.048154393875166
30
0
10
-54.991353965572181
20
-78.00639134455183
30
0
10
-55.001579066820703
20
-77.964414622368764
30
0
10
-55.011515387494839
20
-77.922277249053266
30
0
10
-55.021146233077332
20
-77.879986625012492
30
0
10
-55.030360776727598
20
-77.837522011445813
30
0
10
-55.039020181413754
20
-77.794853060961458
30
0
10
-55.047029199964626
20
-77.751959806351152
30
0
10
-55.054383713801222
20
-77.708846051731527
30
0
10
-55.061133943075149
20
-77.665529556804316
30
0
10
-55.067361055464147
20
-77.622035917816007
30
0
10
-55.073150202008485
20
-77.578391443580841
30
0
10
-55.078561178041312
20
-77.534615427312858
30
0
10
-55.083613076814132
20
-77.490716113589045
30
0
10
-55.088300700950086
20
-77.446695080364364
30
0
10
-55.09260462505209
20
-77.402549938167425
30
0
10
-55.096502951301304
20
-77.358277476819609
30
0
10
-55.099984323745957
20
-77.313877149071303
30
0
10
-55.103053411859591
20
-77.269352546634579
30
0
10
-55.105723944602758
20
-77.224709558518342
30
0
10
-55.108014565801724
20
-77.179955281391216
30
0
10
-55.109943936893053
20
-77.135096728662688
30
0
10
-55.111525254174396
20
-77.090139385219501
30
0
10
-55.112764394947447
20
-77.045086723145232
30
0
10
-55.113662910845534
20
-76.999941001566754
30
0
10
-55.114219847612006
20
-76.95470375565003
30
0
10
-55.114433872867494
20
-76.909376366833357
30
0
10
-55.114305681784771
20
-76.863960707439048
30
0
10
-55.113838722683049
20
-76.818459337236092
30
0
10
-55.113037946395039
20
-76.772875173228186
30
0
10
-55.111909054934856
20
-76.727211292430823
30
0
10
-55.110457621049747
20
-76.681470700193032
30
0
10
-55.108688092602222
20
-76.635656067683954
30
0
10
-55.106603517977618
20
-76.589769661673898
30
0
10
-55.104206087025261
20
-76.54381349171932
30
0
10
-55.101497466920286
20
-76.497789402684646
30
0
10
-55.098479192418381
20
-76.451699181363011
30
0
10
-55.095153110011111
20
-76.405544678139023
30
0
10
-55.091521513772044
20
-76.359327843591402
30
0
10
-55.087586916821891
20
-76.3130506649848
30
0
10
-55.083351916596719
20
-76.266715128099165
30
0
10
-55.078819036358766
20
-76.220323173063505
30
0
10
-55.073990549629634
20
-76.17387664371617
30
0
10
-55.06886842269104
20
-76.127377274851085
30
0
10
-55.063454416329236
20
-76.080826729689647
30
0
10
-55.057750151055458
20
-76.03422662607457
30
0
10
-55.051757183334537
20
-75.987578564684739
30
0
10
-55.045477093049051
20
-75.940884163636866
30
0
10
-55.038911519430947
20
-75.894145066508003
30
0
10
-55.032062110207029
20
-75.847362907870732
30
0
10
-55.024930492113555
20
-75.800539287615692
30
0
10
-55.017518237236516
20
-75.753675745335499
30
0
10
-55.009826827445792
20
-75.706773726964641
30
0
10
-55.001857640530652
20
-75.659834581116897
30
0
10
-54.993611984488282
20
-75.612859619043107
30
0
10
-54.985091124438696
20
-75.565850163837766
30
0
10
-54.976296312198343
20
-75.518807599390897
30
0
10
-54.967228822034649
20
-75.471733431158412
30
0
10
-54.957889969351726
20
-75.424629306940162
30
0
10
-54.948281064869882
20
-75.377496898196355
30
0
10
-54.938403381050804
20
-75.330337803181365
30
0
10
-54.928258115700515
20
-75.283153444420307
30
0
10
-54.91784635851586
20
-75.235944962091978
30
0
10
-54.907169058713009
20
-75.188713128011557
30
0
10
-54.896226998524071
20
-75.141458425422513
30
0
10
-54.887262013577384
20
-75.103636574590013
30
0
10
-54.880419565366793
20
-75.075260057055033
30
0
10
-54.875805190973651
20
-75.056337878215501
30
0
10
-54.873484818213768
20
-75.046875663676019
30
0
0
ARC
5
159
100
AcDbEntity
8
0
100
AcDbCircle
10
-49
20
-91.000000000000014
30
0
40
12.54920000000001
210
0
220
0
230
1
100
AcDbArc
50
117.05340418556284
51
122.94659581443723
0
ARC
5
160
100
AcDbEntity
8
0
100
AcDbCircle
10
-56.096899957457381
20
-80.049400398432908
30
0
40
0.49999999999999201
210
0
220
0
230
1
100
AcDbArc
50
215.18966993957099
51
302.94659581443671
0
LINE
5
161
100
AcDbEntity
8
0
100
AcDbLine
10
-51.519825677175326
20
-78.206588954664809
30
0
11
-51.724786062799822
21
-77.170482988807706
31
0
0
SPLINE
5
162
100
AcDbEntity
8
0
100
AcDbSpline
70
0
71
5
72
81
73
75
74
0
42
0.000000001
43
0.0000000001
44
0.0000000001
40
0
40
0
40
0
40
0
40
0
40
0
40
0.014285714285714284
40
0.028571428571428567
40
0.042857142857142858
40
0.057142857142857134
40
0.071428571428571438
40
0.085714285714285715
40
0.10000000000000001
40
0.1142857142857143
40
0.12857142857142859
40
0.14285714285714288
40
0.15714285714285714
40
0.17142857142857146
40
0.18571428571428572
40
0.20000000000000004
40
0.21428571428571436
40
0.22857142857142865
40
0.24285714285714291
40
0.25714285714285717
40
0.27142857142857146
40
0.2857142857142857
40
0.30000000000000004
40
0.31428571428571433
40
0.32857142857142863
40
0.34285714285714292
40
0.35714285714285721
40
0.3714285714285715
40
0.38571428571428573
40
0.40000000000000008
40
0.41428571428571442
40
0.42857142857142871
40
0.44285714285714295
40
0.4571428571428573
40
0.47142857142857147
40
0.48571428571428582
40
0.50000000000000011
40
0.51428571428571435
40
0.52857142857142858
40
0.54285714285714282
40
0.55714285714285705
40
0.57142857142857129
40
0.58571428571428552
40
0.59999999999999976
40
0.61428571428571399
40
0.62857142857142823
40
0.64285714285714246
40
0.6571428571428567
40
0.67142857142857093
40
0.68571428571428517
40
0.6999999999999994
40
0.71428571428571364
40
0.72857142857142776
40
0.74285714285714211
40
0.75714285714285634
40
0.77142857142857058
40
0.78571428571428481
40
0.79999999999999905
40
0.81428571428571328
40
0.82857142857142752
40
0.84285714285714175
40
0.85714285714285599
40
0.87142857142857022
40
0.88571428571428445
40
0.89999999999999869
40
0.91428571428571281
40
0.92857142857142716
40
0.94285714285714117
40
0.95714285714285563
40
0.97142857142856975
40
0.98571428571428399
40
1
40
1
40
1
40
1
40
1
40
1
10
-51.724786062799822
20
-77.170482988807706
30
0
10
-51.726457438555641
20
-77.162033929802888
30
0
10
-51.730039159557975
20
-77.145208969329417
30
0
10
-51.736128640681471
20
-77.120190998042105
30
0
10
-51.745612111356849
20
-77.087248417206425
30
0
10
-51.759336069895532
20
-77.046621565762379
30
0
10
-51.774415941958871
20
-77.006369568956913
30
0
10
-51.790344364268648
20
-76.96632027725768
30
0
10
-51.806745381828172
20
-76.926350231926335
30
0
10
-51.823474456146421
20
-76.886419958061467
30
0
10
-51.840540743521409
20
-76.84654525550927
30
0
10
-51.858046094711732
20
-76.806774488610017
30
0
10
-51.876120668984946
20
-76.767164712167883
30
0
10
-51.894853259351798
20
-76.727755757254556
30
0
10
-51.914244961809004
20
-76.688553122305038
30
0
10
-51.934244708509681
20
-76.649541656555357
30
0
10
-51.954771788326966
20
-76.610694358639975
30
0
10
-51.975741848689161
20
-76.571982462311055
30
0
10
-51.99709517388888
20
-76.533386429291625
30
0
10
-52.018811471120415
20
-76.494901706852929
30
0
10
-52.04089401765134
20
-76.456532626528812
30
0
10
-52.063359933454024
20
-76.418288673158244
30
0
10
-52.086228821131726
20
-76.380180120867124
30
0
10
-52.109510189507667
20
-76.342213201782229
30
0
10
-52.133198149742988
20
-76.30438807701195
30
0
10
-52.157278133402727
20
-76.26670144118404
30
0
10
-52.181730885997425
20
-76.229148077057872
30
0
10
-52.20653718772909
20
-76.191722689683758
30
0
10
-52.231683138633151
20
-76.154421959839112
30
0
10
-52.257161943033097
20
-76.117245241907284
30
0
10
-52.282971017749766
20
-76.08019345153312
30
0
10
-52.309110232445079
20
-76.043268391589976
30
0
10
-52.33557985304752
20
-76.006471962837864
30
0
10
-52.362378216627079
20
-75.969805271405008
30
0
10
-52.389501028840456
20
-75.933268361316905
30
0
10
-52.416942569808072
20
-75.896860682452598
30
0
10
-52.4446964178793
20
-75.860581372610156
30
0
10
-52.472756298107058
20
-75.82442958758935
30
0
10
-52.501117042021178
20
-75.788404874023428
30
0
10
-52.529774851051926
20
-75.752507273972157
30
0
10
-52.558726772386379
20
-75.716737126039703
30
0
10
-52.587970372867389
20
-75.681094942811796
30
0
10
-52.617503360600878
20
-75.645581267727678
30
0
10
-52.647323154114993
20
-75.610196512439444
30
0
10
-52.677426750943837
20
-75.574940906575804
30
0
10
-52.707810949845197
20
-75.539814580692365
30
0
10
-52.738472482236972
20
-75.504817614584198
30
0
10
-52.769408166377914
20
-75.469950094712345
30
0
10
-52.800615079169418
20
-75.435212176430895
30
0
10
-52.832090610169899
20
-75.400604107466208
30
0
10
-52.863832357256328
20
-75.366126198428475
30
0
10
-52.895838058463475
20
-75.331778805667341
30
0
10
-52.92810551372942
20
-75.297562309292147
30
0
10
-52.960632493797164
20
-75.263477089755114
30
0
10
-52.993416706429826
20
-75.229523513221693
30
0
10
-53.026455857810802
20
-75.195701933579329
30
0
10
-53.059747691490678
20
-75.162012688995162
30
0
10
-53.09329003067532
20
-75.128456100976848
30
0
10
-53.127080826607852
20
-75.09503246828865
30
0
10
-53.161118171938071
20
-75.061742072137861
30
0
10
-53.195400237740088
20
-75.028585204527232
30
0
10
-53.229925222814884
20
-74.99556219224381
30
0
10
-53.264691300991558
20
-74.962673419078868
30
0
10
-53.299696556481308
20
-74.929919353976246
30
0
10
-53.334938956547397
20
-74.897300556858895
30
0
10
-53.370416458335164
20
-74.864817609544446
30
0
10
-53.406127092971133
20
-74.832471057113622
30
0
10
-53.442069055270586
20
-74.800261346360742
30
0
10
-53.478240793469986
20
-74.768188759202076
30
0
10
-53.514641085975718
20
-74.736253362113942
30
0
10
-53.551269015905348
20
-74.704455086264019
30
0
10
-53.58075296721529
20
-74.679126052120509
30
0
10
-53.602967922619264
20
-74.660190857341277
30
0
10
-53.617823207584848
20
-74.647594754306326
30
0
10
-53.625262178741202
20
-74.641303542827558
30
0
0
ARC
5
163
100
AcDbEntity
8
0
100
AcDbCircle
10
-49
20
-91.000000000000014
30
0
40
12.549200000000017
210
0
220
0
230
1
100
AcDbArc
50
93.053404185562854
51
98.946595814437003
0
LINE
5
164
100
AcDbEntity
8
0
100
AcDbLine
10
-54.924387914665658
20
-78.210096650582216
30
0
11
-54.481196543266471
21
-79.168796676908116
31
0
0
LINE
5
165
100
AcDbEntity
8
0
100
AcDbLine
10
-49.21007531514941
20
-76.906176238761532
30
0
11
-49.195138281365764
21
-77.962254463696482
31
0
0
LINE
5
166
100
AcDbEntity
8
0
100
AcDbLine
10
-56.505524363503213
20
-80.337542888849853
30
0
11
-57.114187255210673
21
-79.474377889317125
31
0
0
ARC
5
167
100
AcDbEntity
8
0
100
AcDbCircle
10
-49
20
-91.000000000000014
30
0
40
17.000000000000014
210
0
220
-0
230
1
100
AcDbArc
50
81.787733919076885
51
86.212266080923214
0
SPLINE
5
168
100
AcDbEntity
8
0
100
AcDbSpline
70
0
71
5
72
81
73
75
74
0
42
0.000000001
43
0.0000000001
44
0.0000000001
40
0
40
0
40
0
40
0
40
0
40
0
40
0.014285714285714284
40
0.028571428571428567
40
0.042857142857142858
40
0.057142857142857134
40
0.071428571428571438
40
0.085714285714285715
40
0.10000000000000001
40
0.1142857142857143
40
0.12857142857142859
40
0.14285714285714288
40
0.15714285714285714
40
0.17142857142857146
40
0.18571428571428572
40
0.20000000000000004
40
0.21428571428571436
40
0.22857142857142865
40
0.24285714285714291
40
0.25714285714285717
40
0.27142857142857146
40
0.2857142857142857
40
0.30000000000000004
40
0.31428571428571433
40
0.32857142857142863
40
0.34285714285714292
40
0.35714285714285721
40
0.3714285714285715
40
0.38571428571428573
40
0.40000000000000008
40
0.41428571428571442
40
0.42857142857142871
40
0.44285714285714295
40
0.4571428571428573
40
0.47142857142857147
40
0.48571428571428582
40
0.50000000000000011
40
0.51428571428571435
40
0.52857142857142858
40
0.54285714285714282
40
0.55714285714285705
40
0.57142857142857129
40
0.58571428571428552
40
0.59999999999999976
40
0.61428571428571399
40
0.62857142857142823
40
0.64285714285714246
40
0.6571428571428567
40
0.67142857142857093
40
0.68571428571428517
40
0.6999999999999994
40
0.71428571428571364
40
0.72857142857142776
40
0.74285714285714211
40
0.75714285714285634
40
0.77142857142857058
40
0.78571428571428481
40
0.79999999999999905
40
0.81428571428571328
40
0.82857142857142752
40
0.84285714285714175
40
0.85714285714285599
40
0.87142857142857022
40
0.88571428571428445
40
0.89999999999999869
40
0.91428571428571281
40
0.92857142857142716
40
0.94285714285714117
40
0.95714285714285563
40
0.97142857142856975
40
0.98571428571428399
40
1
40
1
40
1
40
1
40
1
40
1
10
-57.114187255210673
20
-79.474377889317125
30
0
10
-57.119150674837186
20
-79.467339099606164
30
0
10
-57.129266067732274
20
-79.45342555056753
30
0
10
-57.145004811210008
20
-79.433047311648821
30
0
10
-57.167067347511548
20
-79.406810041590575
30
0
10
-57.196129236670536
20
-79.375277602821271
30
0
10
-57.226277347353573
20
-79.344639110519651
30
0
10
-57.257118199665399
20
-79.314530935025786
30
0
10
-57.288358556819276
20
-79.284687376496763
30
0
10
-57.319882432222172
20
-79.255013583715055
30
0
10
-57.35169176419214
20
-79.225527714760304
30
0
10
-57.383859926477641
20
-79.196315379091558
30
0
10
-57.416482619206818
20
-79.167481639409516
30
0
10
-57.449624758074911
20
-79.139098998579925
30
0
10
-57.483285107909751
20
-79.111172925455136
30
0
10
-57.517423178282641
20
-79.083668807958944
30
0
10
-57.551976218355058
20
-79.056529150943689
30
0
10
-57.586878868505352
20
-79.029693365852481
30
0
10
-57.622084522653488
20
-79.0031193150148
30
0
10
-57.657576494160601
20
-78.976794585478288
30
0
10
-57.693356015166046
20
-78.950724467280821
30
0
10
-57.729434867711262
20
-78.924924588574044
30
0
10
-57.76582678080193
20
-78.899412308336068
30
0
10
-57.802537906345997
20
-78.87419718748481
30
0
10
-57.839562799092775
20
-78.849276977993597
30
0
10
-57.876889494530701
20
-78.824642734738262
30
0
10
-57.914502524851329
20
-78.800281860025933
30
0
10
-57.95238648554556
20
-78.776181699283242
30
0
10
-57.99053002841336
20
-78.752333566624586
30
0
10
-58.028927207891257
20
-78.72873410819912
30
0
10
-58.06757529170136
20
-78.705383109816424
30
0
10
-58.106473427479266
20
-78.682282165469999
30
0
10
-58.145621085053953
20
-78.659433119753373
30
0
10
-58.185016295360406
20
-78.636836306790386
30
0
10
-58.224655117414031
20
-78.61449002013353
30
0
10
-58.26453254959916
20
-78.592391430737734
30
0
10
-58.304643076135164
20
-78.570537139021695
30
0
10
-58.344981307939783
20
-78.54892382151921
30
0
10
-58.385542707781468
20
-78.527548961852943
30
0
10
-58.426323788386824
20
-78.506411053428906
30
0
10
-58.467321714504308
20
-78.485509204560188
30
0
10
-58.508534054846855
20
-78.464842893862965
30
0
10
-58.549958494628399
20
-78.444411685596393
30
0
10
-58.591592508123057
20
-78.424214905844167
30
0
10
-58.633433259043329
20
-78.404251543169664
30
0
10
-58.675477769807202
20
-78.384520414778876
30
0
10
-58.717723021960744
20
-78.365020264116069
30
0
10
-58.760166073671826
20
-78.345749876036621
30
0
10
-58.802804191368793
20
-78.32670820353222
30
0
10
-58.845634889535205
20
-78.307894411149903
30
0
10
-58.888655847385927
20
-78.289307805614769
30
0
10
-58.931864853572463
20
-78.270947792444233
30
0
10
-58.975259743633814
20
-78.252813824039706
30
0
10
-59.018838326298507
20
-78.23490534124106
30
0
10
-59.062598358571101
20
-78.217221746220332
30
0
10
-59.106537601006806
20
-78.199762429290516
30
0
10
-59.150653854691569
20
-78.182526781602036
30
0
10
-59.19494500025607
20
-78.165514211484776
30
0
10
-59.239409044549348
20
-78.148724158569024
30
0
10
-59.284044130743013
20
-78.132156103961165
30
0
10
-59.328848469261914
20
-78.115809570527844
30
0
10
-59.373820281712575
20
-78.099684124190205
30
0
10
-59.418957743702919
20
-78.083779372788428
30
0
10
-59.464258914336121
20
-78.068094965502524
30
0
10
-59.509721708873606
20
-78.052630587058999
30
0
10
-59.555344024428223
20
-78.037385938070912
30
0
10
-59.60112384064022
20
-78.022360715681288
30
0
10
-59.647059326663729
20
-78.007554593822235
30
0
10
-59.693148950226494
20
-77.992967198878034
30
0
10
-59.739391568308882
20
-77.978598094710918
30
0
10
-59.785786371293746
20
-77.964446845509755
30
0
10
-59.82302354740618
20
-77.953299824801874
30
0
10
-59.851019556567707
20
-77.945037300008835
30
0
10
-59.869713831334266
20
-77.939572376036097
30
0
10
-59.879068535881459
20
-77.936850770522668
30
0
0
ARC
5
169
100
AcDbEntity
8
0
100
AcDbCircle
10
-49
20
-91.000000000000014
30
0
40
12.549200000000013
210
0
220
0
230
1
100
AcDbArc
50
141.05340418556278
51
146.9465958144369
0
SPLINE
5
170
100
AcDbEntity
8
0
100
AcDbSpline
70
0
71
5
72
81
73
75
74
0
42
0.000000001
43
0.0000000001
44
0.0000000001
40
0
40
0
40
0
40
0
40
0
40
0
40
0.014285714285714284
40
0.028571428571428567
40
0.042857142857142858
40
0.057142857142857134
40
0.071428571428571438
40
0.085714285714285715
40
0.10000000000000001
40
0.1142857142857143
40
0.12857142857142859
40
0.14285714285714288
40
0.15714285714285714
40
0.17142857142857146
40
0.18571428571428572
40
0.20000000000000004
40
0.21428571428571436
40
0.22857142857142865
40
0.24285714285714291
40
0.25714285714285717
40
0.27142857142857146
40
0.2857142857142857
40
0.30000000000000004
40
0.31428571428571433
40
0.32857142857142863
40
0.34285714285714292
40
0.35714285714285721
40
0.3714285714285715
40
0.38571428571428573
40
0.40000000000000008
40
0.41428571428571442
40
0.42857142857142871
40
0.44285714285714295
40
0.4571428571428573
40
0.47142857142857147
40
0.48571428571428582
40
0.50000000000000011
40
0.51428571428571435
40
0.52857142857142858
40
0.54285714285714282
40
0.55714285714285705
40
0.57142857142857129
40
0.58571428571428552
40
0.59999999999999976
40
0.61428571428571399
40
0.62857142857142823
40
0.64285714285714246
40
0.6571428571428567
40
0.67142857142857093
40
0.68571428571428517
40
0.6999999999999994
40
0.71428571428571364
40
0.72857142857142776
40
0.74285714285714211
40
0.75714285714285634
40
0.77142857142857058
40
0.78571428571428481
40
0.79999999999999905
40
0.81428571428571328
40
0.82857142857142752
40
0.84285714285714175
40
0.85714285714285599
40
0.87142857142857022
40
0.88571428571428445
40
0.89999999999999869
40
0.91428571428571281
40
0.92857142857142716
40
0.94285714285714117
40
0.95714285714285563
40
0.97142857142856975
40
0.98571428571428399
40
1
40
1
40
1
40
1
40
1
40
1
10
-61.100571756118562
20
-83.771157559753362
30
0
10
-61.107968999271094
20
-83.766746110022694
30
0
10
-61.122869020731926
20
-83.758149751448286
30
0
10
-61.145535654834603
20
-83.745934827537695
30
0
10
-61.17636244380391
20
-83.730939530608083
30
0
10
-61.215737198928636
20
-83.713953749639956
30
0
10
-61.255740666007284
20
-83.698226435503088
30
0
10
-61.296161284776105
20
-83.683265353281655
30
0
10
-61.336839239962693
20
-83.668708503944842
30
0
10
-61.377707152007659
20
-83.65442206059619
30
0
10
-61.418759406096299
20
-83.640423399851898
30
0
10
-61.460028211979235
20
-83.626820573636493
30
0
10
-61.501558263223643
20
-83.613748486251893
30
0
10
-61.543379373695799
20
-83.601299775953663
30
0
10
-61.585488190627125
20
-83.589478936397299
30
0
10
-61.627861802170145
20
-83.578237878936761
30
0
10
-61.670466267964642
20
-83.567498556075606
30
0
10
-61.713266522611441
20
-83.557179033259843
30
0
10
-61.75623712827246
20
-83.547221859411408
30
0
10
-61.799367889747117
20
-83.537608907666595
30
0
10
-61.842657780998493
20
-83.52834551187172
30
0
10
-61.886111208915089
20
-83.51945074124167
30
0
10
-61.9297336550352
20
-83.510946038081784
30
0
10
-61.973526850630719
20
-83.502842638931554
30
0
10
-62.01748673557244
20
-83.495136275333408
30
0
10
-62.061606018044969
20
-83.487813909104545
30
0
10
-62.105875691445426
20
-83.480857740355418
30
0
10
-62.150286830133226
20
-83.474249942979668
30
0
10
-62.19483259987971
20
-83.467977966297155
30
0
10
-62.239508933276412
20
-83.462036328134161
30
0
10
-62.284313421382365
20
-83.456423721500499
30
0
10
-62.329244637188381
20
-83.451141255893759
30
0
10
-62.374301346095358
20
-83.44619040079408
30
0
10
-62.419481613372469
20
-83.441570660547839
30
0
10
-62.464782532825879
20
-83.437278873294858
30
0
10
-62.510200685928609
20
-83.433310420233497
30
0
10
-62.5557324164986
20
-83.429659952221556
30
0
10
-62.601374153139737
20
-83.426322241184394
30
0
10
-62.647122774387604
20
-83.423293142838602
30
0
10
-62.692975707246426
20
-83.420569862440189
30
0
10
-62.738930724266773
20
-83.418150432191922
30
0
10
-62.784985816423273
20
-83.416033386892465
30
0
10
-62.831139046285422
20
-83.414217386964424
30
0
10
-62.877388380594255
20
-83.412700789449374
30
0
10
-62.923731639660552
20
-83.411481516731925
30
0
10
-62.970166584413469
20
-83.410557277184182
30
0
10
-63.016690968445353
20
-83.409925695169676
30
0
10
-63.063302598502702
20
-83.409584464047526
30
0
10
-63.109999403200199
20
-83.409531515484346
30
0
10
-63.156779451714883
20
-83.409765075305259
30
0
10
-63.203640905884384
20
-83.41028356622374
30
0
10
-63.250581987339146
20
-83.411085545716503
30
0
10
-63.297600941474101
20
-83.41216963316171
30
0
10
-63.344695993894042
20
-83.413534426470761
30
0
10
-63.391865338679203
20
-83.41517846719222
30
0
10
-63.439107177977036
20
-83.417100287485056
30
0
10
-63.48641975062101
20
-83.419298436758538
30
0
10
-63.533801361124816
20
-83.421771512469974
30
0
10
-63.58125041657739
20
-83.424518192008634
30
0
10
-63.628765431734593
20
-83.427537246101465
30
0
10
-63.676344965805811
20
-83.43082751097964
30
0
10
-63.723987570703535
20
-83.434387866754662
30
0
10
-63.771691739268448
20
-83.438217213123536
30
0
10
-63.81945584109441
20
-83.442314440162434
30
0
10
-63.867278099911232
20
-83.446678411915116
30
0
10
-63.915156716407573
20
-83.451307999556718
30
0
10
-63.963089968075984
20
-83.456202104659312
30
0
10
-64.011076314979277
20
-83.461359684672914
30
0
10
-64.05911450928032
20
-83.46677977505135
30
0
10
-64.107203684171935
20
-83.47246151245497
30
0
10
-64.155343277292403
20
-83.478404169449476
30
0
10
-64.193895032168371
20
-83.483366583325164
30
0
10
-64.222831330767661
20
-83.487205394117694
30
0
10
-64.242132185395903
20
-83.489816584209322
30
0
10
-64.251785109932882
20
-83.491135174979519
30
0
0
LINE
5
171
100
AcDbEntity
8
0
100
AcDbLine
10
-62.468939770121153
20
-86.844562439437453
30
0
11
-61.459933895294654
21
-87.156702595017634
31
0
0
SPLINE
5
172
100
AcDbEntity
8
0
100
AcDbSpline
70
0
71
5
72
81
73
75
74
0
42
0.000000001
43
0.0000000001
44
0.0000000001
40
0
40
0
40
0
40
0
40
0
40
0
40
0.014285714285714284
40
0.028571428571428567
40
0.042857142857142858
40
0.057142857142857134
40
0.071428571428571438
40
0.085714285714285715
40
0.10000000000000001
40
0.1142857142857143
40
0.12857142857142859
40
0.14285714285714288
40
0.15714285714285714
40
0.17142857142857146
40
0.18571428571428572
40
0.20000000000000004
40
0.21428571428571436
40
0.22857142857142865
40
0.24285714285714291
40
0.25714285714285717
40
0.27142857142857146
40
0.2857142857142857
40
0.30000000000000004
40
0.31428571428571433
40
0.32857142857142863
40
0.34285714285714292
40
0.35714285714285721
40
0.3714285714285715
40
0.38571428571428573
40
0.40000000000000008
40
0.41428571428571442
40
0.42857142857142871
40
0.44285714285714295
40
0.4571428571428573
40
0.47142857142857147
40
0.48571428571428582
40
0.50000000000000011
40
0.51428571428571435
40
0.52857142857142858
40
0.54285714285714282
40
0.55714285714285705
40
0.57142857142857129
40
0.58571428571428552
40
0.59999999999999976
40
0.61428571428571399
40
0.62857142857142823
40
0.64285714285714246
40
0.6571428571428567
40
0.67142857142857093
40
0.68571428571428517
40
0.6999999999999994
40
0.71428571428571364
40
0.72857142857142776
40
0.74285714285714211
40
0.75714285714285634
40
0.77142857142857058
40
0.78571428571428481
40
0.79999999999999905
40
0.81428571428571328
40
0.82857142857142752
40
0.84285714285714175
40
0.85714285714285599
40
0.87142857142857022
40
0.88571428571428445
40
0.89999999999999869
40
0.91428571428571281
40
0.92857142857142716
40
0.94285714285714117
40
0.95714285714285563
40
0.97142857142856975
40
0.98571428571428399
40
1
40
1
40
1
40
1
40
1
40
1
10
-62.994657470150258
20
-89.317869760080129
30
0
10
-63.003209486285883
20
-89.316848430064923
30
0
10
-63.020317787239421
20
-89.315055650447761
30
0
10
-63.045993045010789
20
-89.313116112858552
30
0
10
-63.080253854782491
20
-89.311955612124649
30
0
10
-63.123133223003471
20
-89.312453484798084
30
0
10
-63.166075083599758
20
-89.314356744318388
30
0
10
-63.20908637663063
20
-89.317129662402678
30
0
10
-63.252168341850549
20
-89.320376533753205
30
0
10
-63.295313857271687
20
-89.323947695680886
30
0
10
-63.338510725799047
20
-89.327856738763543
30
0
10
-63.38174442382693
20
-89.332215474231944
30
0
10
-63.425000910437738
20
-89.337165321809735
30
0
10
-63.468269742580468
20
-89.342803037146439
30
0
10
-63.51154602961428
20
-89.349131361706753
30
0
10
-63.554828399939439
20
-89.356097045238556
30
0
10
-63.598117592270754
20
-89.363614983017897
30
0
10
-63.641414898557507
20
-89.371596061722329
30
0
10
-63.684720447636913
20
-89.379977450679633
30
0
10
-63.72803229858949
20
-89.388738443414155
30
0
10
-63.771347344613119
20
-89.397883495310069
30
0
10
-63.814661855452314
20
-89.407431819405176
30
0
10
-63.857972117370217
20
-89.417405233762508
30
0
10
-63.901275141650018
20
-89.427814707643421
30
0
10
-63.944568955317258
20
-89.438654690214591
30
0
10
-63.987852200073768
20
-89.449910304654807
30
0
10
-64.031123887845766
20
-89.461561626640417
30
0
10
-64.074383115185483
20
-89.473588740827836
30
0
10
-64.117628743535874
20
-89.485977401868979
30
0
10
-64.160859286935349
20
-89.498720947184935
30
0
10
-64.204073076307623
20
-89.511817202976147
30
0
10
-64.247268356741614
20
-89.525266602402212
30
0
10
-64.290443402683508
20
-89.539069985743325
30
0
10
-64.333596648269221
20
-89.553226113271464
30
0
10
-64.376726724602989
20
-89.567730914428054
30
0
10
-64.41983238734089
20
-89.582578779287701
30
0
10
-64.462912472086558
20
-89.597763334062563
30
0
10
-64.505965842656792
20
-89.613278350051232
30
0
10
-64.548991333083904
20
-89.629118771648393
30
0
10
-64.591987729544087
20
-89.645280999196686
30
0
10
-64.634953797536241
20
-89.661762329038652
30
0
10
-64.677888297675452
20
-89.678560605502014
30
0
10
-64.720790004886112
20
-89.695673816797893
30
0
10
-64.763657729945123
20
-89.71309963500822
30
0
10
-64.806490326649595
20
-89.730835275577348
30
0
10
-64.849286681595544
20
-89.748877734286964
30
0
10
-64.892045708845899
20
-89.767223927188766
30
0
10
-64.934766342959236
20
-89.785870854984964
30
0
10
-64.977447532897912
20
-89.804815785650604
30
0
10
-65.020088236389284
20
-89.82405631305987
30
0
10
-65.062687415728703
20
-89.843590248641831
30
0
10
-65.105244033021833
20
-89.86341555125783
30
0
10
-65.147757046906662
20
-89.883530245984844
30
0
10
-65.190225406673335
20
-89.903932330239726
30
0
10
-65.232648055737656
20
-89.924619737127003
30
0
10
-65.275023948704373
20
-89.945590394454655
30
0
10
-65.317352066676193
20
-89.966842260711132
30
0
10
-65.359631431214794
20
-89.988373364993606
30
0
10
-65.401861125077758
20
-90.010181851141624
30
0
10
-65.444040291417465
20
-90.032265992055258
30
0
10
-65.48616808735359
20
-90.054624138556392
30
0
10
-65.528243645492083
20
-90.077254678585746
30
0
10
-65.570266036507917
20
-90.100155993949585
30
0
10
-65.612234222397689
20
-90.123326407536112
30
0
10
-65.654147042492838
20
-90.146764159123506
30
0
10
-65.696003312175122
20
-90.170467485633097
30
0
10
-65.737801904626551
20
-90.194434682994114
30
0
10
-65.779541837087777
20
-90.218664172440867
30
0
10
-65.821222361919169
20
-90.243154565275532
30
0
10
-65.862843038404804
20
-90.267904720235833
30
0
10
-65.904403648675853
20
-90.29291374404437
30
0
10
-65.937604033665593
20
-90.313127546062347
30
0
10
-65.962477272796804
20
-90.328403927179934
30
0
10
-65.979047414178766
20
-90.33863973284717
30
0
10
-65.987329480359037
20
-90.343770523577817
30
0
0
ARC
5
173
100
AcDbEntity
8
0
100
AcDbCircle
10
-61.88663440158102
20
-93.05335687107447
30
0
40
0.50000000000000611
210
0
220
-0
230
1
100
AcDbArc
50
9.0534041855619325
51
96.810330060428072
0
LINE
5
174
100
AcDbEntity
8
0
100
AcDbLine
10
-60.193449701833153
20
-84.312132522934675
30
0
11
-61.100571756118562
21
-83.771157559753362
31
0
0
ARC
5
175
100
AcDbEntity
8
0
100
AcDbCircle
10
-49
20
-91.000000000000014
30
0
40
12.549199999999995
210
0
220
0
230
1
100
AcDbArc
50
189.0534041855627
51
194.94659581443707
0
ARC
5
176
100
AcDbEntity
8
0
100
AcDbCircle
10
-59.148783024652289
20
-82.797328254859295
30
0
40
0.49999999999999573
210
0
220
0
230
1
100
AcDbArc
50
-38.946595814436662
51
48.810330060428754
0
ARC
5
177
100
AcDbEntity
8
0
100
AcDbCircle
10
-61.88663440158102
20
-88.946643128925515
30
0
40
0.50000000000000577
210
0
220
0
230
1
100
AcDbArc
50
263.18966993957213
51
350.94659581443807
0
ARC
5
178
100
AcDbEntity
8
0
100
AcDbCircle
10
-49
20
-91.000000000000014
30
0
40
17.000000000000014
210
0
220
0
230
1
100
AcDbArc
50
129.78773391907683
51
134.21226608092314
0
ARC
5
179
100
AcDbEntity
8
0
100
AcDbCircle
10
-49
20
-91.000000000000014
30
0
40
17.000000000000014
210
0
220
0
230
1
100
AcDbArc
50
153.78773391907683
51
158.21226608092311
0
SPLINE
5
180
100
AcDbEntity
8
0
100
AcDbSpline
70
0
71
5
72
81
73
75
74
0
42
0.000000001
43
0.0000000001
44
0.0000000001
40
0
40
0
40
0
40
0
40
0
40
0
40
0.014285714285714284
40
0.028571428571428567
40
0.042857142857142858
40
0.057142857142857134
40
0.071428571428571438
40
0.085714285714285715
40
0.10000000000000001
40
0.1142857142857143
40
0.12857142857142859
40
0.14285714285714288
40
0.15714285714285714
40
0.17142857142857146
40
0.18571428571428572
40
0.20000000000000004
40
0.21428571428571436
40
0.22857142857142865
40
0.24285714285714291
40
0.25714285714285717
40
0.27142857142857146
40
0.2857142857142857
40
0.30000000000000004
40
0.31428571428571433
40
0.32857142857142863
40
0.34285714285714292
40
0.35714285714285721
40
0.3714285714285715
40
0.38571428571428573
40
0.40000000000000008
40
0.41428571428571442
40
0.42857142857142871
40
0.44285714285714295
40
0.4571428571428573
40
0.47142857142857147
40
0.48571428571428582
40
0.50000000000000011
40
0.51428571428571435
40
0.52857142857142858
40
0.54285714285714282
40
0.55714285714285705
40
0.57142857142857129
40
0.58571428571428552
40
0.59999999999999976
40
0.61428571428571399
40
0.62857142857142823
40
0.64285714285714246
40
0.6571428571428567
40
0.67142857142857093
40
0.68571428571428517
40
0.6999999999999994
40
0.71428571428571364
40
0.72857142857142776
40
0.74285714285714211
40
0.75714285714285634
40
0.77142857142857058
40
0.78571428571428481
40
0.79999999999999905
40
0.81428571428571328
40
0.82857142857142752
40
0.84285714285714175
40
0.85714285714285599
40
0.87142857142857022
40
0.88571428571428445
40
0.89999999999999869
40
0.91428571428571281
40
0.92857142857142716
40
0.94285714285714117
40
0.95714285714285563
40
0.97142857142856975
40
0.98571428571428399
40
1
40
1
40
1
40
1
40
1
40
1
10
-62.994657470150258
20
-92.682130239919871
30
0
10
-63.003209486285883
20
-92.683151569935092
30
0
10
-63.020317787239421
20
-92.684944349552268
30
0
10
-63.045993045010789
20
-92.686883887141462
30
0
10
-63.080253854782491
20
-92.688044387875337
30
0
10
-63.123133223003471
20
-92.687546515201916
30
0
10
-63.166075083599758
20
-92.685643255681612
30
0
10
-63.20908637663063
20
-92.682870337597336
30
0
10
-63.252168341850549
20
-92.679623466246795
30
0
10
-63.295313857271687
20
-92.676052304319114
30
0
10
-63.338510725799047
20
-92.672143261236471
30
0
10
-63.38174442382693
20
-92.667784525768042
30
0
10
-63.425000910437738
20
-92.662834678190251
30
0
10
-63.468269742580468
20
-92.657196962853575
30
0
10
-63.51154602961428
20
-92.650868638293261
30
0
10
-63.554828399939439
20
-92.643902954761444
30
0
10
-63.598117592270754
20
-92.636385016982103
30
0
10
-63.641414898557507
20
-92.628403938277657
30
0
10
-63.684720447636913
20
-92.620022549320353
30
0
10
-63.72803229858949
20
-92.611261556585873
30
0
10
-63.771347344613119
20
-92.602116504689917
30
0
10
-63.814661855452314
20
-92.592568180594839
30
0
10
-63.857972117370217
20
-92.58259476623752
30
0
10
-63.901275141650018
20
-92.572185292356608
30
0
10
-63.944568955317258
20
-92.561345309785423
30
0
10
-63.987852200073768
20
-92.550089695345179
30
0
10
-64.031123887845766
20
-92.538438373359611
30
0
10
-64.074383115185483
20
-92.526411259172193
30
0
10
-64.117628743535874
20
-92.514022598131021
30
0
10
-64.160859286935349
20
-92.50127905281505
30
0
10
-64.204073076307623
20
-92.488182797023882
30
0
10
-64.247268356741614
20
-92.474733397597788
30
0
10
-64.290443402683508
20
-92.460930014256689
30
0
10
-64.333596648269221
20
-92.44677388672855
30
0
10
-64.376726724602989
20
-92.432269085571932
30
0
10
-64.41983238734089
20
-92.417421220712328
30
0
10
-64.462912472086558
20
-92.402236665937423
30
0
10
-64.505965842656792
20
-92.386721649948782
30
0
10
-64.548991333083904
20
-92.370881228351635
30
0
10
-64.591987729544087
20
-92.3547190008033
30
0
10
-64.634953797536241
20
-92.338237670961377
30
0
10
-64.677888297675452
20
-92.321439394498015
30
0
10
-64.720790004886112
20
-92.304326183202107
30
0
10
-64.763657729945123
20
-92.286900364991808
30
0
10
-64.806490326649595
20
-92.269164724422666
30
0
10
-64.849286681595544
20
-92.25112226571305
30
0
10
-64.892045708845899
20
-92.23277607281122
30
0
10
-64.934766342959236
20
-92.214129145015065
30
0
10
-64.977447532897912
20
-92.19518421434941
30
0
10
-65.020088236389284
20
-92.175943686940158
30
0
10
-65.062687415728703
20
-92.156409751358197
30
0
10
-65.105244033021833
20
-92.136584448742198
30
0
10
-65.147757046906662
20
-92.116469754015142
30
0
10
-65.190225406673335
20
-92.096067669760259
30
0
10
-65.232648055737656
20
-92.075380262872983
30
0
10
-65.275023948704373
20
-92.054409605545374
30
0
10
-65.317352066676193
20
-92.033157739288853
30
0
10
-65.359631431214794
20
-92.011626635006422
30
0
10
-65.401861125077758
20
-91.98981814885839
30
0
10
-65.444040291417465
20
-91.96773400794477
30
0
10
-65.48616808735359
20
-91.945375861443637
30
0
10
-65.528243645492083
20
-91.922745321414283
30
0
10
-65.570266036507917
20
-91.899844006050415
30
0
10
-65.612234222397689
20
-91.876673592463902
30
0
10
-65.654147042492838
20
-91.853235840876522
30
0
10
-65.696003312175122
20
-91.829532514366932
30
0
10
-65.737801904626551
20
-91.805565317005914
30
0
10
-65.779541837087777
20
-91.781335827559118
30
0
10
-65.821222361919169
20
-91.756845434724454
30
0
10
-65.862843038404804
20
-91.732095279764181
30
0
10
-65.904403648675853
20
-91.707086255955659
30
0
10
-65.937604033665593
20
-91.686872453937667
30
0
10
-65.962477272796804
20
-91.67159607282008
30
0
10
-65.979047414178766
20
-91.661360267152844
30
0
10
-65.987329480359037
20
-91.656229476422197
30
0
0
LINE
5
181
100
AcDbEntity
8
0
100
AcDbLine
10
-61.459933895294654
20
-94.843297404982394
30
0
11
-62.468939770121153
21
-95.155437560562532
31
0
0
LINE
5
182
100
AcDbEntity
8
0
100
AcDbLine
10
-62.994657470150258
20
-92.682130239919871
30
0
11
-61.945925897417965
21
-92.556884798827298
31
0
0
SPLINE
5
183
100
AcDbEntity
8
0
100
AcDbSpline
70
0
71
5
72
81
73
75
74
0
42
0.000000001
43
0.0000000001
44
0.0000000001
40
0
40
0
40
0
40
0
40
0
40
0
40
0.014285714285714284
40
0.028571428571428567
40
0.042857142857142858
40
0.057142857142857134
40
0.071428571428571438
40
0.085714285714285715
40
0.10000000000000001
40
0.1142857142857143
40
0.12857142857142859
40
0.14285714285714288
40
0.15714285714285714
40
0.17142857142857146
40
0.18571428571428572
40
0.20000000000000004
40
0.21428571428571436
40
0.22857142857142865
40
0.24285714285714291
40
0.25714285714285717
40
0.27142857142857146
40
0.2857142857142857
40
0.30000000000000004
40
0.31428571428571433
40
0.32857142857142863
40
0.34285714285714292
40
0.35714285714285721
40
0.3714285714285715
40
0.38571428571428573
40
0.40000000000000008
40
0.41428571428571442
40
0.42857142857142871
40
0.44285714285714295
40
0.4571428571428573
40
0.47142857142857147
40
0.48571428571428582
40
0.50000000000000011
40
0.51428571428571435
40
0.52857142857142858
40
0.54285714285714282
40
0.55714285714285705
40
0.57142857142857129
40
0.58571428571428552
40
0.59999999999999976
40
0.61428571428571399
40
0.62857142857142823
40
0.64285714285714246
40
0.6571428571428567
40
0.67142857142857093
40
0.68571428571428517
40
0.6999999999999994
40
0.71428571428571364
40
0.72857142857142776
40
0.74285714285714211
40
0.75714285714285634
40
0.77142857142857058
40
0.78571428571428481
40
0.79999999999999905
40
0.81428571428571328
40
0.82857142857142752
40
0.84285714285714175
40
0.85714285714285599
40
0.87142857142857022
40
0.88571428571428445
40
0.89999999999999869
40
0.91428571428571281
40
0.92857142857142716
40
0.94285714285714117
40
0.95714285714285563
40
0.97142857142856975
40
0.98571428571428399
40
1
40
1
40
1
40
1
40
1
40
1
10
-59.61432002236166
20
-81.725507544141436
30
0
10
-59.620801434220006
20
-81.719835560775209
30
0
10
-59.633581416906537
20
-81.708321219161192
30
0
10
-59.652202875030738
20
-81.690538588168735
30
0
10
-59.675990251562972
20
-81.665854371229969
30
0
10
-59.704312157719954
20
-81.633655648772958
30
0
10
-59.731631473474877
20
-81.600470098077551
30
0
10
-59.758350966335101
20
-81.566651033865455
30
0
10
-59.784765532202691
20
-81.53246231334532
30
0
10
-59.810981626590603
20
-81.498009373071483
30
0
10
-59.836980988281674
20
-81.463292183380361
30
0
10
-59.862670807149243
20
-81.42824672109775
30
0
10
-59.887936592649744
20
-81.392788792393489
30
0
10
-59.912699453557877
20
-81.356861415800452
30
0
10
-59.936954080090842
20
-81.320466391375135
30
0
10
-59.960739127118579
20
-81.28364036978823
30
0
10
-59.984118334073038
20
-81.246439748243262
30
0
10
-60.007158789541464
20
-81.208923195086257
30
0
10
-60.029907272021738
20
-81.171132656498315
30
0
10
-60.052377870695473
20
-81.133083430200301
30
0
10
-60.074565195710541
20
-81.094774843762224
30
0
10
-60.096452472969261
20
-81.056196813272535
30
0
10
-60.118021003515949
20
-81.017337499441794
30
0
10
-60.13926063575893
20
-80.97819178345091
30
0
10
-60.160174174593649
20
-80.938764845738149
30
0
10
-60.18077176677393
20
-80.899067650252164
30
0
10
-60.201067557807391
20
-80.859114263249609
30
0
10
-60.221075743154024
20
-80.818918682088992
30
0
10
-60.240806147327177
20
-80.778491284881426
30
0
10
-60.260262727285493
20
-80.737837634047111
30
0
10
-60.279445981646873
20
-80.696960424507225
30
0
10
-60.298354414246241
20
-80.655860670574526
30
0
10
-60.316986246012895
20
-80.614539092328215
30
0
10
-60.335341350476682
20
-80.572997682972058
30
0
10
-60.353421836682095
20
-80.53124018352915
30
0
10
-60.371231040987595
20
-80.489271272500034
30
0
10
-60.3887729209073
20
-80.447096080096372
30
0
10
-60.406051345013587
20
-80.404719618481565
30
0
10
-60.423069290168677
20
-80.36214613699876
30
0
10
-60.4398286192326
20
-80.319378946335689
30
0
10
-60.456330515372009
20
-80.276420773005441
30
0
10
-60.47257575125321
20
-80.233273980476838
30
0
10
-60.488565002191059
20
-80.189940825307929
30
0
10
-60.504299202420313
20
-80.146423748944954
30
0
10
-60.519779654309609
20
-80.102725466414057
30
0
10
-60.535007845415606
20
-80.058848815350132
30
0
10
-60.549985340924763
20
-80.014796666325822
30
0
10
-60.564713656830271
20
-79.970571818040398
30
0
10
-60.579194120140841
20
-79.926176879648537
30
0
10
-60.593427821539947
20
-79.881614235722168
30
0
10
-60.60741569309279
20
-79.836886121865959
30
0
10
-60.62115855717412
20
-79.791994675174053
30
0
10
-60.634657184630569
20
-79.746941991010672
30
0
10
-60.647912360609325
20
-79.701730190195107
30
0
10
-60.660924914120272
20
-79.656361440945432
30
0
10
-60.673695685596194
20
-79.610837906708852
30
0
10
-60.686225510400448
20
-79.565161710711422
30
0
10
-60.698515198496317
20
-79.51933489886602
30
0
10
-60.710565515524792
20
-79.47335939483024
30
0
10
-60.72237717162831
20
-79.427236991021502
30
0
10
-60.733950828388018
20
-79.38096941733744
30
0
10
-60.745287103397558
20
-79.334558397055673
30
0
10
-60.756386577369369
20
-79.288005703582243
30
0
10
-60.767249802080563
20
-79.241313230510855
30
0
10
-60.777877308992046
20
-79.194483018204608
30
0
10
-60.788269615662273
20
-79.147517126736361
30
0
10
-60.798427234474211
20
-79.100417533740938
30
0
10
-60.808350681085045
20
-79.053186025951305
30
0
10
-60.818040487229837
20
-79.005824088192256
30
0
10
-60.827497206135234
20
-78.958332811633042
30
0
10
-60.836721355852994
20
-78.910712955900976
30
0
10
-60.843914967219632
20
-78.872514587990878
30
0
10
-60.849205849222052
20
-78.843808274877475
30
0
10
-60.85268675195622
20
-78.824645169199357
30
0
10
-60.854415615339235
20
-78.815057225460535
30
0
0
SPLINE
5
184
100
AcDbEntity
8
0
100
AcDbSpline
70
0
71
5
72
81
73
75
74
0
42
0.000000001
43
0.0000000001
44
0.0000000001
40
0
40
0
40
0
40
0
40
0
40
0
40
0.014285714285714284
40
0.028571428571428567
40
0.042857142857142858
40
0.057142857142857134
40
0.071428571428571438
40
0.085714285714285715
40
0.10000000000000001
40
0.1142857142857143
40
0.12857142857142859
40
0.14285714285714288
40
0.15714285714285714
40
0.17142857142857146
40
0.18571428571428572
40
0.20000000000000004
40
0.21428571428571436
40
0.22857142857142865
40
0.24285714285714291
40
0.25714285714285717
40
0.27142857142857146
40
0.2857142857142857
40
0.30000000000000004
40
0.31428571428571433
40
0.32857142857142863
40
0.34285714285714292
40
0.35714285714285721
40
0.3714285714285715
40
0.38571428571428573
40
0.40000000000000008
40
0.41428571428571442
40
0.42857142857142871
40
0.44285714285714295
40
0.4571428571428573
40
0.47142857142857147
40
0.48571428571428582
40
0.50000000000000011
40
0.51428571428571435
40
0.52857142857142858
40
0.54285714285714282
40
0.55714285714285705
40
0.57142857142857129
40
0.58571428571428552
40
0.59999999999999976
40
0.61428571428571399
40
0.62857142857142823
40
0.64285714285714246
40
0.6571428571428567
40
0.67142857142857093
40
0.68571428571428517
40
0.6999999999999994
40
0.71428571428571364
40
0.72857142857142776
40
0.74285714285714211
40
0.75714285714285634
40
0.77142857142857058
40
0.78571428571428481
40
0.79999999999999905
40
0.81428571428571328
40
0.82857142857142752
40
0.84285714285714175
40
0.85714285714285599
40
0.87142857142857022
40
0.88571428571428445
40
0.89999999999999869
40
0.91428571428571281
40
0.92857142857142716
40
0.94285714285714117
40
0.95714285714285563
40
0.97142857142856975
40
0.98571428571428399
40
1
40
1
40
1
40
1
40
1
40
1
10
-62.468939770121153
20
-86.844562439437453
30
0
10
-62.47716783795741
20
-86.842017052499074
30
0
10
-62.49352623774476
20
-86.836696265276331
30
0
10
-62.517770633863748
20
-86.82802505287485
30
0
10
-62.549541459178627
20
-86.815150096293294
30
0
10
-62.588511208183618
20
-86.797254656686562
30
0
10
-62.626966424485886
20
-86.778049914370712
30
0
10
-62.665131348468456
20
-86.758022458708695
30
0
10
-62.70316806054781
20
-86.737533280224199
30
0
10
-62.741130927764097
20
-86.716721999360516
30
0
10
-62.779003279730574
20
-86.695581161512393
30
0
10
-62.816726370748562
20
-86.674014529320559
30
0
10
-62.854229853217909
20
-86.651898620394519
30
0
10
-62.891464832868742
20
-86.62914929162163
30
0
10
-62.928425726824166
20
-86.605766027752153
30
0
10
-62.965132940894257
20
-86.581798033191887
30
0
10
-63.001621765138331
20
-86.557322754512427
30
0
10
-63.037929625464386
20
-86.532421075301599
30
0
10
-63.074082195107778
20
-86.507150341831803
30
0
10
-63.110086123032758
20
-86.481530259852917
30
0
10
-63.145936758866327
20
-86.455558022819162
30
0
10
-63.181622880204046
20
-86.42921759597877
30
0
10
-63.217132220172758
20
-86.40249055805225
30
0
10
-63.252457586843249
20
-86.375368103741295
30
0
10
-63.287599435540976
20
-86.347856106465485
30
0
10
-63.322562576347146
20
-86.319968709346966
30
0
10
-63.357354210563969
20
-86.29172451604687
30
0
10
-63.391981613150811
20
-86.263142087602205
30
0
10
-63.42644953808913
20
-86.234234900878846
30
0
10
-63.46075933780044
20
-86.205009646840551
30
0
10
-63.494910371671637
20
-86.175468990226491
30
0
10
-63.528900860329756
20
-86.145613249112358
30
0
10
-63.56272888563025
20
-86.115442357709924
30
0
10
-63.596393521327869
20
-86.084958085461437
30
0
10
-63.629895172519433
20
-86.054164707787208
30
0
10
-63.663234984202468
20
-86.023067855729437
30
0
10
-63.696414485100981
20
-85.991673825635644
30
0
10
-63.729435170701137
20
-85.959988769835121
30
0
10
-63.762298032138354
20
-85.928017781094894
30
0
10
-63.795003424641905
20
-85.895764641572171
30
0
10
-63.827551320115568
20
-85.863232323297837
30
0
10
-63.859941463115746
20
-85.830423299679779
30
0
10
-63.89217355274841
20
-85.797339906861623
30
0
10
-63.92424744945383
20
-85.763984755203097
30
0
10
-63.956163238704342
20
-85.730360854724978
30
0
10
-63.987921125280494
20
-85.696471402779508
30
0
10
-64.01952137148416
20
-85.66231965838405
30
0
10
-64.050964223910526
20
-85.627908794887517
30
0
10
-64.082249833603527
20
-85.593241735614427
30
0
10
-64.113378227059314
20
-85.558321102600559
30
0
10
-64.144349346459478
20
-85.523149317277486
30
0
10
-64.17516307384625
20
-85.487728666467788
30
0
10
-64.205819261161679
20
-85.452061377913481
30
0
10
-64.236317763058452
20
-85.416149708427568
30
0
10
-64.266658454981069
20
-85.379995975964505
30
0
10
-64.296841224749826
20
-85.343602498766415
30
0
10
-64.326865971913278
20
-85.306971556269801
30
0
10
-64.356732604261978
20
-85.270105346950729
30
0
10
-64.386441038821701
20
-85.233005939572195
30
0
10
-64.415991195298076
20
-85.19567526042988
30
0
10
-64.445382974462746
20
-85.158115158953194
30
0
10
-64.47461623959542
20
-85.120327460632581
30
0
10
-64.503690799894116
20
-85.082314021752126
30
0
10
-64.532606389238339
20
-85.044076796623656
30
0
10
-64.561362663251359
20
-85.005617865376294
30
0
10
-64.589959256839222
20
-84.966939320490198
30
0
10
-64.618395833710537
20
-84.928043177029622
30
0
10
-64.646672138211784
20
-84.88893127699302
30
0
10
-64.674788052174478
20
-84.849605193111472
30
0
10
-64.70274363717779
20
-84.810066147235261
30
0
10
-64.730539057517277
20
-84.770315044029076
30
0
10
-64.752647424440042
20
-84.738345003874286
30
0
10
-64.769156795091106
20
-84.714272477508459
30
0
10
-64.780131095246816
20
-84.69818192005485
30
0
10
-64.785610258587582
20
-84.690126089692868
30
0
0
LINE
5
185
100
AcDbEntity
8
0
100
AcDbLine
10
-59.61432002236166
20
-81.725507544141436
30
0
11
-58.819506127729056
21
-82.421061427790249
31
0
0
ARC
5
186
100
AcDbEntity
8
0
100
AcDbCircle
10
-61.60770180264268
20
-87.634368425445146
30
0
40
0.49999999999999012
210
0
220
0
230
1
100
AcDbArc
50
-14.946595814435307
51
72.810330060429195
0
LINE
5
187
100
AcDbEntity
8
0
100
AcDbLine
10
-61.945925897417965
20
-89.443115201172702
30
0
11
-62.994657470150258
21
-89.317869760080129
31
0
0
ARC
5
188
100
AcDbEntity
8
0
100
AcDbCircle
10
-49
20
-91.000000000000014
30
0
40
17.000000000000007
210
0
220
0
230
1
100
AcDbArc
50
177.78773391907683
51
182.212266080923
0
ARC
5
189
100
AcDbEntity
8
0
100
AcDbCircle
10
-49
20
-91.000000000000014
30
0
40
12.549200000000011
210
0
220
0
230
1
100
AcDbArc
50
165.05340418556275
51
170.9465958144371
0
ARC
5
190
100
AcDbEntity
8
0
100
AcDbCircle
10
-59.937350841087749
20
-83.882698740466495
30
0
40
0.50000000000002121
210
0
220
0
230
1
100
AcDbArc
50
239.18966993957099
51
326.94659581444239
0
LINE
5
191
100
AcDbEntity
8
0
100
AcDbLine
10
-61.100571756118562
20
-98.228842440246638
30
0
11
-60.193449701833146
21
-97.687867477065353
31
0
0
SPLINE
5
192
100
AcDbEntity
8
0
100
AcDbSpline
70
0
71
5
72
81
73
75
74
0
42
0.000000001
43
0.0000000001
44
0.0000000001
40
0
40
0
40
0
40
0
40
0
40
0
40
0.014285714285714284
40
0.028571428571428567
40
0.042857142857142858
40
0.057142857142857134
40
0.071428571428571438
40
0.085714285714285715
40
0.10000000000000001
40
0.1142857142857143
40
0.12857142857142859
40
0.14285714285714288
40
0.15714285714285714
40
0.17142857142857146
40
0.18571428571428572
40
0.20000000000000004
40
0.21428571428571436
40
0.22857142857142865
40
0.24285714285714291
40
0.25714285714285717
40
0.27142857142857146
40
0.2857142857142857
40
0.30000000000000004
40
0.31428571428571433
40
0.32857142857142863
40
0.34285714285714292
40
0.35714285714285721
40
0.3714285714285715
40
0.38571428571428573
40
0.40000000000000008
40
0.41428571428571442
40
0.42857142857142871
40
0.44285714285714295
40
0.4571428571428573
40
0.47142857142857147
40
0.48571428571428582
40
0.50000000000000011
40
0.51428571428571435
40
0.52857142857142858
40
0.54285714285714282
40
0.55714285714285705
40
0.57142857142857129
40
0.58571428571428552
40
0.59999999999999976
40
0.61428571428571399
40
0.62857142857142823
40
0.64285714285714246
40
0.6571428571428567
40
0.67142857142857093
40
0.68571428571428517
40
0.6999999999999994
40
0.71428571428571364
40
0.72857142857142776
40
0.74285714285714211
40
0.75714285714285634
40
0.77142857142857058
40
0.78571428571428481
40
0.79999999999999905
40
0.81428571428571328
40
0.82857142857142752
40
0.84285714285714175
40
0.85714285714285599
40
0.87142857142857022
40
0.88571428571428445
40
0.89999999999999869
40
0.91428571428571281
40
0.92857142857142716
40
0.94285714285714117
40
0.95714285714285563
40
0.97142857142856975
40
0.98571428571428399
40
1
40
1
40
1
40
1
40
1
40
1
10
-61.100571756118562
20
-98.228842440246638
30
0
10
-61.107968999271087
20
-98.233253889977334
30
0
10
-61.122869020731912
20
-98.241850248551714
30
0
10
-61.145535654834589
20
-98.254065172462333
30
0
10
-61.176362443803896
20
-98.269060469391931
30
0
10
-61.215737198928622
20
-98.286046250360073
30
0
10
-61.255740666007284
20
-98.301773564496926
30
0
10
-61.29616128477609
20
-98.316734646718345
30
0
10
-61.336839239962686
20
-98.331291496055186
30
0
10
-61.377707152007652
20
-98.345577939403796
30
0
10
-61.418759406096292
20
-98.359576600148131
30
0
10
-61.460028211979221
20
-98.373179426363492
30
0
10
-61.501558263223629
20
-98.386251513748135
30
0
10
-61.543379373695792
20
-98.398700224046365
30
0
10
-61.585488190627125
20
-98.410521063602729
30
0
10
-61.627861802170131
20
-98.421762121063267
30
0
10
-61.670466267964642
20
-98.432501443924423
30
0
10
-61.713266522611434
20
-98.442820966740186
30
0
10
-61.756237128272453
20
-98.452778140588606
30
0
10
-61.79936788974711
20
-98.462391092333405
30
0
10
-61.842657780998493
20
-98.471654488128308
30
0
10
-61.886111208915082
20
-98.480549258758359
30
0
10
-61.929733655035193
20
-98.489053961918245
30
0
10
-61.973526850630705
20
-98.497157361068474
30
0
10
-62.01748673557244
20
-98.50486372466662
30
0
10
-62.061606018044955
20
-98.512186090895455
30
0
10
-62.105875691445419
20
-98.51914225964461
30
0
10
-62.150286830133219
20
-98.525750057020332
30
0
10
-62.194832599879703
20
-98.532022033702873
30
0
10
-62.239508933276404
20
-98.537963671865867
30
0
10
-62.284313421382357
20
-98.543576278499529
30
0
10
-62.329244637188367
20
-98.548858744106269
30
0
10
-62.374301346095351
20
-98.553809599205948
30
0
10
-62.419481613372454
20
-98.558429339452189
30
0
10
-62.464782532825879
20
-98.562721126705171
30
0
10
-62.510200685928595
20
-98.566689579766518
30
0
10
-62.555732416498593
20
-98.570340047778473
30
0
10
-62.60137415313973
20
-98.573677758815634
30
0
10
-62.647122774387604
20
-98.576706857161412
30
0
10
-62.692975707246418
20
-98.579430137559825
30
0
10
-62.738930724266766
20
-98.581849567808106
30
0
10
-62.784985816423259
20
-98.583966613107563
30
0
10
-62.831139046285415
20
-98.585782613035605
30
0
10
-62.877388380594255
20
-98.587299210550654
30
0
10
-62.923731639660545
20
-98.588518483268103
30
0
10
-62.970166584413448
20
-98.589442722815832
30
0
10
-63.016690968445346
20
-98.590074304830353
30
0
10
-63.063302598502702
20
-98.590415535952502
30
0
10
-63.109999403200177
20
-98.590468484515668
30
0
10
-63.156779451714876
20
-98.590234924694755
30
0
10
-63.203640905884377
20
-98.589716433776289
30
0
10
-63.250581987339139
20
-98.588914454283525
30
0
10
-63.297600941474094
20
-98.587830366838318
30
0
10
-63.344695993894042
20
-98.586465573529267
30
0
10
-63.391865338679203
20
-98.58482153280778
30
0
10
-63.439107177977021
20
-98.582899712514973
30
0
10
-63.486419750621003
20
-98.58070156324149
30
0
10
-63.533801361124809
20
-98.578228487530055
30
0
10
-63.581250416577376
20
-98.575481807991395
30
0
10
-63.628765431734578
20
-98.572462753898549
30
0
10
-63.676344965805797
20
-98.569172489020389
30
0
10
-63.723987570703535
20
-98.565612133245367
30
0
10
-63.771691739268441
20
-98.561782786876478
30
0
10
-63.819455841094396
20
-98.55768555983758
30
0
10
-63.867278099911225
20
-98.553321588084913
30
0
10
-63.915156716407573
20
-98.54869200044331
30
0
10
-63.963089968075977
20
-98.543797895340717
30
0
10
-64.011076314979277
20
-98.538640315327115
30
0
10
-64.05911450928032
20
-98.533220224948678
30
0
10
-64.107203684171935
20
-98.527538487545058
30
0
10
-64.155343277292388
20
-98.521595830550524
30
0
10
-64.193895032168356
20
-98.516633416674864
30
0
10
-64.222831330767633
20
-98.512794605882334
30
0
10
-64.242132185395903
20
-98.510183415790706
30
0
10
-64.251785109932882
20
-98.50886482502051
30
0
0
ARC
5
193
100
AcDbEntity
8
0
100
AcDbCircle
10
-61.60770180264268
20
-94.365631574554882
30
0
40
0.50000000000001865
210
0
220
0
230
1
100
AcDbArc
50
-72.810330060429195
51
14.946595814439995
0
SPLINE
5
194
100
AcDbEntity
8
0
100
AcDbSpline
70
0
71
5
72
81
73
75
74
0
42
0.000000001
43
0.0000000001
44
0.0000000001
40
0
40
0
40
0
40
0
40
0
40
0
40
0.014285714285714284
40
0.028571428571428567
40
0.042857142857142858
40
0.057142857142857134
40
0.071428571428571438
40
0.085714285714285715
40
0.10000000000000001
40
0.1142857142857143
40
0.12857142857142859
40
0.14285714285714288
40
0.15714285714285714
40
0.17142857142857146
40
0.18571428571428572
40
0.20000000000000004
40
0.21428571428571436
40
0.22857142857142865
40
0.24285714285714291
40
0.25714285714285717
40
0.27142857142857146
40
0.2857142857142857
40
0.30000000000000004
40
0.31428571428571433
40
0.32857142857142863
40
0.34285714285714292
40
0.35714285714285721
40
0.3714285714285715
40
0.38571428571428573
40
0.40000000000000008
40
0.41428571428571442
40
0.42857142857142871
40
0.44285714285714295
40
0.4571428571428573
40
0.47142857142857147
40
0.48571428571428582
40
0.50000000000000011
40
0.51428571428571435
40
0.52857142857142858
40
0.54285714285714282
40
0.55714285714285705
40
0.57142857142857129
40
0.58571428571428552
40
0.59999999999999976
40
0.61428571428571399
40
0.62857142857142823
40
0.64285714285714246
40
0.6571428571428567
40
0.67142857142857093
40
0.68571428571428517
40
0.6999999999999994
40
0.71428571428571364
40
0.72857142857142776
40
0.74285714285714211
40
0.75714285714285634
40
0.77142857142857058
40
0.78571428571428481
40
0.79999999999999905
40
0.81428571428571328
40
0.82857142857142752
40
0.84285714285714175
40
0.85714285714285599
40
0.87142857142857022
40
0.88571428571428445
40
0.89999999999999869
40
0.91428571428571281
40
0.92857142857142716
40
0.94285714285714117
40
0.95714285714285563
40
0.97142857142856975
40
0.98571428571428399
40
1
40
1
40
1
40
1
40
1
40
1
10
-62.468939770121153
20
-95.155437560562532
30
0
10
-62.47716783795741
20
-95.157982947500912
30
0
10
-62.493526237744746
20
-95.163303734723684
30
0
10
-62.517770633863741
20
-95.171974947125165
30
0
10
-62.549541459178627
20
-95.184849903706734
30
0
10
-62.588511208183618
20
-95.202745343313424
30
0
10
-62.626966424485886
20
-95.221950085629317
30
0
10
-62.665131348468449
20
-95.241977541291334
30
0
10
-62.703168060547803
20
-95.262466719775816
30
0
10
-62.74113092776409
20
-95.283278000639513
30
0
10
-62.779003279730567
20
-95.304418838487635
30
0
10
-62.816726370748555
20
-95.325985470679456
30
0
10
-62.854229853217909
20
-95.348101379605509
30
0
10
-62.891464832868735
20
-95.370850708378356
30
0
10
-62.928425726824159
20
-95.394233972247832
30
0
10
-62.965132940894257
20
-95.418201966808141
30
0
10
-63.001621765138324
20
-95.442677245487602
30
0
10
-63.037929625464379
20
-95.467578924698415
30
0
10
-63.074082195107778
20
-95.492849658168211
30
0
10
-63.110086123032758
20
-95.518469740147111
30
0
10
-63.145936758866327
20
-95.544441977180867
30
0
10
-63.181622880204038
20
-95.57078240402123
30
0
10
-63.217132220172743
20
-95.597509441947778
30
0
10
-63.252457586843249
20
-95.624631896258734
30
0
10
-63.287599435540969
20
-95.652143893534543
30
0
10
-63.322562576347146
20
-95.680031290653062
30
0
10
-63.357354210563969
20
-95.708275483953145
30
0
10
-63.391981613150811
20
-95.736857912397824
30
0
10
-63.42644953808913
20
-95.765765099121182
30
0
10
-63.460759337800432
20
-95.794990353159477
30
0
10
-63.494910371671637
20
-95.824531009773537
30
0
10
-63.528900860329749
20
-95.85438675088767
30
0
10
-63.562728885630236
20
-95.884557642290105
30
0
10
-63.596393521327855
20
-95.915041914538577
30
0
10
-63.629895172519433
20
-95.94583529221282
30
0
10
-63.663234984202468
20
-95.976932144270563
30
0
10
-63.696414485100981
20
-96.008326174364385
30
0
10
-63.72943517070113
20
-96.040011230164907
30
0
10
-63.762298032138332
20
-96.071982218905134
30
0
10
-63.795003424641905
20
-96.104235358427843
30
0
10
-63.82755132011556
20
-96.136767676702163
30
0
10
-63.859941463115739
20
-96.169576700320249
30
0
10
-63.89217355274841
20
-96.202660093138377
30
0
10
-63.924247449453816
20
-96.236015244796931
30
0
10
-63.956163238704335
20
-96.26963914527505
30
0
10
-63.987921125280486
20
-96.30352859722052
30
0
10
-64.01952137148416
20
-96.337680341615979
30
0
10
-64.050964223910526
20
-96.372091205112511
30
0
10
-64.082249833603527
20
-96.406758264385601
30
0
10
-64.1133782270593
20
-96.44167889739947
30
0
10
-64.144349346459478
20
-96.476850682722528
30
0
10
-64.17516307384625
20
-96.51227133353224
30
0
10
-64.205819261161665
20
-96.547938622086519
30
0
10
-64.236317763058452
20
-96.583850291572446
30
0
10
-64.266658454981069
20
-96.620004024035524
30
0
10
-64.296841224749812
20
-96.656397501233613
30
0
10
-64.326865971913264
20
-96.693028443730213
30
0
10
-64.356732604261964
20
-96.7298946530493
30
0
10
-64.386441038821701
20
-96.766994060427834
30
0
10
-64.415991195298062
20
-96.804324739570148
30
0
10
-64.445382974462746
20
-96.841884841046834
30
0
10
-64.47461623959542
20
-96.879672539367448
30
0
10
-64.503690799894102
20
-96.917685978247903
30
0
10
-64.532606389238339
20
-96.955923203376358
30
0
10
-64.561362663251344
20
-96.99438213462372
30
0
10
-64.589959256839222
20
-97.03306067950983
30
0
10
-64.618395833710522
20
-97.071956822970407
30
0
10
-64.64667213821177
20
-97.111068723007008
30
0
10
-64.674788052174463
20
-97.150394806888556
30
0
10
-64.702743637177775
20
-97.189933852764767
30
0
10
-64.730539057517262
20
-97.229684955970939
30
0
10
-64.752647424440042
20
-97.261654996125742
30
0
10
-64.769156795091092
20
-97.28572752249157
30
0
10
-64.780131095246816
20
-97.30181807994515
30
0
10
-64.785610258587582
20
-97.309873910307161
30
0
0
ARC
5
195
100
AcDbEntity
8
0
100
AcDbCircle
10
-59.937350841087742
20
-98.117301259533534
30
0
40
0.50000000000000744
210
0
220
-0
230
1
100
AcDbArc
50
33.053404185564403
51
120.810330060429
0
LINE
5
196
100
AcDbEntity
8
0
100
AcDbLine
10
-43.459438785169496
20
-78.039205993628286
30
0
11
-43.875338837841284
21
-79.010056897911539
31
0
0
SPLINE
5
197
100
AcDbEntity
8
0
100
AcDbSpline
70
0
71
5
72
81
73
75
74
0
42
0.000000001
43
0.0000000001
44
0.0000000001
40
0
40
0
40
0
40
0
40
0
40
0
40
0.014285714285714284
40
0.028571428571428567
40
0.042857142857142858
40
0.057142857142857134
40
0.071428571428571438
40
0.085714285714285715
40
0.10000000000000001
40
0.1142857142857143
40
0.12857142857142859
40
0.14285714285714288
40
0.15714285714285714
40
0.17142857142857146
40
0.18571428571428572
40
0.20000000000000004
40
0.21428571428571436
40
0.22857142857142865
40
0.24285714285714291
40
0.25714285714285717
40
0.27142857142857146
40
0.2857142857142857
40
0.30000000000000004
40
0.31428571428571433
40
0.32857142857142863
40
0.34285714285714292
40
0.35714285714285721
40
0.3714285714285715
40
0.38571428571428573
40
0.40000000000000008
40
0.41428571428571442
40
0.42857142857142871
40
0.44285714285714295
40
0.4571428571428573
40
0.47142857142857147
40
0.48571428571428582
40
0.50000000000000011
40
0.51428571428571435
40
0.52857142857142858
40
0.54285714285714282
40
0.55714285714285705
40
0.57142857142857129
40
0.58571428571428552
40
0.59999999999999976
40
0.61428571428571399
40
0.62857142857142823
40
0.64285714285714246
40
0.6571428571428567
40
0.67142857142857093
40
0.68571428571428517
40
0.6999999999999994
40
0.71428571428571364
40
0.72857142857142776
40
0.74285714285714211
40
0.75714285714285634
40
0.77142857142857058
40
0.78571428571428481
40
0.79999999999999905
40
0.81428571428571328
40
0.82857142857142752
40
0.84285714285714175
40
0.85714285714285599
40
0.87142857142857022
40
0.88571428571428445
40
0.89999999999999869
40
0.91428571428571281
40
0.92857142857142716
40
0.94285714285714117
40
0.95714285714285563
40
0.97142857142856975
40
0.98571428571428399
40
1
40
1
40
1
40
1
40
1
40
1
10
-40.545903744680267
20
-79.721336233548158
30
0
10
-40.540743238873624
20
-79.714440635328728
30
0
10
-40.530636495705004
20
-79.700520801895962
30
0
10
-40.516119177995471
20
-79.679255145211854
30
0
10
-40.497983749992969
20
-79.650164663962272
30
0
10
-40.476975236265517
20
-79.612781105447965
30
0
10
-40.457152577061954
20
-79.574640733525655
30
0
10
-40.438048348050117
20
-79.536005402069165
30
0
10
-40.419319238512543
20
-79.497071890068483
30
0
10
-40.400839197752362
20
-79.457921196690577
30
0
10
-40.382626094102754
20
-79.418557089640615
30
0
10
-40.36478402073282
20
-79.378936241114715
30
0
10
-40.347442471174652
20
-79.339000101042402
30
0
10
-40.330690459804174
20
-79.298709335546363
30
0
10
-40.314532806119878
20
-79.258066809313462
30
0
10
-40.298924079850579
20
-79.217100335309965
30
0
10
-40.283790208785888
20
-79.175851826152069
30
0
10
-40.269053372550175
20
-79.134364719640075
30
0
10
-40.254659093766492
20
-79.092670319533823
30
0
10
-40.240590410560642
20
-79.050780659956729
30
0
10
-40.22685273480964
20
-79.008696203786201
30
0
10
-40.213464570619962
20
-78.966410574999415
30
0
10
-40.200446669856916
20
-78.923916080755291
30
0
10
-40.187810026537925
20
-78.881209824727833
30
0
10
-40.175550819987521
20
-78.838296290979699
30
0
10
-40.163656845649705
20
-78.795184094242231
30
0
10
-40.152111342590914
20
-78.751884052374251
30
0
10
-40.140897515341578
20
-78.708406905456258
30
0
10
-40.130003596346896
20
-78.664760762181615
30
0
10
-40.119424558625056
20
-78.620950240720305
30
0
10
-40.109159354148559
20
-78.576977873434515
30
0
10
-40.099209235500183
20
-78.532844963542047
30
0
10
-40.089575793160805
20
-78.488552585276238
30
0
10
-40.080258736426522
20
-78.444102714579202
30
0
10
-40.071255224538106
20
-78.399498572228708
30
0
10
-40.062561021329543
20
-78.354744040820904
30
0
10
-40.054171189136923
20
-78.309843315646532
30
0
10
-40.046080901838096
20
-78.264800495019827
30
0
10
-40.038286364134322
20
-78.219619116501093
30
0
10
-40.03078506554283
20
-78.174302031121229
30
0
10
-40.023575281878038
20
-78.128851659818309
30
0
10
-40.016655765965474
20
-78.083270153767302
30
0
10
-40.010025388082724
20
-78.037559579809198
30
0
10
-40.003682726805096
20
-77.991722131800486
30
0
10
-39.997625943738122
20
-77.945760194659798
30
0
10
-39.991852993854401
20
-77.899676234732425
30
0
10
-39.986361749344915
20
-77.853472734441596
30
0
10
-39.98115014546228
20
-77.807152116135569
30
0
10
-39.976216341722328
20
-77.760716656052125
30
0
10
-39.971558775495268
20
-77.714168459888711
30
0
10
-39.967176070275428
20
-77.667509520609428
30
0
10
-39.963066977332026
20
-77.620741757626433
30
0
10
-39.959230307012596
20
-77.573867060247224
30
0
10
-39.955664850384153
20
-77.526887339704786
30
0
10
-39.952369345754775
20
-77.479804544475613
30
0
10
-39.949342521251218
20
-77.432620615994566
30
0
10
-39.946583118321264
20
-77.38533745740834
30
0
10
-39.944089919332086
20
-77.33795690152084
30
0
10
-39.941861775422886
20
-77.290480670767437
30
0
10
-39.939897619304986
20
-77.242910370749996
30
0
10
-39.938196444188442
20
-77.1952475560133
30
0
10
-39.936757287685964
20
-77.147493783772276
30
0
10
-39.935579213063221
20
-77.099650667942882
30
0
10
-39.934661286900464
20
-77.051719946018324
30
0
10
-39.934002565135167
20
-77.003703503277976
30
0
10
-39.933602113205524
20
-76.955603247170671
30
0
10
-39.933459018751954
20
-76.907421005584794
30
0
10
-39.933572405902979
20
-76.859158418997737
30
0
10
-39.933941445830769
20
-76.81081682923336
30
0
10
-39.934565370531161
20
-76.762397188593965
30
0
10
-39.935443515337667
20
-76.71390013239818
30
0
10
-39.936348988897443
20
-76.675040854572643
30
0
10
-39.93714210345756
20
-76.645861807051816
30
0
10
-39.937721500502612
20
-76.626393740837131
30
0
10
-39.93802386252672
20
-76.616655865763875
30
0
0
SPLINE
5
198
100
AcDbEntity
8
0
100
AcDbSpline
70
0
71
5
72
81
73
75
74
0
42
0.000000001
43
0.0000000001
44
0.0000000001
40
0
40
0
40
0
40
0
40
0
40
0
40
0.014285714285714284
40
0.028571428571428567
40
0.042857142857142858
40
0.057142857142857134
40
0.071428571428571438
40
0.085714285714285715
40
0.10000000000000001
40
0.1142857142857143
40
0.12857142857142859
40
0.14285714285714288
40
0.15714285714285714
40
0.17142857142857146
40
0.18571428571428572
40
0.20000000000000004
40
0.21428571428571436
40
0.22857142857142865
40
0.24285714285714291
40
0.25714285714285717
40
0.27142857142857146
40
0.2857142857142857
40
0.30000000000000004
40
0.31428571428571433
40
0.32857142857142863
40
0.34285714285714292
40
0.35714285714285721
40
0.3714285714285715
40
0.38571428571428573
40
0.40000000000000008
40
0.41428571428571442
40
0.42857142857142871
40
0.44285714285714295
40
0.4571428571428573
40
0.47142857142857147
40
0.48571428571428582
40
0.50000000000000011
40
0.51428571428571435
40
0.52857142857142858
40
0.54285714285714282
40
0.55714285714285705
40
0.57142857142857129
40
0.58571428571428552
40
0.59999999999999976
40
0.61428571428571399
40
0.62857142857142823
40
0.64285714285714246
40
0.6571428571428567
40
0.67142857142857093
40
0.68571428571428517
40
0.6999999999999994
40
0.71428571428571364
40
0.72857142857142776
40
0.74285714285714211
40
0.75714285714285634
40
0.77142857142857058
40
0.78571428571428481
40
0.79999999999999905
40
0.81428571428571328
40
0.82857142857142752
40
0.84285714285714175
40
0.85714285714285599
40
0.87142857142857022
40
0.88571428571428445
40
0.89999999999999869
40
0.91428571428571281
40
0.92857142857142716
40
0.94285714285714117
40
0.95714285714285563
40
0.97142857142856975
40
0.98571428571428399
40
1
40
1
40
1
40
1
40
1
40
1
10
-43.459438785169496
20
-78.039205993628286
30
0
10
-43.456047274840515
20
-78.031289065393651
30
0
10
-43.44904571705559
20
-78.015576452343709
30
0
10
-43.437887776993762
20
-77.992371258070392
30
0
10
-43.421762395224555
20
-77.962120276086935
30
0
10
-43.399891540731034
20
-77.925234590246049
30
0
10
-43.376772339338302
20
-77.888997477844043
30
0
10
-43.352865275319274
20
-77.853135064471829
30
0
10
-43.328512419636937
20
-77.817448423821702
30
0
10
-43.303846944975973
20
-77.781868892371449
30
0
10
-43.278863180098213
20
-77.746413828404158
30
0
10
-43.253471555440264
20
-77.711151715346659
30
0
10
-43.227556618387631
20
-77.676165422852137
30
0
10
-43.201039797615373
20
-77.641512372692802
30
0
10
-43.173921164265856
20
-77.607198171020201
30
0
10
-43.146247520210004
20
-77.573197380548521
30
0
10
-43.118092198943373
20
-77.539466809169951
30
0
10
-43.089531728892339
20
-77.505960781362418
30
0
10
-43.060620458596617
20
-77.47264777021347
30
0
10
-43.031377290849882
20
-77.439519103370856
30
0
10
-43.001799920577255
20
-77.40657969909627
30
0
10
-42.971873573927738
20
-77.373842394404576
30
0
10
-42.941581212772881
20
-77.341321314517785
30
0
10
-42.910914831812079
20
-77.309024532371225
30
0
10
-42.879880224695235
20
-77.276950981194275
30
0
10
-42.848490954276542
20
-77.245094398897038
30
0
10
-42.816764769563335
20
-77.213445679014654
30
0
10
-42.784719369472967
20
-77.181995646284093
30
0
10
-42.752367660117244
20
-77.150738164050608
30
0
10
-42.71971615443961
20
-77.11967118790524
30
0
10
-42.686767569543832
20
-77.088795076410648
30
0
10
-42.653522407758224
20
-77.058111565944259
30
0
10
-42.619980804155695
20
-77.027622571019563
30
0
10
-42.586144615304271
20
-76.997328827850666
30
0
10
-42.552018050858926
20
-76.967229486656763
30
0
10
-42.517606591329589
20
-76.937322820108577
30
0
10
-42.482916338776533
20
-76.907606649709109
30
0
10
-42.447953255505126
20
-76.878078845071059
30
0
10
-42.412722302781781
20
-76.848737888149458
30
0
10
-42.377227204913112
20
-76.819583030317929
30
0
10
-42.341470920585742
20
-76.790613988856961
30
0
10
-42.305455936359081
20
-76.761830759269287
30
0
10
-42.269184607031171
20
-76.733233396607076
30
0
10
-42.232659543249802
20
-76.704821766808692
30
0
10
-42.195883729612298
20
-76.676595470237146
30
0
10
-42.158860324550076
20
-76.648553969019389
30
0
10
-42.121592541809193
20
-76.620696661630362
30
0
10
-42.084083511578498
20
-76.593022971120519
30
0
10
-42.046336125379788
20
-76.565532441702715
30
0
10
-42.008352988115462
20
-76.538224772948567
30
0
10
-41.970136513995882
20
-76.511099769251246
30
0
10
-41.931688989646155
20
-76.484157308884249
30
0
10
-41.893012646080763
20
-76.457397306232068
30
0
10
-41.854109742942555
20
-76.430819669944526
30
0
10
-41.814982598507584
20
-76.404424281602616
30
0
10
-41.775633530044431
20
-76.37821101044922
30
0
10
-41.736064815002564
20
-76.352179718119487
30
0
10
-41.696278649453134
20
-76.326330266514418
30
0
10
-41.656277099499377
20
-76.300662521909061
30
0
10
-41.616062089277577
20
-76.27517636280524
30
0
10
-41.575635468457989
20
-76.249871694569677
30
0
10
-41.53499906682196
20
-76.224748462358008
30
0
10
-41.494154750428876
20
-76.199806661892453
30
0
10
-41.453104490701868
20
-76.175046353554436
30
0
10
-41.41185039237201
20
-76.150467662401468
30
0
10
-41.370394574619375
20
-76.126070732803768
30
0
10
-41.328739076621517
20
-76.101855688578894
30
0
10
-41.286885757009259
20
-76.077822591438618
30
0
10
-41.244836192250091
20
-76.053971394508892
30
0
10
-41.202591591064063
20
-76.030301908829784
30
0
10
-41.160152835986494
20
-76.00681387644255
30
0
10
-41.126046977436971
20
-75.98816840063499
30
0
10
-41.10038062374565
20
-75.97426573423175
30
0
10
-41.083231085318637
20
-75.965033473684286
30
0
10
-41.074646657114272
20
-75.960426389341691
30
0
0
ARC
5
199
100
AcDbEntity
8
0
100
AcDbCircle
10
-45.610871542022203
20
-78.398594168295148
30
0
40
0.50000000000000666
210
0
220
0
230
1
100
AcDbArc
50
167.1896699395709
51
254.94659581443796
0
ARC
5
200
100
AcDbEntity
8
0
100
AcDbCircle
10
-49
20
-91.000000000000014
30
0
40
17.000000000000011
210
0
220
-0
230
1
100
AcDbArc
50
57.787733919076885
51
62.212266080923193
0
ARC
5
201
100
AcDbEntity
8
0
100
AcDbCircle
10
-49
20
-91.000000000000014
30
0
40
12.549200000000011
210
0
220
-0
230
1
100
AcDbArc
50
69.053404185562869
51
74.946595814437202
0
ARC
5
202
100
AcDbEntity
8
0
100
AcDbCircle
10
-44.334942012595334
20
-78.813168803411131
30
0
40
0.49999999999999656
210
0
220
0
230
1
100
AcDbArc
50
249.05340418556301
51
336.81033006042958
0
SPLINE
5
203
100
AcDbEntity
8
0
100
AcDbSpline
70
0
71
5
72
81
73
75
74
0
42
0.000000001
43
0.0000000001
44
0.0000000001
40
0
40
0
40
0
40
0
40
0
40
0
40
0.014285714285714284
40
0.028571428571428567
40
0.042857142857142858
40
0.057142857142857134
40
0.071428571428571438
40
0.085714285714285715
40
0.10000000000000001
40
0.1142857142857143
40
0.12857142857142859
40
0.14285714285714288
40
0.15714285714285714
40
0.17142857142857146
40
0.18571428571428572
40
0.20000000000000004
40
0.21428571428571436
40
0.22857142857142865
40
0.24285714285714291
40
0.25714285714285717
40
0.27142857142857146
40
0.2857142857142857
40
0.30000000000000004
40
0.31428571428571433
40
0.32857142857142863
40
0.34285714285714292
40
0.35714285714285721
40
0.3714285714285715
40
0.38571428571428573
40
0.40000000000000008
40
0.41428571428571442
40
0.42857142857142871
40
0.44285714285714295
40
0.4571428571428573
40
0.47142857142857147
40
0.48571428571428582
40
0.50000000000000011
40
0.51428571428571435
40
0.52857142857142858
40
0.54285714285714282
40
0.55714285714285705
40
0.57142857142857129
40
0.58571428571428552
40
0.59999999999999976
40
0.61428571428571399
40
0.62857142857142823
40
0.64285714285714246
40
0.6571428571428567
40
0.67142857142857093
40
0.68571428571428517
40
0.6999999999999994
40
0.71428571428571364
40
0.72857142857142776
40
0.74285714285714211
40
0.75714285714285634
40
0.77142857142857058
40
0.78571428571428481
40
0.79999999999999905
40
0.81428571428571328
40
0.82857142857142752
40
0.84285714285714175
40
0.85714285714285599
40
0.87142857142857022
40
0.88571428571428445
40
0.89999999999999869
40
0.91428571428571281
40
0.92857142857142716
40
0.94285714285714117
40
0.95714285714285563
40
0.97142857142856975
40
0.98571428571428399
40
1
40
1
40
1
40
1
40
1
40
1
10
-36.689352928732042
20
-84.135018679008169
30
0
10
-36.681833879621479
20
-84.130818203385473
30
0
10
-36.666939203985613
20
-84.122212585570651
30
0
10
-36.645027452522413
20
-84.108690166574718
30
0
10
-36.616627749959406
20
-84.089491032675028
30
0
10
-36.582230254575535
20
-84.063884384953269
30
0
10
-36.548608267460381
20
-84.03710402329213
30
0
10
-36.515441280804112
20
-84.009579281712377
30
0
10
-36.482495701886066
20
-83.98162956381519
30
0
10
-36.449689322993933
20
-83.953380135458957
30
0
10
-36.417040000126086
20
-83.924827170907719
30
0
10
-36.384625204118819
20
-83.89588874973694
30
0
10
-36.352539418741046
20
-83.866458714031111
30
0
10
-36.320847964142359
20
-83.836464925096863
30
0
10
-36.289556408326824
20
-83.805908039689214
30
0
10
-36.258634561229073
20
-83.774831944373148
30
0
10
-36.228031801914618
20
-83.743305056111012
30
0
10
-36.197694705677847
20
-83.711398709706344
30
0
10
-36.1675862373447
20
-83.679163660512117
30
0
10
-36.137695796191011
20
-83.646617801262892
30
0
10
-36.108028514481639
20
-83.613759353609566
30
0
10
-36.078598703196896
20
-83.580574966467296
30
0
10
-36.049422191148714
20
-83.547049171532009
30
0
10
-36.020507843829854
20
-83.513174851208518
30
0
10
-35.991853994712201
20
-83.478957655900601
30
0
10
-35.963452998305947
20
-83.444410419597091
30
0
10
-35.935293942755955
20
-83.409549842189605
30
0
10
-35.907365853021602
20
-83.374392566562847
30
0
10
-35.879661277009355
20
-83.338950786672541
30
0
10
-35.852177500721758
20
-83.303230766084539
30
0
10
-35.824914596742559
20
-83.267235244498067
30
0
10
-35.797874239429511
20
-83.230964902990507
30
0
10
-35.771058318689235
20
-83.194420076015973
30
0
10
-35.744467372638567
20
-83.157602686927348
30
0
10
-35.718100116123139
20
-83.120516833492388
30
0
10
-35.691954258406902
20
-83.083167785643155
30
0
10
-35.666026995087861
20
-83.045561384297201
30
0
10
-35.640315584218634
20
-83.007703336411737
30
0
10
-35.614817997476678
20
-82.969598417395858
30
0
10
-35.589533101040608
20
-82.931250252901307
30
0
10
-35.56446030447276
20
-82.892661755854505
30
0
10
-35.539599343384218
20
-82.853835398723064
30
0
10
-35.514950026382195
20
-82.814773529159737
30
0
10
-35.490511947252415
20
-82.775478729497706
30
0
10
-35.466284396571794
20
-82.735953926210868
30
0
10
-35.442266509267824
20
-82.696202204205377
30
0
10
-35.418457351182738
20
-82.656226696745591
30
0
10
-35.394856021333737
20
-82.616030456565198
30
0
10
-35.371461764184183
20
-82.575616311703186
30
0
10
-35.348274008665044
20
-82.534986821388756
30
0
10
-35.325292307887331
20
-82.494144366160441
30
0
10
-35.302516301773991
20
-82.453091207393129
30
0
10
-35.279945671973991
20
-82.411829554930279
30
0
10
-35.257580091440573
20
-82.370361646487538
30
0
10
-35.235419200077644
20
-82.328689775262973
30
0
10
-35.213462625623819
20
-82.286816232163147
30
0
10
-35.191709992413976
20
-82.24474326769834
30
0
10
-35.17016093355366
20
-82.202473051474087
30
0
10
-35.148815100083915
20
-82.160007624297265
30
0
10
-35.127672170045095
20
-82.117348887063486
30
0
10
-35.106731855979177
20
-82.074498669418503
30
0
10
-35.085993912077981
20
-82.031458785387088
30
0
10
-35.065458139030881
20
-81.988231090359022
30
0
10
-35.045124390818643
20
-81.944817551269367
30
0
10
-35.024992571809449
20
-81.901220274391292
30
0
10
-35.005062604067959
20
-81.857441382386611
30
0
10
-34.985334397581383
20
-81.813482916204464
30
0
10
-34.965807819443583
20
-81.769346730744587
30
0
10
-34.946482658251576
20
-81.725034388938724
30
0
10
-34.92735859973493
20
-81.680547073133766
30
0
10
-34.908435295097945
20
-81.635885634066341
30
0
10
-34.893456994140386
20
-81.600017628045435
30
0
10
-34.882313352507396
20
-81.573038652970695
30
0
10
-34.874924282146729
20
-81.555018027502072
30
0
10
-34.871239752982433
20
-81.545999054247147
30
0
0
ARC
5
204
100
AcDbEntity
8
0
100
AcDbCircle
10
-36.821886377477178
20
-86.312231955725196
30
0
40
0.49999999999999573
210
0
220
0
230
1
100
AcDbArc
50
201.05340418556258
51
288.81033006042912
0
LINE
5
205
100
AcDbEntity
8
0
100
AcDbLine
10
-46.098426239366219
20
-78.287732014708851
30
0
11
-45.864244606226627
21
-77.257837216751284
31
0
0
ARC
5
206
100
AcDbEntity
8
0
100
AcDbCircle
10
-49
20
-91.000000000000014
30
0
40
17
210
0
220
0
230
1
100
AcDbArc
50
201.78773391907689
51
206.21226608092317
0
ARC
5
207
100
AcDbEntity
8
0
100
AcDbCircle
10
-37.367560882313136
20
-85.086626951281659
30
0
40
0.49999999999999128
210
0
220
0
230
1
100
AcDbArc
50
119.18966993957099
51
206.94659581443818
0
LINE
5
208
100
AcDbEntity
8
0
100
AcDbLine
10
-38.666815623652234
20
-81.413274777313802
30
0
11
-39.441639865339141
21
-82.131029419691231
31
0
0
LINE
5
209
100
AcDbEntity
8
0
100
AcDbLine
10
-35.660893914838532
20
-86.444975444666284
30
0
11
-36.660668195095631
21
-86.785527526874546
31
0
0
ARC
5
210
100
AcDbEntity
8
0
100
AcDbCircle
10
-49
20
-91.000000000000014
30
0
40
12.54920000000001
210
0
220
-0
230
1
100
AcDbArc
50
21.053404185562947
51
26.946595814437238
0
SPLINE
5
211
100
AcDbEntity
8
0
100
AcDbSpline
70
0
71
5
72
81
73
75
74
0
42
0.000000001
43
0.0000000001
44
0.0000000001
40
0
40
0
40
0
40
0
40
0
40
0
40
0.014285714285714284
40
0.028571428571428567
40
0.042857142857142858
40
0.057142857142857134
40
0.071428571428571438
40
0.085714285714285715
40
0.10000000000000001
40
0.1142857142857143
40
0.12857142857142859
40
0.14285714285714288
40
0.15714285714285714
40
0.17142857142857146
40
0.18571428571428572
40
0.20000000000000004
40
0.21428571428571436
40
0.22857142857142865
40
0.24285714285714291
40
0.25714285714285717
40
0.27142857142857146
40
0.2857142857142857
40
0.30000000000000004
40
0.31428571428571433
40
0.32857142857142863
40
0.34285714285714292
40
0.35714285714285721
40
0.3714285714285715
40
0.38571428571428573
40
0.40000000000000008
40
0.41428571428571442
40
0.42857142857142871
40
0.44285714285714295
40
0.4571428571428573
40
0.47142857142857147
40
0.48571428571428582
40
0.50000000000000011
40
0.51428571428571435
40
0.52857142857142858
40
0.54285714285714282
40
0.55714285714285705
40
0.57142857142857129
40
0.58571428571428552
40
0.59999999999999976
40
0.61428571428571399
40
0.62857142857142823
40
0.64285714285714246
40
0.6571428571428567
40
0.67142857142857093
40
0.68571428571428517
40
0.6999999999999994
40
0.71428571428571364
40
0.72857142857142776
40
0.74285714285714211
40
0.75714285714285634
40
0.77142857142857058
40
0.78571428571428481
40
0.79999999999999905
40
0.81428571428571328
40
0.82857142857142752
40
0.84285714285714175
40
0.85714285714285599
40
0.87142857142857022
40
0.88571428571428445
40
0.89999999999999869
40
0.91428571428571281
40
0.92857142857142716
40
0.94285714285714117
40
0.95714285714285563
40
0.97142857142856975
40
0.98571428571428399
40
1
40
1
40
1
40
1
40
1
40
1
10
-38.666815623652234
20
-81.413274777313802
30
0
10
-38.660497219983014
20
-81.407421755012734
30
0
10
-38.647710083186304
20
-81.395915358843041
30
0
10
-38.628078394905508
20
-81.3792547021053
30
0
10
-38.601042942775805
20
-81.358177838574207
30
0
10
-38.566060162962017
20
-81.333376765760121
30
0
10
-38.530200760092214
20
-81.309675942692252
30
0
10
-38.493774012724444
20
-81.28663787682089
30
0
10
-38.457011507614524
20
-81.26394170712598
30
0
10
-38.420006976093134
20
-81.241470540148015
30
0
10
-38.382762297476141
20
-81.21924254016804
30
0
10
-38.345223500614942
20
-81.197356701133117
30
0
10
-38.307318820422523
20
-81.175935687047271
30
0
10
-38.268999833960763
20
-81.155063913146705
30
0
10
-38.230268886448691
20
-81.13474647196945
30
0
10
-38.191158387246666
20
-81.114941089362731
30
0
10
-38.151717762023537
20
-81.095578479952891
30
0
10
-38.111998345067029
20
-81.076585790158887
30
0
10
-38.072036963088223
20
-81.057912113170516
30
0
10
-38.031847357284974
20
-81.039541837940902
30
0
10
-37.991429422303838
20
-81.021480395084083
30
0
10
-37.950774882844698
20
-81.003745520863291
30
0
10
-37.909873919048046
20
-80.986357049342033
30
0
10
-37.868722501266525
20
-80.969325611562866
30
0
10
-37.827325488367983
20
-80.952647876492563
30
0
10
-37.785692723614815
20
-80.936312606917596
30
0
10
-37.74383671759913
20
-80.920304264496707
30
0
10
-37.701769907170771
20
-80.904607268411752
30
0
10
-37.659501586647245
20
-80.889210763161117
30
0
10
-37.61703687436237
20
-80.874110232031526
30
0
10
-37.574378398354533
20
-80.85930489744058
30
0
10
-37.531527323771812
20
-80.844796141332694
30
0
10
-37.488484552712258
20
-80.830585657763805
30
0
10
-37.445252080680369
20
-80.816673364164757
30
0
10
-37.401833407750374
20
-80.803056772001241
30
0
10
-37.358232838049105
20
-80.789732074155225
30
0
10
-37.31445506001144
20
-80.776694798539125
30
0
10
-37.270504653967784
20
-80.763940573859287
30
0
10
-37.226385534816025
20
-80.751465995383725
30
0
10
-37.182100800385768
20
-80.739268864396252
30
0
10
-37.137653038579373
20
-80.727347719213526
30
0
10
-37.09304451915267
20
-80.7157015443522
30
0
10
-37.048277415712448
20
-80.704329432322311
30
0
10
-37.003354058676372
20
-80.693230198806333
30
0
10
-36.958277012062752
20
-80.682402264772605
30
0
10
-36.913048942469572
20
-80.671843854199892
30
0
10
-36.867672541137686
20
-80.661553110419405
30
0
10
-36.822150432970361
20
-80.651528233198988
30
0
10
-36.776485074118874
20
-80.641767630068529
30
0
10
-36.730678722084747
20
-80.632269967063749
30
0
10
-36.684733502798416
20
-80.6230340835411
30
0
10
-36.638651455685249
20
-80.614058938243716
30
0
10
-36.592434584055404
20
-80.60534354552253
30
0
10
-36.546084915039906
20
-80.596886902845526
30
0
10
-36.499604518323935
20
-80.58868795910368
30
0
10
-36.452995457653984
20
-80.580745652326385
30
0
10
-36.406259757305619
20
-80.573058929788957
30
0
10
-36.359399367319732
20
-80.565626772109027
30
0
10
-36.31241612078469
20
-80.558448216762883
30
0
10
-36.265311726068738
20
-80.551522370139708
30
0
10
-36.218087834438883
20
-80.54484839345902
30
0
10
-36.170746095176362
20
-80.538425492378849
30
0
10
-36.123288211271316
20
-80.532252903996579
30
0
10
-36.075716008267726
20
-80.526329881623298
30
0
10
-36.028031459798591
20
-80.520655683433517
30
0
10
-35.980236560551894
20
-80.515229579367769
30
0
10
-35.932333223770144
20
-80.510050853130821
30
0
10
-35.884323172497552
20
-80.505118805125903
30
0
10
-35.836207827843431
20
-80.500432751324382
30
0
10
-35.787988217171566
20
-80.495992027471956
30
0
10
-35.739665041796798
20
-80.491796038952188
30
0
10
-35.700923991401368
20
-80.488634651638264
30
0
10
-35.671821886709758
20
-80.486373380436888
30
0
10
-35.65239990511602
20
-80.484914636440095
30
0
10
-35.642683769703581
20
-80.484197456976489
30
0
0
ARC
5
212
100
AcDbEntity
8
0
100
AcDbCircle
10
-39.781426655335125
20
-81.764225742850016
30
0
40
0.49999999999999056
210
0
220
0
230
1
100
AcDbArc
50
225.0534041855617
51
312.81033006042736
0
SPLINE
5
213
100
AcDbEntity
8
0
100
AcDbSpline
70
0
71
5
72
81
73
75
74
0
42
0.000000001
43
0.0000000001
44
0.0000000001
40
0
40
0
40
0
40
0
40
0
40
0
40
0.014285714285714284
40
0.028571428571428567
40
0.042857142857142858
40
0.057142857142857134
40
0.071428571428571438
40
0.085714285714285715
40
0.10000000000000001
40
0.1142857142857143
40
0.12857142857142859
40
0.14285714285714288
40
0.15714285714285714
40
0.17142857142857146
40
0.18571428571428572
40
0.20000000000000004
40
0.21428571428571436
40
0.22857142857142865
40
0.24285714285714291
40
0.25714285714285717
40
0.27142857142857146
40
0.2857142857142857
40
0.30000000000000004
40
0.31428571428571433
40
0.32857142857142863
40
0.34285714285714292
40
0.35714285714285721
40
0.3714285714285715
40
0.38571428571428573
40
0.40000000000000008
40
0.41428571428571442
40
0.42857142857142871
40
0.44285714285714295
40
0.4571428571428573
40
0.47142857142857147
40
0.48571428571428582
40
0.50000000000000011
40
0.51428571428571435
40
0.52857142857142858
40
0.54285714285714282
40
0.55714285714285705
40
0.57142857142857129
40
0.58571428571428552
40
0.59999999999999976
40
0.61428571428571399
40
0.62857142857142823
40
0.64285714285714246
40
0.6571428571428567
40
0.67142857142857093
40
0.68571428571428517
40
0.6999999999999994
40
0.71428571428571364
40
0.72857142857142776
40
0.74285714285714211
40
0.75714285714285634
40
0.77142857142857058
40
0.78571428571428481
40
0.79999999999999905
40
0.81428571428571328
40
0.82857142857142752
40
0.84285714285714175
40
0.85714285714285599
40
0.87142857142857022
40
0.88571428571428445
40
0.89999999999999869
40
0.91428571428571281
40
0.92857142857142716
40
0.94285714285714117
40
0.95714285714285563
40
0.97142857142856975
40
0.98571428571428399
40
1
40
1
40
1
40
1
40
1
40
1
10
-35.660893914838532
20
-86.444975444666284
30
0
10
-35.652741127224374
20
-86.442198369027665
30
0
10
-35.636379423535509
20
-86.436887750168239
30
0
10
-35.611668484287797
20
-86.429652409873384
30
0
10
-35.578397637080187
20
-86.421394045976456
30
0
10
-35.536351772384513
20
-86.412965916989435
30
0
10
-35.493952584566266
20
-86.405899470879348
30
0
10
-35.451304669396265
20
-86.399669243392225
30
0
10
-35.408489085969151
20
-86.393887918581015
30
0
10
-35.365543917262976
20
-86.388410584989984
30
0
10
-35.322478268196924
20
-86.383253072128923
30
0
10
-35.27928309813904
20
-86.378527767512281
30
0
10
-35.23594273836531
20
-86.374375919774394
30
0
10
-35.192447287090346
20
-86.370894341454104
30
0
10
-35.148800958100182
20
-86.368086730929917
30
0
10
-35.105016164371747
20
-86.365901286767127
30
0
10
-35.061109877600011
20
-86.364254610396713
30
0
10
-35.017099361769397
20
-86.363059267224799
30
0
10
-34.972997554089403
20
-86.362253772793309
30
0
10
-34.928810658184126
20
-86.361818276652613
30
0
10
-34.884540786638141
20
-86.361757782766588
30
0
10
-34.840187593576729
20
-86.362091859885695
30
0
10
-34.795750175352325
20
-86.362842621425358
30
0
10
-34.751229174733417
20
-86.364021418331305
30
0
10
-34.706627675663384
20
-86.365623231273801
30
0
10
-34.661950099823365
20
-86.36763379093189
30
0
10
-34.617201556195184
20
-86.370033813808277
30
0
10
-34.572387069116886
20
-86.37280400759478
30
0
10
-34.527510714039693
20
-86.375930674957687
30
0
10
-34.482575329681431
20
-86.379407607860173
30
0
10
-34.437583000603375
20
-86.383233027025895
30
0
10
-34.392535353308695
20
-86.38740772101545
30
0
10
-34.347433900939599
20
-86.391932870509649
30
0
10
-34.302280432896254
20
-86.396807588432978
30
0
10
-34.25707713447747
20
-86.402028177787741
30
0
10
-34.211826389204354
20
-86.407589409952564
30
0
10
-34.166530661213415
20
-86.413485292513812
30
0
10
-34.121192356879362
20
-86.419709969107785
30
0
10
-34.075813667810159
20
-86.426258737024682
30
0
10
-34.030396529715489
20
-86.433128327636481
30
0
10
-33.984942712241626
20
-86.440316353034234
30
0
10
-33.939453875879423
20
-86.447820962334973
30
0
10
-33.893931637208084
20
-86.455640442419764
30
0
10
-33.848377643464715
20
-86.463772763494475
30
0
10
-33.802793594746568
20
-86.472215440161733
30
0
10
-33.757181204739211
20
-86.480965765342219
30
0
10
-33.711542176838279
20
-86.49002094825839
30
0
10
-33.665878176791828
20
-86.499378276671962
30
0
10
-33.620190800689741
20
-86.509035296782372
30
0
10
-33.57448156829016
20
-86.518989871744054
30
0
10
-33.528751949650903
20
-86.52924007656253
30
0
10
-33.483003384362419
20
-86.539784130493274
30
0
10
-33.437237301640025
20
-86.55062031828146
30
0
10
-33.39145514559354
20
-86.561746899560006
30
0
10
-33.345658379449915
20
-86.573162072276261
30
0
10
-33.299848456593018
20
-86.584864026870477
30
0
10
-33.254026798108889
20
-86.596850978283726
30
0
10
-33.208194770828371
20
-86.609121202110828
30
0
10
-33.162353657867371
20
-86.621673073458396
30
0
10
-33.116504656433634
20
-86.634505081116359
30
0
10
-33.070648933871908
20
-86.647615787189807
30
0
10
-33.024787673787571
20
-86.661003795188122
30
0
10
-32.978922121639087
20
-86.674667715496625
30
0
10
-32.933053641438136
20
-86.688606123465405
30
0
10
-32.887183734460571
20
-86.702817538654273
30
0
10
-32.841313926002577
20
-86.717300482808071
30
0
10
-32.795445672554663
20
-86.732053523372699
30
0
10
-32.74958026364439
20
-86.747075320409422
30
0
10
-32.703718719300198
20
-86.762364671009806
30
0
10
-32.657861707889062
20
-86.7779205504809
30
0
10
-32.612009628241672
20
-86.793742130363043
30
0
10
-32.575332065565092
20
-86.806611464129617
30
0
10
-32.547826228158698
20
-86.816382582463802
30
0
10
-32.529490040458946
20
-86.822949585106969
30
0
10
-32.52032220591957
20
-86.826246317367008
30
0
0
LINE
5
214
100
AcDbEntity
8
0
100
AcDbLine
10
-37.611412016801104
20
-84.650121940761821
30
0
11
-36.689352928732042
21
-84.135018679008169
31
0
0
ARC
5
215
100
AcDbEntity
8
0
100
AcDbCircle
10
-49
20
-91.000000000000014
30
0
40
17.000000000000007
210
0
220
-0
230
1
100
AcDbArc
50
33.787733919076821
51
38.212266080923179
0
ARC
5
216
100
AcDbEntity
8
0
100
AcDbCircle
10
-49
20
-91.000000000000014
30
0
40
12.549200000000019
210
0
220
-0
230
1
100
AcDbArc
50
45.053404185562883
51
50.946595814437217
0
LINE
5
217
100
AcDbEntity
8
0
100
AcDbLine
10
-41.178735264740766
20
-80.566941696738823
30
0
11
-40.545903744680267
21
-79.721336233548158
31
0
0
ARC
5
218
100
AcDbEntity
8
0
100
AcDbCircle
10
-40.778423585823667
20
-80.866525674485601
30
0
40
0.50000000000000411
210
0
220
0
230
1
100
AcDbArc
50
143.18966993957144
51
230.94659581443818
0
LWPOLYLINE
5
219
100
AcDbEntity
8
0
100
AcDbPolyline
90
2
70
1
43
0.0
10
-48.500000000000014
20
-88.105365955772683
42
-0.84207535832068336
10
-48.5
20
-93.894634044227345
0
LWPOLYLINE
5
220
100
AcDbEntity
8
0
100
AcDbPolyline
90
2
70
1
43
0.0
10
-49.5
20
-88.105365955772641
10
-49.500000000000014
20
-93.894634044227388
42
-0.84207535832068448
0
SPLINE
5
221
100
AcDbEntity
8
0
100
AcDbSpline
70
0
71
5
72
81
73
75
74
0
42
0.000000001
43
0.0000000001
44
0.0000000001
40
0
40
0
40
0
40
0
40
0
40
0
40
0.014285714285714284
40
0.028571428571428567
40
0.042857142857142858
40
0.057142857142857134
40
0.071428571428571438
40
0.085714285714285715
40
0.10000000000000001
40
0.1142857142857143
40
0.12857142857142859
40
0.14285714285714288
40
0.15714285714285714
40
0.17142857142857146
40
0.18571428571428572
40
0.20000000000000004
40
0.21428571428571436
40
0.22857142857142865
40
0.24285714285714291
40
0.25714285714285717
40
0.27142857142857146
40
0.2857142857142857
40
0.30000000000000004
40
0.31428571428571433
40
0.32857142857142863
40
0.34285714285714292
40
0.35714285714285721
40
0.3714285714285715
40
0.38571428571428573
40
0.40000000000000008
40
0.41428571428571442
40
0.42857142857142871
40
0.44285714285714295
40
0.4571428571428573
40
0.47142857142857147
40
0.48571428571428582
40
0.50000000000000011
40
0.51428571428571435
40
0.52857142857142858
40
0.54285714285714282
40
0.55714285714285705
40
0.57142857142857129
40
0.58571428571428552
40
0.59999999999999976
40
0.61428571428571399
40
0.62857142857142823
40
0.64285714285714246
40
0.6571428571428567
40
0.67142857142857093
40
0.68571428571428517
40
0.6999999999999994
40
0.71428571428571364
40
0.72857142857142776
40
0.74285714285714211
40
0.75714285714285634
40
0.77142857142857058
40
0.78571428571428481
40
0.79999999999999905
40
0.81428571428571328
40
0.82857142857142752
40
0.84285714285714175
40
0.85714285714285599
40
0.87142857142857022
40
0.88571428571428445
40
0.89999999999999869
40
0.91428571428571281
40
0.92857142857142716
40
0.94285714285714117
40
0.95714285714285563
40
0.97142857142856975
40
0.98571428571428399
40
1
40
1
40
1
40
1
40
1
40
1
10
-59.614320022361653
20
-100.27449245585859
30
0
10
-59.620801434219999
20
-100.28016443922482
30
0
10
-59.633581416906523
20
-100.29167878083882
30
0
10
-59.652202875030738
20
-100.30946141183129
30
0
10
-59.675990251562965
20
-100.33414562877006
30
0
10
-59.704312157719954
20
-100.36634435122707
30
0
10
-59.731631473474863
20
-100.39952990192248
30
0
10
-59.758350966335094
20
-100.43334896613456
30
0
10
-59.784765532202684
20
-100.46753768665468
30
0
10
-59.810981626590603
20
-100.50199062692855
30
0
10
-59.836980988281674
20
-100.53670781661967
30
0
10
-59.862670807149243
20
-100.57175327890228
30
0
10
-59.887936592649744
20
-100.60721120760654
30
0
10
-59.912699453557863
20
-100.64313858419958
30
0
10
-59.936954080090828
20
-100.67953360862489
30
0
10
-59.960739127118572
20
-100.7163596302118
30
0
10
-59.984118334073038
20
-100.75356025175677
30
0
10
-60.007158789541464
20
-100.79107680491376
30
0
10
-60.029907272021731
20
-100.82886734350171
30
0
10
-60.052377870695466
20
-100.86691656979968
30
0
10
-60.074565195710534
20
-100.90522515623778
30
0
10
-60.096452472969247
20
-100.94380318672748
30
0
10
-60.118021003515949
20
-100.98266250055822
30
0
10
-60.13926063575893
20
-101.02180821654912
30
0
10
-60.160174174593635
20
-101.06123515426188
30
0
10
-60.180771766773915
20
-101.10093234974786
30
0
10
-60.201067557807391
20
-101.14088573675041
30
0
10
-60.221075743154024
20
-101.18108131791104
30
0
10
-60.24080614732717
20
-101.2215087151186
30
0
10
-60.260262727285493
20
-101.2621623659529
30
0
10
-60.279445981646866
20
-101.3030395754928
30
0
10
-60.298354414246241
20
-101.3441393294255
30
0
10
-60.316986246012888
20
-101.38546090767178
30
0
10
-60.335341350476675
20
-101.42700231702797
30
0
10
-60.353421836682095
20
-101.46875981647088
30
0
10
-60.371231040987581
20
-101.51072872749999
30
0
10
-60.3887729209073
20
-101.55290391990366
30
0
10
-60.406051345013587
20
-101.59528038151845
30
0
10
-60.423069290168669
20
-101.63785386300127
30
0
10
-60.4398286192326
20
-101.68062105366434
30
0
10
-60.456330515372002
20
-101.72357922699459
30
0
10
-60.472575751253203
20
-101.76672601952319
30
0
10
-60.488565002191052
20
-101.8100591746921
30
0
10
-60.504299202420306
20
-101.85357625105507
30
0
10
-60.519779654309609
20
-101.89727453358593
30
0
10
-60.535007845415606
20
-101.9411511846499
30
0
10
-60.549985340924756
20
-101.98520333367419
30
0
10
-60.564713656830264
20
-102.02942818195964
30
0
10
-60.579194120140833
20
-102.07382312035151
30
0
10
-60.59342782153994
20
-102.11838576427787
30
0
10
-60.607415693092776
20
-102.16311387813406
30
0
10
-60.62115855717412
20
-102.20800532482596
30
0
10
-60.634657184630555
20
-102.25305800898934
30
0
10
-60.647912360609325
20
-102.29826980980491
30
0
10
-60.660924914120272
20
-102.34363855905457
30
0
10
-60.673695685596186
20
-102.38916209329116
30
0
10
-60.68622551040044
20
-102.43483828928859
30
0
10
-60.698515198496317
20
-102.48066510113401
30
0
10
-60.710565515524777
20
-102.52664060516977
30
0
10
-60.72237717162831
20
-102.57276300897854
30
0
10
-60.733950828388018
20
-102.61903058266259
30
0
10
-60.745287103397558
20
-102.66544160294433
30
0
10
-60.756386577369355
20
-102.7119942964178
30
0
10
-60.767249802080556
20
-102.75868676948917
30
0
10
-60.777877308992039
20
-102.80551698179544
30
0
10
-60.788269615662259
20
-102.85248287326368
30
0
10
-60.798427234474204
20
-102.89958246625908
30
0
10
-60.808350681085045
20
-102.94681397404872
30
0
10
-60.81804048722983
20
-102.99417591180777
30
0
10
-60.82749720613522
20
-103.04166718836697
30
0
10
-60.836721355852987
20
-103.08928704409905
30
0
10
-60.843914967219632
20
-103.12748541200915
30
0
10
-60.849205849222052
20
-103.15619172512254
30
0
10
-60.852686751956213
20
-103.17535483080067
30
0
10
-60.854415615339228
20
-103.18494277453948
30
0
0
ENDSEC
0
SECTION
2
OBJECTS
0
DICTIONARY
5
C
100
AcDbDictionary
3
ACAD_GROUP
350
D
3
ACAD_MLINESTYLE
350
17
0
DICTIONARY
5
D
100
AcDbDictionary
0
DICTIONARY
5
1A
330
C
100
AcDbDictionary
0
DICTIONARY
5
17
100
AcDbDictionary
0
ENDSEC
0
EOF
