0
SECTION
2
HEADER
9
$INSUNITS
70
4
9
$ACADVER
1
AC1014
9
$HANDSEED
5
FFFF
0
ENDSEC
0
SECTION
2
TABLES
0
TABLE
2
VPORT
5
8
100
AcDbSymbolTable
0
ENDTAB
0
TABLE
2
LTYPE
5
5
100
AcDbSymbolTable
0
LTYPE
5
14
100
AcDbSymbolTableRecord
100
AcDbLinetypeTableRecord
2
BYBLOCK
70
0
0
LTYPE
5
15
100
AcDbSymbolTableRecord
100
AcDbLinetypeTableRecord
2
BYLAYER
70
0
0
ENDTAB
0
TABLE
2
LAYER
5
2
100
AcDbSymbolTable
70
2
0
LAYER
5
50
100
AcDbSymbolTableRecord
100
AcDbLayerTableRecord
2
0
70
0
6
CONTINUOUS
0
ENDTAB
0
TABLE
2
STYLE
5
3
100
AcDbSymbolTable
70
1
0
STYLE
5
11
100
AcDbSymbolTableRecord
100
AcDbTextStyleTableRecord
2
STANDARD
70
0
0
ENDTAB
0
TABLE
2
VIEW
5
6
100
AcDbSymbolTable
70
0
0
ENDTAB
0
TABLE
2
UCS
5
7
100
AcDbSymbolTable
70
0
0
ENDTAB
0
TABLE
2
APPID
5
9
100
AcDbSymbolTable
70
2
0
APPID
5
12
100
AcDbSymbolTableRecord
100
AcDbRegAppTableRecord
2
ACAD
70
0
0
ENDTAB
0
TABLE
2
DIMSTYLE
5
A
100
AcDbSymbolTable
70
1
0
ENDTAB
0
TABLE
2
BLOCK_RECORD
5
1
100
AcDbSymbolTable
70
1
0
BLOCK_RECORD
5
1F
100
AcDbSymbolTableRecord
100
AcDbBlockTableRecord
2
*MODEL_SPACE
0
BLOCK_RECORD
5
1B
100
AcDbSymbolTableRecord
100
AcDbBlockTableRecord
2
*PAPER_SPACE
0
ENDTAB
0
ENDSEC
0
SECTION
2
BLOCKS
0
BLOCK
5
20
100
AcDbEntity
100
AcDbBlockBegin
2
*MODEL_SPACE
0
ENDBLK
5
21
100
AcDbEntity
100
AcDbBlockEnd
0
BLOCK
5
1C
100
AcDbEntity
100
AcDbBlockBegin
2
*PAPER_SPACE
0
ENDBLK
5
1D
100
AcDbEntity
100
AcDbBlockEnd
0
ENDSEC
0
SECTION
2
ENTITIES
0
SPLINE
5
100
100
AcDbEntity
8
0
100
AcDbSpline
70
0
71
3
72
21
73
17
74
0
42
0.000000001
43
0.0000000001
44
0.0000000001
40
0
40
0
40
0
40
0
40
0.03728902056884173
40
0.07430991049624075
40
0.11106266401589031
40
0.14754727371190471
40
0.18376372982292408
40
0.21971201913570024
40
0.25539212313856297
40
0.29080401474806539
40
0.32594765204197201
40
0.36082296496925736
40
0.39542982282283362
40
0.42976793512326794
40
0.46383640340360222
40
0.47124497732273435
40
0.47124497732273435
40
0.47124497732273435
40
0.47124497732273435
10
-9.7204769895096881
20
-32.054057194365441
30
-6.352673089795573
10
-9.6300994123978256
20
-31.968719856665242
30
-6.352673089795573
10
-9.4499941276894042
20
-31.79865880840623
30
-6.352673089795573
10
-9.1868912669472849
20
-31.538166415611197
30
-6.352673089795573
10
-8.9304497421908717
20
-31.274863479754789
30
-6.352673089795573
10
-8.6813080932393447
20
-31.008290170220398
30
-6.352673089795573
10
-8.4396135854342091
20
-30.738536867635489
30
-6.352673089795573
10
-8.2056965660915502
20
-30.465529547207399
30
-6.352673089795573
10
-7.9799052585848962
20
-30.189214790840666
30
-6.352673089795573
10
-7.7626836398865411
20
-29.909497750877023
30
-6.352673089795573
10
-7.5545507214877183
20
-29.626262949042559
30
-6.352673089795573
10
-7.3563048661262398
20
-29.339283862814113
30
-6.352673089795573
10
-7.1685723307995346
20
-29.048443826939838
30
-6.352673089795573
10
-6.9940205620133034
20
-28.752735107891141
30
-6.352673089795573
10
-6.8726504499876251
20
-28.530786508489392
30
-6.352673089795573
10
-6.8141441472696158
20
-28.405510156140519
30
-6.352673089795573
10
-6.8036938295652583
20
-28.383133461287677
30
-6.352673089795573
0
ARC
5
101
100
AcDbEntity
8
0
100
AcDbCircle
10
7.1709037642396023
20
11.805733687852289
30
-6.352673089795573
40
42.549199999999992
210
0
220
0
230
1
100
AcDbArc
50
226.82625586391356
51
229.17374413608653
0
ARC
5
102
100
AcDbEntity
8
0
100
AcDbCircle
10
7.1709037642396023
20
11.805733687852289
30
-6.352673089795573
40
42.549199999999999
210
0
220
0
230
1
100
AcDbArc
50
234.82625586391356
51
237.17374413608633
0
SPLINE
5
103
100
AcDbEntity
8
0
100
AcDbSpline
70
0
71
3
72
21
73
17
74
0
42
0.000000001
43
0.0000000001
44
0.0000000001
40
0
40
0
40
0
40
0
40
0.0074085739191299309
40
0.041477042199464575
40
0.075815154499898035
40
0.11042201235347515
40
0.14529732528076059
40
0.18044096257466696
40
0.2158528541841678
40
0.25153295818703114
40
0.28748124749980791
40
0.32369770361082778
40
0.36018231330684242
40
0.39693506682649221
40
0.43395595675389143
40
0.47124497732273135
40
0.47124497732273135
40
0.47124497732273135
40
0.47124497732273135
10
-15.894734352870351
20
-23.949136734098964
30
-6.352673089795573
10
-15.905933571029074
20
-23.971148165794609
30
-6.352673089795573
10
-15.968632607205379
20
-24.094379585400695
30
-6.352673089795573
10
-16.068807588051751
20
-24.326665740997523
30
-6.352673089795573
10
-16.194364439105748
20
-24.646270878098335
30
-6.352673089795573
10
-16.307969825288179
20
-24.97326514030776
30
-6.352673089795573
10
-16.412060095507393
20
-25.306166973805581
30
-6.352673089795573
10
-16.507112745543367
20
-25.644554707644357
30
-6.352673089795573
10
-16.593797798761287
20
-25.987938684592258
30
-6.352673089795573
10
-16.672525788663243
20
-26.335981013537413
30
-6.352673089795573
10
-16.743644795741663
20
-26.688390229900534
30
-6.352673089795573
10
-16.807411301746079
20
-27.044924817382068
30
-6.352673089795573
10
-16.864087021125151
20
-27.40537003295757
30
-6.352673089795573
10
-16.913691398569924
20
-27.769554186083877
30
-6.352673089795573
10
-16.956979909918264
20
-28.137257200512646
30
-6.352673089795573
10
-16.980105959418456
20
-28.383882137510852
30
-6.352673089795573
10
-16.99171070674933
20
-28.50763955138877
30
-6.352673089795573
0
ARC
5
104
100
AcDbEntity
8
0
100
AcDbCircle
10
7.1709037642396023
20
11.805733687852289
30
-6.352673089795573
40
47.000000000000014
210
0
220
0
230
1
100
AcDbArc
50
239.06280486938675
51
240.93719513061293
0
ARC
5
105
100
AcDbEntity
8
0
100
AcDbCircle
10
7.1709037642396023
20
11.805733687852289
30
-6.352673089795573
40
47.000000000000021
210
0
220
0
230
1
100
AcDbArc
50
247.06280486938675
51
248.93719513061319
0
SPLINE
5
106
100
AcDbEntity
8
0
100
AcDbSpline
70
0
71
3
72
21
73
17
74
0
42
0.000000001
43
0.0000000001
44
0.0000000001
40
0
40
0
40
0
40
0
40
0.037289020568841674
40
0.07430991049624143
40
0.11106266401589032
40
0.1475472737119049
40
0.18376372982292397
40
0.2197120191357009
40
0.25539212313856358
40
0.29080401474806455
40
0.32594765204197174
40
0.36082296496925764
40
0.3954298228228349
40
0.42976793512326888
40
0.46383640340360227
40
0.47124497732273402
40
0.47124497732273402
40
0.47124497732273402
40
0.47124497732273402
10
-15.660194337692491
20
-29.276390885494141
30
-6.352673089795573
10
-15.558819647032976
20
-29.204462172562149
30
-6.352673089795573
10
-15.356799211135886
20
-29.061121957706703
30
-6.352673089795573
10
-15.06000331526662
20
-28.839781499972624
30
-6.352673089795573
10
-14.769412775725904
20
-28.614730772403398
30
-6.352673089795573
10
-14.485595922054504
20
-28.385425551855612
30
-6.352673089795573
10
-14.208711164969898
20
-28.151934844004444
30
-6.352673089795573
10
-13.939075334610891
20
-27.914139369001045
30
-6.352673089795573
10
-13.677025831103066
20
-27.671937765284493
30
-6.352673089795573
10
-13.422989110422602
20
-27.42517431859546
30
-6.352673089795573
10
-13.177463061607151
20
-27.173662442047828
30
-6.352673089795573
10
-12.941206751941232
20
-26.917066707002313
30
-6.352673089795573
10
-12.714824107067319
20
-26.655184425456866
30
-6.352673089795573
10
-12.500816364685026
20
-26.386646434274532
30
-6.352673089795573
10
-12.349738143413926
20
-26.183749278239521
30
-6.352673089795573
10
-12.274366121578792
20
-26.06783461031501
30
-6.352673089795573
10
-12.260903271636057
20
-26.0471300870392
30
-6.352673089795573
0
ARC
5
107
100
AcDbEntity
8
0
100
AcDbCircle
10
7.1709037642396023
20
11.805733687852289
30
-6.352673089795573
40
42.549199999999992
210
0
220
0
230
1
100
AcDbArc
50
242.8262558639135
51
245.17374413608644
0
LINE
5
108
100
AcDbEntity
8
0
100
AcDbLine
10
-20.088501542497369
20
-17.249254741359927
30
-6.352673089795573
11
-21.941811303224526
21
-19.224642430407162
31
-6.352673089795573
0
ARC
5
109
100
AcDbEntity
8
0
100
AcDbCircle
10
7.1709037642396023
20
11.805733687852289
30
-6.352673089795573
40
42.549199999999978
210
0
220
0
230
1
100
AcDbArc
50
250.8262558639135
51
253.17374413608633
0
ARC
5
110
100
AcDbEntity
8
0
100
AcDbCircle
10
7.1709037642396023
20
11.805733687852289
30
-6.352673089795573
40
47.000000000000021
210
0
220
0
230
1
100
AcDbArc
50
231.06280486938684
51
232.93719513061299
0
SPLINE
5
111
100
AcDbEntity
8
0
100
AcDbSpline
70
0
71
3
72
21
73
17
74
0
42
0.000000001
43
0.0000000001
44
0.0000000001
40
0
40
0
40
0
40
0
40
0.037289020568842438
40
0.074309910496241333
40
0.1110626640158911
40
0.14754727371190549
40
0.18376372982292405
40
0.21971201913570054
40
0.25539212313856408
40
0.29080401474806483
40
0.32594765204197185
40
0.36082296496925725
40
0.39542982282283506
40
0.42976793512326916
40
0.46383640340360327
40
0.47124497732273302
40
0.47124497732273302
40
0.47124497732273302
40
0.47124497732273302
10
-21.155530331310331
20
-25.699107752026755
30
-6.352673089795573
10
-21.045131670144848
20
-25.641987674442468
30
-6.352673089795573
10
-20.825128181048992
20
-25.528158247225665
30
-6.352673089795573
10
-20.500416044565331
20
-25.350277864791309
30
-6.352673089795573
10
-20.181332504550653
20
-25.167859701929988
30
-6.352673089795573
10
-19.868364618379204
20
-24.980285735655954
30
-6.352673089795573
10
-19.561678858860038
20
-24.787602253575123
30
-6.352673089795573
10
-19.261572372216399
20
-24.58964704242905
30
-6.352673089795573
10
-18.968365168216291
20
-24.38627277007874
30
-6.352673089795573
10
-18.682457881359298
20
-24.177265886464792
30
-6.352673089795573
10
-18.404317587385663
20
-23.962372327790561
30
-6.352673089795573
10
-18.134649283745347
20
-23.741154288037269
30
-6.352673089795573
10
-17.874022810000305
20
-23.51332700154428
30
-6.352673089795573
10
-17.624724511297167
20
-23.277186524769217
30
-6.352673089795573
10
-17.446878746508794
20
-23.097289974451094
30
-6.352673089795573
10
-17.356108036227148
20
-22.992993138111089
30
-6.352673089795573
10
-17.339894693106409
20
-22.974363776406847
30
-6.352673089795573
0
ARC
5
112
100
AcDbEntity
8
0
100
AcDbCircle
10
7.1709037642396023
20
11.805733687852289
30
-6.352673089795573
40
47.000000000000028
210
0
220
0
230
1
100
AcDbArc
50
255.06280486938675
51
256.93719513061296
0
SPLINE
5
113
100
AcDbEntity
8
0
100
AcDbSpline
70
0
71
3
72
21
73
17
74
0
42
0.000000001
43
0.0000000001
44
0.0000000001
40
0
40
0
40
0
40
0
40
0.037289020568839808
40
0.074309910496239098
40
0.11106266401588932
40
0.14754727371190376
40
0.18376372982292308
40
0.21971201913569827
40
0.25539212313856224
40
0.29080401474806333
40
0.32594765204197057
40
0.36082296496925614
40
0.39542982282283384
40
0.42976793512326733
40
0.46383640340360072
40
0.47124497732273185
40
0.47124497732273185
40
0.47124497732273185
40
0.47124497732273185
10
-3.4519881286159859
20
-33.978042563487051
30
-6.352673089795573
10
-3.3743667617872952
20
-33.88095759522723
30
-6.352673089795573
10
-3.2196821727676617
20
-33.687485758427457
30
-6.352673089795573
10
-2.9953933450619719
20
-33.392911618691492
30
-6.352673089795573
10
-2.7780921776713141
20
-33.096481366691712
30
-6.352673089795573
10
-2.5684749922420913
20
-32.797828514418143
30
-6.352673089795573
10
-2.3666750423874094
20
-32.497063058294479
30
-6.352673089795573
10
-2.173029762765939
20
-32.194157669392581
30
-6.352673089795573
10
-1.9878914222272959
20
-31.88910791280496
30
-6.352673089795573
10
-1.8117128772330515
20
-31.581881653576254
30
-6.352673089795573
10
-1.6450241597598181
20
-31.272436769697798
30
-6.352673089795573
10
-1.4886473887760887
20
-30.960660053766009
30
-6.352673089795573
10
-1.3432189632541203
20
-30.646523134035526
30
-6.352673089795573
10
-1.2115206196936756
20
-30.329399320973096
30
-6.352673089795573
10
-1.1222209480875645
20
-30.092719255229134
30
-6.352673089795573
10
-1.0817191231191348
20
-29.960519580154674
30
-6.352673089795573
10
-1.0744847412002079
20
-29.936906250637001
30
-6.352673089795573
0
SPLINE
5
114
100
AcDbEntity
8
0
100
AcDbSpline
70
0
71
3
72
21
73
17
74
0
42
0.000000001
43
0.0000000001
44
0.0000000001
40
0
40
0
40
0
40
0
40
0.007408573919131094
40
0.041477042199464811
40
0.075815154499898216
40
0.11042201235347421
40
0.14529732528076103
40
0.18044096257466768
40
0.21585285418416869
40
0.25153295818703247
40
0.28748124749980941
40
0.32369770361082789
40
0.36018231330684169
40
0.3969350668264916
40
0.4339559567538917
40
0.47124497732273324
40
0.47124497732273324
40
0.47124497732273324
40
0.47124497732273324
10
-10.694144957234537
20
-26.811289175379351
30
-6.352673089795573
10
-10.702171786166339
20
-26.834645023254318
30
-6.352673089795573
10
-10.747110140830319
20
-26.965403182447766
30
-6.352673089795573
10
-10.813982241064757
20
-27.209370407869056
30
-6.352673089795573
10
-10.89383674346222
20
-27.543339306053724
30
-6.352673089795573
10
-10.960827724367876
20
-27.88296209646219
30
-6.352673089795573
10
-11.017574014749471
20
-28.227110717886799
30
-6.352673089795573
10
-11.06460714868417
20
-28.575434057621145
30
-6.352673089795573
10
-11.102658776031191
20
-28.927540472973369
30
-6.352673089795573
10
-11.132182460362658
20
-29.283152496385227
30
-6.352673089795573
10
-11.153563458704854
20
-29.642029943232153
30
-6.352673089795573
10
-11.167089369316921
20
-30.003969342995084
30
-6.352673089795573
10
-11.173049246113118
20
-30.368794466125291
30
-6.352673089795573
10
-11.171486239255369
20
-30.736337999138144
30
-6.352673089795573
10
-11.163179101036583
20
-31.106487149467288
30
-6.352673089795573
10
-11.151756532156636
20
-31.353930473553923
30
-6.352673089795573
10
-11.14602463982802
20
-31.478098557459155
30
-6.352673089795573
0
ARC
5
115
100
AcDbEntity
8
0
100
AcDbCircle
10
7.1709037642396023
20
11.805733687852289
30
-6.352673089795573
40
42.549199999999999
210
0
220
0
230
1
100
AcDbArc
50
258.8262558639135
51
261.17374413608644
0
SPLINE
5
116
100
AcDbEntity
8
0
100
AcDbSpline
70
0
71
3
72
21
73
17
74
0
42
0.000000001
43
0.0000000001
44
0.0000000001
40
0
40
0
40
0
40
0
40
0.0074085739191312623
40
0.041477042199465131
40
0.075815154499900062
40
0.11042201235347682
40
0.145297325280762
40
0.18044096257466885
40
0.2158528541841698
40
0.2515329581870337
40
0.28748124749981063
40
0.32369770361082906
40
0.36018231330684419
40
0.3969350668264936
40
0.43395595675389287
40
0.47124497732273318
40
0.47124497732273318
40
0.47124497732273318
40
0.47124497732273318
10
0.64221080376045236
20
-30.239605992875582
30
-6.352673089795573
10
0.64093266471958343
20
-30.264269568716308
30
-6.352673089795573
10
0.63377697895420027
20
-30.402349067834706
30
-6.352673089795573
10
0.63674187139298732
20
-30.655297865583123
30
-6.352673089795573
10
0.65203510101086604
20
-30.99834025893367
30
-6.352673089795573
10
0.68125196501628293
20
-31.343271855261463
30
-6.352673089795573
10
0.72156414570341498
20
-31.689730140180092
30
-6.352673089795573
10
0.77236391994577547
20
-32.037524113141593
30
-6.352673089795573
10
0.83284002940285928
20
-32.386478973060299
30
-6.352673089795573
10
0.90248000036201703
20
-32.736453020064332
30
-6.352673089795573
10
0.9808472961459791
20
-33.087321565102201
30
-6.352673089795573
10
1.0676093754885707
20
-33.43896829258135
30
-6.352673089795573
10
1.1624398064870911
20
-33.791303473843499
30
-6.352673089795573
10
1.2652509926972355
20
-34.144178170641204
30
-6.352673089795573
10
1.3752632595244574
20
-34.497698613023658
30
-6.352673089795573
10
1.4544479610237693
20
-34.732407915701089
30
-6.352673089795573
10
1.4941831718890131
20
-34.85018601497196
30
-6.352673089795573
0
SPLINE
5
117
100
AcDbEntity
8
0
100
AcDbSpline
70
0
71
3
72
21
73
17
74
0
42
0.000000001
43
0.0000000001
44
0.0000000001
40
0
40
0
40
0
40
0
40
0.0074085739191297149
40
0.041477042199463479
40
0.075815154499897411
40
0.11042201235347551
40
0.14529732528076028
40
0.18044096257466616
40
0.21585285418416816
40
0.25153295818703197
40
0.28748124749980852
40
0.32369770361082784
40
0.36018231330684208
40
0.39693506682649116
40
0.43395595675389131
40
0.4712449773227313
40
0.4712449773227313
40
0.4712449773227313
40
0.4712449773227313
10
-20.646377339331089
20
-20.391056410617615
30
-6.352673089795573
10
-20.660530966674191
20
-20.411294998653624
30
-6.352673089795573
10
-20.739770318942735
20
-20.524601119263362
30
-6.352673089795573
10
-20.871298388346219
20
-20.740685019238615
30
-6.352673089795573
10
-21.040113766769814
20
-21.039705644807366
30
-6.352673089795573
10
-21.198122358611169
20
-21.347706807454294
30
-6.352673089795573
10
-21.347530609959094
20
-21.662882297506506
30
-6.352673089795573
10
-21.48875268438422
20
-21.984748093120924
30
-6.352673089795573
10
-21.62238393751489
20
-22.312726053146687
30
-6.352673089795573
10
-21.748783882215683
20
-22.646424439584528
30
-6.352673089795573
10
-21.868256647454217
20
-22.985506180926855
30
-6.352673089795573
10
-21.981022606344922
20
-23.329696415933739
30
-6.352673089795573
10
-22.087311039896846
20
-23.678746067833703
30
-6.352673089795573
10
-22.187117308861282
20
-24.032482410786173
30
-6.352673089795573
10
-22.281158908143336
20
-24.390582368394735
30
-6.352673089795573
10
-22.338383453775634
20
-24.631588644437553
30
-6.352673089795573
10
-22.367098967559404
20
-24.752526590998997
30
-6.352673089795573
0
ARC
5
118
100
AcDbEntity
8
0
100
AcDbCircle
10
7.1709037642396023
20
11.805733687852289
30
-6.352673089795573
40
47.000000000000014
210
0
220
0
230
1
100
AcDbArc
50
263.06280486938675
51
264.93719513061296
0
SPLINE
5
119
100
AcDbEntity
8
0
100
AcDbSpline
70
0
71
3
72
21
73
17
74
0
42
0.000000001
43
0.0000000001
44
0.0000000001
40
0
40
0
40
0
40
0
40
0.0074085739191312658
40
0.041477042199465394
40
0.075815154499898202
40
0.11042201235347715
40
0.14529732528076156
40
0.18044096257466805
40
0.21585285418416883
40
0.25153295818703186
40
0.28748124749980986
40
0.32369770361082906
40
0.36018231330684325
40
0.39693506682649193
40
0.43395595675389231
40
0.47124497732273274
40
0.47124497732273274
40
0.47124497732273274
40
0.47124497732273274
10
-5.1458327094269585
20
-28.921805192839383
30
-6.352673089795573
10
-5.1505309160370611
20
-28.946050861881663
30
-6.352673089795573
10
-5.1768339152318044
20
-29.081790701829007
30
-6.352673089795573
10
-5.2091015454891636
20
-29.332690452540504
30
-6.352673089795573
10
-5.241699422174011
20
-29.674522787089863
30
-6.352673089795573
10
-5.2607720945607239
20
-30.0201637343973
30
-6.352673089795573
10
-5.2690699031103527
20
-30.368860682295889
30
-6.352673089795573
10
-5.2671680744911376
20
-30.720339910329805
30
-6.352673089795573
10
-5.2558456443240376
20
-31.074315413226632
30
-6.352673089795573
10
-5.2355903781521862
20
-31.43057554757214
30
-6.352673089795573
10
-5.2068172109459692
20
-31.788936083617052
30
-6.352673089795573
10
-5.16983925970111
20
-32.14923555694498
30
-6.352673089795573
10
-5.1249672916918554
20
-32.511339681590606
30
-6.352673089795573
10
-5.0722673226821797
20
-32.875088777694472
30
-6.352673089795573
10
-5.0125262238924506
20
-33.24047953175122
30
-6.352673089795573
10
-4.9667773639426427
20
-33.483925040085524
30
-6.352673089795573
10
-4.9438203967187899
20
-33.606087003503973
30
-6.352673089795573
0
SPLINE
5
120
100
AcDbEntity
8
0
100
AcDbSpline
70
0
71
3
72
21
73
17
74
0
42
0.000000001
43
0.0000000001
44
0.0000000001
40
0
40
0
40
0
40
0
40
0.037289020568842077
40
0.074309910496240486
40
0.11106266401588871
40
0.14754727371190279
40
0.18376372982292238
40
0.21971201913569915
40
0.25539212313856208
40
0.29080401474806433
40
0.32594765204197074
40
0.36082296496925664
40
0.39542982282283279
40
0.42976793512326794
40
0.46383640340360144
40
0.47124497732273274
40
0.47124497732273274
40
0.47124497732273274
40
0.47124497732273274
10
3.0232632396117132
20
-35.010898806149939
30
-6.352673089795573
10
3.0866175845449124
20
-34.903955855805123
30
-6.352673089795573
10
3.2128707183016001
20
-34.690838939696924
30
-6.352673089795573
10
3.3939799860643212
20
-34.367916603576901
30
-6.352673089795573
10
3.5679112760423881
20
-34.044128713104513
30
-6.352673089795573
10
3.7339240378709428
20
-33.719209256148716
30
-6.352673089795573
10
3.8919016232952863
20
-33.393285703974072
30
-6.352673089795573
10
4.0415060780959591
20
-33.066377955443571
30
-6.352673089795573
10
4.1823879444597765
20
-32.738530645158107
30
-6.352673089795573
10
4.3140943007717034
20
-32.409774976335513
30
-6.352673089795573
10
4.4360944110393454
20
-32.080143003089425
30
-6.352673089795573
10
4.5475584016740616
20
-31.749637036589135
30
-6.352673089795573
10
4.6478521185109116
20
-31.418317550819587
30
-6.352673089795573
10
4.7341336783927872
20
-31.085951098041669
30
-6.352673089795573
10
4.7896247930484144
20
-30.839146274215636
30
-6.352673089795573
10
4.8113338183143792
20
-30.702596392715975
30
-6.352673089795573
10
4.8152114554328058
20
-30.678206035132767
30
-6.352673089795573
0
SPLINE
5
121
100
AcDbEntity
8
0
100
AcDbSpline
70
0
71
3
72
21
73
17
74
0
42
0.000000001
43
0.0000000001
44
0.0000000001
40
0
40
0
40
0
40
0
40
0.0074085739191305901
40
0.041477042199464138
40
0.075815154499899146
40
0.11042201235347612
40
0.14529732528076117
40
0.18044096257466677
40
0.21585285418416911
40
0.25153295818703225
40
0.28748124749980986
40
0.32369770361082872
40
0.36018231330684275
40
0.39693506682649149
40
0.43395595675389237
40
0.47124497732273146
40
0.47124497732273146
40
0.47124497732273146
40
0.47124497732273146
10
6.5573278991454327
20
-30.739042081891448
30
-6.352673089795573
10
6.5594947051963661
20
-30.763643516081274
30
-6.352673089795573
10
6.5716256101442818
20
-30.901375113983541
30
-6.352673089795573
10
6.6097653170204325
20
-31.151449598145618
30
-6.352673089795573
10
6.6726519876223076
20
-31.489025120315752
30
-6.352673089795573
10
6.7495897149956798
20
-31.826533664495251
30
-6.352673089795573
10
6.8377272541769196
20
-32.164009870008442
30
-6.352673089795573
10
6.9364362142206897
20
-32.501349173823606
30
-6.352673089795573
10
7.0448889042877205
20
-32.838491381346167
30
-6.352673089795573
10
7.1625581172137682
20
-33.175367494273345
30
-6.352673089795573
10
7.2889942113045141
20
-33.511914791182065
30
-6.352673089795573
10
7.4238516935608363
20
-33.848064369254267
30
-6.352673089795573
10
7.5667948210772531
20
-34.183772803605017
30
-6.352673089795573
10
7.7177161216942913
20
-34.518904796512373
30
-6.352673089795573
10
7.8758582929222918
20
-34.853674053933176
30
-6.352673089795573
10
7.9869375958276922
20
-35.075078801354934
30
-6.352673089795573
10
8.0426776496529691
20
-35.186180619746537
30
-6.352673089795573
0
ARC
5
122
100
AcDbEntity
8
0
100
AcDbCircle
10
7.1709037642396023
20
11.805733687852289
30
-6.352673089795573
40
42.549199999999985
210
0
220
-0
230
1
100
AcDbArc
50
2.8262558639135369
51
5.1737441360864533
0
SPLINE
5
123
100
AcDbEntity
8
0
100
AcDbSpline
70
0
71
3
72
21
73
17
74
0
42
0.000000001
43
0.0000000001
44
0.0000000001
40
0
40
0
40
0
40
0
40
0.0074085739191311045
40
0.041477042199464992
40
0.07581515449989891
40
0.1104220123534756
40
0.14529732528076192
40
0.1804409625746678
40
0.2158528541841683
40
0.25153295818703253
40
0.28748124749980969
40
0.32369770361082884
40
0.36018231330684308
40
0.39693506682649199
40
0.43395595675389209
40
0.47124497732273285
40
0.47124497732273285
40
0.47124497732273285
40
0.47124497732273285
10
38.377271337963045
20
-17.118253649540559
30
-6.352673089795573
10
38.397003642727256
20
-17.133104971412738
30
-6.352673089795573
10
38.507475326796538
20
-17.216250379791465
30
-6.352673089795573
10
38.718837330873896
20
-17.355239545203467
30
-6.352673089795573
10
39.011784229414189
20
-17.534387755195795
30
-6.352673089795573
10
39.314083345744812
20
-17.703049178032401
30
-6.352673089795573
10
39.623852566629004
20
-17.863365879886295
30
-6.352673089795573
10
39.940593710976529
20
-18.015734879912038
30
-6.352673089795573
10
40.263708212212741
20
-18.160730994228309
30
-6.352673089795573
10
40.592792024156495
20
-18.298699845235138
30
-6.352673089795573
10
40.927497666687188
20
-18.429933613006973
30
-6.352673089795573
10
41.267542755092173
20
-18.554642943894009
30
-6.352673089795573
10
41.612670362538928
20
-18.673048286579522
30
-6.352673089795573
10
41.96270803031431
20
-18.785138976596034
30
-6.352673089795573
10
42.317307838620195
20
-18.891620796566436
30
-6.352673089795573
10
42.556170192309814
20
-18.957221480287721
30
-6.352673089795573
10
42.676032309763258
20
-18.990140174823587
30
-6.352673089795573
0
SPLINE
5
124
100
AcDbEntity
8
0
100
AcDbSpline
70
0
71
3
72
21
73
17
74
0
42
0.000000001
43
0.0000000001
44
0.0000000001
40
0
40
0
40
0
40
0
40
0.0074085739191315364
40
0.041477042199464673
40
0.075815154499898313
40
0.11042201235347651
40
0.14529732528076167
40
0.1804409625746688
40
0.21585285418417044
40
0.25153295818703353
40
0.28748124749980936
40
0.32369770361082961
40
0.36018231330684336
40
0.39693506682649288
40
0.43395595675389259
40
0.47124497732273274
40
0.47124497732273274
40
0.47124497732273274
40
0.47124497732273274
10
49.546750943059749
20
15.642659086824803
30
-6.352673089795573
10
49.570991115112292
20
15.647385572995516
30
-6.352673089795573
10
49.706700180057894
20
15.673846895848966
30
-6.352673089795573
10
49.951418045080771
20
15.737917570952145
30
-6.352673089795573
10
50.280570846181305
20
15.835745992361741
30
-6.352673089795573
10
50.608188300832055
20
15.947541496277216
30
-6.352673089795573
10
50.934602894853938
20
16.070472077948537
30
-6.352673089795573
10
51.259776322762278
20
16.203901859008671
30
-6.352673089795573
10
51.583735236966291
20
16.347001390746925
30
-6.352673089795573
10
51.906466125297861
20
16.499239141808484
30
-6.352673089795573
10
52.227953610283706
20
16.660161377509336
30
-6.352673089795573
10
52.548165280414921
20
16.82941729519143
30
-6.352673089795573
10
52.867093043382589
20
17.006668452047609
30
-6.352673089795573
10
53.184613576539512
20
17.191793822199134
30
-6.352673089795573
10
53.501018574804384
20
17.384062590093919
30
-6.352673089795573
10
53.709599495020285
20
17.51767648696374
30
-6.352673089795573
10
53.814266263857149
20
17.5847244932847
30
-6.352673089795573
0
ARC
5
125
100
AcDbEntity
8
0
100
AcDbCircle
10
7.1709037642396023
20
11.805733687852289
30
-6.352673089795573
40
47.000000000000014
210
0
220
0
230
1
100
AcDbArc
50
343.06280486938681
51
344.93719513061296
0
SPLINE
5
126
100
AcDbEntity
8
0
100
AcDbSpline
70
0
71
3
72
21
73
17
74
0
42
0.000000001
43
0.0000000001
44
0.0000000001
40
0
40
0
40
0
40
0
40
0.0074085739191315468
40
0.041477042199466505
40
0.075815154499899742
40
0.11042201235347684
40
0.1452973252807615
40
0.18044096257466985
40
0.21585285418416983
40
0.25153295818703436
40
0.28748124749981063
40
0.32369770361082961
40
0.36018231330684441
40
0.3969350668264936
40
0.43395595675389326
40
0.47124497732273318
40
0.47124497732273318
40
0.47124497732273318
40
0.47124497732273318
10
12.484387550812222
20
-30.410392504514398
30
-6.352673089795573
10
12.489957127539878
20
-30.434452958120541
30
-6.352673089795573
10
12.521138508934975
20
-30.569155865920877
30
-6.352673089795573
10
12.59371068423742
20
-30.811488621117924
30
-6.352673089795573
10
12.702966778312561
20
-31.137026748555058
30
-6.352673089795573
10
12.826127863705922
20
-31.460543020684089
30
-6.352673089795573
10
12.960375264436092
20
-31.782468556325068
30
-6.352673089795573
10
13.105072152653761
20
-32.102787265162874
30
-6.352673089795573
10
13.259390515081733
20
-32.421554730713396
30
-6.352673089795573
10
13.422798672591776
20
-32.738775999216543
30
-6.352673089795573
10
13.594842630236776
20
-33.054451537678638
30
-6.352673089795573
10
13.775170667912818
20
-33.368561197171218
30
-6.352673089795573
10
13.963444266565418
20
-33.681108701798607
30
-6.352673089795573
10
14.159538170143261
20
-33.99197502778069
30
-6.352673089795573
10
14.362732188293169
20
-34.301477197438459
30
-6.352673089795573
10
14.503544060324423
20
-34.50526799804021
30
-6.352673089795573
10
14.574204040365393
20
-34.607531065033996
30
-6.352673089795573
0
ARC
5
127
100
AcDbEntity
8
0
100
AcDbCircle
10
7.1709037642396023
20
11.805733687852289
30
-6.352673089795573
40
42.549199999999999
210
0
220
0
230
1
100
AcDbArc
50
322.8262558639135
51
325.1737441360865
0
ARC
5
128
100
AcDbEntity
8
0
100
AcDbCircle
10
7.1709037642396023
20
11.805733687852289
30
-6.352673089795573
40
42.549199999999999
210
0
220
0
230
1
100
AcDbArc
50
346.82625586391367
51
349.17374413608633
0
SPLINE
5
129
100
AcDbEntity
8
0
100
AcDbSpline
70
0
71
3
72
21
73
17
74
0
42
0.000000001
43
0.0000000001
44
0.0000000001
40
0
40
0
40
0
40
0
40
0.0074085739191311773
40
0.041477042199464582
40
0.07581515449989859
40
0.11042201235347579
40
0.1452973252807605
40
0.18044096257466766
40
0.21585285418416938
40
0.25153295818703214
40
0.28748124749980886
40
0.32369770361082856
40
0.36018231330684203
40
0.3969350668264921
40
0.43395595675389226
40
0.47124497732273257
40
0.47124497732273257
40
0.47124497732273257
40
0.47124497732273257
10
45.140920971594895
20
-7.3961467907139467
30
-6.352673089795573
10
45.16398245942856
20
-7.4049838372543348
30
-6.352673089795573
10
45.293092638323969
20
-7.4544582106324224
30
-6.352673089795573
10
45.534577442861696
20
-7.5298039075693701
30
-6.352673089795573
10
45.865556014274027
20
-7.6212651112224528
30
-6.352673089795573
10
46.202633964137675
20
-7.7000679474865708
30
-6.352673089795573
10
46.544592522546623
20
-7.7687902832398592
30
-6.352673089795573
10
46.891062240411131
20
-7.8279510751066272
30
-6.352673089795573
10
47.241626179405607
20
-7.8782678591118938
30
-6.352673089795573
10
47.595991211857125
20
-7.9201842390510109
30
-6.352673089795573
10
47.953903854178854
20
-7.9540768549395535
30
-6.352673089795573
10
48.315150722765914
20
-7.9802260288208604
30
-6.352673089795573
10
48.679545607587769
20
-7.9989144882028125
30
-6.352673089795573
10
49.046919791163681
20
-8.0101795178050175
30
-6.352673089795573
10
49.417133371574408
20
-8.0147954591217374
30
-6.352673089795573
10
49.664824601778655
20
-8.0120154960351329
30
-6.352673089795573
10
49.789117085999507
20
-8.0106204990552587
30
-6.352673089795573
0
ARC
5
130
100
AcDbEntity
8
0
100
AcDbCircle
10
7.1709037642396023
20
11.805733687852289
30
-6.352673089795573
40
42.549199999999992
210
0
220
0
230
1
100
AcDbArc
50
274.82625586391367
51
277.17374413608644
0
SPLINE
5
131
100
AcDbEntity
8
0
100
AcDbSpline
70
0
71
3
72
21
73
17
74
0
42
0.000000001
43
0.0000000001
44
0.0000000001
40
0
40
0
40
0
40
0
40
0.037289020568840453
40
0.07430991049624068
40
0.11106266401588913
40
0.14754727371190418
40
0.18376372982292355
40
0.21971201913569915
40
0.2553921231385638
40
0.29080401474806389
40
0.32594765204197201
40
0.3608229649692562
40
0.39542982282283445
40
0.42976793512326772
40
0.46383640340360149
40
0.47124497732273213
40
0.47124497732273213
40
0.47124497732273213
40
0.47124497732273213
10
50.41447575998761
20
-6.606041920397983
30
-6.352673089795573
10
50.332344539442211
20
-6.5127411687285086
30
-6.352673089795573
10
50.168672671568714
20
-6.3268105543003017
30
-6.352673089795573
10
49.917521121121958
20
-6.0547769153087971
30
-6.352673089795573
10
49.663328262447493
20
-5.7893024678587368
30
-6.352673089795573
10
49.405612260326748
20
-5.5310093149311212
30
-6.352673089795573
10
49.144458300843425
20
-5.2800477863957092
30
-6.352673089795573
10
48.879780875343741
20
-5.0367454449019551
30
-6.352673089795573
10
48.611514445452578
20
-4.80144843743052
30
-6.352673089795573
10
48.339548726717481
20
-4.5745971603592643
30
-6.352673089795573
10
48.063750197970869
20
-4.3567062788781374
30
-6.352673089795573
10
47.783864612223326
20
-4.1485657638617957
30
-6.352673089795573
10
47.499753519238233
20
-3.9507974192503048
30
-6.352673089795573
10
47.210316706830604
20
-3.766031897220028
30
-6.352673089795573
10
46.992739068343134
20
-3.6369898261743572
30
-6.352673089795573
10
46.869580871482093
20
-3.5741470822694699
30
-6.352673089795573
10
46.847582518735422
20
-3.5629221952280687
30
-6.352673089795573
0
SPLINE
5
132
100
AcDbEntity
8
0
100
AcDbSpline
70
0
71
3
72
21
73
17
74
0
42
0.000000001
43
0.0000000001
44
0.0000000001
40
0
40
0
40
0
40
0
40
0.0074085739191320134
40
0.041477042199465006
40
0.075815154499898896
40
0.11042201235347696
40
0.14529732528076203
40
0.18044096257466896
40
0.21585285418417016
40
0.25153295818703197
40
0.2874812474998098
40
0.323697703610828
40
0.36018231330684275
40
0.39693506682649249
40
0.43395595675389192
40
0.47124497732273318
40
0.47124497732273318
40
0.47124497732273318
40
0.47124497732273318
10
23.914893596761893
20
-27.310416750660828
30
-6.352673089795573
10
23.926879377344537
20
-27.332009959697086
30
-6.352673089795573
10
23.993981998233032
20
-27.452899951778562
30
-6.352673089795573
10
24.13053881041256
20
-27.665841544514464
30
-6.352673089795573
10
24.325292977359219
20
-27.948653816109484
30
-6.352673089795573
10
24.532856180991462
20
-28.225689820602511
30
-6.352673089795573
10
24.750637768506682
20
-28.498140908396028
30
-6.352673089795573
10
24.9780211465946
20
-28.76616714603098
30
-6.352673089795573
10
25.214225698701345
20
-29.030050195202382
30
-6.352673089795573
10
25.458741732978751
20
-29.289941457296411
30
-6.352673089795573
10
25.711132970198285
20
-29.545966519195161
30
-6.352673089795573
10
25.971055761499112
20
-29.798202959704916
30
-6.352673089795573
10
26.238185727983023
20
-30.04674766716154
30
-6.352673089795573
10
26.512369658405674
20
-30.291520753811216
30
-6.352673089795573
10
26.793002644561064
20
-30.533025472432325
30
-6.352673089795573
10
26.984532060895781
20
-30.690108750961087
30
-6.352673089795573
10
27.080642314528831
20
-30.768933790110815
30
-6.352673089795573
0
ARC
5
133
100
AcDbEntity
8
0
100
AcDbCircle
10
7.1709037642396023
20
11.805733687852289
30
-6.352673089795573
40
42.549199999999999
210
0
220
0
230
1
100
AcDbArc
50
306.82625586391367
51
309.17374413608644
0
SPLINE
5
134
100
AcDbEntity
8
0
100
AcDbSpline
70
0
71
3
72
21
73
17
74
0
42
0.000000001
43
0.0000000001
44
0.0000000001
40
0
40
0
40
0
40
0
40
0.037289020568841161
40
0.074309910496241166
40
0.1110626640158905
40
0.14754727371190485
40
0.18376372982292372
40
0.21971201913569971
40
0.25539212313856341
40
0.29080401474806494
40
0.32594765204197129
40
0.3608229649692577
40
0.39542982282283506
40
0.42976793512326855
40
0.46383640340360183
40
0.47124497732273207
40
0.47124497732273207
40
0.47124497732273207
40
0.47124497732273207
10
47.431208384374948
20
-12.445201797070959
30
-6.352673089795573
10
47.362861414153812
20
-12.341378585254152
30
-6.352673089795573
10
47.226658929820772
20
-12.134478713392518
30
-6.352673089795573
10
47.015811334102303
20
-11.830138946989045
30
-6.352673089795573
10
46.801039164932149
20
-11.531871270228811
30
-6.352673089795573
10
46.581778696277922
20
-11.240224673327841
30
-6.352673089795573
10
46.358093363324116
20
-10.955359878767347
30
-6.352673089795573
10
46.129852901671583
20
-10.677589360875128
30
-6.352673089795573
10
45.896944236411493
20
-10.407246776774258
30
-6.352673089795573
10
45.659196865042517
20
-10.144752888306169
30
-6.352673089795573
10
45.416406938265524
20
-9.8905987694195439
30
-6.352673089795573
10
45.16821274070891
20
-9.6455313187049363
30
-6.352673089795573
10
44.914390631141863
20
-9.4101470202004087
30
-6.352673089795573
10
44.65348498854766
20
-9.1868978048146843
30
-6.352673089795573
10
44.455983985863099
20
-9.0288306076860358
30
-6.352673089795573
10
44.342770375649877
20
-8.9494591368790957
30
-6.352673089795573
10
44.322548311697417
20
-8.9352819106990076
30
-6.352673089795573
0
SPLINE
5
135
100
AcDbEntity
8
0
100
AcDbSpline
70
0
71
3
72
21
73
17
74
0
42
0.000000001
43
0.0000000001
44
0.0000000001
40
0
40
0
40
0
40
0
40
0.037289020568841168
40
0.074309910496240639
40
0.11106266401589049
40
0.14754727371190407
40
0.18376372982292327
40
0.21971201913569971
40
0.2553921231385633
40
0.29080401474806467
40
0.32594765204197151
40
0.36082296496925731
40
0.39542982282283462
40
0.42976793512326783
40
0.46383640340360238
40
0.47124497732273402
40
0.47124497732273402
40
0.47124497732273402
40
0.47124497732273402
10
39.187128729231354
20
-22.60300559435683
30
-6.352673089795573
10
39.15004696030195
20
-22.484365339538186
30
-6.352673089795573
10
39.076150062819771
20
-22.247937925185795
30
-6.352673089795573
10
38.95735775385635
20
-21.897270291427109
30
-6.352673089795573
10
38.833119208027355
20
-21.551357765807843
30
-6.352673089795573
10
38.702741214879367
20
-21.210572687641115
30
-6.352673089795573
10
38.566240451105685
20
-20.875087038398359
30
-6.352673089795573
10
38.423405568931543
20
-20.545165281947256
30
-6.352673089795573
10
38.274035905411182
20
-20.221096982430939
30
-6.352673089795573
10
38.117851585339665
20
-19.903239605232077
30
-6.352673089795573
10
37.954521297869157
20
-19.592009012445601
30
-6.352673089795573
10
37.783491466715645
20
-19.288023466808781
30
-6.352673089795573
10
37.604382700847189
20
-18.991794701702105
30
-6.352673089795573
10
37.41511992378436
20
-18.705278440861115
30
-6.352673089795573
10
37.268838999252203
20
-18.498895844725833
30
-6.352673089795573
10
37.181888834635885
20
-18.391393189927165
30
-6.352673089795573
10
37.16635791228267
20
-18.372191209208562
30
-6.352673089795573
0
ARC
5
136
100
AcDbEntity
8
0
100
AcDbCircle
10
7.1709037642396023
20
11.805733687852289
30
-6.352673089795573
40
42.549199999999992
210
0
220
0
230
1
100
AcDbArc
50
266.82625586391356
51
269.17374413608644
0
SPLINE
5
137
100
AcDbEntity
8
0
100
AcDbSpline
70
0
71
3
72
21
73
17
74
0
42
0.000000001
43
0.0000000001
44
0.0000000001
40
0
40
0
40
0
40
0
40
0.037289020568841522
40
0.074309910496241222
40
0.11106266401588984
40
0.14754727371190507
40
0.18376372982292297
40
0.21971201913569963
40
0.25539212313856374
40
0.29080401474806467
40
0.32594765204197151
40
0.36082296496925609
40
0.39542982282283462
40
0.4297679351232675
40
0.46383640340360216
40
0.47124497732273207
40
0.47124497732273207
40
0.47124497732273207
40
0.47124497732273207
10
22.423885543755308
20
-32.650385652838743
30
-6.352673089795573
10
22.438265001167089
20
-32.526919872741942
30
-6.352673089795573
10
22.466920518983144
20
-32.280876106282498
30
-6.352673089795573
10
22.501027720917087
20
-31.912208097349001
30
-6.352673089795573
10
22.528225461179126
20
-31.545668911756721
30
-6.352673089795573
10
22.547729016466089
20
-31.181316744301171
30
-6.352673089795573
10
22.559483670529001
20
-30.819315490896557
30
-6.352673089795573
10
22.56318878042249
20
-30.459820788423553
30
-6.352673089795573
10
22.558543255076422
20
-30.10301554991684
30
-6.352673089795573
10
22.545146021498809
20
-29.749112500751664
30
-6.352673089795573
10
22.522525265817144
20
-29.398356793593816
30
-6.352673089795573
10
22.489923800821352
20
-29.051088079799054
30
-6.352673089795573
10
22.446786894840237
20
-28.70761953883801
30
-6.352673089795573
10
22.390423406674746
20
-28.368893803604252
30
-6.352673089795573
10
22.340732496870004
20
-28.120856108178121
30
-6.352673089795573
10
22.305024837878005
20
-27.987281728131371
30
-6.352673089795573
10
22.298646783487122
20
-27.963422850646342
30
-6.352673089795573
0
ARC
5
138
100
AcDbEntity
8
0
100
AcDbCircle
10
7.1709037642396023
20
11.805733687852289
30
-6.352673089795573
40
42.549199999999999
210
0
220
0
230
1
100
AcDbArc
50
298.82625586391362
51
301.17374413608644
0
ARC
5
139
100
AcDbEntity
8
0
100
AcDbCircle
10
7.1709037642396023
20
11.805733687852289
30
-6.352673089795573
40
47.000000000000014
210
0
220
0
230
1
100
AcDbArc
50
335.06280486938681
51
336.93719513061325
0
ARC
5
140
100
AcDbEntity
8
0
100
AcDbCircle
10
7.1709037642396023
20
11.805733687852289
30
-6.352673089795573
40
47.000000000000021
210
0
220
0
230
1
100
AcDbArc
50
319.06280486938681
51
320.93719513061285
0
SPLINE
5
141
100
AcDbEntity
8
0
100
AcDbSpline
70
0
71
3
72
21
73
17
74
0
42
0.000000001
43
0.0000000001
44
0.0000000001
40
0
40
0
40
0
40
0
40
0.03728902056884098
40
0.074309910496241346
40
0.11106266401589082
40
0.14754727371190468
40
0.18376372982292333
40
0.21971201913569924
40
0.2553921231385623
40
0.29080401474806394
40
0.3259476520419719
40
0.36082296496925792
40
0.39542982282283529
40
0.42976793512326811
40
0.4638364034036021
40
0.47124497732273279
40
0.47124497732273279
40
0.47124497732273279
40
0.47124497732273279
10
53.814266263857149
20
6.0267428824198577
30
-6.352673089795573
10
53.709599495020285
20
6.0937908887408163
30
-6.352673089795573
10
53.501018574804377
20
6.2274047856106414
30
-6.352673089795573
10
53.184613576539505
20
6.4196735535054188
30
-6.352673089795573
10
52.867093043382567
20
6.6047989236569489
30
-6.352673089795573
10
52.548165280414914
20
6.7820500805131214
30
-6.352673089795573
10
52.227953610283706
20
6.9513059981952265
30
-6.352673089795573
10
51.906466125297868
20
7.1122282338960732
30
-6.352673089795573
10
51.583735236966291
20
7.2644659849576332
30
-6.352673089795573
10
51.259776322762278
20
7.4075655166958896
30
-6.352673089795573
10
50.934602894853924
20
7.5409952977560195
30
-6.352673089795573
10
50.60818830083204
20
7.6639258794273406
30
-6.352673089795573
10
50.280570846181298
20
7.7757213833428152
30
-6.352673089795573
10
49.951418045080764
20
7.8735498047524199
30
-6.352673089795573
10
49.706700180057901
20
7.9376204798555863
30
-6.352673089795573
10
49.570991115112292
20
7.9640818027090434
30
-6.352673089795573
10
49.546750943059749
20
7.9688082888797567
30
-6.352673089795573
0
SPLINE
5
142
100
AcDbEntity
8
0
100
AcDbSpline
70
0
71
3
72
21
73
17
74
0
42
0.000000001
43
0.0000000001
44
0.0000000001
40
0
40
0
40
0
40
0
40
0.037289020568840758
40
0.074309910496240417
40
0.11106266401588927
40
0.14754727371190413
40
0.18376372982292349
40
0.21971201913570038
40
0.25539212313856247
40
0.29080401474806439
40
0.32594765204197174
40
0.36082296496925709
40
0.39542982282283479
40
0.42976793512326722
40
0.46383640340360155
40
0.47124497732273196
40
0.47124497732273196
40
0.47124497732273196
40
0.47124497732273196
10
28.462540558885706
20
-30.094936982256009
30
-6.352673089795573
10
28.459596960927893
20
-29.970671528965767
30
-6.352673089795573
10
28.453730931264335
20
-29.723034166253992
30
-6.352673089795573
10
28.436197534225599
20
-29.353207203982397
30
-6.352673089795573
10
28.412118192866767
20
-28.986449958696447
30
-6.352673089795573
10
28.380723919908071
20
-28.622929271219402
30
-6.352673089795573
10
28.341983341497926
20
-28.26281505747172
30
-6.352673089795573
10
28.295620400994746
20
-27.906303281097713
30
-6.352673089795573
10
28.241362394100218
20
-27.553616978812769
30
-6.352673089795573
10
28.178841756687305
20
-27.205022624335502
30
-6.352673089795573
10
28.107625385200343
20
-26.860828648322482
30
-6.352673089795573
10
28.027010731655594
20
-26.52147677675789
30
-6.352673089795573
10
27.936492049150395
20
-26.187354344998131
30
-6.352673089795573
10
27.833535575629771
20
-25.859769346764054
30
-6.352673089795573
10
27.749808079115972
20
-25.62106117514638
30
-6.352673089795573
10
27.695857963926752
20
-25.493756277414057
30
-6.352673089795573
10
27.68622146635774
20
-25.471017246492281
30
-6.352673089795573
0
SPLINE
5
143
100
AcDbEntity
8
0
100
AcDbSpline
70
0
71
3
72
21
73
17
74
0
42
0.000000001
43
0.0000000001
44
0.0000000001
40
0
40
0
40
0
40
0
40
0.0074085739191290965
40
0.041477042199464777
40
0.075815154499898799
40
0.1104220123534761
40
0.1452973252807612
40
0.18044096257466744
40
0.21585285418417002
40
0.25153295818703297
40
0.28748124749980902
40
0.32369770361082895
40
0.36018231330684203
40
0.39693506682649293
40
0.43395595675389248
40
0.47124497732273263
40
0.47124497732273263
40
0.47124497732273263
40
0.47124497732273263
10
47.443784624718134
20
-1.9248703716092663
30
-6.352673089795573
10
47.467851558907824
20
-1.9304118778456325
30
-6.352673089795573
10
47.60259074837856
20
-1.9614361060605723
30
-6.352673089795573
10
47.852211533685278
20
-2.0024403547720504
30
-6.352673089795573
10
48.192697983722553
20
-2.0469481501435993
30
-6.352673089795573
10
48.53746274923671
20
-2.0780718990744274
30
-6.352673089795573
10
48.885657691034005
20
-2.09853400080664
30
-6.352673089795573
10
49.236989180280489
20
-2.1088997788898012
30
-6.352673089795573
10
49.591144197979318
20
-2.1099378129373525
30
-6.352673089795573
10
49.947894206871794
20
-2.1021281851102058
30
-6.352673089795573
10
50.307040608414766
20
-2.0858791480860228
30
-6.352673089795573
10
50.668411108926023
20
-2.0614979930912791
30
-6.352673089795573
10
51.031860658622222
20
-2.0292906115765619
30
-6.352673089795573
10
51.397227370999595
20
-1.9893174063441177
30
-6.352673089795573
10
51.764480473161726
20
-1.9423646536339501
30
-6.352673089795573
10
52.009374293256975
20
-1.9051397883688792
30
-6.352673089795573
10
52.132263025509943
20
-1.8864601969486783
30
-6.352673089795573
0
ARC
5
144
100
AcDbEntity
8
0
100
AcDbCircle
10
7.1709037642396023
20
11.805733687852289
30
-6.352673089795573
40
42.549200000000013
210
0
220
0
230
1
100
AcDbArc
50
290.8262558639135
51
293.1737441360865
0
SPLINE
5
145
100
AcDbEntity
8
0
100
AcDbSpline
70
0
71
3
72
21
73
17
74
0
42
0.000000001
43
0.0000000001
44
0.0000000001
40
0
40
0
40
0
40
0
40
0.0074085739191315945
40
0.041477042199464055
40
0.075815154499897675
40
0.11042201235347529
40
0.14529732528076164
40
0.18044096257466732
40
0.21585285418416889
40
0.25153295818703297
40
0.28748124749980952
40
0.32369770361082778
40
0.36018231330684231
40
0.39693506682649232
40
0.43395595675389165
40
0.47124497732273229
40
0.47124497732273229
40
0.47124497732273229
40
0.47124497732273229
10
18.308026284571628
20
-29.26005405093477
30
-6.352673089795573
10
18.316890226500309
20
-29.283105214596155
30
-6.352673089795573
10
18.366515174222041
20
-29.412157593416453
30
-6.352673089795573
10
18.472107283108141
20
-29.642031888218021
30
-6.352673089795573
10
18.62560625506233
20
-29.949196391565707
30
-6.352673089795573
10
18.792593508042174
20
-30.252423515401592
30
-6.352673089795573
10
18.970337797370178
20
-30.552532466803939
30
-6.352673089795573
10
19.158206253422918
20
-30.849595941354018
30
-6.352673089795573
10
19.355386656821651
20
-31.143784218808204
30
-6.352673089795573
10
19.561353205003826
20
-31.435176291729725
30
-6.352673089795573
10
19.77565638626459
20
-31.723835806464642
30
-6.352673089795573
10
19.997945099227099
20
-32.009791760150001
30
-6.352673089795573
10
20.227884637576157
20
-32.293094953393947
30
-6.352673089795573
10
20.465334399335173
20
-32.573644953020761
30
-6.352673089795573
10
20.709625323973459
20
-32.851855927236606
30
-6.352673089795573
10
20.877429022212617
20
-33.03406622489323
30
-6.352673089795573
10
20.961633612332314
20
-33.125500106212684
30
-6.352673089795573
0
ARC
5
146
100
AcDbEntity
8
0
100
AcDbCircle
10
7.1709037642396023
20
11.805733687852289
30
-6.352673089795573
40
47.000000000000014
210
0
220
0
230
1
100
AcDbArc
50
279.06280486938681
51
280.93719513061285
0
SPLINE
5
147
100
AcDbEntity
8
0
100
AcDbSpline
70
0
71
3
72
21
73
17
74
0
42
0.000000001
43
0.0000000001
44
0.0000000001
40
0
40
0
40
0
40
0
40
0.0074085739191318044
40
0.04147704219946495
40
0.075815154499899839
40
0.11042201235347718
40
0.14529732528076142
40
0.18044096257466818
40
0.21585285418417
40
0.25153295818703353
40
0.28748124749981069
40
0.32369770361082956
40
0.36018231330684447
40
0.39693506682649349
40
0.43395595675389342
40
0.47124497732273396
40
0.47124497732273396
40
0.47124497732273396
40
0.47124497732273396
10
48.962782461615134
20
3.813656637182171
30
-6.352673089795573
10
48.987386406662601
20
3.8115185303653467
30
-6.352673089795573
10
49.125132061649175
20
3.7995482986262252
30
-6.352673089795573
10
49.3780302430783
20
3.7936835991997264
30
-6.352673089795573
10
49.721397390288146
20
3.7969955057197757
30
-6.352673089795573
10
50.0671385174562
20
3.8141566324924203
30
-6.352673089795573
10
50.414792624165628
20
3.8423530363162097
30
-6.352673089795573
10
50.764147616989518
20
3.8809840300961418
30
-6.352673089795573
10
51.115000488818609
20
3.9292449501582971
30
-6.352673089795573
10
51.467191741026035
20
3.9866285802293824
30
-6.352673089795573
10
51.820581525607217
20
4.0527030011436036
30
-6.352673089795573
10
52.175041992303065
20
4.1271399335655907
30
-6.352673089795573
10
52.530472074806497
20
4.2096162759311451
30
-6.352673089795573
10
52.886719868527393
20
4.3000496830272317
30
-6.352673089795573
10
53.243864328551538
20
4.3976572478407352
30
-6.352673089795573
10
53.481194158892279
20
4.4686024756245581
30
-6.352673089795573
10
53.60028724978789
20
4.5042030844858214
30
-6.352673089795573
0
SPLINE
5
148
100
AcDbEntity
8
0
100
AcDbSpline
70
0
71
3
72
21
73
17
74
0
42
0.000000001
43
0.0000000001
44
0.0000000001
40
0
40
0
40
0
40
0
40
0.0074085739191295259
40
0.041477042199462744
40
0.075815154499897369
40
0.11042201235347432
40
0.14529732528075998
40
0.18044096257466674
40
0.21585285418416766
40
0.2515329581870317
40
0.28748124749980841
40
0.32369770361082723
40
0.36018231330684236
40
0.3969350668264921
40
0.43395595675389032
40
0.47124497732273113
40
0.47124497732273113
40
0.47124497732273113
40
0.47124497732273113
10
29.195858192868243
20
-24.5994280760629
30
-6.352673089795573
10
29.210732522519436
20
-24.619143043222053
30
-6.352673089795573
10
29.294006740387218
20
-24.729517662379163
30
-6.352673089795573
10
29.458870332842135
20
-24.921381887164216
30
-6.352673089795573
10
29.691089026451216
20
-25.174337307834207
30
-6.352673089795573
10
29.935188199076816
20
-25.419790002280671
30
-6.352673089795573
10
30.188768213901177
20
-25.65928027595
30
-6.352673089795573
10
30.451240755214528
20
-25.893052450829551
30
-6.352673089795573
10
30.721872003101232
20
-26.121494088328596
30
-6.352673089795573
10
31.000178296999508
20
-26.344826051800403
30
-6.352673089795573
10
31.285745081836161
20
-26.563233424257355
30
-6.352673089795573
10
31.578242850000411
20
-26.776840856191633
30
-6.352673089795573
10
31.877363863677381
20
-26.985789437845781
30
-6.352673089795573
10
32.182945284437579
20
-27.190021381811874
30
-6.352673089795573
10
32.494458130249868
20
-27.390119230197875
30
-6.352673089795573
10
32.705985362452651
20
-27.519018042261738
30
-6.352673089795573
10
32.812130602835886
20
-27.583699999516845
30
-6.352673089795573
0
ARC
5
149
100
AcDbEntity
8
0
100
AcDbCircle
10
7.1709037642396023
20
11.805733687852289
30
-6.352673089795573
40
47
210
0
220
0
230
1
100
AcDbArc
50
271.06280486938675
51
272.93719513061296
0
ARC
5
150
100
AcDbEntity
8
0
100
AcDbCircle
10
7.1709037642396023
20
11.805733687852289
30
-6.352673089795573
40
42.549199999999999
210
0
220
0
230
1
100
AcDbArc
50
330.82625586391356
51
333.17374413608644
0
SPLINE
5
151
100
AcDbEntity
8
0
100
AcDbSpline
70
0
71
3
72
21
73
17
74
0
42
0.000000001
43
0.0000000001
44
0.0000000001
40
0
40
0
40
0
40
0
40
0.037289020568841542
40
0.074309910496241416
40
0.11106266401589004
40
0.14754727371190374
40
0.18376372982292266
40
0.21971201913569954
40
0.25539212313856358
40
0.29080401474806478
40
0.32594765204197196
40
0.36082296496925581
40
0.39542982282283373
40
0.4297679351232685
40
0.46383640340360183
40
0.47124497732273274
40
0.47124497732273274
40
0.47124497732273274
40
0.47124497732273274
10
9.5792437127801442
20
-35.132522550447248
30
-6.352673089795573
10
9.6270979155582239
20
-35.017803140900128
30
-6.352673089795573
10
9.722462220414215
20
-34.789189223838648
30
-6.352673089795573
10
9.8568668423457027
20
-34.444204007288413
30
-6.352673089795573
10
9.9840428801956485
20
-34.099360641328147
30
-6.352673089795573
10
10.103219968851267
20
-33.754498767329366
30
-6.352673089795573
10
10.214300335841829
20
-33.409760850314292
30
-6.352673089795573
10
10.31695208528156
20
-33.065213629628303
30
-6.352673089795573
10
10.410835372192517
20
-32.720949940618887
30
-6.352673089795573
10
10.495506025410286
20
-32.377063717342025
30
-6.352673089795573
10
10.570442935099029
20
-32.033660566136746
30
-6.352673089795573
10
10.634824625595463
20
-31.690858271760902
30
-6.352673089795573
10
10.688031530631346
20
-31.348804976872469
30
-6.352673089795573
10
10.727216934415392
20
-31.00766501932112
30
-6.352673089795573
10
10.747819420693958
20
-30.755539212572494
30
-6.352673089795573
10
10.750313104774314
20
-30.617296912767841
30
-6.352673089795573
10
10.750758523296478
20
-30.592604257685831
30
-6.352673089795573
0
ARC
5
152
100
AcDbEntity
8
0
100
AcDbCircle
10
7.1709037642396023
20
11.805733687852289
30
-6.352673089795573
40
42.549199999999992
210
0
220
0
230
1
100
AcDbArc
50
314.8262558639135
51
317.17374413608644
0
ARC
5
153
100
AcDbEntity
8
0
100
AcDbCircle
10
7.1709037642396023
20
11.805733687852289
30
-6.352673089795573
40
42.549199999999992
210
0
220
0
230
1
100
AcDbArc
50
282.8262558639135
51
285.17374413608644
0
SPLINE
5
154
100
AcDbEntity
8
0
100
AcDbSpline
70
0
71
3
72
21
73
17
74
0
42
0.000000001
43
0.0000000001
44
0.0000000001
40
0
40
0
40
0
40
0
40
0.0074085739191320074
40
0.0414770421994647
40
0.075815154499898896
40
0.11042201235347679
40
0.14529732528076239
40
0.1804409625746686
40
0.21585285418416963
40
0.25153295818703308
40
0.28748124749981002
40
0.32369770361082928
40
0.36018231330684286
40
0.3969350668264921
40
0.4339559567538922
40
0.47124497732273374
40
0.47124497732273374
40
0.47124497732273374
40
0.47124497732273374
10
34.048132104035638
20
-21.179854337988097
30
-6.352673089795573
10
34.06560547084802
20
-21.197307333859847
30
-6.352673089795573
10
34.163430447767283
20
-21.295018263679957
30
-6.352673089795573
10
34.353391938200069
20
-21.462070701621101
30
-6.352673089795573
10
34.618555285745323
20
-21.680245781835179
30
-6.352673089795573
10
34.894439314627817
20
-21.889337708736036
30
-6.352673089795573
10
35.17888211021571
20
-22.091205762520339
30
-6.352673089795573
10
35.471335085295955
20
-22.286173765172407
30
-6.352673089795573
10
35.771125499560974
20
-22.474727634373618
30
-6.352673089795573
10
36.077805137638101
20
-22.657153396590608
30
-6.352673089795573
10
36.390989237452416
20
-22.833692028535548
30
-6.352673089795573
10
36.710368846134045
20
-23.004512826206653
30
-6.352673089795573
10
37.035658856717973
20
-23.169798335591814
30
-6.352673089795573
10
37.366689973054363
20
-23.329513994395494
30
-6.352673089795573
10
37.703019435320385
20
-23.484310295535469
30
-6.352673089795573
10
37.930427346425098
20
-23.582515772377878
30
-6.352673089795573
10
38.044541577192874
20
-23.631795687015039
30
-6.352673089795573
0
SPLINE
5
155
100
AcDbEntity
8
0
100
AcDbSpline
70
0
71
3
72
21
73
17
74
0
42
0.000000001
43
0.0000000001
44
0.0000000001
40
0
40
0
40
0
40
0
40
0.03728902056884234
40
0.074309910496241888
40
0.11106266401588999
40
0.14754727371190435
40
0.18376372982292358
40
0.21971201913570043
40
0.25539212313856396
40
0.29080401474806494
40
0.32594765204197268
40
0.36082296496925909
40
0.39542982282283617
40
0.42976793512326905
40
0.46383640340360305
40
0.4712449773227349
40
0.4712449773227349
40
0.4712449773227349
40
0.4712449773227349
10
16.088348588296263
20
-34.340546528541182
30
-6.352673089795573
10
16.119771221295501
20
-34.22028354260717
30
-6.352673089795573
10
16.182390539532054
20
-33.980622334443552
30
-6.352673089795573
10
16.267474482549407
20
-33.620288982288386
30
-6.352673089795573
10
16.345419931355096
20
-33.261102124705189
30
-6.352673089795573
10
16.415441700369012
20
-32.903010177766205
30
-6.352673089795573
10
16.477462795934365
20
-32.546167827331843
30
-6.352673089795573
10
16.531163840474953
20
-32.190687354224359
30
-6.352673089795573
10
16.576221216543981
20
-31.836707987603432
30
-6.352673089795573
10
16.612208148714142
20
-31.484384564043584
30
-6.352673089795573
10
16.638623296116386
20
-31.133894186602014
30
-6.352673089795573
10
16.654669570102083
20
-30.785467821078818
30
-6.352673089795573
10
16.659754051452456
20
-30.439338395376609
30
-6.352673089795573
10
16.651080599826752
20
-30.096064834284711
30
-6.352673089795573
10
16.636393453767816
20
-29.843525386652896
30
-6.352673089795573
10
16.619623259938468
20
-29.706281397660703
30
-6.352673089795573
10
16.616627790299493
20
-29.681767059523587
30
-6.352673089795573
0
SPLINE
5
156
100
AcDbEntity
8
0
100
AcDbSpline
70
0
71
3
72
21
73
17
74
0
42
0.000000001
43
0.0000000001
44
0.0000000001
40
0
40
0
40
0
40
0
40
0.037289020568841057
40
0.074309910496240611
40
0.1110626640158902
40
0.14754727371190485
40
0.18376372982292366
40
0.21971201913570002
40
0.25539212313856263
40
0.29080401474806339
40
0.32594765204197057
40
0.3608229649692567
40
0.39542982282283401
40
0.4297679351232675
40
0.46383640340360094
40
0.47124497732273124
40
0.47124497732273124
40
0.47124497732273124
40
0.47124497732273124
10
34.086778082686202
20
-26.723939418386074
30
-6.352673089795573
10
34.066568723144748
20
-26.601292977600814
30
-6.352673089795573
10
34.026295321596464
20
-26.356881998218576
30
-6.352673089795573
10
33.957462593214458
20
-25.993094343757551
30
-6.352673089795573
10
33.882574847224461
20
-25.633257551377255
30
-6.352673089795573
10
33.800893799832792
20
-25.277643860561788
30
-6.352673089795573
10
33.71241203024158
20
-24.926425900017843
30
-6.352673089795573
10
33.616883441241555
20
-24.579836145943752
30
-6.352673089795573
10
33.514069023185236
20
-24.238133417579881
30
-6.352673089795573
10
33.403641875028072
20
-23.901632750380209
30
-6.352673089795573
10
33.285216033399379
20
-23.570699849740294
30
-6.352673089795573
10
33.158157263839108
20
-23.245869918578826
30
-6.352673089795573
10
33.02201864800135
20
-22.927596909095911
30
-6.352673089795573
10
32.874473119771366
20
-22.617528717229725
30
-6.352673089795573
10
32.758338697029579
20
-22.392796252454509
30
-6.352673089795573
10
32.687196203267945
20
-22.274238682063803
30
-6.352673089795573
10
32.674488825984639
20
-22.253062087076923
30
-6.352673089795573
0
ARC
5
157
100
AcDbEntity
8
0
100
AcDbCircle
10
7.1709037642396023
20
11.805733687852289
30
-6.352673089795573
40
47.000000000000014
210
0
220
0
230
1
100
AcDbArc
50
351.06280486938681
51
352.93719513061319
0
ARC
5
158
100
AcDbEntity
8
0
100
AcDbCircle
10
7.1709037642396023
20
11.805733687852289
30
-6.352673089795573
40
47.000000000000028
210
0
220
0
230
1
100
AcDbArc
50
311.06280486938675
51
312.93719513061313
0
ARC
5
159
100
AcDbEntity
8
0
100
AcDbCircle
10
7.1709037642396023
20
11.805733687852289
30
-6.352673089795573
40
47.000000000000014
210
0
220
0
230
1
100
AcDbArc
50
287.06280486938675
51
288.93719513061319
0
ARC
5
160
100
AcDbEntity
8
0
100
AcDbCircle
10
7.1709037642396023
20
11.805733687852289
30
-6.352673089795573
40
47.000000000000014
210
0
220
0
230
1
100
AcDbArc
50
303.06280486938687
51
304.93719513061325
0
ARC
5
161
100
AcDbEntity
8
0
100
AcDbCircle
10
7.1709037642396023
20
11.805733687852289
30
-6.352673089795573
40
42.549199999999992
210
0
220
0
230
1
100
AcDbArc
50
354.8262558639135
51
357.1737441360865
0
SPLINE
5
162
100
AcDbEntity
8
0
100
AcDbSpline
70
0
71
3
72
21
73
17
74
0
42
0.000000001
43
0.0000000001
44
0.0000000001
40
0
40
0
40
0
40
0
40
0.037289020568840647
40
0.074309910496240916
40
0.1110626640158901
40
0.14754727371190529
40
0.18376372982292422
40
0.21971201913569921
40
0.25539212313856341
40
0.29080401474806483
40
0.32594765204197129
40
0.36082296496925764
40
0.39542982282283512
40
0.42976793512326883
40
0.46383640340360222
40
0.47124497732273291
40
0.47124497732273291
40
0.47124497732273291
40
0.47124497732273291
10
20.961633612332335
20
56.736967481917262
30
-6.352673089795573
10
20.877429022212635
20
56.645533600597815
30
-6.352673089795573
10
20.709625323973473
20
56.463323302941205
30
-6.352673089795573
10
20.465334399335184
20
56.185112328725317
30
-6.352673089795573
10
20.227884637576167
20
55.904562329098539
30
-6.352673089795573
10
19.99794509922711
20
55.621259135854572
30
-6.352673089795573
10
19.775656386264608
20
55.335303182169213
30
-6.352673089795573
10
19.561353205003829
20
55.046643667434296
30
-6.352673089795573
10
19.355386656821661
20
54.755251594512799
30
-6.352673089795573
10
19.158206253422932
20
54.461063317058588
30
-6.352673089795573
10
18.970337797370188
20
54.163999842508503
30
-6.352673089795573
10
18.792593508042192
20
53.86389089110618
30
-6.352673089795573
10
18.625606255062344
20
53.56066376727027
30
-6.352673089795573
10
18.472107283108144
20
53.253499263922578
30
-6.352673089795573
10
18.366515174222066
20
53.02362496912103
30
-6.352673089795573
10
18.316890226500323
20
52.894572590300726
30
-6.352673089795573
10
18.308026284571643
20
52.87152142663934
30
-6.352673089795573
0
SPLINE
5
163
100
AcDbEntity
8
0
100
AcDbSpline
70
0
71
3
72
21
73
17
74
0
42
0.000000001
43
0.0000000001
44
0.0000000001
40
0
40
0
40
0
40
0
40
0.037289020568840488
40
0.074309910496240389
40
0.11106266401588859
40
0.14754727371190524
40
0.18376372982292322
40
0.2197120191357004
40
0.25539212313856391
40
0.29080401474806394
40
0.32594765204197074
40
0.36082296496925587
40
0.39542982282283323
40
0.42976793512326811
40
0.4638364034036021
40
0.47124497732273213
40
0.47124497732273213
40
0.47124497732273213
40
0.47124497732273213
10
53.60028724978789
20
19.107264291218737
30
-6.352673089795573
10
53.481194158892265
20
19.142864900079999
30
-6.352673089795573
10
53.24386432855156
20
19.213810127863827
30
-6.352673089795573
10
52.886719868527393
20
19.31141769267732
30
-6.352673089795573
10
52.530472074806511
20
19.40185109977342
30
-6.352673089795573
10
52.175041992303079
20
19.484327442138966
30
-6.352673089795573
10
51.820581525607203
20
19.558764374560951
30
-6.352673089795573
10
51.467191741026035
20
19.624838795475178
30
-6.352673089795573
10
51.115000488818609
20
19.682222425546261
30
-6.352673089795573
10
50.764147616989547
20
19.730483345608416
30
-6.352673089795573
10
50.414792624165642
20
19.769114339388352
30
-6.352673089795573
10
50.067138517456215
20
19.797310743212137
30
-6.352673089795573
10
49.721397390288161
20
19.814471869984782
30
-6.352673089795573
10
49.378030243078314
20
19.817783776504832
30
-6.352673089795573
10
49.125132061649175
20
19.811919077078329
30
-6.352673089795573
10
48.987386406662608
20
19.799948845339213
30
-6.352673089795573
10
48.962782461615149
20
19.79781073852239
30
-6.352673089795573
0
SPLINE
5
164
100
AcDbEntity
8
0
100
AcDbSpline
70
0
71
3
72
21
73
17
74
0
42
0.000000001
43
0.0000000001
44
0.0000000001
40
0
40
0
40
0
40
0
40
0.0074085739191290991
40
0.041477042199462903
40
0.075815154499897577
40
0.11042201235347429
40
0.14529732528076061
40
0.18044096257466746
40
0.21585285418416925
40
0.25153295818703247
40
0.28748124749980825
40
0.32369770361082706
40
0.36018231330684231
40
0.39693506682649093
40
0.43395595675389065
40
0.47124497732273218
40
0.47124497732273218
40
0.47124497732273218
40
0.47124497732273218
10
22.298646783487133
20
51.574890226350917
30
-6.352673089795573
10
22.305024837878019
20
51.598749103835942
30
-6.352673089795573
10
22.340732496870022
20
51.732323483882695
30
-6.352673089795573
10
22.390423406674763
20
51.980361179308836
30
-6.352673089795573
10
22.446786894840251
20
52.319086914542574
30
-6.352673089795573
10
22.489923800821373
20
52.66255545550365
30
-6.352673089795573
10
22.522525265817151
20
53.009824169298383
30
-6.352673089795573
10
22.545146021498823
20
53.360579876456242
30
-6.352673089795573
10
22.55854325507643
20
53.714482925621425
30
-6.352673089795573
10
22.563188780422507
20
54.071288164128148
30
-6.352673089795573
10
22.559483670529012
20
54.430782866601135
30
-6.352673089795573
10
22.547729016466107
20
54.792784120005749
30
-6.352673089795573
10
22.528225461179137
20
55.157136287461284
30
-6.352673089795573
10
22.501027720917108
20
55.523675473053586
30
-6.352673089795573
10
22.466920518983152
20
55.892343481987083
30
-6.352673089795573
10
22.438265001167103
20
56.138387248446534
30
-6.352673089795573
10
22.423885543755322
20
56.261853028543321
30
-6.352673089795573
0
ARC
5
165
100
AcDbEntity
8
0
100
AcDbCircle
10
7.1709037642396023
20
11.805733687852289
30
-6.352673089795573
40
47
210
0
220
-0
230
1
100
AcDbArc
50
23.062804869386795
51
24.93719513061296
0
SPLINE
5
166
100
AcDbEntity
8
0
100
AcDbSpline
70
0
71
3
72
21
73
17
74
0
42
0.000000001
43
0.0000000001
44
0.0000000001
40
0
40
0
40
0
40
0
40
0.0074085739191312987
40
0.041477042199464818
40
0.075815154499898105
40
0.11042201235347637
40
0.14529732528076056
40
0.18044096257466774
40
0.2158528541841688
40
0.25153295818703342
40
0.28748124749980902
40
0.32369770361082839
40
0.36018231330684219
40
0.39693506682649188
40
0.43395595675389215
40
0.47124497732273196
40
0.47124497732273196
40
0.47124497732273196
40
0.47124497732273196
10
46.847582518735408
20
27.174389570932647
30
-6.352673089795573
10
46.869580871482086
20
27.185614457974047
30
-6.352673089795573
10
46.992739068343141
20
27.248457201878928
30
-6.352673089795573
10
47.210316706830582
20
27.377499272924616
30
-6.352673089795573
10
47.499753519238254
20
27.562264794954885
30
-6.352673089795573
10
47.783864612223319
20
27.760033139566367
30
-6.352673089795573
10
48.063750197970883
20
27.968173654582714
30
-6.352673089795573
10
48.339548726717474
20
28.186064536063849
30
-6.352673089795573
10
48.61151444545257
20
28.412915813135093
30
-6.352673089795573
10
48.879780875343769
20
28.648212820606531
30
-6.352673089795573
10
49.144458300843425
20
28.891515162100294
30
-6.352673089795573
10
49.405612260326748
20
29.142476690635686
30
-6.352673089795573
10
49.663328262447479
20
29.400769843563328
30
-6.352673089795573
10
49.917521121121979
20
29.666244291013371
30
-6.352673089795573
10
50.168672671568686
20
29.938277930004883
30
-6.352673089795573
10
50.33234453944219
20
30.124208544433088
30
-6.352673089795573
10
50.414475759987603
20
30.217509296102563
30
-6.352673089795573
0
ARC
5
167
100
AcDbEntity
8
0
100
AcDbCircle
10
7.1709037642396023
20
11.805733687852289
30
-6.352673089795573
40
47
210
0
220
0
230
1
100
AcDbArc
50
95.062804869386781
51
96.937195130612949
0
ARC
5
168
100
AcDbEntity
8
0
100
AcDbCircle
10
7.1709037642396023
20
11.805733687852289
30
-6.352673089795573
40
47.000000000000021
210
0
220
-0
230
1
100
AcDbArc
50
47.062804869386817
51
48.937195130612935
0
SPLINE
5
169
100
AcDbEntity
8
0
100
AcDbSpline
70
0
71
3
72
21
73
17
74
0
42
0.000000001
43
0.0000000001
44
0.0000000001
40
0
40
0
40
0
40
0
40
0.037289020568840703
40
0.074309910496240777
40
0.11106266401588953
40
0.14754727371190277
40
0.18376372982292163
40
0.21971201913569838
40
0.25539212313856235
40
0.29080401474806383
40
0.32594765204197029
40
0.3608229649692562
40
0.39542982282283318
40
0.42976793512326728
40
0.46383640340360083
40
0.47124497732273141
40
0.47124497732273141
40
0.47124497732273141
40
0.47124497732273141
10
8.0426776496529531
20
58.797647995451115
30
-6.352673089795573
10
7.986937595827678
20
58.686546177059505
30
-6.352673089795573
10
7.8758582929222829
20
58.465141429637711
30
-6.352673089795573
10
7.7177161216942727
20
58.130372172216966
30
-6.352673089795573
10
7.5667948210772407
20
57.795240179309587
30
-6.352673089795573
10
7.4238516935608176
20
57.459531744958845
30
-6.352673089795573
10
7.2889942113045016
20
57.123382166886643
30
-6.352673089795573
10
7.1625581172137487
20
56.786834869977945
30
-6.352673089795573
10
7.0448889042877108
20
56.449958757050709
30
-6.352673089795573
10
6.9364362142206701
20
56.112816549528205
30
-6.352673089795573
10
6.8377272541769063
20
55.77547724571302
30
-6.352673089795573
10
6.7495897149956647
20
55.438001040199808
30
-6.352673089795573
10
6.6726519876222943
20
55.100492496020323
30
-6.352673089795573
10
6.6097653170204174
20
54.762916973850196
30
-6.352673089795573
10
6.5716256101442667
20
54.512842489688111
30
-6.352673089795573
10
6.5594947051963519
20
54.375110891785852
30
-6.352673089795573
10
6.5573278991454185
20
54.350509457596026
30
-6.352673089795573
0
ARC
5
170
100
AcDbEntity
8
0
100
AcDbCircle
10
7.1709037642396023
20
11.805733687852289
30
-6.352673089795573
40
47.000000000000021
210
0
220
0
230
1
100
AcDbArc
50
295.06280486938681
51
296.93719513061319
0
SPLINE
5
171
100
AcDbEntity
8
0
100
AcDbSpline
70
0
71
3
72
21
73
17
74
0
42
0.000000001
43
0.0000000001
44
0.0000000001
40
0
40
0
40
0
40
0
40
0.037289020568841348
40
0.074309910496240889
40
0.11106266401588993
40
0.14754727371190449
40
0.18376372982292316
40
0.21971201913569949
40
0.25539212313856324
40
0.29080401474806439
40
0.32594765204197124
40
0.3608229649692567
40
0.39542982282283484
40
0.42976793512326777
40
0.46383640340360111
40
0.4712449773227334
40
0.4712449773227334
40
0.4712449773227334
40
0.4712449773227334
10
38.044541577192888
20
47.243263062719585
30
-6.352673089795573
10
37.930427346425112
20
47.193983148082424
30
-6.352673089795573
10
37.7030194353204
20
47.095777671240015
30
-6.352673089795573
10
37.36668997305437
20
46.940981370100062
30
-6.352673089795573
10
37.035658856717987
20
46.781265711296378
30
-6.352673089795573
10
36.710368846134074
20
46.615980201911228
30
-6.352673089795573
10
36.39098923745243
20
46.445159404240087
30
-6.352673089795573
10
36.07780513763813
20
46.268620772295179
30
-6.352673089795573
10
35.771125499560981
20
46.086195010078185
30
-6.352673089795573
10
35.471335085295962
20
45.897641140876956
30
-6.352673089795573
10
35.178882110215724
20
45.702673138224895
30
-6.352673089795573
10
34.894439314627817
20
45.5008050844406
30
-6.352673089795573
10
34.61855528574533
20
45.291713157539739
30
-6.352673089795573
10
34.35339193820009
20
45.073538077325665
30
-6.352673089795573
10
34.163430447767297
20
44.906485639384542
30
-6.352673089795573
10
34.065605470848027
20
44.808774709564396
30
-6.352673089795573
10
34.048132104035652
20
44.791321713692653
30
-6.352673089795573
0
ARC
5
172
100
AcDbEntity
8
0
100
AcDbCircle
10
7.1709037642396023
20
11.805733687852289
30
-6.352673089795573
40
42.549199999999992
210
0
220
0
230
1
100
AcDbArc
50
90.826255863913531
51
93.173744136086484
0
ARC
5
173
100
AcDbEntity
8
0
100
AcDbCircle
10
7.1709037642396023
20
11.805733687852289
30
-6.352673089795573
40
47.000000000000021
210
0
220
0
230
1
100
AcDbArc
50
-0.93719513061283188
51
0.93719513061282222
0
ARC
5
174
100
AcDbEntity
8
0
100
AcDbCircle
10
7.1709037642396023
20
11.805733687852289
30
-6.352673089795573
40
47.000000000000021
210
0
220
0
230
1
100
AcDbArc
50
327.06280486938687
51
328.93719513061319
0
SPLINE
5
175
100
AcDbEntity
8
0
100
AcDbSpline
70
0
71
3
72
21
73
17
74
0
42
0.000000001
43
0.0000000001
44
0.0000000001
40
0
40
0
40
0
40
0
40
0.007408573919131297
40
0.041477042199464367
40
0.075815154499898063
40
0.11042201235347493
40
0.14529732528076073
40
0.18044096257466871
40
0.21585285418417002
40
0.25153295818703303
40
0.28748124749980902
40
0.32369770361082739
40
0.36018231330684247
40
0.39693506682649154
40
0.4339559567538917
40
0.47124497732273252
40
0.47124497732273252
40
0.47124497732273252
40
0.47124497732273252
10
32.674488825984625
20
45.864529462781505
30
-6.352673089795573
10
32.687196203267931
20
45.885706057768381
30
-6.352673089795573
10
32.758338697029544
20
46.004263628159066
30
-6.352673089795573
10
32.874473119771395
20
46.22899609293431
30
-6.352673089795573
10
33.022018648001328
20
46.539064284800489
30
-6.352673089795573
10
33.158157263839115
20
46.857337294283418
30
-6.352673089795573
10
33.285216033399379
20
47.182167225444871
30
-6.352673089795573
10
33.403641875028057
20
47.513100126084794
30
-6.352673089795573
10
33.514069023185222
20
47.84960079328448
30
-6.352673089795573
10
33.616883441241576
20
48.191303521648337
30
-6.352673089795573
10
33.712412030241566
20
48.537893275722439
30
-6.352673089795573
10
33.800893799832792
20
48.889111236266373
30
-6.352673089795573
10
33.882574847224447
20
49.244724927081847
30
-6.352673089795573
10
33.957462593214444
20
49.604561719462154
30
-6.352673089795573
10
34.026295321596464
20
49.968349373923175
30
-6.352673089795573
10
34.066568723144741
20
50.212760353305413
30
-6.352673089795573
10
34.08677808268618
20
50.335406794090659
30
-6.352673089795573
0
SPLINE
5
176
100
AcDbEntity
8
0
100
AcDbSpline
70
0
71
3
72
21
73
17
74
0
42
0.000000001
43
0.0000000001
44
0.0000000001
40
0
40
0
40
0
40
0
40
0.037289020568841175
40
0.074309910496239584
40
0.11106266401588899
40
0.14754727371190407
40
0.18376372982292252
40
0.21971201913569946
40
0.25539212313856335
40
0.29080401474806344
40
0.32594765204197118
40
0.36082296496925637
40
0.39542982282283312
40
0.42976793512326805
40
0.46383640340360194
40
0.47124497732273318
40
0.47124497732273318
40
0.47124497732273318
40
0.47124497732273318
10
1.4941831718890131
20
58.461653390676538
30
-6.352673089795573
10
1.4544479610237704
20
58.343875291405666
30
-6.352673089795573
10
1.3752632595244585
20
58.109165988728257
30
-6.352673089795573
10
1.2652509926972377
20
57.755645546345768
30
-6.352673089795573
10
1.1624398064870878
20
57.402770849548077
30
-6.352673089795573
10
1.067609375488574
20
57.050435668285928
30
-6.352673089795573
10
0.9808472961459791
20
56.698788940806786
30
-6.352673089795573
10
0.9024800003620137
20
56.347920395768924
30
-6.352673089795573
10
0.8328400294028615
20
55.99794634876487
30
-6.352673089795573
10
0.77236391994576992
20
55.648991488846193
30
-6.352673089795573
10
0.72156414570341831
20
55.301197515884681
30
-6.352673089795573
10
0.68125196501628071
20
54.954739230966027
30
-6.352673089795573
10
0.65203510101086604
20
54.609807634638258
30
-6.352673089795573
10
0.63674187139298954
20
54.266765241287693
30
-6.352673089795573
10
0.63377697895420138
20
54.013816443539312
30
-6.352673089795573
10
0.64093266471958121
20
53.875736944420886
30
-6.352673089795573
10
0.64221080376045125
20
53.85107336858016
30
-6.352673089795573
0
ARC
5
177
100
AcDbEntity
8
0
100
AcDbCircle
10
7.1709037642396023
20
11.805733687852289
30
-6.352673089795573
40
42.549199999999992
210
0
220
-0
230
1
100
AcDbArc
50
74.826255863913545
51
77.173744136086455
0
SPLINE
5
178
100
AcDbEntity
8
0
100
AcDbSpline
70
0
71
3
72
21
73
17
74
0
42
0.000000001
43
0.0000000001
44
0.0000000001
40
0
40
0
40
0
40
0
40
0.0074085739191290245
40
0.041477042199463951
40
0.07581515449989823
40
0.11042201235347508
40
0.14529732528076061
40
0.18044096257466777
40
0.21585285418416897
40
0.25153295818703192
40
0.28748124749980936
40
0.32369770361082806
40
0.36018231330684147
40
0.39693506682649154
40
0.43395595675389165
40
0.47124497732273291
40
0.47124497732273291
40
0.47124497732273291
40
0.47124497732273291
10
49.668348917225195
20
9.7077403349120388
30
-6.352673089795573
10
49.693010985326644
20
9.7090472433318844
30
-6.352673089795573
10
49.831082043338085
20
9.7163639950134542
30
-6.352673089795573
10
50.082335245455539
20
9.7457529945752785
30
-6.352673089795573
10
50.421899838891868
20
9.7968201404937467
30
-6.352673089795573
10
50.761887869948168
20
9.8619321211577304
30
-6.352673089795573
10
51.102234449833325
20
9.9382382196100192
30
-6.352673089795573
10
51.442813148684756
20
10.025114076901227
30
-6.352673089795573
10
51.783534922583115
20
10.121734607160066
30
-6.352673089795573
10
52.124312415992918
20
10.227575332388657
30
-6.352673089795573
10
52.465067253430348
20
10.342189073748372
30
-6.352673089795573
10
52.805718516519349
20
10.465232953378752
30
-6.352673089795573
10
53.146211089569839
20
10.596372948406458
30
-6.352673089795573
10
53.486406006555313
20
10.735506373963533
30
-6.352673089795573
10
53.826490413772923
20
10.881868930658241
30
-6.352673089795573
10
54.051636899170212
20
10.985153652801001
30
-6.352673089795573
10
54.164616337160602
20
11.036982353746932
30
-6.352673089795573
0
ARC
5
179
100
AcDbEntity
8
0
100
AcDbCircle
10
7.1709037642396023
20
11.805733687852289
30
-6.352673089795573
40
42.549199999999992
210
0
220
-0
230
1
100
AcDbArc
50
50.826255863913531
51
53.173744136086484
0
SPLINE
5
180
100
AcDbEntity
8
0
100
AcDbSpline
70
0
71
3
72
21
73
17
74
0
42
0.000000001
43
0.0000000001
44
0.0000000001
40
0
40
0
40
0
40
0
40
0.0074085739191309752
40
0.041477042199464062
40
0.075815154499897841
40
0.11042201235347496
40
0.1452973252807605
40
0.18044096257466649
40
0.21585285418416833
40
0.25153295818703192
40
0.28748124749980869
40
0.32369770361082878
40
0.36018231330684225
40
0.39693506682649204
40
0.43395595675389081
40
0.47124497732273218
40
0.47124497732273218
40
0.47124497732273218
40
0.47124497732273218
10
16.616627790299514
20
53.293234435228172
30
-6.352673089795573
10
16.619623259938486
20
53.317748773365288
30
-6.352673089795573
10
16.636393453767845
20
53.454992762357477
30
-6.352673089795573
10
16.65108059982677
20
53.707532209989282
30
-6.352673089795573
10
16.659754051452484
20
54.050805771081187
30
-6.352673089795573
10
16.654669570102104
20
54.396935196783389
30
-6.352673089795573
10
16.638623296116414
20
54.745361562306591
30
-6.352673089795573
10
16.612208148714167
20
55.095851939748137
30
-6.352673089795573
10
16.576221216544013
20
55.448175363307996
30
-6.352673089795573
10
16.531163840474971
20
55.802154729928908
30
-6.352673089795573
10
16.477462795934393
20
56.157635203036435
30
-6.352673089795573
10
16.415441700369044
20
56.514477553470769
30
-6.352673089795573
10
16.345419931355117
20
56.872569500409767
30
-6.352673089795573
10
16.267474482549442
20
57.23175635799295
30
-6.352673089795573
10
16.182390539532079
20
57.59208971014813
30
-6.352673089795573
10
16.11977122129553
20
57.831750918311741
30
-6.352673089795573
10
16.088348588296292
20
57.952013904245739
30
-6.352673089795573
0
SPLINE
5
181
100
AcDbEntity
8
0
100
AcDbSpline
70
0
71
3
72
21
73
17
74
0
42
0.000000001
43
0.0000000001
44
0.0000000001
40
0
40
0
40
0
40
0
40
0.0074085739191311869
40
0.041477042199464249
40
0.075815154499898479
40
0.1104220123534754
40
0.14529732528076111
40
0.18044096257466841
40
0.21585285418417011
40
0.25153295818703308
40
0.28748124749980863
40
0.32369770361082845
40
0.36018231330684314
40
0.39693506682649216
40
0.43395595675389115
40
0.47124497732273218
40
0.47124497732273218
40
0.47124497732273218
40
0.47124497732273218
10
42.099014123784912
20
-12.493680448118631
30
-6.352673089795573
10
42.120621299633896
20
-12.505641031904124
30
-6.352673089795573
10
42.241589485182459
20
-12.57260258804385
30
-6.352673089795573
10
42.470238081915745
20
-12.680823214919826
30
-6.352673089795573
10
42.785266653293149
20
-12.817457638560938
30
-6.352673089795573
10
43.108096948632657
20
-12.942405754587352
30
-6.352673089795573
10
43.437163289285948
20
-13.058050722266756
30
-6.352673089795573
10
43.772027596813729
20
-13.164855030397851
30
-6.352673089795573
10
44.112177128791863
20
-13.263471205394683
30
-6.352673089795573
10
44.457259872530031
20
-13.354297738443709
30
-6.352673089795573
10
44.806972393167293
20
-13.437672326028984
30
-6.352673089795573
10
45.161064370445338
20
-13.51384286486098
30
-6.352673089795573
10
45.519312058452819
20
-13.58306341553555
30
-6.352673089795573
10
45.881543192625912
20
-13.645347418984976
30
-6.352673089795573
10
46.247511465054252
20
-13.701442210281392
30
-6.352673089795573
10
46.493179077316142
20
-13.73316125819259
30
-6.352673089795573
10
46.616456101680143
20
-13.749078007682481
30
-6.352673089795573
0
SPLINE
5
182
100
AcDbEntity
8
0
100
AcDbSpline
70
0
71
3
72
21
73
17
74
0
42
0.000000001
43
0.0000000001
44
0.0000000001
40
0
40
0
40
0
40
0
40
0.0074085739191312831
40
0.04147704219946563
40
0.075815154499899895
40
0.11042201235347604
40
0.14529732528076195
40
0.18044096257466832
40
0.21585285418417058
40
0.25153295818703353
40
0.2874812474998103
40
0.32369770361082989
40
0.36018231330684392
40
0.39693506682649293
40
0.43395595675389215
40
0.47124497732273263
40
0.47124497732273263
40
0.47124497732273263
40
0.47124497732273263
10
4.8152114554328058
20
54.289673410837345
30
-6.352673089795573
10
4.8113338183143792
20
54.314063768420553
30
-6.352673089795573
10
4.7896247930484135
20
54.450613649920214
30
-6.352673089795573
10
4.7341336783927908
20
54.697418473746247
30
-6.352673089795573
10
4.647852118510909
20
55.029784926524158
30
-6.352673089795573
10
4.5475584016740633
20
55.36110441229372
30
-6.352673089795573
10
4.4360944110393437
20
55.691610378794003
30
-6.352673089795573
10
4.3140943007717052
20
56.021242352040098
30
-6.352673089795573
10
4.1823879444597791
20
56.349998020862664
30
-6.352673089795573
10
4.0415060780959582
20
56.677845331148156
30
-6.352673089795573
10
3.8919016232952881
20
57.004753079678636
30
-6.352673089795573
10
3.7339240378709415
20
57.330676631853279
30
-6.352673089795573
10
3.5679112760423877
20
57.655596088809091
30
-6.352673089795573
10
3.3939799860643216
20
57.979383979281486
30
-6.352673089795573
10
3.2128707183016059
20
58.302306315401523
30
-6.352673089795573
10
3.0866175845449129
20
58.515423231509715
30
-6.352673089795573
10
3.0232632396117132
20
58.622366181854517
30
-6.352673089795573
0
ARC
5
183
100
AcDbEntity
8
0
100
AcDbCircle
10
7.1709037642396023
20
11.805733687852289
30
-6.352673089795573
40
42.549199999999992
210
0
220
-0
230
1
100
AcDbArc
50
18.826255863913534
51
21.173744136086462
0
SPLINE
5
184
100
AcDbEntity
8
0
100
AcDbSpline
70
0
71
3
72
21
73
17
74
0
42
0.000000001
43
0.0000000001
44
0.0000000001
40
0
40
0
40
0
40
0
40
0.037289020568840668
40
0.074309910496240389
40
0.11106266401588899
40
0.14754727371190368
40
0.18376372982292247
40
0.21971201913569888
40
0.25539212313856247
40
0.29080401474806344
40
0.32594765204197096
40
0.36082296496925564
40
0.39542982282283323
40
0.42976793512326783
40
0.46383640340360122
40
0.47124497732273157
40
0.47124497732273157
40
0.47124497732273157
40
0.47124497732273157
10
43.664319974749105
20
-17.812344799560158
30
-6.352673089795573
10
43.611087550884037
20
-17.70001992831688
30
-6.352673089795573
10
43.505005476520978
20
-17.476177869682495
30
-6.352673089795573
10
43.338565744145896
20
-17.145455603238766
30
-6.352673089795573
10
43.167394560453225
20
-16.820200138222042
30
-6.352673089795573
10
42.990857280882757
20
-16.500876666613287
30
-6.352673089795573
10
42.808994355026122
20
-16.187653175224945
30
-6.352673089795573
10
42.621633298187135
20
-15.880820968105729
30
-6.352673089795573
10
42.428615699797732
20
-15.580694718264834
30
-6.352673089795573
10
42.229714157944933
20
-15.287667363356556
30
-6.352673089795573
10
42.024658462892816
20
-15.002196827892567
30
-6.352673089795573
10
41.812986471265894
20
-14.72497240064774
30
-6.352673089795573
10
41.594393703761199
20
-14.456553635874911
30
-6.352673089795573
10
41.367097462537785
20
-14.199166019168988
30
-6.352673089795573
10
41.193517228019296
20
-14.015150294150684
30
-6.352673089795573
10
41.092451778598132
20
-13.920794971837264
30
-6.352673089795573
10
41.074399602912465
20
-13.903941350099714
30
-6.352673089795573
0
ARC
5
185
100
AcDbEntity
8
0
100
AcDbCircle
10
7.1709037642396023
20
11.805733687852289
30
-6.352673089795573
40
42.549199999999999
210
0
220
0
230
1
100
AcDbArc
50
338.8262558639135
51
341.17374413608644
0
ARC
5
186
100
AcDbEntity
8
0
100
AcDbCircle
10
7.1709037642396023
20
11.805733687852289
30
-6.352673089795573
40
47
210
0
220
-0
230
1
100
AcDbArc
50
15.06280486938679
51
16.937195130612924
0
SPLINE
5
187
100
AcDbEntity
8
0
100
AcDbSpline
70
0
71
3
72
21
73
17
74
0
42
0.000000001
43
0.0000000001
44
0.0000000001
40
0
40
0
40
0
40
0
40
0.037289020568839898
40
0.074309910496239112
40
0.11106266401588871
40
0.14754727371190324
40
0.18376372982292172
40
0.21971201913569885
40
0.25539212313856208
40
0.29080401474806333
40
0.32594765204197024
40
0.36082296496925614
40
0.39542982282283312
40
0.42976793512326644
40
0.46383640340360094
40
0.47124497732273113
40
0.47124497732273113
40
0.47124497732273113
40
0.47124497732273113
10
42.676032309763258
20
42.601607550528158
30
-6.352673089795573
10
42.556170192309821
20
42.568688855992292
30
-6.352673089795573
10
42.317307838620195
20
42.503088172271006
30
-6.352673089795573
10
41.962708030314317
20
42.396606352300594
30
-6.352673089795573
10
41.61267036253895
20
42.284515662284093
30
-6.352673089795573
10
41.267542755092173
20
42.166110319598587
30
-6.352673089795573
10
40.927497666687216
20
42.041400988711544
30
-6.352673089795573
10
40.592792024156509
20
41.910167220939698
30
-6.352673089795573
10
40.263708212212762
20
41.772198369932887
30
-6.352673089795573
10
39.940593710976543
20
41.627202255616595
30
-6.352673089795573
10
39.623852566629019
20
41.474833255590866
30
-6.352673089795573
10
39.314083345744805
20
41.314516553736986
30
-6.352673089795573
10
39.011784229414204
20
41.145855130900344
30
-6.352673089795573
10
38.718837330873924
20
40.966706920908038
30
-6.352673089795573
10
38.507475326796545
20
40.827717755496032
30
-6.352673089795573
10
38.39700364272727
20
40.744572347117305
30
-6.352673089795573
10
38.377271337963059
20
40.729721025245134
30
-6.352673089795573
0
SPLINE
5
188
100
AcDbEntity
8
0
100
AcDbSpline
70
0
71
3
72
21
73
17
74
0
42
0.000000001
43
0.0000000001
44
0.0000000001
40
0
40
0
40
0
40
0
40
0.0074085739191309787
40
0.041477042199464499
40
0.075815154499898813
40
0.11042201235347571
40
0.14529732528076128
40
0.18044096257466685
40
0.21585285418416961
40
0.25153295818703358
40
0.2874812474998088
40
0.32369770361082884
40
0.36018231330684253
40
0.39693506682649304
40
0.43395595675389209
40
0.47124497732273191
40
0.47124497732273191
40
0.47124497732273191
40
0.47124497732273191
10
-1.074484741200209
20
53.548373626341579
30
-6.352673089795573
10
-1.0817191231191337
20
53.571986955859252
30
-6.352673089795573
10
-1.1222209480875522
20
53.704186630933705
30
-6.352673089795573
10
-1.2115206196936845
20
53.940866696677681
30
-6.352673089795573
10
-1.3432189632541125
20
54.257990509740104
30
-6.352673089795573
10
-1.488647388776092
20
54.572127429470576
30
-6.352673089795573
10
-1.6450241597598181
20
54.883904145402397
30
-6.352673089795573
10
-1.8117128772330571
20
55.19334902928081
30
-6.352673089795573
10
-1.9878914222272903
20
55.500575288509552
30
-6.352673089795573
10
-2.1730297627659367
20
55.805625045097152
30
-6.352673089795573
10
-2.3666750423874139
20
56.10853043399905
30
-6.352673089795573
10
-2.5684749922420869
20
56.409295890122735
30
-6.352673089795573
10
-2.7780921776713141
20
56.707948742396283
30
-6.352673089795573
10
-2.9953933450619807
20
57.004378994396077
30
-6.352673089795573
10
-3.219682172767655
20
57.29895313413202
30
-6.352673089795573
10
-3.3743667617872952
20
57.492424970931793
30
-6.352673089795573
10
-3.4519881286159859
20
57.589509939191629
30
-6.352673089795573
0
ARC
5
189
100
AcDbEntity
8
0
100
AcDbCircle
10
7.1709037642396023
20
11.805733687852289
30
-6.352673089795573
40
42.549199999999992
210
0
220
0
230
1
100
AcDbArc
50
98.826255863913545
51
101.17374413608647
0
ARC
5
190
100
AcDbEntity
8
0
100
AcDbCircle
10
7.1709037642396023
20
11.805733687852289
30
-6.352673089795573
40
47.000000000000014
210
0
220
0
230
1
100
AcDbArc
50
103.06280486938681
51
104.93719513061296
0
SPLINE
5
191
100
AcDbEntity
8
0
100
AcDbSpline
70
0
71
3
72
21
73
17
74
0
42
0.000000001
43
0.0000000001
44
0.0000000001
40
0
40
0
40
0
40
0
40
0.037289020568841272
40
0.074309910496240555
40
0.11106266401589063
40
0.14754727371190404
40
0.18376372982292277
40
0.21971201913570021
40
0.25539212313856313
40
0.2908040147480635
40
0.32594765204197063
40
0.36082296496925703
40
0.3954298228228339
40
0.42976793512326905
40
0.4638364034036031
40
0.47124497732273213
40
0.47124497732273213
40
0.47124497732273213
40
0.47124497732273213
10
54.164616337160595
20
12.574485021957646
30
-6.352673089795573
10
54.051636899170205
20
12.626313722903577
30
-6.352673089795573
10
53.826490413772923
20
12.729598445046335
30
-6.352673089795573
10
53.486406006555313
20
12.875961001741047
30
-6.352673089795573
10
53.146211089569817
20
13.015094427298116
30
-6.352673089795573
10
52.805718516519377
20
13.146234422325829
30
-6.352673089795573
10
52.465067253430327
20
13.269278301956206
30
-6.352673089795573
10
52.124312415992918
20
13.383892043315921
30
-6.352673089795573
10
51.783534922583115
20
13.48973276854451
30
-6.352673089795573
10
51.442813148684763
20
13.586353298803351
30
-6.352673089795573
10
51.102234449833333
20
13.67322915609456
30
-6.352673089795573
10
50.761887869948183
20
13.749535254546847
30
-6.352673089795573
10
50.421899838891861
20
13.814647235210833
30
-6.352673089795573
10
50.082335245455553
20
13.865714381129298
30
-6.352673089795573
10
49.831082043338057
20
13.895103380691122
30
-6.352673089795573
10
49.693010985326644
20
13.902420132372693
30
-6.352673089795573
10
49.668348917225195
20
13.903727040792539
30
-6.352673089795573
0
SPLINE
5
192
100
AcDbEntity
8
0
100
AcDbSpline
70
0
71
3
72
21
73
17
74
0
42
0.000000001
43
0.0000000001
44
0.0000000001
40
0
40
0
40
0
40
0
40
0.0074085739191302631
40
0.04147704219946359
40
0.075815154499897452
40
0.11042201235347429
40
0.14529732528075992
40
0.18044096257466655
40
0.21585285418416772
40
0.25153295818703109
40
0.2874812474998088
40
0.32369770361082734
40
0.36018231330684075
40
0.39693506682649105
40
0.4339559567538902
40
0.47124497732273096
40
0.47124497732273096
40
0.47124497732273096
40
0.47124497732273096
10
37.166357912282692
20
41.983658584913144
30
-6.352673089795573
10
37.181888834635906
20
42.002860565631735
30
-6.352673089795573
10
37.268838999252239
20
42.110363220430393
30
-6.352673089795573
10
37.415119923784374
20
42.316745816565685
30
-6.352673089795573
10
37.604382700847211
20
42.603262077406647
30
-6.352673089795573
10
37.783491466715645
20
42.899490842513345
30
-6.352673089795573
10
37.954521297869171
20
43.20347638815015
30
-6.352673089795573
10
38.117851585339665
20
43.514706980936637
30
-6.352673089795573
10
38.274035905411203
20
43.8325643581355
30
-6.352673089795573
10
38.423405568931564
20
44.156632657651791
30
-6.352673089795573
10
38.566240451105685
20
44.486554414102919
30
-6.352673089795573
10
38.702741214879389
20
44.822040063345682
30
-6.352673089795573
10
38.833119208027362
20
45.162825141512414
30
-6.352673089795573
10
38.957357753856364
20
45.508737667131662
30
-6.352673089795573
10
39.076150062819778
20
45.859405300890337
30
-6.352673089795573
10
39.150046960301957
20
46.095832715242736
30
-6.352673089795573
10
39.187128729231368
20
46.214472970061387
30
-6.352673089795573
0
ARC
5
193
100
AcDbEntity
8
0
100
AcDbCircle
10
7.1709037642396023
20
11.805733687852289
30
-6.352673089795573
40
42.549199999999992
210
0
220
-0
230
1
100
AcDbArc
50
10.826255863913515
51
13.17374413608646
0
SPLINE
5
194
100
AcDbEntity
8
0
100
AcDbSpline
70
0
71
3
72
21
73
17
74
0
42
0.000000001
43
0.0000000001
44
0.0000000001
40
0
40
0
40
0
40
0
40
0.037289020568840363
40
0.074309910496240736
40
0.11106266401588946
40
0.14754727371190457
40
0.18376372982292286
40
0.21971201913569999
40
0.25539212313856302
40
0.29080401474806472
40
0.32594765204197124
40
0.36082296496925564
40
0.39542982282283462
40
0.42976793512326833
40
0.46383640340360244
40
0.47124497732273279
40
0.47124497732273279
40
0.47124497732273279
40
0.47124497732273279
10
-4.9438203967187899
20
57.217554379208551
30
-6.352673089795573
10
-4.9667773639426427
20
57.095392415790116
30
-6.352673089795573
10
-5.0125262238924551
20
56.851946907455819
30
-6.352673089795573
10
-5.0722673226821735
20
56.48655615339905
30
-6.352673089795573
10
-5.1249672916918581
20
56.122807057295184
30
-6.352673089795573
10
-5.1698392597011082
20
55.760702932649551
30
-6.352673089795573
10
-5.2068172109459709
20
55.400403459321637
30
-6.352673089795573
10
-5.2355903781521862
20
55.042042923276718
30
-6.352673089795573
10
-5.2558456443240376
20
54.685782788931206
30
-6.352673089795573
10
-5.2671680744911402
20
54.331807286034383
30
-6.352673089795573
10
-5.2690699031103483
20
53.980328058000481
30
-6.352673089795573
10
-5.2607720945607266
20
53.631631110101871
30
-6.352673089795573
10
-5.2416994221740083
20
53.285990162794441
30
-6.352673089795573
10
-5.2091015454891654
20
52.944157828245082
30
-6.352673089795573
10
-5.1768339152317999
20
52.693258077533578
30
-6.352673089795573
10
-5.1505309160370594
20
52.557518237586237
30
-6.352673089795573
10
-5.1458327094269585
20
52.533272568543964
30
-6.352673089795573
0
ARC
5
195
100
AcDbEntity
8
0
100
AcDbCircle
10
7.1709037642396023
20
11.805733687852289
30
-6.352673089795573
40
47.000000000000021
210
0
220
-0
230
1
100
AcDbArc
50
87.06280486938681
51
88.93719513061319
0
ARC
5
196
100
AcDbEntity
8
0
100
AcDbCircle
10
7.1709037642396023
20
11.805733687852289
30
-6.352673089795573
40
47.000000000000014
210
0
220
-0
230
1
100
AcDbArc
50
55.062804869386802
51
56.93719513061297
0
SPLINE
5
197
100
AcDbEntity
8
0
100
AcDbSpline
70
0
71
3
72
21
73
17
74
0
42
0.000000001
43
0.0000000001
44
0.0000000001
40
0
40
0
40
0
40
0
40
0.037289020568840807
40
0.074309910496240889
40
0.11106266401588949
40
0.14754727371190401
40
0.18376372982292311
40
0.21971201913569899
40
0.25539212313856302
40
0.29080401474806478
40
0.32594765204197224
40
0.36082296496925659
40
0.39542982282283357
40
0.4297679351232675
40
0.46383640340360199
40
0.47124497732273224
40
0.47124497732273224
40
0.47124497732273224
40
0.47124497732273224
10
32.812130602835872
20
51.195167375221438
30
-6.352673089795573
10
32.705985362452637
20
51.130485417966327
30
-6.352673089795573
10
32.494458130249846
20
51.00158660590246
30
-6.352673089795573
10
32.182945284437565
20
50.801488757516466
30
-6.352673089795573
10
31.87736386367736
20
50.597256813550331
30
-6.352673089795573
10
31.5782428500004
20
50.388308231896232
30
-6.352673089795573
10
31.285745081836154
20
50.174700799961911
30
-6.352673089795573
10
31.000178296999501
20
49.956293427505003
30
-6.352673089795573
10
30.721872003101218
20
49.732961464033195
30
-6.352673089795573
10
30.451240755214528
20
49.504519826534136
30
-6.352673089795573
10
30.188768213901152
20
49.270747651654581
30
-6.352673089795573
10
29.935188199076816
20
49.031257377985249
30
-6.352673089795573
10
29.691089026451216
20
48.785804683538778
30
-6.352673089795573
10
29.458870332842125
20
48.532849262868822
30
-6.352673089795573
10
29.294006740387204
20
48.340985038083716
30
-6.352673089795573
10
29.210732522519429
20
48.230610418926631
30
-6.352673089795573
10
29.195858192868233
20
48.21089545176747
30
-6.352673089795573
0
SPLINE
5
198
100
AcDbEntity
8
0
100
AcDbSpline
70
0
71
3
72
21
73
17
74
0
42
0.000000001
43
0.0000000001
44
0.0000000001
40
0
40
0
40
0
40
0
40
0.0074085739191302579
40
0.041477042199463798
40
0.075815154499897952
40
0.11042201235347437
40
0.14529732528075984
40
0.18044096257466713
40
0.21585285418416833
40
0.25153295818703231
40
0.28748124749980802
40
0.32369770361082761
40
0.36018231330684164
40
0.3969350668264906
40
0.43395595675389076
40
0.47124497732273141
40
0.47124497732273141
40
0.47124497732273141
40
0.47124497732273141
10
44.322548311697417
20
32.546749286403582
30
-6.352673089795573
10
44.342770375649877
20
32.560926512583677
30
-6.352673089795573
10
44.455983985863114
20
32.640297983390603
30
-6.352673089795573
10
44.65348498854766
20
32.798365180519276
30
-6.352673089795573
10
44.914390631141863
20
33.021614395904983
30
-6.352673089795573
10
45.16821274070891
20
33.256998694409504
30
-6.352673089795573
10
45.416406938265517
20
33.502066145124125
30
-6.352673089795573
10
45.65919686504251
20
33.756220264010743
30
-6.352673089795573
10
45.896944236411485
20
34.018714152478829
30
-6.352673089795573
10
46.12985290167159
20
34.289056736579703
30
-6.352673089795573
10
46.358093363324109
20
34.566827254471917
30
-6.352673089795573
10
46.581778696277922
20
34.851692049032422
30
-6.352673089795573
10
46.801039164932135
20
35.14333864593339
30
-6.352673089795573
10
47.015811334102324
20
35.44160632269363
30
-6.352673089795573
10
47.226658929820779
20
35.745946089097075
30
-6.352673089795573
10
47.362861414153812
20
35.952845960958719
30
-6.352673089795573
10
47.431208384374948
20
36.056669172775528
30
-6.352673089795573
0
ARC
5
199
100
AcDbEntity
8
0
100
AcDbCircle
10
7.1709037642396023
20
11.805733687852289
30
-6.352673089795573
40
42.549199999999999
210
0
220
-0
230
1
100
AcDbArc
50
42.826255863913531
51
45.173744136086476
0
ARC
5
200
100
AcDbEntity
8
0
100
AcDbCircle
10
7.1709037642396023
20
11.805733687852289
30
-6.352673089795573
40
42.549199999999999
210
0
220
-0
230
1
100
AcDbArc
50
58.826255863913524
51
61.173744136086476
0
SPLINE
5
201
100
AcDbEntity
8
0
100
AcDbSpline
70
0
71
3
72
21
73
17
74
0
42
0.000000001
43
0.0000000001
44
0.0000000001
40
0
40
0
40
0
40
0
40
0.037289020568840675
40
0.074309910496239875
40
0.11106266401588945
40
0.14754727371190432
40
0.18376372982292383
40
0.2197120191356999
40
0.2553921231385633
40
0.29080401474806539
40
0.32594765204197057
40
0.36082296496925664
40
0.39542982282283451
40
0.42976793512326744
40
0.46383640340360227
40
0.47124497732273185
40
0.47124497732273185
40
0.47124497732273185
40
0.47124497732273185
10
52.556056195537124
20
-0.40851777459475436
30
-6.352673089795573
10
52.461739315452498
20
-0.32755547607582702
30
-6.352673089795573
10
52.273783750772679
20
-0.16621304699796058
30
-6.352673089795573
10
51.987216624846454
20
0.068219639232314222
30
-6.352673089795573
10
51.6985506515217
20
0.29573369922528459
30
-6.352673089795573
10
51.407395264768098
20
0.51564602576191776
30
-6.352673089795573
10
51.113855743518386
20
0.72781960758381281
30
-6.352673089795573
10
50.817892999192793
20
0.93191816935420224
30
-6.352673089795573
10
50.519490305579851
20
1.1275898115922023
30
-6.352673089795573
10
50.218599742837355
20
1.3143830751978847
30
-6.352673089795573
10
49.915160716767069
20
1.491769721112739
30
-6.352673089795573
10
49.609031397389963
20
1.658932082062321
30
-6.352673089795573
10
49.300161220240277
20
1.8152351369110686
30
-6.352673089795573
10
48.98782679634315
20
1.9579207148672584
30
-6.352673089795573
10
48.754407423295156
20
2.0554260027001847
30
-6.352673089795573
10
48.623701773997723
20
2.100516857175502
30
-6.352673089795573
10
48.600355305370321
20
2.1085709254200635
30
-6.352673089795573
0
ARC
5
202
100
AcDbEntity
8
0
100
AcDbCircle
10
7.1709037642396023
20
11.805733687852289
30
-6.352673089795573
40
42.549199999999992
210
0
220
-0
230
1
100
AcDbArc
50
34.826255863913516
51
37.173744136086469
0
ARC
5
203
100
AcDbEntity
8
0
100
AcDbCircle
10
7.1709037642396023
20
11.805733687852289
30
-6.352673089795573
40
42.549199999999985
210
0
220
-0
230
1
100
AcDbArc
50
82.826255863913502
51
85.173744136086484
0
SPLINE
5
204
100
AcDbEntity
8
0
100
AcDbSpline
70
0
71
3
72
21
73
17
74
0
42
0.000000001
43
0.0000000001
44
0.0000000001
40
0
40
0
40
0
40
0
40
0.037289020568841126
40
0.074309910496240028
40
0.11106266401588905
40
0.14754727371190424
40
0.18376372982292352
40
0.21971201913569985
40
0.25539212313856285
40
0.29080401474806372
40
0.32594765204197085
40
0.36082296496925642
40
0.39542982282283407
40
0.42976793512326794
40
0.46383640340360099
40
0.47124497732273196
40
0.47124497732273196
40
0.47124497732273196
40
0.47124497732273196
10
46.616456101680143
20
37.360545383387056
30
-6.352673089795573
10
46.493179077316142
20
37.344628633897166
30
-6.352673089795573
10
46.247511465054245
20
37.312909585985956
30
-6.352673089795573
10
45.881543192625912
20
37.256814794689546
30
-6.352673089795573
10
45.519312058452826
20
37.194530791240133
30
-6.352673089795573
10
45.161064370445345
20
37.125310240565547
30
-6.352673089795573
10
44.806972393167285
20
37.049139701733559
30
-6.352673089795573
10
44.457259872530024
20
36.965765114148283
30
-6.352673089795573
10
44.112177128791856
20
36.874938581099251
30
-6.352673089795573
10
43.772027596813736
20
36.77632240610243
30
-6.352673089795573
10
43.437163289285934
20
36.669518097971341
30
-6.352673089795573
10
43.10809694863265
20
36.553873130291919
30
-6.352673089795573
10
42.785266653293156
20
36.428925014265502
30
-6.352673089795573
10
42.470238081915724
20
36.292290590624397
30
-6.352673089795573
10
42.241589485182473
20
36.184069963748428
30
-6.352673089795573
10
42.120621299633896
20
36.117108407608704
30
-6.352673089795573
10
42.099014123784912
20
36.105147823823209
30
-6.352673089795573
0
SPLINE
5
205
100
AcDbEntity
8
0
100
AcDbSpline
70
0
71
3
72
21
73
17
74
0
42
0.000000001
43
0.0000000001
44
0.0000000001
40
0
40
0
40
0
40
0
40
0.0074085739191300506
40
0.041477042199464388
40
0.075815154499897397
40
0.11042201235347471
40
0.14529732528075975
40
0.18044096257466655
40
0.21585285418416861
40
0.25153295818703142
40
0.28748124749980819
40
0.32369770361082789
40
0.36018231330684231
40
0.39693506682649193
40
0.43395595675389187
40
0.47124497732273252
40
0.47124497732273252
40
0.47124497732273252
40
0.47124497732273252
10
41.074399602912479
20
37.515408725804278
30
-6.352673089795573
10
41.092451778598154
20
37.532262347541831
30
-6.352673089795573
10
41.193517228019303
20
37.626617669855229
30
-6.352673089795573
10
41.367097462537799
20
37.810633394873562
30
-6.352673089795573
10
41.594393703761206
20
38.068021011579475
30
-6.352673089795573
10
41.812986471265901
20
38.336439776352293
30
-6.352673089795573
10
42.024658462892795
20
38.613664203597132
30
-6.352673089795573
10
42.229714157944962
20
38.899134739061118
30
-6.352673089795573
10
42.428615699797717
20
39.192162093969401
30
-6.352673089795573
10
42.621633298187128
20
39.492288343810287
30
-6.352673089795573
10
42.808994355026122
20
39.799120550929523
30
-6.352673089795573
10
42.990857280882793
20
40.112344042317844
30
-6.352673089795573
10
43.167394560453204
20
40.43166751392662
30
-6.352673089795573
10
43.338565744145932
20
40.756922978943336
30
-6.352673089795573
10
43.505005476520978
20
41.087645245387073
30
-6.352673089795573
10
43.611087550884058
20
41.311487304021462
30
-6.352673089795573
10
43.664319974749112
20
41.423812175264736
30
-6.352673089795573
0
SPLINE
5
206
100
AcDbEntity
8
0
100
AcDbSpline
70
0
71
3
72
21
73
17
74
0
42
0.000000001
43
0.0000000001
44
0.0000000001
40
0
40
0
40
0
40
0
40
0.037289020568841598
40
0.074309910496241027
40
0.11106266401589074
40
0.14754727371190551
40
0.18376372982292374
40
0.2197120191357016
40
0.25539212313856341
40
0.29080401474806461
40
0.32594765204197151
40
0.36082296496925659
40
0.39542982282283501
40
0.42976793512326855
40
0.46383640340360194
40
0.47124497732273418
40
0.47124497732273418
40
0.47124497732273418
40
0.47124497732273418
10
27.080642314528834
20
54.380401165815393
30
-6.352673089795573
10
26.984532060895781
20
54.301576126665658
30
-6.352673089795573
10
26.793002644561064
20
54.144492848136906
30
-6.352673089795573
10
26.512369658405671
20
53.902988129515776
30
-6.352673089795573
10
26.238185727983026
20
53.658215042866139
30
-6.352673089795573
10
25.971055761499116
20
53.409670335409494
30
-6.352673089795573
10
25.711132970198292
20
53.157433894899754
30
-6.352673089795573
10
25.458741732978751
20
52.901408833000971
30
-6.352673089795573
10
25.214225698701341
20
52.64151757090697
30
-6.352673089795573
10
24.9780211465946
20
52.377634521735558
30
-6.352673089795573
10
24.750637768506678
20
52.109608284100602
30
-6.352673089795573
10
24.532856180991466
20
51.837157196307103
30
-6.352673089795573
10
24.325292977359219
20
51.560121191814055
30
-6.352673089795573
10
24.13053881041256
20
51.277308920219042
30
-6.352673089795573
10
23.993981998233039
20
51.064367327483126
30
-6.352673089795573
10
23.926879377344534
20
50.943477335401667
30
-6.352673089795573
10
23.914893596761889
20
50.921884126365399
30
-6.352673089795573
0
LINE
5
207
100
AcDbEntity
8
0
100
AcDbLine
10
-12.763668231554597
20
-14.492799338620838
30
-6.352673089795573
11
-12.943713255737643
21
-14.672844362803898
31
-6.352673089795573
0
ARC
5
208
100
AcDbEntity
8
0
100
AcDbCircle
10
7.1709037642396023
20
11.805733687852289
30
-6.352673089795573
40
42.549199999999992
210
0
220
-0
230
1
100
AcDbArc
50
66.826255863913516
51
69.173744136086484
0
ARC
5
209
100
AcDbEntity
8
0
100
AcDbCircle
10
7.1709037642396023
20
11.805733687852289
30
-6.352673089795573
40
33
210
0
220
-0
230
1
100
AcDbArc
50
52.837479763084275
51
127.16252023691573
0
ARC
5
210
100
AcDbEntity
8
0
100
AcDbCircle
10
7.1709037642396023
20
11.805733687852289
30
-6.352673089795573
40
42.549199999999999
210
0
220
-0
230
1
100
AcDbArc
50
26.826255863913541
51
29.173744136086476
0
ARC
5
211
100
AcDbEntity
8
0
100
AcDbCircle
10
7.1709037642396023
20
11.805733687852289
30
-6.352673089795573
40
47.000000000000014
210
0
220
-0
230
1
100
AcDbArc
50
79.062804869386781
51
80.937195130612935
0
LINE
5
212
100
AcDbEntity
8
0
100
AcDbLine
10
27.28552078421686
20
-14.67284436280389
30
-6.352673089795573
11
27.105475760033801
21
-14.492799338620838
31
-6.352673089795573
0
ARC
5
213
100
AcDbEntity
8
0
100
AcDbCircle
10
7.1709037642396023
20
11.805733687852289
30
-6.352673089795573
40
47.000000000000021
210
0
220
-0
230
1
100
AcDbArc
50
63.062804869386781
51
64.937195130613205
0
SPLINE
5
214
100
AcDbEntity
8
0
100
AcDbSpline
70
0
71
3
72
21
73
17
74
0
42
0.000000001
43
0.0000000001
44
0.0000000001
40
0
40
0
40
0
40
0
40
0.0074085739191309128
40
0.041477042199464242
40
0.075815154499898979
40
0.11042201235347607
40
0.14529732528076078
40
0.18044096257466707
40
0.2158528541841683
40
0.25153295818703314
40
0.28748124749981002
40
0.32369770361082889
40
0.36018231330684258
40
0.39693506682649288
40
0.43395595675389276
40
0.47124497732273268
40
0.47124497732273268
40
0.47124497732273268
40
0.47124497732273268
10
10.750758523296465
20
54.204071633390413
30
-6.352673089795573
10
10.750313104774298
20
54.228764288472419
30
-6.352673089795573
10
10.747819420693943
20
54.36700658827705
30
-6.352673089795573
10
10.727216934415377
20
54.619132395025723
30
-6.352673089795573
10
10.688031530631331
20
54.960272352577029
30
-6.352673089795573
10
10.634824625595442
20
55.30232564746548
30
-6.352673089795573
10
10.570442935099019
20
55.645127941841309
30
-6.352673089795573
10
10.49550602541027
20
55.988531093046596
30
-6.352673089795573
10
10.4108353721925
20
56.332417316323443
30
-6.352673089795573
10
10.316952085281548
20
56.676681005332895
30
-6.352673089795573
10
10.214300335841813
20
57.02122822601887
30
-6.352673089795573
10
10.103219968851251
20
57.36596614303393
30
-6.352673089795573
10
9.9840428801956289
20
57.710828017032739
30
-6.352673089795573
10
9.8568668423456902
20
58.055671382992998
30
-6.352673089795573
10
9.7224622204142008
20
58.400656599543233
30
-6.352673089795573
10
9.6270979155582097
20
58.629270516604699
30
-6.352673089795573
10
9.5792437127801264
20
58.743989926151826
30
-6.352673089795573
0
ARC
5
215
100
AcDbEntity
8
0
100
AcDbCircle
10
7.1709037642396023
20
11.805733687852289
30
-6.352673089795573
40
47
210
0
220
-0
230
1
100
AcDbArc
50
31.062804869386792
51
32.93719513061319
0
SPLINE
5
216
100
AcDbEntity
8
0
100
AcDbSpline
70
0
71
3
72
21
73
17
74
0
42
0.000000001
43
0.0000000001
44
0.0000000001
40
0
40
0
40
0
40
0
40
0.03728902056884191
40
0.074309910496241499
40
0.11106266401589066
40
0.14754727371190549
40
0.18376372982292363
40
0.21971201913570057
40
0.25539212313856352
40
0.29080401474806522
40
0.32594765204197146
40
0.36082296496925659
40
0.39542982282283473
40
0.42976793512326872
40
0.46383640340360177
40
0.47124497732273279
40
0.47124497732273279
40
0.47124497732273279
40
0.47124497732273279
10
52.132263025509943
20
25.497927572653261
30
-6.352673089795573
10
52.009374293256975
20
25.516607164073463
30
-6.352673089795573
10
51.764480473161704
20
25.55383202933853
30
-6.352673089795573
10
51.397227370999595
20
25.600784782048706
30
-6.352673089795573
10
51.031860658622207
20
25.640757987281148
30
-6.352673089795573
10
50.66841110892603
20
25.672965368795857
30
-6.352673089795573
10
50.307040608414759
20
25.69734652379061
30
-6.352673089795573
10
49.94789420687178
20
25.713595560814785
30
-6.352673089795573
10
49.591144197979318
20
25.721405188641945
30
-6.352673089795573
10
49.236989180280489
20
25.720367154594392
30
-6.352673089795573
10
48.885657691034005
20
25.710001376511226
30
-6.352673089795573
10
48.537462749236717
20
25.689539274779012
30
-6.352673089795573
10
48.192697983722553
20
25.658415525848191
30
-6.352673089795573
10
47.852211533685256
20
25.613907730476633
30
-6.352673089795573
10
47.602590748378574
20
25.572903481765159
30
-6.352673089795573
10
47.467851558907824
20
25.541879253550213
30
-6.352673089795573
10
47.443784624718134
20
25.536337747313844
30
-6.352673089795573
0
ARC
5
217
100
AcDbEntity
8
0
100
AcDbCircle
10
7.1709037642396023
20
11.805733687852289
30
-6.352673089795573
40
47.000000000000021
210
0
220
-0
230
1
100
AcDbArc
50
39.062804869386802
51
40.937195130613212
0
ARC
5
218
100
AcDbEntity
8
0
100
AcDbCircle
10
7.1709037642396023
20
11.805733687852289
30
-6.352673089795573
40
47.000000000000021
210
0
220
-0
230
1
100
AcDbArc
50
71.062804869386795
51
72.937195130613205
0
SPLINE
5
219
100
AcDbEntity
8
0
100
AcDbSpline
70
0
71
3
72
21
73
17
74
0
42
0.000000001
43
0.0000000001
44
0.0000000001
40
0
40
0
40
0
40
0
40
0.007408573919130473
40
0.041477042199463549
40
0.075815154499896648
40
0.11042201235347365
40
0.14529732528075961
40
0.18044096257466655
40
0.21585285418416778
40
0.25153295818703114
40
0.28748124749980797
40
0.32369770361082773
40
0.36018231330684247
40
0.39693506682649049
40
0.43395595675389054
40
0.47124497732273091
40
0.47124497732273091
40
0.47124497732273091
40
0.47124497732273091
10
48.600355305370321
20
21.502896450284517
30
-6.352673089795573
10
48.623701773997738
20
21.510950518529086
30
-6.352673089795573
10
48.75440742329512
20
21.55604137300439
30
-6.352673089795573
10
48.987826796343157
20
21.653546660837328
30
-6.352673089795573
10
49.300161220240255
20
21.796232238793518
30
-6.352673089795573
10
49.609031397389948
20
21.952535293642267
30
-6.352673089795573
10
49.915160716767062
20
22.119697654591846
30
-6.352673089795573
10
50.21859974283737
20
22.297084300506704
30
-6.352673089795573
10
50.519490305579843
20
22.483877564112387
30
-6.352673089795573
10
50.817892999192786
20
22.679549206350387
30
-6.352673089795573
10
51.113855743518386
20
22.88364776812077
30
-6.352673089795573
10
51.407395264768098
20
23.095821349942682
30
-6.352673089795573
10
51.698550651521707
20
23.315733676479297
30
-6.352673089795573
10
51.987216624846432
20
23.543247736472281
30
-6.352673089795573
10
52.273783750772679
20
23.777680422702545
30
-6.352673089795573
10
52.46173931545249
20
23.939022851780415
30
-6.352673089795573
10
52.556056195537117
20
24.019985150299341
30
-6.352673089795573
0
SPLINE
5
220
100
AcDbEntity
8
0
100
AcDbSpline
70
0
71
3
72
21
73
17
74
0
42
0.000000001
43
0.0000000001
44
0.0000000001
40
0
40
0
40
0
40
0
40
0.037289020568841577
40
0.074309910496240764
40
0.11106266401589154
40
0.14754727371190446
40
0.1837637298229238
40
0.21971201913570071
40
0.25539212313856452
40
0.29080401474806461
40
0.32594765204197124
40
0.3608229649692572
40
0.39542982282283423
40
0.42976793512326827
40
0.46383640340360216
40
0.47124497732273296
40
0.47124497732273296
40
0.47124497732273296
40
0.47124497732273296
10
-11.146024639828012
20
55.089565933163733
30
-6.352673089795573
10
-11.151756532156629
20
54.965397849258494
30
-6.352673089795573
10
-11.16317910103658
20
54.717954525171862
30
-6.352673089795573
10
-11.171486239255357
20
54.347805374842729
30
-6.352673089795573
10
-11.173049246113113
20
53.980261841829879
30
-6.352673089795573
10
-11.167089369316914
20
53.615436718699669
30
-6.352673089795573
10
-11.153563458704852
20
53.253497318936731
30
-6.352673089795573
10
-11.13218246036266
20
52.894619872089805
30
-6.352673089795573
10
-11.102658776031177
20
52.539007848677954
30
-6.352673089795573
10
-11.064607148684171
20
52.18690143332573
30
-6.352673089795573
10
-11.017574014749465
20
51.838578093591387
30
-6.352673089795573
10
-10.960827724367881
20
51.494429472166779
30
-6.352673089795573
10
-10.893836743462197
20
51.154806681758309
30
-6.352673089795573
10
-10.813982241064771
20
50.820837783573637
30
-6.352673089795573
10
-10.747110140830305
20
50.576870558152365
30
-6.352673089795573
10
-10.702171786166335
20
50.446112398958888
30
-6.352673089795573
10
-10.694144957234537
20
50.422756551083921
30
-6.352673089795573
0
SPLINE
5
221
100
AcDbEntity
8
0
100
AcDbSpline
70
0
71
3
72
21
73
17
74
0
42
0.000000001
43
0.0000000001
44
0.0000000001
40
0
40
0
40
0
40
0
40
0.0074085739191310515
40
0.041477042199465505
40
0.075815154499898091
40
0.11042201235347565
40
0.14529732528076103
40
0.1804409625746683
40
0.21585285418416983
40
0.25153295818703236
40
0.28748124749980924
40
0.3236977036108295
40
0.36018231330684347
40
0.39693506682649238
40
0.43395595675389287
40
0.47124497732273274
40
0.47124497732273274
40
0.47124497732273274
40
0.47124497732273274
10
27.68622146635774
20
49.082484622196851
30
-6.352673089795573
10
27.695857963926752
20
49.105223653118628
30
-6.352673089795573
10
27.749808079115951
20
49.232528550850958
30
-6.352673089795573
10
27.833535575629782
20
49.471236722468639
30
-6.352673089795573
10
27.936492049150395
20
49.798821720702698
30
-6.352673089795573
10
28.027010731655597
20
50.132944152462485
30
-6.352673089795573
10
28.107625385200343
20
50.47229602402706
30
-6.352673089795573
10
28.178841756687298
20
50.816490000040069
30
-6.352673089795573
10
28.241362394100232
20
51.165084354517361
30
-6.352673089795573
10
28.295620400994736
20
51.517770656802277
30
-6.352673089795573
10
28.341983341497929
20
51.874282433176319
30
-6.352673089795573
10
28.380723919908068
20
52.234396646923962
30
-6.352673089795573
10
28.412118192866767
20
52.597917334401032
30
-6.352673089795573
10
28.436197534225599
20
52.964674579686971
30
-6.352673089795573
10
28.453730931264339
20
53.334501541958581
30
-6.352673089795573
10
28.459596960927897
20
53.582138904670352
30
-6.352673089795573
10
28.462540558885706
20
53.706404357960587
30
-6.352673089795573
0
SPLINE
5
222
100
AcDbEntity
8
0
100
AcDbSpline
70
0
71
3
72
21
73
17
74
0
42
0.000000001
43
0.0000000001
44
0.0000000001
40
0
40
0
40
0
40
0
40
0.037289020568841577
40
0.074309910496240861
40
0.11106266401589104
40
0.14754727371190529
40
0.18376372982292405
40
0.2197120191356999
40
0.25539212313856341
40
0.29080401474806478
40
0.32594765204197251
40
0.36082296496925748
40
0.39542982282283462
40
0.42976793512326855
40
0.46383640340360183
40
0.47124497732273302
40
0.47124497732273302
40
0.47124497732273302
40
0.47124497732273302
10
-22.367098967559407
20
48.363993966703575
30
-6.352673089795573
10
-22.338383453775638
20
48.24305602014212
30
-6.352673089795573
10
-22.281158908143336
20
48.002049744099295
30
-6.352673089795573
10
-22.187117308861307
20
47.643949786490737
30
-6.352673089795573
10
-22.087311039896832
20
47.290213443538249
30
-6.352673089795573
10
-21.981022606344915
20
46.941163791638296
30
-6.352673089795573
10
-21.868256647454221
20
46.596973556631411
30
-6.352673089795573
10
-21.748783882215701
20
46.257891815289099
30
-6.352673089795573
10
-21.622383937514908
20
45.924193428851261
30
-6.352673089795573
10
-21.488752684384202
20
45.596215468825491
30
-6.352673089795573
10
-21.347530609959129
20
45.274349673211091
30
-6.352673089795573
10
-21.198122358611169
20
44.959174183158837
30
-6.352673089795573
10
-21.04011376676981
20
44.651173020511919
30
-6.352673089795573
10
-20.871298388346222
20
44.352152394943175
30
-6.352673089795573
10
-20.73977031894276
20
44.136068494967937
30
-6.352673089795573
10
-20.660530966674205
20
44.02276237435818
30
-6.352673089795573
10
-20.646377339331092
20
44.002523786322172
30
-6.352673089795573
0
SPLINE
5
223
100
AcDbEntity
8
0
100
AcDbSpline
70
0
71
3
72
21
73
17
74
0
42
0.000000001
43
0.0000000001
44
0.0000000001
40
0
40
0
40
0
40
0
40
0.007408573919130022
40
0.04147704219946536
40
0.075815154499899146
40
0.11042201235347539
40
0.14529732528076023
40
0.18044096257466799
40
0.21585285418416944
40
0.25153295818703247
40
0.28748124749980875
40
0.323697703610828
40
0.36018231330684236
40
0.39693506682649249
40
0.43395595675389215
40
0.47124497732273263
40
0.47124497732273263
40
0.47124497732273263
40
0.47124497732273263
10
-17.339894693106409
20
46.58583115211141
30
-6.352673089795573
10
-17.356108036227148
20
46.60446051381566
30
-6.352673089795573
10
-17.446878746508805
20
46.708757350155665
30
-6.352673089795573
10
-17.624724511297192
20
46.888653900473791
30
-6.352673089795573
10
-17.874022810000312
20
47.124794377248833
30
-6.352673089795573
10
-18.134649283745357
20
47.352621663741843
30
-6.352673089795573
10
-18.40431758738567
20
47.573839703495096
30
-6.352673089795573
10
-18.682457881359291
20
47.788733262169352
30
-6.352673089795573
10
-18.968365168216302
20
47.997740145783311
30
-6.352673089795573
10
-19.26157237221641
20
48.201114418133599
30
-6.352673089795573
10
-19.561678858860052
20
48.39906962927968
30
-6.352673089795573
10
-19.868364618379204
20
48.591753111360504
30
-6.352673089795573
10
-20.18133250455066
20
48.779327077634562
30
-6.352673089795573
10
-20.500416044565341
20
48.96174524049588
30
-6.352673089795573
10
-20.82512818104901
20
49.139625622930225
30
-6.352673089795573
10
-21.045131670144851
20
49.253455050147032
30
-6.352673089795573
10
-21.155530331310331
20
49.310575127731312
30
-6.352673089795573
0
LINE
5
224
100
AcDbEntity
8
0
100
AcDbLine
10
33.477480758249875
20
31.748349651183617
30
-6.352673089795573
11
33.469436790712734
21
31.74030568364649
31
-6.352673089795573
0
ARC
5
225
100
AcDbEntity
8
0
100
AcDbCircle
10
7.1709037642396023
20
11.805733687852289
30
-6.352673089795573
40
42.549199999999999
210
0
220
0
230
1
100
AcDbArc
50
106.82625586391353
51
109.1737441360865
0
ARC
5
226
100
AcDbEntity
8
0
100
AcDbCircle
10
7.1709037642396023
20
11.805733687852289
30
-6.352673089795573
40
47.000000000000021
210
0
220
0
230
1
100
AcDbArc
50
111.06280486938677
51
112.9371951306132
0
ARC
5
227
100
AcDbEntity
8
0
100
AcDbCircle
10
7.1709037642396023
20
11.805733687852289
30
-6.352673089795573
40
47.000000000000014
210
0
220
-0
230
1
100
AcDbArc
50
7.0628048693867713
51
8.9371951306132047
0
SPLINE
5
228
100
AcDbEntity
8
0
100
AcDbSpline
70
0
71
3
72
21
73
17
74
0
42
0.000000001
43
0.0000000001
44
0.0000000001
40
0
40
0
40
0
40
0
40
0.03728902056884207
40
0.074309910496241333
40
0.11106266401589052
40
0.14754727371190487
40
0.18376372982292366
40
0.2197120191357004
40
0.25539212313856402
40
0.29080401474806528
40
0.3259476520419729
40
0.36082296496925764
40
0.39542982282283395
40
0.42976793512326839
40
0.46383640340360133
40
0.47124497732273274
40
0.47124497732273274
40
0.47124497732273274
40
0.47124497732273274
10
49.789117085999507
20
31.622087874759835
30
-6.352673089795573
10
49.664824601778641
20
31.623482871739711
30
-6.352673089795573
10
49.417133371574387
20
31.62626283482631
30
-6.352673089795573
10
49.046919791163688
20
31.621646893509599
30
-6.352673089795573
10
48.679545607587755
20
31.610381863907392
30
-6.352673089795573
10
48.315150722765935
20
31.591693404525437
30
-6.352673089795573
10
47.953903854178826
20
31.565544230644129
30
-6.352673089795573
10
47.59599121185714
20
31.531651614755592
30
-6.352673089795573
10
47.2416261794056
20
31.489735234816479
30
-6.352673089795573
10
46.891062240411131
20
31.439418450811203
30
-6.352673089795573
10
46.544592522546623
20
31.380257658944434
30
-6.352673089795573
10
46.202633964137654
20
31.311535323191148
30
-6.352673089795573
10
45.865556014274027
20
31.232732486927034
30
-6.352673089795573
10
45.534577442861703
20
31.141271283273944
30
-6.352673089795573
10
45.293092638323962
20
31.065925586337009
30
-6.352673089795573
10
45.16398245942856
20
31.016451212958913
30
-6.352673089795573
10
45.140920971594895
20
31.00761416641852
30
-6.352673089795573
0
SPLINE
5
229
100
AcDbEntity
8
0
100
AcDbSpline
70
0
71
3
72
21
73
17
74
0
42
0.000000001
43
0.0000000001
44
0.0000000001
40
0
40
0
40
0
40
0
40
0.037289020568840731
40
0.074309910496240389
40
0.11106266401589021
40
0.14754727371190368
40
0.18376372982292336
40
0.21971201913569965
40
0.25539212313856352
40
0.29080401474806344
40
0.32594765204197179
40
0.36082296496925642
40
0.39542982282283357
40
0.42976793512326683
40
0.46383640340360094
40
0.47124497732273246
40
0.47124497732273246
40
0.47124497732273246
40
0.47124497732273246
10
14.574204040365419
20
58.218998440738574
30
-6.352673089795573
10
14.503544060324451
20
58.116735373744781
30
-6.352673089795573
10
14.362732188293194
20
57.912944573143015
30
-6.352673089795573
10
14.159538170143282
20
57.603442403485275
30
-6.352673089795573
10
13.963444266565457
20
57.292576077503163
30
-6.352673089795573
10
13.775170667912832
20
56.980028572875796
30
-6.352673089795573
10
13.594842630236803
20
56.665918913383194
30
-6.352673089795573
10
13.42279867259181
20
56.350243374921128
30
-6.352673089795573
10
13.259390515081755
20
56.033022106417967
30
-6.352673089795573
10
13.105072152653786
20
55.714254640867466
30
-6.352673089795573
10
12.960375264436115
20
55.393935932029621
30
-6.352673089795573
10
12.826127863705947
20
55.072010396388663
30
-6.352673089795573
10
12.702966778312588
20
54.748494124259636
30
-6.352673089795573
10
12.593710684237447
20
54.422955996822523
30
-6.352673089795573
10
12.521138508934996
20
54.180623241625447
30
-6.352673089795573
10
12.489957127539903
20
54.04592033382513
30
-6.352673089795573
10
12.484387550812244
20
54.021859880218983
30
-6.352673089795573
0
LINE
5
230
100
AcDbEntity
8
0
100
AcDbLine
10
-12.943713255737656
20
38.284311738508464
30
-6.352673089795573
11
-12.763668231554599
21
38.104266714325419
31
-6.352673089795573
0
ARC
5
231
100
AcDbEntity
8
0
100
AcDbCircle
10
7.1709037642396023
20
11.805733687852289
30
-6.352673089795573
40
42.549199999999992
210
0
220
0
230
1
100
AcDbArc
50
114.82625586391354
51
117.17374413608646
0
SPLINE
5
232
100
AcDbEntity
8
0
100
AcDbSpline
70
0
71
3
72
21
73
17
74
0
42
0.000000001
43
0.0000000001
44
0.0000000001
40
0
40
0
40
0
40
0
40
0.037289020568842583
40
0.074309910496242179
40
0.11106266401589107
40
0.14754727371190615
40
0.18376372982292516
40
0.21971201913570063
40
0.25539212313856452
40
0.29080401474806522
40
0.3259476520419729
40
0.36082296496925964
40
0.3954298228228359
40
0.42976793512327016
40
0.4638364034036026
40
0.47124497732273435
40
0.47124497732273435
40
0.47124497732273435
40
0.47124497732273435
10
-16.991710706749306
20
52.119106927093384
30
-6.352673089795573
10
-16.980105959418434
20
51.995349513215452
30
-6.352673089795573
10
-16.956979909918239
20
51.748724576217242
30
-6.352673089795573
10
-16.913691398569899
20
51.381021561788458
30
-6.352673089795573
10
-16.86408702112513
20
51.016837408662155
30
-6.352673089795573
10
-16.807411301746058
20
50.656392193086653
30
-6.352673089795573
10
-16.743644795741631
20
50.299857605605126
30
-6.352673089795573
10
-16.672525788663229
20
49.94744838924202
30
-6.352673089795573
10
-16.593797798761258
20
49.599406060296872
30
-6.352673089795573
10
-16.507112745543353
20
49.256022083348952
30
-6.352673089795573
10
-16.412060095507375
20
48.917634349510166
30
-6.352673089795573
10
-16.307969825288158
20
48.58473251601233
30
-6.352673089795573
10
-16.194364439105723
20
48.25773825380292
30
-6.352673089795573
10
-16.068807588051726
20
47.938133116702097
30
-6.352673089795573
10
-15.968632607205366
20
47.705846961105287
30
-6.352673089795573
10
-15.905933571029047
20
47.582615541499194
30
-6.352673089795573
10
-15.894734352870321
20
47.560604109803549
30
-6.352673089795573
0
LINE
5
233
100
AcDbEntity
8
0
100
AcDbLine
10
-21.941811303224561
20
42.836109806111736
30
-6.352673089795573
11
-20.088501542497326
21
40.860722117064526
31
-6.352673089795573
0
ARC
5
234
100
AcDbEntity
8
0
100
AcDbCircle
10
7.1709037642396023
20
11.805733687852289
30
-6.352673089795573
40
42.549199999999992
210
0
220
0
230
1
100
AcDbArc
50
122.8262558639135
51
125.17374413608646
0
ARC
5
235
100
AcDbEntity
8
0
100
AcDbCircle
10
7.1709037642396023
20
11.805733687852289
30
-6.352673089795573
40
33
210
0
220
0
230
1
100
AcDbArc
50
-37.162520236915718
51
37.162520236915711
0
ARC
5
236
100
AcDbEntity
8
0
100
AcDbCircle
10
-17.619405447628562
20
-12.901431783337891
30
-6.352673089795573
40
4.9999999999999858
210
0
220
0
230
1
100
AcDbArc
50
240.40808159853103
51
339.25052214885432
0
ARC
5
237
100
AcDbEntity
8
0
100
AcDbCircle
10
7.1709037642396023
20
11.805733687852289
30
-6.352673089795573
40
47.000000000000014
210
0
220
0
230
1
100
AcDbArc
50
127.06280486938681
51
128.93719513061322
0
SPLINE
5
238
100
AcDbEntity
8
0
100
AcDbSpline
70
0
71
3
72
21
73
17
74
0
42
0.000000001
43
0.0000000001
44
0.0000000001
40
0
40
0
40
0
40
0
40
0.0074085739191301287
40
0.041477042199463979
40
0.075815154499898396
40
0.11042201235347633
40
0.14529732528076097
40
0.18044096257466691
40
0.21585285418416911
40
0.25153295818703209
40
0.28748124749980902
40
0.32369770361082756
40
0.36018231330684236
40
0.39693506682649182
40
0.43395595675389192
40
0.47124497732273307
40
0.47124497732273307
40
0.47124497732273307
40
0.47124497732273307
10
-12.260903271636039
20
49.658597462743799
30
-6.352673089795573
10
-12.274366121578772
20
49.67930198601961
30
-6.352673089795573
10
-12.3497381434139
20
49.795216653944117
30
-6.352673089795573
10
-12.500816364684994
20
49.998113809979117
30
-6.352673089795573
10
-12.714824107067313
20
50.266651801161466
30
-6.352673089795573
10
-12.941206751941202
20
50.528534082706891
30
-6.352673089795573
10
-13.177463061607133
20
50.785129817752441
30
-6.352673089795573
10
-13.422989110422584
20
51.036641694300009
30
-6.352673089795573
10
-13.677025831103045
20
51.283405140989089
30
-6.352673089795573
10
-13.939075334610873
20
51.525606744705641
30
-6.352673089795573
10
-14.208711164969866
20
51.763402219709036
30
-6.352673089795573
10
-14.485595922054495
20
51.996892927560182
30
-6.352673089795573
10
-14.769412775725881
20
52.22619814810799
30
-6.352673089795573
10
-15.060003315266597
20
52.45124887567723
30
-6.352673089795573
10
-15.356799211135858
20
52.672589333411281
30
-6.352673089795573
10
-15.558819647032953
20
52.815929548266723
30
-6.352673089795573
10
-15.660194337692474
20
52.88785826119873
30
-6.352673089795573
0
ARC
5
239
100
AcDbEntity
8
0
100
AcDbCircle
10
31.961212976107767
20
-12.901431783337873
30
-6.352673089795573
40
5.0000000000000018
210
0
220
0
230
1
100
AcDbArc
50
-159.25052214885417
51
72.346875510101412
0
ARC
5
240
100
AcDbEntity
8
0
100
AcDbCircle
10
-17.619405447628562
20
36.512899159042462
30
-6.352673089795573
40
4.9999999999999982
210
0
220
-0
230
1
100
AcDbArc
50
20.749477851145695
51
119.59191840146845
0
LINE
5
241
100
AcDbEntity
8
0
100
AcDbLine
10
27.105475760033812
20
38.104266714325412
30
-6.352673089795573
11
27.28552078421686
21
38.284311738508464
31
-6.352673089795573
0
ARC
5
242
100
AcDbEntity
8
0
100
AcDbCircle
10
31.961212976107767
20
36.512899159042448
30
-6.352673089795573
40
4.9999999999999991
210
0
220
0
230
1
100
AcDbArc
50
-72.346875510101441
51
159.25052214885417
0
ARC
5
243
100
AcDbEntity
8
0
100
AcDbCircle
10
7.1709037642396023
20
11.805733687852289
30
-6.352673089795573
40
42.549199999999992
210
0
220
0
230
1
100
AcDbArc
50
130.82625586391353
51
133.1737441360865
0
ARC
5
244
100
AcDbEntity
8
0
100
AcDbCircle
10
7.1709037642396023
20
11.805733687852289
30
-6.352673089795573
40
33
210
0
220
0
230
1
100
AcDbArc
50
232.83747976308427
51
307.16252023691573
0
ARC
5
245
100
AcDbEntity
8
0
100
AcDbCircle
10
7.1709037642396023
20
11.805733687852289
30
-6.352673089795573
40
47.000000000000021
210
0
220
0
230
1
100
AcDbArc
50
119.06280486938681
51
120.93719513061318
0
LINE
5
246
100
AcDbEntity
8
0
100
AcDbLine
10
33.46943679071272
20
-8.1288383079419191
30
-6.352673089795573
11
33.477480758249875
21
-8.1368822754790404
31
-6.352673089795573
0
SPLINE
5
247
100
AcDbEntity
8
0
100
AcDbSpline
70
0
71
3
72
21
73
17
74
0
42
0.000000001
43
0.0000000001
44
0.0000000001
40
0
40
0
40
0
40
0
40
0.0074085739191314453
40
0.041477042199465408
40
0.075815154499899867
40
0.11042201235347626
40
0.14529732528076222
40
0.18044096257466946
40
0.2158528541841705
40
0.25153295818703325
40
0.28748124749981008
40
0.32369770361082972
40
0.36018231330684364
40
0.39693506682649365
40
0.43395595675389204
40
0.47124497732273374
40
0.47124497732273374
40
0.47124497732273374
40
0.47124497732273374
10
-6.8036938295652583
20
51.994600836992262
30
-6.352673089795573
10
-6.8141441472696158
20
52.0169775318451
30
-6.352673089795573
10
-6.8726504499876295
20
52.142253884193948
30
-6.352673089795573
10
-6.9940205620132945
20
52.364202483595719
30
-6.352673089795573
10
-7.1685723307995364
20
52.659911202644423
30
-6.352673089795573
10
-7.3563048661262442
20
52.950751238518677
30
-6.352673089795573
10
-7.5545507214877201
20
53.237730324747154
30
-6.352673089795573
10
-7.7626836398865322
20
53.520965126581629
30
-6.352673089795573
10
-7.9799052585848962
20
53.800682166545229
30
-6.352673089795573
10
-8.205696566091552
20
54.076996922911995
30
-6.352673089795573
10
-8.4396135854341914
20
54.350004243340067
30
-6.352673089795573
10
-8.6813080932393518
20
54.619757545924998
30
-6.352673089795573
10
-8.9304497421908593
20
54.886330855459384
30
-6.352673089795573
10
-9.1868912669472849
20
55.149633791315793
30
-6.352673089795573
10
-9.4499941276894095
20
55.410126184110815
30
-6.352673089795573
10
-9.6300994123978274
20
55.580187232369809
30
-6.352673089795573
10
-9.7204769895096881
20
55.665524570070019
30
-6.352673089795573
0
ENDSEC
0
SECTION
2
OBJECTS
0
DICTIONARY
5
C
100
AcDbDictionary
3
ACAD_GROUP
350
D
3
ACAD_MLINESTYLE
350
17
0
DICTIONARY
5
D
100
AcDbDictionary
0
DICTIONARY
5
1A
330
C
100
AcDbDictionary
0
DICTIONARY
5
17
100
AcDbDictionary
0
ENDSEC
0
EOF
