0
SECTION
2
HEADER
9
$INSUNITS
70
4
9
$ACADVER
1
AC1014
9
$HANDSEED
5
FFFF
0
ENDSEC
0
SECTION
2
TABLES
0
TABLE
2
VPORT
5
8
100
AcDbSymbolTable
0
ENDTAB
0
TABLE
2
LTYPE
5
5
100
AcDbSymbolTable
0
LTYPE
5
14
100
AcDbSymbolTableRecord
100
AcDbLinetypeTableRecord
2
BYBLOCK
70
0
0
LTYPE
5
15
100
AcDbSymbolTableRecord
100
AcDbLinetypeTableRecord
2
BYLAYER
70
0
0
ENDTAB
0
TABLE
2
LAYER
5
2
100
AcDbSymbolTable
70
2
0
LAYER
5
50
100
AcDbSymbolTableRecord
100
AcDbLayerTableRecord
2
0
70
0
6
CONTINUOUS
0
ENDTAB
0
TABLE
2
STYLE
5
3
100
AcDbSymbolTable
70
1
0
STYLE
5
11
100
AcDbSymbolTableRecord
100
AcDbTextStyleTableRecord
2
STANDARD
70
0
0
ENDTAB
0
TABLE
2
VIEW
5
6
100
AcDbSymbolTable
70
0
0
ENDTAB
0
TABLE
2
UCS
5
7
100
AcDbSymbolTable
70
0
0
ENDTAB
0
TABLE
2
APPID
5
9
100
AcDbSymbolTable
70
2
0
APPID
5
12
100
AcDbSymbolTableRecord
100
AcDbRegAppTableRecord
2
ACAD
70
0
0
ENDTAB
0
TABLE
2
DIMSTYLE
5
A
100
AcDbSymbolTable
70
1
0
ENDTAB
0
TABLE
2
BLOCK_RECORD
5
1
100
AcDbSymbolTable
70
1
0
BLOCK_RECORD
5
1F
100
AcDbSymbolTableRecord
100
AcDbBlockTableRecord
2
*MODEL_SPACE
0
BLOCK_RECORD
5
1B
100
AcDbSymbolTableRecord
100
AcDbBlockTableRecord
2
*PAPER_SPACE
0
ENDTAB
0
ENDSEC
0
SECTION
2
BLOCKS
0
BLOCK
5
20
100
AcDbEntity
100
AcDbBlockBegin
2
*MODEL_SPACE
0
ENDBLK
5
21
100
AcDbEntity
100
AcDbBlockEnd
0
BLOCK
5
1C
100
AcDbEntity
100
AcDbBlockBegin
2
*PAPER_SPACE
0
ENDBLK
5
1D
100
AcDbEntity
100
AcDbBlockEnd
0
ENDSEC
0
SECTION
2
ENTITIES
0
ARC
5
100
100
AcDbEntity
8
0
100
AcDbCircle
10
-47.014231576768857
20
-30.317438273381121
30
0
40
13.000000000000009
210
0
220
-0
230
1
100
AcDbArc
50
7.785619166459707
51
13.123471742630825
0
ARC
5
101
100
AcDbEntity
8
0
100
AcDbCircle
10
-38.66385912423371
20
-26.830419411381321
30
0
40
0.5000000000000111
210
0
220
0
230
1
100
AcDbArc
50
202.66485041706596
51
289.44087368263962
0
ARC
5
102
100
AcDbEntity
8
0
100
AcDbCircle
10
-39.255236962083082
20
-25.660612830090681
30
0
40
0.50000000000000167
210
0
220
0
230
1
100
AcDbArc
50
124.19548995372323
51
210.97151321929712
0
LWPOLYLINE
5
103
100
AcDbEntity
8
0
100
AcDbPolyline
90
2
70
1
43
0.0
10
-44.929874400147021
20
-28.247568371608274
10
-49.672165189741747
20
-31.568156130864985
42
-0.84207535832068603
0
SPLINE
5
104
100
AcDbEntity
8
0
100
AcDbSpline
70
0
71
5
72
81
73
75
74
0
42
0.000000001
43
0.0000000001
44
0.0000000001
40
0
40
0
40
0
40
0
40
0
40
0
40
0.014285714285714284
40
0.028571428571428567
40
0.042857142857142858
40
0.057142857142857134
40
0.071428571428571438
40
0.085714285714285715
40
0.10000000000000001
40
0.1142857142857143
40
0.12857142857142859
40
0.14285714285714288
40
0.15714285714285714
40
0.17142857142857146
40
0.18571428571428572
40
0.20000000000000004
40
0.21428571428571436
40
0.22857142857142865
40
0.24285714285714291
40
0.25714285714285717
40
0.27142857142857146
40
0.2857142857142857
40
0.30000000000000004
40
0.31428571428571433
40
0.32857142857142863
40
0.34285714285714292
40
0.35714285714285721
40
0.3714285714285715
40
0.38571428571428573
40
0.40000000000000008
40
0.41428571428571442
40
0.42857142857142871
40
0.44285714285714295
40
0.4571428571428573
40
0.47142857142857147
40
0.48571428571428582
40
0.50000000000000011
40
0.51428571428571435
40
0.52857142857142858
40
0.54285714285714282
40
0.55714285714285705
40
0.57142857142857129
40
0.58571428571428552
40
0.59999999999999976
40
0.61428571428571399
40
0.62857142857142823
40
0.64285714285714246
40
0.6571428571428567
40
0.67142857142857093
40
0.68571428571428517
40
0.6999999999999994
40
0.71428571428571364
40
0.72857142857142776
40
0.74285714285714211
40
0.75714285714285634
40
0.77142857142857058
40
0.78571428571428481
40
0.79999999999999905
40
0.81428571428571328
40
0.82857142857142752
40
0.84285714285714175
40
0.85714285714285599
40
0.87142857142857022
40
0.88571428571428445
40
0.89999999999999869
40
0.91428571428571281
40
0.92857142857142716
40
0.94285714285714117
40
0.95714285714285563
40
0.97142857142856975
40
0.98571428571428399
40
1
40
1
40
1
40
1
40
1
40
1
10
-36.680781618096603
20
-30.061507110146483
30
0
10
-36.672824674792722
20
-30.061303167044258
30
0
10
-36.656946927189026
20
-30.060638222344345
30
0
10
-36.633238720501772
20
-30.058869641426288
30
0
10
-36.60183056908582
20
-30.055045173775618
30
0
10
-36.562827866727858
20
-30.048260741429438
30
0
10
-36.523982050622983
20
-30.040030500458901
30
0
10
-36.485196652509238
20
-30.030903625311026
30
0
10
-36.446405931734219
20
-30.021281697416264
30
0
10
-36.407594834100877
20
-30.011313528010966
30
0
10
-36.36878089472544
20
-30.000982568975072
30
0
10
-36.330000246964985
20
-29.990173389467898
30
0
10
-36.291292884514441
20
-29.978742312131892
30
0
10
-36.252686342388351
20
-29.966595118911769
30
0
10
-36.214186170362822
20
-29.953733206714375
30
0
10
-36.175784861461821
20
-29.940213590026453
30
0
10
-36.137467466024489
20
-29.926124434754087
30
0
10
-36.099218053444552
20
-29.911556499282703
30
0
10
-36.061026898970908
20
-29.896571504289433
30
0
10
-36.022893541354868
20
-29.881188741280035
30
0
10
-35.984822868263954
20
-29.865402605941878
30
0
10
-35.946822759040352
20
-29.849193221624091
30
0
10
-35.908901321934088
20
-29.832538855152304
30
0
10
-35.871063773776179
20
-29.815429938120971
30
0
10
-35.833311502267826
20
-29.797873332583706
30
0
10
-35.795643716460717
20
-29.779885033047737
30
0
10
-35.758058448831996
20
-29.761485766392148
30
0
10
-35.720553722406848
20
-29.742695850384813
30
0
10
-35.68312888425514
20
-29.72352931830477
30
0
10
-35.645784887423979
20
-29.703992704140639
30
0
10
-35.608523601596417
20
-29.684088134362845
30
0
10
-35.571347381612263
20
-29.663815276571846
30
0
10
-35.534258572125211
20
-29.643173569307173
30
0
10
-35.497258935766403
20
-29.622164795162075
30
0
10
-35.4603495611832
20
-29.600793507778889
30
0
10
-35.423531151904434
20
-29.579065756554883
30
0
10
-35.386804210037852
20
-29.556988280741912
30
0
10
-35.350169244842363
20
-29.534567592228743
30
0
10
-35.31362701315291
20
-29.511808914724842
30
0
10
-35.277178554901653
20
-29.488716041018087
30
0
10
-35.24082507351973
20
-29.465291884480077
30
0
10
-35.20456785864998
20
-29.441538841190603
30
0
10
-35.168408198196623
20
-29.417459197303391
30
0
10
-35.132347276098756
20
-29.393055604462074
30
0
10
-35.096386153973882
20
-29.368331160056727
30
0
10
-35.060525819838873
20
-29.343289173279462
30
0
10
-35.024767217394711
20
-29.317933019306189
30
0
10
-34.989111280294978
20
-29.292265973822506
30
0
10
-34.953558968944954
20
-29.266291023389812
30
0
10
-34.918111283067425
20
-29.240010830912304
30
0
10
-34.882769250669789
20
-29.213427845561508
30
0
10
-34.847533923184876
20
-29.186544377046285
30
0
10
-34.812406367050677
20
-29.159362678918971
30
0
10
-34.777387656739812
20
-29.13188504868371
30
0
10
-34.742478863908339
20
-29.104113852526901
30
0
10
-34.707681044006051
20
-29.076051460770493
30
0
10
-34.672995221338553
20
-29.047700206693854
30
0
10
-34.638422377031205
20
-29.019062342546057
30
0
10
-34.603963427355026
20
-28.990139987698068
30
0
10
-34.569619231286964
20
-28.960935120763743
30
0
10
-34.535390643987981
20
-28.931449643858151
30
0
10
-34.501278561411482
20
-28.901685434294777
30
0
10
-34.467283962283332
20
-28.871644397789122
30
0
10
-34.433407963287785
20
-28.841328536347003
30
0
10
-34.399651826846743
20
-28.810739969673207
30
0
10
-34.366016842060262
20
-28.779880826501167
30
0
10
-34.332504226734613
20
-28.748753161071523
30
0
10
-34.299115024101219
20
-28.717358863404712
30
0
10
-34.265849991323961
20
-28.685699569652748
30
0
10
-34.232709517982492
20
-28.653776587027828
30
0
10
-34.199693740218159
20
-28.621590912047836
30
0
10
-34.173380852935693
20
-28.595632773599888
30
0
10
-34.153702247205445
20
-28.576046453233943
30
0
10
-34.140608083853593
20
-28.562936605233055
30
0
10
-34.13406722896292
20
-28.556368605960543
30
0
0
SPLINE
5
105
100
AcDbEntity
8
0
100
AcDbSpline
70
0
71
5
72
81
73
75
74
0
42
0.000000001
43
0.0000000001
44
0.0000000001
40
0
40
0
40
0
40
0
40
0
40
0
40
0.014285714285714284
40
0.028571428571428567
40
0.042857142857142858
40
0.057142857142857134
40
0.071428571428571438
40
0.085714285714285715
40
0.10000000000000001
40
0.1142857142857143
40
0.12857142857142859
40
0.14285714285714288
40
0.15714285714285714
40
0.17142857142857146
40
0.18571428571428572
40
0.20000000000000004
40
0.21428571428571436
40
0.22857142857142865
40
0.24285714285714291
40
0.25714285714285717
40
0.27142857142857146
40
0.2857142857142857
40
0.30000000000000004
40
0.31428571428571433
40
0.32857142857142863
40
0.34285714285714292
40
0.35714285714285721
40
0.3714285714285715
40
0.38571428571428573
40
0.40000000000000008
40
0.41428571428571442
40
0.42857142857142871
40
0.44285714285714295
40
0.4571428571428573
40
0.47142857142857147
40
0.48571428571428582
40
0.50000000000000011
40
0.51428571428571435
40
0.52857142857142858
40
0.54285714285714282
40
0.55714285714285705
40
0.57142857142857129
40
0.58571428571428552
40
0.59999999999999976
40
0.61428571428571399
40
0.62857142857142823
40
0.64285714285714246
40
0.6571428571428567
40
0.67142857142857093
40
0.68571428571428517
40
0.6999999999999994
40
0.71428571428571364
40
0.72857142857142776
40
0.74285714285714211
40
0.75714285714285634
40
0.77142857142857058
40
0.78571428571428481
40
0.79999999999999905
40
0.81428571428571328
40
0.82857142857142752
40
0.84285714285714175
40
0.85714285714285599
40
0.87142857142857022
40
0.88571428571428445
40
0.89999999999999869
40
0.91428571428571281
40
0.92857142857142716
40
0.94285714285714117
40
0.95714285714285563
40
0.97142857142856975
40
0.98571428571428399
40
1
40
1
40
1
40
1
40
1
40
1
10
-37.269923102884185
20
-26.86864991013271
30
0
10
-37.262417356839464
20
-26.866000699714128
30
0
10
-37.247347883288114
20
-26.86095530703308
30
0
10
-37.224569730579063
20
-26.85414629080805
30
0
10
-37.193864973329525
20
-26.846509772594544
30
0
10
-37.155009411951603
20
-26.838927908477434
30
0
10
-37.115784416354217
20
-26.832752633935208
30
0
10
-37.076295863710257
20
-26.827436510639771
30
0
10
-37.036625661409346
20
-26.822580940224046
30
0
10
-36.996812855285363
20
-26.818041538354564
30
0
10
-36.956867919933615
20
-26.813840021463644
30
0
10
-36.916783413575672
20
-26.81009711452138
30
0
10
-36.876545419766799
20
-26.806961306622572
30
0
10
-36.836146035156197
20
-26.804530438229275
30
0
10
-36.795590942592156
20
-26.802805185062549
30
0
10
-36.754893477133756
20
-26.801729608025319
30
0
10
-36.71407113878449
20
-26.801216011797081
30
0
10
-36.673141436419769
20
-26.801173929212382
30
0
10
-36.632117312943443
20
-26.801542233403097
30
0
10
-36.591005222353616
20
-26.802302738637096
30
0
10
-36.549807730352505
20
-26.803462424512212
30
0
10
-36.508525103707925
20
-26.805042670787998
30
0
10
-36.467157160453823
20
-26.807066673185496
30
0
10
-36.425705359049594
20
-26.809545231825389
30
0
10
-36.384173444785745
20
-26.812472431786425
30
0
10
-36.342566387018842
20
-26.815833049555316
30
0
10
-36.300889744929208
20
-26.819607020980563
30
0
10
-36.259148922861456
20
-26.82377466070767
30
0
10
-36.217348319166206
20
-26.828322626557291
30
0
10
-36.175491156020882
20
-26.833245154947321
30
0
10
-36.133579938893938
20
-26.838540926704102
30
0
10
-36.091616748925105
20
-26.844211092747781
30
0
10
-36.049603575990105
20
-26.850257014340144
30
0
10
-36.007542702830015
20
-26.856677655334209
30
0
10
-35.965436771534655
20
-26.863469150478011
30
0
10
-35.923288598250487
20
-26.870626099819766
30
0
10
-35.881101057166575
20
-26.87814238709711
30
0
10
-35.838876948009343
20
-26.886012110990581
30
0
10
-35.796618842044538
20
-26.894230661887146
30
0
10
-35.754329064316259
20
-26.902794867899541
30
0
10
-35.712009778749355
20
-26.91170243699592
30
0
10
-35.669663045188699
20
-26.920951591139264
30
0
10
-35.627290882624116
20
-26.930540654359216
30
0
10
-35.584895343364771
20
-26.940467572160074
30
0
10
-35.542478524534324
20
-26.950729829998231
30
0
10
-35.500042530091626
20
-26.961324689208517
30
0
10
-35.457589446146727
20
-26.972249333671513
30
0
10
-35.415121313917155
20
-26.983501036620581
30
0
10
-35.372640096426082
20
-26.995077350921207
30
0
10
-35.330147677916237
20
-27.006976145814427
30
0
10
-35.287645892774087
20
-27.019195500293556
30
0
10
-35.245136547496635
20
-27.031733631990903
30
0
10
-35.202621442556435
20
-27.044588816352423
30
0
10
-35.16010240161733
20
-27.057759290633989
30
0
10
-35.117581270223873
20
-27.071243226926907
30
0
10
-35.075059880257498
20
-27.085038787675522
30
0
10
-35.032540021286309
20
-27.099144158812436
30
0
10
-34.990023413623149
20
-27.11355758655413
30
0
10
-34.947511669574929
20
-27.128277418099252
30
0
10
-34.905006297693156
20
-27.143302111686932
30
0
10
-34.86250877566323
20
-27.158630195655633
30
0
10
-34.820020610425459
20
-27.174260236070381
30
0
10
-34.777543396378121
20
-27.19019080200491
30
0
10
-34.73507889115772
20
-27.206420421818986
30
0
10
-34.692629030546371
20
-27.222947565935904
30
0
10
-34.650195778469801
20
-27.239770705865915
30
0
10
-34.607781005669281
20
-27.256888357262852
30
0
10
-34.565386361199501
20
-27.274299126883026
30
0
10
-34.523013136283588
20
-27.292001756539928
30
0
10
-34.480662161372535
20
-27.309995164139679
30
0
10
-34.438333919285981
20
-27.32827846737419
30
0
10
-34.404489689983421
20
-27.343136499940393
30
0
10
-34.37911687467723
20
-27.354409995955443
30
0
10
-34.36220626588144
20
-27.361983405930332
30
0
10
-34.353752111837238
20
-27.365784547409056
30
0
0
ARC
5
106
100
AcDbEntity
8
0
100
AcDbCircle
10
-47.014231576768857
20
-30.317438273381121
30
0
40
8.5492000000000008
210
0
220
-0
230
1
100
AcDbArc
50
22.664850417066756
51
30.971513219296757
0
LWPOLYLINE
5
107
100
AcDbEntity
8
0
100
AcDbPolyline
90
2
70
1
43
0.0
10
-44.356297963795974
20
-29.066720415897279
42
-0.84207535832068225
10
-49.098588753390686
20
-32.387308175153969
0
ARC
5
108
100
AcDbEntity
8
0
100
AcDbCircle
10
-47.014231576768857
20
-30.317438273381121
30
0
40
13.000000000000009
210
0
220
-0
230
1
100
AcDbArc
50
40.512891893732451
51
45.850744469903816
0
SPLINE
5
109
100
AcDbEntity
8
0
100
AcDbSpline
70
0
71
5
72
81
73
75
74
0
42
0.000000001
43
0.0000000001
44
0.0000000001
40
0
40
0
40
0
40
0
40
0
40
0
40
0.014285714285714284
40
0.028571428571428567
40
0.042857142857142858
40
0.057142857142857134
40
0.071428571428571438
40
0.085714285714285715
40
0.10000000000000001
40
0.1142857142857143
40
0.12857142857142859
40
0.14285714285714288
40
0.15714285714285714
40
0.17142857142857146
40
0.18571428571428572
40
0.20000000000000004
40
0.21428571428571436
40
0.22857142857142865
40
0.24285714285714291
40
0.25714285714285717
40
0.27142857142857146
40
0.2857142857142857
40
0.30000000000000004
40
0.31428571428571433
40
0.32857142857142863
40
0.34285714285714292
40
0.35714285714285721
40
0.3714285714285715
40
0.38571428571428573
40
0.40000000000000008
40
0.41428571428571442
40
0.42857142857142871
40
0.44285714285714295
40
0.4571428571428573
40
0.47142857142857147
40
0.48571428571428582
40
0.50000000000000011
40
0.51428571428571435
40
0.52857142857142858
40
0.54285714285714282
40
0.55714285714285705
40
0.57142857142857129
40
0.58571428571428552
40
0.59999999999999976
40
0.61428571428571399
40
0.62857142857142823
40
0.64285714285714246
40
0.6571428571428567
40
0.67142857142857093
40
0.68571428571428517
40
0.6999999999999994
40
0.71428571428571364
40
0.72857142857142776
40
0.74285714285714211
40
0.75714285714285634
40
0.77142857142857058
40
0.78571428571428481
40
0.79999999999999905
40
0.81428571428571328
40
0.82857142857142752
40
0.84285714285714175
40
0.85714285714285599
40
0.87142857142857022
40
0.88571428571428445
40
0.89999999999999869
40
0.91428571428571281
40
0.92857142857142716
40
0.94285714285714117
40
0.95714285714285563
40
0.97142857142856975
40
0.98571428571428399
40
1
40
1
40
1
40
1
40
1
40
1
10
-40.681353408054534
20
-22.147961979950818
30
0
10
-40.676471443964189
20
-22.141675409649721
30
0
10
-40.666521941324696
20
-22.129283782732855
30
0
10
-40.651040971984784
20
-22.111240874677698
30
0
10
-40.629339099923349
20
-22.088216381692888
30
0
10
-40.600750786858143
20
-22.060831209252871
30
0
10
-40.571091226213071
20
-22.034429604043563
30
0
10
-40.540745455039115
20
-22.008608273158728
30
0
10
-40.509997876764103
20
-21.983076176792011
30
0
10
-40.478959398897871
20
-21.957732960884293
30
0
10
-40.447627092440932
20
-21.932602557454771
30
0
10
-40.415929428124457
20
-21.907782503481865
30
0
10
-40.383774419424498
20
-21.883390192143132
30
0
10
-40.351102521071915
20
-21.859503659198833
30
0
10
-40.317918148460485
20
-21.836126545481484
30
0
10
-40.284262762714974
20
-21.813219001505292
30
0
10
-40.250198497444913
20
-21.790716714488227
30
0
10
-40.21578899229587
20
-21.7685530446205
30
0
10
-40.181078183211341
20
-21.746683566170468
30
0
10
-40.146081331589194
20
-21.725096469621512
30
0
10
-40.110796822379967
20
-21.70379901370832
30
0
10
-40.07521332123234
20
-21.682809328454734
30
0
10
-40.039318134513131
20
-21.662146828964744
30
0
10
-40.003106650170423
20
-21.641821389380684
30
0
10
-39.966585216790932
20
-21.621830058611103
30
0
10
-39.929766245316102
20
-21.602162716458647
30
0
10
-39.892665259925252
20
-21.582805489404812
30
0
10
-39.855297449748548
20
-21.563744738884814
30
0
10
-39.817673728240749
20
-21.54497161867107
30
0
10
-39.77979992209773
20
-21.526483022170389
30
0
10
-39.741678852252782
20
-21.508279194181767
30
0
10
-39.703311647237655
20
-21.490362228069984
30
0
10
-39.664699245088691
20
-21.472734344809279
30
0
10
-39.625844126353158
20
-21.455395906880419
30
0
10
-39.586750603411495
20
-21.438345091048092
30
0
10
-39.547423964791221
20
-21.421578877107521
30
0
10
-39.507869935115053
20
-21.405093673635317
30
0
10
-39.468094060156965
20
-21.38888602977201
30
0
10
-39.428100995148313
20
-21.372953457795553
30
0
10
-39.387894410892343
20
-21.357294546358343
30
0
10
-39.347477366964469
20
-21.341908537186583
30
0
10
-39.306852557495887
20
-21.326795048136567
30
0
10
-39.266022587066864
20
-21.311953760840613
30
0
10
-39.224990292933995
20
-21.297384056509063
30
0
10
-39.183758798774861
20
-21.283084953563886
30
0
10
-39.142331355186442
20
-21.269055285579348
30
0
10
-39.10071123962534
20
-21.25529381132127
30
0
10
-39.058901643474321
20
-21.241799340453142
30
0
10
-39.016905541154379
20
-21.228570875604838
30
0
10
-38.974725669766627
20
-21.215607642966358
30
0
10
-38.932364611069794
20
-21.202909018228262
30
0
10
-38.889824848406569
20
-21.190474478633455
30
0
10
-38.847108828795164
20
-21.178303546803704
30
0
10
-38.804219039410697
20
-21.166395725771373
30
0
10
-38.761158021066052
20
-21.154750475578574
30
0
10
-38.717928308295555
20
-21.143367240764952
30
0
10
-38.67453238733858
20
-21.132245462753495
30
0
10
-38.630972653581338
20
-21.121384596238954
30
0
10
-38.587251356954603
20
-21.11078412247528
30
0
10
-38.543370600071484
20
-21.10044356003521
30
0
10
-38.499332421680379
20
-21.090362469775322
30
0
10
-38.455138864743901
20
-21.080540460106192
30
0
10
-38.410792044172382
20
-21.070977189252815
30
0
10
-38.366294234212496
20
-21.0616723694427
30
0
10
-38.321647890299445
20
-21.052625760476886
30
0
10
-38.276855490956578
20
-21.043837138286356
30
0
10
-38.231919412449756
20
-21.035306265558727
30
0
10
-38.186841795296445
20
-21.027032861769129
30
0
10
-38.141624405969658
20
-21.019016566551624
30
0
10
-38.096268528113349
20
-21.011256918566623
30
0
10
-38.050775044913017
20
-21.003753436601347
30
0
10
-38.014270608573916
20
-20.997955237192286
30
0
10
-37.986830725958534
20
-20.993721525934031
30
0
10
-37.968510122007018
20
-20.990950118467964
30
0
10
-37.959342982813915
20
-20.989577181412365
30
0
0
LINE
5
110
100
AcDbEntity
8
0
100
AcDbLine
10
-40.681353408054534
20
-22.147961979950818
30
0
11
-41.479768906356973
21
-23.176092270682989
31
0
0
ARC
5
111
100
AcDbEntity
8
0
100
AcDbCircle
10
-41.874675978652164
20
-22.869419147877522
30
0
40
0.50000000000000522
210
0
220
0
230
1
100
AcDbArc
50
235.39212314434053
51
322.16814640991328
0
LINE
5
112
100
AcDbEntity
8
0
100
AcDbLine
10
-37.982091241713611
20
-30.094860762604931
30
0
11
-36.680781618096603
21
-30.061507110146483
31
0
0
ARC
5
113
100
AcDbEntity
8
0
100
AcDbCircle
10
-37.969280031537764
20
-30.594696608552212
30
0
40
0.50000000000000555
210
0
220
0
230
1
100
AcDbArc
50
91.468217226451245
51
178.24424049202304
0
LINE
5
114
100
AcDbEntity
8
0
100
AcDbLine
10
-37.269923102884185
20
-26.86864991013271
30
0
11
-38.497442162330586
21
-27.301912141750442
31
0
0
LINE
5
115
100
AcDbEntity
8
0
100
AcDbLine
10
-39.536246098249897
20
-25.247050421993933
30
0
11
-38.459547126005134
21
-24.515450445355313
31
0
0
LINE
5
116
100
AcDbEntity
8
0
100
AcDbLine
10
-43.464608507295416
20
-22.009052398549773
30
0
11
-42.954364502519226
21
-20.811483921075322
31
0
0
ARC
5
117
100
AcDbEntity
8
0
100
AcDbCircle
10
-47.014231576768857
20
-30.317438273381121
30
0
40
8.5492000000000097
210
-0
220
0
230
1
100
AcDbArc
50
349.93757768979407
51
358.24424049202406
0
ARC
5
118
100
AcDbEntity
8
0
100
AcDbCircle
10
-47.014231576768857
20
-30.317438273381121
30
0
40
12.999999999999998
210
0
220
-0
230
1
100
AcDbArc
50
73.240164621005192
51
78.578017197176607
0
SPLINE
5
119
100
AcDbEntity
8
0
100
AcDbSpline
70
0
71
5
72
81
73
75
74
0
42
0.000000001
43
0.0000000001
44
0.0000000001
40
0
40
0
40
0
40
0
40
0
40
0
40
0.014285714285714284
40
0.028571428571428567
40
0.042857142857142858
40
0.057142857142857134
40
0.071428571428571438
40
0.085714285714285715
40
0.10000000000000001
40
0.1142857142857143
40
0.12857142857142859
40
0.14285714285714288
40
0.15714285714285714
40
0.17142857142857146
40
0.18571428571428572
40
0.20000000000000004
40
0.21428571428571436
40
0.22857142857142865
40
0.24285714285714291
40
0.25714285714285717
40
0.27142857142857146
40
0.2857142857142857
40
0.30000000000000004
40
0.31428571428571433
40
0.32857142857142863
40
0.34285714285714292
40
0.35714285714285721
40
0.3714285714285715
40
0.38571428571428573
40
0.40000000000000008
40
0.41428571428571442
40
0.42857142857142871
40
0.44285714285714295
40
0.4571428571428573
40
0.47142857142857147
40
0.48571428571428582
40
0.50000000000000011
40
0.51428571428571435
40
0.52857142857142858
40
0.54285714285714282
40
0.55714285714285705
40
0.57142857142857129
40
0.58571428571428552
40
0.59999999999999976
40
0.61428571428571399
40
0.62857142857142823
40
0.64285714285714246
40
0.6571428571428567
40
0.67142857142857093
40
0.68571428571428517
40
0.6999999999999994
40
0.71428571428571364
40
0.72857142857142776
40
0.74285714285714211
40
0.75714285714285634
40
0.77142857142857058
40
0.78571428571428481
40
0.79999999999999905
40
0.81428571428571328
40
0.82857142857142752
40
0.84285714285714175
40
0.85714285714285599
40
0.87142857142857022
40
0.88571428571428445
40
0.89999999999999869
40
0.91428571428571281
40
0.92857142857142716
40
0.94285714285714117
40
0.95714285714285563
40
0.97142857142856975
40
0.98571428571428399
40
1
40
1
40
1
40
1
40
1
40
1
10
-38.459547126005134
20
-24.515450445355313
30
0
10
-38.45296357930571
20
-24.510977029167815
30
0
10
-38.439965864286833
20
-24.50183348364606
30
0
10
-38.420977418687357
20
-24.487528034456826
30
0
10
-38.396622863665989
20
-24.46733015887823
30
0
10
-38.367479643566988
20
-24.440536278312962
30
0
10
-38.339250067739236
20
-24.412610925246774
30
0
10
-38.311556075794542
20
-24.383963939943371
30
0
10
-38.284125251864005
20
-24.35489761211975
30
0
10
-38.256864478122708
20
-24.325528990840848
30
0
10
-38.229797452638294
20
-24.295853635141754
30
0
10
-38.20301697934913
20
-24.265793973587666
30
0
10
-38.176634380936356
20
-24.235250759317868
30
0
10
-38.150723759454706
20
-24.204159617613278
30
0
10
-38.125289028448066
20
-24.172524724062203
30
0
10
-38.10029304828759
20
-24.14038998372536
30
0
10
-38.075675576430761
20
-24.107821484085868
30
0
10
-38.051374143511076
20
-24.074886963220091
30
0
10
-38.02734719982994
20
-24.041633086268352
30
0
10
-38.003583927584863
20
-24.008075832908112
30
0
10
-37.980091468463534
20
-23.974213130964188
30
0
10
-37.956887197119244
20
-23.940032519027774
30
0
10
-37.933989684487067
20
-23.905520097640096
30
0
10
-37.911408492315168
20
-23.870670637777973
30
0
10
-37.889141078105773
20
-23.835490662416131
30
0
10
-37.867178129187351
20
-23.799993199371379
30
0
10
-37.84550678457758
20
-23.764194621480776
30
0
10
-37.824114396524678
20
-23.728110952305073
30
0
10
-37.802992828785463
20
-23.691753644389134
30
0
10
-37.782139350573225
20
-23.655128709730143
30
0
10
-37.761554385108724
20
-23.618238948055815
30
0
10
-37.741240093118023
20
-23.58108535285643
30
0
10
-37.721198750597814
20
-23.543668719416818
30
0
10
-37.701430876625039
20
-23.505991500300219
30
0
10
-37.681934925143253
20
-23.468058114841511
30
0
10
-37.662708217447481
20
-23.429874032473961
30
0
10
-37.643747532423014
20
-23.391445194076915
30
0
10
-37.625049777892819
20
-23.352777353125948
30
0
10
-37.606612766396466
20
-23.313875313260979
30
0
10
-37.58843532224455
20
-23.274742827407987
30
0
10
-37.570516882740222
20
-23.235382997075131
30
0
10
-37.552857237381502
20
-23.195798535206528
30
0
10
-37.535456233634378
20
-23.155992061330679
30
0
10
-37.518313433904972
20
-23.115966446237941
30
0
10
-37.50142805670729
20
-23.075724869572447
30
0
10
-37.484799144129681
20
-23.035270649365984
30
0
10
-37.468425665306071
20
-22.994607135200479
30
0
10
-37.45230663470646
20
-22.95373758752924
30
0
10
-37.436441245618248
20
-22.912665038041908
30
0
10
-37.420828899387018
20
-22.871392267406982
30
0
10
-37.405469136705541
20
-22.829921891781435
30
0
10
-37.390361593372511
20
-22.78825642266348
30
0
10
-37.375505948170272
20
-22.746398332421919
30
0
10
-37.360901862878194
20
-22.704350134743983
30
0
10
-37.346548959773777
20
-22.662114399573305
30
0
10
-37.332446845265103
20
-22.619693691570902
30
0
10
-37.318595119586803
20
-22.577090527397644
30
0
10
-37.304993390456268
20
-22.534307332202488
30
0
10
-37.291641282871296
20
-22.491346384287219
30
0
10
-37.278538449729858
20
-22.448209812565771
30
0
10
-37.265684582078073
20
-22.404899679534068
30
0
10
-37.253079418687619
20
-22.36141804887766
30
0
10
-37.240722752607518
20
-22.317767052925653
30
0
10
-37.228614440886254
20
-22.273948979597577
30
0
10
-37.216754399541806
20
-22.229966294619381
30
0
10
-37.205142562153981
20
-22.185821485735694
30
0
10
-37.193778842600224
20
-22.141516939479473
30
0
10
-37.182663096680493
20
-22.097054809850604
30
0
10
-37.171795076791
20
-22.052436882621453
30
0
10
-37.161174403934758
20
-22.007664468111532
30
0
10
-37.150800653882875
20
-21.962738478248603
30
0
10
-37.142698873687642
20
-21.926675281683544
30
0
10
-37.136733341349476
20
-21.899559162992137
30
0
10
-37.132805549110174
20
-21.881451217868072
30
0
10
-37.130853960321396
20
-21.872389612141482
30
0
0
SPLINE
5
120
100
AcDbEntity
8
0
100
AcDbSpline
70
0
71
5
72
81
73
75
74
0
42
0.000000001
43
0.0000000001
44
0.0000000001
40
0
40
0
40
0
40
0
40
0
40
0
40
0.014285714285714284
40
0.028571428571428567
40
0.042857142857142858
40
0.057142857142857134
40
0.071428571428571438
40
0.085714285714285715
40
0.10000000000000001
40
0.1142857142857143
40
0.12857142857142859
40
0.14285714285714288
40
0.15714285714285714
40
0.17142857142857146
40
0.18571428571428572
40
0.20000000000000004
40
0.21428571428571436
40
0.22857142857142865
40
0.24285714285714291
40
0.25714285714285717
40
0.27142857142857146
40
0.2857142857142857
40
0.30000000000000004
40
0.31428571428571433
40
0.32857142857142863
40
0.34285714285714292
40
0.35714285714285721
40
0.3714285714285715
40
0.38571428571428573
40
0.40000000000000008
40
0.41428571428571442
40
0.42857142857142871
40
0.44285714285714295
40
0.4571428571428573
40
0.47142857142857147
40
0.48571428571428582
40
0.50000000000000011
40
0.51428571428571435
40
0.52857142857142858
40
0.54285714285714282
40
0.55714285714285705
40
0.57142857142857129
40
0.58571428571428552
40
0.59999999999999976
40
0.61428571428571399
40
0.62857142857142823
40
0.64285714285714246
40
0.6571428571428567
40
0.67142857142857093
40
0.68571428571428517
40
0.6999999999999994
40
0.71428571428571364
40
0.72857142857142776
40
0.74285714285714211
40
0.75714285714285634
40
0.77142857142857058
40
0.78571428571428481
40
0.79999999999999905
40
0.81428571428571328
40
0.82857142857142752
40
0.84285714285714175
40
0.85714285714285599
40
0.87142857142857022
40
0.88571428571428445
40
0.89999999999999869
40
0.91428571428571281
40
0.92857142857142716
40
0.94285714285714117
40
0.95714285714285563
40
0.97142857142856975
40
0.98571428571428399
40
1
40
1
40
1
40
1
40
1
40
1
10
-53.974622068570412
20
-22.675537134898867
30
0
10
-53.979986888215059
20
-22.669657232713398
30
0
10
-53.990887133338134
20
-22.658093077894428
30
0
10
-54.007749311245917
20
-22.641333784979871
30
0
10
-54.031207616133131
20
-22.620101581608658
30
0
10
-54.06187628628301
20
-22.595068164248602
30
0
10
-54.093534887038459
20
-22.571100116904404
30
0
10
-54.125831553321774
20
-22.547764900946742
30
0
10
-54.158505841109687
20
-22.524749852995264
30
0
10
-54.191455144776235
20
-22.501946145211484
30
0
10
-54.22468048749699
20
-22.479377866466088
30
0
10
-54.258245443763933
20
-22.457147915653366
30
0
10
-54.292232407378506
20
-22.435380606651041
30
0
10
-54.326694551995978
20
-22.41415844873945
30
0
10
-54.361627187574186
20
-22.393484721380126
30
0
10
-54.396992141462903
20
-22.373316414630438
30
0
10
-54.432732572261962
20
-22.353584493900655
30
0
10
-54.468790321688736
20
-22.334217485538936
30
0
10
-54.505125112725437
20
-22.315167621620844
30
0
10
-54.541722667878425
20
-22.296421920308262
30
0
10
-54.578584021863044
20
-22.277987745498113
30
0
10
-54.615719036577921
20
-22.259884068438112
30
0
10
-54.653138827085797
20
-22.242131249137252
30
0
10
-54.690847208407256
20
-22.224739496186452
30
0
10
-54.728838085797229
20
-22.207705364650838
30
0
10
-54.767099889374634
20
-22.191017782596781
30
0
10
-54.805618243262913
20
-22.174661689850538
30
0
10
-54.844379086960771
20
-22.158622287005805
30
0
10
-54.883372242401911
20
-22.142889890767485
30
0
10
-54.922592147414079
20
-22.127460942547966
30
0
10
-54.962035970536164
20
-22.112335462817452
30
0
10
-55.001702420886751
20
-22.097515448920504
30
0
10
-55.04159038736784
20
-22.083003040506604
30
0
10
-55.081697368507335
20
-22.068798402333115
30
0
10
-55.122019209979605
20
-22.054899375143293
30
0
10
-55.162550879241799
20
-22.041302529115985
30
0
10
-55.203286954296587
20
-22.028003830447531
30
0
10
-55.244222180293136
20
-22.014999399629836
30
0
10
-55.285352113793735
20
-22.002286387838417
30
0
10
-55.32667320738981
20
-21.989863097253661
30
0
10
-55.368182471222241
20
-21.97772852951551
30
0
10
-55.40987724991831
20
-21.965882090172411
30
0
10
-55.451754972320366
20
-21.954323255445122
30
0
10
-55.493812859134678
20
-21.943051183637785
30
0
10
-55.53604787429834
20
-21.93206464870828
30
0
10
-55.578456869877414
20
-21.921362230289944
30
0
10
-55.621036677091411
20
-21.910942431314268
30
0
10
-55.663784208929286
20
-21.900803812271583
30
0
10
-55.706696579366792
20
-21.890945143206043
30
0
10
-55.749771121236044
20
-21.8813654358263
30
0
10
-55.793005310375001
20
-21.872063863182252
30
0
10
-55.836396712680106
20
-21.863039707356169
30
0
10
-55.879942926661805
20
-21.854292298545186
30
0
10
-55.923641512352361
20
-21.845820944236248
30
0
10
-55.967489979721961
20
-21.837624904810408
30
0
10
-56.011485846228098
20
-21.829703425692664
30
0
10
-56.055626677718493
20
-21.822055753028479
30
0
10
-56.099910129556292
20
-21.814681153393423
30
0
10
-56.144333999997897
20
-21.807578931366159
30
0
10
-56.18889623119648
20
-21.80074844040157
30
0
10
-56.233594825618027
20
-21.794189081166731
30
0
10
-56.278427777758992
20
-21.787900301399166
30
0
10
-56.323393006446551
20
-21.78188159279231
30
0
10
-56.368488267392955
20
-21.776132488244762
30
0
10
-56.413711131921723
20
-21.770652553719934
30
0
10
-56.459059147062433
20
-21.7654413694307
30
0
10
-56.504529962830119
20
-21.760498510492098
30
0
10
-56.550121467671303
20
-21.755823527625672
30
0
10
-56.595831929227927
20
-21.751415921605979
30
0
10
-56.64166010445453
20
-21.747275130815744
30
0
10
-56.687605151079509
20
-21.743400605563309
30
0
10
-56.724454279840572
20
-21.740513617795418
30
0
10
-56.75214337931186
20
-21.738467832021016
30
0
10
-56.770625994781355
20
-21.737157048325123
30
0
10
-56.779873106470248
20
-21.736514924849715
30
0
0
LINE
5
121
100
AcDbEntity
8
0
100
AcDbLine
10
-53.097238484709891
20
-23.637159331721818
30
0
11
-53.974622068570412
21
-22.675537134898867
31
0
0
SPLINE
5
122
100
AcDbEntity
8
0
100
AcDbSpline
70
0
71
5
72
81
73
75
74
0
42
0.000000001
43
0.0000000001
44
0.0000000001
40
0
40
0
40
0
40
0
40
0
40
0
40
0.014285714285714284
40
0.028571428571428567
40
0.042857142857142858
40
0.057142857142857134
40
0.071428571428571438
40
0.085714285714285715
40
0.10000000000000001
40
0.1142857142857143
40
0.12857142857142859
40
0.14285714285714288
40
0.15714285714285714
40
0.17142857142857146
40
0.18571428571428572
40
0.20000000000000004
40
0.21428571428571436
40
0.22857142857142865
40
0.24285714285714291
40
0.25714285714285717
40
0.27142857142857146
40
0.2857142857142857
40
0.30000000000000004
40
0.31428571428571433
40
0.32857142857142863
40
0.34285714285714292
40
0.35714285714285721
40
0.3714285714285715
40
0.38571428571428573
40
0.40000000000000008
40
0.41428571428571442
40
0.42857142857142871
40
0.44285714285714295
40
0.4571428571428573
40
0.47142857142857147
40
0.48571428571428582
40
0.50000000000000011
40
0.51428571428571435
40
0.52857142857142858
40
0.54285714285714282
40
0.55714285714285705
40
0.57142857142857129
40
0.58571428571428552
40
0.59999999999999976
40
0.61428571428571399
40
0.62857142857142823
40
0.64285714285714246
40
0.6571428571428567
40
0.67142857142857093
40
0.68571428571428517
40
0.6999999999999994
40
0.71428571428571364
40
0.72857142857142776
40
0.74285714285714211
40
0.75714285714285634
40
0.77142857142857058
40
0.78571428571428481
40
0.79999999999999905
40
0.81428571428571328
40
0.82857142857142752
40
0.84285714285714175
40
0.85714285714285599
40
0.87142857142857022
40
0.88571428571428445
40
0.89999999999999869
40
0.91428571428571281
40
0.92857142857142716
40
0.94285714285714117
40
0.95714285714285563
40
0.97142857142856975
40
0.98571428571428399
40
1
40
1
40
1
40
1
40
1
40
1
10
-48.738160989457569
20
-20.125590737788528
30
0
10
-48.739495247812499
20
-20.117743808824127
30
0
10
-48.742413063416521
20
-20.102122305294664
30
0
10
-48.747537672331362
20
-20.078907109274375
30
0
10
-48.755793058404976
20
-20.048362926048213
30
0
10
-48.768059098290529
20
-20.010722740355131
30
0
10
-48.781733903311554
20
-19.973443604059831
30
0
10
-48.796287617690226
20
-19.936351875135575
30
0
10
-48.811332103386306
20
-19.899325331078675
30
0
10
-48.826722206282859
20
-19.862327892875026
30
0
10
-48.842471810556738
20
-19.825379272201769
30
0
10
-48.858690029816252
20
-19.788531662151872
30
0
10
-48.875513387294376
20
-19.751845096762029
30
0
10
-48.89303122340128
20
-19.715360239407332
30
0
10
-48.91124136563316
20
-19.679082384574635
30
0
10
-48.930088448182616
20
-19.642995987690565
30
0
10
-48.949487330103878
20
-19.607073703943662
30
0
10
-48.969350443962767
20
-19.571286848613276
30
0
10
-48.989618081285968
20
-19.535617012164078
30
0
10
-49.01027121256999
20
-19.500060992574685
30
0
10
-49.031314689496028
20
-19.464624425340055
30
0
10
-49.052767065051981
20
-19.429317938344425
30
0
10
-49.074648697275556
20
-19.394152650260679
30
0
10
-49.096968314747286
20
-19.359135086546118
30
0
10
-49.119718927768893
20
-19.324265644205102
30
0
10
-49.142884817197825
20
-19.289541264084313
30
0
10
-49.166445747132457
20
-19.254957048945013
30
0
10
-49.190381887963312
20
-19.220508150415288
30
0
10
-49.214679442171601
20
-19.186191925067039
30
0
10
-49.239331806642539
20
-19.152008386363192
30
0
10
-49.264336610466408
20
-19.117959082327836
30
0
10
-49.289693847530799
20
-19.084046391137313
30
0
10
-49.315403739902294
20
-19.050272713484247
30
0
10
-49.341464272283332
20
-19.01663954036929
30
0
10
-49.367870782450389
20
-18.983147301308051
30
0
10
-49.394617182457743
20
-18.949795831749451
30
0
10
-49.421696730192046
20
-18.916584669595004
30
0
10
-49.449102907571067
20
-18.883513392181658
30
0
10
-49.476830436346305
20
-18.850582005229551
30
0
10
-49.504875414337235
20
-18.817790998315786
30
0
10
-49.533234786560072
20
-18.785141148006343
30
0
10
-49.561905997788351
20
-18.752633389819618
30
0
10
-49.590886601850208
20
-18.72026867319725
30
0
10
-49.620173805599812
20
-18.688047792659269
30
0
10
-49.649764392090148
20
-18.655971358212927
30
0
10
-49.679654945202429
20
-18.624039876871322
30
0
10
-49.709841989812517
20
-18.592253802392346
30
0
10
-49.740322150703832
20
-18.560613592747622
30
0
10
-49.771092335033941
20
-18.529119773534937
30
0
10
-49.802149764727758
20
-18.497772955330522
30
0
10
-49.833491869242096
20
-18.466573807124707
30
0
10
-49.865116212743118
20
-18.435523040942417
30
0
10
-49.897020412846445
20
-18.404621391652903
30
0
10
-49.929202042519819
20
-18.373869595823248
30
0
10
-49.961658607148635
20
-18.34326837745818
30
0
10
-49.994387610331245
20
-18.312818443932578
30
0
10
-50.027386596763819
20
-18.282520477065763
30
0
10
-50.060653197493217
20
-18.252375127468216
30
0
10
-50.094185184321674
20
-18.222383000466717
30
0
10
-50.127980476529608
20
-18.192544664708944
30
0
10
-50.162037069660634
20
-18.16286069595235
30
0
10
-50.196352978002139
20
-18.133331713861264
30
0
10
-50.230926175948852
20
-18.103958415987933
30
0
10
-50.265754522951759
20
-18.074741622735246
30
0
10
-50.300835741220205
20
-18.045682282010031
30
0
10
-50.336167540230164
20
-18.016781366840821
30
0
10
-50.371747713338337
20
-17.988039790289427
30
0
10
-50.40757424129459
20
-17.959458315990734
30
0
10
-50.443645396844907
20
-17.931037460553107
30
0
10
-50.479959830639729
20
-17.902777423555094
30
0
10
-50.516516536929352
20
-17.874678197933079
30
0
10
-50.545955173254541
20
-17.852327366178184
30
0
10
-50.568142690712264
20
-17.835636484295307
30
0
10
-50.58298259310309
20
-17.824541326544196
30
0
10
-50.590414600319214
20
-17.819001771879421
30
0
0
ARC
5
123
100
AcDbEntity
8
0
100
AcDbCircle
10
-43.004619860354907
20
-22.205038226317608
30
0
40
0.50000000000000067
210
0
220
0
230
1
100
AcDbArc
50
156.9227626809969
51
243.69878594656902
0
ARC
5
124
100
AcDbEntity
8
0
100
AcDbCircle
10
-47.014231576768857
20
-30.317438273381121
30
0
40
8.549199999999999
210
0
220
0
230
1
100
AcDbArc
50
153.57394132615778
51
161.88060412838783
0
LINE
5
125
100
AcDbEntity
8
0
100
AcDbLine
10
-55.743214096160834
20
-27.986351840709787
30
0
11
-57.001208346305397
21
-27.651733148384086
31
0
0
SPLINE
5
126
100
AcDbEntity
8
0
100
AcDbSpline
70
0
71
5
72
81
73
75
74
0
42
0.000000001
43
0.0000000001
44
0.0000000001
40
0
40
0
40
0
40
0
40
0
40
0
40
0.014285714285714284
40
0.028571428571428567
40
0.042857142857142858
40
0.057142857142857134
40
0.071428571428571438
40
0.085714285714285715
40
0.10000000000000001
40
0.1142857142857143
40
0.12857142857142859
40
0.14285714285714288
40
0.15714285714285714
40
0.17142857142857146
40
0.18571428571428572
40
0.20000000000000004
40
0.21428571428571436
40
0.22857142857142865
40
0.24285714285714291
40
0.25714285714285717
40
0.27142857142857146
40
0.2857142857142857
40
0.30000000000000004
40
0.31428571428571433
40
0.32857142857142863
40
0.34285714285714292
40
0.35714285714285721
40
0.3714285714285715
40
0.38571428571428573
40
0.40000000000000008
40
0.41428571428571442
40
0.42857142857142871
40
0.44285714285714295
40
0.4571428571428573
40
0.47142857142857147
40
0.48571428571428582
40
0.50000000000000011
40
0.51428571428571435
40
0.52857142857142858
40
0.54285714285714282
40
0.55714285714285705
40
0.57142857142857129
40
0.58571428571428552
40
0.59999999999999976
40
0.61428571428571399
40
0.62857142857142823
40
0.64285714285714246
40
0.6571428571428567
40
0.67142857142857093
40
0.68571428571428517
40
0.6999999999999994
40
0.71428571428571364
40
0.72857142857142776
40
0.74285714285714211
40
0.75714285714285634
40
0.77142857142857058
40
0.78571428571428481
40
0.79999999999999905
40
0.81428571428571328
40
0.82857142857142752
40
0.84285714285714175
40
0.85714285714285599
40
0.87142857142857022
40
0.88571428571428445
40
0.89999999999999869
40
0.91428571428571281
40
0.92857142857142716
40
0.94285714285714117
40
0.95714285714285563
40
0.97142857142856975
40
0.98571428571428399
40
1
40
1
40
1
40
1
40
1
40
1
10
-57.335463053776351
20
-30.881237534402281
30
0
10
-57.343411133192845
20
-30.881664820160367
30
0
10
-57.359291638561714
20
-30.882260277673097
30
0
10
-57.383065437588641
20
-30.882376133695391
30
0
10
-57.414677892227751
20
-30.881052789497005
30
0
10
-57.454095588319056
20
-30.877380658189779
30
0
10
-57.493471471870791
20
-30.872254832421429
30
0
10
-57.53285818567938
20
-30.866230404467938
30
0
10
-57.572289438317114
20
-30.859712902640041
30
0
10
-57.611768443348154
20
-30.852851863173871
30
0
10
-57.651279032245945
20
-30.845629400339718
30
0
10
-57.690794333190077
20
-30.83792758278577
30
0
10
-57.730285864699113
20
-30.829600015553346
30
0
10
-57.769733645139112
20
-30.820550594775327
30
0
10
-57.809132031484467
20
-30.810780273145486
30
0
10
-57.848483988704508
20
-30.800346480754737
30
0
10
-57.88779743229572
20
-30.789338290967635
30
0
10
-57.927081050160972
20
-30.777847439213968
30
0
10
-57.966339645103872
20
-30.765936222731661
30
0
10
-58.005572148071337
20
-30.753623908904281
30
0
10
-58.044774130910199
20
-30.740904523698592
30
0
10
-58.083939314284308
20
-30.727757628542673
30
0
10
-58.123061337799022
20
-30.714160916039472
30
0
10
-58.162135759327128
20
-30.700104434444491
30
0
10
-58.201160651714659
20
-30.685594914253421
30
0
10
-58.240135535858172
20
-30.670648362349855
30
0
10
-58.279060730487942
20
-30.655285596348243
30
0
10
-58.317936596178512
20
-30.639527026787711
30
0
10
-58.356762671669735
20
-30.62338669455421
30
0
10
-58.395537489093655
20
-30.606871037556477
30
0
10
-58.434259016125097
20
-30.589982027404474
30
0
10
-58.47292493167344
20
-30.572719146123177
30
0
10
-58.511532942955149
20
-30.55508164820429
30
0
10
-58.550081151612517
20
-30.537071170946007
30
0
10
-58.588568111546273
20
-30.518692167393155
30
0
10
-58.626992642025868
20
-30.499950612161694
30
0
10
-58.665353708437365
20
-30.480853183514995
30
0
10
-58.703650287056711
20
-30.461406332501689
30
0
10
-58.741881209450582
20
-30.441615206422391
30
0
10
-58.7800451383794
20
-30.421483503721273
30
0
10
-58.818140643312503
20
-30.401014033234858
30
0
10
-58.856166248774031
20
-30.380209081302503
30
0
10
-58.89412048973292
20
-30.359070824821202
30
0
10
-58.932001975831263
20
-30.33760181326743
30
0
10
-58.969809403322429
20
-30.315805050156118
30
0
10
-59.007541525043877
20
-30.293683755970953
30
0
10
-59.045197132780132
20
-30.271241220483866
30
0
10
-59.082775036216276
20
-30.24848063508573
30
0
10
-59.120274041282826
20
-30.225404900832416
30
0
10
-59.157692940366303
20
-30.202016593024744
30
0
10
-59.195030514595913
20
-30.178318071661508
30
0
10
-59.232285532801484
20
-30.154311555860971
30
0
10
-59.269456753305235
20
-30.129999207572396
30
0
10
-59.30654292293697
20
-30.105383231921849
30
0
10
-59.343542785891046
20
-30.080465902724839
30
0
10
-59.380455102189359
20
-30.055249499203811
30
0
10
-59.417278665835681
20
-30.029736266123216
30
0
10
-59.454012320299896
20
-30.003928370894194
30
0
10
-59.490654984232776
20
-29.977827853607373
30
0
10
-59.527205644553987
20
-29.951436618579521
30
0
10
-59.563663298049754
20
-29.92475649417166
30
0
10
-59.600026902807571
20
-29.897789280788487
30
0
10
-59.636295332152052
20
-29.87053680058753
30
0
10
-59.672467314252266
20
-29.843000960780742
30
0
10
-59.708541422670429
20
-29.815183774359049
30
0
10
-59.744516203658911
20
-29.787087261199432
30
0
10
-59.780390280443285
20
-29.758713372570362
30
0
10
-59.816162463289267
20
-29.730063909871724
30
0
10
-59.851831867749411
20
-29.701140444104254
30
0
10
-59.887398001872924
20
-29.67194424749448
30
0
10
-59.922860650972652
20
-29.642476302636869
30
0
10
-59.951147959681343
20
-29.618685103532123
30
0
10
-59.972316886831585
20
-29.600719915187113
30
0
10
-59.986408820994455
20
-29.588689012476141
30
0
10
-59.993449617090022
20
-29.58266003350078
30
0
0
ARC
5
127
100
AcDbEntity
8
0
100
AcDbCircle
10
-47.014231576768857
20
-30.317438273381121
30
0
40
12.999999999999996
210
0
220
0
230
1
100
AcDbArc
50
204.14925553009618
51
209.48710810626741
0
LINE
5
128
100
AcDbEntity
8
0
100
AcDbLine
10
-51.814675931767489
20
-21.163126567782502
30
0
11
-51.211129508532579
21
-22.316491608717463
31
0
0
ARC
5
129
100
AcDbEntity
8
0
100
AcDbCircle
10
-52.727877315386706
20
-23.300154396155275
30
0
40
0.50000000000000244
210
0
220
0
230
1
100
AcDbArc
50
222.37730813554018
51
309.15333140111477
0
SPLINE
5
130
100
AcDbEntity
8
0
100
AcDbSpline
70
0
71
5
72
81
73
75
74
0
42
0.000000001
43
0.0000000001
44
0.0000000001
40
0
40
0
40
0
40
0
40
0
40
0
40
0.014285714285714284
40
0.028571428571428567
40
0.042857142857142858
40
0.057142857142857134
40
0.071428571428571438
40
0.085714285714285715
40
0.10000000000000001
40
0.1142857142857143
40
0.12857142857142859
40
0.14285714285714288
40
0.15714285714285714
40
0.17142857142857146
40
0.18571428571428572
40
0.20000000000000004
40
0.21428571428571436
40
0.22857142857142865
40
0.24285714285714291
40
0.25714285714285717
40
0.27142857142857146
40
0.2857142857142857
40
0.30000000000000004
40
0.31428571428571433
40
0.32857142857142863
40
0.34285714285714292
40
0.35714285714285721
40
0.3714285714285715
40
0.38571428571428573
40
0.40000000000000008
40
0.41428571428571442
40
0.42857142857142871
40
0.44285714285714295
40
0.4571428571428573
40
0.47142857142857147
40
0.48571428571428582
40
0.50000000000000011
40
0.51428571428571435
40
0.52857142857142858
40
0.54285714285714282
40
0.55714285714285705
40
0.57142857142857129
40
0.58571428571428552
40
0.59999999999999976
40
0.61428571428571399
40
0.62857142857142823
40
0.64285714285714246
40
0.6571428571428567
40
0.67142857142857093
40
0.68571428571428517
40
0.6999999999999994
40
0.71428571428571364
40
0.72857142857142776
40
0.74285714285714211
40
0.75714285714285634
40
0.77142857142857058
40
0.78571428571428481
40
0.79999999999999905
40
0.81428571428571328
40
0.82857142857142752
40
0.84285714285714175
40
0.85714285714285599
40
0.87142857142857022
40
0.88571428571428445
40
0.89999999999999869
40
0.91428571428571281
40
0.92857142857142716
40
0.94285714285714117
40
0.95714285714285563
40
0.97142857142856975
40
0.98571428571428399
40
1
40
1
40
1
40
1
40
1
40
1
10
-50.788976238203325
20
-39.940171333674883
30
0
10
-50.791889316920766
20
-39.947578661932518
30
0
10
-50.797944670059607
20
-39.962271439708807
30
0
10
-50.807715276746748
20
-39.983944976285827
30
0
10
-50.822051321225388
20
-40.012150939429901
30
0
10
-50.84176631208787
20
-40.046481078502964
30
0
10
-50.862786260386969
20
-40.080169297048784
30
0
10
-50.884628105036072
20
-40.113494074304299
30
0
10
-50.90693696755568
20
-40.146654535213912
30
0
10
-50.929578159963775
20
-40.179715722535896
30
0
10
-50.952561235043667
20
-40.212655498860457
30
0
10
-50.975982303968614
20
-40.245400430265988
30
0
10
-50.999962700641973
20
-40.277863794422018
30
0
10
-51.024581543545466
20
-40.30998749240581
30
0
10
-51.04983562188076
20
-40.341766786903989
30
0
10
-51.075673927092495
20
-40.373228232269476
30
0
10
-51.102018723414375
20
-40.404416031104091
30
0
10
-51.128790174449641
20
-40.435376194476966
30
0
10
-51.155933607794175
20
-40.466138970379788
30
0
10
-51.183431053118724
20
-40.496711390328173
30
0
10
-51.211286105073775
20
-40.527086944629147
30
0
10
-51.239514746707741
20
-40.557251430908039
30
0
10
-51.268134627339322
20
-40.587189796718704
30
0
10
-51.297152954067371
20
-40.616893867256124
30
0
10
-51.326562804048962
20
-40.646364685468257
30
0
10
-51.356349417883898
20
-40.675608465047077
30
0
10
-51.386493991609356
20
-40.704634143869413
30
0
10
-51.416978108933911
20
-40.733450528769794
30
0
10
-51.447788806204187
20
-40.762063032966005
30
0
10
-51.478919617517917
20
-40.790472995642375
30
0
10
-51.510367905177276
20
-40.818679387167307
30
0
10
-51.542133176133007
20
-40.846679881027811
30
0
10
-51.574215156066572
20
-40.874472081939373
30
0
10
-51.606611567032921
20
-40.902054943253319
30
0
10
-51.639317757668607
20
-40.929428999413119
30
0
10
-51.672327802778625
20
-40.956595658333669
30
0
10
-51.705635197806757
20
-40.983556753147894
30
0
10
-51.739233649402422
20
-41.010314032506152
30
0
10
-51.773117990031565
20
-41.036868571829984
30
0
10
-51.807284299961644
20
-41.063220691112718
30
0
10
-51.841729429921173
20
-41.089370255930781
30
0
10
-51.876450687247832
20
-41.115316873923859
30
0
10
-51.911445483170688
20
-41.141060116768443
30
0
10
-51.946710921028682
20
-41.166599778841316
30
0
10
-51.982243727132712
20
-41.191935921918059
30
0
10
-52.01804045393768
20
-41.217068749376935
30
0
10
-52.054097607050963
20
-41.241998528807187
30
0
10
-52.090411789006623
20
-41.266725503211958
30
0
10
-52.126979864877008
20
-41.291249791569591
30
0
10
-52.163798990425349
20
-41.315571365214851
30
0
10
-52.200866512584
20
-41.339690095802766
30
0
10
-52.238179901325395
20
-41.363605785276647
30
0
10
-52.275736674259775
20
-41.387318202272851
30
0
10
-52.313534304948135
20
-41.410827122910121
30
0
10
-52.351570203374621
20
-41.434132349444525
30
0
10
-52.38984178118011
20
-41.457233700775539
30
0
10
-52.42834649546608
20
-41.480131012399326
30
0
10
-52.467081894246014
20
-41.502824132674156
30
0
10
-52.506045672579511
20
-41.525312925454472
30
0
10
-52.545235677390338
20
-41.547597260291738
30
0
10
-52.584649828792706
20
-41.569676984159265
30
0
10
-52.624286056254903
20
-41.591551897215204
30
0
10
-52.664142234246121
20
-41.613221731551192
30
0
10
-52.704216099567809
20
-41.634686122553582
30
0
10
-52.744505228575278
20
-41.655944608915561
30
0
10
-52.785007180015249
20
-41.676996707349062
30
0
10
-52.825719607018684
20
-41.697841976082188
30
0
10
-52.866640376741159
20
-41.718480081223092
30
0
10
-52.907767692737345
20
-41.738910870867436
30
0
10
-52.949100193385604
20
-41.75913442602301
30
0
10
-52.990636895702288
20
-41.779150959587966
30
0
10
-53.024029104330815
20
-41.794998779366452
30
0
10
-53.049164704599356
20
-41.806791703859744
30
0
10
-53.065962399651767
20
-41.814612360444592
30
0
10
-53.074371404228636
20
-41.818512365466432
30
0
0
ARC
5
131
100
AcDbEntity
8
0
100
AcDbCircle
10
-55.614686331428331
20
-27.503153523563636
30
0
40
0.50000000000000766
210
0
220
0
230
1
100
AcDbArc
50
255.10458086281483
51
341.88060412838752
0
LINE
5
132
100
AcDbEntity
8
0
100
AcDbLine
10
-56.001816913329144
20
-25.211657370645018
30
0
11
-54.870525133999365
21
-25.855627954345415
31
0
0
LINE
5
133
100
AcDbEntity
8
0
100
AcDbLine
10
-55.39219112661047
20
-36.37181541640058
30
0
11
-54.336459290390245
21
-35.610271266241398
31
0
0
ARC
5
134
100
AcDbEntity
8
0
100
AcDbCircle
10
-47.014231576768857
20
-30.317438273381121
30
0
40
8.5492000000000097
210
0
220
0
230
1
100
AcDbArc
50
251.75575950797602
51
260.06242231020582
0
LINE
5
135
100
AcDbEntity
8
0
100
AcDbLine
10
-48.07932717516708
20
-39.289320525545833
30
0
11
-48.231508683427194
21
-40.582131413183404
31
0
0
ARC
5
136
100
AcDbEntity
8
0
100
AcDbCircle
10
-49.847249589030881
20
-38.911740431334337
30
0
40
0.50000000000000921
210
0
220
-0
230
1
100
AcDbArc
50
71.755759507973977
51
158.53178277354988
0
ARC
5
137
100
AcDbEntity
8
0
100
AcDbCircle
10
-47.014231576768857
20
-30.317438273381121
30
0
40
8.5492000000000026
210
0
220
0
230
1
100
AcDbArc
50
120.8466685988851
51
129.15333140111505
0
ARC
5
138
100
AcDbEntity
8
0
100
AcDbCircle
10
-47.014231576768857
20
-30.317438273381121
30
0
40
8.5492000000000097
210
0
220
0
230
1
100
AcDbArc
50
186.30121405343039
51
194.60787685566055
0
ARC
5
139
100
AcDbEntity
8
0
100
AcDbCircle
10
-56.008762011785869
20
-31.310636588700209
30
0
40
0.49999999999999051
210
0
220
-0
230
1
100
AcDbArc
50
6.3012140534320071
51
93.077237319004695
0
ARC
5
140
100
AcDbEntity
8
0
100
AcDbCircle
10
-48.027026148025584
20
-21.325093318007539
30
0
40
0.4999999999999894
210
0
220
0
230
1
100
AcDbArc
50
189.65003540826868
51
276.42605867384316
0
SPLINE
5
141
100
AcDbEntity
8
0
100
AcDbSpline
70
0
71
5
72
81
73
75
74
0
42
0.000000001
43
0.0000000001
44
0.0000000001
40
0
40
0
40
0
40
0
40
0
40
0
40
0.014285714285714284
40
0.028571428571428567
40
0.042857142857142858
40
0.057142857142857134
40
0.071428571428571438
40
0.085714285714285715
40
0.10000000000000001
40
0.1142857142857143
40
0.12857142857142859
40
0.14285714285714288
40
0.15714285714285714
40
0.17142857142857146
40
0.18571428571428572
40
0.20000000000000004
40
0.21428571428571436
40
0.22857142857142865
40
0.24285714285714291
40
0.25714285714285717
40
0.27142857142857146
40
0.2857142857142857
40
0.30000000000000004
40
0.31428571428571433
40
0.32857142857142863
40
0.34285714285714292
40
0.35714285714285721
40
0.3714285714285715
40
0.38571428571428573
40
0.40000000000000008
40
0.41428571428571442
40
0.42857142857142871
40
0.44285714285714295
40
0.4571428571428573
40
0.47142857142857147
40
0.48571428571428582
40
0.50000000000000011
40
0.51428571428571435
40
0.52857142857142858
40
0.54285714285714282
40
0.55714285714285705
40
0.57142857142857129
40
0.58571428571428552
40
0.59999999999999976
40
0.61428571428571399
40
0.62857142857142823
40
0.64285714285714246
40
0.6571428571428567
40
0.67142857142857093
40
0.68571428571428517
40
0.6999999999999994
40
0.71428571428571364
40
0.72857142857142776
40
0.74285714285714211
40
0.75714285714285634
40
0.77142857142857058
40
0.78571428571428481
40
0.79999999999999905
40
0.81428571428571328
40
0.82857142857142752
40
0.84285714285714175
40
0.85714285714285599
40
0.87142857142857022
40
0.88571428571428445
40
0.89999999999999869
40
0.91428571428571281
40
0.92857142857142716
40
0.94285714285714117
40
0.95714285714285563
40
0.97142857142856975
40
0.98571428571428399
40
1
40
1
40
1
40
1
40
1
40
1
10
-46.103427785812777
20
-20.021025050171872
30
0
10
-46.10271959278117
20
-20.013097061640099
30
0
10
-46.101048957841719
20
-19.997293454478463
30
0
10
-46.097780270253104
20
-19.973745150415589
30
0
10
-46.091971474421179
20
-19.942642796498859
30
0
10
-46.082726997071511
20
-19.904148914491252
30
0
10
-46.072049572319152
20
-19.865903301723982
30
0
10
-46.060481150549919
20
-19.827774853360893
30
0
10
-46.048418335151112
20
-19.789672491238424
30
0
10
-46.03600868295775
20
-19.751571753276586
30
0
10
-46.023236791312243
20
-19.713491188834389
30
0
10
-46.009989753492711
20
-19.67547417959711
30
0
10
-45.996126717967456
20
-19.637569751320655
30
0
10
-45.981555402751226
20
-19.599811359261004
30
0
10
-45.966277553926972
20
-19.562204453423494
30
0
10
-45.950349595070968
20
-19.5247379258638
30
0
10
-45.933858566416752
20
-19.487391265192279
30
0
10
-45.91689403324223
20
-19.450142816623522
30
0
10
-45.899516975179012
20
-19.412978960418258
30
0
10
-45.881746615638626
20
-19.375898012713503
30
0
10
-45.863577671586782
20
-19.338905206783828
30
0
10
-45.844990806129488
20
-19.302009666762842
30
0
10
-45.825964844105272
20
-19.265220862979167
30
0
10
-45.806490567244758
20
-19.228544608626436
30
0
10
-45.786574911799498
20
-19.191981853393571
30
0
10
-45.766233789909563
20
-19.155530793490403
30
0
10
-45.745487761936047
20
-19.119188150775411
30
0
10
-45.724356979353196
20
-19.082950663621606
30
0
10
-45.70285540577504
20
-19.046816790367828
30
0
10
-45.680989622481192
20
-19.010787067731219
30
0
10
-45.658761870243424
20
-18.974863226761485
30
0
10
-45.636171966684586
20
-18.939047638639465
30
0
10
-45.613219500181742
20
-18.903342678908317
30
0
10
-45.589906361532179
20
-18.867749993591396
30
0
10
-45.566237164256577
20
-18.832270380334389
30
0
10
-45.542217990193336
20
-18.796904157573231
30
0
10
-45.517855596871691
20
-18.761651398975015
30
0
10
-45.493156515369037
20
-18.726512199763782
30
0
10
-45.468126006879281
20
-18.691486983942674
30
0
10
-45.442767922510747
20
-18.656576548796576
30
0
10
-45.41708524609583
20
-18.621781910556368
30
0
10
-45.391080450684399
20
-18.587104204299557
30
0
10
-45.36475589951138
20
-18.552544570340622
30
0
10
-45.338114313971822
20
-18.518104022057351
30
0
10
-45.311158852551713
20
-18.483783422481277
30
0
10
-45.283892880444569
20
-18.449583547758106
30
0
10
-45.256319825884233
20
-18.415505125621973
30
0
10
-45.228443017177227
20
-18.381548880089905
30
0
10
-45.200265495784706
20
-18.347715580214128
30
0
10
-45.171789982655937
20
-18.31400605481285
30
0
10
-45.143018987231713
20
-18.280421174487699
30
0
10
-45.113954881256682
20
-18.246961842063833
30
0
10
-45.084599981383747
20
-18.213628978903039
30
0
10
-45.054956648638722
20
-18.180423511597947
30
0
10
-45.025027312412675
20
-18.147346359574229
30
0
10
-44.994814405196152
20
-18.114398425821619
30
0
10
-44.964320320536295
20
-18.081580584597702
30
0
10
-44.933547368374541
20
-18.048893672206074
30
0
10
-44.902497721928341
20
-18.016338468654201
30
0
10
-44.871173410307662
20
-17.983915705698159
30
0
10
-44.83957638603566
20
-17.951626116137618
30
0
10
-44.80770857947104
20
-17.919470475055547
30
0
10
-44.775571954567141
20
-17.887449638339383
30
0
10
-44.743168580123537
20
-17.85556459345008
30
0
10
-44.710500651645162
20
-17.823816465827882
30
0
10
-44.677570375339393
20
-17.792206406964855
30
0
10
-44.644379878549032
20
-17.760735501927421
30
0
10
-44.610931113655148
20
-17.729404671974176
30
0
10
-44.577225761537946
20
-17.698214568973388
30
0
10
-44.543265151486438
20
-17.667165498811837
30
0
10
-44.509050286646826
20
-17.636257534153689
30
0
10
-44.481475543880833
20
-17.611643990113638
30
0
10
-44.460680562805706
20
-17.593247244992565
30
0
10
-44.446766626005846
20
-17.581010922374183
30
0
10
-44.439797003585745
20
-17.574899804598711
30
0
0
SPLINE
5
142
100
AcDbEntity
8
0
100
AcDbSpline
70
0
71
5
72
81
73
75
74
0
42
0.000000001
43
0.0000000001
44
0.0000000001
40
0
40
0
40
0
40
0
40
0
40
0
40
0.014285714285714284
40
0.028571428571428567
40
0.042857142857142858
40
0.057142857142857134
40
0.071428571428571438
40
0.085714285714285715
40
0.10000000000000001
40
0.1142857142857143
40
0.12857142857142859
40
0.14285714285714288
40
0.15714285714285714
40
0.17142857142857146
40
0.18571428571428572
40
0.20000000000000004
40
0.21428571428571436
40
0.22857142857142865
40
0.24285714285714291
40
0.25714285714285717
40
0.27142857142857146
40
0.2857142857142857
40
0.30000000000000004
40
0.31428571428571433
40
0.32857142857142863
40
0.34285714285714292
40
0.35714285714285721
40
0.3714285714285715
40
0.38571428571428573
40
0.40000000000000008
40
0.41428571428571442
40
0.42857142857142871
40
0.44285714285714295
40
0.4571428571428573
40
0.47142857142857147
40
0.48571428571428582
40
0.50000000000000011
40
0.51428571428571435
40
0.52857142857142858
40
0.54285714285714282
40
0.55714285714285705
40
0.57142857142857129
40
0.58571428571428552
40
0.59999999999999976
40
0.61428571428571399
40
0.62857142857142823
40
0.64285714285714246
40
0.6571428571428567
40
0.67142857142857093
40
0.68571428571428517
40
0.6999999999999994
40
0.71428571428571364
40
0.72857142857142776
40
0.74285714285714211
40
0.75714285714285634
40
0.77142857142857058
40
0.78571428571428481
40
0.79999999999999905
40
0.81428571428571328
40
0.82857142857142752
40
0.84285714285714175
40
0.85714285714285599
40
0.87142857142857022
40
0.88571428571428445
40
0.89999999999999869
40
0.91428571428571281
40
0.92857142857142716
40
0.94285714285714117
40
0.95714285714285563
40
0.97142857142856975
40
0.98571428571428399
40
1
40
1
40
1
40
1
40
1
40
1
10
-51.814675931767489
20
-21.163126567782502
30
0
10
-51.818366356078336
20
-21.156074241362379
30
0
10
-51.825505003628066
20
-21.141876187566844
30
0
10
-51.835486383004664
20
-21.12029890765184
30
0
10
-51.847414915035905
20
-21.090993470413029
30
0
10
-51.860449329641966
20
-21.053612414390479
30
0
10
-51.872144047698072
20
-21.015665505888261
30
0
10
-51.88302586750676
20
-20.977335452999483
30
0
10
-51.893477673641506
20
-20.938760055876713
30
0
10
-51.903636824009979
20
-20.89999851095666
30
0
10
-51.913480332531464
20
-20.861058095647778
30
0
10
-51.922889762117485
20
-20.821914262963631
30
0
10
-51.931720115594686
20
-20.782532105907336
30
0
10
-51.939875673139959
20
-20.742889877423213
30
0
10
-51.94735495715647
20
-20.702993106351265
30
0
10
-51.954211439585158
20
-20.662862952982429
30
0
10
-51.960529432624448
20
-20.622529219540766
30
0
10
-51.966395990841718
20
-20.582022111506593
30
0
10
-51.971869776954456
20
-20.541363139304014
30
0
10
-51.976967873090544
20
-20.500561279338278
30
0
10
-51.981683005556903
20
-20.459618077896096
30
0
10
-51.985993974244103
20
-20.418530756372956
30
0
10
-51.989877845426548
20
-20.377295833559664
30
0
10
-51.993323721352809
20
-20.335913216053179
30
0
10
-51.99633692372835
20
-20.294387452803399
30
0
10
-51.998931813899844
20
-20.252725629117876
30
0
10
-52.001127460640859
20
-20.210936103018916
30
0
10
-52.002942579818907
20
-20.169027025360794
30
0
10
-52.004389751858618
20
-20.127004648515296
30
0
10
-52.005474223113495
20
-20.084872982106027
30
0
10
-52.006196942764589
20
-20.042634693837336
30
0
10
-52.006556475429342
20
-20.000291679872973
30
0
10
-52.006551190512909
20
-19.957845716106835
30
0
10
-52.006181788747774
20
-19.915299209504063
30
0
10
-52.005451720034657
20
-19.87265532534451
30
0
10
-52.004365928582189
20
-19.829917619603656
30
0
10
-52.002930059358221
20
-19.787089807650272
30
0
10
-52.001149555172731
20
-19.744175500558953
30
0
10
-51.999028612790248
20
-19.701177899440033
30
0
10
-51.99657004092451
20
-19.658099757078624
30
0
10
-51.99377580031917
20
-19.614943541564042
30
0
10
-51.99064735776691
20
-19.571711544816008
30
0
10
-51.987186084846904
20
-19.528406003789385
30
0
10
-51.983393723069049
20
-19.485029242289006
30
0
10
-51.979272462930652
20
-19.441583693949696
30
0
10
-51.974824715796686
20
-19.398071831067725
30
0
10
-51.970052972238094
20
-19.354496119295138
30
0
10
-51.964959640771454
20
-19.310858967132191
30
0
10
-51.959546864255643
20
-19.267162665884833
30
0
10
-51.95381648360587
20
-19.223409383855525
30
0
10
-51.947770139215301
20
-19.179601210147123
30
0
10
-51.941409338218392
20
-19.135740186526412
30
0
10
-51.934735531381754
20
-19.0918283405694
30
0
10
-51.927750203972927
20
-19.047867728242306
30
0
10
-51.920454902646689
20
-19.003860436443198
30
0
10
-51.912851185551162
20
-18.959808539919074
30
0
10
-51.904940593607051
20
-18.915714068191512
30
0
10
-51.896724617920839
20
-18.871578973652451
30
0
10
-51.888204665015536
20
-18.827405087416015
30
0
10
-51.879382046269868
20
-18.783194122094265
30
0
10
-51.870258008069399
20
-18.738947749771214
30
0
10
-51.86083375529374
20
-18.694667666118853
30
0
10
-51.851110477397881
20
-18.650355652948839
30
0
10
-51.841089380905117
20
-18.60601365944374
30
0
10
-51.830771704332783
20
-18.56164381936367
30
0
10
-51.820158681116972
20
-18.517248294171157
30
0
10
-51.809251514261156
20
-18.472829146810522
30
0
10
-51.79805134814282
20
-18.428388207830693
30
0
10
-51.786559244381785
20
-18.38392693437066
30
0
10
-51.774776155872217
20
-18.33944630242658
30
0
10
-51.762702887229239
20
-18.294946915469275
30
0
10
-51.752812624030717
20
-18.259332653119937
30
0
10
-51.745264804056902
20
-18.23261371072682
30
0
10
-51.740175111031455
20
-18.214797418929752
30
0
10
-51.737615811257747
20
-18.205888357149036
30
0
0
LINE
5
143
100
AcDbEntity
8
0
100
AcDbLine
10
-46.103427785812777
20
-20.021025050171872
30
0
11
-46.21924844359458
21
-21.317599297132528
31
0
0
SPLINE
5
144
100
AcDbEntity
8
0
100
AcDbSpline
70
0
71
5
72
81
73
75
74
0
42
0.000000001
43
0.0000000001
44
0.0000000001
40
0
40
0
40
0
40
0
40
0
40
0
40
0.014285714285714284
40
0.028571428571428567
40
0.042857142857142858
40
0.057142857142857134
40
0.071428571428571438
40
0.085714285714285715
40
0.10000000000000001
40
0.1142857142857143
40
0.12857142857142859
40
0.14285714285714288
40
0.15714285714285714
40
0.17142857142857146
40
0.18571428571428572
40
0.20000000000000004
40
0.21428571428571436
40
0.22857142857142865
40
0.24285714285714291
40
0.25714285714285717
40
0.27142857142857146
40
0.2857142857142857
40
0.30000000000000004
40
0.31428571428571433
40
0.32857142857142863
40
0.34285714285714292
40
0.35714285714285721
40
0.3714285714285715
40
0.38571428571428573
40
0.40000000000000008
40
0.41428571428571442
40
0.42857142857142871
40
0.44285714285714295
40
0.4571428571428573
40
0.47142857142857147
40
0.48571428571428582
40
0.50000000000000011
40
0.51428571428571435
40
0.52857142857142858
40
0.54285714285714282
40
0.55714285714285705
40
0.57142857142857129
40
0.58571428571428552
40
0.59999999999999976
40
0.61428571428571399
40
0.62857142857142823
40
0.64285714285714246
40
0.6571428571428567
40
0.67142857142857093
40
0.68571428571428517
40
0.6999999999999994
40
0.71428571428571364
40
0.72857142857142776
40
0.74285714285714211
40
0.75714285714285634
40
0.77142857142857058
40
0.78571428571428481
40
0.79999999999999905
40
0.81428571428571328
40
0.82857142857142752
40
0.84285714285714175
40
0.85714285714285599
40
0.87142857142857022
40
0.88571428571428445
40
0.89999999999999869
40
0.91428571428571281
40
0.92857142857142716
40
0.94285714285714117
40
0.95714285714285563
40
0.97142857142856975
40
0.98571428571428399
40
1
40
1
40
1
40
1
40
1
40
1
10
-56.857000064318399
20
-33.474271704083478
30
0
10
-56.864577238098292
20
-33.476709116038705
30
0
10
-56.87962448879037
20
-33.481820404235386
30
0
10
-56.901874079699788
20
-33.490196718887674
30
0
10
-56.930932503247845
20
-33.502714967530366
30
0
10
-56.966443926640679
20
-33.520212913755529
30
0
10
-57.001397487415566
20
-33.539053903231739
30
0
10
-57.036040466513171
20
-33.558738185185881
30
0
10
-57.070549080190688
20
-33.578898966339196
30
0
10
-57.104979697814585
20
-33.599397704613438
30
0
10
-57.139310832419781
20
-33.620245337600402
30
0
10
-57.173475293678273
20
-33.641542440437583
30
0
10
-57.207394229331385
20
-33.663415603014137
30
0
10
-57.241014675432559
20
-33.685947469381944
30
0
10
-57.274331700564758
20
-33.70913513566618
30
0
10
-57.307368570455864
20
-33.732926011826954
30
0
10
-57.340164468406591
20
-33.757239715103012
30
0
10
-57.37276024931365
20
-33.781993651631694
30
0
10
-57.405182632731623
20
-33.807131340635976
30
0
10
-57.437437496270618
20
-33.832634402000402
30
0
10
-57.46951857133066
20
-33.858506836008445
30
0
10
-57.501412697838632
20
-33.884765494299813
30
0
10
-57.53310597304278
20
-33.911428945344532
30
0
10
-57.56459069569906
20
-33.938504900209388
30
0
10
-57.595867467581868
20
-33.965986383841553
30
0
10
-57.626941553773904
20
-33.993858272459562
30
0
10
-57.657820681536187
20
-34.022101233083887
30
0
10
-57.688512471938857
20
-34.050696327937111
30
0
10
-57.719021505095391
20
-34.079630276138325
30
0
10
-57.749348707401097
20
-34.108896539866926
30
0
10
-57.779492884004142
20
-34.138492552038961
30
0
10
-57.809451681804546
20
-34.168417968154337
30
0
10
-57.83922269294186
20
-34.198672666365198
30
0
10
-57.868804728398409
20
-34.229254439695247
30
0
10
-57.898198026534054
20
-34.260158612249249
30
0
10
-57.927403616629945
20
-34.29137918146607
30
0
10
-57.956422915583872
20
-34.322909539620774
30
0
10
-57.985257269376618
20
-34.354743295127093
30
0
10
-58.013907423519314
20
-34.386875222647433
30
0
10
-58.042373448756265
20
-34.419301390045675
30
0
10
-58.070655011195349
20
-34.452018662916551
30
0
10
-58.098751548486987
20
-34.485024378903979
30
0
10
-58.126662468980079
20
-34.51831598161494
30
0
10
-58.154387383747761
20
-34.551890593261817
30
0
10
-58.181926146811051
20
-34.585744942828384
30
0
10
-58.209278742481914
20
-34.619875576811559
30
0
10
-58.236445216182801
20
-34.654278990882482
30
0
10
-58.263425594946973
20
-34.688951779003212
30
0
10
-58.290219798683836
20
-34.723890805011621
30
0
10
-58.316827618393248
20
-34.759093232215413
30
0
10
-58.34324875772068
20
-34.794556421028567
30
0
10
-58.369482858543876
20
-34.83027785907877
30
0
10
-58.395529532522197
20
-34.866255083648113
30
0
10
-58.42138839598838
20
-34.902485587583612
30
0
10
-58.44705908732778
20
-34.938966798625593
30
0
10
-58.472541261640494
20
-34.975696145112238
30
0
10
-58.497834593473314
20
-35.012671099698217
30
0
10
-58.522938775975248
20
-35.04988922495135
30
0
10
-58.547853527086467
20
-35.087348229206704
30
0
10
-58.572578580064594
20
-35.125045971996457
30
0
10
-58.597113650276427
20
-35.162980387327877
30
0
10
-58.621458406961267
20
-35.201149421512582
30
0
10
-58.645612447940678
20
-35.239550970291027
30
0
10
-58.66957526579413
20
-35.278182798146382
30
0
10
-58.693346246426557
20
-35.317042515571437
30
0
10
-58.716924752689025
20
-35.356127716879982
30
0
10
-58.740310194851453
20
-35.395436087946926
30
0
10
-58.763502104420866
20
-35.434965521398574
30
0
10
-58.786500215861174
20
-35.474714234040931
30
0
10
-58.80930452365763
20
-35.51468086185578
30
0
10
-58.831915177935159
20
-35.554864410335803
30
0
10
-58.849848955682404
20
-35.58718425879669
30
0
10
-58.863212335495291
20
-35.611521299474234
30
0
10
-58.872082622229662
20
-35.627789158637043
30
0
10
-58.876508107310315
20
-35.635933879561996
30
0
0
LINE
5
145
100
AcDbEntity
8
0
100
AcDbLine
10
-52.760812766650005
20
-37.289231759173688
30
0
11
-53.587782333213269
21
-38.294537950654032
31
0
0
SPLINE
5
146
100
AcDbEntity
8
0
100
AcDbSpline
70
0
71
5
72
81
73
75
74
0
42
0.000000001
43
0.0000000001
44
0.0000000001
40
0
40
0
40
0
40
0
40
0
40
0
40
0.014285714285714284
40
0.028571428571428567
40
0.042857142857142858
40
0.057142857142857134
40
0.071428571428571438
40
0.085714285714285715
40
0.10000000000000001
40
0.1142857142857143
40
0.12857142857142859
40
0.14285714285714288
40
0.15714285714285714
40
0.17142857142857146
40
0.18571428571428572
40
0.20000000000000004
40
0.21428571428571436
40
0.22857142857142865
40
0.24285714285714291
40
0.25714285714285717
40
0.27142857142857146
40
0.2857142857142857
40
0.30000000000000004
40
0.31428571428571433
40
0.32857142857142863
40
0.34285714285714292
40
0.35714285714285721
40
0.3714285714285715
40
0.38571428571428573
40
0.40000000000000008
40
0.41428571428571442
40
0.42857142857142871
40
0.44285714285714295
40
0.4571428571428573
40
0.47142857142857147
40
0.48571428571428582
40
0.50000000000000011
40
0.51428571428571435
40
0.52857142857142858
40
0.54285714285714282
40
0.55714285714285705
40
0.57142857142857129
40
0.58571428571428552
40
0.59999999999999976
40
0.61428571428571399
40
0.62857142857142823
40
0.64285714285714246
40
0.6571428571428567
40
0.67142857142857093
40
0.68571428571428517
40
0.6999999999999994
40
0.71428571428571364
40
0.72857142857142776
40
0.74285714285714211
40
0.75714285714285634
40
0.77142857142857058
40
0.78571428571428481
40
0.79999999999999905
40
0.81428571428571328
40
0.82857142857142752
40
0.84285714285714175
40
0.85714285714285599
40
0.87142857142857022
40
0.88571428571428445
40
0.89999999999999869
40
0.91428571428571281
40
0.92857142857142716
40
0.94285714285714117
40
0.95714285714285563
40
0.97142857142856975
40
0.98571428571428399
40
1
40
1
40
1
40
1
40
1
40
1
10
-55.39219112661047
20
-36.37181541640058
30
0
10
-55.398646468377287
20
-36.376471928207032
30
0
10
-55.411684070985544
20
-36.385558508347458
30
0
10
-55.431621226911155
20
-36.39850905877546
30
0
10
-55.458930769946974
20
-36.414486774111303
30
0
10
-55.494076350111598
20
-36.432708396113085
30
0
10
-55.52997268189138
20
-36.44968448694825
30
0
10
-55.566363945682937
20
-36.465910480799451
30
0
10
-55.603059253784402
20
-36.481745754020857
30
0
10
-55.63998046422499
20
-36.497317841883387
30
0
10
-55.677123644930198
20
-36.512602956588267
30
0
10
-55.714529948388609
20
-36.527487359966216
30
0
10
-55.752254561543438
20
-36.541832498489661
30
0
10
-55.790332632447893
20
-36.555546721553988
30
0
10
-55.828758898821519
20
-36.568627779766167
30
0
10
-55.867504805903977
20
-36.581125589376526
30
0
10
-55.906528855938078
20
-36.593119363108208
30
0
10
-55.945788761734939
20
-36.604690970750475
30
0
10
-55.985254883240529
20
-36.615895416666504
30
0
10
-56.024915904376144
20
-36.62674833163706
30
0
10
-56.064771329748453
20
-36.6372422959452
30
0
10
-56.104826926770002
20
-36.647356720704721
30
0
10
-56.145089405025708
20
-36.657069401049988
30
0
10
-56.18556040787962
20
-36.666369563445606
30
0
10
-56.226234675325976
20
-36.675261828046708
30
0
10
-56.26710315034267
20
-36.683759401677783
30
0
10
-56.308154846210599
20
-36.691879969549106
30
0
10
-56.349379031493797
20
-36.69964089704019
30
0
10
-56.390767727079485
20
-36.707053746719836
30
0
10
-56.432316217522313
20
-36.714123140912235
30
0
10
-56.474021727188727
20
-36.720849639483262
30
0
10
-56.515882583491489
20
-36.727231551808245
30
0
10
-56.557897260670551
20
-36.733267011153359
30
0
10
-56.600063276535565
20
-36.738956368571827
30
0
10
-56.642377007052609
20
-36.744302588383036
30
0
10
-56.684834228806658
20
-36.749310058402649
30
0
10
-56.727430460883355
20
-36.753983837388816
30
0
10
-56.770161354370998
20
-36.758328798841958
30
0
10
-56.813023143480102
20
-36.762348641244145
30
0
10
-56.85601270372328
20
-36.76604575295832
30
0
10
-56.899127313089906
20
-36.769421723524808
30
0
10
-56.942364494242284
20
-36.772477678632328
30
0
10
-56.985721837798529
20
-36.775214657547465
30
0
10
-57.029196795764044
20
-36.777634053342084
30
0
10
-57.07278664753467
20
-36.779737687875134
30
0
10
-57.116488602805468
20
-36.781527596122885
30
0
10
-57.160299866576018
20
-36.783005892407019
30
0
10
-57.204217712093481
20
-36.784174617963508
30
0
10
-57.248239566413453
20
-36.785035567753191
30
0
10
-57.292363021314145
20
-36.785590255371822
30
0
10
-57.33658577550446
20
-36.785840007205408
30
0
10
-57.380905593512246
20
-36.78578602447422
30
0
10
-57.425320261933699
20
-36.785429454624008
30
0
10
-57.469827534353755
20
-36.784771475209901
30
0
10
-57.514425125003982
20
-36.783813320147445
30
0
10
-57.559110758507842
20
-36.782556236457758
30
0
10
-57.603882206705343
20
-36.78100146054615
30
0
10
-57.648737324870595
20
-36.779150190487478
30
0
10
-57.693674100358443
20
-36.777003557893636
30
0
10
-57.738690651360123
20
-36.774562617065293
30
0
10
-57.783785145431814
20
-36.771828363739246
30
0
10
-57.828955732688812
20
-36.768801749211939
30
0
10
-57.874200480178629
20
-36.76548369725311
30
0
10
-57.919517286852411
20
-36.761875124707814
30
0
10
-57.964903864409251
20
-36.75797695382132
30
0
10
-58.010357897850902
20
-36.753790097866954
30
0
10
-58.05587717402566
20
-36.749315454015765
30
0
10
-58.101459718154942
20
-36.744553894482841
30
0
10
-58.147103936847202
20
-36.73950626270971
30
0
10
-58.192808728429462
20
-36.734173362992806
30
0
10
-58.238573381064718
20
-36.728555905874472
30
0
10
-58.275232672782437
20
-36.72383474928121
30
0
10
-58.302753821646419
20
-36.72016625719715
30
0
10
-58.321113108121736
20
-36.717663892593727
30
0
10
-58.330295714832737
20
-36.716398534488007
30
0
0
ARC
5
147
100
AcDbEntity
8
0
100
AcDbCircle
10
-43.509025965655603
20
-38.660192870264602
30
0
40
0.50000000000001332
210
0
220
-0
230
1
100
AcDbArc
50
26.013671771904733
51
112.78969503747629
0
ARC
5
148
100
AcDbEntity
8
0
100
AcDbCircle
10
-47.014231576768857
20
-30.317438273381121
30
0
40
8.5491999999999972
210
0
220
-0
230
1
100
AcDbArc
50
55.392123144339443
51
63.698785946569529
0
ARC
5
149
100
AcDbEntity
8
0
100
AcDbCircle
10
-46.717265421108102
20
-21.273112331532722
30
0
40
0.50000000000000211
210
0
220
0
230
1
100
AcDbArc
50
268.11939587161254
51
354.89541913718529
0
ARC
5
150
100
AcDbEntity
8
0
100
AcDbCircle
10
-47.014231576768857
20
-30.317438273381121
30
0
40
12.999999999999993
210
0
220
0
230
1
100
AcDbArc
50
105.96743734827801
51
111.3052899244493
0
SPLINE
5
151
100
AcDbEntity
8
0
100
AcDbSpline
70
0
71
5
72
81
73
75
74
0
42
0.000000001
43
0.0000000001
44
0.0000000001
40
0
40
0
40
0
40
0
40
0
40
0
40
0.014285714285714284
40
0.028571428571428567
40
0.042857142857142858
40
0.057142857142857134
40
0.071428571428571438
40
0.085714285714285715
40
0.10000000000000001
40
0.1142857142857143
40
0.12857142857142859
40
0.14285714285714288
40
0.15714285714285714
40
0.17142857142857146
40
0.18571428571428572
40
0.20000000000000004
40
0.21428571428571436
40
0.22857142857142865
40
0.24285714285714291
40
0.25714285714285717
40
0.27142857142857146
40
0.2857142857142857
40
0.30000000000000004
40
0.31428571428571433
40
0.32857142857142863
40
0.34285714285714292
40
0.35714285714285721
40
0.3714285714285715
40
0.38571428571428573
40
0.40000000000000008
40
0.41428571428571442
40
0.42857142857142871
40
0.44285714285714295
40
0.4571428571428573
40
0.47142857142857147
40
0.48571428571428582
40
0.50000000000000011
40
0.51428571428571435
40
0.52857142857142858
40
0.54285714285714282
40
0.55714285714285705
40
0.57142857142857129
40
0.58571428571428552
40
0.59999999999999976
40
0.61428571428571399
40
0.62857142857142823
40
0.64285714285714246
40
0.6571428571428567
40
0.67142857142857093
40
0.68571428571428517
40
0.6999999999999994
40
0.71428571428571364
40
0.72857142857142776
40
0.74285714285714211
40
0.75714285714285634
40
0.77142857142857058
40
0.78571428571428481
40
0.79999999999999905
40
0.81428571428571328
40
0.82857142857142752
40
0.84285714285714175
40
0.85714285714285599
40
0.87142857142857022
40
0.88571428571428445
40
0.89999999999999869
40
0.91428571428571281
40
0.92857142857142716
40
0.94285714285714117
40
0.95714285714285563
40
0.97142857142856975
40
0.98571428571428399
40
1
40
1
40
1
40
1
40
1
40
1
10
-57.001208346305397
20
-27.651733148384086
30
0
10
-57.008900434908554
20
-27.649687100376031
30
0
10
-57.024322358741586
20
-27.645851831714154
30
0
10
-57.047568483299045
20
-27.640869398990191
30
0
10
-57.078781860946663
20
-27.63569025002473
30
0
10
-57.118116075282693
20
-27.631211534131836
30
0
10
-57.157707089721683
20
-27.628164261420384
30
0
10
-57.197492744562062
20
-27.625994324617132
30
0
10
-57.23742297893466
20
-27.624297887879091
30
0
10
-57.277470312265713
20
-27.622927926613222
30
0
10
-57.317622581878531
20
-27.621905258837529
30
0
10
-57.35787763869682
20
-27.621350819575696
30
0
10
-57.398237587640601
20
-27.621413733768655
30
0
10
-57.43870255335051
20
-27.622192160488517
30
0
10
-57.479266817301173
20
-27.623686322965565
30
0
10
-57.519921519546308
20
-27.625839401240864
30
0
10
-57.56065616497424
20
-27.628562588940781
30
0
10
-57.60146046929782
20
-27.631764315861822
30
0
10
-57.642326374623224
20
-27.635382621668931
30
0
10
-57.683248888470061
20
-27.639398866349115
30
0
10
-57.72422490007304
20
-27.643819804216008
30
0
10
-57.765252449158368
20
-27.648666726643736
30
0
10
-57.806329878859835
20
-27.653962770818357
30
0
10
-57.847454879396174
20
-27.659718587308937
30
0
10
-57.888624186013928
20
-27.665927982983849
30
0
10
-57.929834051448957
20
-27.672575388389884
30
0
10
-57.971080524089011
20
-27.679640361916988
30
0
10
-58.012359776650833
20
-27.687102851831433
30
0
10
-58.053668481984772
20
-27.694949209348913
30
0
10
-58.095003884811412
20
-27.7031734336577
30
0
10
-58.136363592087136
20
-27.711774011174914
30
0
10
-58.177745438007413
20
-27.72075192427064
30
0
10
-58.219147331075227
20
-27.730108372227519
30
0
10
-58.260567077843803
20
-27.739842141250431
30
0
10
-58.302002350854352
20
-27.749949168858944
30
0
10
-58.343450770763745
20
-27.76042384890588
30
0
10
-58.38490995713645
20
-27.771259856586525
30
0
10
-58.426377586731128
20
-27.782451087264185
30
0
10
-58.467851461680823
20
-27.793992742051373
30
0
10
-58.509329515626227
20
-27.805881474777536
30
0
10
-58.550809773091899
20
-27.818114829128771
30
0
10
-58.592290321620979
20
-27.830690869417776
30
0
10
-58.633769281394414
20
-27.843607764940646
30
0
10
-58.67524476937669
20
-27.856863305018145
30
0
10
-58.716714894317604
20
-27.87045481681848
30
0
10
-58.758177775914746
20
-27.884379403551556
30
0
10
-58.799631557796758
20
-27.898634092631141
30
0
10
-58.841074421262284
20
-27.913216004100491
30
0
10
-58.882504603397621
20
-27.928122542952387
30
0
10
-58.923920394748976
20
-27.943351435803393
30
0
10
-58.965320118939111
20
-27.958900622313827
30
0
10
-59.006702116405457
20
-27.974768182557099
30
0
10
-59.04806472900917
20
-27.9909522547159
30
0
10
-59.089406278519618
20
-28.007450937065048
30
0
10
-59.130725070058581
20
-28.024262261185704
30
0
10
-59.172019423132554
20
-28.041384250125208
30
0
10
-59.213287697566706
20
-28.058814953698629
30
0
10
-59.254528317446329
20
-28.076552487303768
30
0
10
-59.295739806519954
20
-28.094595075562488
30
0
10
-59.336920783165318
20
-28.112941062010393
30
0
10
-59.378069890973734
20
-28.131588862508185
30
0
10
-59.419185741383906
20
-28.150536928205959
30
0
10
-59.460266858413107
20
-28.169783706322036
30
0
10
-59.501311606580451
20
-28.189327590552274
30
0
10
-59.542318177411119
20
-28.209166902720085
30
0
10
-59.583284734289151
20
-28.229299963502182
30
0
10
-59.624209529991589
20
-28.249725144964817
30
0
10
-59.665091031064847
20
-28.270440927558891
30
0
10
-59.705928050058176
20
-28.291445954725766
30
0
10
-59.746719844888503
20
-28.312739081961755
30
0
10
-59.787466004177602
20
-28.334319391470434
30
0
10
-59.820026287356413
20
-28.351812845907375
30
0
10
-59.844425875400937
20
-28.365061678770019
30
0
10
-59.860683104129478
20
-28.373951433691204
30
0
10
-59.868809427666896
20
-28.378410611071612
30
0
0
LINE
5
152
100
AcDbEntity
8
0
100
AcDbLine
10
-50.788976238203325
20
-39.940171333674883
30
0
11
-50.312559953131313
21
-38.728747903998567
31
0
0
LINE
5
153
100
AcDbEntity
8
0
100
AcDbLine
10
-55.617799433748075
20
-33.075647821401219
30
0
11
-56.857000064318399
21
-33.474271704083478
31
0
0
ARC
5
154
100
AcDbEntity
8
0
100
AcDbCircle
10
-47.014231576768857
20
-30.317438273381121
30
0
40
13.000000000000016
210
0
220
0
230
1
100
AcDbArc
50
236.87652825736896
51
242.21438083354019
0
ARC
5
155
100
AcDbEntity
8
0
100
AcDbCircle
10
-55.770911730775026
20
-32.599668174253225
30
0
40
0.49999999999999845
210
-0
220
0
230
1
100
AcDbArc
50
-72.168146409912211
51
14.607876855659217
0
ARC
5
156
100
AcDbEntity
8
0
100
AcDbCircle
10
-48.575898638210653
20
-39.230867278495147
30
0
40
0.49999999999999867
210
-0
220
0
230
1
100
AcDbArc
50
-6.7136009553674594
51
80.062422310208177
0
SPLINE
5
157
100
AcDbEntity
8
0
100
AcDbSpline
70
0
71
5
72
81
73
75
74
0
42
0.000000001
43
0.0000000001
44
0.0000000001
40
0
40
0
40
0
40
0
40
0
40
0
40
0.014285714285714284
40
0.028571428571428567
40
0.042857142857142858
40
0.057142857142857134
40
0.071428571428571438
40
0.085714285714285715
40
0.10000000000000001
40
0.1142857142857143
40
0.12857142857142859
40
0.14285714285714288
40
0.15714285714285714
40
0.17142857142857146
40
0.18571428571428572
40
0.20000000000000004
40
0.21428571428571436
40
0.22857142857142865
40
0.24285714285714291
40
0.25714285714285717
40
0.27142857142857146
40
0.2857142857142857
40
0.30000000000000004
40
0.31428571428571433
40
0.32857142857142863
40
0.34285714285714292
40
0.35714285714285721
40
0.3714285714285715
40
0.38571428571428573
40
0.40000000000000008
40
0.41428571428571442
40
0.42857142857142871
40
0.44285714285714295
40
0.4571428571428573
40
0.47142857142857147
40
0.48571428571428582
40
0.50000000000000011
40
0.51428571428571435
40
0.52857142857142858
40
0.54285714285714282
40
0.55714285714285705
40
0.57142857142857129
40
0.58571428571428552
40
0.59999999999999976
40
0.61428571428571399
40
0.62857142857142823
40
0.64285714285714246
40
0.6571428571428567
40
0.67142857142857093
40
0.68571428571428517
40
0.6999999999999994
40
0.71428571428571364
40
0.72857142857142776
40
0.74285714285714211
40
0.75714285714285634
40
0.77142857142857058
40
0.78571428571428481
40
0.79999999999999905
40
0.81428571428571328
40
0.82857142857142752
40
0.84285714285714175
40
0.85714285714285599
40
0.87142857142857022
40
0.88571428571428445
40
0.89999999999999869
40
0.91428571428571281
40
0.92857142857142716
40
0.94285714285714117
40
0.95714285714285563
40
0.97142857142856975
40
0.98571428571428399
40
1
40
1
40
1
40
1
40
1
40
1
10
-42.954364502519226
20
-20.811483921075322
30
0
10
-42.951244581984191
20
-20.80416130983442
30
0
10
-42.945253582231146
20
-20.789442174588789
30
0
10
-42.937013595031345
20
-20.767141736168501
30
0
10
-42.927445035542775
20
-20.736983135446788
30
0
10
-42.917414064168028
20
-20.698686674425389
30
0
10
-42.90876341948205
20
-20.659932311550957
30
0
10
-42.900953480472445
20
-20.620860431515919
30
0
10
-42.893591646167401
20
-20.581578057474591
30
0
10
-42.886536299365609
20
-20.542133314069368
30
0
10
-42.879809777117053
20
-20.502535277465491
30
0
10
-42.873532089346682
20
-20.46276886401651
30
0
10
-42.867850543557225
20
-20.422810767535541
30
0
10
-42.86286228196473
20
-20.382646895158167
30
0
10
-42.858568339358357
20
-20.342282875434403
30
0
10
-42.854913735026223
20
-20.30173556445234
30
0
10
-42.851812060125695
20
-20.261027988963242
30
0
10
-42.84917414011251
20
-20.220183360373781
30
0
10
-42.846939792076391
20
-20.179218472435061
30
0
10
-42.845091276236822
20
-20.138140919561657
30
0
10
-42.843635720866338
20
-20.096952819616718
30
0
10
-42.842594479599612
20
-20.055653082842841
30
0
10
-42.841990689916145
20
-20.014240056476737
30
0
10
-42.84183522269376
20
-19.972714511055525
30
0
10
-42.842122412460775
20
-19.931080559476676
30
0
10
-42.842837381529876
20
-19.889344126626742
30
0
10
-42.843960458730223
20
-19.847512033040747
30
0
10
-42.84547234110498
20
-19.805590920704926
30
0
10
-42.847359992297591
20
-19.763586025327939
30
0
10
-42.849617864693002
20
-19.721500928148888
30
0
10
-42.85224480068014
20
-19.679338213259058
30
0
10
-42.85524208085603
20
-19.637099884612311
30
0
10
-42.858611189947425
20
-19.594787841741528
30
0
10
-42.862351238673931
20
-19.552404428508446
30
0
10
-42.866458537137227
20
-19.509952526832883
30
0
10
-42.870927874868421
20
-19.467435289677621
30
0
10
-42.875753330211552
20
-19.424855973362376
30
0
10
-42.88092919129798
20
-19.382217746261627
30
0
10
-42.886451020875114
20
-19.339523466824069
30
0
10
-42.892315800905109
20
-19.296775656586224
30
0
10
-42.898521381215332
20
-19.253976620485926
30
0
10
-42.90506611799195
20
-19.211128526991025
30
0
10
-42.91194846669115
20
-19.168233497323023
30
0
10
-42.919166507119044
20
-19.125293709963319
30
0
10
-42.926717862802448
20
-19.082311417295589
30
0
10
-42.934599934031354
20
-19.039288892739613
30
0
10
-42.9428100426653
20
-18.996228396814764
30
0
10
-42.951345596889581
20
-18.95313213957116
30
0
10
-42.960204278999214
20
-18.91000223528664
30
0
10
-42.969384082031127
20
-18.866840699551446
30
0
10
-42.978883205190257
20
-18.823649484896563
30
0
10
-42.988699984272543
20
-18.780430507226711
30
0
10
-42.998832812389011
20
-18.737185672767463
30
0
10
-43.009280046008421
20
-18.693916913311192
30
0
10
-43.020039977953964
20
-18.650626186619927
30
0
10
-43.031110890554622
20
-18.607315437431879
30
0
10
-43.042491086896753
20
-18.563986566767458
30
0
10
-43.054178925836759
20
-18.520641402707781
30
0
10
-43.066172860159718
20
-18.477281659140793
30
0
10
-43.078471446887107
20
-18.433908939365313
30
0
10
-43.09107331104088
20
-18.390524811430282
30
0
10
-43.103977117149128
20
-18.347130870187755
30
0
10
-43.117181538289458
20
-18.303728797580938
30
0
10
-43.130685217260762
20
-18.260320441044861
30
0
10
-43.144486750340725
20
-18.216907829476035
30
0
10
-43.158584736676843
20
-18.17349301978895
30
0
10
-43.172977813561118
20
-18.130077973101542
30
0
10
-43.187664695144463
20
-18.08666442351339
30
0
10
-43.202644207667895
20
-18.043253739447096
30
0
10
-43.217915323886629
20
-17.999846818312303
30
0
10
-43.233477193891268
20
-17.956444197916056
30
0
10
-43.246158778750797
20
-17.921725753332915
30
0
10
-43.255800334171639
20
-17.895689012407239
30
0
10
-43.262285959328437
20
-17.878332114792247
30
0
10
-43.265543252292716
20
-17.869653898403534
30
0
0
ARC
5
158
100
AcDbEntity
8
0
100
AcDbCircle
10
-54.04394853229487
20
-36.015780151962126
30
0
40
0.49999999999999539
210
0
220
-0
230
1
100
AcDbArc
50
39.028486780703133
51
125.8045100462781
0
ARC
5
159
100
AcDbEntity
8
0
100
AcDbCircle
10
-47.014231576768857
20
-30.317438273381121
30
0
40
12.999999999999996
210
0
220
0
230
1
100
AcDbArc
50
138.69471007555072
51
144.032562651722
0
ARC
5
160
100
AcDbEntity
8
0
100
AcDbCircle
10
-53.146953052970119
20
-36.97159095688184
30
0
40
0.49999999999999206
210
-0
220
0
230
1
100
AcDbArc
50
-39.440873682642454
51
47.335149582932807
0
ARC
5
161
100
AcDbEntity
8
0
100
AcDbCircle
10
-47.014231576768857
20
-30.317438273381121
30
0
40
8.5491999999999901
210
0
220
-0
230
1
100
AcDbArc
50
88.119395871612198
51
96.426058673842292
0
SPLINE
5
162
100
AcDbEntity
8
0
100
AcDbSpline
70
0
71
5
72
81
73
75
74
0
42
0.000000001
43
0.0000000001
44
0.0000000001
40
0
40
0
40
0
40
0
40
0
40
0
40
0.014285714285714284
40
0.028571428571428567
40
0.042857142857142858
40
0.057142857142857134
40
0.071428571428571438
40
0.085714285714285715
40
0.10000000000000001
40
0.1142857142857143
40
0.12857142857142859
40
0.14285714285714288
40
0.15714285714285714
40
0.17142857142857146
40
0.18571428571428572
40
0.20000000000000004
40
0.21428571428571436
40
0.22857142857142865
40
0.24285714285714291
40
0.25714285714285717
40
0.27142857142857146
40
0.2857142857142857
40
0.30000000000000004
40
0.31428571428571433
40
0.32857142857142863
40
0.34285714285714292
40
0.35714285714285721
40
0.3714285714285715
40
0.38571428571428573
40
0.40000000000000008
40
0.41428571428571442
40
0.42857142857142871
40
0.44285714285714295
40
0.4571428571428573
40
0.47142857142857147
40
0.48571428571428582
40
0.50000000000000011
40
0.51428571428571435
40
0.52857142857142858
40
0.54285714285714282
40
0.55714285714285705
40
0.57142857142857129
40
0.58571428571428552
40
0.59999999999999976
40
0.61428571428571399
40
0.62857142857142823
40
0.64285714285714246
40
0.6571428571428567
40
0.67142857142857093
40
0.68571428571428517
40
0.6999999999999994
40
0.71428571428571364
40
0.72857142857142776
40
0.74285714285714211
40
0.75714285714285634
40
0.77142857142857058
40
0.78571428571428481
40
0.79999999999999905
40
0.81428571428571328
40
0.82857142857142752
40
0.84285714285714175
40
0.85714285714285599
40
0.87142857142857022
40
0.88571428571428445
40
0.89999999999999869
40
0.91428571428571281
40
0.92857142857142716
40
0.94285714285714117
40
0.95714285714285563
40
0.97142857142856975
40
0.98571428571428399
40
1
40
1
40
1
40
1
40
1
40
1
10
-56.001816913329144
20
-25.211657370645018
30
0
10
-56.008734271339023
20
-25.207719770145587
30
0
10
-56.022415731220178
20
-25.199635051477578
30
0
10
-56.042478160134984
20
-25.186879429625691
30
0
10
-56.068356795392418
20
-25.168675178325795
30
0
10
-56.099531767413531
20
-25.144275169453518
30
0
10
-56.12988563792625
20
-25.118674840545793
30
0
10
-56.159762798410881
20
-25.092312704096269
30
0
10
-56.189410851480304
20
-25.065511687998956
30
0
10
-56.218913345949765
20
-25.038395852756842
30
0
10
-56.248247010233577
20
-25.010958893302011
30
0
10
-56.277325479815445
20
-24.983116127471092
30
0
10
-56.306045647458369
20
-24.954759798239301
30
0
10
-56.334338745868955
20
-24.925819860775835
30
0
10
-56.362200542897085
20
-24.896300167387665
30
0
10
-56.389664581884951
20
-24.866247428358189
30
0
10
-56.416785678468585
20
-24.835732297529553
30
0
10
-56.443620737294808
20
-24.804827250621273
30
0
10
-56.470207479168607
20
-24.773582098813137
30
0
10
-56.4965554214794
20
-24.742013628833362
30
0
10
-56.522657609221419
20
-24.710119209045736
30
0
10
-56.548497709954788
20
-24.677885040294889
30
0
10
-56.574058312685565
20
-24.645295795093155
30
0
10
-56.599330300139385
20
-24.612345503095643
30
0
10
-56.62431568987175
20
-24.57904086825372
30
0
10
-56.649022732809911
20
-24.545395615437616
30
0
10
-56.673462951938845
20
-24.511427085220426
30
0
10
-56.697647685363783
20
-24.477152253099032
30
0
10
-56.721584136123994
20
-24.442583180394362
30
0
10
-56.74527454996668
20
-24.407726076609247
30
0
10
-56.768718283123931
20
-24.372583699125414
30
0
10
-56.791913102931559
20
-24.337156867070959
30
0
10
-56.814856677525128
20
-24.301446192856709
30
0
10
-56.837548295094784
20
-24.265454080195248
30
0
10
-56.85998914660216
20
-24.229185057046521
30
0
10
-56.882181468874762
20
-24.192644787928458
30
0
10
-56.904128002081755
20
-24.155839450308243
30
0
10
-56.925831372711848
20
-24.118775024620376
30
0
10
-56.947293380657229
20
-24.081456472752354
30
0
10
-56.968514900490206
20
-24.043887628999734
30
0
10
-56.989496247343453
20
-24.006071629709442
30
0
10
-57.010237416056214
20
-23.968011195974988
30
0
10
-57.030738351085184
20
-23.929708951174273
30
0
10
-57.050999261137903
20
-23.891167791747641
30
0
10
-57.071020673255745
20
-23.852390949271232
30
0
10
-57.09080327938365
20
-23.81338180725535
30
0
10
-57.110347841691187
20
-23.774143786442842
30
0
10
-57.129655084217809
20
-23.734680215135377
30
0
10
-57.148725570877595
20
-23.694994179419151
30
0
10
-57.167559678074191
20
-23.655088498660227
30
0
10
-57.186157656339887
20
-23.614965817187191
30
0
10
-57.204519669694335
20
-23.574628667462058
30
0
10
-57.22264584240979
20
-23.534079539533892
30
0
10
-57.240536312433477
20
-23.493320965987785
30
0
10
-57.258191252631974
20
-23.452355538618853
30
0
10
-57.275610852109992
20
-23.411185845213801
30
0
10
-57.292795309930298
20
-23.369814426199422
30
0
10
-57.309744824948687
20
-23.328243730185427
30
0
10
-57.326459590432592
20
-23.286476058026729
30
0
10
-57.34293978367603
20
-23.244513559449153
30
0
10
-57.35918554920837
20
-23.202358314946217
30
0
10
-57.375196983889374
20
-23.160012402415092
30
0
10
-57.390974125032123
20
-23.117477963879011
30
0
10
-57.406516933820974
20
-23.074757291390412
30
0
10
-57.421825298565139
20
-23.031852849575589
30
0
10
-57.436899088322249
20
-22.988767123618405
30
0
10
-57.451738199811373
20
-22.945502499370871
30
0
10
-57.466342606074569
20
-22.902061135485919
30
0
10
-57.480712412414476
20
-22.858444831741807
30
0
10
-57.494847892793352
20
-22.814654924372348
30
0
10
-57.508749397835473
20
-22.770692356057175
30
0
10
-57.519683702888713
20
-22.73538465205614
30
0
10
-57.527779423527541
20
-22.708826587813775
30
0
10
-57.533129915850047
20
-22.691086873599666
30
0
10
-57.535793498317751
20
-22.682208431980637
30
0
0
SPLINE
5
163
100
AcDbEntity
8
0
100
AcDbSpline
70
0
71
5
72
81
73
75
74
0
42
0.000000001
43
0.0000000001
44
0.0000000001
40
0
40
0
40
0
40
0
40
0
40
0
40
0.014285714285714284
40
0.028571428571428567
40
0.042857142857142858
40
0.057142857142857134
40
0.071428571428571438
40
0.085714285714285715
40
0.10000000000000001
40
0.1142857142857143
40
0.12857142857142859
40
0.14285714285714288
40
0.15714285714285714
40
0.17142857142857146
40
0.18571428571428572
40
0.20000000000000004
40
0.21428571428571436
40
0.22857142857142865
40
0.24285714285714291
40
0.25714285714285717
40
0.27142857142857146
40
0.2857142857142857
40
0.30000000000000004
40
0.31428571428571433
40
0.32857142857142863
40
0.34285714285714292
40
0.35714285714285721
40
0.3714285714285715
40
0.38571428571428573
40
0.40000000000000008
40
0.41428571428571442
40
0.42857142857142871
40
0.44285714285714295
40
0.4571428571428573
40
0.47142857142857147
40
0.48571428571428582
40
0.50000000000000011
40
0.51428571428571435
40
0.52857142857142858
40
0.54285714285714282
40
0.55714285714285705
40
0.57142857142857129
40
0.58571428571428552
40
0.59999999999999976
40
0.61428571428571399
40
0.62857142857142823
40
0.64285714285714246
40
0.6571428571428567
40
0.67142857142857093
40
0.68571428571428517
40
0.6999999999999994
40
0.71428571428571364
40
0.72857142857142776
40
0.74285714285714211
40
0.75714285714285634
40
0.77142857142857058
40
0.78571428571428481
40
0.79999999999999905
40
0.81428571428571328
40
0.82857142857142752
40
0.84285714285714175
40
0.85714285714285599
40
0.87142857142857022
40
0.88571428571428445
40
0.89999999999999869
40
0.91428571428571281
40
0.92857142857142716
40
0.94285714285714117
40
0.95714285714285563
40
0.97142857142856975
40
0.98571428571428399
40
1
40
1
40
1
40
1
40
1
40
1
10
-53.587782333213269
20
-38.294537950654032
30
0
10
-53.592838893032528
20
-38.30068496149871
30
0
10
-53.602734074807749
20
-38.313120008666118
30
0
10
-53.616923044163443
20
-38.332195649976761
30
0
10
-53.634600669452446
20
-38.358436840733276
30
0
10
-53.655014675886562
20
-38.3923559747846
30
0
10
-53.67423327442139
20
-38.427103345413812
30
0
10
-53.692734676688325
20
-38.46239222568741
30
0
10
-53.710865428654387
20
-38.498009319165149
30
0
10
-53.728747852750644
20
-38.53386855241461
30
0
10
-53.746357959683294
20
-38.569967509993219
30
0
10
-53.7635848503269
20
-38.606354475256772
30
0
10
-53.78029375027927
20
-38.643093311647199
30
0
10
-53.796395422685336
20
-38.680224909293791
30
0
10
-53.811887288926428
20
-38.717744159176164
30
0
10
-53.826817353700484
20
-38.755619398139658
30
0
10
-53.841262038299327
20
-38.793804187994112
30
0
10
-53.855300365662671
20
-38.832251134185547
30
0
10
-53.868985349523648
20
-38.870927167742558
30
0
10
-53.882331871483146
20
-38.909820004004047
30
0
10
-53.89533249534275
20
-38.948929619161589
30
0
10
-53.907967039460203
20
-38.988263074843886
30
0
10
-53.920213769223686
20
-39.027828475446945
30
0
10
-53.932062037016976
20
-39.067628144326044
30
0
10
-53.943516120083117
20
-39.107656539037116
30
0
10
-53.95458862422521
20
-39.147903783164267
30
0
10
-53.965296502226678
20
-39.188357790442801
30
0
10
-53.975656403875163
20
-39.229006749662204
30
0
10
-53.985679362393654
20
-39.269841964430746
30
0
10
-53.995369691728087
20
-39.310858435630905
30
0
10
-54.004727774575599
20
-39.352053357708542
30
0
10
-54.013751817633235
20
-39.393425168669836
30
0
10
-54.02243986115586
20
-39.434972464222199
30
0
10
-54.030792098059628
20
-39.476692744907595
30
0
10
-54.038811256845406
20
-39.518582205979641
30
0
10
-54.046501448629186
20
-39.560636354234013
30
0
10
-54.053867437787034
20
-39.602850396931544
30
0
10
-54.060913812182477
20
-39.645219684819835
30
0
10
-54.067644024010164
20
-39.687740225118901
30
0
10
-54.074060258657262
20
-39.730408748152691
30
0
10
-54.080163929823286
20
-39.773222436575885
30
0
10
-54.085956003808064
20
-39.816178746642954
30
0
10
-54.091437364973388
20
-39.859275207908468
30
0
10
-54.09660924198262
20
-39.902509189153754
30
0
10
-54.101473280475318
20
-39.945877859702598
30
0
10
-54.106031334358576
20
-39.989378305801736
30
0
10
-54.110285336427481
20
-40.033007603979371
30
0
10
-54.114237150866884
20
-40.076762903509348
30
0
10
-54.117888405837633
20
-40.120641522783998
30
0
10
-54.121240459149227
20
-40.164640962431818
30
0
10
-54.124294488560324
20
-40.208758841670409
30
0
10
-54.127051551090346
20
-40.252992853342249
30
0
10
-54.129512651492142
20
-40.297340715724317
30
0
10
-54.131678822473589
20
-40.341800112239135
30
0
10
-54.133551150493531
20
-40.386368683460532
30
0
10
-54.135130735749179
20
-40.431044079501994
30
0
10
-54.13641867083787
20
-40.475823998271963
30
0
10
-54.137416015395459
20
-40.520706223375925
30
0
10
-54.138123771105683
20
-40.565688674449575
30
0
10
-54.138542870794879
20
-40.610769406604923
30
0
10
-54.138674191974381
20
-40.655946527934006
30
0
10
-54.138518566698309
20
-40.701218131941523
30
0
10
-54.13807679428124
20
-40.746582230977523
30
0
10
-54.137349656465517
20
-40.792036670073401
30
0
10
-54.136337928506649
20
-40.837579107042899
30
0
10
-54.135042375012944
20
-40.883207173625244
30
0
10
-54.133463750982422
20
-40.928918604222375
30
0
10
-54.131602801625945
20
-40.974711372712385
30
0
10
-54.129460267627778
20
-41.020583835417277
30
0
10
-54.127036881792556
20
-41.066534841870478
30
0
10
-54.124333308084644
20
-41.112563636602751
30
0
10
-54.121946732679611
20
-41.149448555562387
30
0
10
-54.120031125591396
20
-41.177146965597032
30
0
10
-54.118698216967871
20
-41.19562799866052
30
0
10
-54.118017803347641
20
-41.204872371784198
30
0
0
LINE
5
164
100
AcDbEntity
8
0
100
AcDbLine
10
-57.335463053776351
20
-30.881237534402281
30
0
11
-56.035603064963162
21
-30.811357550621963
31
0
0
ARC
5
165
100
AcDbEntity
8
0
100
AcDbCircle
10
-47.014231576768857
20
-30.317438273381121
30
0
40
8.5492000000000026
210
0
220
0
230
1
100
AcDbArc
50
219.02848678070319
51
227.33514958293335
0
ARC
5
166
100
AcDbEntity
8
0
100
AcDbCircle
10
-51.654139519723742
20
-22.548315097571372
30
0
40
0.49999999999999606
210
-0
220
0
230
1
100
AcDbArc
50
-59.153331401117917
51
27.622691864458332
0
ARC
5
167
100
AcDbEntity
8
0
100
AcDbCircle
10
-55.117875630474124
20
-26.290159577928428
30
0
40
0.49999999999999295
210
-0
220
0
230
1
100
AcDbArc
50
-26.426058673842359
51
60.34996459173172
0
ARC
5
168
100
AcDbEntity
8
0
100
AcDbCircle
10
-47.014231576768857
20
-30.317438273381121
30
0
40
12.999999999999998
210
0
220
0
230
1
100
AcDbArc
50
171.42198280282352
51
176.75983537899475
0
ARC
5
169
100
AcDbEntity
8
0
100
AcDbCircle
10
-44.751087444022424
20
-39.079070499993676
30
0
40
0.49999999999999517
210
0
220
0
230
1
100
AcDbArc
50
104.48303223524881
51
191.25905550082351
0
LINE
5
170
100
AcDbEntity
8
0
100
AcDbLine
10
-44.987306590862005
20
-40.453377495288748
30
0
11
-45.241464661251953
21
-39.176693165508581
31
0
0
LINE
5
171
100
AcDbEntity
8
0
100
AcDbLine
10
-48.519951160460622
20
-21.408908186115205
30
0
11
-48.738160989457569
21
-20.125590737788528
31
0
0
ARC
5
172
100
AcDbEntity
8
0
100
AcDbCircle
10
-47.014231576768857
20
-30.317438273381121
30
0
40
13.000000000000005
210
-0
220
0
230
1
100
AcDbArc
50
335.05834643918701
51
340.39619901535832
0
SPLINE
5
173
100
AcDbEntity
8
0
100
AcDbSpline
70
0
71
5
72
81
73
75
74
0
42
0.000000001
43
0.0000000001
44
0.0000000001
40
0
40
0
40
0
40
0
40
0
40
0
40
0.014285714285714284
40
0.028571428571428567
40
0.042857142857142858
40
0.057142857142857134
40
0.071428571428571438
40
0.085714285714285715
40
0.10000000000000001
40
0.1142857142857143
40
0.12857142857142859
40
0.14285714285714288
40
0.15714285714285714
40
0.17142857142857146
40
0.18571428571428572
40
0.20000000000000004
40
0.21428571428571436
40
0.22857142857142865
40
0.24285714285714291
40
0.25714285714285717
40
0.27142857142857146
40
0.2857142857142857
40
0.30000000000000004
40
0.31428571428571433
40
0.32857142857142863
40
0.34285714285714292
40
0.35714285714285721
40
0.3714285714285715
40
0.38571428571428573
40
0.40000000000000008
40
0.41428571428571442
40
0.42857142857142871
40
0.44285714285714295
40
0.4571428571428573
40
0.47142857142857147
40
0.48571428571428582
40
0.50000000000000011
40
0.51428571428571435
40
0.52857142857142858
40
0.54285714285714282
40
0.55714285714285705
40
0.57142857142857129
40
0.58571428571428552
40
0.59999999999999976
40
0.61428571428571399
40
0.62857142857142823
40
0.64285714285714246
40
0.6571428571428567
40
0.67142857142857093
40
0.68571428571428517
40
0.6999999999999994
40
0.71428571428571364
40
0.72857142857142776
40
0.74285714285714211
40
0.75714285714285634
40
0.77142857142857058
40
0.78571428571428481
40
0.79999999999999905
40
0.81428571428571328
40
0.82857142857142752
40
0.84285714285714175
40
0.85714285714285599
40
0.87142857142857022
40
0.88571428571428445
40
0.89999999999999869
40
0.91428571428571281
40
0.92857142857142716
40
0.94285714285714117
40
0.95714285714285563
40
0.97142857142856975
40
0.98571428571428399
40
1
40
1
40
1
40
1
40
1
40
1
10
-48.231508683427194
20
-40.582131413183404
30
0
10
-48.232439207271149
20
-40.590036390407036
30
0
10
-48.234040669831863
20
-40.605847156931354
30
0
10
-48.235664120117917
20
-40.629565743566289
30
0
10
-48.23634842602273
20
-40.661198483782819
30
0
10
-48.235183712693782
20
-40.700769720260148
30
0
10
-48.232565579745852
20
-40.740391427380793
30
0
10
-48.229051340687043
20
-40.780080935826277
30
0
10
-48.225047845298185
20
-40.819846166107624
30
0
10
-48.220704532567396
20
-40.859680841144836
30
0
10
-48.216002527303452
20
-40.89956995934692
30
0
10
-48.210822431272263
20
-40.93949418266368
30
0
10
-48.205016337848427
20
-40.979434371898229
30
0
10
-48.198487069339436
20
-41.019376680930122
30
0
10
-48.191235218618182
20
-41.059315417671343
30
0
10
-48.183318288200184
20
-41.099249898680327
30
0
10
-48.174825674148337
20
-41.139182374135217
30
0
10
-48.165849478220181
20
-41.179115696226766
30
0
10
-48.156452176841753
20
-41.219050706953965
30
0
10
-48.146652930801622
20
-41.258985117403107
30
0
10
-48.136445497243372
20
-41.298914887232961
30
0
10
-48.125809080484473
20
-41.338835046043997
30
0
10
-48.114721014638619
20
-41.378740661069678
30
0
10
-48.103171086260375
20
-41.418627930304915
30
0
10
-48.091165890067117
20
-41.45849450360128
30
0
10
-48.078721370328694
20
-41.49833888760061
30
0
10
-48.065858322962136
20
-41.538160080056798
30
0
10
-48.0525971402826
20
-41.577957146302005
30
0
10
-48.03895180565226
20
-41.617728735476732
30
0
10
-48.024928650920373
20
-41.657472974350931
30
0
10
-48.010529514829287
20
-41.697187709643941
30
0
10
-47.99575373323421
20
-41.736870657790178
30
0
10
-47.980600416710487
20
-41.776519577905361
30
0
10
-47.965071078858614
20
-41.816132471609862
30
0
10
-47.949170072040701
20
-41.855707613286377
30
0
10
-47.932903283957337
20
-41.895243445647949
30
0
10
-47.916277313807065
20
-41.93473851260201
30
0
10
-47.899298534721936
20
-41.974191383334798
30
0
10
-47.881972009532738
20
-42.013600565303477
30
0
10
-47.864301344424476
20
-42.052964489390931
30
0
10
-47.846289251848745
20
-42.092281549799139
30
0
10
-47.827937919961315
20
-42.131550129014371
30
0
10
-47.809249428358342
20
-42.170768626887707
30
0
10
-47.790226233201423
20
-42.2099354941627
30
0
10
-47.770871249269725
20
-42.24904923922292
30
0
10
-47.751187611463152
20
-42.288108413160998
30
0
10
-47.731178526300482
20
-42.327111601543876
30
0
10
-47.710847103252831
20
-42.366057414042508
30
0
10
-47.690196161802767
20
-42.404944474995176
30
0
10
-47.669228195474602
20
-42.443771415884051
30
0
10
-47.647945482210091
20
-42.482536870611902
30
0
10
-47.626350158574127
20
-42.52123946974212
30
0
10
-47.604444303411142
20
-42.55987783697762
30
0
10
-47.582230037926635
20
-42.598450581813381
30
0
10
-47.559709551710057
20
-42.636956306757874
30
0
10
-47.536885040750782
20
-42.675393629772252
30
0
10
-47.513758668804797
20
-42.713761204916587
30
0
10
-47.490332525567894
20
-42.75205774052349
30
0
10
-47.466608578439889
20
-42.790282028030333
30
0
10
-47.442588663650078
20
-42.828432935617215
30
0
10
-47.4182745422506
20
-42.866509346128261
30
0
10
-47.393667944939189
20
-42.90451010556005
30
0
10
-47.368770618746652
20
-42.942433973937106
30
0
10
-47.343584386380535
20
-42.980279561026279
30
0
10
-47.318111166308761
20
-43.018045315589873
30
0
10
-47.292352882139227
20
-43.055729658698652
30
0
10
-47.266311393891414
20
-43.093331092592933
30
0
10
-47.239988423880881
20
-43.130848315681938
30
0
10
-47.213385483850232
20
-43.168280345659902
30
0
10
-47.186503812263176
20
-43.205626610876834
30
0
10
-47.159344376119556
20
-43.24288683475784
30
0
10
-47.137395168390597
20
-43.272626123062921
30
0
10
-47.120808766116767
20
-43.294891852976292
30
0
10
-47.109695851205437
20
-43.309718462523477
30
0
10
-47.104125565401176
20
-43.317127464696753
30
0
0
SPLINE
5
174
100
AcDbEntity
8
0
100
AcDbSpline
70
0
71
5
72
81
73
75
74
0
42
0.000000001
43
0.0000000001
44
0.0000000001
40
0
40
0
40
0
40
0
40
0
40
0
40
0.014285714285714284
40
0.028571428571428567
40
0.042857142857142858
40
0.057142857142857134
40
0.071428571428571438
40
0.085714285714285715
40
0.10000000000000001
40
0.1142857142857143
40
0.12857142857142859
40
0.14285714285714288
40
0.15714285714285714
40
0.17142857142857146
40
0.18571428571428572
40
0.20000000000000004
40
0.21428571428571436
40
0.22857142857142865
40
0.24285714285714291
40
0.25714285714285717
40
0.27142857142857146
40
0.2857142857142857
40
0.30000000000000004
40
0.31428571428571433
40
0.32857142857142863
40
0.34285714285714292
40
0.35714285714285721
40
0.3714285714285715
40
0.38571428571428573
40
0.40000000000000008
40
0.41428571428571442
40
0.42857142857142871
40
0.44285714285714295
40
0.4571428571428573
40
0.47142857142857147
40
0.48571428571428582
40
0.50000000000000011
40
0.51428571428571435
40
0.52857142857142858
40
0.54285714285714282
40
0.55714285714285705
40
0.57142857142857129
40
0.58571428571428552
40
0.59999999999999976
40
0.61428571428571399
40
0.62857142857142823
40
0.64285714285714246
40
0.6571428571428567
40
0.67142857142857093
40
0.68571428571428517
40
0.6999999999999994
40
0.71428571428571364
40
0.72857142857142776
40
0.74285714285714211
40
0.75714285714285634
40
0.77142857142857058
40
0.78571428571428481
40
0.79999999999999905
40
0.81428571428571328
40
0.82857142857142752
40
0.84285714285714175
40
0.85714285714285599
40
0.87142857142857022
40
0.88571428571428445
40
0.89999999999999869
40
0.91428571428571281
40
0.92857142857142716
40
0.94285714285714117
40
0.95714285714285563
40
0.97142857142856975
40
0.98571428571428399
40
1
40
1
40
1
40
1
40
1
40
1
10
-39.829171304978559
20
-37.748494571071177
30
0
10
-39.823643498828616
20
-37.754221516042008
30
0
10
-39.812793962665573
20
-37.765833259471258
30
0
10
-39.797137877046595
20
-37.783724428406849
30
0
10
-39.777436238614442
20
-37.808482133697652
30
0
10
-39.7543983488941
20
-37.840676775343695
30
0
10
-39.732486469534308
20
-37.873791784602474
30
0
10
-39.711246616083493
20
-37.907503438109742
30
0
10
-39.690350236273048
20
-37.941571646537469
30
0
10
-39.66968221371917
20
-37.975900913126033
30
0
10
-39.649266653687654
20
-38.010490731180496
30
0
10
-39.629210280047459
20
-38.045398020945584
30
0
10
-39.60964238213014
20
-38.080697125863963
30
0
10
-39.590648675579807
20
-38.116435879473187
30
0
10
-39.572232135794494
20
-38.152609393177315
30
0
10
-39.554347418365417
20
-38.18918229903921
30
0
10
-39.536922022587376
20
-38.226102248543064
30
0
10
-39.519880930081904
20
-38.26331573363688
30
0
10
-39.503173914570489
20
-38.300785588022507
30
0
10
-39.486787114817055
20
-38.338498386310576
30
0
10
-39.470727945518334
20
-38.37645469408605
30
0
10
-39.455015965207018
20
-38.414663150161424
30
0
10
-39.439672197861697
20
-38.453133555909659
30
0
10
-39.424707073483624
20
-38.491869071201641
30
0
10
-39.410116767521075
20
-38.53086383205423
30
0
10
-39.395889496524596
20
-38.570106994105728
30
0
10
-39.38200931886702
20
-38.609585165598062
30
0
10
-39.368460573165919
20
-38.649285252974714
30
0
10
-39.355232950088961
20
-38.689197712813623
30
0
10
-39.342322545438336
20
-38.72931721984051
30
0
10
-39.32972920006069
20
-38.769640946996645
30
0
10
-39.3174548254065
20
-38.810167479320199
30
0
10
-39.305501486347261
20
-38.850895572245136
30
0
10
-39.293869188655485
20
-38.891822718886139
30
0
10
-39.282555513938064
20
-38.932944910230056
30
0
10
-39.271556720095603
20
-38.974257341398925
30
0
10
-39.260868437561463
20
-39.015754857151236
30
0
10
-39.250486461355031
20
-39.057432459269521
30
0
10
-39.240407666567201
20
-39.099285893945734
30
0
10
-39.230630133806031
20
-39.141311728595817
30
0
10
-39.221152677092903
20
-39.183507042700008
30
0
10
-39.211974534758987
20
-39.225869223934254
30
0
10
-39.203095021006639
20
-39.268395739537553
30
0
10
-39.194513119560916
20
-39.31108386919545
30
0
10
-39.186227414289135
20
-39.353930660718063
30
0
10
-39.178236288029929
20
-39.3969330625944
30
0
10
-39.170538045752387
20
-39.440088007373802
30
0
10
-39.16313105505477
20
-39.483392505559657
30
0
10
-39.156013905414518
20
-39.526843754946867
30
0
10
-39.149185441367791
20
-39.570439156418672
30
0
10
-39.142644677537177
20
-39.614176243343472
30
0
10
-39.136390743069917
20
-39.658052632051493
30
0
10
-39.130422817199829
20
-39.702065968369652
30
0
10
-39.124740054055763
20
-39.746213861164556
30
0
10
-39.119341557580469
20
-39.790493872329165
30
0
10
-39.114226417265527
20
-39.834903572177268
30
0
10
-39.109393726390657
20
-39.879440579269669
30
0
10
-39.104842604302043
20
-39.92410260020673
30
0
10
-39.100572217335191
20
-39.968887481784009
30
0
10
-39.096581789730031
20
-40.013793211304204
30
0
10
-39.092870596668831
20
-40.058817833267042
30
0
10
-39.089437959804108
20
-40.103959381233338
30
0
10
-39.086283239856485
20
-40.149215810459154
30
0
10
-39.083405828323571
20
-40.194584910800621
30
0
10
-39.080805138006355
20
-40.240064285999225
30
0
10
-39.078480594385944
20
-40.28565151464781
30
0
10
-39.07643162438751
20
-40.331344278440454
30
0
10
-39.07465764571414
20
-40.377140498569986
30
0
10
-39.073158050272582
20
-40.423038477828932
30
0
10
-39.07193219873745
20
-40.469037011294482
30
0
10
-39.0709794891036
20
-40.515135293254417
30
0
10
-39.070435429958081
20
-40.552093336877789
30
0
10
-39.070149914232545
20
-40.579856440986212
30
0
10
-39.070014009486883
20
-40.598384980010955
30
0
10
-39.069959666882596
20
-40.607654200260043
30
0
0
SPLINE
5
175
100
AcDbEntity
8
0
100
AcDbSpline
70
0
71
5
72
81
73
75
74
0
42
0.000000001
43
0.0000000001
44
0.0000000001
40
0
40
0
40
0
40
0
40
0
40
0
40
0.014285714285714284
40
0.028571428571428567
40
0.042857142857142858
40
0.057142857142857134
40
0.071428571428571438
40
0.085714285714285715
40
0.10000000000000001
40
0.1142857142857143
40
0.12857142857142859
40
0.14285714285714288
40
0.15714285714285714
40
0.17142857142857146
40
0.18571428571428572
40
0.20000000000000004
40
0.21428571428571436
40
0.22857142857142865
40
0.24285714285714291
40
0.25714285714285717
40
0.27142857142857146
40
0.2857142857142857
40
0.30000000000000004
40
0.31428571428571433
40
0.32857142857142863
40
0.34285714285714292
40
0.35714285714285721
40
0.3714285714285715
40
0.38571428571428573
40
0.40000000000000008
40
0.41428571428571442
40
0.42857142857142871
40
0.44285714285714295
40
0.4571428571428573
40
0.47142857142857147
40
0.48571428571428582
40
0.50000000000000011
40
0.51428571428571435
40
0.52857142857142858
40
0.54285714285714282
40
0.55714285714285705
40
0.57142857142857129
40
0.58571428571428552
40
0.59999999999999976
40
0.61428571428571399
40
0.62857142857142823
40
0.64285714285714246
40
0.6571428571428567
40
0.67142857142857093
40
0.68571428571428517
40
0.6999999999999994
40
0.71428571428571364
40
0.72857142857142776
40
0.74285714285714211
40
0.75714285714285634
40
0.77142857142857058
40
0.78571428571428481
40
0.79999999999999905
40
0.81428571428571328
40
0.82857142857142752
40
0.84285714285714175
40
0.85714285714285599
40
0.87142857142857022
40
0.88571428571428445
40
0.89999999999999869
40
0.91428571428571281
40
0.92857142857142716
40
0.94285714285714117
40
0.95714285714285563
40
0.97142857142856975
40
0.98571428571428399
40
1
40
1
40
1
40
1
40
1
40
1
10
-36.952241888178591
20
-32.68430377767185
30
0
10
-36.944495381515587
20
-32.686133032725238
30
0
10
-36.929090388429174
20
-32.690035750807212
30
0
10
-36.906246954893327
20
-32.696622440953561
30
0
10
-36.876287855932965
20
-32.706798438087084
30
0
10
-36.839501412439553
20
-32.721427070579161
30
0
10
-36.803164640841452
20
-32.737438732738788
30
0
10
-36.767070643179181
20
-32.75431564861708
30
0
10
-36.731072825786647
20
-32.771678213451551
30
0
10
-36.695125976045453
20
-32.789383853639983
30
0
10
-36.659250646535597
20
-32.807445175214028
30
0
10
-36.623505845681258
20
-32.82596776181046
30
0
10
-36.587960145489731
20
-32.845084054202893
30
0
10
-36.552659793786574
20
-32.864880633899759
30
0
10
-36.517609936610398
20
-32.88535499697403
30
0
10
-36.482791549167601
20
-32.906452874985447
30
0
10
-36.448171941728155
20
-32.928091032719571
30
0
10
-36.413716933453131
20
-32.950183898341209
30
0
10
-36.379404364926103
20
-32.972673051194441
30
0
10
-36.345229833646727
20
-32.99553970317308
30
0
10
-36.311199271476532
20
-33.018788338765091
30
0
10
-36.277324461605545
20
-33.042436799543168
30
0
10
-36.243617791507795
20
-33.066504697367904
30
0
10
-36.210086327103461
20
-33.091000329376236
30
0
10
-36.176730021283525
20
-33.115916694762852
30
0
10
-36.143544824084145
20
-33.14123830005645
30
0
10
-36.110524564686088
20
-33.166945260698867
30
0
10
-36.07766314680724
20
-33.193018094506847
30
0
10
-36.044957057248844
20
-33.219443199396984
30
0
10
-36.01240589065128
20
-33.246213984694812
30
0
10
-35.980011041549616
20
-33.27332798608235
30
0
10
-35.947774882944444
20
-33.300785046626132
30
0
10
-35.915699824779388
20
-33.328585235684407
30
0
10
-35.883787227235125
20
-33.356726447451877
30
0
10
-35.852037223266045
20
-33.38520400185007
30
0
10
-35.820449262530978
20
-33.414011833626702
30
0
10
-35.789022456250528
20
-33.443143243550601
30
0
10
-35.75775596921028
20
-33.472591753469487
30
0
10
-35.726649472351653
20
-33.502352095398905
30
0
10
-35.695703206774489
20
-33.532420343963764
30
0
10
-35.664917753722236
20
-33.562793401078068
30
0
10
-35.634293884767317
20
-33.593468657325666
30
0
10
-35.603832392294017
20
-33.62444361124227
30
0
10
-35.573533892070493
20
-33.655715424913993
30
0
10
-35.543398788844492
20
-33.687280849181541
30
0
10
-35.513427371944623
20
-33.719136442647091
30
0
10
-35.483619873809282
20
-33.751278708403973
30
0
10
-35.453976537418569
20
-33.783704248984655
30
0
10
-35.424497691151842
20
-33.816409944438121
30
0
10
-35.395183768159704
20
-33.84939298355728
30
0
10
-35.366035273051622
20
-33.88265075854433
30
0
10
-35.337052761928852
20
-33.916180793310161
30
0
10
-35.308236817080974
20
-33.949980663658565
30
0
10
-35.279588019660217
20
-33.984047900727724
30
0
10
-35.251106933995409
20
-34.018379969006318
30
0
10
-35.222794107705681
20
-34.052974332254244
30
0
10
-35.194650065512683
20
-34.087828496867353
30
0
10
-35.166675306468647
20
-34.122940057397692
30
0
10
-35.138870293360618
20
-34.158306751741392
30
0
10
-35.111235461724036
20
-34.19392646730217
30
0
10
-35.083771259026676
20
-34.229797167142458
30
0
10
-35.056478177743578
20
-34.265916830245999
30
0
10
-35.029356785550803
20
-34.302283390844217
30
0
10
-35.002407765437475
20
-34.338894660664522
30
0
10
-34.975631918935576
20
-34.375748306382278
30
0
10
-34.949030071840596
20
-34.412841980371695
30
0
10
-34.922602995422075
20
-34.450173422522205
30
0
10
-34.896351323708743
20
-34.487740569216356
30
0
10
-34.870275462719576
20
-34.525541663912392
30
0
10
-34.844375526050356
20
-34.563575347319322
30
0
10
-34.818651442863001
20
-34.601840616160302
30
0
10
-34.798212724268652
20
-34.632637560343838
30
0
10
-34.782962665855599
20
-34.655839008302131
30
0
10
-34.77283105102358
20
-34.671352731562116
30
0
10
-34.767774016303107
20
-34.679121116013235
30
0
0
SPLINE
5
176
100
AcDbEntity
8
0
100
AcDbSpline
70
0
71
5
72
81
73
75
74
0
42
0.000000001
43
0.0000000001
44
0.0000000001
40
0
40
0
40
0
40
0
40
0
40
0
40
0.014285714285714284
40
0.028571428571428567
40
0.042857142857142858
40
0.057142857142857134
40
0.071428571428571438
40
0.085714285714285715
40
0.10000000000000001
40
0.1142857142857143
40
0.12857142857142859
40
0.14285714285714288
40
0.15714285714285714
40
0.17142857142857146
40
0.18571428571428572
40
0.20000000000000004
40
0.21428571428571436
40
0.22857142857142865
40
0.24285714285714291
40
0.25714285714285717
40
0.27142857142857146
40
0.2857142857142857
40
0.30000000000000004
40
0.31428571428571433
40
0.32857142857142863
40
0.34285714285714292
40
0.35714285714285721
40
0.3714285714285715
40
0.38571428571428573
40
0.40000000000000008
40
0.41428571428571442
40
0.42857142857142871
40
0.44285714285714295
40
0.4571428571428573
40
0.47142857142857147
40
0.48571428571428582
40
0.50000000000000011
40
0.51428571428571435
40
0.52857142857142858
40
0.54285714285714282
40
0.55714285714285705
40
0.57142857142857129
40
0.58571428571428552
40
0.59999999999999976
40
0.61428571428571399
40
0.62857142857142823
40
0.64285714285714246
40
0.6571428571428567
40
0.67142857142857093
40
0.68571428571428517
40
0.6999999999999994
40
0.71428571428571364
40
0.72857142857142776
40
0.74285714285714211
40
0.75714285714285634
40
0.77142857142857058
40
0.78571428571428481
40
0.79999999999999905
40
0.81428571428571328
40
0.82857142857142752
40
0.84285714285714175
40
0.85714285714285599
40
0.87142857142857022
40
0.88571428571428445
40
0.89999999999999869
40
0.91428571428571281
40
0.92857142857142716
40
0.94285714285714117
40
0.95714285714285563
40
0.97142857142856975
40
0.98571428571428399
40
1
40
1
40
1
40
1
40
1
40
1
10
-44.987306590862005
20
-40.453377495288748
30
0
10
-44.985752524620139
20
-40.4611838656134
30
0
10
-44.98290309645305
20
-40.476817987895799
30
0
10
-44.979405055314359
20
-40.500333315896533
30
0
10
-44.976216008407491
20
-40.531812332844382
30
0
10
-44.974241039668485
20
-40.571351412398222
30
0
10
-44.973710919421805
20
-40.61105598729597
30
0
10
-44.974068713579449
20
-40.65089916663883
30
0
10
-44.974908224294126
20
-40.690856603198462
30
0
10
-44.976080980055151
20
-40.730910196604349
30
0
10
-44.977606985562495
20
-40.771046488306879
30
0
10
-44.979606796055698
20
-40.811255663383371
30
0
10
-44.982229369741169
20
-40.85153036442761
30
0
10
-44.985572675970296
20
-40.891864490196248
30
0
10
-44.989636574832616
20
-40.932252319519009
30
0
10
-44.994363798833604
20
-40.972688614032037
30
0
10
-44.999665054754516
20
-41.01316853220203
30
0
10
-45.005448304482492
20
-41.053687618188668
30
0
10
-45.011651201365439
20
-41.094241760088572
30
0
10
-45.018254826276063
20
-41.13482715769554
30
0
10
-45.025265722632497
20
-41.17544027812221
30
0
10
-45.032705014614152
20
-41.216077814658988
30
0
10
-45.040595687739511
20
-41.256736646324548
30
0
10
-45.048948224639233
20
-41.297413792487063
30
0
10
-45.057756237586979
20
-41.338106387758756
30
0
10
-45.067003950809706
20
-41.378811679895726
30
0
10
-45.076670713226214
20
-41.419527021728591
30
0
10
-45.086736270732111
20
-41.460249865439252
30
0
10
-45.097186791001633
20
-41.500977756236011
30
0
10
-45.108016110553955
20
-41.541708324981848
30
0
10
-45.119222567077372
20
-41.582439279448316
30
0
10
-45.130807003600296
20
-41.623168395885706
30
0
10
-45.142770484339927
20
-41.663893510944597
30
0
10
-45.155111658827884
20
-41.704612512577995
30
0
10
-45.167826325146294
20
-41.7453233356715
30
0
10
-45.180908737527659
20
-41.786023961236161
30
0
10
-45.194352432924617
20
-41.826712414772977
30
0
10
-45.208151171642008
20
-41.867386764897958
30
0
10
-45.222300025056725
20
-41.908045122533515
30
0
10
-45.236795522678506
20
-41.948685637707754
30
0
10
-45.251635087846445
20
-41.989306494711613
30
0
10
-45.266816667474856
20
-42.029905907707473
30
0
10
-45.282338315320189
20
-42.070482116771458
30
0
10
-45.298197705724462
20
-42.111033382869039
30
0
10
-45.31439205128671
20
-42.151557988079247
30
0
10
-45.330918341792852
20
-42.192054239611132
30
0
10
-45.347773492903059
20
-42.232520473363834
30
0
10
-45.364954515109744
20
-42.272955056955801
30
0
10
-45.382458706819364
20
-42.313356395608167
30
0
10
-45.400283690805274
20
-42.353722927495724
30
0
10
-45.418427304553468
20
-42.394053110291132
30
0
10
-45.436887526746915
20
-42.434345409542331
30
0
10
-45.455662394151027
20
-42.474598288532576
30
0
10
-45.474749902429437
20
-42.514810193024942
30
0
10
-45.49414797963059
20
-42.554979556398408
30
0
10
-45.513854546198544
20
-42.595104826928875
30
0
10
-45.533867551848431
20
-42.635184491432184
30
0
10
-45.554185015821673
20
-42.675217096695199
30
0
10
-45.574805072684853
20
-42.715201282040134
30
0
10
-45.595725981680751
20
-42.755135773685794
30
0
10
-45.616946075830604
20
-42.795019318426753
30
0
10
-45.638463721334944
20
-42.834850628731466
30
0
10
-45.66027727492569
20
-42.874628330072319
30
0
10
-45.682385029804053
20
-42.914350892139275
30
0
10
-45.70478519647164
20
-42.954016616535107
30
0
10
-45.727475982500827
20
-42.993623776850846
30
0
10
-45.75045565241966
20
-43.033170732631127
30
0
10
-45.773722592480723
20
-43.072656049885509
30
0
10
-45.797275373543826
20
-43.112078629592318
30
0
10
-45.821112806343734
20
-43.151437803751293
30
0
10
-45.845233948840594
20
-43.19073322002275
30
0
10
-45.864757284078472
20
-43.222118445368658
30
0
10
-45.879526960265977
20
-43.245628616237454
30
0
10
-45.889429914403131
20
-43.261289290803013
30
0
10
-45.894395517307942
20
-43.269116434914146
30
0
0
LINE
5
177
100
AcDbEntity
8
0
100
AcDbLine
10
-36.952241888178591
20
-32.68430377767185
30
0
11
-38.219135880629921
21
-32.385140252921154
31
0
0
ARC
5
178
100
AcDbEntity
8
0
100
AcDbCircle
10
-47.014231576768857
20
-30.317438273381121
30
0
40
13.000000000000025
210
-0
220
0
230
1
100
AcDbArc
50
302.33107371191437
51
307.66892628808563
0
SPLINE
5
179
100
AcDbEntity
8
0
100
AcDbSpline
70
0
71
5
72
81
73
75
74
0
42
0.000000001
43
0.0000000001
44
0.0000000001
40
0
40
0
40
0
40
0
40
0
40
0
40
0.014285714285714284
40
0.028571428571428567
40
0.042857142857142858
40
0.057142857142857134
40
0.071428571428571438
40
0.085714285714285715
40
0.10000000000000001
40
0.1142857142857143
40
0.12857142857142859
40
0.14285714285714288
40
0.15714285714285714
40
0.17142857142857146
40
0.18571428571428572
40
0.20000000000000004
40
0.21428571428571436
40
0.22857142857142865
40
0.24285714285714291
40
0.25714285714285717
40
0.27142857142857146
40
0.2857142857142857
40
0.30000000000000004
40
0.31428571428571433
40
0.32857142857142863
40
0.34285714285714292
40
0.35714285714285721
40
0.3714285714285715
40
0.38571428571428573
40
0.40000000000000008
40
0.41428571428571442
40
0.42857142857142871
40
0.44285714285714295
40
0.4571428571428573
40
0.47142857142857147
40
0.48571428571428582
40
0.50000000000000011
40
0.51428571428571435
40
0.52857142857142858
40
0.54285714285714282
40
0.55714285714285705
40
0.57142857142857129
40
0.58571428571428552
40
0.59999999999999976
40
0.61428571428571399
40
0.62857142857142823
40
0.64285714285714246
40
0.6571428571428567
40
0.67142857142857093
40
0.68571428571428517
40
0.6999999999999994
40
0.71428571428571364
40
0.72857142857142776
40
0.74285714285714211
40
0.75714285714285634
40
0.77142857142857058
40
0.78571428571428481
40
0.79999999999999905
40
0.81428571428571328
40
0.82857142857142752
40
0.84285714285714175
40
0.85714285714285599
40
0.87142857142857022
40
0.88571428571428445
40
0.89999999999999869
40
0.91428571428571281
40
0.92857142857142716
40
0.94285714285714117
40
0.95714285714285563
40
0.97142857142856975
40
0.98571428571428399
40
1
40
1
40
1
40
1
40
1
40
1
10
-38.182813459398048
20
-35.688820110941471
30
0
10
-38.176009392767639
20
-35.692950391418492
30
0
10
-38.162292685256503
20
-35.700975162784346
30
0
10
-38.141391905590474
20
-35.71230496208274
30
0
10
-38.112902023935135
20
-35.726068143816711
30
0
10
-38.076422921736906
20
-35.741447169023026
30
0
10
-38.03929413749681
20
-35.755525083504168
30
0
10
-38.001731423070602
20
-35.768816036883877
30
0
10
-37.963896585215025
20
-35.781693403039256
30
0
10
-37.925857412962095
20
-35.794290508862041
30
0
10
-37.887619711201154
20
-35.806583952988163
30
0
10
-37.849151470622409
20
-35.81845709364741
30
0
10
-37.810408658218961
20
-35.829767439531231
30
0
10
-37.77136349979267
20
-35.840420842815
30
0
10
-37.732021419337165
20
-35.850415478216064
30
0
10
-37.692406925940986
20
-35.859803367950413
30
0
10
-37.652555109236744
20
-35.86866676429495
30
0
10
-37.612501635233279
20
-35.877090630798001
30
0
10
-37.572271691666693
20
-35.885132147794664
30
0
10
-37.531875320285351
20
-35.892807793702154
30
0
10
-37.491313602936671
20
-35.900110211400154
30
0
10
-37.450582422016318
20
-35.907018419691845
30
0
10
-37.409676848777124
20
-35.913509751816605
30
0
10
-37.368596098826025
20
-35.919573337887684
30
0
10
-37.327345049477792
20
-35.925214200384005
30
0
10
-37.285931682627876
20
-35.930446222360274
30
0
10
-37.244365548887536
20
-35.935287904099816
30
0
10
-37.202655969734401
20
-35.939757406829983
30
0
10
-37.160809982852115
20
-35.943866889097002
30
0
10
-37.118831922535847
20
-35.947621332385744
30
0
10
-37.076724511319789
20
-35.951021514769927
30
0
10
-37.034489550512539
20
-35.954065883494813
30
0
10
-36.992128709013812
20
-35.956752698614281
30
0
10
-36.949644433385934
20
-35.959082506790836
30
0
10
-36.907040101342304
20
-35.961058550225012
30
0
10
-36.864319575280106
20
-35.962685537637242
30
0
10
-36.82148692111388
20
-35.963968866986988
30
0
10
-36.778546087852334
20
-35.964913741097526
30
0
10
-36.735500536336133
20
-35.965524145257014
30
0
10
-36.692353191947788
20
-35.965802707931964
30
0
10
-36.649106642165641
20
-35.965751229382455
30
0
10
-36.605763267324754
20
-35.965371028085528
30
0
10
-36.562325386867165
20
-35.964663330982503
30
0
10
-36.518795430372585
20
-35.96362972869219
30
0
10
-36.47517596550604
20
-35.962272252951102
30
0
10
-36.431469612524488
20
-35.960593153466597
30
0
10
-36.387678990077589
20
-35.958594759414041
30
0
10
-36.34380665457406
20
-35.956279321704315
30
0
10
-36.299855028615227
20
-35.953648833558404
30
0
10
-36.25582639289614
20
-35.950704994662964
30
0
10
-36.211722936353738
20
-35.947449309609397
30
0
10
-36.167546792232478
20
-35.943883153000975
30
0
10
-36.123300076039484
20
-35.940007844086622
30
0
10
-36.078984933803142
20
-35.935824734746092
30
0
10
-36.034603546314841
20
-35.93133523616104
30
0
10
-35.990158082968286
20
-35.926540771753899
30
0
10
-35.945650666930213
20
-35.921442750622809
30
0
10
-35.90108334123358
20
-35.916042537043829
30
0
10
-35.856458022513088
20
-35.910341418571754
30
0
10
-35.811776503105527
20
-35.904340595324477
30
0
10
-35.767040530779141
20
-35.898041205128109
30
0
10
-35.722251874210158
20
-35.891444342890267
30
0
10
-35.677412387062773
20
-35.88455108266168
30
0
10
-35.632524091117659
20
-35.877362504911751
30
0
10
-35.587589194390588
20
-35.869879710332803
30
0
10
-35.542609932221737
20
-35.86210379278927
30
0
10
-35.497588439701232
20
-35.85403582202251
30
0
10
-35.452526616273452
20
-35.845676824005473
30
0
10
-35.407425983475726
20
-35.837027765803072
30
0
10
-35.362287575775568
20
-35.828089536489543
30
0
10
-35.317112046460593
20
-35.818862900785511
30
0
10
-35.280942207885097
20
-35.811251346000468
30
0
10
-35.253798347039748
20
-35.805413342285846
30
0
10
-35.23569511692061
20
-35.80146387551865
30
0
10
-35.226641671140364
20
-35.799474776061984
30
0
0
LINE
5
180
100
AcDbEntity
8
0
100
AcDbLine
10
-39.829171304978559
20
-37.748494571071177
30
0
11
-40.733210339276731
21
-36.811887595271969
31
0
0
ARC
5
181
100
AcDbEntity
8
0
100
AcDbCircle
10
-47.014231576768857
20
-30.317438273381121
30
0
40
8.5492000000000221
210
-0
220
0
230
1
100
AcDbArc
50
284.48303223524863
51
292.78969503747862
0
ARC
5
182
100
AcDbEntity
8
0
100
AcDbCircle
10
-47.014231576768857
20
-30.317438273381121
30
0
40
8.549200000000015
210
-0
220
0
230
1
100
AcDbArc
50
317.21030496252115
51
325.51696776475126
0
SPLINE
5
183
100
AcDbEntity
8
0
100
AcDbSpline
70
0
71
5
72
81
73
75
74
0
42
0.000000001
43
0.0000000001
44
0.0000000001
40
0
40
0
40
0
40
0
40
0
40
0
40
0.014285714285714284
40
0.028571428571428567
40
0.042857142857142858
40
0.057142857142857134
40
0.071428571428571438
40
0.085714285714285715
40
0.10000000000000001
40
0.1142857142857143
40
0.12857142857142859
40
0.14285714285714288
40
0.15714285714285714
40
0.17142857142857146
40
0.18571428571428572
40
0.20000000000000004
40
0.21428571428571436
40
0.22857142857142865
40
0.24285714285714291
40
0.25714285714285717
40
0.27142857142857146
40
0.2857142857142857
40
0.30000000000000004
40
0.31428571428571433
40
0.32857142857142863
40
0.34285714285714292
40
0.35714285714285721
40
0.3714285714285715
40
0.38571428571428573
40
0.40000000000000008
40
0.41428571428571442
40
0.42857142857142871
40
0.44285714285714295
40
0.4571428571428573
40
0.47142857142857147
40
0.48571428571428582
40
0.50000000000000011
40
0.51428571428571435
40
0.52857142857142858
40
0.54285714285714282
40
0.55714285714285705
40
0.57142857142857129
40
0.58571428571428552
40
0.59999999999999976
40
0.61428571428571399
40
0.62857142857142823
40
0.64285714285714246
40
0.6571428571428567
40
0.67142857142857093
40
0.68571428571428517
40
0.6999999999999994
40
0.71428571428571364
40
0.72857142857142776
40
0.74285714285714211
40
0.75714285714285634
40
0.77142857142857058
40
0.78571428571428481
40
0.79999999999999905
40
0.81428571428571328
40
0.82857142857142752
40
0.84285714285714175
40
0.85714285714285599
40
0.87142857142857022
40
0.88571428571428445
40
0.89999999999999869
40
0.91428571428571281
40
0.92857142857142716
40
0.94285714285714117
40
0.95714285714285563
40
0.97142857142856975
40
0.98571428571428399
40
1
40
1
40
1
40
1
40
1
40
1
10
-42.488758153146151
20
-39.61075733068153
30
0
10
-42.485267206269086
20
-39.617910499869495
30
0
10
-42.478066496567692
20
-39.632077179092818
30
0
10
-42.466608993789016
20
-39.652908227382973
30
0
10
-42.450082718019935
20
-39.679889345547039
30
0
10
-42.427709073180388
20
-39.712549096465828
30
0
10
-42.404085447461846
20
-39.744465528020683
30
0
10
-42.37967131314803
20
-39.775954526139301
30
0
10
-42.354804651902846
20
-39.807242713577594
30
0
10
-42.329614573448701
20
-39.838405602536618
30
0
10
-42.304093309436645
20
-39.86942036817603
30
0
10
-42.278150870619768
20
-39.900206190734018
30
0
10
-42.251673177457903
20
-39.930667004934655
30
0
10
-42.224585964651823
20
-39.960738624453064
30
0
10
-42.196892808333111
20
-39.990416581331431
30
0
10
-42.168642452192451
20
-40.019731388829094
30
0
10
-42.139908884445383
20
-40.048733271076877
30
0
10
-42.110768044010143
20
-40.077474421459854
30
0
10
-42.081272034181829
20
-40.105989325618651
30
0
10
-42.051438211521635
20
-40.134286417100938
30
0
10
-42.021263508578002
20
-40.16235892181237
30
0
10
-41.990733118110342
20
-40.190191415392
30
0
10
-41.959830639216698
20
-40.21776749402926
30
0
10
-41.928549535319164
20
-40.245078437468436
30
0
10
-41.89689662483314
20
-40.272125834012215
30
0
10
-41.864886128302395
20
-40.298917047490917
30
0
10
-41.832536082220741
20
-40.325462477883001
30
0
10
-41.799864147014929
20
-40.351772363813829
30
0
10
-41.766882816567531
20
-40.377853128844372
30
0
10
-41.733598430313776
20
-40.403706620369391
30
0
10
-41.700013699253617
20
-40.42933202103314
30
0
10
-41.666129299261584
20
-40.454727050714254
30
0
10
-41.631945693619592
20
-40.479889343401531
30
0
10
-41.597465236054987
20
-40.504818036265334
30
0
10
-41.562692520946953
20
-40.529514030688603
30
0
10
-41.52763334327723
20
-40.553979199729433
30
0
10
-41.492294041868064
20
-40.578215886240883
30
0
10
-41.456680751695608
20
-40.602226332121205
30
0
10
-41.420798538813699
20
-40.626012018936386
30
0
10
-41.384651285267005
20
-40.649573576311937
30
0
10
-41.34824214107492
20
-40.672911119826651
30
0
10
-41.311573821525243
20
-40.69602447174772
30
0
10
-41.274648941191323
20
-40.718913410258736
30
0
10
-41.237470403919104
20
-40.741577959943498
30
0
10
-41.200041468205569
20
-40.764018441822998
30
0
10
-41.162365554634775
20
-40.786235331853618
30
0
10
-41.124446125402287
20
-40.808229173713514
30
0
10
-41.086286548030216
20
-40.830000478890476
30
0
10
-41.047889938157169
20
-40.851549614431548
30
0
10
-41.009259133345864
20
-40.872876777167278
30
0
10
-40.970396788490774
20
-40.893982049411889
30
0
10
-40.931305441357949
20
-40.914865434236177
30
0
10
-40.891987584865063
20
-40.935526897733467
30
0
10
-40.852445755247444
20
-40.95596641694685
30
0
10
-40.812682550045963
20
-40.976184000013006
30
0
10
-40.77270056383103
20
-40.996179671528367
30
0
10
-40.732502344540094
20
-41.015953469031061
30
0
10
-40.692090348465186
20
-41.035505435676107
30
0
10
-40.651466884086702
20
-41.054835618412646
30
0
10
-40.610634108047009
20
-41.073944057833643
30
0
10
-40.569594105817558
20
-41.092830766224466
30
0
10
-40.528348957255247
20
-41.111495708461483
30
0
10
-40.486900802437269
20
-41.129938785927116
30
0
10
-40.445251926339587
20
-41.14815981451293
30
0
10
-40.403404781542527
20
-41.166158526436746
30
0
10
-40.361361839921628
20
-41.183934633399744
30
0
10
-40.319125475974893
20
-41.201487881008788
30
0
10
-40.276697842299413
20
-41.218818105450062
30
0
10
-40.234080741728633
20
-41.235925297665162
30
0
10
-40.191275525181815
20
-41.252809646315562
30
0
10
-40.148283155678683
20
-41.269471441531245
30
0
10
-40.113740033994034
20
-41.282623085272675
30
0
10
-40.087748902062614
20
-41.292386923139404
30
0
10
-40.070384252827708
20
-41.298851765398879
30
0
10
-40.061692621224516
20
-41.302073090781228
30
0
0
LINE
5
184
100
AcDbEntity
8
0
100
AcDbLine
10
-43.059681256798619
20
-38.440900069146444
30
0
11
-42.488758153146151
21
-39.61075733068153
31
0
0
LINE
5
185
100
AcDbEntity
8
0
100
AcDbLine
10
-39.295577123503342
20
-35.013337890229835
30
0
11
-38.182813459398048
21
-35.688820110941471
31
0
0
ARC
5
186
100
AcDbEntity
8
0
100
AcDbCircle
10
-40.373457570548652
20
-36.464644243438592
30
0
40
0.49999999999999217
210
0
220
0
230
1
100
AcDbArc
50
137.21030496252368
51
223.98632822809677
0
ARC
5
187
100
AcDbEntity
8
0
100
AcDbCircle
10
-39.555031308029612
20
-35.440752824610684
30
0
40
0.49999999999997574
210
0
220
-0
230
1
100
AcDbArc
50
58.740944499177182
51
145.5169677647545
0
ARC
5
188
100
AcDbEntity
8
0
100
AcDbCircle
10
-47.014231576768857
20
-30.317438273381121
30
0
40
13.000000000000021
210
0
220
0
230
1
100
AcDbArc
50
269.60380098464162
51
274.94165356081288
0
ARC
5
189
100
AcDbEntity
8
0
100
AcDbCircle
10
-38.104226522582834
20
-31.898523525472122
30
0
40
0.49999999999999517
210
0
220
0
230
1
100
AcDbArc
50
169.93757768979447
51
256.71360095536846
0
ENDSEC
0
SECTION
2
OBJECTS
0
DICTIONARY
5
C
100
AcDbDictionary
3
ACAD_GROUP
350
D
3
ACAD_MLINESTYLE
350
17
0
DICTIONARY
5
D
100
AcDbDictionary
0
DICTIONARY
5
1A
330
C
100
AcDbDictionary
0
DICTIONARY
5
17
100
AcDbDictionary
0
ENDSEC
0
EOF
