0
SECTION
2
HEADER
9
$INSUNITS
70
4
9
$ACADVER
1
AC1014
9
$HANDSEED
5
FFFF
0
ENDSEC
0
SECTION
2
TABLES
0
TABLE
2
VPORT
5
8
100
AcDbSymbolTable
0
ENDTAB
0
TABLE
2
LTYPE
5
5
100
AcDbSymbolTable
0
LTYPE
5
14
100
AcDbSymbolTableRecord
100
AcDbLinetypeTableRecord
2
BYBLOCK
70
0
0
LTYPE
5
15
100
AcDbSymbolTableRecord
100
AcDbLinetypeTableRecord
2
BYLAYER
70
0
0
ENDTAB
0
TABLE
2
LAYER
5
2
100
AcDbSymbolTable
70
2
0
LAYER
5
50
100
AcDbSymbolTableRecord
100
AcDbLayerTableRecord
2
0
70
0
6
CONTINUOUS
0
ENDTAB
0
TABLE
2
STYLE
5
3
100
AcDbSymbolTable
70
1
0
STYLE
5
11
100
AcDbSymbolTableRecord
100
AcDbTextStyleTableRecord
2
STANDARD
70
0
0
ENDTAB
0
TABLE
2
VIEW
5
6
100
AcDbSymbolTable
70
0
0
ENDTAB
0
TABLE
2
UCS
5
7
100
AcDbSymbolTable
70
0
0
ENDTAB
0
TABLE
2
APPID
5
9
100
AcDbSymbolTable
70
2
0
APPID
5
12
100
AcDbSymbolTableRecord
100
AcDbRegAppTableRecord
2
ACAD
70
0
0
ENDTAB
0
TABLE
2
DIMSTYLE
5
A
100
AcDbSymbolTable
70
1
0
ENDTAB
0
TABLE
2
BLOCK_RECORD
5
1
100
AcDbSymbolTable
70
1
0
BLOCK_RECORD
5
1F
100
AcDbSymbolTableRecord
100
AcDbBlockTableRecord
2
*MODEL_SPACE
0
BLOCK_RECORD
5
1B
100
AcDbSymbolTableRecord
100
AcDbBlockTableRecord
2
*PAPER_SPACE
0
ENDTAB
0
ENDSEC
0
SECTION
2
BLOCKS
0
BLOCK
5
20
100
AcDbEntity
100
AcDbBlockBegin
2
*MODEL_SPACE
0
ENDBLK
5
21
100
AcDbEntity
100
AcDbBlockEnd
0
BLOCK
5
1C
100
AcDbEntity
100
AcDbBlockBegin
2
*PAPER_SPACE
0
ENDBLK
5
1D
100
AcDbEntity
100
AcDbBlockEnd
0
ENDSEC
0
SECTION
2
ENTITIES
0
LINE
5
100
100
AcDbEntity
8
0
100
AcDbLine
10
-40.339106085161475
20
-19.555024555333716
30
0
11
-39.339331804904376
21
-19.21447247312544
31
0
0
LINE
5
101
100
AcDbEntity
8
0
100
AcDbLine
10
-38.388587983198896
20
-21.349878059238179
30
0
11
-39.310647071267965
21
-21.864981320991824
31
0
0
SPLINE
5
102
100
AcDbEntity
8
0
100
AcDbSpline
70
0
71
5
72
81
73
75
74
0
42
0.000000001
43
0.0000000001
44
0.0000000001
40
0
40
0
40
0
40
0
40
0
40
0
40
0.014285714285714284
40
0.028571428571428567
40
0.042857142857142858
40
0.057142857142857134
40
0.071428571428571438
40
0.085714285714285715
40
0.10000000000000001
40
0.1142857142857143
40
0.12857142857142859
40
0.14285714285714288
40
0.15714285714285714
40
0.17142857142857146
40
0.18571428571428572
40
0.20000000000000004
40
0.21428571428571436
40
0.22857142857142865
40
0.24285714285714291
40
0.25714285714285717
40
0.27142857142857146
40
0.2857142857142857
40
0.30000000000000004
40
0.31428571428571433
40
0.32857142857142863
40
0.34285714285714292
40
0.35714285714285721
40
0.3714285714285715
40
0.38571428571428573
40
0.40000000000000008
40
0.41428571428571442
40
0.42857142857142871
40
0.44285714285714295
40
0.4571428571428573
40
0.47142857142857147
40
0.48571428571428582
40
0.50000000000000011
40
0.51428571428571435
40
0.52857142857142858
40
0.54285714285714282
40
0.55714285714285705
40
0.57142857142857129
40
0.58571428571428552
40
0.59999999999999976
40
0.61428571428571399
40
0.62857142857142823
40
0.64285714285714246
40
0.6571428571428567
40
0.67142857142857093
40
0.68571428571428517
40
0.6999999999999994
40
0.71428571428571364
40
0.72857142857142776
40
0.74285714285714211
40
0.75714285714285634
40
0.77142857142857058
40
0.78571428571428481
40
0.79999999999999905
40
0.81428571428571328
40
0.82857142857142752
40
0.84285714285714175
40
0.85714285714285599
40
0.87142857142857022
40
0.88571428571428445
40
0.89999999999999869
40
0.91428571428571281
40
0.92857142857142716
40
0.94285714285714117
40
0.95714285714285563
40
0.97142857142856975
40
0.98571428571428399
40
1
40
1
40
1
40
1
40
1
40
1
10
-39.310647071267965
20
-21.864981320991824
30
0
10
-39.318166120378521
20
-21.869181796614541
30
0
10
-39.333060796014394
20
-21.877787414429356
30
0
10
-39.354972547477594
20
-21.891309833425275
30
0
10
-39.383372250040594
20
-21.910508967324983
30
0
10
-39.417769745424465
20
-21.936115615046727
30
0
10
-39.451391732539626
20
-21.96289597670787
30
0
10
-39.484558719195888
20
-21.990420718287631
30
0
10
-39.517504298113934
20
-22.018370436184806
30
0
10
-39.550310677006067
20
-22.046619864541057
30
0
10
-39.582959999873914
20
-22.075172829092281
30
0
10
-39.615374795881173
20
-22.104111250263053
30
0
10
-39.647460581258962
20
-22.133541285968874
30
0
10
-39.679152035857648
20
-22.163535074903127
30
0
10
-39.710443591673183
20
-22.194091960310786
30
0
10
-39.741365438770934
20
-22.225168055626852
30
0
10
-39.771968198085389
20
-22.256694943888988
30
0
10
-39.80230529432216
20
-22.288601290293673
30
0
10
-39.832413762655314
20
-22.320836339487897
30
0
10
-39.862304203808996
20
-22.353382198737116
30
0
10
-39.891971485518368
20
-22.386240646390434
30
0
10
-39.921401296803111
20
-22.419425033532701
30
0
10
-39.950577808851293
20
-22.452950828467984
30
0
10
-39.979492156170153
20
-22.486825148791478
30
0
10
-40.008146005287806
20
-22.521042344099385
30
0
10
-40.036547001694061
20
-22.555589580402909
30
0
10
-40.064706057244052
20
-22.590450157810388
30
0
10
-40.092634146978405
20
-22.625607433437143
30
0
10
-40.120338722990645
20
-22.661049213327466
30
0
10
-40.147822499278234
20
-22.696769233915461
30
0
10
-40.175085403257455
20
-22.732764755501933
30
0
10
-40.202125760570489
20
-22.769035097009489
30
0
10
-40.228941681310772
20
-22.805579923984016
30
0
10
-40.255532627361433
20
-22.842397313072649
30
0
10
-40.281899883876861
20
-22.879483166507608
30
0
10
-40.308045741593105
20
-22.916832214356859
30
0
10
-40.333973004912139
20
-22.954438615702777
30
0
10
-40.359684415781373
20
-22.992296663588263
30
0
10
-40.385182002523329
20
-23.030401582604128
30
0
10
-40.410466898959399
20
-23.068749747098686
30
0
10
-40.435539695527247
20
-23.10733824414551
30
0
10
-40.460400656615789
20
-23.146164601276947
30
0
10
-40.485049973617812
20
-23.185226470840256
30
0
10
-40.509488052747585
20
-23.224521270502301
30
0
10
-40.533715603428213
20
-23.264046073789139
30
0
10
-40.557733490732176
20
-23.303797795794623
30
0
10
-40.581542648817262
20
-23.343773303254398
30
0
10
-40.60514397866627
20
-23.383969543434802
30
0
10
-40.628538235815824
20
-23.424383688296796
30
0
10
-40.651725991334963
20
-23.465013178611244
30
0
10
-40.674707692112676
20
-23.505855633839552
30
0
10
-40.697483698226009
20
-23.546908792606871
30
0
10
-40.720054328026016
20
-23.588170445069714
30
0
10
-40.74241990855942
20
-23.62963835351248
30
0
10
-40.764580799922363
20
-23.671310224737027
30
0
10
-40.786537374376188
20
-23.71318376783686
30
0
10
-40.808290007586024
20
-23.755256732301678
30
0
10
-40.829839066446347
20
-23.797526948525917
30
0
10
-40.851184899916085
20
-23.839992375702753
30
0
10
-40.872327829954898
20
-23.882651112936507
30
0
10
-40.893268144020823
20
-23.925501330581497
30
0
10
-40.914006087922026
20
-23.968541214612905
30
0
10
-40.934541860969127
20
-24.011768909640978
30
0
10
-40.954875609181364
20
-24.055182448730644
30
0
10
-40.975007428190551
20
-24.098779725608711
30
0
10
-40.994937395932041
20
-24.1425586176134
30
0
10
-41.014665602418617
20
-24.186517083795529
30
0
10
-41.034192180556424
20
-24.230653269255402
30
0
10
-41.053517341748432
20
-24.274965611061262
30
0
10
-41.072641400265077
20
-24.319452926866237
30
0
10
-41.091564704902062
20
-24.364114365933666
30
0
10
-41.106543005859628
20
-24.399982371954557
30
0
10
-41.117686647492604
20
-24.426961347029295
30
0
10
-41.125075717853278
20
-24.444981972497928
30
0
10
-41.128760247017567
20
-24.454000945752867
30
0
0
ARC
5
103
100
AcDbEntity
8
0
100
AcDbCircle
10
-39.178113622522829
20
-19.687768044274787
30
0
40
0.49999999999999556
210
0
220
-0
230
1
100
AcDbArc
50
21.05340418556327
51
108.81033006042928
0
ARC
5
104
100
AcDbEntity
8
0
100
AcDbCircle
10
-38.632439117686872
20
-20.913373048718334
30
0
40
0.500000000000005
210
0
220
0
230
1
100
AcDbArc
50
-60.810330060428669
51
26.946595814437828
0
SPLINE
5
105
100
AcDbEntity
8
0
100
AcDbSpline
70
0
71
5
72
81
73
75
74
0
42
0.000000001
43
0.0000000001
44
0.0000000001
40
-1
40
-1
40
-1
40
-1
40
-1
40
-1
40
-0.98571428571428399
40
-0.97142857142856975
40
-0.95714285714285563
40
-0.94285714285714117
40
-0.92857142857142716
40
-0.91428571428571281
40
-0.89999999999999869
40
-0.88571428571428445
40
-0.87142857142857022
40
-0.85714285714285599
40
-0.84285714285714175
40
-0.82857142857142752
40
-0.81428571428571328
40
-0.79999999999999905
40
-0.78571428571428481
40
-0.77142857142857058
40
-0.75714285714285634
40
-0.74285714285714211
40
-0.72857142857142776
40
-0.71428571428571364
40
-0.6999999999999994
40
-0.68571428571428517
40
-0.67142857142857093
40
-0.6571428571428567
40
-0.64285714285714246
40
-0.62857142857142823
40
-0.61428571428571399
40
-0.59999999999999976
40
-0.58571428571428552
40
-0.57142857142857129
40
-0.55714285714285705
40
-0.54285714285714282
40
-0.52857142857142858
40
-0.51428571428571435
40
-0.50000000000000011
40
-0.48571428571428582
40
-0.47142857142857147
40
-0.4571428571428573
40
-0.44285714285714295
40
-0.42857142857142871
40
-0.41428571428571442
40
-0.40000000000000008
40
-0.38571428571428573
40
-0.3714285714285715
40
-0.35714285714285721
40
-0.34285714285714292
40
-0.32857142857142863
40
-0.31428571428571433
40
-0.30000000000000004
40
-0.2857142857142857
40
-0.27142857142857146
40
-0.25714285714285717
40
-0.24285714285714291
40
-0.22857142857142865
40
-0.21428571428571436
40
-0.20000000000000004
40
-0.18571428571428572
40
-0.17142857142857146
40
-0.15714285714285714
40
-0.14285714285714288
40
-0.12857142857142859
40
-0.1142857142857143
40
-0.10000000000000001
40
-0.085714285714285715
40
-0.071428571428571438
40
-0.057142857142857134
40
-0.042857142857142858
40
-0.028571428571428567
40
-0.014285714285714284
40
-0
40
-0
40
-0
40
-0
40
-0
40
-0
10
-43.479677794080438
20
-19.173753682632974
30
0
10
-43.470509959541054
20
-19.177050414893017
30
0
10
-43.452173771841316
20
-19.18361741753619
30
0
10
-43.424667934434915
20
-19.193388535870362
30
0
10
-43.387990371758335
20
-19.206257869636953
30
0
10
-43.342138292110945
20
-19.222079449519089
30
0
10
-43.296281280699809
20
-19.237635328990176
30
0
10
-43.25041973635561
20
-19.252924679590564
30
0
10
-43.204554327445337
20
-19.267946476627305
30
0
10
-43.15868607399743
20
-19.282699517191912
30
0
10
-43.112816265539429
20
-19.297182461345702
30
0
10
-43.066946358561864
20
-19.311393876534591
30
0
10
-43.02107787836092
20
-19.325332284503364
30
0
10
-42.975212326212436
20
-19.338996204811856
30
0
10
-42.929351066128106
20
-19.352384212810193
30
0
10
-42.883495343566373
20
-19.365494918883634
30
0
10
-42.837646342132636
20
-19.378326926541586
30
0
10
-42.791805229171629
20
-19.390878797889162
30
0
10
-42.745973201891118
20
-19.40314902171626
30
0
10
-42.700151543406989
20
-19.415135973129512
30
0
10
-42.654341620550092
20
-19.426837927723739
30
0
10
-42.608544854406475
20
-19.438253100439987
30
0
10
-42.562762698359975
20
-19.449379681718529
30
0
10
-42.516996615637588
20
-19.460215869506719
30
0
10
-42.471248050349104
20
-19.470759923437473
30
0
10
-42.425518431709854
20
-19.481010128255953
30
0
10
-42.379809199310266
20
-19.490964703217625
30
0
10
-42.334121823208186
20
-19.500621723328027
30
0
10
-42.288457823161735
20
-19.509979051741613
30
0
10
-42.242818795260789
20
-19.519034234657774
30
0
10
-42.197206405253446
20
-19.527784559838267
30
0
10
-42.151622356535299
20
-19.536227236505507
30
0
10
-42.10606836279193
20
-19.544359557580222
30
0
10
-42.060546124120577
20
-19.55217903766502
30
0
10
-42.015057287758381
20
-19.559683646965741
30
0
10
-41.969603470284518
20
-19.566871672363519
30
0
10
-41.924186332189848
20
-19.573741262975311
30
0
10
-41.878807643120638
20
-19.580290030892208
30
0
10
-41.833469338786593
20
-19.586514707486188
30
0
10
-41.788173610795653
20
-19.592410590047425
30
0
10
-41.742922865522544
20
-19.59797182221223
30
0
10
-41.697719567103746
20
-19.603192411567029
30
0
10
-41.652566099060408
20
-19.608067129490355
30
0
10
-41.607464646691305
20
-19.61259227898455
30
0
10
-41.562416999396625
20
-19.616766972974094
30
0
10
-41.517424670318576
20
-19.62059239213982
30
0
10
-41.472489285960314
20
-19.624069325042313
30
0
10
-41.427612930883122
20
-19.627195992405216
30
0
10
-41.382798443804816
20
-19.629966186191719
30
0
10
-41.338049900176649
20
-19.632366209068103
30
0
10
-41.29337232433663
20
-19.634376768726188
30
0
10
-41.248770825266597
20
-19.635978581668677
30
0
10
-41.204249824647682
20
-19.637157378574656
30
0
10
-41.159812406423278
20
-19.637908140114288
30
0
10
-41.115459213361873
20
-19.638242217233412
30
0
10
-41.071189341815881
20
-19.638181723347383
30
0
10
-41.027002445910611
20
-19.637746227206684
30
0
10
-40.982900638230618
20
-19.636940732775194
30
0
10
-40.938890122399997
20
-19.635745389603287
30
0
10
-40.89498383562826
20
-19.634098713232866
30
0
10
-40.851199041899832
20
-19.631913269070076
30
0
10
-40.807552712909654
20
-19.629105658545893
30
0
10
-40.76405726163469
20
-19.625624080225599
30
0
10
-40.720716901860968
20
-19.621472232487726
30
0
10
-40.67752173180309
20
-19.616746927871091
30
0
10
-40.634456082737032
20
-19.611589415010013
30
0
10
-40.591510914030863
20
-19.606112081418981
30
0
10
-40.548695330603749
20
-19.600330756607775
30
0
10
-40.506047415433734
20
-19.594100529120634
30
0
10
-40.463648227615494
20
-19.587034083010565
30
0
10
-40.421602362919813
20
-19.578605954023523
30
0
10
-40.38833151571221
20
-19.570347590126609
30
0
10
-40.363620576464506
20
-19.563112249831761
30
0
10
-40.347258872775633
20
-19.557801630972321
30
0
10
-40.339106085161475
20
-19.555024555333716
30
0
0
ARC
5
106
100
AcDbEntity
8
0
100
AcDbCircle
10
-27
20
-15
30
0
40
12.549200000000001
210
0
220
0
230
1
100
AcDbArc
50
201.05340418556275
51
206.94659581443716
0
ARC
5
107
100
AcDbEntity
8
0
100
AcDbCircle
10
-27
20
-15
30
0
40
17
210
0
220
0
230
1
100
AcDbArc
50
213.78773391907683
51
218.21226608092303
0
ARC
5
108
100
AcDbEntity
8
0
100
AcDbCircle
10
-27
20
-15
30
0
40
17.000000000000004
210
0
220
0
230
1
100
AcDbArc
50
189.78773391907683
51
194.21226608092311
0
ARC
5
109
100
AcDbEntity
8
0
100
AcDbCircle
10
-40.031947420357554
20
-15.670795850491226
30
0
40
0.50000000000000056
210
0
220
0
230
1
100
AcDbArc
50
-84.810330060429422
51
2.9465958144373001
0
ARC
5
110
100
AcDbEntity
8
0
100
AcDbCircle
10
-14.113365598418991
20
-17.053356871074485
30
0
40
0.50000000000000178
210
0
220
-0
230
1
100
AcDbArc
50
83.189669939571118
51
170.9465958144379
0
SPLINE
5
111
100
AcDbEntity
8
0
100
AcDbSpline
70
0
71
5
72
81
73
75
74
0
42
0.000000001
43
0.0000000001
44
0.0000000001
40
-1
40
-1
40
-1
40
-1
40
-1
40
-1
40
-0.98571428571428399
40
-0.97142857142856975
40
-0.95714285714285563
40
-0.94285714285714117
40
-0.92857142857142716
40
-0.91428571428571281
40
-0.89999999999999869
40
-0.88571428571428445
40
-0.87142857142857022
40
-0.85714285714285599
40
-0.84285714285714175
40
-0.82857142857142752
40
-0.81428571428571328
40
-0.79999999999999905
40
-0.78571428571428481
40
-0.77142857142857058
40
-0.75714285714285634
40
-0.74285714285714211
40
-0.72857142857142776
40
-0.71428571428571364
40
-0.6999999999999994
40
-0.68571428571428517
40
-0.67142857142857093
40
-0.6571428571428567
40
-0.64285714285714246
40
-0.62857142857142823
40
-0.61428571428571399
40
-0.59999999999999976
40
-0.58571428571428552
40
-0.57142857142857129
40
-0.55714285714285705
40
-0.54285714285714282
40
-0.52857142857142858
40
-0.51428571428571435
40
-0.50000000000000011
40
-0.48571428571428582
40
-0.47142857142857147
40
-0.4571428571428573
40
-0.44285714285714295
40
-0.42857142857142871
40
-0.41428571428571442
40
-0.40000000000000008
40
-0.38571428571428573
40
-0.3714285714285715
40
-0.35714285714285721
40
-0.34285714285714292
40
-0.32857142857142863
40
-0.31428571428571433
40
-0.30000000000000004
40
-0.2857142857142857
40
-0.27142857142857146
40
-0.25714285714285717
40
-0.24285714285714291
40
-0.22857142857142865
40
-0.21428571428571436
40
-0.20000000000000004
40
-0.18571428571428572
40
-0.17142857142857146
40
-0.15714285714285714
40
-0.14285714285714288
40
-0.12857142857142859
40
-0.1142857142857143
40
-0.10000000000000001
40
-0.085714285714285715
40
-0.071428571428571438
40
-0.057142857142857134
40
-0.042857142857142858
40
-0.028571428571428567
40
-0.014285714285714284
40
-0
40
-0
40
-0
40
-0
40
-0
40
-0
10
-28.123024862915322
20
-31.962865770773348
30
0
10
-28.117056467542643
20
-31.955165388288613
30
0
10
-28.105144683275061
20
-31.939755952911607
30
0
10
-28.087352026308761
20
-31.916615788629407
30
0
10
-28.063778572390355
20
-31.88571019648418
30
0
10
-28.034562283906883
20
-31.846991414411285
30
0
10
-28.005597167531917
20
-31.808185836009919
30
0
10
-27.976884134422868
20
-31.769293584582492
30
0
10
-27.948424365657374
20
-31.730314979136232
30
0
10
-27.920219320475539
20
-31.691250618056692
30
0
10
-27.892270671720691
20
-31.652101313693606
30
0
10
-27.864580231913052
20
-31.612868008568221
30
0
10
-27.837149878299332
20
-31.573551696517441
30
0
10
-27.809981482781527
20
-31.534153347858258
30
0
10
-27.783076821784995
20
-31.494673819601861
30
0
10
-27.756437601779702
20
-31.455113866835056
30
0
10
-27.730065516661313
20
-31.415474183694123
30
0
10
-27.703962294678483
20
-31.375755436055961
30
0
10
-27.678129743034987
20
-31.335958295543165
30
0
10
-27.652569803600862
20
-31.296083480351822
30
0
10
-27.627284538756847
20
-31.256131757544814
30
0
10
-27.60227608533463
20
-31.216103927041722
30
0
10
-27.577546613448092
20
-31.176000811908018
30
0
10
-27.553098289113152
20
-31.135823246890382
30
0
10
-27.528933213771722
20
-31.095572067615826
30
0
10
-27.505053460379933
20
-31.055248103305999
30
0
10
-27.481461167384378
20
-31.014852172812461
30
0
10
-27.458158619836446
20
-30.974385079387289
30
0
10
-27.435148319628098
20
-30.933847608084744
30
0
10
-27.412433093681301
20
-30.893240518610455
30
0
10
-27.39001603623236
20
-30.852564557057246
30
0
10
-27.367900327846684
20
-30.811820481052926
30
0
10
-27.346089072667617
20
-30.771009083875825
30
0
10
-27.324585159807491
20
-30.730131214384482
30
0
10
-27.303391028739536
20
-30.689187811953591
30
0
10
-27.282508808287041
20
-30.648179884658504
30
0
10
-27.261940771864293
20
-30.607108439765533
30
0
10
-27.241689737358385
20
-30.565974422403865
30
0
10
-27.221759411586479
20
-30.524778663481229
30
0
10
-27.202154944335515
20
-30.483521794123369
30
0
10
-27.182882648949025
20
-30.442204293212747
30
0
10
-27.163948986011039
20
-30.400826652524813
30
0
10
-27.145359664784596
20
-30.359389523189964
30
0
10
-27.127118876617892
20
-30.317893841115744
30
0
10
-27.109228018124931
20
-30.276341034001462
30
0
10
-27.091686433998177
20
-30.234732905781296
30
0
10
-27.074493876889072
20
-30.193071247030314
30
0
10
-27.057652683154831
20
-30.151357490457467
30
0
10
-27.041169634201392
20
-30.109592417454969
30
0
10
-27.025059016350916
20
-30.067775671298371
30
0
10
-27.009340730284642
20
-30.025906068766002
30
0
10
-26.99403469446057
20
-29.983982509859956
30
0
10
-26.979155846183929
20
-29.942004790386214
30
0
10
-26.964709912111992
20
-29.899974292291034
30
0
10
-26.950686295480139
20
-29.857895134518728
30
0
10
-26.937063685938128
20
-29.815773291070524
30
0
10
-26.923823365617157
20
-29.773614480076507
30
0
10
-26.910961228289292
20
-29.731422257033842
30
0
10
-26.898498069879277
20
-29.689196387813396
30
0
10
-26.886496363399225
20
-29.646930176690105
30
0
10
-26.875044598953963
20
-29.604613023913487
30
0
10
-26.864227337838162
20
-29.562235298949471
30
0
10
-26.854097681964699
20
-29.519792799716992
30
0
10
-26.844653416098062
20
-29.477290676626563
30
0
10
-26.835799406222385
20
-29.434749429240394
30
0
10
-26.827396475001596
20
-29.392197803944864
30
0
10
-26.819334941848766
20
-29.349661932239975
30
0
10
-26.811602565580223
20
-29.307155365005968
30
0
10
-26.804348933467676
20
-29.264669541204785
30
0
10
-26.797967453504171
20
-29.222161865406775
30
0
10
-26.79299019376332
20
-29.179569436716911
30
0
10
-26.790563107357013
20
-29.145375005887573
30
0
10
-26.789808224717536
20
-29.119637662981077
30
0
10
-26.78980287889258
20
-29.102435686591875
30
0
10
-26.789924684850611
20
-29.093823761238468
30
0
0
ARC
5
112
100
AcDbEntity
8
0
100
AcDbCircle
10
-27
20
-15
30
0
40
12.549199999999995
210
0
220
0
230
1
100
AcDbArc
50
345.05340418556273
51
350.94659581443716
0
SPLINE
5
113
100
AcDbEntity
8
0
100
AcDbSpline
70
0
71
5
72
81
73
75
74
0
42
0.000000001
43
0.0000000001
44
0.0000000001
40
-1
40
-1
40
-1
40
-1
40
-1
40
-1
40
-0.98571428571428399
40
-0.97142857142856975
40
-0.95714285714285563
40
-0.94285714285714117
40
-0.92857142857142716
40
-0.91428571428571281
40
-0.89999999999999869
40
-0.88571428571428445
40
-0.87142857142857022
40
-0.85714285714285599
40
-0.84285714285714175
40
-0.82857142857142752
40
-0.81428571428571328
40
-0.79999999999999905
40
-0.78571428571428481
40
-0.77142857142857058
40
-0.75714285714285634
40
-0.74285714285714211
40
-0.72857142857142776
40
-0.71428571428571364
40
-0.6999999999999994
40
-0.68571428571428517
40
-0.67142857142857093
40
-0.6571428571428567
40
-0.64285714285714246
40
-0.62857142857142823
40
-0.61428571428571399
40
-0.59999999999999976
40
-0.58571428571428552
40
-0.57142857142857129
40
-0.55714285714285705
40
-0.54285714285714282
40
-0.52857142857142858
40
-0.51428571428571435
40
-0.50000000000000011
40
-0.48571428571428582
40
-0.47142857142857147
40
-0.4571428571428573
40
-0.44285714285714295
40
-0.42857142857142871
40
-0.41428571428571442
40
-0.40000000000000008
40
-0.38571428571428573
40
-0.3714285714285715
40
-0.35714285714285721
40
-0.34285714285714292
40
-0.32857142857142863
40
-0.31428571428571433
40
-0.30000000000000004
40
-0.2857142857142857
40
-0.27142857142857146
40
-0.25714285714285717
40
-0.24285714285714291
40
-0.22857142857142865
40
-0.21428571428571436
40
-0.20000000000000004
40
-0.18571428571428572
40
-0.17142857142857146
40
-0.15714285714285714
40
-0.14285714285714288
40
-0.12857142857142859
40
-0.1142857142857143
40
-0.10000000000000001
40
-0.085714285714285715
40
-0.071428571428571438
40
-0.057142857142857134
40
-0.042857142857142858
40
-0.028571428571428567
40
-0.014285714285714284
40
-0
40
-0
40
-0
40
-0
40
-0
40
-0
10
-21.126515181786246
20
-30.953124336323981
30
0
10
-21.124194809026356
20
-30.943662121784513
30
0
10
-21.119580434633221
20
-30.924739942944974
30
0
10
-21.11273798642263
20
-30.896363425409987
30
0
10
-21.103773001475943
20
-30.858541574577494
30
0
10
-21.092830941287009
20
-30.811286871988443
30
0
10
-21.082153641484155
20
-30.764055037908022
30
0
10
-21.071741884299485
20
-30.716846555579707
30
0
10
-21.061596618949206
20
-30.669662196818646
30
0
10
-21.051718935130129
20
-30.622503101803655
30
0
10
-21.042110030648281
20
-30.575370693059849
30
0
10
-21.032771177965358
20
-30.528266568841591
30
0
10
-21.023703687801664
20
-30.48119240060911
30
0
10
-21.014908875561311
20
-30.434149836162234
30
0
10
-21.006388015511732
20
-30.387140380956907
30
0
10
-20.998142359469362
20
-30.340165418883124
30
0
10
-20.990173172554218
20
-30.293226273035366
30
0
10
-20.982481762763499
20
-30.246324254664508
30
0
10
-20.975069507886452
20
-30.199460712384322
30
0
10
-20.967937889792982
20
-30.152637092129275
30
0
10
-20.96108848056906
20
-30.105854933492004
30
0
10
-20.954522906950963
20
-30.059115836363148
30
0
10
-20.948242816665477
20
-30.012421435315268
30
0
10
-20.942249848944549
20
-29.965773373925444
30
0
10
-20.936545583670778
20
-29.91917327031036
30
0
10
-20.931131577308971
20
-29.872622725148929
30
0
10
-20.926009450370373
20
-29.826123356283837
30
0
10
-20.921180963641248
20
-29.779676826936505
30
0
10
-20.916648083403295
20
-29.73328487190085
30
0
10
-20.912413083178123
20
-29.686949335015207
30
0
10
-20.908478486227963
20
-29.640672156408616
30
0
10
-20.9048468899889
20
-29.594455321860991
30
0
10
-20.90152080758163
20
-29.548300818637003
30
0
10
-20.898502533079721
20
-29.502210597315354
30
0
10
-20.895793912974746
20
-29.456186508280695
30
0
10
-20.893396482022382
20
-29.410230338326109
30
0
10
-20.891311907397785
20
-29.364343932316068
30
0
10
-20.889542378950257
20
-29.318529299806976
30
0
10
-20.888090945065159
20
-29.272788707569187
30
0
10
-20.886962053604968
20
-29.227124826771821
30
0
10
-20.886161277316955
20
-29.181540662763918
30
0
10
-20.885694318215229
20
-29.136039292560952
30
0
10
-20.885566127132513
20
-29.090623633166651
30
0
10
-20.885780152388001
20
-29.045296244349991
30
0
10
-20.88633708915448
20
-29.000058998433254
30
0
10
-20.887235605052563
20
-28.954913276854775
30
0
10
-20.888474745825615
20
-28.909860614780509
30
0
10
-20.890056063106947
20
-28.864903271337322
30
0
10
-20.891985434198279
20
-28.820044718608806
30
0
10
-20.894276055397253
20
-28.775290441481658
30
0
10
-20.896946588140423
20
-28.730647453365421
30
0
10
-20.900015676254053
20
-28.686122850928708
30
0
10
-20.903497048698696
20
-28.641722523180402
30
0
10
-20.907395374947917
20
-28.597450061832575
30
0
10
-20.911699299049928
20
-28.553304919635643
30
0
10
-20.916386923185879
20
-28.509283886410955
30
0
10
-20.921438821958699
20
-28.46538457268715
30
0
10
-20.926849797991526
20
-28.421608556419173
30
0
10
-20.93263894453586
20
-28.377964082184004
30
0
10
-20.938866056924866
20
-28.334470443195695
30
0
10
-20.945616286198788
20
-28.291153948268484
30
0
10
-20.952970800035374
20
-28.248040193648862
30
0
10
-20.960979818586249
20
-28.205146939038546
30
0
10
-20.969639223272416
20
-28.162477988554198
30
0
10
-20.978853766922679
20
-28.120013374987529
30
0
10
-20.988484612505161
20
-28.077722750946741
30
0
10
-20.998420933179311
20
-28.035585377631243
30
0
10
-21.008646034427834
20
-27.993608655448181
30
0
10
-21.019300053111209
20
-27.951845606124834
30
0
10
-21.030759710436548
20
-27.91041733024641
30
0
10
-21.043536658874551
20
-27.869482776568105
30
0
10
-21.055227533120174
20
-27.837257424629932
30
0
10
-21.065006233969299
20
-27.81343815349522
30
0
10
-21.07199802444601
20
-27.797721191759489
30
0
10
-21.075612085334349
20
-27.789903349417806
30
0
0
LINE
5
114
100
AcDbEntity
8
0
100
AcDbLine
10
-37.333184376347774
20
-24.586725222686184
30
0
11
-36.558360134660866
21
-23.868970580308787
31
0
0
ARC
5
115
100
AcDbEntity
8
0
100
AcDbCircle
10
-27
20
-15
30
0
40
17
210
0
220
0
230
1
100
AcDbArc
50
333.78773391907674
51
338.21226608092309
0
LINE
5
116
100
AcDbEntity
8
0
100
AcDbLine
10
-39.986720906769683
20
-16.16874621194173
30
0
11
-41.038575169876317
21
-16.264281238734924
31
0
0
LINE
5
117
100
AcDbEntity
8
0
100
AcDbLine
10
-14.054074102582037
20
-16.556884798827298
30
0
11
-13.00534252984975
21
-16.682130239919864
31
0
0
LINE
5
118
100
AcDbEntity
8
0
100
AcDbLine
10
-16.385679977638347
20
-24.274492455858578
30
0
11
-17.180493872270958
21
-23.578938572209761
31
0
0
LINE
5
119
100
AcDbEntity
8
0
100
AcDbLine
10
-26.789924684850611
20
-29.093823761238468
30
0
11
-26.804861718634253
21
-28.037745536303518
31
0
0
ARC
5
120
100
AcDbEntity
8
0
100
AcDbCircle
10
-31.665057987404683
20
-27.186831196588876
30
0
40
0.49999999999999978
210
0
220
-0
230
1
100
AcDbArc
50
69.053404185562201
51
156.8103300604287
0
ARC
5
121
100
AcDbEntity
8
0
100
AcDbCircle
10
-16.851216975347725
20
-23.202671745140719
30
0
40
0.50000000000000133
210
0
220
0
230
1
100
AcDbArc
50
141.05340418556273
51
228.81033006042847
0
ARC
5
122
100
AcDbEntity
8
0
100
AcDbCircle
10
-27
20
-15
30
0
40
17.000000000000007
210
0
220
0
230
1
100
AcDbArc
50
237.78773391907677
51
242.21226608092309
0
ARC
5
123
100
AcDbEntity
8
0
100
AcDbCircle
10
-16.062649158912265
20
-22.117301259533512
30
0
40
0.49999999999999989
210
0
220
-0
230
1
100
AcDbArc
50
59.189669939570109
51
146.94659581443767
0
ARC
5
124
100
AcDbEntity
8
0
100
AcDbCircle
10
-14.392298197357327
20
-18.365631574554875
30
0
40
0.50000000000000666
210
0
220
0
230
1
100
AcDbArc
50
165.0534041855648
51
252.81033006042901
0
SPLINE
5
125
100
AcDbEntity
8
0
100
AcDbSpline
70
0
71
5
72
81
73
75
74
0
42
0.000000001
43
0.0000000001
44
0.0000000001
40
-1
40
-1
40
-1
40
-1
40
-1
40
-1
40
-0.98571428571428399
40
-0.97142857142856975
40
-0.95714285714285563
40
-0.94285714285714117
40
-0.92857142857142716
40
-0.91428571428571281
40
-0.89999999999999869
40
-0.88571428571428445
40
-0.87142857142857022
40
-0.85714285714285599
40
-0.84285714285714175
40
-0.82857142857142752
40
-0.81428571428571328
40
-0.79999999999999905
40
-0.78571428571428481
40
-0.77142857142857058
40
-0.75714285714285634
40
-0.74285714285714211
40
-0.72857142857142776
40
-0.71428571428571364
40
-0.6999999999999994
40
-0.68571428571428517
40
-0.67142857142857093
40
-0.6571428571428567
40
-0.64285714285714246
40
-0.62857142857142823
40
-0.61428571428571399
40
-0.59999999999999976
40
-0.58571428571428552
40
-0.57142857142857129
40
-0.55714285714285705
40
-0.54285714285714282
40
-0.52857142857142858
40
-0.51428571428571435
40
-0.50000000000000011
40
-0.48571428571428582
40
-0.47142857142857147
40
-0.4571428571428573
40
-0.44285714285714295
40
-0.42857142857142871
40
-0.41428571428571442
40
-0.40000000000000008
40
-0.38571428571428573
40
-0.3714285714285715
40
-0.35714285714285721
40
-0.34285714285714292
40
-0.32857142857142863
40
-0.31428571428571433
40
-0.30000000000000004
40
-0.2857142857142857
40
-0.27142857142857146
40
-0.25714285714285717
40
-0.24285714285714291
40
-0.22857142857142865
40
-0.21428571428571436
40
-0.20000000000000004
40
-0.18571428571428572
40
-0.17142857142857146
40
-0.15714285714285714
40
-0.14285714285714288
40
-0.12857142857142859
40
-0.1142857142857143
40
-0.10000000000000001
40
-0.085714285714285715
40
-0.071428571428571438
40
-0.057142857142857134
40
-0.042857142857142858
40
-0.028571428571428567
40
-0.014285714285714284
40
-0
40
-0
40
-0
40
-0
40
-0
40
-0
10
-40.357316230296419
20
-25.515802543023518
30
0
10
-40.347600094883987
20
-25.515085363559926
30
0
10
-40.328178113290249
20
-25.513626619563119
30
0
10
-40.299076008598639
20
-25.511365348361721
30
0
10
-40.26033495820321
20
-25.508203961047798
30
0
10
-40.212011782828441
20
-25.504007972528029
30
0
10
-40.163792172156576
20
-25.499567248675628
30
0
10
-40.115676827502462
20
-25.494881194874086
30
0
10
-40.067666776229856
20
-25.489949146869169
30
0
10
-40.019763439448113
20
-25.484770420632223
30
0
10
-39.971968540201416
20
-25.479344316566479
30
0
10
-39.924283991732281
20
-25.47367011837671
30
0
10
-39.876711788728691
20
-25.467747096003421
30
0
10
-39.829253904823645
20
-25.461574507621147
30
0
10
-39.781912165561124
20
-25.455151606540984
30
0
10
-39.734688273931269
20
-25.448477629860292
30
0
10
-39.687583879215317
20
-25.441551783237113
30
0
10
-39.640600632680275
20
-25.43437322789099
30
0
10
-39.593740242694381
20
-25.426941070211058
30
0
10
-39.547004542346016
20
-25.419254347673615
30
0
10
-39.500395481676065
20
-25.411312040896334
30
0
10
-39.453915084960101
20
-25.403113097154485
30
0
10
-39.407565415944596
20
-25.394656454477456
30
0
10
-39.361348544314758
20
-25.385941061756295
30
0
10
-39.315266497201591
20
-25.3769659164589
30
0
10
-39.269321277915253
20
-25.367730032936258
30
0
10
-39.223514925881133
20
-25.358232369931475
30
0
10
-39.177849567029639
20
-25.348471766800998
30
0
10
-39.132327458862321
20
-25.338446889580592
30
0
10
-39.086951057530435
20
-25.328156145800101
30
0
10
-39.041722987937256
20
-25.317597735227384
30
0
10
-38.996645941323635
20
-25.306769801193667
30
0
10
-38.951722584287552
20
-25.295670567677693
30
0
10
-38.90695548084733
20
-25.284298455647807
30
0
10
-38.862346961420627
20
-25.272652280786474
30
0
10
-38.817899199614232
20
-25.260731135603738
30
0
10
-38.773614465183982
20
-25.248534004616268
30
0
10
-38.729495346032223
20
-25.236059426140713
30
0
10
-38.685544939988567
20
-25.223305201460864
30
0
10
-38.641767161950902
20
-25.210267925844761
30
0
10
-38.598166592249626
20
-25.196943227998752
30
0
10
-38.554747919319638
20
-25.183326635835233
30
0
10
-38.511515447287749
20
-25.169414342236198
30
0
10
-38.468472676228195
20
-25.155203858667328
30
0
10
-38.425621601645474
20
-25.140695102559416
30
0
10
-38.382963125637637
20
-25.125889767968481
30
0
10
-38.340498413352762
20
-25.11078923683888
30
0
10
-38.298230092829229
20
-25.095392731588237
30
0
10
-38.25616328240087
20
-25.0796957355033
30
0
10
-38.214307276385185
20
-25.063687393082397
30
0
10
-38.172674511632025
20
-25.047352123507434
30
0
10
-38.131277498733482
20
-25.030674388437149
30
0
10
-38.090126080951954
20
-25.013642950657974
30
0
10
-38.049225117155309
20
-24.99625447913672
30
0
10
-38.008570577696162
20
-24.97851960491591
30
0
10
-37.968152642715026
20
-24.960458162059105
30
0
10
-37.927963036911777
20
-24.942087886829498
30
0
10
-37.888001654932985
20
-24.923414209841113
30
0
10
-37.84828223797647
20
-24.904421520047116
30
0
10
-37.808841612753341
20
-24.885058910637248
30
0
10
-37.769731113551316
20
-24.865253528030536
30
0
10
-37.731000166039237
20
-24.844936086853295
30
0
10
-37.692681179577477
20
-24.824064312952714
30
0
10
-37.654776499385065
20
-24.802643298866897
30
0
10
-37.617237702523866
20
-24.780757459831957
30
0
10
-37.579993023906873
20
-24.758529459851978
30
0
10
-37.542988492385483
20
-24.736058292874027
30
0
10
-37.506225987275556
20
-24.713362123179117
30
0
10
-37.469799239907793
20
-24.690324057307727
30
0
10
-37.433939837037983
20
-24.666623234239864
30
0
10
-37.398957057224195
20
-24.64182216142579
30
0
10
-37.371921605094499
20
-24.620745297894693
30
0
10
-37.352289916813703
20
-24.604084641156977
30
0
10
-37.339502780016993
20
-24.592578244987251
30
0
10
-37.333184376347774
20
-24.586725222686184
30
0
0
ARC
5
126
100
AcDbEntity
8
0
100
AcDbCircle
10
-27
20
-15
30
0
40
17
210
0
220
0
230
1
100
AcDbArc
50
-2.2122660809229986
51
2.2122660809229986
0
SPLINE
5
127
100
AcDbEntity
8
0
100
AcDbSpline
70
0
71
5
72
81
73
75
74
0
42
0.000000001
43
0.0000000001
44
0.0000000001
40
-1
40
-1
40
-1
40
-1
40
-1
40
-1
40
-0.98571428571428399
40
-0.97142857142856975
40
-0.95714285714285563
40
-0.94285714285714117
40
-0.92857142857142716
40
-0.91428571428571281
40
-0.89999999999999869
40
-0.88571428571428445
40
-0.87142857142857022
40
-0.85714285714285599
40
-0.84285714285714175
40
-0.82857142857142752
40
-0.81428571428571328
40
-0.79999999999999905
40
-0.78571428571428481
40
-0.77142857142857058
40
-0.75714285714285634
40
-0.74285714285714211
40
-0.72857142857142776
40
-0.71428571428571364
40
-0.6999999999999994
40
-0.68571428571428517
40
-0.67142857142857093
40
-0.6571428571428567
40
-0.64285714285714246
40
-0.62857142857142823
40
-0.61428571428571399
40
-0.59999999999999976
40
-0.58571428571428552
40
-0.57142857142857129
40
-0.55714285714285705
40
-0.54285714285714282
40
-0.52857142857142858
40
-0.51428571428571435
40
-0.50000000000000011
40
-0.48571428571428582
40
-0.47142857142857147
40
-0.4571428571428573
40
-0.44285714285714295
40
-0.42857142857142871
40
-0.41428571428571442
40
-0.40000000000000008
40
-0.38571428571428573
40
-0.3714285714285715
40
-0.35714285714285721
40
-0.34285714285714292
40
-0.32857142857142863
40
-0.31428571428571433
40
-0.30000000000000004
40
-0.2857142857142857
40
-0.27142857142857146
40
-0.25714285714285717
40
-0.24285714285714291
40
-0.22857142857142865
40
-0.21428571428571436
40
-0.20000000000000004
40
-0.18571428571428572
40
-0.17142857142857146
40
-0.15714285714285714
40
-0.14285714285714288
40
-0.12857142857142859
40
-0.1142857142857143
40
-0.10000000000000001
40
-0.085714285714285715
40
-0.071428571428571438
40
-0.057142857142857134
40
-0.042857142857142858
40
-0.028571428571428567
40
-0.014285714285714284
40
-0
40
-0
40
-0
40
-0
40
-0
40
-0
10
-10.012670519640974
20
-14.343770523577813
30
0
10
-10.020952585821238
20
-14.338639732847167
30
0
10
-10.037522727203196
20
-14.328403927179929
30
0
10
-10.062395966334407
20
-14.313127546062351
30
0
10
-10.095596351324154
20
-14.292913744044355
30
0
10
-10.137156961595206
20
-14.267904720235824
30
0
10
-10.178777638080838
20
-14.243154565275539
30
0
10
-10.22045816291222
20
-14.218664172440878
30
0
10
-10.262198095373453
20
-14.194434682994094
30
0
10
-10.303996687824885
20
-14.170467485633086
30
0
10
-10.345852957507162
20
-14.146764159123503
30
0
10
-10.38776577760232
20
-14.123326407536101
30
0
10
-10.429733963492085
20
-14.100155993949578
30
0
10
-10.471756354507917
20
-14.077254678585726
30
0
10
-10.513831912646419
20
-14.054624138556381
30
0
10
-10.555959708582545
20
-14.03226599205524
30
0
10
-10.598138874922247
20
-14.010181851141624
30
0
10
-10.640368568785217
20
-13.988373364993581
30
0
10
-10.682647933323812
20
-13.966842260711141
30
0
10
-10.724976051295636
20
-13.945590394454648
30
0
10
-10.767351944262344
20
-13.924619737127003
30
0
10
-10.809774593326678
20
-13.903932330239734
30
0
10
-10.852242953093345
20
-13.883530245984851
30
0
10
-10.894755966978167
20
-13.863415551257814
30
0
10
-10.937312584271295
20
-13.843590248641821
30
0
10
-10.979911763610719
20
-13.824056313059859
30
0
10
-11.0225524671021
20
-13.804815785650595
30
0
10
-11.065233657040769
20
-13.785870854984953
30
0
10
-11.107954291154108
20
-13.767223927188766
30
0
10
-11.150713318404467
20
-13.748877734286957
30
0
10
-11.193509673350412
20
-13.730835275577348
30
0
10
-11.236342270054882
20
-13.713099635008206
30
0
10
-11.279209995113888
20
-13.695673816797891
30
0
10
-11.322111702324547
20
-13.678560605501993
30
0
10
-11.365046202463764
20
-13.661762329038648
30
0
10
-11.408012270455918
20
-13.645280999196689
30
0
10
-11.451008666916094
20
-13.629118771648372
30
0
10
-11.494034157343211
20
-13.613278350051225
30
0
10
-11.537087527913448
20
-13.597763334062577
30
0
10
-11.580167612659116
20
-13.582578779287676
30
0
10
-11.623273275397015
20
-13.567730914428054
30
0
10
-11.666403351730779
20
-13.553226113271453
30
0
10
-11.709556597316491
20
-13.539069985743319
30
0
10
-11.752731643258389
20
-13.525266602402212
30
0
10
-11.795926923692374
20
-13.511817202976143
30
0
10
-11.839140713064662
20
-13.498720947184941
30
0
10
-11.882371256464133
20
-13.485977401868983
30
0
10
-11.925616884814527
20
-13.473588740827829
30
0
10
-11.968876112154234
20
-13.461561626640414
30
0
10
-12.012147799926236
20
-13.449910304654809
30
0
10
-12.055431044682745
20
-13.43865469021458
30
0
10
-12.098724858349987
20
-13.427814707643401
30
0
10
-12.142027882629787
20
-13.417405233762491
30
0
10
-12.185338144547693
20
-13.407431819405167
30
0
10
-12.228652655386885
20
-13.397883495310072
30
0
10
-12.271967701410516
20
-13.388738443414137
30
0
10
-12.315279552363094
20
-13.37997745067964
30
0
10
-12.358585101442499
20
-13.371596061722339
30
0
10
-12.40188240772925
20
-13.363614983017889
30
0
10
-12.445171600060565
20
-13.356097045238556
30
0
10
-12.488453970385729
20
-13.349131361706741
30
0
10
-12.531730257419538
20
-13.342803037146435
30
0
10
-12.574999089562269
20
-13.337165321809737
30
0
10
-12.618255576173079
20
-13.332215474231944
30
0
10
-12.661489274200957
20
-13.327856738763547
30
0
10
-12.704686142728319
20
-13.323947695680879
30
0
10
-12.747831658149455
20
-13.320376533753208
30
0
10
-12.790913623369375
20
-13.317129662402674
30
0
10
-12.833924916400242
20
-13.314356744318395
30
0
10
-12.876866776996536
20
-13.312453484798086
30
0
10
-12.919746145217514
20
-13.311955612124661
30
0
10
-12.954006954989215
20
-13.313116112858541
30
0
10
-12.979682212760588
20
-13.315055650447754
30
0
10
-12.996790513714117
20
-13.316848430064919
30
0
10
-13.00534252984975
20
-13.317869760080134
30
0
0
ARC
5
128
100
AcDbEntity
8
0
100
AcDbCircle
10
-24.970669402129456
20
-27.890439789415503
30
0
40
0.50000000000000144
210
0
220
-0
230
1
100
AcDbArc
50
11.189669939570527
51
98.946595814437472
0
ARC
5
129
100
AcDbEntity
8
0
100
AcDbCircle
10
-27
20
-15
30
0
40
12.549200000000003
210
0
220
0
230
1
100
AcDbArc
50
177.05340418556295
51
182.94659581443702
0
SPLINE
5
130
100
AcDbEntity
8
0
100
AcDbSpline
70
0
71
5
72
81
73
75
74
0
42
0.000000001
43
0.0000000001
44
0.0000000001
40
-1
40
-1
40
-1
40
-1
40
-1
40
-1
40
-0.98571428571428399
40
-0.97142857142856975
40
-0.95714285714285563
40
-0.94285714285714117
40
-0.92857142857142716
40
-0.91428571428571281
40
-0.89999999999999869
40
-0.88571428571428445
40
-0.87142857142857022
40
-0.85714285714285599
40
-0.84285714285714175
40
-0.82857142857142752
40
-0.81428571428571328
40
-0.79999999999999905
40
-0.78571428571428481
40
-0.77142857142857058
40
-0.75714285714285634
40
-0.74285714285714211
40
-0.72857142857142776
40
-0.71428571428571364
40
-0.6999999999999994
40
-0.68571428571428517
40
-0.67142857142857093
40
-0.6571428571428567
40
-0.64285714285714246
40
-0.62857142857142823
40
-0.61428571428571399
40
-0.59999999999999976
40
-0.58571428571428552
40
-0.57142857142857129
40
-0.55714285714285705
40
-0.54285714285714282
40
-0.52857142857142858
40
-0.51428571428571435
40
-0.50000000000000011
40
-0.48571428571428582
40
-0.47142857142857147
40
-0.4571428571428573
40
-0.44285714285714295
40
-0.42857142857142871
40
-0.41428571428571442
40
-0.40000000000000008
40
-0.38571428571428573
40
-0.3714285714285715
40
-0.35714285714285721
40
-0.34285714285714292
40
-0.32857142857142863
40
-0.31428571428571433
40
-0.30000000000000004
40
-0.2857142857142857
40
-0.27142857142857146
40
-0.25714285714285717
40
-0.24285714285714291
40
-0.22857142857142865
40
-0.21428571428571436
40
-0.20000000000000004
40
-0.18571428571428572
40
-0.17142857142857146
40
-0.15714285714285714
40
-0.14285714285714288
40
-0.12857142857142859
40
-0.1142857142857143
40
-0.10000000000000001
40
-0.085714285714285715
40
-0.071428571428571438
40
-0.057142857142857134
40
-0.042857142857142858
40
-0.028571428571428567
40
-0.014285714285714284
40
-0
40
-0
40
-0
40
-0
40
-0
40
-0
10
-15.145584384660777
20
-27.184942774539476
30
0
10
-15.147313248043792
20
-27.175354830800657
30
0
10
-15.150794150777953
20
-27.156191725122536
30
0
10
-15.156085032780373
20
-27.127485412009136
30
0
10
-15.16327864414702
20
-27.089287044099031
30
0
10
-15.172502793864782
20
-27.041667188366976
30
0
10
-15.181959512770176
20
-26.994175911807758
30
0
10
-15.191649318914969
20
-26.946813974048709
30
0
10
-15.201572765525796
20
-26.899582466259069
30
0
10
-15.211730384337745
20
-26.852482873263661
30
0
10
-15.222122691007964
20
-26.805516981795414
30
0
10
-15.232750197919449
20
-26.758686769489167
30
0
10
-15.243613422630649
20
-26.711994296417771
30
0
10
-15.254712896602447
20
-26.665441602944341
30
0
10
-15.266049171611984
20
-26.619030582662575
30
0
10
-15.277622828371697
20
-26.572763008978512
30
0
10
-15.289434484475226
20
-26.526640605169767
30
0
10
-15.301484801503689
20
-26.480665101133994
30
0
10
-15.313774489599563
20
-26.434838289288578
30
0
10
-15.326304314403822
20
-26.389162093291159
30
0
10
-15.339075085879736
20
-26.343638559054575
30
0
10
-15.352087639390684
20
-26.2982698098049
30
0
10
-15.365342815369448
20
-26.253058008989338
30
0
10
-15.378841442825886
20
-26.208005324825958
30
0
10
-15.392584306907228
20
-26.163113878134059
30
0
10
-15.406572178460065
20
-26.118385764277853
30
0
10
-15.420805879859172
20
-26.073823120351484
30
0
10
-15.435286343169743
20
-26.029428181959624
30
0
10
-15.450014659075251
20
-25.985203333674196
30
0
10
-15.464992154584408
20
-25.941151184649875
30
0
10
-15.480220345690396
20
-25.897274533585932
30
0
10
-15.495700797579701
20
-25.853576251055053
30
0
10
-15.511434997808955
20
-25.8100591746921
30
0
10
-15.527424248746806
20
-25.76672601952318
30
0
10
-15.543669484628007
20
-25.723579226994566
30
0
10
-15.560171380767414
20
-25.680621053664332
30
0
10
-15.576930709831336
20
-25.637853863001261
30
0
10
-15.593948654986418
20
-25.595280381518446
30
0
10
-15.611227079092714
20
-25.552903919903656
30
0
10
-15.628768959012422
20
-25.510728727499973
30
0
10
-15.64657816331791
20
-25.468759816470872
30
0
10
-15.664658649523329
20
-25.427002317027956
30
0
10
-15.683013753987115
20
-25.385460907671792
30
0
10
-15.701645585753763
20
-25.344139329425481
30
0
10
-15.720554018353141
20
-25.303039575492793
30
0
10
-15.739737272714521
20
-25.262162365952907
30
0
10
-15.759193852672837
20
-25.221508715118588
30
0
10
-15.778924256845986
20
-25.18108131791103
30
0
10
-15.79893244219261
20
-25.140885736750409
30
0
10
-15.819228233226088
20
-25.100932349747858
30
0
10
-15.839825825406368
20
-25.061235154261858
30
0
10
-15.860739364241079
20
-25.021808216549097
30
0
10
-15.881978996484056
20
-24.982662500558224
30
0
10
-15.903547527030755
20
-24.943803186727479
30
0
10
-15.925434804289473
20
-24.905225156237783
30
0
10
-15.947622129304539
20
-24.866916569799695
30
0
10
-15.970092727978273
20
-24.828867343501702
30
0
10
-15.992841210458547
20
-24.791076804913757
30
0
10
-16.015881665926965
20
-24.753560251756742
30
0
10
-16.039260872881435
20
-24.716359630211777
30
0
10
-16.063045919909172
20
-24.679533608624894
30
0
10
-16.08730054644214
20
-24.643138584199566
30
0
10
-16.112063407350263
20
-24.607211207606522
30
0
10
-16.137329192850764
20
-24.571753278902257
30
0
10
-16.163019011718333
20
-24.536707816619657
30
0
10
-16.189018373409397
20
-24.501990626928531
30
0
10
-16.215234467797323
20
-24.467537686654687
30
0
10
-16.241649033664913
20
-24.433348966134556
30
0
10
-16.268368526525133
20
-24.399529901922463
30
0
10
-16.295687842280053
20
-24.366344351227063
30
0
10
-16.324009748437042
20
-24.334145628770049
30
0
10
-16.347797124969262
20
-24.309461411831286
30
0
10
-16.366418583093481
20
-24.291678780838826
30
0
10
-16.379198565780008
20
-24.280164439224798
30
0
10
-16.385679977638347
20
-24.274492455858578
30
0
0
LINE
5
131
100
AcDbEntity
8
0
100
AcDbLine
10
-14.540066104705346
20
-11.15670259501764
30
0
11
-13.531060229878848
21
-10.844562439437468
31
0
0
ARC
5
132
100
AcDbEntity
8
0
100
AcDbCircle
10
-14.113365598418991
20
-12.946643128925515
30
0
40
0.50000000000000278
210
0
220
0
230
1
100
AcDbArc
50
189.0534041855627
51
276.8103300604289
0
ARC
5
133
100
AcDbEntity
8
0
100
AcDbCircle
10
-27
20
-15
30
0
40
12.549199999999999
210
0
220
-0
230
1
100
AcDbArc
50
9.0534041855628207
51
14.946595814437158
0
ARC
5
134
100
AcDbEntity
8
0
100
AcDbCircle
10
-27
20
-15
30
0
40
17
210
0
220
0
230
1
100
AcDbArc
50
285.7877339190768
51
290.21226608092314
0
LINE
5
135
100
AcDbEntity
8
0
100
AcDbLine
10
-21.075612085334349
20
-27.789903349417806
30
0
11
-21.518803456733544
21
-26.831203323091891
31
0
0
SPLINE
5
136
100
AcDbEntity
8
0
100
AcDbSpline
70
0
71
5
72
81
73
75
74
0
42
0.000000001
43
0.0000000001
44
0.0000000001
40
0
40
0
40
0
40
0
40
0
40
0
40
0.014285714285714284
40
0.028571428571428567
40
0.042857142857142858
40
0.057142857142857134
40
0.071428571428571438
40
0.085714285714285715
40
0.10000000000000001
40
0.1142857142857143
40
0.12857142857142859
40
0.14285714285714288
40
0.15714285714285714
40
0.17142857142857146
40
0.18571428571428572
40
0.20000000000000004
40
0.21428571428571436
40
0.22857142857142865
40
0.24285714285714291
40
0.25714285714285717
40
0.27142857142857146
40
0.2857142857142857
40
0.30000000000000004
40
0.31428571428571433
40
0.32857142857142863
40
0.34285714285714292
40
0.35714285714285721
40
0.3714285714285715
40
0.38571428571428573
40
0.40000000000000008
40
0.41428571428571442
40
0.42857142857142871
40
0.44285714285714295
40
0.4571428571428573
40
0.47142857142857147
40
0.48571428571428582
40
0.50000000000000011
40
0.51428571428571435
40
0.52857142857142858
40
0.54285714285714282
40
0.55714285714285705
40
0.57142857142857129
40
0.58571428571428552
40
0.59999999999999976
40
0.61428571428571399
40
0.62857142857142823
40
0.64285714285714246
40
0.6571428571428567
40
0.67142857142857093
40
0.68571428571428517
40
0.6999999999999994
40
0.71428571428571364
40
0.72857142857142776
40
0.74285714285714211
40
0.75714285714285634
40
0.77142857142857058
40
0.78571428571428481
40
0.79999999999999905
40
0.81428571428571328
40
0.82857142857142752
40
0.84285714285714175
40
0.85714285714285599
40
0.87142857142857022
40
0.88571428571428445
40
0.89999999999999869
40
0.91428571428571281
40
0.92857142857142716
40
0.94285714285714117
40
0.95714285714285563
40
0.97142857142856975
40
0.98571428571428399
40
1
40
1
40
1
40
1
40
1
40
1
10
-35.454096255319747
20
-26.278663766451842
30
0
10
-35.45925676112639
20
-26.285559364671268
30
0
10
-35.469363504295011
20
-26.299479198104038
30
0
10
-35.483880822004544
20
-26.320744854788146
30
0
10
-35.502016250007046
20
-26.349835336037728
30
0
10
-35.52302476373449
20
-26.387218894552031
30
0
10
-35.542847422938067
20
-26.425359266474352
30
0
10
-35.561951651949897
20
-26.463994597930842
30
0
10
-35.580680761487471
20
-26.50292810993151
30
0
10
-35.59916080224766
20
-26.54207880330943
30
0
10
-35.61737390589726
20
-26.581442910359392
30
0
10
-35.635215979267187
20
-26.621063758885278
30
0
10
-35.652557528825362
20
-26.660999898957598
30
0
10
-35.66930954019584
20
-26.701290664453637
30
0
10
-35.685467193880129
20
-26.741933190686538
30
0
10
-35.701075920149435
20
-26.782899664690039
30
0
10
-35.716209791214119
20
-26.824148173847931
30
0
10
-35.730946627449846
20
-26.865635280359928
30
0
10
-35.745340906233523
20
-26.907329680466177
30
0
10
-35.759409589439358
20
-26.949219340043275
30
0
10
-35.773147265190374
20
-26.991303796213799
30
0
10
-35.786535429380052
20
-27.033589425000592
30
0
10
-35.799553330143084
20
-27.076083919244709
30
0
10
-35.812189973462097
20
-27.118790175272171
30
0
10
-35.824449180012493
20
-27.161703709020301
30
0
10
-35.83634315435031
20
-27.204815905757769
30
0
10
-35.847888657409108
20
-27.24811594762576
30
0
10
-35.859102484658436
20
-27.291593094543735
30
0
10
-35.869996403653126
20
-27.335239237818378
30
0
10
-35.880575441374958
20
-27.379049759279699
30
0
10
-35.890840645851455
20
-27.423022126565499
30
0
10
-35.900790764499831
20
-27.467155036457953
30
0
10
-35.91042420683921
20
-27.511447414723751
30
0
10
-35.919741263573492
20
-27.555897285420787
30
0
10
-35.928744775461922
20
-27.600501427771292
30
0
10
-35.937438978670471
20
-27.645255959179096
30
0
10
-35.945828810863077
20
-27.690156684353475
30
0
10
-35.953919098161919
20
-27.735199504980166
30
0
10
-35.961713635865692
20
-27.780380883498914
30
0
10
-35.969214934457192
20
-27.825697968878771
30
0
10
-35.976424718121976
20
-27.871148340181684
30
0
10
-35.98334423403454
20
-27.916729846232705
30
0
10
-35.98997461191729
20
-27.962440420190802
30
0
10
-35.996317273194933
20
-28.008277868199514
30
0
10
-36.002374056261893
20
-28.054239805340202
30
0
10
-36.00814700614562
20
-28.100323765267579
30
0
10
-36.013638250655092
20
-28.146527265558404
30
0
10
-36.018849854537734
20
-28.192847883864431
30
0
10
-36.023783658277686
20
-28.239283343947879
30
0
10
-36.028441224504746
20
-28.285831540111293
30
0
10
-36.032823929724593
20
-28.332490479390586
30
0
10
-36.036933022667988
20
-28.37925824237356
30
0
10
-36.040769692987418
20
-28.426132939752776
30
0
10
-36.044335149615875
20
-28.473112660295207
30
0
10
-36.047630654245239
20
-28.520195455524391
30
0
10
-36.050657478748789
20
-28.567379384005438
30
0
10
-36.05341688167875
20
-28.61466254259166
30
0
10
-36.055910080667928
20
-28.662043098479167
30
0
10
-36.058138224577128
20
-28.709519329232556
30
0
10
-36.060102380695028
20
-28.757089629249997
30
0
10
-36.061803555811565
20
-28.8047524439867
30
0
10
-36.06324271231405
20
-28.852506216227724
30
0
10
-36.064420786936793
20
-28.900349332057125
30
0
10
-36.06533871309955
20
-28.948280053981673
30
0
10
-36.065997434864848
20
-28.996296496722032
30
0
10
-36.066397886794491
20
-29.044396752829318
30
0
10
-36.06654098124806
20
-29.092578994415199
30
0
10
-36.066427594097036
20
-29.140841581002263
30
0
10
-36.066058554169246
20
-29.18918317076664
30
0
10
-36.065434629468854
20
-29.237602811406038
30
0
10
-36.064556484662347
20
-29.286099867601813
30
0
10
-36.063651011102571
20
-29.324959145427357
30
0
10
-36.062857896542454
20
-29.354138192948177
30
0
10
-36.062278499497403
20
-29.373606259162877
30
0
10
-36.061976137473295
20
-29.383344134236125
30
0
0
LINE
5
137
100
AcDbEntity
8
0
100
AcDbLine
10
-13.531060229878848
20
-19.155437560562543
30
0
11
-14.540066104705351
21
-18.843297404982376
31
0
0
SPLINE
5
138
100
AcDbEntity
8
0
100
AcDbSpline
70
0
71
5
72
81
73
75
74
0
42
0.000000001
43
0.0000000001
44
0.0000000001
40
-1
40
-1
40
-1
40
-1
40
-1
40
-1
40
-0.98571428571428399
40
-0.97142857142856975
40
-0.95714285714285563
40
-0.94285714285714117
40
-0.92857142857142716
40
-0.91428571428571281
40
-0.89999999999999869
40
-0.88571428571428445
40
-0.87142857142857022
40
-0.85714285714285599
40
-0.84285714285714175
40
-0.82857142857142752
40
-0.81428571428571328
40
-0.79999999999999905
40
-0.78571428571428481
40
-0.77142857142857058
40
-0.75714285714285634
40
-0.74285714285714211
40
-0.72857142857142776
40
-0.71428571428571364
40
-0.6999999999999994
40
-0.68571428571428517
40
-0.67142857142857093
40
-0.6571428571428567
40
-0.64285714285714246
40
-0.62857142857142823
40
-0.61428571428571399
40
-0.59999999999999976
40
-0.58571428571428552
40
-0.57142857142857129
40
-0.55714285714285705
40
-0.54285714285714282
40
-0.52857142857142858
40
-0.51428571428571435
40
-0.50000000000000011
40
-0.48571428571428582
40
-0.47142857142857147
40
-0.4571428571428573
40
-0.44285714285714295
40
-0.42857142857142871
40
-0.41428571428571442
40
-0.40000000000000008
40
-0.38571428571428573
40
-0.3714285714285715
40
-0.35714285714285721
40
-0.34285714285714292
40
-0.32857142857142863
40
-0.31428571428571433
40
-0.30000000000000004
40
-0.2857142857142857
40
-0.27142857142857146
40
-0.25714285714285717
40
-0.24285714285714291
40
-0.22857142857142865
40
-0.21428571428571436
40
-0.20000000000000004
40
-0.18571428571428572
40
-0.17142857142857146
40
-0.15714285714285714
40
-0.14285714285714288
40
-0.12857142857142859
40
-0.1142857142857143
40
-0.10000000000000001
40
-0.085714285714285715
40
-0.071428571428571438
40
-0.057142857142857134
40
-0.042857142857142858
40
-0.028571428571428567
40
-0.014285714285714284
40
-0
40
-0
40
-0
40
-0
40
-0
40
-0
10
-43.752553354095213
20
-12.110024893153346
30
0
10
-43.745519022307917
20
-12.116765502179394
30
0
10
-43.731439121934486
20
-12.130222757046191
30
0
10
-43.71028556098355
20
-12.150336749788133
30
0
10
-43.68201336981781
20
-12.17701157991276
30
0
10
-43.646560627021877
20
-12.210115033300642
30
0
10
-43.610995308742339
20
-12.242977763213943
30
0
10
-43.575317442364238
20
-12.275598850598058
30
0
10
-43.539527221691017
20
-12.307977087500069
30
0
10
-43.50362508929809
20
-12.340110960125433
30
0
10
-43.467611678225325
20
-12.371998719881157
30
0
10
-43.431487736370762
20
-12.403638465655895
30
0
10
-43.395254055901262
20
-12.43502822660246
30
0
10
-43.358911406151279
20
-12.466166039647565
30
0
10
-43.322460453750182
20
-12.497050048515256
30
0
10
-43.285901771273657
20
-12.527678477155707
30
0
10
-43.249235871995133
20
-12.558049568395599
30
0
10
-43.212463237492564
20
-12.588161533850709
30
0
10
-43.17558434680511
20
-12.618012506013647
30
0
10
-43.138599711213828
20
-12.647600478580205
30
0
10
-43.101509878002034
20
-12.676923320287674
30
0
10
-43.064315419347551
20
-12.705978822395796
30
0
10
-43.027016926968329
20
-12.734764740645021
30
0
10
-42.989615004627908
20
-12.763278833630318
30
0
10
-42.952110263715149
20
-12.791518924074872
30
0
10
-42.91450331222623
20
-12.819482863701165
30
0
10
-42.87679474099842
20
-12.847168440183943
30
0
10
-42.838985110030578
20
-12.87457329702687
30
0
10
-42.801074938557448
20
-12.901694863983078
30
0
10
-42.763064686629086
20
-12.928530250205927
30
0
10
-42.724954772815373
20
-12.955076300421718
30
0
10
-42.686745618134161
20
-12.981329772294842
30
0
10
-42.64843768704678
20
-13.007287495766615
30
0
10
-42.610031521767134
20
-13.032946508821686
30
0
10
-42.57152780152957
20
-13.058304287159128
30
0
10
-42.532927306364442
20
-13.083358608244984
30
0
10
-42.494230800383683
20
-13.108107105830991
30
0
10
-42.455438928989523
20
-13.132546878673814
30
0
10
-42.416552131070013
20
-13.156674153409121
30
0
10
-42.377570495994199
20
-13.180483742490443
30
0
10
-42.33849384009708
20
-13.203969317102562
30
0
10
-42.299321977145176
20
-13.227124400648664
30
0
10
-42.260054957921447
20
-13.24994324707999
30
0
10
-42.220693275091257
20
-13.272421590180015
30
0
10
-42.181238202546893
20
-13.294557891750308
30
0
10
-42.141691602838698
20
-13.316352614946108
30
0
10
-42.102055282587749
20
-13.33780581859491
30
0
10
-42.06233042243862
20
-13.358915029379425
30
0
10
-42.022517090653047
20
-13.379673421365265
30
0
10
-41.982613439133452
20
-13.400066823780076
30
0
10
-41.942616210952359
20
-13.420075568640977
30
0
10
-41.902522230091932
20
-13.439679961586478
30
0
10
-41.862329732103234
20
-13.458865168483527
30
0
10
-41.822039492763345
20
-13.477625349593376
30
0
10
-41.781656716116117
20
-13.495970613083546
30
0
10
-41.741189570974726
20
-13.513921528110764
30
0
10
-41.700645700694785
20
-13.531496112298056
30
0
10
-41.660029070513829
20
-13.548698077728346
30
0
10
-41.619337273819198
20
-13.565506766872307
30
0
10
-41.578557121357782
20
-13.581860748845362
30
0
10
-41.537668821710952
20
-13.597673126276382
30
0
10
-41.496653958039538
20
-13.612860807771225
30
0
10
-41.455502800620572
20
-13.627371421551944
30
0
10
-41.414220703205231
20
-13.641206632354248
30
0
10
-41.372837997269471
20
-13.654458910252176
30
0
10
-41.331397819717004
20
-13.66726366533821
30
0
10
-41.289937623639965
20
-13.679727245872002
30
0
10
-41.248472165237573
20
-13.691860409526047
30
0
10
-41.206977294242371
20
-13.703515283355518
30
0
10
-41.165369526233981
20
-13.714305066932322
30
0
10
-41.123530688637004
20
-13.723707181841323
30
0
10
-41.089777278089841
20
-13.729695263721249
30
0
10
-41.064259833762975
20
-13.733136295937252
30
0
10
-41.047152650391176
20
-13.734939708634348
30
0
10
-41.038575169876317
20
-13.735718761265066
30
0
0
LINE
5
139
100
AcDbEntity
8
0
100
AcDbLine
10
-41.038575169876317
20
-13.735718761265066
30
0
11
-39.986720906769683
21
-13.831253788058259
31
0
0
ARC
5
140
100
AcDbEntity
8
0
100
AcDbCircle
10
-30.389128457977819
20
-27.601405831704852
30
0
40
0.50000000000000466
210
0
220
0
230
1
100
AcDbArc
50
-12.810330060428299
51
74.946595814437131
0
LINE
5
141
100
AcDbEntity
8
0
100
AcDbLine
10
-19.494475636496801
20
-25.662457111150161
30
0
11
-18.885812744789341
21
-26.525622110682878
31
0
0
ARC
5
142
100
AcDbEntity
8
0
100
AcDbCircle
10
-26.304911723400892
20
-28.030674308251839
30
0
40
0.49999999999999994
210
0
220
0
230
1
100
AcDbArc
50
93.05340418556203
51
180.8103300604285
0
ARC
5
143
100
AcDbEntity
8
0
100
AcDbCircle
10
-27
20
-15
30
0
40
12.549200000000006
210
0
220
0
230
1
100
AcDbArc
50
225.05340418556278
51
230.94659581443716
0
SPLINE
5
144
100
AcDbEntity
8
0
100
AcDbSpline
70
0
71
5
72
81
73
75
74
0
42
0.000000001
43
0.0000000001
44
0.0000000001
40
0
40
0
40
0
40
0
40
0
40
0
40
0.014285714285714284
40
0.028571428571428567
40
0.042857142857142858
40
0.057142857142857134
40
0.071428571428571438
40
0.085714285714285715
40
0.10000000000000001
40
0.1142857142857143
40
0.12857142857142859
40
0.14285714285714288
40
0.15714285714285714
40
0.17142857142857146
40
0.18571428571428572
40
0.20000000000000004
40
0.21428571428571436
40
0.22857142857142865
40
0.24285714285714291
40
0.25714285714285717
40
0.27142857142857146
40
0.2857142857142857
40
0.30000000000000004
40
0.31428571428571433
40
0.32857142857142863
40
0.34285714285714292
40
0.35714285714285721
40
0.3714285714285715
40
0.38571428571428573
40
0.40000000000000008
40
0.41428571428571442
40
0.42857142857142871
40
0.44285714285714295
40
0.4571428571428573
40
0.47142857142857147
40
0.48571428571428582
40
0.50000000000000011
40
0.51428571428571435
40
0.52857142857142858
40
0.54285714285714282
40
0.55714285714285705
40
0.57142857142857129
40
0.58571428571428552
40
0.59999999999999976
40
0.61428571428571399
40
0.62857142857142823
40
0.64285714285714246
40
0.6571428571428567
40
0.67142857142857093
40
0.68571428571428517
40
0.6999999999999994
40
0.71428571428571364
40
0.72857142857142776
40
0.74285714285714211
40
0.75714285714285634
40
0.77142857142857058
40
0.78571428571428481
40
0.79999999999999905
40
0.81428571428571328
40
0.82857142857142752
40
0.84285714285714175
40
0.85714285714285599
40
0.87142857142857022
40
0.88571428571428445
40
0.89999999999999869
40
0.91428571428571281
40
0.92857142857142716
40
0.94285714285714117
40
0.95714285714285563
40
0.97142857142856975
40
0.98571428571428399
40
1
40
1
40
1
40
1
40
1
40
1
10
-30.135755393773394
20
-28.742162783248716
30
0
10
-30.137665057940424
20
-28.750561192488171
30
0
10
-30.141236320931057
20
-28.76738837588065
30
0
10
-30.145849028769263
20
-28.792720245019847
30
0
10
-30.150584401954433
20
-28.826672065132513
30
0
10
-30.154571371145636
20
-28.869368577553296
30
0
10
-30.157167184578107
20
-28.912274142937022
30
0
10
-30.1589053611929
20
-28.955339664470436
30
0
10
-30.160179568162341
20
-28.998525012649836
30
0
10
-30.161137903857231
20
-29.041807460491484
30
0
10
-30.161765577206722
20
-29.085176298319574
30
0
10
-30.161949871363511
20
-29.128628769546339
30
0
10
-30.161548673640446
20
-29.17216569255821
30
0
10
-30.160464666829512
20
-29.215786795231654
30
0
10
-30.158694613272861
20
-29.259487500278372
30
0
10
-30.156291328140938
20
-29.303260877445375
30
0
10
-30.153339527161869
20
-29.347098765534689
30
0
10
-30.149927970531422
20
-29.390993134539528
30
0
10
-30.146119158196019
20
-29.434937544997695
30
0
10
-30.141933480317746
20
-29.478927902206191
30
0
10
-30.137366181170179
20
-29.522961582096762
30
0
10
-30.132397763048743
20
-29.567036883157947
30
0
10
-30.1270061392208
20
-29.611152392605746
30
0
10
-30.121180088109789
20
-29.655306284695868
30
0
10
-30.114924923908966
20
-29.699496017041938
30
0
10
-30.108255299961975
20
-29.743718683735448
30
0
10
-30.101190928163106
20
-29.787971219456431
30
0
10
-30.09375152032159
20
-29.832250643986047
30
0
10
-30.085951124736383
20
-29.876554335960044
30
0
10
-30.077796212162813
20
-29.920880121127944
30
0
10
-30.069288770026176
20
-29.965226112332928
30
0
10
-30.060428184101582
20
-30.009590609554984
30
0
10
-30.051213438342501
20
-30.053971984526274
30
0
10
-30.041645602008238
20
-30.098368550373806
30
0
10
-30.031728580269821
20
-30.142778520211539
30
0
10
-30.02146782225158
20
-30.187200070115324
30
0
10
-30.010869545112424
20
-30.231631375825234
30
0
10
-29.999939824668928
20
-30.276070656305606
30
0
10
-29.988683566954386
20
-30.320516223521388
30
0
10
-29.977104225027684
20
-30.364966494031577
30
0
10
-29.965204358694947
20
-30.409419957488648
30
0
10
-29.952985982268416
20
-30.453875155968049
30
0
10
-29.940450968460873
20
-30.498330660816066
30
0
10
-29.927601508130202
20
-30.542785045990577
30
0
10
-29.914440250767093
20
-30.587236880502413
30
0
10
-29.900970067750066
20
-30.631684743020593
30
0
10
-29.887193912621868
20
-30.676127231196567
30
0
10
-29.87311465688089
20
-30.720562971913495
30
0
10
-29.858734907722404
20
-30.764990634317058
30
0
10
-29.844056949144058
20
-30.809408930335699
30
0
10
-29.829082849257897
20
-30.853816599181421
30
0
10
-29.813814529531513
20
-30.898212395288517
30
0
10
-29.798253845217086
20
-30.94259507656399
30
0
10
-29.782402678098361
20
-30.986963388726927
30
0
10
-29.766262973305018
20
-31.031316064931858
30
0
10
-29.74983668240381
20
-31.075651848907199
30
0
10
-29.733125729218905
20
-31.119969513941264
30
0
10
-29.71613197158171
20
-31.164267880940251
30
0
10
-29.698857159606405
20
-31.208545843664929
30
0
10
-29.681302921366814
20
-31.25280236943043
30
0
10
-29.663470808901636
20
-31.297036447587789
30
0
10
-29.645362334771789
20
-31.341247046988556
30
0
10
-29.626979011165425
20
-31.385433074251317
30
0
10
-29.608322397506079
20
-31.429593321753053
30
0
10
-29.589394123049964
20
-31.473726451190203
30
0
10
-29.570195817391117
20
-31.51783110014204
30
0
10
-29.550729057480687
20
-31.561905969839543
30
0
10
-29.530995310709336
20
-31.605949917881059
30
0
10
-29.510995880017905
20
-31.649962055564139
30
0
10
-29.490731854349352
20
-31.693941825292779
30
0
10
-29.470204099314081
20
-31.737888917018736
30
0
10
-29.453571415841424
20
-31.773020344487435
30
0
10
-29.440978681800871
20
-31.799354142054668
30
0
10
-29.432531000362843
20
-31.816903443505073
30
0
10
-29.428294028291173
20
-31.825676453330658
30
0
0
ARC
5
145
100
AcDbEntity
8
0
100
AcDbCircle
10
-35.221576414176347
20
-25.133474325514396
30
0
40
0.50000000000000411
210
0
220
0
230
1
100
AcDbArc
50
-36.810330060428583
51
50.94659581443716
0
SPLINE
5
146
100
AcDbEntity
8
0
100
AcDbSpline
70
0
71
5
72
81
73
75
74
0
42
0.000000001
43
0.0000000001
44
0.0000000001
40
0
40
0
40
0
40
0
40
0
40
0
40
0.014285714285714284
40
0.028571428571428567
40
0.042857142857142858
40
0.057142857142857134
40
0.071428571428571438
40
0.085714285714285715
40
0.10000000000000001
40
0.1142857142857143
40
0.12857142857142859
40
0.14285714285714288
40
0.15714285714285714
40
0.17142857142857146
40
0.18571428571428572
40
0.20000000000000004
40
0.21428571428571436
40
0.22857142857142865
40
0.24285714285714291
40
0.25714285714285717
40
0.27142857142857146
40
0.2857142857142857
40
0.30000000000000004
40
0.31428571428571433
40
0.32857142857142863
40
0.34285714285714292
40
0.35714285714285721
40
0.3714285714285715
40
0.38571428571428573
40
0.40000000000000008
40
0.41428571428571442
40
0.42857142857142871
40
0.44285714285714295
40
0.4571428571428573
40
0.47142857142857147
40
0.48571428571428582
40
0.50000000000000011
40
0.51428571428571435
40
0.52857142857142858
40
0.54285714285714282
40
0.55714285714285705
40
0.57142857142857129
40
0.58571428571428552
40
0.59999999999999976
40
0.61428571428571399
40
0.62857142857142823
40
0.64285714285714246
40
0.6571428571428567
40
0.67142857142857093
40
0.68571428571428517
40
0.6999999999999994
40
0.71428571428571364
40
0.72857142857142776
40
0.74285714285714211
40
0.75714285714285634
40
0.77142857142857058
40
0.78571428571428481
40
0.79999999999999905
40
0.81428571428571328
40
0.82857142857142752
40
0.84285714285714175
40
0.85714285714285599
40
0.87142857142857022
40
0.88571428571428445
40
0.89999999999999869
40
0.91428571428571281
40
0.92857142857142716
40
0.94285714285714117
40
0.95714285714285563
40
0.97142857142856975
40
0.98571428571428399
40
1
40
1
40
1
40
1
40
1
40
1
10
-24.275213937200188
20
-28.829517011192294
30
0
10
-24.273542561444369
20
-28.837966070197115
30
0
10
-24.269960840442032
20
-28.85479103067059
30
0
10
-24.263871359318543
20
-28.879809001957895
30
0
10
-24.254387888643159
20
-28.912751582793575
30
0
10
-24.240663930104471
20
-28.953378434237635
30
0
10
-24.225584058041143
20
-28.993630431043094
30
0
10
-24.209655635731359
20
-29.033679722742328
30
0
10
-24.193254618171835
20
-29.073649768073668
30
0
10
-24.176525543853586
20
-29.11358004193854
30
0
10
-24.159459256478598
20
-29.153454744490745
30
0
10
-24.141953905288283
20
-29.193225511389986
30
0
10
-24.123879331015061
20
-29.23283528783212
30
0
10
-24.105146740648216
20
-29.272244242745458
30
0
10
-24.08575503819101
20
-29.311446877694969
30
0
10
-24.065755291490323
20
-29.350458343444643
30
0
10
-24.045228211673049
20
-29.389305641360028
30
0
10
-24.024258151310853
20
-29.428017537688955
30
0
10
-24.002904826111134
20
-29.466613570708382
30
0
10
-23.981188528879596
20
-29.505098293147078
30
0
10
-23.959105982348671
20
-29.543467373471195
30
0
10
-23.936640066545984
20
-29.581711326841766
30
0
10
-23.913771178868277
20
-29.619819879132884
30
0
10
-23.89048981049234
20
-29.657786798217778
30
0
10
-23.866801850257019
20
-29.695611922988046
30
0
10
-23.842721866597284
20
-29.733298558815964
30
0
10
-23.818269114002582
20
-29.770851922942128
30
0
10
-23.793462812270914
20
-29.808277310316242
30
0
10
-23.768316861366863
20
-29.845578040160902
30
0
10
-23.742838056966917
20
-29.882754758092727
30
0
10
-23.717028982250248
20
-29.919806548466887
30
0
10
-23.690889767554939
20
-29.956731608410028
30
0
10
-23.664420146952491
20
-29.993528037162143
30
0
10
-23.637621783372936
20
-30.030194728594989
30
0
10
-23.610498971159561
20
-30.066731638683105
30
0
10
-23.583057430191943
20
-30.103139317547402
30
0
10
-23.555303582120708
20
-30.139418627389851
30
0
10
-23.527243701892957
20
-30.17557041241065
30
0
10
-23.498882957978829
20
-30.211595125976576
30
0
10
-23.470225148948082
20
-30.247492726027847
30
0
10
-23.441273227613628
20
-30.283262873960304
30
0
10
-23.412029627132629
20
-30.318905057188204
30
0
10
-23.382496639399136
20
-30.354418732272322
30
0
10
-23.352676845885014
20
-30.389803487560563
30
0
10
-23.322573249056173
20
-30.425059093424206
30
0
10
-23.292189050154811
20
-30.460185419307642
30
0
10
-23.261527517763039
20
-30.495182385415802
30
0
10
-23.230591833622093
20
-30.530049905287655
30
0
10
-23.199384920830582
20
-30.564787823569112
30
0
10
-23.167909389830108
20
-30.599395892533803
30
0
10
-23.136167642743683
20
-30.633873801571532
30
0
10
-23.104161941536532
20
-30.66822119433267
30
0
10
-23.071894486270587
20
-30.70243769070786
30
0
10
-23.039367506202847
20
-30.736522910244886
30
0
10
-23.006583293570181
20
-30.770476486778314
30
0
10
-22.973544142189198
20
-30.804298066420674
30
0
10
-22.940252308509336
20
-30.837987311004838
30
0
10
-22.906709969324687
20
-30.871543899023163
30
0
10
-22.872919173392148
20
-30.90496753171135
30
0
10
-22.83888182806194
20
-30.938257927862143
30
0
10
-22.804599762259926
20
-30.971414795472775
30
0
10
-22.77007477718513
20
-31.004437807756197
30
0
10
-22.735308699008449
20
-31.037326580921135
30
0
10
-22.700303443518703
20
-31.070080646023754
30
0
10
-22.665061043452614
20
-31.10269944314112
30
0
10
-22.629583541664839
20
-31.135182390455569
30
0
10
-22.593872907028878
20
-31.167528942886378
30
0
10
-22.557930944729424
20
-31.199738653639265
30
0
10
-22.521759206530028
20
-31.231811240797931
30
0
10
-22.485358914024292
20
-31.263746637886065
30
0
10
-22.448730984094656
20
-31.295544913735984
30
0
10
-22.419247032784725
20
-31.320873947879505
30
0
10
-22.397032077380743
20
-31.33980914265873
30
0
10
-22.382176792415169
20
-31.352405245693681
30
0
10
-22.374737821258805
20
-31.358696457172446
30
0
0
ARC
5
147
100
AcDbEntity
8
0
100
AcDbCircle
10
-21.064952537099828
20
-26.621395452058341
30
0
40
0.50000000000000278
210
0
220
0
230
1
100
AcDbArc
50
117.05340418556246
51
204.81033006042898
0
SPLINE
5
148
100
AcDbEntity
8
0
100
AcDbSpline
70
0
71
5
72
81
73
75
74
0
42
0.000000001
43
0.0000000001
44
0.0000000001
40
-1
40
-1
40
-1
40
-1
40
-1
40
-1
40
-0.98571428571428399
40
-0.97142857142856975
40
-0.95714285714285563
40
-0.94285714285714117
40
-0.92857142857142716
40
-0.91428571428571281
40
-0.89999999999999869
40
-0.88571428571428445
40
-0.87142857142857022
40
-0.85714285714285599
40
-0.84285714285714175
40
-0.82857142857142752
40
-0.81428571428571328
40
-0.79999999999999905
40
-0.78571428571428481
40
-0.77142857142857058
40
-0.75714285714285634
40
-0.74285714285714211
40
-0.72857142857142776
40
-0.71428571428571364
40
-0.6999999999999994
40
-0.68571428571428517
40
-0.67142857142857093
40
-0.6571428571428567
40
-0.64285714285714246
40
-0.62857142857142823
40
-0.61428571428571399
40
-0.59999999999999976
40
-0.58571428571428552
40
-0.57142857142857129
40
-0.55714285714285705
40
-0.54285714285714282
40
-0.52857142857142858
40
-0.51428571428571435
40
-0.50000000000000011
40
-0.48571428571428582
40
-0.47142857142857147
40
-0.4571428571428573
40
-0.44285714285714295
40
-0.42857142857142871
40
-0.41428571428571442
40
-0.40000000000000008
40
-0.38571428571428573
40
-0.3714285714285715
40
-0.35714285714285721
40
-0.34285714285714292
40
-0.32857142857142863
40
-0.31428571428571433
40
-0.30000000000000004
40
-0.2857142857142857
40
-0.27142857142857146
40
-0.25714285714285717
40
-0.24285714285714291
40
-0.22857142857142865
40
-0.21428571428571436
40
-0.20000000000000004
40
-0.18571428571428572
40
-0.17142857142857146
40
-0.15714285714285714
40
-0.14285714285714288
40
-0.12857142857142859
40
-0.1142857142857143
40
-0.10000000000000001
40
-0.085714285714285715
40
-0.071428571428571438
40
-0.057142857142857134
40
-0.042857142857142858
40
-0.028571428571428567
40
-0.014285714285714284
40
-0
40
-0
40
-0
40
-0
40
-0
40
-0
10
-34.925353342885742
20
-30.039573610658312
30
0
10
-34.916768914681377
20
-30.034966526315706
30
0
10
-34.899619376254364
20
-30.025734265768243
30
0
10
-34.873953022563043
20
-30.011831599365006
30
0
10
-34.83984716401352
20
-29.993186123557454
30
0
10
-34.797408408935951
20
-29.969698091170205
30
0
10
-34.755163807749938
20
-29.946028605491097
30
0
10
-34.713114242990756
20
-29.922177408561382
30
0
10
-34.671260923378505
20
-29.898144311421099
30
0
10
-34.629605425380639
20
-29.873929267196235
30
0
10
-34.588149607628004
20
-29.849532337598529
30
0
10
-34.546895509298146
20
-29.824953646445568
30
0
10
-34.505845249571145
20
-29.800193338107547
30
0
10
-34.465000933178054
20
-29.775251537641999
30
0
10
-34.424364531542025
20
-29.750128305430323
30
0
10
-34.383937910722445
20
-29.72482363719476
30
0
10
-34.343722900500644
20
-29.699337478090939
30
0
10
-34.30372135054688
20
-29.673669733485589
30
0
10
-34.263935184997443
20
-29.647820281880513
30
0
10
-34.224366469955584
20
-29.62178898955079
30
0
10
-34.185017401492431
20
-29.595575718397384
30
0
10
-34.145890257057459
20
-29.569180330055467
30
0
10
-34.106987353919259
20
-29.542602693767925
30
0
10
-34.06831101035386
20
-29.515842691115743
30
0
10
-34.029863486004132
20
-29.488900230748758
30
0
10
-33.991647011884545
20
-29.461775227051426
30
0
10
-33.953663874620226
20
-29.434467558297285
30
0
10
-33.915916488421516
20
-29.406977028879481
30
0
10
-33.878407458190807
20
-29.379303338369638
30
0
10
-33.841139675449938
20
-29.351446030980618
30
0
10
-33.804116270387709
20
-29.323404529762858
30
0
10
-33.767340456750212
20
-29.295178233191308
30
0
10
-33.730815392968843
20
-29.266766603392913
30
0
10
-33.694544063640933
20
-29.238169240730713
30
0
10
-33.658529079414272
20
-29.209386011143039
30
0
10
-33.622772795086902
20
-29.180416969682081
30
0
10
-33.587277697218234
20
-29.151262111850542
30
0
10
-33.552046744494895
20
-29.121921154928945
30
0
10
-33.517083661223481
20
-29.092393350290891
30
0
10
-33.482393408670433
20
-29.062677179891416
30
0
10
-33.447981949141088
20
-29.032770513343245
30
0
10
-33.413855384695744
20
-29.002671172149341
30
0
10
-33.380019195844312
20
-28.97237742898043
30
0
10
-33.34647759224179
20
-28.941888434055734
30
0
10
-33.313232430456175
20
-28.911204923589349
30
0
10
-33.28028384556039
20
-28.88032881209476
30
0
10
-33.247632339882756
20
-28.849261835949392
30
0
10
-33.215280630527047
20
-28.81800435371591
30
0
10
-33.183235230436679
20
-28.786554320985339
30
0
10
-33.151509045723479
20
-28.754905601102969
30
0
10
-33.120119775304772
20
-28.723049018805721
30
0
10
-33.089085168187935
20
-28.690975467628775
30
0
10
-33.058418787227133
20
-28.658678685482222
30
0
10
-33.028126426072276
20
-28.626157605595424
30
0
10
-32.998200079422759
20
-28.593420300903727
30
0
10
-32.968622709150132
20
-28.560480896629137
30
0
10
-32.939379541403397
20
-28.527352229786533
30
0
10
-32.910468271107682
20
-28.494039218637592
30
0
10
-32.881907801056649
20
-28.460533190830049
30
0
10
-32.85375247979001
20
-28.426802619451486
30
0
10
-32.826078835734158
20
-28.392801828979799
30
0
10
-32.798960202384634
20
-28.358487627307202
30
0
10
-32.772443381612383
20
-28.323834577147867
30
0
10
-32.74652844455975
20
-28.288848284653341
30
0
10
-32.721136819901801
20
-28.253586171595842
30
0
10
-32.696153055024041
20
-28.218131107628544
30
0
10
-32.671487580363078
20
-28.182551576178305
30
0
10
-32.64713472468074
20
-28.146864935528171
30
0
10
-32.623227660661705
20
-28.111002522155957
30
0
10
-32.600108459268981
20
-28.074765409753955
30
0
10
-32.578237604775452
20
-28.037879723913068
30
0
10
-32.562112223006253
20
-28.007628741929615
30
0
10
-32.550954282944424
20
-27.984423547656291
30
0
10
-32.543952725159507
20
-27.968710934606349
30
0
10
-32.540561214830518
20
-27.960794006371717
30
0
0
ARC
5
149
100
AcDbEntity
8
0
100
AcDbCircle
10
-27
20
-15
30
0
40
12.549200000000003
210
0
220
0
230
1
100
AcDbArc
50
249.05340418556278
51
254.9465958144371
0
ARC
5
150
100
AcDbEntity
8
0
100
AcDbCircle
10
-19.90310004254264
20
-25.950599601567106
30
0
40
0.49999999999999556
210
0
220
-0
230
1
100
AcDbArc
50
35.189669939570543
51
122.94659581443773
0
ARC
5
151
100
AcDbEntity
8
0
100
AcDbCircle
10
-27
20
-15
30
0
40
12.549200000000001
210
0
220
0
230
1
100
AcDbArc
50
297.05340418556278
51
302.9465958144371
0
ARC
5
152
100
AcDbEntity
8
0
100
AcDbCircle
10
-27
20
-15
30
0
40
12.549200000000003
210
0
220
0
230
1
100
AcDbArc
50
321.05340418556278
51
326.94659581443716
0
LINE
5
153
100
AcDbEntity
8
0
100
AcDbLine
10
-15.806550298166865
20
-21.687867477065353
30
0
11
-14.899428243881445
21
-22.228842440246645
31
0
0
SPLINE
5
154
100
AcDbEntity
8
0
100
AcDbSpline
70
0
71
5
72
81
73
75
74
0
42
0.000000001
43
0.0000000001
44
0.0000000001
40
0
40
0
40
0
40
0
40
0
40
0
40
0.014285714285714284
40
0.028571428571428567
40
0.042857142857142858
40
0.057142857142857134
40
0.071428571428571438
40
0.085714285714285715
40
0.10000000000000001
40
0.1142857142857143
40
0.12857142857142859
40
0.14285714285714288
40
0.15714285714285714
40
0.17142857142857146
40
0.18571428571428572
40
0.20000000000000004
40
0.21428571428571436
40
0.22857142857142865
40
0.24285714285714291
40
0.25714285714285717
40
0.27142857142857146
40
0.2857142857142857
40
0.30000000000000004
40
0.31428571428571433
40
0.32857142857142863
40
0.34285714285714292
40
0.35714285714285721
40
0.3714285714285715
40
0.38571428571428573
40
0.40000000000000008
40
0.41428571428571442
40
0.42857142857142871
40
0.44285714285714295
40
0.4571428571428573
40
0.47142857142857147
40
0.48571428571428582
40
0.50000000000000011
40
0.51428571428571435
40
0.52857142857142858
40
0.54285714285714282
40
0.55714285714285705
40
0.57142857142857129
40
0.58571428571428552
40
0.59999999999999976
40
0.61428571428571399
40
0.62857142857142823
40
0.64285714285714246
40
0.6571428571428567
40
0.67142857142857093
40
0.68571428571428517
40
0.6999999999999994
40
0.71428571428571364
40
0.72857142857142776
40
0.74285714285714211
40
0.75714285714285634
40
0.77142857142857058
40
0.78571428571428481
40
0.79999999999999905
40
0.81428571428571328
40
0.82857142857142752
40
0.84285714285714175
40
0.85714285714285599
40
0.87142857142857022
40
0.88571428571428445
40
0.89999999999999869
40
0.91428571428571281
40
0.92857142857142716
40
0.94285714285714117
40
0.95714285714285563
40
0.97142857142856975
40
0.98571428571428399
40
1
40
1
40
1
40
1
40
1
40
1
10
-14.899428243881445
20
-22.228842440246645
30
0
10
-14.89203100072892
20
-22.233253889977334
30
0
10
-14.877130979268092
20
-22.241850248551724
30
0
10
-14.854464345165415
20
-22.254065172462308
30
0
10
-14.823637556196108
20
-22.269060469391935
30
0
10
-14.784262801071382
20
-22.286046250360055
30
0
10
-14.744259333992717
20
-22.301773564496923
30
0
10
-14.703838715223911
20
-22.316734646718345
30
0
10
-14.663160760037321
20
-22.331291496055172
30
0
10
-14.622292847992355
20
-22.345577939403807
30
0
10
-14.581240593903715
20
-22.359576600148117
30
0
10
-14.539971788020782
20
-22.373179426363507
30
0
10
-14.498441736776373
20
-22.386251513748125
30
0
10
-14.456620626304213
20
-22.398700224046348
30
0
10
-14.414511809372881
20
-22.410521063602708
30
0
10
-14.372138197829866
20
-22.421762121063264
30
0
10
-14.32953373203536
20
-22.432501443924416
30
0
10
-14.286733477388566
20
-22.442820966740179
30
0
10
-14.243762871727554
20
-22.45277814058861
30
0
10
-14.200632110252895
20
-22.462391092333419
30
0
10
-14.157342219001517
20
-22.471654488128308
30
0
10
-14.113888791084923
20
-22.480549258758337
30
0
10
-14.070266344964812
20
-22.489053961918238
30
0
10
-14.026473149369298
20
-22.497157361068481
30
0
10
-13.98251326442757
20
-22.50486372466662
30
0
10
-13.938393981955048
20
-22.512186090895465
30
0
10
-13.894124308554584
20
-22.519142259644589
30
0
10
-13.849713169866789
20
-22.525750057020332
30
0
10
-13.805167400120304
20
-22.532022033702859
30
0
10
-13.760491066723599
20
-22.537963671865842
30
0
10
-13.71568657861765
20
-22.543576278499529
30
0
10
-13.670755362811642
20
-22.548858744106262
30
0
10
-13.625698653904657
20
-22.553809599205952
30
0
10
-13.580518386627549
20
-22.558429339452172
30
0
10
-13.535217467174135
20
-22.562721126705149
30
0
10
-13.489799314071407
20
-22.566689579766521
30
0
10
-13.444267583501412
20
-22.570340047778458
30
0
10
-13.398625846860277
20
-22.573677758815613
30
0
10
-13.352877225612403
20
-22.576706857161408
30
0
10
-13.307024292753589
20
-22.579430137559825
30
0
10
-13.261069275733242
20
-22.581849567808089
30
0
10
-13.215014183576743
20
-22.583966613107542
30
0
10
-13.168860953714594
20
-22.58578261303558
30
0
10
-13.122611619405751
20
-22.58729921055064
30
0
10
-13.076268360339455
20
-22.588518483268111
30
0
10
-13.029833415586548
20
-22.589442722815836
30
0
10
-12.98330903155466
20
-22.590074304830353
30
0
10
-12.936697401497309
20
-22.590415535952488
30
0
10
-12.890000596799819
20
-22.590468484515668
30
0
10
-12.843220548285128
20
-22.590234924694759
30
0
10
-12.796359094115633
20
-22.589716433776275
30
0
10
-12.749418012660865
20
-22.588914454283518
30
0
10
-12.702399058525913
20
-22.587830366838311
30
0
10
-12.655304006105968
20
-22.586465573529253
30
0
10
-12.608134661320808
20
-22.584821532807791
30
0
10
-12.560892822022982
20
-22.582899712514966
30
0
10
-12.513580249379004
20
-22.58070156324149
30
0
10
-12.466198638875197
20
-22.578228487530048
30
0
10
-12.418749583422626
20
-22.57548180799138
30
0
10
-12.371234568265418
20
-22.572462753898552
30
0
10
-12.323655034194205
20
-22.569172489020374
30
0
10
-12.27601242929647
20
-22.565612133245359
30
0
10
-12.228308260731566
20
-22.561782786876474
30
0
10
-12.180544158905606
20
-22.557685559837584
30
0
10
-12.132721900088779
20
-22.553321588084906
30
0
10
-12.084843283592438
20
-22.548692000443296
30
0
10
-12.036910031924029
20
-22.54379789534071
30
0
10
-11.988923685020731
20
-22.5386403153271
30
0
10
-11.940885490719682
20
-22.533220224948668
30
0
10
-11.892796315828068
20
-22.527538487545055
30
0
10
-11.844656722707612
20
-22.521595830550524
30
0
10
-11.806104967831645
20
-22.516633416674857
30
0
10
-11.777168669232365
20
-22.512794605882323
30
0
10
-11.757867814604106
20
-22.510183415790696
30
0
10
-11.74821489006713
20
-22.508864825020495
30
0
0
SPLINE
5
155
100
AcDbEntity
8
0
100
AcDbSpline
70
0
71
5
72
81
73
75
74
0
42
0.000000001
43
0.0000000001
44
0.0000000001
40
-1
40
-1
40
-1
40
-1
40
-1
40
-1
40
-0.98571428571428399
40
-0.97142857142856975
40
-0.95714285714285563
40
-0.94285714285714117
40
-0.92857142857142716
40
-0.91428571428571281
40
-0.89999999999999869
40
-0.88571428571428445
40
-0.87142857142857022
40
-0.85714285714285599
40
-0.84285714285714175
40
-0.82857142857142752
40
-0.81428571428571328
40
-0.79999999999999905
40
-0.78571428571428481
40
-0.77142857142857058
40
-0.75714285714285634
40
-0.74285714285714211
40
-0.72857142857142776
40
-0.71428571428571364
40
-0.6999999999999994
40
-0.68571428571428517
40
-0.67142857142857093
40
-0.6571428571428567
40
-0.64285714285714246
40
-0.62857142857142823
40
-0.61428571428571399
40
-0.59999999999999976
40
-0.58571428571428552
40
-0.57142857142857129
40
-0.55714285714285705
40
-0.54285714285714282
40
-0.52857142857142858
40
-0.51428571428571435
40
-0.50000000000000011
40
-0.48571428571428582
40
-0.47142857142857147
40
-0.4571428571428573
40
-0.44285714285714295
40
-0.42857142857142871
40
-0.41428571428571442
40
-0.40000000000000008
40
-0.38571428571428573
40
-0.3714285714285715
40
-0.35714285714285721
40
-0.34285714285714292
40
-0.32857142857142863
40
-0.31428571428571433
40
-0.30000000000000004
40
-0.2857142857142857
40
-0.27142857142857146
40
-0.25714285714285717
40
-0.24285714285714291
40
-0.22857142857142865
40
-0.21428571428571436
40
-0.20000000000000004
40
-0.18571428571428572
40
-0.17142857142857146
40
-0.15714285714285714
40
-0.14285714285714288
40
-0.12857142857142859
40
-0.1142857142857143
40
-0.10000000000000001
40
-0.085714285714285715
40
-0.071428571428571438
40
-0.057142857142857134
40
-0.042857142857142858
40
-0.028571428571428567
40
-0.014285714285714284
40
-0
40
-0
40
-0
40
-0
40
-0
40
-0
10
-11.214389741412427
20
-21.309873910307147
30
0
10
-11.21986890475319
20
-21.301818079945161
30
0
10
-11.230843204908911
20
-21.285727522491555
30
0
10
-11.247352575559963
20
-21.261654996125721
30
0
10
-11.269460942482743
20
-21.229684955970942
30
0
10
-11.29725636282223
20
-21.189933852764756
30
0
10
-11.325211947825537
20
-21.150394806888528
30
0
10
-11.353327861788234
20
-21.111068723006984
30
0
10
-11.381604166289478
20
-21.071956822970385
30
0
10
-11.410040743160783
20
-21.03306067950982
30
0
10
-11.438637336748654
20
-20.994382134623727
30
0
10
-11.467393610761674
20
-20.955923203376354
30
0
10
-11.496309200105905
20
-20.917685978247896
30
0
10
-11.525383760404591
20
-20.879672539367419
30
0
10
-11.554617025537262
20
-20.84188484104682
30
0
10
-11.58400880470194
20
-20.804324739570148
30
0
10
-11.613558961178306
20
-20.766994060427827
30
0
10
-11.643267395738039
20
-20.729894653049282
30
0
10
-11.673134028086736
20
-20.693028443730217
30
0
10
-11.703158775250188
20
-20.656397501233599
30
0
10
-11.733341545018936
20
-20.620004024035531
30
0
10
-11.763682236941557
20
-20.58385029157245
30
0
10
-11.794180738838342
20
-20.54793862208653
30
0
10
-11.824836926153752
20
-20.51227133353223
30
0
10
-11.855650653540533
20
-20.476850682722532
30
0
10
-11.8866217729407
20
-20.441678897399449
30
0
10
-11.917750166396486
20
-20.406758264385587
30
0
10
-11.949035776089483
20
-20.372091205112504
30
0
10
-11.980478628515838
20
-20.337680341615982
30
0
10
-12.012078874719521
20
-20.303528597220499
30
0
10
-12.043836761295669
20
-20.269639145275036
30
0
10
-12.075752550546186
20
-20.236015244796917
30
0
10
-12.107826447251595
20
-20.202660093138384
30
0
10
-12.140058536884268
20
-20.169576700320256
30
0
10
-12.172448679884447
20
-20.136767676702185
30
0
10
-12.2049965753581
20
-20.10423535842785
30
0
10
-12.237701967861664
20
-20.071982218905134
30
0
10
-12.270564829298873
20
-20.0400112301649
30
0
10
-12.303585514899025
20
-20.008326174364377
30
0
10
-12.336765015797537
20
-19.976932144270574
30
0
10
-12.370104827480572
20
-19.945835292212802
30
0
10
-12.403606478672149
20
-19.91504191453858
30
0
10
-12.437271114369768
20
-19.884557642290087
30
0
10
-12.471099139670256
20
-19.85438675088767
30
0
10
-12.505089628328365
20
-19.824531009773526
30
0
10
-12.539240662199571
20
-19.794990353159477
30
0
10
-12.573550461910878
20
-19.765765099121179
30
0
10
-12.608018386849196
20
-19.736857912397817
30
0
10
-12.64264578943604
20
-19.708275483953148
30
0
10
-12.67743742365286
20
-19.680031290653059
30
0
10
-12.712400564459037
20
-19.652143893534518
30
0
10
-12.747542413156756
20
-19.624631896258734
30
0
10
-12.782867779827258
20
-19.597509441947778
30
0
10
-12.818377119795965
20
-19.570782404021237
30
0
10
-12.854063241133682
20
-19.544441977180863
30
0
10
-12.889913876967247
20
-19.518469740147097
30
0
10
-12.925917804892224
20
-19.492849658168208
30
0
10
-12.962070374535628
20
-19.467578924698419
30
0
10
-12.998378234861683
20
-19.44267724548758
30
0
10
-13.034867059105748
20
-19.418201966808127
30
0
10
-13.071574273175845
20
-19.394233972247847
30
0
10
-13.108535167131272
20
-19.370850708378374
30
0
10
-13.145770146782096
20
-19.348101379605506
30
0
10
-13.183273629251451
20
-19.325985470679456
30
0
10
-13.22099672026944
20
-19.304418838487621
30
0
10
-13.258869072235914
20
-19.283278000639513
30
0
10
-13.296831939452201
20
-19.262466719775816
30
0
10
-13.33486865153156
20
-19.241977541291327
30
0
10
-13.373033575514119
20
-19.221950085629299
30
0
10
-13.411488791816391
20
-19.202745343313435
30
0
10
-13.450458540821387
20
-19.184849903706734
30
0
10
-13.482229366136265
20
-19.171974947125161
30
0
10
-13.506473762255258
20
-19.163303734723684
30
0
10
-13.522832162042597
20
-19.157982947500923
30
0
10
-13.531060229878848
20
-19.155437560562543
30
0
0
SPLINE
5
156
100
AcDbEntity
8
0
100
AcDbSpline
70
0
71
5
72
81
73
75
74
0
42
0.000000001
43
0.0000000001
44
0.0000000001
40
0
40
0
40
0
40
0
40
0
40
0
40
0.014285714285714284
40
0.028571428571428567
40
0.042857142857142858
40
0.057142857142857134
40
0.071428571428571438
40
0.085714285714285715
40
0.10000000000000001
40
0.1142857142857143
40
0.12857142857142859
40
0.14285714285714288
40
0.15714285714285714
40
0.17142857142857146
40
0.18571428571428572
40
0.20000000000000004
40
0.21428571428571436
40
0.22857142857142865
40
0.24285714285714291
40
0.25714285714285717
40
0.27142857142857146
40
0.2857142857142857
40
0.30000000000000004
40
0.31428571428571433
40
0.32857142857142863
40
0.34285714285714292
40
0.35714285714285721
40
0.3714285714285715
40
0.38571428571428573
40
0.40000000000000008
40
0.41428571428571442
40
0.42857142857142871
40
0.44285714285714295
40
0.4571428571428573
40
0.47142857142857147
40
0.48571428571428582
40
0.50000000000000011
40
0.51428571428571435
40
0.52857142857142858
40
0.54285714285714282
40
0.55714285714285705
40
0.57142857142857129
40
0.58571428571428552
40
0.59999999999999976
40
0.61428571428571399
40
0.62857142857142823
40
0.64285714285714246
40
0.6571428571428567
40
0.67142857142857093
40
0.68571428571428517
40
0.6999999999999994
40
0.71428571428571364
40
0.72857142857142776
40
0.74285714285714211
40
0.75714285714285634
40
0.77142857142857058
40
0.78571428571428481
40
0.79999999999999905
40
0.81428571428571328
40
0.82857142857142752
40
0.84285714285714175
40
0.85714285714285599
40
0.87142857142857022
40
0.88571428571428445
40
0.89999999999999869
40
0.91428571428571281
40
0.92857142857142716
40
0.94285714285714117
40
0.95714285714285563
40
0.97142857142856975
40
0.98571428571428399
40
1
40
1
40
1
40
1
40
1
40
1
10
-41.038575169876317
20
-16.264281238734924
30
0
10
-41.047152650391176
20
-16.265060291365639
30
0
10
-41.064259833762975
20
-16.266863704062736
30
0
10
-41.089777278089841
20
-16.270304736278742
30
0
10
-41.123530688637004
20
-16.276292818158666
30
0
10
-41.165369526233988
20
-16.285694933067667
30
0
10
-41.206977294242364
20
-16.296484716644471
30
0
10
-41.248472165237573
20
-16.308139590473942
30
0
10
-41.289937623639972
20
-16.320272754127988
30
0
10
-41.331397819717004
20
-16.332736334661778
30
0
10
-41.372837997269471
20
-16.345541089747812
30
0
10
-41.414220703205231
20
-16.358793367645742
30
0
10
-41.455502800620579
20
-16.372628578448044
30
0
10
-41.496653958039538
20
-16.387139192228762
30
0
10
-41.537668821710952
20
-16.402326873723606
30
0
10
-41.578557121357782
20
-16.418139251154624
30
0
10
-41.619337273819198
20
-16.434493233127686
30
0
10
-41.660029070513829
20
-16.451301922271643
30
0
10
-41.700645700694785
20
-16.468503887701932
30
0
10
-41.741189570974726
20
-16.486078471889225
30
0
10
-41.781656716116117
20
-16.504029386916446
30
0
10
-41.822039492763345
20
-16.522374650406611
30
0
10
-41.862329732103234
20
-16.541134831516462
30
0
10
-41.902522230091932
20
-16.560320038413515
30
0
10
-41.942616210952359
20
-16.579924431359011
30
0
10
-41.982613439133452
20
-16.59993317621991
30
0
10
-42.022517090653047
20
-16.620326578634725
30
0
10
-42.06233042243862
20
-16.641084970620565
30
0
10
-42.102055282587749
20
-16.662194181405077
30
0
10
-42.141691602838698
20
-16.683647385053881
30
0
10
-42.181238202546886
20
-16.705442108249677
30
0
10
-42.220693275091257
20
-16.727578409819973
30
0
10
-42.260054957921447
20
-16.750056752920003
30
0
10
-42.299321977145176
20
-16.772875599351323
30
0
10
-42.33849384009708
20
-16.796030682897428
30
0
10
-42.377570495994192
20
-16.819516257509544
30
0
10
-42.416552131070013
20
-16.843325846590869
30
0
10
-42.455438928989523
20
-16.867453121326172
30
0
10
-42.494230800383683
20
-16.891892894168997
30
0
10
-42.532927306364449
20
-16.916641391755004
30
0
10
-42.57152780152957
20
-16.941695712840861
30
0
10
-42.610031521767134
20
-16.967053491178305
30
0
10
-42.64843768704678
20
-16.992712504233374
30
0
10
-42.686745618134168
20
-17.018670227705144
30
0
10
-42.724954772815373
20
-17.04492369957827
30
0
10
-42.763064686629086
20
-17.071469749794062
30
0
10
-42.801074938557448
20
-17.098305136016911
30
0
10
-42.838985110030585
20
-17.125426702973119
30
0
10
-42.87679474099842
20
-17.152831559816043
30
0
10
-42.914503312226238
20
-17.180517136298825
30
0
10
-42.952110263715149
20
-17.208481075925118
30
0
10
-42.989615004627908
20
-17.236721166369669
30
0
10
-43.027016926968329
20
-17.265235259354967
30
0
10
-43.064315419347551
20
-17.294021177604193
30
0
10
-43.101509878002034
20
-17.323076679712312
30
0
10
-43.138599711213828
20
-17.35239952141978
30
0
10
-43.17558434680511
20
-17.38198749398634
30
0
10
-43.212463237492564
20
-17.411838466149277
30
0
10
-43.249235871995133
20
-17.441950431604386
30
0
10
-43.285901771273657
20
-17.472321522844283
30
0
10
-43.322460453750182
20
-17.502949951484734
30
0
10
-43.358911406151279
20
-17.533833960352425
30
0
10
-43.395254055901262
20
-17.564971773397527
30
0
10
-43.431487736370762
20
-17.596361534344094
30
0
10
-43.467611678225325
20
-17.628001280118831
30
0
10
-43.503625089298097
20
-17.659889039874557
30
0
10
-43.539527221691017
20
-17.692022912499919
30
0
10
-43.575317442364245
20
-17.724401149401928
30
0
10
-43.610995308742339
20
-17.757022236786046
30
0
10
-43.646560627021884
20
-17.789884966699347
30
0
10
-43.68201336981781
20
-17.822988420087228
30
0
10
-43.710285560983557
20
-17.849663250211854
30
0
10
-43.731439121934493
20
-17.869777242953795
30
0
10
-43.745519022307917
20
-17.883234497820592
30
0
10
-43.752553354095213
20
-17.889975106846641
30
0
0
CIRCLE
5
157
100
AcDbEntity
8
0
100
AcDbCircle
10
-27
20
-15
30
0
40
3.0000000000000004
210
0
220
0
230
1
0
LINE
5
158
100
AcDbEntity
8
0
100
AcDbLine
10
-34.821264735259248
20
-25.433058303261173
30
0
11
-35.454096255319747
21
-26.278663766451842
31
0
0
LINE
5
159
100
AcDbEntity
8
0
100
AcDbLine
10
-29.901573760633802
20
-27.712267985291142
30
0
11
-30.135755393773394
21
-28.742162783248716
31
0
0
ARC
5
160
100
AcDbEntity
8
0
100
AcDbCircle
10
-36.218573344664875
20
-24.235774257149988
30
0
40
0.49999999999999689
210
0
220
-0
230
1
100
AcDbArc
50
45.053404185563714
51
132.81033006042907
0
ARC
5
161
100
AcDbEntity
8
0
100
AcDbCircle
10
-27
20
-15
30
0
40
17.000000000000007
210
0
220
0
230
1
100
AcDbArc
50
261.7877339190768
51
266.21226608092309
0
LINE
5
162
100
AcDbEntity
8
0
100
AcDbLine
10
-24.480174322824677
20
-27.793411045335201
30
0
11
-24.275213937200188
21
-28.829517011192294
31
0
0
ARC
5
163
100
AcDbEntity
8
0
100
AcDbCircle
10
-27
20
-15
30
0
40
17
210
0
220
0
230
1
100
AcDbArc
50
309.7877339190768
51
314.21226608092314
0
LINE
5
164
100
AcDbEntity
8
0
100
AcDbLine
10
-32.540561214830518
20
-27.960794006371717
30
0
11
-32.124661162158723
21
-26.989943102088464
31
0
0
ARC
5
165
100
AcDbEntity
8
0
100
AcDbCircle
10
-27
20
-15
30
0
40
12.549200000000003
210
0
220
0
230
1
100
AcDbArc
50
273.05340418556278
51
278.94659581443716
0
SPLINE
5
166
100
AcDbEntity
8
0
100
AcDbSpline
70
0
71
5
72
81
73
75
74
0
42
0.000000001
43
0.0000000001
44
0.0000000001
40
0
40
0
40
0
40
0
40
0
40
0
40
0.014285714285714284
40
0.028571428571428567
40
0.042857142857142858
40
0.057142857142857134
40
0.071428571428571438
40
0.085714285714285715
40
0.10000000000000001
40
0.1142857142857143
40
0.12857142857142859
40
0.14285714285714288
40
0.15714285714285714
40
0.17142857142857146
40
0.18571428571428572
40
0.20000000000000004
40
0.21428571428571436
40
0.22857142857142865
40
0.24285714285714291
40
0.25714285714285717
40
0.27142857142857146
40
0.2857142857142857
40
0.30000000000000004
40
0.31428571428571433
40
0.32857142857142863
40
0.34285714285714292
40
0.35714285714285721
40
0.3714285714285715
40
0.38571428571428573
40
0.40000000000000008
40
0.41428571428571442
40
0.42857142857142871
40
0.44285714285714295
40
0.4571428571428573
40
0.47142857142857147
40
0.48571428571428582
40
0.50000000000000011
40
0.51428571428571435
40
0.52857142857142858
40
0.54285714285714282
40
0.55714285714285705
40
0.57142857142857129
40
0.58571428571428552
40
0.59999999999999976
40
0.61428571428571399
40
0.62857142857142823
40
0.64285714285714246
40
0.6571428571428567
40
0.67142857142857093
40
0.68571428571428517
40
0.6999999999999994
40
0.71428571428571364
40
0.72857142857142776
40
0.74285714285714211
40
0.75714285714285634
40
0.77142857142857058
40
0.78571428571428481
40
0.79999999999999905
40
0.81428571428571328
40
0.82857142857142752
40
0.84285714285714175
40
0.85714285714285599
40
0.87142857142857022
40
0.88571428571428445
40
0.89999999999999869
40
0.91428571428571281
40
0.92857142857142716
40
0.94285714285714117
40
0.95714285714285563
40
0.97142857142856975
40
0.98571428571428399
40
1
40
1
40
1
40
1
40
1
40
1
10
-18.885812744789341
20
-26.525622110682878
30
0
10
-18.880849325162828
20
-26.532660900393847
30
0
10
-18.87073393226774
20
-26.546574449432477
30
0
10
-18.854995188789999
20
-26.56695268835119
30
0
10
-18.832932652488466
20
-26.59318995840944
30
0
10
-18.803870763329478
20
-26.624722397178733
30
0
10
-18.773722652646438
20
-26.65536088948036
30
0
10
-18.742881800334615
20
-26.685469064974228
30
0
10
-18.711641443180739
20
-26.715312623503252
30
0
10
-18.680117567777835
20
-26.744986416284959
30
0
10
-18.648308235807868
20
-26.77447228523971
30
0
10
-18.61614007352237
20
-26.803684620908456
30
0
10
-18.583517380793182
20
-26.832518360590495
30
0
10
-18.550375241925103
20
-26.860901001420096
30
0
10
-18.51671489209027
20
-26.888827074544874
30
0
10
-18.482576821717366
20
-26.916331192041064
30
0
10
-18.448023781644956
20
-26.943470849056325
30
0
10
-18.413121131494655
20
-26.970306634147523
30
0
10
-18.377915477346527
20
-26.996880684985214
30
0
10
-18.342423505839413
20
-27.023205414521733
30
0
10
-18.306643984833975
20
-27.049275532719193
30
0
10
-18.270565132288752
20
-27.075075411425971
30
0
10
-18.234173219198084
20
-27.100587691663939
30
0
10
-18.197462093654021
20
-27.125802812515197
30
0
10
-18.160437200907236
20
-27.150723022006407
30
0
10
-18.123110505469313
20
-27.175357265261752
30
0
10
-18.085497475148689
20
-27.199718139974074
30
0
10
-18.047613514454447
20
-27.223818300716758
30
0
10
-18.00946997158665
20
-27.247666433375429
30
0
10
-17.971072792108753
20
-27.271265891800894
30
0
10
-17.932424708298647
20
-27.29461689018358
30
0
10
-17.893526572520756
20
-27.317717834530015
30
0
10
-17.854378914946057
20
-27.340566880246648
30
0
10
-17.814983704639605
20
-27.363163693209628
30
0
10
-17.775344882585983
20
-27.385509979866484
30
0
10
-17.735467450400854
20
-27.407608569262276
30
0
10
-17.695356923864853
20
-27.429462860978319
30
0
10
-17.655018692060231
20
-27.451076178480804
30
0
10
-17.614457292218546
20
-27.472451038147064
30
0
10
-17.573676211613186
20
-27.493588946571101
30
0
10
-17.532678285495699
20
-27.51449079543983
30
0
10
-17.491465945153163
20
-27.535157106137049
30
0
10
-17.450041505371612
20
-27.555588314403625
30
0
10
-17.408407491876943
20
-27.57578509415584
30
0
10
-17.366566740956678
20
-27.595748456830339
30
0
10
-17.324522230192812
20
-27.615479585221145
30
0
10
-17.282276978039274
20
-27.634979735883935
30
0
10
-17.239833926328192
20
-27.654250123963386
30
0
10
-17.197195808631221
20
-27.673291796467794
30
0
10
-17.154365110464809
20
-27.692105588850104
30
0
10
-17.111344152614087
20
-27.710692194385238
30
0
10
-17.068135146427554
20
-27.729052207555771
30
0
10
-17.024740256366204
20
-27.747186175960302
30
0
10
-16.981161673701504
20
-27.765094658758951
30
0
10
-16.937401641428913
20
-27.782778253779689
30
0
10
-16.893462398993201
20
-27.800237570709495
30
0
10
-16.849346145308441
20
-27.817473218397986
30
0
10
-16.805054999743952
20
-27.834485788515231
30
0
10
-16.76059095545066
20
-27.851275841430983
30
0
10
-16.715955869257002
20
-27.867843896038835
30
0
10
-16.671151530738104
20
-27.884190429472167
30
0
10
-16.626179718287439
20
-27.900315875809806
30
0
10
-16.581042256297096
20
-27.916220627211583
30
0
10
-16.535741085663894
20
-27.931905034497497
30
0
10
-16.490278291126408
20
-27.947369412941015
30
0
10
-16.444655975571791
20
-27.962614061929099
30
0
10
-16.398876159359787
20
-27.977639284318727
30
0
10
-16.352940673336288
20
-27.992445406177779
30
0
10
-16.30685104977352
20
-28.007032801121984
30
0
10
-16.260608431691121
20
-28.021401905289096
30
0
10
-16.214213628706258
20
-28.035553154490263
30
0
10
-16.176976452593827
20
-28.046700175198133
30
0
10
-16.148980443432308
20
-28.054962699991179
30
0
10
-16.130286168665741
20
-28.060427623963918
30
0
10
-16.120931464118556
20
-28.063149229477347
30
0
0
ARC
5
167
100
AcDbEntity
8
0
100
AcDbCircle
10
-40.031947420357554
20
-14.329204149508763
30
0
40
0.50000000000000067
210
0
220
0
230
1
100
AcDbArc
50
-2.9465958144390565
51
84.810330060429393
0
SPLINE
5
168
100
AcDbEntity
8
0
100
AcDbSpline
70
0
71
5
72
81
73
75
74
0
42
0.000000001
43
0.0000000001
44
0.0000000001
40
-1
40
-1
40
-1
40
-1
40
-1
40
-1
40
-0.98571428571428399
40
-0.97142857142856975
40
-0.95714285714285563
40
-0.94285714285714117
40
-0.92857142857142716
40
-0.91428571428571281
40
-0.89999999999999869
40
-0.88571428571428445
40
-0.87142857142857022
40
-0.85714285714285599
40
-0.84285714285714175
40
-0.82857142857142752
40
-0.81428571428571328
40
-0.79999999999999905
40
-0.78571428571428481
40
-0.77142857142857058
40
-0.75714285714285634
40
-0.74285714285714211
40
-0.72857142857142776
40
-0.71428571428571364
40
-0.6999999999999994
40
-0.68571428571428517
40
-0.67142857142857093
40
-0.6571428571428567
40
-0.64285714285714246
40
-0.62857142857142823
40
-0.61428571428571399
40
-0.59999999999999976
40
-0.58571428571428552
40
-0.57142857142857129
40
-0.55714285714285705
40
-0.54285714285714282
40
-0.52857142857142858
40
-0.51428571428571435
40
-0.50000000000000011
40
-0.48571428571428582
40
-0.47142857142857147
40
-0.4571428571428573
40
-0.44285714285714295
40
-0.42857142857142871
40
-0.41428571428571442
40
-0.40000000000000008
40
-0.38571428571428573
40
-0.3714285714285715
40
-0.35714285714285721
40
-0.34285714285714292
40
-0.32857142857142863
40
-0.31428571428571433
40
-0.30000000000000004
40
-0.2857142857142857
40
-0.27142857142857146
40
-0.25714285714285717
40
-0.24285714285714291
40
-0.22857142857142865
40
-0.21428571428571436
40
-0.20000000000000004
40
-0.18571428571428572
40
-0.17142857142857146
40
-0.15714285714285714
40
-0.14285714285714288
40
-0.12857142857142859
40
-0.1142857142857143
40
-0.10000000000000001
40
-0.085714285714285715
40
-0.071428571428571438
40
-0.057142857142857134
40
-0.042857142857142858
40
-0.028571428571428567
40
-0.014285714285714284
40
-0
40
-0
40
-0
40
-0
40
-0
40
-0
10
-36.061976137473295
20
-0.61665586576387321
30
0
10
-36.062278499497396
20
-0.6263937408371234
30
0
10
-36.062857896542447
20
-0.64586180705181295
30
0
10
-36.063651011102557
20
-0.67504085457263718
30
0
10
-36.064556484662333
20
-0.71390013239817751
30
0
10
-36.065434629468847
20
-0.76239718859395955
30
0
10
-36.066058554169238
20
-0.81081682923334952
30
0
10
-36.066427594097028
20
-0.85915841899773193
30
0
10
-36.066540981248053
20
-0.90742100558479644
30
0
10
-36.066397886794483
20
-0.95560324717067324
30
0
10
-36.06599743486484
20
-1.0037035032779662
30
0
10
-36.065338713099536
20
-1.0517199460183235
30
0
10
-36.064420786936779
20
-1.0996506679428708
30
0
10
-36.063242712314043
20
-1.1474937837722687
30
0
10
-36.061803555811565
20
-1.1952475560132925
30
0
10
-36.060102380695021
20
-1.2429103707499922
30
0
10
-36.058138224577121
20
-1.2904806707674354
30
0
10
-36.055910080667921
20
-1.3379569015208292
30
0
10
-36.05341688167875
20
-1.3853374574083333
30
0
10
-36.050657478748789
20
-1.432620615994562
30
0
10
-36.047630654245225
20
-1.4798045444756069
30
0
10
-36.044335149615854
20
-1.5268873397047855
30
0
10
-36.040769692987411
20
-1.5738670602472205
30
0
10
-36.036933022667981
20
-1.6207417576264338
30
0
10
-36.032823929724572
20
-1.6675095206094137
30
0
10
-36.028441224504732
20
-1.7141684598887053
30
0
10
-36.023783658277679
20
-1.7607166560521126
30
0
10
-36.018849854537727
20
-1.8071521161355619
30
0
10
-36.013638250655092
20
-1.8534727344415902
30
0
10
-36.008147006145606
20
-1.899676234732417
30
0
10
-36.002374056261885
20
-1.9457601946597869
30
0
10
-35.996317273194911
20
-1.9917221318004841
30
0
10
-35.989974611917283
20
-2.0375595798091872
30
0
10
-35.983344234034533
20
-2.0832701537672871
30
0
10
-35.976424718121969
20
-2.1288516598183116
30
0
10
-35.96921493445717
20
-2.1743020311212269
30
0
10
-35.961713635865678
20
-2.2196191165010859
30
0
10
-35.953919098161904
20
-2.2648004950198253
30
0
10
-35.945828810863077
20
-2.3098433156465248
30
0
10
-35.937438978670464
20
-2.3547440408208997
30
0
10
-35.928744775461908
20
-2.3994985722286954
30
0
10
-35.919741263573485
20
-2.4441027145792038
30
0
10
-35.910424206839203
20
-2.4885525852762425
30
0
10
-35.900790764499824
20
-2.5328449635420425
30
0
10
-35.890840645851448
20
-2.5769778734345006
30
0
10
-35.880575441374951
20
-2.6209502407202945
30
0
10
-35.869996403653118
20
-2.6647607621816172
30
0
10
-35.859102484658429
20
-2.7084069054562576
30
0
10
-35.847888657409086
20
-2.7518840523742405
30
0
10
-35.836343154350303
20
-2.7951840942422246
30
0
10
-35.824449180012479
20
-2.8382962909796916
30
0
10
-35.812189973462083
20
-2.8812098247278217
30
0
10
-35.799553330143084
20
-2.9239160807552866
30
0
10
-35.786535429380038
20
-2.9664105749994074
30
0
10
-35.77314726519036
20
-3.0086962037861942
30
0
10
-35.759409589439358
20
-3.05078065995672
30
0
10
-35.745340906233515
20
-3.0926703195338257
30
0
10
-35.730946627449839
20
-3.1343647196400704
30
0
10
-35.716209791214119
20
-3.1758518261520607
30
0
10
-35.701075920149428
20
-3.2171003353099548
30
0
10
-35.685467193880129
20
-3.2580668093134535
30
0
10
-35.669309540195833
20
-3.2987093355463548
30
0
10
-35.652557528825355
20
-3.3390001010423931
30
0
10
-35.635215979267187
20
-3.3789362411147117
30
0
10
-35.617373905897253
20
-3.4185570896406059
30
0
10
-35.599160802247638
20
-3.4579211966905721
30
0
10
-35.580680761487464
20
-3.4970718900684816
30
0
10
-35.56195165194989
20
-3.5360054020691534
30
0
10
-35.542847422938053
20
-3.5746407335256425
30
0
10
-35.52302476373449
20
-3.6127811054479597
30
0
10
-35.502016250007038
20
-3.6501646639622654
30
0
10
-35.483880822004537
20
-3.679255145211846
30
0
10
-35.469363504295004
20
-3.7005208018959546
30
0
10
-35.459256761126383
20
-3.714440635328724
30
0
10
-35.45409625531974
20
-3.721336233548147
30
0
0
ARC
5
169
100
AcDbEntity
8
0
100
AcDbCircle
10
-27
20
-15
30
0
40
12.549199999999999
210
0
220
0
230
1
100
AcDbArc
50
129.05340418556281
51
134.94659581443716
0
ARC
5
170
100
AcDbEntity
8
0
100
AcDbCircle
10
-16.851216975347718
20
-6.797328254859293
30
0
40
0.49999999999999883
210
0
220
0
230
1
100
AcDbArc
50
131.18966993957036
51
218.94659581443719
0
SPLINE
5
171
100
AcDbEntity
8
0
100
AcDbSpline
70
0
71
5
72
81
73
75
74
0
42
0.000000001
43
0.0000000001
44
0.0000000001
40
-1
40
-1
40
-1
40
-1
40
-1
40
-1
40
-0.98571428571428399
40
-0.97142857142856975
40
-0.95714285714285563
40
-0.94285714285714117
40
-0.92857142857142716
40
-0.91428571428571281
40
-0.89999999999999869
40
-0.88571428571428445
40
-0.87142857142857022
40
-0.85714285714285599
40
-0.84285714285714175
40
-0.82857142857142752
40
-0.81428571428571328
40
-0.79999999999999905
40
-0.78571428571428481
40
-0.77142857142857058
40
-0.75714285714285634
40
-0.74285714285714211
40
-0.72857142857142776
40
-0.71428571428571364
40
-0.6999999999999994
40
-0.68571428571428517
40
-0.67142857142857093
40
-0.6571428571428567
40
-0.64285714285714246
40
-0.62857142857142823
40
-0.61428571428571399
40
-0.59999999999999976
40
-0.58571428571428552
40
-0.57142857142857129
40
-0.55714285714285705
40
-0.54285714285714282
40
-0.52857142857142858
40
-0.51428571428571435
40
-0.50000000000000011
40
-0.48571428571428582
40
-0.47142857142857147
40
-0.4571428571428573
40
-0.44285714285714295
40
-0.42857142857142871
40
-0.41428571428571442
40
-0.40000000000000008
40
-0.38571428571428573
40
-0.3714285714285715
40
-0.35714285714285721
40
-0.34285714285714292
40
-0.32857142857142863
40
-0.31428571428571433
40
-0.30000000000000004
40
-0.2857142857142857
40
-0.27142857142857146
40
-0.25714285714285717
40
-0.24285714285714291
40
-0.22857142857142865
40
-0.21428571428571436
40
-0.20000000000000004
40
-0.18571428571428572
40
-0.17142857142857146
40
-0.15714285714285714
40
-0.14285714285714288
40
-0.12857142857142859
40
-0.1142857142857143
40
-0.10000000000000001
40
-0.085714285714285715
40
-0.071428571428571438
40
-0.057142857142857134
40
-0.042857142857142858
40
-0.028571428571428567
40
-0.014285714285714284
40
-0
40
-0
40
-0
40
-0
40
-0
40
-0
10
-11.748214890067121
20
-7.4911351749795196
30
0
10
-11.757867814604097
20
-7.489816584209315
30
0
10
-11.777168669232353
20
-7.4872053941176873
30
0
10
-11.806104967831637
20
-7.4833665833251528
30
0
10
-11.844656722707603
20
-7.4784041694494841
30
0
10
-11.892796315828065
20
-7.4724615124549532
30
0
10
-11.940885490719676
20
-7.4667797750513456
30
0
10
-11.988923685020726
20
-7.4613596846729111
30
0
10
-12.03691003192402
20
-7.4562021046592974
30
0
10
-12.084843283592432
20
-7.4513079995567129
30
0
10
-12.132721900088775
20
-7.446678411915105
30
0
10
-12.180544158905597
20
-7.4423144401624253
30
0
10
-12.228308260731563
20
-7.4382172131235365
30
0
10
-12.276012429296465
20
-7.4343878667546504
30
0
10
-12.323655034194196
20
-7.4308275109796371
30
0
10
-12.371234568265415
20
-7.4275372461014566
30
0
10
-12.418749583422617
20
-7.4245181920086267
30
0
10
-12.466198638875188
20
-7.4217715124699657
30
0
10
-12.513580249378995
20
-7.4192984367585177
30
0
10
-12.560892822022973
20
-7.4171002874850442
30
0
10
-12.608134661320802
20
-7.4151784671922174
30
0
10
-12.655304006105963
20
-7.4135344264707603
30
0
10
-12.702399058525904
20
-7.412169633161696
30
0
10
-12.749418012660856
20
-7.4110855457164915
30
0
10
-12.796359094115619
20
-7.4102835662237343
30
0
10
-12.843220548285119
20
-7.4097650753052493
30
0
10
-12.890000596799807
20
-7.4095315154843426
30
0
10
-12.936697401497304
20
-7.4095844640475228
30
0
10
-12.983309031554651
20
-7.4099256951696564
30
0
10
-13.029833415586536
20
-7.4105572771841732
30
0
10
-13.076268360339451
20
-7.4114815167318993
30
0
10
-13.122611619405751
20
-7.4127007894493735
30
0
10
-13.168860953714585
20
-7.4142173869644292
30
0
10
-13.215014183576734
20
-7.416033386892467
30
0
10
-13.261069275733233
20
-7.4181504321919203
30
0
10
-13.30702429275358
20
-7.4205698624401855
30
0
10
-13.352877225612403
20
-7.4232931428385998
30
0
10
-13.398625846860268
20
-7.4263222411843994
30
0
10
-13.444267583501404
20
-7.4296599522215541
30
0
10
-13.489799314071398
20
-7.4333104202334885
30
0
10
-13.53521746717413
20
-7.4372788732948605
30
0
10
-13.58051838662754
20
-7.4415706605478356
30
0
10
-13.625698653904648
20
-7.4461904007940616
30
0
10
-13.670755362811629
20
-7.451141255893746
30
0
10
-13.715686578617641
20
-7.4564237215004772
30
0
10
-13.76049106672359
20
-7.4620363281341673
30
0
10
-13.805167400120295
20
-7.467977966297151
30
0
10
-13.84971316986678
20
-7.474249942979676
30
0
10
-13.894124308554581
20
-7.4808577403554191
30
0
10
-13.93839398195504
20
-7.4878139091045446
30
0
10
-13.98251326442756
20
-7.4951362753333894
30
0
10
-14.02647314936929
20
-7.5028426389315284
30
0
10
-14.070266344964804
20
-7.5109460380817694
30
0
10
-14.113888791084914
20
-7.5194507412416716
30
0
10
-14.157342219001512
20
-7.5283455118717013
30
0
10
-14.200632110252887
20
-7.5376089076665922
30
0
10
-14.243762871727546
20
-7.5472218594113984
30
0
10
-14.286733477388562
20
-7.557179033259831
30
0
10
-14.32953373203536
20
-7.5674985560755923
30
0
10
-14.372138197829862
20
-7.5782378789367444
30
0
10
-14.414511809372875
20
-7.5894789363972981
30
0
10
-14.456620626304204
20
-7.6012997759536614
30
0
10
-14.498441736776364
20
-7.6137484862518834
30
0
10
-14.539971788020774
20
-7.6268205736364987
30
0
10
-14.581240593903706
20
-7.6404233998518913
30
0
10
-14.622292847992346
20
-7.6544220605961977
30
0
10
-14.663160760037313
20
-7.6687085039448375
30
0
10
-14.703838715223903
20
-7.6832653532816622
30
0
10
-14.744259333992712
20
-7.6982264355030825
30
0
10
-14.784262801071373
20
-7.7139537496399546
30
0
10
-14.823637556196099
20
-7.7309395306080742
30
0
10
-14.854464345165406
20
-7.7459348275377016
30
0
10
-14.877130979268088
20
-7.7581497514482853
30
0
10
-14.892031000728911
20
-7.7667461100226722
30
0
10
-14.899428243881445
20
-7.7711575597533633
30
0
0
ARC
5
172
100
AcDbEntity
8
0
100
AcDbCircle
10
-31.665057987404673
20
-2.8131688034111235
30
0
40
0.50000000000000466
210
0
220
0
230
1
100
AcDbArc
50
203.18966993957045
51
290.94659581443653
0
SPLINE
5
173
100
AcDbEntity
8
0
100
AcDbSpline
70
0
71
5
72
81
73
75
74
0
42
0.000000001
43
0.0000000001
44
0.0000000001
40
0
40
0
40
0
40
0
40
0
40
0
40
0.014285714285714284
40
0.028571428571428567
40
0.042857142857142858
40
0.057142857142857134
40
0.071428571428571438
40
0.085714285714285715
40
0.10000000000000001
40
0.1142857142857143
40
0.12857142857142859
40
0.14285714285714288
40
0.15714285714285714
40
0.17142857142857146
40
0.18571428571428572
40
0.20000000000000004
40
0.21428571428571436
40
0.22857142857142865
40
0.24285714285714291
40
0.25714285714285717
40
0.27142857142857146
40
0.2857142857142857
40
0.30000000000000004
40
0.31428571428571433
40
0.32857142857142863
40
0.34285714285714292
40
0.35714285714285721
40
0.3714285714285715
40
0.38571428571428573
40
0.40000000000000008
40
0.41428571428571442
40
0.42857142857142871
40
0.44285714285714295
40
0.4571428571428573
40
0.47142857142857147
40
0.48571428571428582
40
0.50000000000000011
40
0.51428571428571435
40
0.52857142857142858
40
0.54285714285714282
40
0.55714285714285705
40
0.57142857142857129
40
0.58571428571428552
40
0.59999999999999976
40
0.61428571428571399
40
0.62857142857142823
40
0.64285714285714246
40
0.6571428571428567
40
0.67142857142857093
40
0.68571428571428517
40
0.6999999999999994
40
0.71428571428571364
40
0.72857142857142776
40
0.74285714285714211
40
0.75714285714285634
40
0.77142857142857058
40
0.78571428571428481
40
0.79999999999999905
40
0.81428571428571328
40
0.82857142857142752
40
0.84285714285714175
40
0.85714285714285599
40
0.87142857142857022
40
0.88571428571428445
40
0.89999999999999869
40
0.91428571428571281
40
0.92857142857142716
40
0.94285714285714117
40
0.95714285714285563
40
0.97142857142856975
40
0.98571428571428399
40
1
40
1
40
1
40
1
40
1
40
1
10
-26.789924684850597
20
-0.90617623876153353
30
0
10
-26.789802878892562
20
-0.8975643134081257
30
0
10
-26.789808224717518
20
-0.88036233701892508
30
0
10
-26.790563107356999
20
-0.8546249941124251
30
0
10
-26.792990193763305
20
-0.82043056328308772
30
0
10
-26.797967453504157
20
-0.77783813459322504
30
0
10
-26.804348933467658
20
-0.73533045879521364
30
0
10
-26.811602565580202
20
-0.69284463499402982
30
0
10
-26.819334941848748
20
-0.65033806776002567
30
0
10
-26.827396475001581
20
-0.60780219605513608
30
0
10
-26.835799406222375
20
-0.56525057075960561
30
0
10
-26.844653416098044
20
-0.52270932337344478
30
0
10
-26.854097681964681
20
-0.48020720028300268
30
0
10
-26.864227337838148
20
-0.43776470105052701
30
0
10
-26.875044598953941
20
-0.39538697608650919
30
0
10
-26.88649636339921
20
-0.3530698233098839
30
0
10
-26.89849806987926
20
-0.31080361218660757
30
0
10
-26.910961228289278
20
-0.26857774296615844
30
0
10
-26.923823365617142
20
-0.22638551992349321
30
0
10
-26.937063685938114
20
-0.18422670892947357
30
0
10
-26.950686295480118
20
-0.14210486548126511
30
0
10
-26.964709912111971
20
-0.10002570770896613
30
0
10
-26.979155846183911
20
-0.057995209613783683
30
0
10
-26.994034694460552
20
-0.016017490140045609
30
0
10
-27.009340730284634
20
0.025906068766003987
30
0
10
-27.025059016350895
20
0.067775671298366813
30
0
10
-27.041169634201374
20
0.10959241745496895
30
0
10
-27.057652683154814
20
0.1513574904574666
30
0
10
-27.074493876889054
20
0.19307124703031642
30
0
10
-27.091686433998163
20
0.23473290578129635
30
0
10
-27.109228018124909
20
0.27634103400145937
30
0
10
-27.127118876617871
20
0.31789384111575059
30
0
10
-27.145359664784579
20
0.35938952318996353
30
0
10
-27.163948986011022
20
0.40082665252481497
30
0
10
-27.182882648949011
20
0.44220429321274679
30
0
10
-27.202154944335497
20
0.48352179412336938
30
0
10
-27.221759411586461
20
0.52477866348122459
30
0
10
-27.241689737358364
20
0.56597442240386542
30
0
10
-27.261940771864275
20
0.60710843976553353
30
0
10
-27.282508808287027
20
0.64817988465850185
30
0
10
-27.303391028739519
20
0.68918781195359324
30
0
10
-27.324585159807473
20
0.73013121438448181
30
0
10
-27.346089072667603
20
0.77100908387582878
30
0
10
-27.367900327846666
20
0.8118204810529317
30
0
10
-27.390016036232339
20
0.85256455705724488
30
0
10
-27.412433093681283
20
0.89324051861045417
30
0
10
-27.435148319628084
20
0.93384760808474798
30
0
10
-27.458158619836432
20
0.97438507938728547
30
0
10
-27.48146116738436
20
1.0148521728124615
30
0
10
-27.505053460379916
20
1.0552481033059991
30
0
10
-27.528933213771705
20
1.0955720676158243
30
0
10
-27.553098289113134
20
1.1358232468903839
30
0
10
-27.577546613448078
20
1.1760008119080223
30
0
10
-27.602276085334616
20
1.2161039270417229
30
0
10
-27.627284538756829
20
1.2561317575448161
30
0
10
-27.652569803600848
20
1.2960834803518195
30
0
10
-27.678129743034965
20
1.3359582955431626
30
0
10
-27.703962294678462
20
1.3757554360559587
30
0
10
-27.730065516661291
20
1.4154741836941298
30
0
10
-27.75643760177968
20
1.4551138668350561
30
0
10
-27.783076821784974
20
1.4946738196018661
30
0
10
-27.809981482781509
20
1.5341533478582581
30
0
10
-27.837149878299314
20
1.573551696517439
30
0
10
-27.864580231913038
20
1.6128680085682223
30
0
10
-27.892270671720674
20
1.6521013136936102
30
0
10
-27.920219320475521
20
1.69125061805669
30
0
10
-27.948424365657356
20
1.7303149791362316
30
0
10
-27.976884134422846
20
1.769293584582492
30
0
10
-28.005597167531899
20
1.8081858360099279
30
0
10
-28.034562283906865
20
1.8469914144112853
30
0
10
-28.06377857239033
20
1.8857101964841871
30
0
10
-28.087352026308743
20
1.9166157886294077
30
0
10
-28.105144683275036
20
1.9397559529116148
30
0
10
-28.117056467542625
20
1.9551653882886177
30
0
10
-28.123024862915305
20
1.9628657707733499
30
0
0
ARC
5
174
100
AcDbEntity
8
0
100
AcDbCircle
10
-27
20
-15
30
0
40
17
210
0
220
0
230
1
100
AcDbArc
50
117.78773391907679
51
122.2122660809232
0
SPLINE
5
175
100
AcDbEntity
8
0
100
AcDbSpline
70
0
71
5
72
81
73
75
74
0
42
0.000000001
43
0.0000000001
44
0.0000000001
40
0
40
0
40
0
40
0
40
0
40
0
40
0.014285714285714284
40
0.028571428571428567
40
0.042857142857142858
40
0.057142857142857134
40
0.071428571428571438
40
0.085714285714285715
40
0.10000000000000001
40
0.1142857142857143
40
0.12857142857142859
40
0.14285714285714288
40
0.15714285714285714
40
0.17142857142857146
40
0.18571428571428572
40
0.20000000000000004
40
0.21428571428571436
40
0.22857142857142865
40
0.24285714285714291
40
0.25714285714285717
40
0.27142857142857146
40
0.2857142857142857
40
0.30000000000000004
40
0.31428571428571433
40
0.32857142857142863
40
0.34285714285714292
40
0.35714285714285721
40
0.3714285714285715
40
0.38571428571428573
40
0.40000000000000008
40
0.41428571428571442
40
0.42857142857142871
40
0.44285714285714295
40
0.4571428571428573
40
0.47142857142857147
40
0.48571428571428582
40
0.50000000000000011
40
0.51428571428571435
40
0.52857142857142858
40
0.54285714285714282
40
0.55714285714285705
40
0.57142857142857129
40
0.58571428571428552
40
0.59999999999999976
40
0.61428571428571399
40
0.62857142857142823
40
0.64285714285714246
40
0.6571428571428567
40
0.67142857142857093
40
0.68571428571428517
40
0.6999999999999994
40
0.71428571428571364
40
0.72857142857142776
40
0.74285714285714211
40
0.75714285714285634
40
0.77142857142857058
40
0.78571428571428481
40
0.79999999999999905
40
0.81428571428571328
40
0.82857142857142752
40
0.84285714285714175
40
0.85714285714285599
40
0.87142857142857022
40
0.88571428571428445
40
0.89999999999999869
40
0.91428571428571281
40
0.92857142857142716
40
0.94285714285714117
40
0.95714285714285563
40
0.97142857142856975
40
0.98571428571428399
40
1
40
1
40
1
40
1
40
1
40
1
10
-13.00534252984975
20
-16.682130239919864
30
0
10
-12.996790513714117
20
-16.683151569935085
30
0
10
-12.979682212760588
20
-16.684944349552246
30
0
10
-12.954006954989215
20
-16.686883887141459
30
0
10
-12.919746145217514
20
-16.688044387875337
30
0
10
-12.876866776996536
20
-16.687546515201916
30
0
10
-12.833924916400242
20
-16.685643255681605
30
0
10
-12.790913623369375
20
-16.682870337597326
30
0
10
-12.747831658149455
20
-16.679623466246792
30
0
10
-12.704686142728319
20
-16.676052304319121
30
0
10
-12.661489274200957
20
-16.672143261236453
30
0
10
-12.618255576173079
20
-16.667784525768056
30
0
10
-12.574999089562269
20
-16.662834678190265
30
0
10
-12.531730257419538
20
-16.657196962853565
30
0
10
-12.488453970385729
20
-16.650868638293261
30
0
10
-12.445171600060565
20
-16.643902954761444
30
0
10
-12.40188240772925
20
-16.636385016982111
30
0
10
-12.358585101442499
20
-16.628403938277664
30
0
10
-12.315279552363094
20
-16.62002254932036
30
0
10
-12.271967701410516
20
-16.611261556585863
30
0
10
-12.228652655386885
20
-16.602116504689928
30
0
10
-12.185338144547693
20
-16.592568180594832
30
0
10
-12.142027882629787
20
-16.582594766237509
30
0
10
-12.098724858349987
20
-16.572185292356597
30
0
10
-12.055431044682745
20
-16.56134530978542
30
0
10
-12.012147799926236
20
-16.550089695345193
30
0
10
-11.968876112154234
20
-16.538438373359586
30
0
10
-11.925616884814527
20
-16.526411259172171
30
0
10
-11.882371256464133
20
-16.514022598131017
30
0
10
-11.839140713064662
20
-16.501279052815057
30
0
10
-11.795926923692374
20
-16.488182797023857
30
0
10
-11.752731643258389
20
-16.474733397597788
30
0
10
-11.709556597316491
20
-16.460930014256682
30
0
10
-11.666403351730779
20
-16.446773886728547
30
0
10
-11.623273275397015
20
-16.432269085571946
30
0
10
-11.580167612659116
20
-16.417421220712324
30
0
10
-11.537087527913448
20
-16.402236665937423
30
0
10
-11.494034157343211
20
-16.386721649948772
30
0
10
-11.451008666916094
20
-16.370881228351628
30
0
10
-11.408012270455918
20
-16.354719000803311
30
0
10
-11.365046202463764
20
-16.338237670961352
30
0
10
-11.322111702324547
20
-16.321439394498007
30
0
10
-11.279209995113888
20
-16.304326183202107
30
0
10
-11.236342270054882
20
-16.286900364991794
30
0
10
-11.193509673350412
20
-16.269164724422652
30
0
10
-11.150713318404467
20
-16.251122265713043
30
0
10
-11.107954291154108
20
-16.232776072811234
30
0
10
-11.065233657040769
20
-16.214129145015047
30
0
10
-11.0225524671021
20
-16.195184214349403
30
0
10
-10.979911763610719
20
-16.175943686940141
30
0
10
-10.937312584271295
20
-16.156409751358179
30
0
10
-10.894755966978167
20
-16.136584448742187
30
0
10
-10.852242953093345
20
-16.116469754015149
30
0
10
-10.809774593326678
20
-16.096067669760266
30
0
10
-10.767351944262344
20
-16.075380262872997
30
0
10
-10.724976051295636
20
-16.054409605545352
30
0
10
-10.682647933323812
20
-16.03315773928886
30
0
10
-10.640368568785217
20
-16.011626635006419
30
0
10
-10.598138874922247
20
-15.989818148858379
30
0
10
-10.555959708582545
20
-15.967734007944758
30
0
10
-10.513831912646419
20
-15.945375861443619
30
0
10
-10.471756354507917
20
-15.922745321414274
30
0
10
-10.429733963492085
20
-15.899844006050422
30
0
10
-10.38776577760232
20
-15.876673592463899
30
0
10
-10.345852957507162
20
-15.853235840876497
30
0
10
-10.303996687824885
20
-15.829532514366914
30
0
10
-10.262198095373453
20
-15.805565317005906
30
0
10
-10.22045816291222
20
-15.781335827559122
30
0
10
-10.178777638080838
20
-15.756845434724461
30
0
10
-10.137156961595206
20
-15.732095279764176
30
0
10
-10.095596351324154
20
-15.707086255955645
30
0
10
-10.062395966334407
20
-15.686872453937649
30
0
10
-10.037522727203196
20
-15.671596072820071
30
0
10
-10.020952585821238
20
-15.661360267152833
30
0
10
-10.012670519640974
20
-15.65622947642219
30
0
0
ARC
5
176
100
AcDbEntity
8
0
100
AcDbCircle
10
-21.064952537099821
20
-3.3786045479416615
30
0
40
0.50000000000000111
210
0
220
0
230
1
100
AcDbArc
50
155.18966993957093
51
242.9465958144375
0
ARC
5
177
100
AcDbEntity
8
0
100
AcDbCircle
10
-19.903100042542633
20
-4.0494003984328959
30
0
40
0.50000000000000222
210
0
220
0
230
1
100
AcDbArc
50
237.05340418556293
51
324.81033006042901
0
ARC
5
178
100
AcDbEntity
8
0
100
AcDbCircle
10
-27
20
-15
30
0
40
12.549200000000003
210
0
220
-0
230
1
100
AcDbArc
50
81.05340418556284
51
86.946595814437188
0
LINE
5
179
100
AcDbEntity
8
0
100
AcDbLine
10
-24.275213937200185
20
-1.1704829888077062
30
0
11
-24.480174322824677
21
-2.2065889546647988
31
0
0
SPLINE
5
180
100
AcDbEntity
8
0
100
AcDbSpline
70
0
71
5
72
81
73
75
74
0
42
0.000000001
43
0.0000000001
44
0.0000000001
40
-1
40
-1
40
-1
40
-1
40
-1
40
-1
40
-0.98571428571428399
40
-0.97142857142856975
40
-0.95714285714285563
40
-0.94285714285714117
40
-0.92857142857142716
40
-0.91428571428571281
40
-0.89999999999999869
40
-0.88571428571428445
40
-0.87142857142857022
40
-0.85714285714285599
40
-0.84285714285714175
40
-0.82857142857142752
40
-0.81428571428571328
40
-0.79999999999999905
40
-0.78571428571428481
40
-0.77142857142857058
40
-0.75714285714285634
40
-0.74285714285714211
40
-0.72857142857142776
40
-0.71428571428571364
40
-0.6999999999999994
40
-0.68571428571428517
40
-0.67142857142857093
40
-0.6571428571428567
40
-0.64285714285714246
40
-0.62857142857142823
40
-0.61428571428571399
40
-0.59999999999999976
40
-0.58571428571428552
40
-0.57142857142857129
40
-0.55714285714285705
40
-0.54285714285714282
40
-0.52857142857142858
40
-0.51428571428571435
40
-0.50000000000000011
40
-0.48571428571428582
40
-0.47142857142857147
40
-0.4571428571428573
40
-0.44285714285714295
40
-0.42857142857142871
40
-0.41428571428571442
40
-0.40000000000000008
40
-0.38571428571428573
40
-0.3714285714285715
40
-0.35714285714285721
40
-0.34285714285714292
40
-0.32857142857142863
40
-0.31428571428571433
40
-0.30000000000000004
40
-0.2857142857142857
40
-0.27142857142857146
40
-0.25714285714285717
40
-0.24285714285714291
40
-0.22857142857142865
40
-0.21428571428571436
40
-0.20000000000000004
40
-0.18571428571428572
40
-0.17142857142857146
40
-0.15714285714285714
40
-0.14285714285714288
40
-0.12857142857142859
40
-0.1142857142857143
40
-0.10000000000000001
40
-0.085714285714285715
40
-0.071428571428571438
40
-0.057142857142857134
40
-0.042857142857142858
40
-0.028571428571428567
40
-0.014285714285714284
40
-0
40
-0
40
-0
40
-0
40
-0
40
-0
10
-22.374737821258801
20
1.3586964571724436
30
0
10
-22.382176792415159
20
1.3524052456936797
30
0
10
-22.397032077380743
20
1.3398091426587277
30
0
10
-22.419247032784718
20
1.3208739478795017
30
0
10
-22.448730984094656
20
1.2955449137359842
30
0
10
-22.485358914024289
20
1.2637466378860629
30
0
10
-22.521759206530021
20
1.2318112407979331
30
0
10
-22.557930944729421
20
1.1997386536392662
30
0
10
-22.593872907028874
20
1.1675289428863755
30
0
10
-22.629583541664836
20
1.1351823904555691
30
0
10
-22.66506104345261
20
1.102699443141113
30
0
10
-22.700303443518699
20
1.0700806460237544
30
0
10
-22.735308699008442
20
1.0373265809211363
30
0
10
-22.770074777185126
20
1.0044378077561955
30
0
10
-22.804599762259919
20
0.97141479547277143
30
0
10
-22.838881828061936
20
0.93825792786214279
30
0
10
-22.872919173392145
20
0.90496753171135147
30
0
10
-22.90670996932468
20
0.87154389902315499
30
0
10
-22.940252308509326
20
0.8379873110048397
30
0
10
-22.973544142189198
20
0.80429806642067447
30
0
10
-23.006583293570174
20
0.77047648677830871
30
0
10
-23.039367506202844
20
0.73652291024488559
30
0
10
-23.071894486270583
20
0.70243769070786222
30
0
10
-23.104161941536532
20
0.66822119433267213
30
0
10
-23.136167642743679
20
0.63387380157152728
30
0
10
-23.167909389830101
20
0.5993958925337961
30
0
10
-23.199384920830578
20
0.56478782356910839
30
0
10
-23.230591833622086
20
0.53004990528765283
30
0
10
-23.261527517763035
20
0.49518238541580217
30
0
10
-23.292189050154807
20
0.46018541930764378
30
0
10
-23.32257324905617
20
0.42505909342420045
30
0
10
-23.352676845885011
20
0.38980348756056271
30
0
10
-23.382496639399129
20
0.35441873227232579
30
0
10
-23.412029627132625
20
0.3189050571882035
30
0
10
-23.441273227613628
20
0.28326287396030381
30
0
10
-23.470225148948074
20
0.247492726027847
30
0
10
-23.498882957978825
20
0.21159512597657582
30
0
10
-23.527243701892949
20
0.1755704124106483
30
0
10
-23.555303582120708
20
0.13941862738984678
30
0
10
-23.583057430191936
20
0.10313931754740047
30
0
10
-23.610498971159558
20
0.066731638683106276
30
0
10
-23.637621783372929
20
0.03019472859498773
30
0
10
-23.664420146952487
20
-0.0064719628378551164
30
0
10
-23.690889767554928
20
-0.043268391589963429
30
0
10
-23.717028982250241
20
-0.080193451533112636
30
0
10
-23.742838056966914
20
-0.11724524190727115
30
0
10
-23.768316861366856
20
-0.15442195983909723
30
0
10
-23.793462812270914
20
-0.19172268968375761
30
0
10
-23.818269114002575
20
-0.22914807705787243
30
0
10
-23.84272186659728
20
-0.26670144118403849
30
0
10
-23.866801850257016
20
-0.30438807701195447
30
0
10
-23.890489810492337
20
-0.34221320178222436
30
0
10
-23.913771178868274
20
-0.38018012086712183
30
0
10
-23.93664006654598
20
-0.41828867315823359
30
0
10
-23.959105982348667
20
-0.456532626528805
30
0
10
-23.981188528879585
20
-0.49490170685292156
30
0
10
-24.002904826111127
20
-0.53338642929161573
30
0
10
-24.02425815131085
20
-0.57198246231105365
30
0
10
-24.045228211673045
20
-0.61069435863997157
30
0
10
-24.065755291490323
20
-0.64954165655535467
30
0
10
-24.085755038191007
20
-0.68855312230503118
30
0
10
-24.105146740648212
20
-0.72775575725454456
30
0
10
-24.123879331015058
20
-0.7671647121678804
30
0
10
-24.141953905288279
20
-0.8067744886100181
30
0
10
-24.159459256478595
20
-0.84654525550925452
30
0
10
-24.176525543853579
20
-0.88641995806145957
30
0
10
-24.193254618171835
20
-0.9263502319263317
30
0
10
-24.209655635731355
20
-0.96632027725767067
30
0
10
-24.225584058041139
20
-1.0063695689569041
30
0
10
-24.240663930104468
20
-1.0466215657623712
30
0
10
-24.254387888643155
20
-1.0872484172064256
30
0
10
-24.263871359318536
20
-1.1201909980421054
30
0
10
-24.269960840442025
20
-1.1452089693294143
30
0
10
-24.273542561444366
20
-1.1620339298028881
30
0
10
-24.275213937200185
20
-1.1704829888077062
30
0
0
SPLINE
5
181
100
AcDbEntity
8
0
100
AcDbSpline
70
0
71
5
72
81
73
75
74
0
42
0.000000001
43
0.0000000001
44
0.0000000001
40
-1
40
-1
40
-1
40
-1
40
-1
40
-1
40
-0.98571428571428399
40
-0.97142857142856975
40
-0.95714285714285563
40
-0.94285714285714117
40
-0.92857142857142716
40
-0.91428571428571281
40
-0.89999999999999869
40
-0.88571428571428445
40
-0.87142857142857022
40
-0.85714285714285599
40
-0.84285714285714175
40
-0.82857142857142752
40
-0.81428571428571328
40
-0.79999999999999905
40
-0.78571428571428481
40
-0.77142857142857058
40
-0.75714285714285634
40
-0.74285714285714211
40
-0.72857142857142776
40
-0.71428571428571364
40
-0.6999999999999994
40
-0.68571428571428517
40
-0.67142857142857093
40
-0.6571428571428567
40
-0.64285714285714246
40
-0.62857142857142823
40
-0.61428571428571399
40
-0.59999999999999976
40
-0.58571428571428552
40
-0.57142857142857129
40
-0.55714285714285705
40
-0.54285714285714282
40
-0.52857142857142858
40
-0.51428571428571435
40
-0.50000000000000011
40
-0.48571428571428582
40
-0.47142857142857147
40
-0.4571428571428573
40
-0.44285714285714295
40
-0.42857142857142871
40
-0.41428571428571442
40
-0.40000000000000008
40
-0.38571428571428573
40
-0.3714285714285715
40
-0.35714285714285721
40
-0.34285714285714292
40
-0.32857142857142863
40
-0.31428571428571433
40
-0.30000000000000004
40
-0.2857142857142857
40
-0.27142857142857146
40
-0.25714285714285717
40
-0.24285714285714291
40
-0.22857142857142865
40
-0.21428571428571436
40
-0.20000000000000004
40
-0.18571428571428572
40
-0.17142857142857146
40
-0.15714285714285714
40
-0.14285714285714288
40
-0.12857142857142859
40
-0.1142857142857143
40
-0.10000000000000001
40
-0.085714285714285715
40
-0.071428571428571438
40
-0.057142857142857134
40
-0.042857142857142858
40
-0.028571428571428567
40
-0.014285714285714284
40
-0
40
-0
40
-0
40
-0
40
-0
40
-0
10
-29.428294028291155
20
1.8256764533306558
30
0
10
-29.432531000362829
20
1.8169034435050735
30
0
10
-29.440978681800843
20
1.7993541420546655
30
0
10
-29.453571415841395
20
1.7730203444874393
30
0
10
-29.470204099314053
20
1.7378889170187417
30
0
10
-29.490731854349335
20
1.693941825292784
30
0
10
-29.510995880017887
20
1.6499620555641425
30
0
10
-29.530995310709322
20
1.6059499178810666
30
0
10
-29.550729057480673
20
1.5619059698395432
30
0
10
-29.570195817391102
20
1.5178311001420375
30
0
10
-29.589394123049946
20
1.4737264511902004
30
0
10
-29.608322397506058
20
1.4295933217530532
30
0
10
-29.62697901116541
20
1.3854330742513188
30
0
10
-29.645362334771768
20
1.3412470469885607
30
0
10
-29.663470808901621
20
1.2970364475877938
30
0
10
-29.681302921366797
20
1.2528023694304302
30
0
10
-29.698857159606391
20
1.2085458436649299
30
0
10
-29.716131971581696
20
1.1642678809402596
30
0
10
-29.733125729218884
20
1.119969513941268
30
0
10
-29.749836682403796
20
1.0756518489072064
30
0
10
-29.766262973305004
20
1.0313160649318553
30
0
10
-29.782402678098343
20
0.98696338872692913
30
0
10
-29.798253845217069
20
0.94259507656398789
30
0
10
-29.813814529531495
20
0.89821239528851571
30
0
10
-29.82908284925788
20
0.85381659918142727
30
0
10
-29.84405694914404
20
0.80940893033569772
30
0
10
-29.858734907722386
20
0.76499063431706205
30
0
10
-29.873114656880873
20
0.7205629719134965
30
0
10
-29.88719391262185
20
0.67612723119657048
30
0
10
-29.900970067750052
20
0.63168474302059741
30
0
10
-29.914440250767072
20
0.58723688050241529
30
0
10
-29.927601508130188
20
0.5427850459905792
30
0
10
-29.940450968460858
20
0.49833066081607313
30
0
10
-29.952985982268405
20
0.45387515596805317
30
0
10
-29.965204358694926
20
0.4094199574886459
30
0
10
-29.977104225027666
20
0.36496649403157555
30
0
10
-29.988683566954364
20
0.32051622352139653
30
0
10
-29.999939824668907
20
0.27607065630560701
30
0
10
-30.010869545112406
20
0.23163137582523419
30
0
10
-30.021467822251566
20
0.18720007011532758
30
0
10
-30.031728580269803
20
0.14277852021154835
30
0
10
-30.04164560200822
20
0.098368550373804098
30
0
10
-30.05121343834249
20
0.053971984526275385
30
0
10
-30.060428184101564
20
0.0095906095549858073
30
0
10
-30.069288770026155
20
-0.034773887667063352
30
0
10
-30.077796212162795
20
-0.079119878872051519
30
0
10
-30.085951124736361
20
-0.12344566403995172
30
0
10
-30.093751520321579
20
-0.16774935601395313
30
0
10
-30.101190928163089
20
-0.21202878054356278
30
0
10
-30.108255299961961
20
-0.25628131626454609
30
0
10
-30.114924923908948
20
-0.30050398295805358
30
0
10
-30.121180088109767
20
-0.34469371530413184
30
0
10
-30.127006139220782
20
-0.38884760739425595
30
0
10
-30.132397763048722
20
-0.43296311684204891
30
0
10
-30.137366181170158
20
-0.47703841790323276
30
0
10
-30.141933480317729
20
-0.52107209779380437
30
0
10
-30.146119158196001
20
-0.56506245500230534
30
0
10
-30.149927970531401
20
-0.60900686546047078
30
0
10
-30.153339527161851
20
-0.6529012344653129
30
0
10
-30.156291328140917
20
-0.69673912255462156
30
0
10
-30.158694613272843
20
-0.74051249972161948
30
0
10
-30.160464666829494
20
-0.78421320476834033
30
0
10
-30.161548673640432
20
-0.82783430744178599
30
0
10
-30.16194987136349
20
-0.87137123045365694
30
0
10
-30.161765577206701
20
-0.91482370168042504
30
0
10
-30.16113790385721
20
-0.95819253950851113
30
0
10
-30.16017956816232
20
-1.0014749873501594
30
0
10
-30.158905361192893
20
-1.0446603355295636
30
0
10
-30.157167184578093
20
-1.0877258570629755
30
0
10
-30.154571371145622
20
-1.130631422446704
30
0
10
-30.150584401954426
20
-1.1733279348674763
30
0
10
-30.145849028769245
20
-1.2072797549801506
30
0
10
-30.141236320931046
20
-1.2326116241193485
30
0
10
-30.13766505794041
20
-1.2494388075118312
30
0
10
-30.13575539377338
20
-1.2578372167512786
30
0
0
ARC
5
182
100
AcDbEntity
8
0
100
AcDbCircle
10
-30.389128457977801
20
-2.3985941682951473
30
0
40
0.49999999999999989
210
0
220
0
230
1
100
AcDbArc
50
-74.946595814437018
51
12.810330060429175
0
SPLINE
5
183
100
AcDbEntity
8
0
100
AcDbSpline
70
0
71
5
72
81
73
75
74
0
42
0.000000001
43
0.0000000001
44
0.0000000001
40
-1
40
-1
40
-1
40
-1
40
-1
40
-1
40
-0.98571428571428399
40
-0.97142857142856975
40
-0.95714285714285563
40
-0.94285714285714117
40
-0.92857142857142716
40
-0.91428571428571281
40
-0.89999999999999869
40
-0.88571428571428445
40
-0.87142857142857022
40
-0.85714285714285599
40
-0.84285714285714175
40
-0.82857142857142752
40
-0.81428571428571328
40
-0.79999999999999905
40
-0.78571428571428481
40
-0.77142857142857058
40
-0.75714285714285634
40
-0.74285714285714211
40
-0.72857142857142776
40
-0.71428571428571364
40
-0.6999999999999994
40
-0.68571428571428517
40
-0.67142857142857093
40
-0.6571428571428567
40
-0.64285714285714246
40
-0.62857142857142823
40
-0.61428571428571399
40
-0.59999999999999976
40
-0.58571428571428552
40
-0.57142857142857129
40
-0.55714285714285705
40
-0.54285714285714282
40
-0.52857142857142858
40
-0.51428571428571435
40
-0.50000000000000011
40
-0.48571428571428582
40
-0.47142857142857147
40
-0.4571428571428573
40
-0.44285714285714295
40
-0.42857142857142871
40
-0.41428571428571442
40
-0.40000000000000008
40
-0.38571428571428573
40
-0.3714285714285715
40
-0.35714285714285721
40
-0.34285714285714292
40
-0.32857142857142863
40
-0.31428571428571433
40
-0.30000000000000004
40
-0.2857142857142857
40
-0.27142857142857146
40
-0.25714285714285717
40
-0.24285714285714291
40
-0.22857142857142865
40
-0.21428571428571436
40
-0.20000000000000004
40
-0.18571428571428572
40
-0.17142857142857146
40
-0.15714285714285714
40
-0.14285714285714288
40
-0.12857142857142859
40
-0.1142857142857143
40
-0.10000000000000001
40
-0.085714285714285715
40
-0.071428571428571438
40
-0.057142857142857134
40
-0.042857142857142858
40
-0.028571428571428567
40
-0.014285714285714284
40
-0
40
-0
40
-0
40
-0
40
-0
40
-0
10
-41.128760247017567
20
-5.5459990542471296
30
0
10
-41.125075717853278
20
-5.5550180275020669
30
0
10
-41.117686647492604
20
-5.5730386529706974
30
0
10
-41.106543005859628
20
-5.6000176280454372
30
0
10
-41.091564704902062
20
-5.635885634066331
30
0
10
-41.072641400265077
20
-5.6805470731337593
30
0
10
-41.053517341748432
20
-5.7250343889387354
30
0
10
-41.034192180556424
20
-5.7693467307445925
30
0
10
-41.014665602418617
20
-5.8134829162044657
30
0
10
-40.994937395932041
20
-5.8574413823865967
30
0
10
-40.975007428190551
20
-5.9012202743912816
30
0
10
-40.954875609181364
20
-5.9448175512693524
30
0
10
-40.934541860969127
20
-5.9882310903590197
30
0
10
-40.914006087922026
20
-6.0314587853870876
30
0
10
-40.893268144020823
20
-6.0744986694184959
30
0
10
-40.872327829954912
20
-6.1173488870634856
30
0
10
-40.851184899916085
20
-6.1600076242972417
30
0
10
-40.829839066446347
20
-6.202473051474076
30
0
10
-40.808290007586024
20
-6.2447432676983166
30
0
10
-40.786537374376188
20
-6.2868162321631331
30
0
10
-40.764580799922363
20
-6.3286897752629665
30
0
10
-40.742419908559427
20
-6.370361646487515
30
0
10
-40.720054328026016
20
-6.4118295549302786
30
0
10
-40.697483698226009
20
-6.4530912073931237
30
0
10
-40.674707692112676
20
-6.4941443661604428
30
0
10
-40.651725991334963
20
-6.5349868213887508
30
0
10
-40.628538235815832
20
-6.5756163117031932
30
0
10
-40.60514397866627
20
-6.6160304565651904
30
0
10
-40.581542648817262
20
-6.656226696745593
30
0
10
-40.557733490732176
20
-6.6962022042053713
30
0
10
-40.533715603428213
20
-6.7359539262108514
30
0
10
-40.509488052747585
20
-6.7754787294976948
30
0
10
-40.485049973617812
20
-6.8147735291597398
30
0
10
-40.460400656615789
20
-6.8538353987230476
30
0
10
-40.435539695527247
20
-6.8926617558544834
30
0
10
-40.410466898959399
20
-6.9312502529013145
30
0
10
-40.385182002523329
20
-6.9695984173958658
30
0
10
-40.359684415781373
20
-7.0077033364117316
30
0
10
-40.333973004912139
20
-7.0455613842972165
30
0
10
-40.308045741593105
20
-7.0831677856431385
30
0
10
-40.281899883876868
20
-7.1205168334923874
30
0
10
-40.255532627361433
20
-7.1576026869273432
30
0
10
-40.228941681310772
20
-7.1944200760159793
30
0
10
-40.202125760570489
20
-7.230964902990503
30
0
10
-40.175085403257455
20
-7.2672352444980604
30
0
10
-40.147822499278249
20
-7.3032307660845319
30
0
10
-40.120338722990645
20
-7.3389507866725268
30
0
10
-40.092634146978405
20
-7.3743925665628538
30
0
10
-40.064706057244052
20
-7.4095498421896089
30
0
10
-40.036547001694061
20
-7.4444104195970864
30
0
10
-40.008146005287806
20
-7.4789576559006044
30
0
10
-39.979492156170153
20
-7.5131748512085164
30
0
10
-39.950577808851293
20
-7.5470491715320085
30
0
10
-39.921401296803111
20
-7.5805749664672923
30
0
10
-39.891971485518376
20
-7.6137593536095682
30
0
10
-39.862304203808996
20
-7.6466178012628818
30
0
10
-39.832413762655314
20
-7.6791636605120983
30
0
10
-39.80230529432216
20
-7.7113987097063221
30
0
10
-39.771968198085389
20
-7.7433050561110104
30
0
10
-39.741365438770934
20
-7.7748319443731422
30
0
10
-39.710443591673183
20
-7.8059080396892071
30
0
10
-39.679152035857648
20
-7.8364649250968652
30
0
10
-39.647460581258962
20
-7.8664587140311193
30
0
10
-39.615374795881181
20
-7.8958887497369412
30
0
10
-39.582959999873921
20
-7.9248271709077143
30
0
10
-39.550310677006067
20
-7.9533801354589384
30
0
10
-39.517504298113934
20
-7.9816295638151882
30
0
10
-39.484558719195888
20
-8.0095792817123659
30
0
10
-39.451391732539626
20
-8.0371040232921303
30
0
10
-39.417769745424465
20
-8.0638843849532709
30
0
10
-39.383372250040594
20
-8.0894910326750118
30
0
10
-39.354972547477594
20
-8.1086901665747213
30
0
10
-39.333060796014394
20
-8.1222125855706366
30
0
10
-39.318166120378521
20
-8.1308182033854557
30
0
10
-39.310647071267965
20
-8.1350186790081676
30
0
0
ARC
5
184
100
AcDbEntity
8
0
100
AcDbCircle
10
-38.632439117686872
20
-9.0866269512816658
30
0
40
0.50000000000000255
210
0
220
0
230
1
100
AcDbArc
50
-26.946595814436698
51
60.810330060428697
0
LINE
5
185
100
AcDbEntity
8
0
100
AcDbLine
10
-35.45409625531974
20
-3.721336233548147
30
0
11
-34.821264735259241
21
-4.5669416967388283
31
0
0
LINE
5
186
100
AcDbEntity
8
0
100
AcDbLine
10
-39.310647071267965
20
-8.1350186790081676
30
0
11
-38.388587983198896
21
-8.6501219407618208
31
0
0
LINE
5
187
100
AcDbEntity
8
0
100
AcDbLine
10
-36.558360134660866
20
-6.1310294196912132
30
0
11
-37.333184376347774
21
-5.4132747773138066
31
0
0
SPLINE
5
188
100
AcDbEntity
8
0
100
AcDbSpline
70
0
71
5
72
81
73
75
74
0
42
0.000000001
43
0.0000000001
44
0.0000000001
40
0
40
0
40
0
40
0
40
0
40
0
40
0.014285714285714284
40
0.028571428571428567
40
0.042857142857142858
40
0.057142857142857134
40
0.071428571428571438
40
0.085714285714285715
40
0.10000000000000001
40
0.1142857142857143
40
0.12857142857142859
40
0.14285714285714288
40
0.15714285714285714
40
0.17142857142857146
40
0.18571428571428572
40
0.20000000000000004
40
0.21428571428571436
40
0.22857142857142865
40
0.24285714285714291
40
0.25714285714285717
40
0.27142857142857146
40
0.2857142857142857
40
0.30000000000000004
40
0.31428571428571433
40
0.32857142857142863
40
0.34285714285714292
40
0.35714285714285721
40
0.3714285714285715
40
0.38571428571428573
40
0.40000000000000008
40
0.41428571428571442
40
0.42857142857142871
40
0.44285714285714295
40
0.4571428571428573
40
0.47142857142857147
40
0.48571428571428582
40
0.50000000000000011
40
0.51428571428571435
40
0.52857142857142858
40
0.54285714285714282
40
0.55714285714285705
40
0.57142857142857129
40
0.58571428571428552
40
0.59999999999999976
40
0.61428571428571399
40
0.62857142857142823
40
0.64285714285714246
40
0.6571428571428567
40
0.67142857142857093
40
0.68571428571428517
40
0.6999999999999994
40
0.71428571428571364
40
0.72857142857142776
40
0.74285714285714211
40
0.75714285714285634
40
0.77142857142857058
40
0.78571428571428481
40
0.79999999999999905
40
0.81428571428571328
40
0.82857142857142752
40
0.84285714285714175
40
0.85714285714285599
40
0.87142857142857022
40
0.88571428571428445
40
0.89999999999999869
40
0.91428571428571281
40
0.92857142857142716
40
0.94285714285714117
40
0.95714285714285563
40
0.97142857142856975
40
0.98571428571428399
40
1
40
1
40
1
40
1
40
1
40
1
10
-32.540561214830504
20
-2.0392059936282836
30
0
10
-32.5439527251595
20
-2.0312890653936422
30
0
10
-32.550954282944417
20
-2.0155764523437103
30
0
10
-32.562112223006245
20
-1.9923712580703867
30
0
10
-32.578237604775438
20
-1.9621202760869272
30
0
10
-32.600108459268966
20
-1.9252345902460455
30
0
10
-32.623227660661705
20
-1.8889974778440366
30
0
10
-32.647134724680733
20
-1.853135064471827
30
0
10
-32.67148758036307
20
-1.8174484238216926
30
0
10
-32.696153055024027
20
-1.7818688923714454
30
0
10
-32.721136819901787
20
-1.7464138284041475
30
0
10
-32.746528444559743
20
-1.7111517153466571
30
0
10
-32.772443381612376
20
-1.6761654228521317
30
0
10
-32.79896020238462
20
-1.6415123726927927
30
0
10
-32.826078835734151
20
-1.6071981710201944
30
0
10
-32.853752479790003
20
-1.57319738054851
30
0
10
-32.881907801056627
20
-1.539466809169947
30
0
10
-32.910468271107675
20
-1.5059607813624076
30
0
10
-32.93937954140339
20
-1.4726477702134644
30
0
10
-32.968622709150125
20
-1.4395191033708543
30
0
10
-32.998200079422745
20
-1.4065796990962642
30
0
10
-33.028126426072262
20
-1.3738423944045719
30
0
10
-33.058418787227126
20
-1.3413213145177738
30
0
10
-33.089085168187928
20
-1.3090245323712235
30
0
10
-33.120119775304772
20
-1.2769509811942736
30
0
10
-33.151509045723458
20
-1.2450943988970309
30
0
10
-33.183235230436672
20
-1.2134456790146508
30
0
10
-33.21528063052704
20
-1.1819956462840864
30
0
10
-33.247632339882756
20
-1.1507381640505998
30
0
10
-33.28028384556039
20
-1.1196711879052379
30
0
10
-33.313232430456175
20
-1.0887950764106424
30
0
10
-33.346477592241783
20
-1.0581115659442553
30
0
10
-33.380019195844312
20
-1.0276225710195619
30
0
10
-33.413855384695736
20
-0.99732882785065868
30
0
10
-33.447981949141081
20
-0.96722948665675101
30
0
10
-33.482393408670418
20
-0.9373228201085726
30
0
10
-33.517083661223467
20
-0.90760664970909843
30
0
10
-33.552046744494881
20
-0.87807884507105305
30
0
10
-33.587277697218227
20
-0.84873788814945783
30
0
10
-33.622772795086895
20
-0.81958303031791857
30
0
10
-33.658529079414265
20
-0.79061398885696077
30
0
10
-33.694544063640926
20
-0.7618307592692819
30
0
10
-33.730815392968836
20
-0.73323339660707365
30
0
10
-33.767340456750205
20
-0.70482176680868758
30
0
10
-33.804116270387709
20
-0.67659547023713351
30
0
10
-33.841139675449924
20
-0.64855396901937423
30
0
10
-33.878407458190807
20
-0.62069666163035553
30
0
10
-33.915916488421509
20
-0.59302297112052038
30
0
10
-33.953663874620219
20
-0.56553244170270744
30
0
10
-33.991647011884545
20
-0.53822477294856341
30
0
10
-34.029863486004118
20
-0.51109976925123757
30
0
10
-34.068311010353852
20
-0.4841573088842499
30
0
10
-34.106987353919244
20
-0.45739730623206798
30
0
10
-34.145890257057452
20
-0.43081966994452436
30
0
10
-34.185017401492424
20
-0.40442428160261334
30
0
10
-34.224366469955577
20
-0.37821101044920979
30
0
10
-34.263935184997436
20
-0.35217971811947191
30
0
10
-34.303721350546866
20
-0.32633026651440744
30
0
10
-34.34372290050063
20
-0.30066252190906084
30
0
10
-34.38393791072243
20
-0.27517636280523394
30
0
10
-34.424364531542018
20
-0.2498716945696744
30
0
10
-34.465000933178047
20
-0.22474846235799317
30
0
10
-34.505845249571124
20
-0.19980666189244545
30
0
10
-34.546895509298139
20
-0.17504635355442666
30
0
10
-34.588149607627997
20
-0.15046766240147003
30
0
10
-34.629605425380632
20
-0.12607073280376468
30
0
10
-34.67126092337849
20
-0.10185568857889349
30
0
10
-34.713114242990748
20
-0.077822591438607702
30
0
10
-34.755163807749916
20
-0.053971394508893766
30
0
10
-34.797408408935944
20
-0.030301908829784008
30
0
10
-34.839847164013513
20
-0.0068138764425351717
30
0
10
-34.873953022563036
20
0.011831599365015322
30
0
10
-34.89961937625435
20
0.025734265768255771
30
0
10
-34.91676891468137
20
0.034966526315713953
30
0
10
-34.925353342885728
20
0.03957361065831444
30
0
0
ARC
5
189
100
AcDbEntity
8
0
100
AcDbCircle
10
-27
20
-15
30
0
40
17
210
0
220
-0
230
1
100
AcDbArc
50
21.787733919076832
51
26.212266080923168
0
ARC
5
190
100
AcDbEntity
8
0
100
AcDbCircle
10
-35.22157641417634
20
-4.8665256744856062
30
0
40
0.5
210
0
220
0
230
1
100
AcDbArc
50
-50.946595814436371
51
36.810330060428583
0
ARC
5
191
100
AcDbEntity
8
0
100
AcDbCircle
10
-36.218573344664875
20
-5.7642257428500132
30
0
40
0.50000000000000266
210
0
220
0
230
1
100
AcDbArc
50
227.18966993957088
51
314.94659581443807
0
LINE
5
192
100
AcDbEntity
8
0
100
AcDbLine
10
-17.180493872270944
20
-6.421061427790244
30
0
11
-16.385679977638343
21
-5.7255075441414327
31
0
0
SPLINE
5
193
100
AcDbEntity
8
0
100
AcDbSpline
70
0
71
5
72
81
73
75
74
0
42
0.000000001
43
0.0000000001
44
0.0000000001
40
0
40
0
40
0
40
0
40
0
40
0
40
0.014285714285714284
40
0.028571428571428567
40
0.042857142857142858
40
0.057142857142857134
40
0.071428571428571438
40
0.085714285714285715
40
0.10000000000000001
40
0.1142857142857143
40
0.12857142857142859
40
0.14285714285714288
40
0.15714285714285714
40
0.17142857142857146
40
0.18571428571428572
40
0.20000000000000004
40
0.21428571428571436
40
0.22857142857142865
40
0.24285714285714291
40
0.25714285714285717
40
0.27142857142857146
40
0.2857142857142857
40
0.30000000000000004
40
0.31428571428571433
40
0.32857142857142863
40
0.34285714285714292
40
0.35714285714285721
40
0.3714285714285715
40
0.38571428571428573
40
0.40000000000000008
40
0.41428571428571442
40
0.42857142857142871
40
0.44285714285714295
40
0.4571428571428573
40
0.47142857142857147
40
0.48571428571428582
40
0.50000000000000011
40
0.51428571428571435
40
0.52857142857142858
40
0.54285714285714282
40
0.55714285714285705
40
0.57142857142857129
40
0.58571428571428552
40
0.59999999999999976
40
0.61428571428571399
40
0.62857142857142823
40
0.64285714285714246
40
0.6571428571428567
40
0.67142857142857093
40
0.68571428571428517
40
0.6999999999999994
40
0.71428571428571364
40
0.72857142857142776
40
0.74285714285714211
40
0.75714285714285634
40
0.77142857142857058
40
0.78571428571428481
40
0.79999999999999905
40
0.81428571428571328
40
0.82857142857142752
40
0.84285714285714175
40
0.85714285714285599
40
0.87142857142857022
40
0.88571428571428445
40
0.89999999999999869
40
0.91428571428571281
40
0.92857142857142716
40
0.94285714285714117
40
0.95714285714285563
40
0.97142857142856975
40
0.98571428571428399
40
1
40
1
40
1
40
1
40
1
40
1
10
-37.333184376347774
20
-5.4132747773138066
30
0
10
-37.339502780016993
20
-5.4074217550127424
30
0
10
-37.352289916813703
20
-5.395915358843018
30
0
10
-37.371921605094499
20
-5.3792547021052997
30
0
10
-37.398957057224195
20
-5.3581778385742052
30
0
10
-37.433939837037983
20
-5.3333767657601285
30
0
10
-37.469799239907793
20
-5.3096759426922624
30
0
10
-37.506225987275556
20
-5.2866378768208788
30
0
10
-37.542988492385483
20
-5.2639417071259684
30
0
10
-37.579993023906873
20
-5.2414705401480166
30
0
10
-37.617237702523866
20
-5.2192425401680378
30
0
10
-37.654776499385065
20
-5.1973567011331001
30
0
10
-37.692681179577477
20
-5.1759356870472795
30
0
10
-37.731000166039237
20
-5.1550639131467015
30
0
10
-37.769731113551316
20
-5.134746471969458
30
0
10
-37.808841612753341
20
-5.1149410893627447
30
0
10
-37.84828223797647
20
-5.0955784799528807
30
0
10
-37.888001654932985
20
-5.0765857901588793
30
0
10
-37.927963036911777
20
-5.0579121131704987
30
0
10
-37.968152642715026
20
-5.0395418379408952
30
0
10
-38.008570577696162
20
-5.0214803950840823
30
0
10
-38.049225117155309
20
-5.0037455208632764
30
0
10
-38.090126080951954
20
-4.9863570493420255
30
0
10
-38.131277498733482
20
-4.9693256115628515
30
0
10
-38.172674511632025
20
-4.9526478764925645
30
0
10
-38.214307276385185
20
-4.9363126069175927
30
0
10
-38.25616328240087
20
-4.9203042644966999
30
0
10
-38.298230092829229
20
-4.9046072684117608
30
0
10
-38.340498413352762
20
-4.8892107631611186
30
0
10
-38.382963125637637
20
-4.8741102320315193
30
0
10
-38.425621601645474
20
-4.8593048974405795
30
0
10
-38.468472676228195
20
-4.8447961413326723
30
0
10
-38.511515447287749
20
-4.8305856577638036
30
0
10
-38.554747919319638
20
-4.816673364164763
30
0
10
-38.598166592249626
20
-4.8030567720012414
30
0
10
-38.641767161950902
20
-4.7897320741552303
30
0
10
-38.685544939988567
20
-4.7766947985391361
30
0
10
-38.729495346032223
20
-4.7639405738592817
30
0
10
-38.773614465183982
20
-4.7514659953837253
30
0
10
-38.817899199614232
20
-4.7392688643962604
30
0
10
-38.862346961420627
20
-4.7273477192135189
30
0
10
-38.90695548084733
20
-4.7157015443521928
30
0
10
-38.951722584287552
20
-4.7043294323223073
30
0
10
-38.996645941323635
20
-4.6932301988063259
30
0
10
-39.041722987937256
20
-4.6824022647726071
30
0
10
-39.086951057530435
20
-4.6718438541998903
30
0
10
-39.132327458862321
20
-4.6615531104194048
30
0
10
-39.177849567029639
20
-4.6515282331989933
30
0
10
-39.223514925881126
20
-4.6417676300685162
30
0
10
-39.269321277915253
20
-4.6322699670637384
30
0
10
-39.315266497201591
20
-4.6230340835410928
30
0
10
-39.361348544314751
20
-4.6140589382437032
30
0
10
-39.407565415944596
20
-4.6053435455225333
30
0
10
-39.453915084960094
20
-4.5968869028455099
30
0
10
-39.500395481676065
20
-4.5886879591036607
30
0
10
-39.547004542346016
20
-4.5807456523263816
30
0
10
-39.593740242694381
20
-4.5730589297889406
30
0
10
-39.640600632680275
20
-4.565626772109006
30
0
10
-39.687583879215317
20
-4.5584482167628799
30
0
10
-39.734688273931269
20
-4.5515223701397023
30
0
10
-39.781912165561124
20
-4.5448483934590111
30
0
10
-39.829253904823645
20
-4.5384254923788454
30
0
10
-39.876711788728691
20
-4.5322529039965698
30
0
10
-39.924283991732281
20
-4.5263298816232904
30
0
10
-39.971968540201416
20
-4.5206556834335121
30
0
10
-40.019763439448113
20
-4.5152295793677677
30
0
10
-40.067666776229856
20
-4.5100508531308297
30
0
10
-40.115676827502462
20
-4.5051188051259032
30
0
10
-40.163792172156576
20
-4.500432751324368
30
0
10
-40.212011782828441
20
-4.49599202747196
30
0
10
-40.26033495820321
20
-4.4917960389521934
30
0
10
-40.299076008598639
20
-4.4886346516382725
30
0
10
-40.328178113290249
20
-4.4863733804368771
30
0
10
-40.347600094883987
20
-4.4849146364400738
30
0
10
-40.357316230296419
20
-4.4841974569764798
30
0
0
ARC
5
194
100
AcDbEntity
8
0
100
AcDbCircle
10
-24.970669402129452
20
-2.1095602105844957
30
0
40
0.50000000000000133
210
0
220
0
230
1
100
AcDbArc
50
261.05340418556267
51
348.81033006042918
0
SPLINE
5
195
100
AcDbEntity
8
0
100
AcDbSpline
70
0
71
5
72
81
73
75
74
0
42
0.000000001
43
0.0000000001
44
0.0000000001
40
0
40
0
40
0
40
0
40
0
40
0
40
0.014285714285714284
40
0.028571428571428567
40
0.042857142857142858
40
0.057142857142857134
40
0.071428571428571438
40
0.085714285714285715
40
0.10000000000000001
40
0.1142857142857143
40
0.12857142857142859
40
0.14285714285714288
40
0.15714285714285714
40
0.17142857142857146
40
0.18571428571428572
40
0.20000000000000004
40
0.21428571428571436
40
0.22857142857142865
40
0.24285714285714291
40
0.25714285714285717
40
0.27142857142857146
40
0.2857142857142857
40
0.30000000000000004
40
0.31428571428571433
40
0.32857142857142863
40
0.34285714285714292
40
0.35714285714285721
40
0.3714285714285715
40
0.38571428571428573
40
0.40000000000000008
40
0.41428571428571442
40
0.42857142857142871
40
0.44285714285714295
40
0.4571428571428573
40
0.47142857142857147
40
0.48571428571428582
40
0.50000000000000011
40
0.51428571428571435
40
0.52857142857142858
40
0.54285714285714282
40
0.55714285714285705
40
0.57142857142857129
40
0.58571428571428552
40
0.59999999999999976
40
0.61428571428571399
40
0.62857142857142823
40
0.64285714285714246
40
0.6571428571428567
40
0.67142857142857093
40
0.68571428571428517
40
0.6999999999999994
40
0.71428571428571364
40
0.72857142857142776
40
0.74285714285714211
40
0.75714285714285634
40
0.77142857142857058
40
0.78571428571428481
40
0.79999999999999905
40
0.81428571428571328
40
0.82857142857142752
40
0.84285714285714175
40
0.85714285714285599
40
0.87142857142857022
40
0.88571428571428445
40
0.89999999999999869
40
0.91428571428571281
40
0.92857142857142716
40
0.94285714285714117
40
0.95714285714285563
40
0.97142857142856975
40
0.98571428571428399
40
1
40
1
40
1
40
1
40
1
40
1
10
-40.339106085161475
20
-10.444975444666271
30
0
10
-40.347258872775633
20
-10.442198369027672
30
0
10
-40.363620576464498
20
-10.436887750168227
30
0
10
-40.38833151571221
20
-10.42965240987338
30
0
10
-40.421602362919813
20
-10.421394045976466
30
0
10
-40.463648227615494
20
-10.412965916989423
30
0
10
-40.506047415433734
20
-10.405899470879355
30
0
10
-40.548695330603735
20
-10.399669243392216
30
0
10
-40.591510914030849
20
-10.393887918581008
30
0
10
-40.634456082737032
20
-10.38841058498998
30
0
10
-40.677521731803083
20
-10.383253072128898
30
0
10
-40.720716901860968
20
-10.378527767512264
30
0
10
-40.76405726163469
20
-10.374375919774392
30
0
10
-40.807552712909654
20
-10.3708943414541
30
0
10
-40.851199041899832
20
-10.368086730929914
30
0
10
-40.89498383562826
20
-10.365901286767123
30
0
10
-40.938890122399989
20
-10.364254610396703
30
0
10
-40.98290063823061
20
-10.363059267224797
30
0
10
-41.027002445910597
20
-10.362253772793304
30
0
10
-41.071189341815881
20
-10.361818276652606
30
0
10
-41.115459213361866
20
-10.361757782766578
30
0
10
-41.159812406423278
20
-10.362091859885702
30
0
10
-41.204249824647682
20
-10.362842621425333
30
0
10
-41.24877082526659
20
-10.364021418331308
30
0
10
-41.293372324336623
20
-10.365623231273799
30
0
10
-41.338049900176642
20
-10.367633790931887
30
0
10
-41.382798443804816
20
-10.37003381380827
30
0
10
-41.427612930883122
20
-10.372804007594777
30
0
10
-41.472489285960314
20
-10.375930674957676
30
0
10
-41.517424670318576
20
-10.37940760786017
30
0
10
-41.562416999396625
20
-10.383233027025893
30
0
10
-41.607464646691305
20
-10.387407721015439
30
0
10
-41.652566099060408
20
-10.391932870509635
30
0
10
-41.697719567103746
20
-10.396807588432962
30
0
10
-41.74292286552253
20
-10.402028177787756
30
0
10
-41.788173610795653
20
-10.407589409952561
30
0
10
-41.833469338786593
20
-10.4134852925138
30
0
10
-41.878807643120638
20
-10.419709969107782
30
0
10
-41.924186332189848
20
-10.426258737024675
30
0
10
-41.969603470284518
20
-10.433128327636471
30
0
10
-42.015057287758381
20
-10.440316353034246
30
0
10
-42.060546124120577
20
-10.447820962334969
30
0
10
-42.106068362791916
20
-10.455640442419764
30
0
10
-42.151622356535292
20
-10.463772763494479
30
0
10
-42.197206405253439
20
-10.472215440161721
30
0
10
-42.242818795260789
20
-10.480965765342216
30
0
10
-42.288457823161721
20
-10.490020948258376
30
0
10
-42.334121823208179
20
-10.49937827667196
30
0
10
-42.379809199310266
20
-10.509035296782363
30
0
10
-42.425518431709847
20
-10.51898987174404
30
0
10
-42.471248050349104
20
-10.529240076562516
30
0
10
-42.516996615637588
20
-10.53978413049327
30
0
10
-42.562762698359975
20
-10.550620318281464
30
0
10
-42.608544854406468
20
-10.561746899560003
30
0
10
-42.654341620550092
20
-10.573162072276252
30
0
10
-42.700151543406982
20
-10.584864026870477
30
0
10
-42.745973201891118
20
-10.596850978283728
30
0
10
-42.791805229171629
20
-10.609121202110824
30
0
10
-42.837646342132636
20
-10.6216730734584
30
0
10
-42.883495343566373
20
-10.634505081116352
30
0
10
-42.929351066128099
20
-10.647615787189794
30
0
10
-42.975212326212436
20
-10.661003795188131
30
0
10
-43.02107787836092
20
-10.674667715496621
30
0
10
-43.066946358561864
20
-10.688606123465398
30
0
10
-43.112816265539429
20
-10.702817538654283
30
0
10
-43.15868607399743
20
-10.717300482808078
30
0
10
-43.204554327445337
20
-10.732053523372684
30
0
10
-43.25041973635561
20
-10.747075320409426
30
0
10
-43.296281280699809
20
-10.762364671009808
30
0
10
-43.342138292110938
20
-10.777920550480896
30
0
10
-43.387990371758328
20
-10.793742130363036
30
0
10
-43.424667934434915
20
-10.806611464129624
30
0
10
-43.452173771841309
20
-10.816382582463797
30
0
10
-43.470509959541054
20
-10.822949585106967
30
0
10
-43.479677794080438
20
-10.826246317367014
30
0
0
LINE
5
196
100
AcDbEntity
8
0
100
AcDbLine
10
-32.124661162158723
20
-3.0100568979115327
30
0
11
-32.540561214830504
21
-2.0392059936282836
31
0
0
ARC
5
197
100
AcDbEntity
8
0
100
AcDbCircle
10
-16.062649158912254
20
-7.8826987404664983
30
0
40
0.49999999999999845
210
0
220
0
230
1
100
AcDbArc
50
213.05340418556307
51
300.81033006042941
0
SPLINE
5
198
100
AcDbEntity
8
0
100
AcDbSpline
70
0
71
5
72
81
73
75
74
0
42
0.000000001
43
0.0000000001
44
0.0000000001
40
0
40
0
40
0
40
0
40
0
40
0
40
0.014285714285714284
40
0.028571428571428567
40
0.042857142857142858
40
0.057142857142857134
40
0.071428571428571438
40
0.085714285714285715
40
0.10000000000000001
40
0.1142857142857143
40
0.12857142857142859
40
0.14285714285714288
40
0.15714285714285714
40
0.17142857142857146
40
0.18571428571428572
40
0.20000000000000004
40
0.21428571428571436
40
0.22857142857142865
40
0.24285714285714291
40
0.25714285714285717
40
0.27142857142857146
40
0.2857142857142857
40
0.30000000000000004
40
0.31428571428571433
40
0.32857142857142863
40
0.34285714285714292
40
0.35714285714285721
40
0.3714285714285715
40
0.38571428571428573
40
0.40000000000000008
40
0.41428571428571442
40
0.42857142857142871
40
0.44285714285714295
40
0.4571428571428573
40
0.47142857142857147
40
0.48571428571428582
40
0.50000000000000011
40
0.51428571428571435
40
0.52857142857142858
40
0.54285714285714282
40
0.55714285714285705
40
0.57142857142857129
40
0.58571428571428552
40
0.59999999999999976
40
0.61428571428571399
40
0.62857142857142823
40
0.64285714285714246
40
0.6571428571428567
40
0.67142857142857093
40
0.68571428571428517
40
0.6999999999999994
40
0.71428571428571364
40
0.72857142857142776
40
0.74285714285714211
40
0.75714285714285634
40
0.77142857142857058
40
0.78571428571428481
40
0.79999999999999905
40
0.81428571428571328
40
0.82857142857142752
40
0.84285714285714175
40
0.85714285714285599
40
0.87142857142857022
40
0.88571428571428445
40
0.89999999999999869
40
0.91428571428571281
40
0.92857142857142716
40
0.94285714285714117
40
0.95714285714285563
40
0.97142857142856975
40
0.98571428571428399
40
1
40
1
40
1
40
1
40
1
40
1
10
-16.385679977638343
20
-5.7255075441414327
30
0
10
-16.379198565779998
20
-5.7198355607752163
30
0
10
-16.36641858309347
20
-5.7083212191611832
30
0
10
-16.347797124969262
20
-5.6905385881687192
30
0
10
-16.324009748437032
20
-5.6658543712299547
30
0
10
-16.295687842280053
20
-5.6336556487729395
30
0
10
-16.26836852652513
20
-5.6004700980775493
30
0
10
-16.241649033664906
20
-5.5666510338654511
30
0
10
-16.215234467797313
20
-5.5324623133453148
30
0
10
-16.189018373409393
20
-5.4980093730714783
30
0
10
-16.163019011718326
20
-5.4632921833803527
30
0
10
-16.137329192850764
20
-5.4282467210977519
30
0
10
-16.112063407350256
20
-5.3927887923934872
30
0
10
-16.08730054644213
20
-5.3568614158004388
30
0
10
-16.063045919909165
20
-5.320466391375116
30
0
10
-16.039260872881425
20
-5.2836403697882321
30
0
10
-16.015881665926965
20
-5.2464397482432634
30
0
10
-15.992841210458542
20
-5.2089231950862489
30
0
10
-15.970092727978269
20
-5.1711326564983038
30
0
10
-15.947622129304531
20
-5.1330834302003057
30
0
10
-15.925434804289464
20
-5.094774843762222
30
0
10
-15.903547527030746
20
-5.0561968132725275
30
0
10
-15.881978996484056
20
-5.0173374994417861
30
0
10
-15.860739364241073
20
-4.9781917834509155
30
0
10
-15.83982582540636
20
-4.9387648457381523
30
0
10
-15.819228233226079
20
-4.8990676502521495
30
0
10
-15.79893244219261
20
-4.8591142632495998
30
0
10
-15.778924256845981
20
-4.8189186820889773
30
0
10
-15.759193852672833
20
-4.7784912848814205
30
0
10
-15.739737272714516
20
-4.7378376340471
30
0
10
-15.720554018353132
20
-4.6969604245072123
30
0
10
-15.701645585753763
20
-4.6558606705745254
30
0
10
-15.683013753987112
20
-4.6145390923282159
30
0
10
-15.66465864952332
20
-4.572997682972046
30
0
10
-15.64657816331791
20
-4.5312401835291301
30
0
10
-15.628768959012413
20
-4.4892712725000372
30
0
10
-15.611227079092709
20
-4.4470960800963466
30
0
10
-15.593948654986413
20
-4.4047196184815647
30
0
10
-15.576930709831327
20
-4.3621461369987458
30
0
10
-15.560171380767409
20
-4.3193789463356786
30
0
10
-15.543669484627998
20
-4.2764207730054471
30
0
10
-15.527424248746797
20
-4.2332739804768256
30
0
10
-15.511434997808946
20
-4.1899408253079056
30
0
10
-15.495700797579698
20
-4.1464237489449518
30
0
10
-15.480220345690396
20
-4.1027254664140695
30
0
10
-15.464992154584403
20
-4.0588488153501316
30
0
10
-15.450014659075242
20
-4.0147966663258146
30
0
10
-15.435286343169734
20
-3.9705718180403826
30
0
10
-15.420805879859163
20
-3.9261768796485219
30
0
10
-15.406572178460056
20
-3.881614235722155
30
0
10
-15.392584306907221
20
-3.83688612186595
30
0
10
-15.378841442825886
20
-3.791994675174053
30
0
10
-15.365342815369441
20
-3.7469419910106705
30
0
10
-15.352087639390684
20
-3.7017301901951072
30
0
10
-15.339075085879736
20
-3.6563614409454304
30
0
10
-15.326304314403814
20
-3.6108379067088459
30
0
10
-15.313774489599554
20
-3.5651617107114264
30
0
10
-15.301484801503689
20
-3.5193348988660111
30
0
10
-15.289434484475217
20
-3.4733593948302421
30
0
10
-15.277622828371697
20
-3.4272369910215006
30
0
10
-15.266049171611984
20
-3.3809694173374316
30
0
10
-15.254712896602442
20
-3.3345583970556647
30
0
10
-15.24361342263064
20
-3.2880057035822396
30
0
10
-15.23275019791944
20
-3.2413132305108472
30
0
10
-15.222122691007955
20
-3.1944830182045969
30
0
10
-15.211730384337736
20
-3.1475171267363478
30
0
10
-15.201572765525793
20
-3.1004175337409356
30
0
10
-15.191649318914964
20
-3.0531860259513022
30
0
10
-15.181959512770167
20
-3.0058240881922527
30
0
10
-15.172502793864773
20
-2.9583328116330332
30
0
10
-15.163278644147011
20
-2.9107129559009692
30
0
10
-15.156085032780368
20
-2.8725145879908665
30
0
10
-15.150794150777948
20
-2.8438082748774729
30
0
10
-15.147313248043783
20
-2.8246451691993513
30
0
10
-15.145584384660769
20
-2.8150572254605333
30
0
0
ARC
5
199
100
AcDbEntity
8
0
100
AcDbCircle
10
-27
20
-15
30
0
40
17
210
0
220
-0
230
1
100
AcDbArc
50
69.787733919076828
51
74.212266080923172
0
ARC
5
200
100
AcDbEntity
8
0
100
AcDbCircle
10
-26.304911723400878
20
-1.9693256917481605
30
0
40
0.49999999999999978
210
0
220
0
230
1
100
AcDbArc
50
179.1896699395715
51
266.94659581443716
0
LINE
5
201
100
AcDbEntity
8
0
100
AcDbLine
10
-30.13575539377338
20
-1.2578372167512786
30
0
11
-29.901573760633795
21
-2.287732014708852
31
0
0
ARC
5
202
100
AcDbEntity
8
0
100
AcDbCircle
10
-27
20
-15
30
0
40
12.549200000000003
210
0
220
-0
230
1
100
AcDbArc
50
33.053404185562805
51
38.946595814437167
0
SPLINE
5
203
100
AcDbEntity
8
0
100
AcDbSpline
70
0
71
5
72
81
73
75
74
0
42
0.000000001
43
0.0000000001
44
0.0000000001
40
0
40
0
40
0
40
0
40
0
40
0
40
0.014285714285714284
40
0.028571428571428567
40
0.042857142857142858
40
0.057142857142857134
40
0.071428571428571438
40
0.085714285714285715
40
0.10000000000000001
40
0.1142857142857143
40
0.12857142857142859
40
0.14285714285714288
40
0.15714285714285714
40
0.17142857142857146
40
0.18571428571428572
40
0.20000000000000004
40
0.21428571428571436
40
0.22857142857142865
40
0.24285714285714291
40
0.25714285714285717
40
0.27142857142857146
40
0.2857142857142857
40
0.30000000000000004
40
0.31428571428571433
40
0.32857142857142863
40
0.34285714285714292
40
0.35714285714285721
40
0.3714285714285715
40
0.38571428571428573
40
0.40000000000000008
40
0.41428571428571442
40
0.42857142857142871
40
0.44285714285714295
40
0.4571428571428573
40
0.47142857142857147
40
0.48571428571428582
40
0.50000000000000011
40
0.51428571428571435
40
0.52857142857142858
40
0.54285714285714282
40
0.55714285714285705
40
0.57142857142857129
40
0.58571428571428552
40
0.59999999999999976
40
0.61428571428571399
40
0.62857142857142823
40
0.64285714285714246
40
0.6571428571428567
40
0.67142857142857093
40
0.68571428571428517
40
0.6999999999999994
40
0.71428571428571364
40
0.72857142857142776
40
0.74285714285714211
40
0.75714285714285634
40
0.77142857142857058
40
0.78571428571428481
40
0.79999999999999905
40
0.81428571428571328
40
0.82857142857142752
40
0.84285714285714175
40
0.85714285714285599
40
0.87142857142857022
40
0.88571428571428445
40
0.89999999999999869
40
0.91428571428571281
40
0.92857142857142716
40
0.94285714285714117
40
0.95714285714285563
40
0.97142857142856975
40
0.98571428571428399
40
1
40
1
40
1
40
1
40
1
40
1
10
-21.075612085334345
20
-2.2100966505822028
30
0
10
-21.07199802444601
20
-2.2022788082405143
30
0
10
-21.065006233969299
20
-2.1865618465047842
30
0
10
-21.055227533120167
20
-2.1627425753700669
30
0
10
-21.043536658874547
20
-2.1305172234318981
30
0
10
-21.030759710436548
20
-2.0895826697535957
30
0
10
-21.019300053111209
20
-2.0481543938751656
30
0
10
-21.00864603442783
20
-2.0063913445518278
30
0
10
-20.998420933179304
20
-1.9644146223687597
30
0
10
-20.988484612505161
20
-1.9222772490532591
30
0
10
-20.978853766922676
20
-1.8799866250124797
30
0
10
-20.969639223272413
20
-1.8375220114458024
30
0
10
-20.960979818586249
20
-1.7948530609614544
30
0
10
-20.95297080003537
20
-1.7519598063511421
30
0
10
-20.945616286198785
20
-1.7088460517315252
30
0
10
-20.938866056924862
20
-1.6655295568043105
30
0
10
-20.932638944535856
20
-1.622035917815996
30
0
10
-20.926849797991522
20
-1.5783914435808311
30
0
10
-20.921438821958695
20
-1.5346154273128554
30
0
10
-20.916386923185875
20
-1.4907161135890457
30
0
10
-20.911699299049925
20
-1.4466950803643575
30
0
10
-20.907395374947914
20
-1.4025499381674256
30
0
10
-20.903497048698696
20
-1.3582774768195982
30
0
10
-20.90001567625405
20
-1.3138771490713008
30
0
10
-20.896946588140416
20
-1.269352546634579
30
0
10
-20.894276055397249
20
-1.2247095585183398
30
0
10
-20.891985434198279
20
-1.1799552813912029
30
0
10
-20.890056063106947
20
-1.135096728662679
30
0
10
-20.888474745825611
20
-1.0901393852194907
30
0
10
-20.88723560505256
20
-1.0450867231452254
30
0
10
-20.88633708915447
20
-0.99994100156674426
30
0
10
-20.885780152387994
20
-0.95470375565001486
30
0
10
-20.885566127132513
20
-0.90937636683334988
30
0
10
-20.885694318215226
20
-0.86396070743904652
30
0
10
-20.886161277316955
20
-0.81845933723609043
30
0
10
-20.886962053604961
20
-0.77287517322818466
30
0
10
-20.888090945065152
20
-0.72721129243081162
30
0
10
-20.889542378950253
20
-0.68147070019302536
30
0
10
-20.891311907397785
20
-0.63565606768393845
30
0
10
-20.893396482022382
20
-0.58976966167389788
30
0
10
-20.895793912974739
20
-0.54381349171931159
30
0
10
-20.898502533079721
20
-0.49778940268464744
30
0
10
-20.901520807581626
20
-0.45169918136300558
30
0
10
-20.904846889988896
20
-0.40554467813901152
30
0
10
-20.908478486227956
20
-0.35932784359139269
30
0
10
-20.912413083178119
20
-0.31305066498479306
30
0
10
-20.916648083403288
20
-0.26671512809915532
30
0
10
-20.921180963641241
20
-0.22032317306349469
30
0
10
-20.926009450370373
20
-0.17387664371616207
30
0
10
-20.931131577308967
20
-0.12737727485107264
30
0
10
-20.936545583670775
20
-0.080826729689640331
30
0
10
-20.942249848944545
20
-0.034226626074564948
30
0
10
-20.948242816665473
20
0.012421435315266294
30
0
10
-20.954522906950956
20
0.059115836363146101
30
0
10
-20.961088480569057
20
0.10585493349200226
30
0
10
-20.967937889792978
20
0.15263709212927523
30
0
10
-20.975069507886452
20
0.19946071238432062
30
0
10
-20.982481762763495
20
0.24632425466450947
30
0
10
-20.990173172554215
20
0.29322627303536741
30
0
10
-20.998142359469352
20
0.34016541888311602
30
0
10
-21.006388015511721
20
0.38714038095690073
30
0
10
-21.014908875561304
20
0.43414983616223424
30
0
10
-21.02370368780166
20
0.48119240060910728
30
0
10
-21.032771177965355
20
0.52826656884159107
30
0
10
-21.042110030648278
20
0.57537069305984234
30
0
10
-21.051718935130125
20
0.62250310180365531
30
0
10
-21.061596618949203
20
0.66966219681864558
30
0
10
-21.071741884299481
20
0.71684655557970434
30
0
10
-21.082153641484147
20
0.76405503790802465
30
0
10
-21.092830941286998
20
0.8112868719884414
30
0
10
-21.103773001475936
20
0.8585415745774938
30
0
10
-21.112737986422626
20
0.89636342540998948
30
0
10
-21.119580434633214
20
0.9247399429449743
30
0
10
-21.124194809026349
20
0.94366212178450759
30
0
10
-21.126515181786239
20
0.95312433632398497
30
0
0
ARC
5
204
100
AcDbEntity
8
0
100
AcDbCircle
10
-27
20
-15
30
0
40
12.549200000000003
210
0
220
0
230
1
100
AcDbArc
50
105.05340418556281
51
110.9465958144372
0
LINE
5
205
100
AcDbEntity
8
0
100
AcDbLine
10
-39.339331804904376
20
-10.785527526874553
30
0
11
-40.339106085161475
21
-10.444975444666271
31
0
0
ARC
5
206
100
AcDbEntity
8
0
100
AcDbCircle
10
-27
20
-15
30
0
40
12.549199999999999
210
0
220
0
230
1
100
AcDbArc
50
153.05340418556281
51
158.94659581443719
0
ARC
5
207
100
AcDbEntity
8
0
100
AcDbCircle
10
-39.178113622522829
20
-10.312231955725203
30
0
40
0.49999999999999922
210
0
220
0
230
1
100
AcDbArc
50
251.18966993957085
51
338.9465958144371
0
ARC
5
208
100
AcDbEntity
8
0
100
AcDbCircle
10
-27
20
-15
30
0
40
17.000000000000004
210
0
220
0
230
1
100
AcDbArc
50
141.78773391907686
51
146.21226608092317
0
LINE
5
209
100
AcDbEntity
8
0
100
AcDbLine
10
-21.518803456733536
20
-3.16879667690811
30
0
11
-21.075612085334345
21
-2.2100966505822028
31
0
0
LINE
5
210
100
AcDbEntity
8
0
100
AcDbLine
10
-13.00534252984975
20
-13.317869760080134
30
0
11
-14.054074102582037
21
-13.443115201172704
31
0
0
SPLINE
5
211
100
AcDbEntity
8
0
100
AcDbSpline
70
0
71
5
72
81
73
75
74
0
42
0.000000001
43
0.0000000001
44
0.0000000001
40
0
40
0
40
0
40
0
40
0
40
0
40
0.014285714285714284
40
0.028571428571428567
40
0.042857142857142858
40
0.057142857142857134
40
0.071428571428571438
40
0.085714285714285715
40
0.10000000000000001
40
0.1142857142857143
40
0.12857142857142859
40
0.14285714285714288
40
0.15714285714285714
40
0.17142857142857146
40
0.18571428571428572
40
0.20000000000000004
40
0.21428571428571436
40
0.22857142857142865
40
0.24285714285714291
40
0.25714285714285717
40
0.27142857142857146
40
0.2857142857142857
40
0.30000000000000004
40
0.31428571428571433
40
0.32857142857142863
40
0.34285714285714292
40
0.35714285714285721
40
0.3714285714285715
40
0.38571428571428573
40
0.40000000000000008
40
0.41428571428571442
40
0.42857142857142871
40
0.44285714285714295
40
0.4571428571428573
40
0.47142857142857147
40
0.48571428571428582
40
0.50000000000000011
40
0.51428571428571435
40
0.52857142857142858
40
0.54285714285714282
40
0.55714285714285705
40
0.57142857142857129
40
0.58571428571428552
40
0.59999999999999976
40
0.61428571428571399
40
0.62857142857142823
40
0.64285714285714246
40
0.6571428571428567
40
0.67142857142857093
40
0.68571428571428517
40
0.6999999999999994
40
0.71428571428571364
40
0.72857142857142776
40
0.74285714285714211
40
0.75714285714285634
40
0.77142857142857058
40
0.78571428571428481
40
0.79999999999999905
40
0.81428571428571328
40
0.82857142857142752
40
0.84285714285714175
40
0.85714285714285599
40
0.87142857142857022
40
0.88571428571428445
40
0.89999999999999869
40
0.91428571428571281
40
0.92857142857142716
40
0.94285714285714117
40
0.95714285714285563
40
0.97142857142856975
40
0.98571428571428399
40
1
40
1
40
1
40
1
40
1
40
1
10
-13.531060229878848
20
-10.844562439437468
30
0
10
-13.522832162042597
20
-10.842017052499086
30
0
10
-13.506473762255249
20
-10.836696265276329
30
0
10
-13.482229366136256
20
-10.82802505287485
30
0
10
-13.450458540821382
20
-10.815150096293277
30
0
10
-13.411488791816391
20
-10.797254656686574
30
0
10
-13.373033575514119
20
-10.778049914370712
30
0
10
-13.334868651531551
20
-10.758022458708682
30
0
10
-13.296831939452192
20
-10.737533280224191
30
0
10
-13.25886907223591
20
-10.716721999360495
30
0
10
-13.220996720269431
20
-10.695581161512388
30
0
10
-13.183273629251442
20
-10.674014529320555
30
0
10
-13.145770146782091
20
-10.651898620394507
30
0
10
-13.108535167131269
20
-10.629149291621637
30
0
10
-13.071574273175841
20
-10.605766027752161
30
0
10
-13.034867059105748
20
-10.58179803319188
30
0
10
-12.998378234861674
20
-10.55732275451243
30
0
10
-12.962070374535619
20
-10.532421075301595
30
0
10
-12.925917804892224
20
-10.507150341831807
30
0
10
-12.889913876967242
20
-10.481530259852914
30
0
10
-12.854063241133682
20
-10.455558022819149
30
0
10
-12.818377119795956
20
-10.429217595978773
30
0
10
-12.782867779827249
20
-10.40249055805223
30
0
10
-12.747542413156756
20
-10.375368103741277
30
0
10
-12.712400564459028
20
-10.347856106465493
30
0
10
-12.67743742365286
20
-10.319968709346952
30
0
10
-12.642645789436035
20
-10.291724516046862
30
0
10
-12.608018386849196
20
-10.263142087602194
30
0
10
-12.573550461910878
20
-10.234234900878832
30
0
10
-12.539240662199562
20
-10.205009646840534
30
0
10
-12.505089628328365
20
-10.175468990226484
30
0
10
-12.471099139670248
20
-10.145613249112344
30
0
10
-12.437271114369759
20
-10.115442357709924
30
0
10
-12.403606478672145
20
-10.08495808546143
30
0
10
-12.370104827480572
20
-10.054164707787208
30
0
10
-12.336765015797537
20
-10.023067855729437
30
0
10
-12.303585514899019
20
-9.9916738256356314
30
0
10
-12.270564829298864
20
-9.9599887698351104
30
0
10
-12.237701967861657
20
-9.9280177810948782
30
0
10
-12.204996575358095
20
-9.8957646415721587
30
0
10
-12.172448679884438
20
-9.8632323232978329
30
0
10
-12.14005853688426
20
-9.830423299679758
30
0
10
-12.10782644725159
20
-9.7973399068616231
30
0
10
-12.075752550546177
20
-9.7639847552030901
30
0
10
-12.043836761295665
20
-9.7303608547249727
30
0
10
-12.012078874719517
20
-9.69647140277951
30
0
10
-11.980478628515838
20
-9.6623196583840318
30
0
10
-11.949035776089474
20
-9.6279087948875031
30
0
10
-11.91775016639648
20
-9.5932417356144235
30
0
10
-11.886621772940691
20
-9.5583211026005639
30
0
10
-11.855650653540529
20
-9.523149317277479
30
0
10
-11.824836926153752
20
-9.4877286664677811
30
0
10
-11.794180738838339
20
-9.4520613779134788
30
0
10
-11.763682236941552
20
-9.4161497084275609
30
0
10
-11.733341545018936
20
-9.3799959759644835
30
0
10
-11.703158775250181
20
-9.3436024987664119
30
0
10
-11.673134028086727
20
-9.3069715562697919
30
0
10
-11.643267395738036
20
-9.2701053469507322
30
0
10
-11.613558961178295
20
-9.2330059395721857
30
0
10
-11.584008804701931
20
-9.1956752604298622
30
0
10
-11.554617025537262
20
-9.1581151589531942
30
0
10
-11.525383760404582
20
-9.120327460632593
30
0
10
-11.496309200105896
20
-9.0823140217521114
30
0
10
-11.467393610761665
20
-9.0440767966236546
30
0
10
-11.438637336748645
20
-9.0056178653762835
30
0
10
-11.410040743160778
20
-8.9669393204901908
30
0
10
-11.38160416628947
20
-8.9280431770296289
30
0
10
-11.353327861788225
20
-8.8889312769930289
30
0
10
-11.325211947825533
20
-8.8496051931114827
30
0
10
-11.297256362822221
20
-8.8100661472352559
30
0
10
-11.269460942482734
20
-8.7703150440290667
30
0
10
-11.247352575559963
20
-8.7383450038742883
30
0
10
-11.230843204908902
20
-8.7142724775084588
30
0
10
-11.21986890475319
20
-8.6981819200548518
30
0
10
-11.214389741412418
20
-8.6901260896928676
30
0
0
ARC
5
212
100
AcDbEntity
8
0
100
AcDbCircle
10
-27
20
-15
30
0
40
12.549199999999999
210
0
220
-0
230
1
100
AcDbArc
50
57.053404185562819
51
62.946595814437181
0
ARC
5
213
100
AcDbEntity
8
0
100
AcDbCircle
10
-14.392298197357327
20
-11.634368425445134
30
0
40
0.50000000000000033
210
0
220
0
230
1
100
AcDbArc
50
107.18966993957065
51
194.9465958144373
0
ARC
5
214
100
AcDbEntity
8
0
100
AcDbCircle
10
-27
20
-15
30
0
40
17.000000000000007
210
0
220
-0
230
1
100
AcDbArc
50
45.787733919076835
51
50.212266080923094
0
LINE
5
215
100
AcDbEntity
8
0
100
AcDbLine
10
-18.885812744789334
20
-3.4743778893171329
30
0
11
-19.494475636496791
21
-4.337542888849848
31
0
0
SPLINE
5
216
100
AcDbEntity
8
0
100
AcDbSpline
70
0
71
5
72
81
73
75
74
0
42
0.000000001
43
0.0000000001
44
0.0000000001
40
-1
40
-1
40
-1
40
-1
40
-1
40
-1
40
-0.98571428571428399
40
-0.97142857142856975
40
-0.95714285714285563
40
-0.94285714285714117
40
-0.92857142857142716
40
-0.91428571428571281
40
-0.89999999999999869
40
-0.88571428571428445
40
-0.87142857142857022
40
-0.85714285714285599
40
-0.84285714285714175
40
-0.82857142857142752
40
-0.81428571428571328
40
-0.79999999999999905
40
-0.78571428571428481
40
-0.77142857142857058
40
-0.75714285714285634
40
-0.74285714285714211
40
-0.72857142857142776
40
-0.71428571428571364
40
-0.6999999999999994
40
-0.68571428571428517
40
-0.67142857142857093
40
-0.6571428571428567
40
-0.64285714285714246
40
-0.62857142857142823
40
-0.61428571428571399
40
-0.59999999999999976
40
-0.58571428571428552
40
-0.57142857142857129
40
-0.55714285714285705
40
-0.54285714285714282
40
-0.52857142857142858
40
-0.51428571428571435
40
-0.50000000000000011
40
-0.48571428571428582
40
-0.47142857142857147
40
-0.4571428571428573
40
-0.44285714285714295
40
-0.42857142857142871
40
-0.41428571428571442
40
-0.40000000000000008
40
-0.38571428571428573
40
-0.3714285714285715
40
-0.35714285714285721
40
-0.34285714285714292
40
-0.32857142857142863
40
-0.31428571428571433
40
-0.30000000000000004
40
-0.2857142857142857
40
-0.27142857142857146
40
-0.25714285714285717
40
-0.24285714285714291
40
-0.22857142857142865
40
-0.21428571428571436
40
-0.20000000000000004
40
-0.18571428571428572
40
-0.17142857142857146
40
-0.15714285714285714
40
-0.14285714285714288
40
-0.12857142857142859
40
-0.1142857142857143
40
-0.10000000000000001
40
-0.085714285714285715
40
-0.071428571428571438
40
-0.057142857142857134
40
-0.042857142857142858
40
-0.028571428571428567
40
-0.014285714285714284
40
-0
40
-0
40
-0
40
-0
40
-0
40
-0
10
-16.120931464118549
20
-1.9368507705226623
30
0
10
-16.130286168665737
20
-1.9395723760360872
30
0
10
-16.148980443432297
20
-1.9450373000088295
30
0
10
-16.176976452593827
20
-1.9532998248018729
30
0
10
-16.214213628706258
20
-1.9644468455097441
30
0
10
-16.260608431691121
20
-1.9785980947109127
30
0
10
-16.30685104977351
20
-1.9929671988780284
30
0
10
-16.352940673336281
20
-2.0075545938222294
30
0
10
-16.39887615935978
20
-2.0223607156812839
30
0
10
-16.444655975571784
20
-2.0373859380709058
30
0
10
-16.490278291126401
20
-2.0526305870589923
30
0
10
-16.535741085663886
20
-2.0680949655025116
30
0
10
-16.581042256297085
20
-2.0837793727884257
30
0
10
-16.626179718287428
20
-2.0996841241901976
30
0
10
-16.671151530738094
20
-2.1158095705278335
30
0
10
-16.715955869256991
20
-2.1321561039611669
30
0
10
-16.760590955450656
20
-2.1487241585690242
30
0
10
-16.805054999743941
20
-2.1655142114847781
30
0
10
-16.849346145308431
20
-2.1825267816020233
30
0
10
-16.893462398993194
20
-2.1997624292905105
30
0
10
-16.937401641428906
20
-2.2172217462203192
30
0
10
-16.981161673701493
20
-2.2349053412410536
30
0
10
-17.024740256366194
20
-2.2528138240397055
30
0
10
-17.068135146427551
20
-2.2709477924442334
30
0
10
-17.111344152614084
20
-2.2893078056147642
30
0
10
-17.154365110464802
20
-2.3078944111499045
30
0
10
-17.197195808631214
20
-2.3267082035322129
30
0
10
-17.239833926328181
20
-2.3457498760366224
30
0
10
-17.282276978039267
20
-2.3650202641160711
30
0
10
-17.324522230192802
20
-2.3845204147788635
30
0
10
-17.366566740956671
20
-2.4042515431696621
30
0
10
-17.408407491876943
20
-2.4242149058441598
30
0
10
-17.450041505371601
20
-2.4444116855963816
30
0
10
-17.491465945153148
20
-2.4648428938629574
30
0
10
-17.532678285495695
20
-2.485509204560179
30
0
10
-17.573676211613183
20
-2.5064110534289052
30
0
10
-17.614457292218543
20
-2.5275489618529456
30
0
10
-17.655018692060224
20
-2.5489238215192067
30
0
10
-17.695356923864839
20
-2.5705371390216847
30
0
10
-17.735467450400847
20
-2.5923914307377327
30
0
10
-17.775344882585973
20
-2.6144900201335264
30
0
10
-17.814983704639602
20
-2.6368363067903799
30
0
10
-17.854378914946054
20
-2.6594331197533583
30
0
10
-17.893526572520745
20
-2.6822821654699935
30
0
10
-17.93242470829864
20
-2.7053831098164238
30
0
10
-17.971072792108743
20
-2.7287341081991112
30
0
10
-18.009469971586647
20
-2.7523335666245741
30
0
10
-18.047613514454444
20
-2.7761816992832467
30
0
10
-18.085497475148674
20
-2.8002818600259283
30
0
10
-18.123110505469306
20
-2.8246427347382563
30
0
10
-18.160437200907232
20
-2.8492769779935934
30
0
10
-18.197462093654014
20
-2.8741971874848149
30
0
10
-18.234173219198073
20
-2.8994123083360623
30
0
10
-18.270565132288748
20
-2.9249245885740383
30
0
10
-18.306643984833965
20
-2.9507244672808119
30
0
10
-18.342423505839406
20
-2.9767945854782751
30
0
10
-18.377915477346516
20
-3.003119315014795
30
0
10
-18.413121131494652
20
-3.0296933658524794
30
0
10
-18.448023781644952
20
-3.0565291509436854
30
0
10
-18.482576821717362
20
-3.0836688079589436
30
0
10
-18.516714892090263
20
-3.1111729254551346
30
0
10
-18.550375241925092
20
-3.1390989985799123
30
0
10
-18.583517380793179
20
-3.1674816394095084
30
0
10
-18.616140073522367
20
-3.1963153790915499
30
0
10
-18.64830823580786
20
-3.2255277147602923
30
0
10
-18.680117567777831
20
-3.2550135837150473
30
0
10
-18.711641443180731
20
-3.284687376496751
30
0
10
-18.742881800334604
20
-3.3145309350257746
30
0
10
-18.773722652646434
20
-3.3446391105196449
30
0
10
-18.803870763329471
20
-3.3752776028212672
30
0
10
-18.832932652488459
20
-3.4068100415905689
30
0
10
-18.854995188789996
20
-3.4330473116488158
30
0
10
-18.870733932267729
20
-3.4534255505675282
30
0
10
-18.880849325162821
20
-3.4673390996061593
30
0
10
-18.885812744789334
20
-3.4743778893171262
30
0
0
LINE
5
217
100
AcDbEntity
8
0
100
AcDbLine
10
-14.899428243881445
20
-7.7711575597533633
30
0
11
-15.806550298166858
21
-8.3121325229346592
31
0
0
LINE
5
218
100
AcDbEntity
8
0
100
AcDbLine
10
-26.804861718634243
20
-1.9622544636964778
30
0
11
-26.789924684850597
21
-0.90617623876153353
31
0
0
ARC
5
219
100
AcDbEntity
8
0
100
AcDbCircle
10
-27
20
-15
30
0
40
17.000000000000004
210
0
220
0
230
1
100
AcDbArc
50
93.787733919076828
51
98.212266080923158
0
ARC
5
220
100
AcDbEntity
8
0
100
AcDbCircle
10
-27
20
-15
30
0
40
17.000000000000004
210
0
220
0
230
1
100
AcDbArc
50
165.78773391907683
51
170.21226608092314
0
ENDSEC
0
SECTION
2
OBJECTS
0
DICTIONARY
5
C
100
AcDbDictionary
3
ACAD_GROUP
350
D
3
ACAD_MLINESTYLE
350
17
0
DICTIONARY
5
D
100
AcDbDictionary
0
DICTIONARY
5
1A
330
C
100
AcDbDictionary
0
DICTIONARY
5
17
100
AcDbDictionary
0
ENDSEC
0
EOF
