0
SECTION
2
HEADER
9
$INSUNITS
70
4
9
$ACADVER
1
AC1014
9
$HANDSEED
5
FFFF
0
ENDSEC
0
SECTION
2
TABLES
0
TABLE
2
VPORT
5
8
100
AcDbSymbolTable
0
ENDTAB
0
TABLE
2
LTYPE
5
5
100
AcDbSymbolTable
0
LTYPE
5
14
100
AcDbSymbolTableRecord
100
AcDbLinetypeTableRecord
2
BYBLOCK
70
0
0
LTYPE
5
15
100
AcDbSymbolTableRecord
100
AcDbLinetypeTableRecord
2
BYLAYER
70
0
0
ENDTAB
0
TABLE
2
LAYER
5
2
100
AcDbSymbolTable
70
2
0
LAYER
5
50
100
AcDbSymbolTableRecord
100
AcDbLayerTableRecord
2
0
70
0
6
CONTINUOUS
0
ENDTAB
0
TABLE
2
STYLE
5
3
100
AcDbSymbolTable
70
1
0
STYLE
5
11
100
AcDbSymbolTableRecord
100
AcDbTextStyleTableRecord
2
STANDARD
70
0
0
ENDTAB
0
TABLE
2
VIEW
5
6
100
AcDbSymbolTable
70
0
0
ENDTAB
0
TABLE
2
UCS
5
7
100
AcDbSymbolTable
70
0
0
ENDTAB
0
TABLE
2
APPID
5
9
100
AcDbSymbolTable
70
2
0
APPID
5
12
100
AcDbSymbolTableRecord
100
AcDbRegAppTableRecord
2
ACAD
70
0
0
ENDTAB
0
TABLE
2
DIMSTYLE
5
A
100
AcDbSymbolTable
70
1
0
ENDTAB
0
TABLE
2
BLOCK_RECORD
5
1
100
AcDbSymbolTable
70
1
0
BLOCK_RECORD
5
1F
100
AcDbSymbolTableRecord
100
AcDbBlockTableRecord
2
*MODEL_SPACE
0
BLOCK_RECORD
5
1B
100
AcDbSymbolTableRecord
100
AcDbBlockTableRecord
2
*PAPER_SPACE
0
ENDTAB
0
ENDSEC
0
SECTION
2
BLOCKS
0
BLOCK
5
20
100
AcDbEntity
100
AcDbBlockBegin
2
*MODEL_SPACE
0
ENDBLK
5
21
100
AcDbEntity
100
AcDbBlockEnd
0
BLOCK
5
1C
100
AcDbEntity
100
AcDbBlockBegin
2
*PAPER_SPACE
0
ENDBLK
5
1D
100
AcDbEntity
100
AcDbBlockEnd
0
ENDSEC
0
SECTION
2
ENTITIES
0
ARC
5
100
100
AcDbEntity
8
0
100
AcDbCircle
10
-25.58355617909541
20
-70.983453728982013
30
-6.352673089795573
40
0.50000000000000111
210
-0
220
0
230
1
100
AcDbArc
50
-12.044566874801545
51
73.140144317505118
0
LINE
5
101
100
AcDbEntity
8
0
100
AcDbLine
10
-25.094563387553173
20
-71.087789963434531
30
-6.352673089795573
11
-25.405420178636781
21
-72.544682967475609
31
-6.352673089795573
0
ARC
5
102
100
AcDbEntity
8
0
100
AcDbCircle
10
-23.829096235760421
20
-65.19426631214769
30
-6.352673089795573
40
5.5492000000000052
210
0
220
0
230
1
100
AcDbArc
50
241.85985568249407
51
253.14014431750581
0
ARC
5
103
100
AcDbEntity
8
0
100
AcDbCircle
10
-23.829096235760421
20
-65.19426631214769
30
-6.352673089795573
40
10.000000000000002
210
0
220
0
230
1
100
AcDbArc
50
266.89882108566849
51
273.10117891433134
0
LINE
5
104
100
AcDbEntity
8
0
100
AcDbLine
10
-22.25277229288406
20
-72.544682967475609
30
-6.352673089795573
11
-22.563629083967669
21
-71.087789963434531
31
-6.352673089795573
0
ARC
5
105
100
AcDbEntity
8
0
100
AcDbCircle
10
-23.829096235760421
20
-65.19426631214769
30
-6.352673089795573
40
9.9999999999999964
210
-0
220
0
230
1
100
AcDbArc
50
311.89882108566854
51
318.1011789143314
0
SPLINE
5
106
100
AcDbEntity
8
0
100
AcDbSpline
70
0
71
5
72
81
73
75
74
0
42
0.000000001
43
0.0000000001
44
0.0000000001
40
-1
40
-1
40
-1
40
-1
40
-1
40
-1
40
-0.98571428571428399
40
-0.97142857142856975
40
-0.95714285714285563
40
-0.94285714285714117
40
-0.92857142857142716
40
-0.91428571428571281
40
-0.89999999999999869
40
-0.88571428571428445
40
-0.87142857142857022
40
-0.85714285714285599
40
-0.84285714285714175
40
-0.82857142857142752
40
-0.81428571428571328
40
-0.79999999999999905
40
-0.78571428571428481
40
-0.77142857142857058
40
-0.75714285714285634
40
-0.74285714285714211
40
-0.72857142857142776
40
-0.71428571428571364
40
-0.6999999999999994
40
-0.68571428571428517
40
-0.67142857142857093
40
-0.6571428571428567
40
-0.64285714285714246
40
-0.62857142857142823
40
-0.61428571428571399
40
-0.59999999999999976
40
-0.58571428571428552
40
-0.57142857142857129
40
-0.55714285714285705
40
-0.54285714285714282
40
-0.52857142857142858
40
-0.51428571428571435
40
-0.50000000000000011
40
-0.48571428571428582
40
-0.47142857142857147
40
-0.4571428571428573
40
-0.44285714285714295
40
-0.42857142857142871
40
-0.41428571428571442
40
-0.40000000000000008
40
-0.38571428571428573
40
-0.3714285714285715
40
-0.35714285714285721
40
-0.34285714285714292
40
-0.32857142857142863
40
-0.31428571428571433
40
-0.30000000000000004
40
-0.2857142857142857
40
-0.27142857142857146
40
-0.25714285714285717
40
-0.24285714285714291
40
-0.22857142857142865
40
-0.21428571428571436
40
-0.20000000000000004
40
-0.18571428571428572
40
-0.17142857142857146
40
-0.15714285714285714
40
-0.14285714285714288
40
-0.12857142857142859
40
-0.1142857142857143
40
-0.10000000000000001
40
-0.085714285714285715
40
-0.071428571428571438
40
-0.057142857142857134
40
-0.042857142857142858
40
-0.028571428571428567
40
-0.014285714285714284
40
-0
40
-0
40
-0
40
-0
40
-0
40
-0
10
-23.288102647754112
20
-75.179621886073733
30
-6.352673089795573
10
-23.282495668801253
20
-75.172484958606915
30
-6.352673089795573
10
-23.271313371213882
20
-75.158200995884698
30
-6.352673089795573
10
-23.254634905789917
20
-75.136744728451418
30
-6.352673089795573
10
-23.232586976899476
20
-75.108075704888364
30
-6.352673089795573
10
-23.205344245033224
20
-75.072138299848319
30
-6.352673089795573
10
-23.178419472034637
20
-75.036099927003676
30
-6.352673089795573
10
-23.151813742007008
20
-74.999961058651579
30
-6.352673089795573
10
-23.125528434456022
20
-74.963722609296468
30
-6.352673089795573
10
-23.099565222711593
20
-74.927386104850996
30
-6.352673089795573
10
-23.073926007144607
20
-74.890953556437822
30
-6.352673089795573
10
-23.048612835324739
20
-74.85442727554171
30
-6.352673089795573
10
-23.02362782104824
20
-74.817809704208258
30
-6.352673089795573
10
-22.998973069649953
20
-74.78110325407161
30
-6.352673089795573
10
-22.974650577811914
20
-74.744310106518185
30
-6.352673089795573
10
-22.950662245869307
20
-74.707432212948319
30
-6.352673089795573
10
-22.927009944817698
20
-74.670471395777525
30
-6.352673089795573
10
-22.903695566229807
20
-74.633429421206614
30
-6.352673089795573
10
-22.880721071469601
20
-74.596308077500737
30
-6.352673089795573
10
-22.858088551904974
20
-74.559109268067687
30
-6.352673089795573
10
-22.83580022859941
20
-74.521835031074843
30
-6.352673089795573
10
-22.813858398671574
20
-74.484487491457799
30
-6.352673089795573
10
-22.792265390915254
20
-74.447068831491379
30
-6.352673089795573
10
-22.771023522924551
20
-74.409581256839033
30
-6.352673089795573
10
-22.750135036130867
20
-74.372026959150247
30
-6.352673089795573
10
-22.729602105647551
20
-74.334408102321134
30
-6.352673089795573
10
-22.709426950238072
20
-74.296726843108942
30
-6.352673089795573
10
-22.689611920948877
20
-74.258985343977187
30
-6.352673089795573
10
-22.670159583567163
20
-74.221185788665593
30
-6.352673089795573
10
-22.651072830942045
20
-74.183330399212537
30
-6.352673089795573
10
-22.632354880645444
20
-74.145421445569639
30
-6.352673089795573
10
-22.614009065135487
20
-74.107461239552805
30
-6.352673089795573
10
-22.596038652750039
20
-74.069452132652856
30
-6.352673089795573
10
-22.57844668039133
20
-74.031396512771167
30
-6.352673089795573
10
-22.561235714366212
20
-73.993296801738779
30
-6.352673089795573
10
-22.544407845668395
20
-73.955155453238859
30
-6.352673089795573
10
-22.527965214596264
20
-73.916974952267196
30
-6.352673089795573
10
-22.511910454574533
20
-73.878757814283986
30
-6.352673089795573
10
-22.496247107566205
20
-73.840506585405478
30
-6.352673089795573
10
-22.480980188334261
20
-73.802223841089599
30
-6.352673089795573
10
-22.466116240418614
20
-73.763912190192883
30
-6.352673089795573
10
-22.451662164475515
20
-73.725574291342824
30
-6.352673089795573
10
-22.437624212365115
20
-73.687212867960341
30
-6.352673089795573
10
-22.424007057781672
20
-73.648830722459579
30
-6.352673089795573
10
-22.41081248260852
20
-73.610430754980285
30
-6.352673089795573
10
-22.398039341315041
20
-73.572015967909465
30
-6.352673089795573
10
-22.385686411730859
20
-73.533589438488292
30
-6.352673089795573
10
-22.373754849285554
20
-73.495154295596109
30
-6.352673089795573
10
-22.362250416872158
20
-73.456713700022064
30
-6.352673089795573
10
-22.351186723651779
20
-73.41827081148864
30
-6.352673089795573
10
-22.340584999839443
20
-73.379828801122997
30
-6.352673089795573
10
-22.330467521919715
20
-73.341390947688609
30
-6.352673089795573
10
-22.320851924405282
20
-73.302960721328361
30
-6.352673089795573
10
-22.311746195259452
20
-73.264541860646773
30
-6.352673089795573
10
-22.303140843312484
20
-73.226138481529091
30
-6.352673089795573
10
-22.295011226447841
20
-73.187755071155209
30
-6.352673089795573
10
-22.287333385014769
20
-73.14939633049886
30
-6.352673089795573
10
-22.280097827062804
20
-73.111067037932855
30
-6.352673089795573
10
-22.27332143183185
20
-73.072771939142314
30
-6.352673089795573
10
-22.267066840083231
20
-73.034515540200374
30
-6.352673089795573
10
-22.261432077033536
20
-72.996302287802649
30
-6.352673089795573
10
-22.256514485999766
20
-72.958137108039978
30
-6.352673089795573
10
-22.25237882144431
20
-72.920025847942625
30
-6.352673089795573
10
-22.24903013047517
20
-72.881975752954446
30
-6.352673089795573
10
-22.246368160292906
20
-72.843995942620779
30
-6.352673089795573
10
-22.244231146336233
20
-72.806097812690354
30
-6.352673089795573
10
-22.242484317415432
20
-72.768295348566994
30
-6.352673089795573
10
-22.241098651828104
20
-72.730605541926892
30
-6.352673089795573
10
-22.240224415913392
20
-72.693048606292251
30
-6.352673089795573
10
-22.240291537008261
20
-72.655648702653224
30
-6.352673089795573
10
-22.2418998335373
20
-72.618431021063245
30
-6.352673089795573
10
-22.244909630124347
20
-72.588820648687886
30
-6.352673089795573
10
-22.248354617445063
20
-72.566712348767766
30
-6.352673089795573
10
-22.251207095925018
20
-72.552018578486809
30
-6.352673089795573
10
-22.25277229288406
20
-72.544682967475609
30
-6.352673089795573
0
ARC
5
107
100
AcDbEntity
8
0
100
AcDbCircle
10
-22.074636292425431
20
-70.983453728982013
30
-6.352673089795573
40
0.49999999999999856
210
0
220
0
230
1
100
AcDbArc
50
106.85985568249491
51
192.04456687480155
0
SPLINE
5
108
100
AcDbEntity
8
0
100
AcDbSpline
70
0
71
5
72
81
73
75
74
0
42
0.000000001
43
0.0000000001
44
0.0000000001
40
0
40
0
40
0
40
0
40
0
40
0
40
0.014285714285714284
40
0.028571428571428567
40
0.042857142857142858
40
0.057142857142857134
40
0.071428571428571438
40
0.085714285714285715
40
0.10000000000000001
40
0.1142857142857143
40
0.12857142857142859
40
0.14285714285714288
40
0.15714285714285714
40
0.17142857142857146
40
0.18571428571428572
40
0.20000000000000004
40
0.21428571428571436
40
0.22857142857142865
40
0.24285714285714291
40
0.25714285714285717
40
0.27142857142857146
40
0.2857142857142857
40
0.30000000000000004
40
0.31428571428571433
40
0.32857142857142863
40
0.34285714285714292
40
0.35714285714285721
40
0.3714285714285715
40
0.38571428571428573
40
0.40000000000000008
40
0.41428571428571442
40
0.42857142857142871
40
0.44285714285714295
40
0.4571428571428573
40
0.47142857142857147
40
0.48571428571428582
40
0.50000000000000011
40
0.51428571428571435
40
0.52857142857142858
40
0.54285714285714282
40
0.55714285714285705
40
0.57142857142857129
40
0.58571428571428552
40
0.59999999999999976
40
0.61428571428571399
40
0.62857142857142823
40
0.64285714285714246
40
0.6571428571428567
40
0.67142857142857093
40
0.68571428571428517
40
0.6999999999999994
40
0.71428571428571364
40
0.72857142857142776
40
0.74285714285714211
40
0.75714285714285634
40
0.77142857142857058
40
0.78571428571428481
40
0.79999999999999905
40
0.81428571428571328
40
0.82857142857142752
40
0.84285714285714175
40
0.85714285714285599
40
0.87142857142857022
40
0.88571428571428445
40
0.89999999999999869
40
0.91428571428571281
40
0.92857142857142716
40
0.94285714285714117
40
0.95714285714285563
40
0.97142857142856975
40
0.98571428571428399
40
1
40
1
40
1
40
1
40
1
40
1
10
-19.746196123586095
20
-71.506425123031192
30
-6.352673089795573
10
-19.742115824679559
20
-71.512718944705
30
-6.352673089795573
10
-19.733742766949057
20
-71.525126016188224
30
-6.352673089795573
10
-19.720545812050617
20
-71.54319491887783
30
-6.352673089795573
10
-19.701736364527243
20
-71.566260861554582
30
-6.352673089795573
10
-19.676556726876768
20
-71.593714973968758
30
-6.352673089795573
10
-19.650158463179224
20
-71.620208161228973
30
-6.352673089795573
10
-19.622983521167747
20
-71.64614674695315
30
-6.352673089795573
10
-19.595352989777659
20
-71.671817651276726
30
-6.352673089795573
10
-19.567387416474986
20
-71.697312835428448
30
-6.352673089795573
10
-19.539078294746652
20
-71.722599763036285
30
-6.352673089795573
10
-19.510340216144336
20
-71.747573247304217
30
-6.352673089795573
10
-19.481066853861027
20
-71.772110845402764
30
-6.352673089795573
10
-19.451193766954749
20
-71.796135219405272
30
-6.352673089795573
10
-19.420729647572283
20
-71.819644814853589
30
-6.352673089795573
10
-19.389724418507832
20
-71.842681285592406
30
-6.352673089795573
10
-19.35825039515322
20
-71.865309980469021
30
-6.352673089795573
10
-19.326380036092409
20
-71.887597069490212
30
-6.352673089795573
10
-19.294160821307411
20
-71.909583660088217
30
-6.352673089795573
10
-19.261608041929314
20
-71.9312783319819
30
-6.352673089795573
10
-19.228718364955437
20
-71.952670994528901
30
-6.352673089795573
10
-19.195478172444645
20
-71.973741381607283
30
-6.352673089795573
10
-19.161873212704581
20
-71.994468895694027
30
-6.352673089795573
10
-19.127899684835079
20
-72.014843915148305
30
-6.352673089795573
10
-19.093565880771841
20
-72.034869444720456
30
-6.352673089795573
10
-19.058886723759887
20
-72.05455550013248
30
-6.352673089795573
10
-19.023880284088399
20
-72.07391551480174
30
-6.352673089795573
10
-18.988563816111927
20
-72.092962258431811
30
-6.352673089795573
10
-18.952949177221761
20
-72.111703119891502
30
-6.352673089795573
10
-18.917042677414084
20
-72.130139939146218
30
-6.352673089795573
10
-18.880847346152816
20
-72.148271320756123
30
-6.352673089795573
10
-18.844364495171043
20
-72.166094224578273
30
-6.352673089795573
10
-18.807595437464542
20
-72.183605717591931
30
-6.352673089795573
10
-18.770543483723579
20
-72.200805009070422
30
-6.352673089795573
10
-18.733213920355123
20
-72.217693422208598
30
-6.352673089795573
10
-18.695613093841246
20
-72.234273451989736
30
-6.352673089795573
10
-18.6577477636163
20
-72.250548097981223
30
-6.352673089795573
10
-18.619624401401946
20
-72.266520142424255
30
-6.352673089795573
10
-18.581248374294784
20
-72.282191310168031
30
-6.352673089795573
10
-18.54262398721697
20
-72.297562305382542
30
-6.352673089795573
10
-18.503754880979926
20
-72.312633211481312
30
-6.352673089795573
10
-18.464644326160542
20
-72.327403784726414
30
-6.352673089795573
10
-18.425295536330658
20
-72.341873768657734
30
-6.352673089795573
10
-18.385712038636388
20
-72.356043265435062
30
-6.352673089795573
10
-18.345897668993164
20
-72.369912733971304
30
-6.352673089795573
10
-18.305856401219948
20
-72.383482822575218
30
-6.352673089795573
10
-18.265592226421184
20
-72.396754252949904
30
-6.352673089795573
10
-18.225109024861972
20
-72.409727695164037
30
-6.352673089795573
10
-18.184410413313969
20
-72.422403623552441
30
-6.352673089795573
10
-18.143499750199844
20
-72.434782308263493
30
-6.352673089795573
10
-18.102380227053114
20
-72.446863882645459
30
-6.352673089795573
10
-18.061054937834136
20
-72.458648390543345
30
-6.352673089795573
10
-18.019526950685911
20
-72.470135839888997
30
-6.352673089795573
10
-17.977799400270051
20
-72.481326265883439
30
-6.352673089795573
10
-17.935875485012573
20
-72.492219747673673
30
-6.352673089795573
10
-17.893758394720749
20
-72.502816388864218
30
-6.352673089795573
10
-17.851451256259089
20
-72.513116311206915
30
-6.352673089795573
10
-17.808957081358617
20
-72.52311964402881
30
-6.352673089795573
10
-17.766278694752344
20
-72.532826520237819
30
-6.352673089795573
10
-17.723418747828422
20
-72.542237062233212
30
-6.352673089795573
10
-17.680379827023323
20
-72.551351358666366
30
-6.352673089795573
10
-17.637164543973061
20
-72.560169443888583
30
-6.352673089795573
10
-17.593775622265966
20
-72.56869128179126
30
-6.352673089795573
10
-17.550216016242544
20
-72.57691674176877
30
-6.352673089795573
10
-17.506488919882209
20
-72.584845607234769
30
-6.352673089795573
10
-17.462597554651623
20
-72.592477646081917
30
-6.352673089795573
10
-17.418545002867756
20
-72.599812671694053
30
-6.352673089795573
10
-17.374334030374186
20
-72.606850605757884
30
-6.352673089795573
10
-17.329966899377062
20
-72.6135915525131
30
-6.352673089795573
10
-17.285445231986483
20
-72.62003584076524
30
-6.352673089795573
10
-17.24077012874373
20
-72.626183903126645
30
-6.352673089795573
10
-17.204907827742755
20
-72.630865724068514
30
-6.352673089795573
10
-17.177942499540659
20
-72.634244140268493
30
-6.352673089795573
10
-17.159935134184288
20
-72.636437348718289
30
-6.352673089795573
10
-17.150923831536122
20
-72.63751918568741
30
-6.352673089795573
0
ARC
5
109
100
AcDbEntity
8
0
100
AcDbCircle
10
-20.976113079009366
20
-70.528430515403414
30
-6.352673089795573
40
0.50000000000000677
210
0
220
-0
230
1
100
AcDbArc
50
32.955433125202006
51
118.14014431750596
0
ARC
5
110
100
AcDbEntity
8
0
100
AcDbCircle
10
-23.829096235760421
20
-65.19426631214769
30
-6.352673089795573
40
5.5492000000000017
210
-0
220
0
230
1
100
AcDbArc
50
331.8598556824943
51
343.1401443175061
0
ARC
5
111
100
AcDbEntity
8
0
100
AcDbCircle
10
-18.494932032504696
20
-62.341283155396631
30
-6.352673089795573
40
0.50000000000000189
210
0
220
0
230
1
100
AcDbArc
50
122.95543312520032
51
208.14014431750559
0
LINE
5
112
100
AcDbEntity
8
0
100
AcDbLine
10
-18.766925292450722
20
-61.921736177640938
30
-6.352673089795573
11
-17.516937424876918
21
-61.111366199973361
31
-6.352673089795573
0
ARC
5
113
100
AcDbEntity
8
0
100
AcDbCircle
10
-23.829096235760421
20
-65.19426631214769
30
-6.352673089795573
40
5.5491999999999999
210
0
220
-0
230
1
100
AcDbArc
50
16.859855682494182
51
28.140144317505872
0
SPLINE
5
114
100
AcDbEntity
8
0
100
AcDbSpline
70
0
71
5
72
81
73
75
74
0
42
0.000000001
43
0.0000000001
44
0.0000000001
40
-1
40
-1
40
-1
40
-1
40
-1
40
-1
40
-0.98571428571428399
40
-0.97142857142856975
40
-0.95714285714285563
40
-0.94285714285714117
40
-0.92857142857142716
40
-0.91428571428571281
40
-0.89999999999999869
40
-0.88571428571428445
40
-0.87142857142857022
40
-0.85714285714285599
40
-0.84285714285714175
40
-0.82857142857142752
40
-0.81428571428571328
40
-0.79999999999999905
40
-0.78571428571428481
40
-0.77142857142857058
40
-0.75714285714285634
40
-0.74285714285714211
40
-0.72857142857142776
40
-0.71428571428571364
40
-0.6999999999999994
40
-0.68571428571428517
40
-0.67142857142857093
40
-0.6571428571428567
40
-0.64285714285714246
40
-0.62857142857142823
40
-0.61428571428571399
40
-0.59999999999999976
40
-0.58571428571428552
40
-0.57142857142857129
40
-0.55714285714285705
40
-0.54285714285714282
40
-0.52857142857142858
40
-0.51428571428571435
40
-0.50000000000000011
40
-0.48571428571428582
40
-0.47142857142857147
40
-0.4571428571428573
40
-0.44285714285714295
40
-0.42857142857142871
40
-0.41428571428571442
40
-0.40000000000000008
40
-0.38571428571428573
40
-0.3714285714285715
40
-0.35714285714285721
40
-0.34285714285714292
40
-0.32857142857142863
40
-0.31428571428571433
40
-0.30000000000000004
40
-0.2857142857142857
40
-0.27142857142857146
40
-0.25714285714285717
40
-0.24285714285714291
40
-0.22857142857142865
40
-0.21428571428571436
40
-0.20000000000000004
40
-0.18571428571428572
40
-0.17142857142857146
40
-0.15714285714285714
40
-0.14285714285714288
40
-0.12857142857142859
40
-0.1142857142857143
40
-0.10000000000000001
40
-0.085714285714285715
40
-0.071428571428571438
40
-0.057142857142857134
40
-0.042857142857142858
40
-0.028571428571428567
40
-0.014285714285714284
40
-0
40
-0
40
-0
40
-0
40
-0
40
-0
10
-16.385843362220719
20
-71.872438716371988
30
-6.352673089795573
10
-16.386925199189818
20
-71.863427413723826
30
-6.352673089795573
10
-16.389118407639621
20
-71.845420048367444
30
-6.352673089795573
10
-16.392496823839583
20
-71.818454720165349
30
-6.352673089795573
10
-16.397178644781455
20
-71.782592419164374
30
-6.352673089795573
10
-16.40332670714286
20
-71.737917315921621
30
-6.352673089795573
10
-16.409770995395021
20
-71.693395648531038
30
-6.352673089795573
10
-16.41651194215023
20
-71.649028517533935
30
-6.352673089795573
10
-16.423549876214057
20
-71.604817545040348
30
-6.352673089795573
10
-16.430884901826186
20
-71.560764993256498
30
-6.352673089795573
10
-16.438516940673338
20
-71.516873628025905
30
-6.352673089795573
10
-16.446445806139334
20
-71.473146531665577
30
-6.352673089795573
10
-16.454671266116847
20
-71.429586925642141
30
-6.352673089795573
10
-16.463193104019538
20
-71.38619800393505
30
-6.352673089795573
10
-16.472011189241744
20
-71.342982720884791
30
-6.352673089795573
10
-16.481125485674898
20
-71.299943800079689
30
-6.352673089795573
10
-16.490536027670299
20
-71.257083853155763
30
-6.352673089795573
10
-16.500242903879286
20
-71.214405466549493
30
-6.352673089795573
10
-16.510246236701196
20
-71.17191129164901
30
-6.352673089795573
10
-16.520546159043889
20
-71.129604153187358
30
-6.352673089795573
10
-16.531142800234434
20
-71.087487062895534
30
-6.352673089795573
10
-16.542036282024672
20
-71.045563147638049
30
-6.352673089795573
10
-16.553226708019125
20
-71.003835597222192
30
-6.352673089795573
10
-16.564714157364762
20
-70.962307610073978
30
-6.352673089795573
10
-16.576498665262651
20
-70.920982320854989
30
-6.352673089795573
10
-16.58858023964461
20
-70.879862797708256
30
-6.352673089795573
10
-16.600958924355673
20
-70.838952134594138
30
-6.352673089795573
10
-16.61363485274407
20
-70.798253523046128
30
-6.352673089795573
10
-16.62660829495821
20
-70.75777032148693
30
-6.352673089795573
10
-16.639879725332868
20
-70.717506146688152
30
-6.352673089795573
10
-16.65344981393681
20
-70.677464878914947
30
-6.352673089795573
10
-16.667319282473049
20
-70.637650509271722
30
-6.352673089795573
10
-16.681488779250383
20
-70.598067011577456
30
-6.352673089795573
10
-16.695958763181697
20
-70.558718221747569
30
-6.352673089795573
10
-16.710729336426809
20
-70.519607666928181
30
-6.352673089795573
10
-16.725800242525573
20
-70.480738560691123
30
-6.352673089795573
10
-16.741171237740076
20
-70.442114173613319
30
-6.352673089795573
10
-16.756842405483866
20
-70.403738146506157
30
-6.352673089795573
10
-16.772814449926891
20
-70.365614784291807
30
-6.352673089795573
10
-16.789089095918357
20
-70.327749454066861
30
-6.352673089795573
10
-16.805669125699517
20
-70.290148627552981
30
-6.352673089795573
10
-16.822557538837685
20
-70.252819064184536
30
-6.352673089795573
10
-16.839756830316173
20
-70.215767110443579
30
-6.352673089795573
10
-16.857268323329837
20
-70.178998052737072
30
-6.352673089795573
10
-16.875091227151977
20
-70.142515201755288
30
-6.352673089795573
10
-16.893222608761903
20
-70.106319870494019
30
-6.352673089795573
10
-16.911659428016598
20
-70.070413370686353
30
-6.352673089795573
10
-16.930400289476299
20
-70.034798731796172
30
-6.352673089795573
10
-16.949447033106352
20
-69.999482263819715
30
-6.352673089795573
10
-16.968807047775641
20
-69.964475824148224
30
-6.352673089795573
10
-16.988493103187654
20
-69.929796667136259
30
-6.352673089795573
10
-17.008518632759806
20
-69.895462863073021
30
-6.352673089795573
10
-17.028893652214077
20
-69.86148933520353
30
-6.352673089795573
10
-17.04962116630082
20
-69.827884375463469
30
-6.352673089795573
10
-17.070691553379209
20
-69.794644182952666
30
-6.352673089795573
10
-17.092084215926203
20
-69.761754505978786
30
-6.352673089795573
10
-17.113778887819898
20
-69.729201726600692
30
-6.352673089795573
10
-17.135765478417898
20
-69.69698251181569
30
-6.352673089795573
10
-17.158052567439086
20
-69.665112152754887
30
-6.352673089795573
10
-17.180681262315701
20
-69.633638129400282
30
-6.352673089795573
10
-17.203717733054514
20
-69.60263290033582
30
-6.352673089795573
10
-17.227227328502821
20
-69.572168780953362
30
-6.352673089795573
10
-17.251251702505343
20
-69.542295694047084
30
-6.352673089795573
10
-17.275789300603897
20
-69.513022331763779
30
-6.352673089795573
10
-17.300762784871814
20
-69.484284253161462
30
-6.352673089795573
10
-17.326049712479652
20
-69.455975131433121
30
-6.352673089795573
10
-17.351544896631385
20
-69.428009558130441
30
-6.352673089795573
10
-17.37721580095495
20
-69.400379026740353
30
-6.352673089795573
10
-17.403154386679141
20
-69.373204084728883
30
-6.352673089795573
10
-17.429647573939356
20
-69.346805821031339
30
-6.352673089795573
10
-17.457101686353525
20
-69.321626183380857
30
-6.352673089795573
10
-17.480167629030284
20
-69.302816735857505
30
-6.352673089795573
10
-17.498236531719886
20
-69.289619780959057
30
-6.352673089795573
10
-17.510643603203114
20
-69.281246723228548
30
-6.352673089795573
10
-17.516937424876918
20
-69.277166424322019
30
-6.352673089795573
0
ARC
5
115
100
AcDbEntity
8
0
100
AcDbCircle
10
-23.829096235760421
20
-65.19426631214769
30
-6.352673089795573
40
10.000000000000002
210
0
220
-0
230
1
100
AcDbArc
50
41.89882108566848
51
48.101178914331435
0
ARC
5
116
100
AcDbEntity
8
0
100
AcDbCircle
10
-23.829096235760421
20
-65.19426631214769
30
-6.352673089795573
40
10.000000000000002
210
0
220
-0
230
1
100
AcDbArc
50
86.898821085668516
51
93.1011789143313
0
LINE
5
117
100
AcDbEntity
8
0
100
AcDbLine
10
-22.563629083967669
20
-59.300742660860848
30
-6.352673089795573
11
-22.252772292884053
21
-57.843849656819764
31
-6.352673089795573
0
SPLINE
5
118
100
AcDbEntity
8
0
100
AcDbSpline
70
0
71
5
72
81
73
75
74
0
42
0.000000001
43
0.0000000001
44
0.0000000001
40
-1
40
-1
40
-1
40
-1
40
-1
40
-1
40
-0.98571428571428399
40
-0.97142857142856975
40
-0.95714285714285563
40
-0.94285714285714117
40
-0.92857142857142716
40
-0.91428571428571281
40
-0.89999999999999869
40
-0.88571428571428445
40
-0.87142857142857022
40
-0.85714285714285599
40
-0.84285714285714175
40
-0.82857142857142752
40
-0.81428571428571328
40
-0.79999999999999905
40
-0.78571428571428481
40
-0.77142857142857058
40
-0.75714285714285634
40
-0.74285714285714211
40
-0.72857142857142776
40
-0.71428571428571364
40
-0.6999999999999994
40
-0.68571428571428517
40
-0.67142857142857093
40
-0.6571428571428567
40
-0.64285714285714246
40
-0.62857142857142823
40
-0.61428571428571399
40
-0.59999999999999976
40
-0.58571428571428552
40
-0.57142857142857129
40
-0.55714285714285705
40
-0.54285714285714282
40
-0.52857142857142858
40
-0.51428571428571435
40
-0.50000000000000011
40
-0.48571428571428582
40
-0.47142857142857147
40
-0.4571428571428573
40
-0.44285714285714295
40
-0.42857142857142871
40
-0.41428571428571442
40
-0.40000000000000008
40
-0.38571428571428573
40
-0.3714285714285715
40
-0.35714285714285721
40
-0.34285714285714292
40
-0.32857142857142863
40
-0.31428571428571433
40
-0.30000000000000004
40
-0.2857142857142857
40
-0.27142857142857146
40
-0.25714285714285717
40
-0.24285714285714291
40
-0.22857142857142865
40
-0.21428571428571436
40
-0.20000000000000004
40
-0.18571428571428572
40
-0.17142857142857146
40
-0.15714285714285714
40
-0.14285714285714288
40
-0.12857142857142859
40
-0.1142857142857143
40
-0.10000000000000001
40
-0.085714285714285715
40
-0.071428571428571438
40
-0.057142857142857134
40
-0.042857142857142858
40
-0.028571428571428567
40
-0.014285714285714284
40
-0
40
-0
40
-0
40
-0
40
-0
40
-0
10
-17.150923831536119
20
-57.751013438607984
30
-6.352673089795573
10
-17.159935134184288
20
-57.752095275577076
30
-6.352673089795573
10
-17.177942499540659
20
-57.754288484026887
30
-6.352673089795573
10
-17.204907827742755
20
-57.757666900226852
30
-6.352673089795573
10
-17.24077012874373
20
-57.762348721168728
30
-6.352673089795573
10
-17.285445231986479
20
-57.768496783530125
30
-6.352673089795573
10
-17.329966899377062
20
-57.774941071782287
30
-6.352673089795573
10
-17.374334030374186
20
-57.781682018537495
30
-6.352673089795573
10
-17.418545002867756
20
-57.788719952601326
30
-6.352673089795573
10
-17.462597554651616
20
-57.796054978213448
30
-6.352673089795573
10
-17.506488919882209
20
-57.803687017060604
30
-6.352673089795573
10
-17.550216016242544
20
-57.811615882526596
30
-6.352673089795573
10
-17.593775622265962
20
-57.819841342504112
30
-6.352673089795573
10
-17.637164543973061
20
-57.828363180406804
30
-6.352673089795573
10
-17.680379827023323
20
-57.837181265629013
30
-6.352673089795573
10
-17.723418747828418
20
-57.846295562062167
30
-6.352673089795573
10
-17.766278694752344
20
-57.85570610405756
30
-6.352673089795573
10
-17.808957081358617
20
-57.865412980266555
30
-6.352673089795573
10
-17.851451256259089
20
-57.875416313088465
30
-6.352673089795573
10
-17.893758394720749
20
-57.885716235431147
30
-6.352673089795573
10
-17.935875485012573
20
-57.896312876621693
30
-6.352673089795573
10
-17.977799400270044
20
-57.907206358411933
30
-6.352673089795573
10
-18.019526950685911
20
-57.91839678440639
30
-6.352673089795573
10
-18.061054937834136
20
-57.929884233752027
30
-6.352673089795573
10
-18.102380227053111
20
-57.94166874164992
30
-6.352673089795573
10
-18.143499750199844
20
-57.953750316031872
30
-6.352673089795573
10
-18.184410413313969
20
-57.966129000742939
30
-6.352673089795573
10
-18.225109024861972
20
-57.978804929131336
30
-6.352673089795573
10
-18.265592226421184
20
-57.991778371345468
30
-6.352673089795573
10
-18.305856401219948
20
-58.005049801720133
30
-6.352673089795573
10
-18.345897668993164
20
-58.018619890324075
30
-6.352673089795573
10
-18.385712038636388
20
-58.032489358860317
30
-6.352673089795573
10
-18.425295536330658
20
-58.046658855637645
30
-6.352673089795573
10
-18.464644326160542
20
-58.061128839568958
30
-6.352673089795573
10
-18.503754880979926
20
-58.075899412814074
30
-6.352673089795573
10
-18.54262398721697
20
-58.090970318912838
30
-6.352673089795573
10
-18.581248374294784
20
-58.106341314127341
30
-6.352673089795573
10
-18.619624401401943
20
-58.122012481871138
30
-6.352673089795573
10
-18.6577477636163
20
-58.137984526314156
30
-6.352673089795573
10
-18.695613093841246
20
-58.154259172305622
30
-6.352673089795573
10
-18.733213920355123
20
-58.170839202086775
30
-6.352673089795573
10
-18.770543483723579
20
-58.187727615224951
30
-6.352673089795573
10
-18.807595437464538
20
-58.204926906703434
30
-6.352673089795573
10
-18.844364495171043
20
-58.222438399717106
30
-6.352673089795573
10
-18.880847346152816
20
-58.240261303539242
30
-6.352673089795573
10
-18.917042677414084
20
-58.258392685149175
30
-6.352673089795573
10
-18.952949177221754
20
-58.276829504403864
30
-6.352673089795573
10
-18.98856381611192
20
-58.295570365863568
30
-6.352673089795573
10
-19.023880284088399
20
-58.314617109493618
30
-6.352673089795573
10
-19.058886723759887
20
-58.333977124162914
30
-6.352673089795573
10
-19.093565880771841
20
-58.353663179574923
30
-6.352673089795573
10
-19.127899684835079
20
-58.373688709147075
30
-6.352673089795573
10
-19.161873212704581
20
-58.394063728601338
30
-6.352673089795573
10
-19.195478172444645
20
-58.414791242688082
30
-6.352673089795573
10
-19.228718364955437
20
-58.435861629766478
30
-6.352673089795573
10
-19.261608041929314
20
-58.457254292313472
30
-6.352673089795573
10
-19.294160821307411
20
-58.478948964207163
30
-6.352673089795573
10
-19.326380036092399
20
-58.50093555480516
30
-6.352673089795573
10
-19.358250395153213
20
-58.523222643826351
30
-6.352673089795573
10
-19.389724418507832
20
-58.54585133870296
30
-6.352673089795573
10
-19.420729647572283
20
-58.568887809441783
30
-6.352673089795573
10
-19.451193766954749
20
-58.592397404890086
30
-6.352673089795573
10
-19.481066853861027
20
-58.616421778892601
30
-6.352673089795573
10
-19.510340216144336
20
-58.640959376991162
30
-6.352673089795573
10
-19.539078294746641
20
-58.66593286125908
30
-6.352673089795573
10
-19.567387416474986
20
-58.691219788866917
30
-6.352673089795573
10
-19.595352989777659
20
-58.716714973018647
30
-6.352673089795573
10
-19.622983521167747
20
-58.742385877342215
30
-6.352673089795573
10
-19.650158463179224
20
-58.768324463066406
30
-6.352673089795573
10
-19.676556726876768
20
-58.794817650326621
30
-6.352673089795573
10
-19.701736364527243
20
-58.82227176274079
30
-6.352673089795573
10
-19.720545812050617
20
-58.845337705417549
30
-6.352673089795573
10
-19.733742766949057
20
-58.863406608107155
30
-6.352673089795573
10
-19.742115824679559
20
-58.875813679590379
30
-6.352673089795573
10
-19.746196123586095
20
-58.882107501264187
30
-6.352673089795573
0
LINE
5
119
100
AcDbEntity
8
0
100
AcDbLine
10
-27.101626370267162
20
-60.13209536883798
30
-6.352673089795573
11
-27.911996347934746
21
-58.88210750126418
31
-6.352673089795573
0
LINE
5
120
100
AcDbEntity
8
0
100
AcDbLine
10
-17.516937424876918
20
-69.277166424322019
30
-6.352673089795573
11
-18.766925292450722
21
-68.466796446654428
31
-6.352673089795573
0
ARC
5
121
100
AcDbEntity
8
0
100
AcDbCircle
10
-18.039908818926087
20
-66.948726255482683
30
-6.352673089795573
40
0.49999999999999734
210
0
220
-0
230
1
100
AcDbArc
50
77.955433125200216
51
163.1401443175028
0
SPLINE
5
122
100
AcDbEntity
8
0
100
AcDbSpline
70
0
71
5
72
81
73
75
74
0
42
0.000000001
43
0.0000000001
44
0.0000000001
40
0
40
0
40
0
40
0
40
0
40
0
40
0.014285714285714284
40
0.028571428571428567
40
0.042857142857142858
40
0.057142857142857134
40
0.071428571428571438
40
0.085714285714285715
40
0.10000000000000001
40
0.1142857142857143
40
0.12857142857142859
40
0.14285714285714288
40
0.15714285714285714
40
0.17142857142857146
40
0.18571428571428572
40
0.20000000000000004
40
0.21428571428571436
40
0.22857142857142865
40
0.24285714285714291
40
0.25714285714285717
40
0.27142857142857146
40
0.2857142857142857
40
0.30000000000000004
40
0.31428571428571433
40
0.32857142857142863
40
0.34285714285714292
40
0.35714285714285721
40
0.3714285714285715
40
0.38571428571428573
40
0.40000000000000008
40
0.41428571428571442
40
0.42857142857142871
40
0.44285714285714295
40
0.4571428571428573
40
0.47142857142857147
40
0.48571428571428582
40
0.50000000000000011
40
0.51428571428571435
40
0.52857142857142858
40
0.54285714285714282
40
0.55714285714285705
40
0.57142857142857129
40
0.58571428571428552
40
0.59999999999999976
40
0.61428571428571399
40
0.62857142857142823
40
0.64285714285714246
40
0.6571428571428567
40
0.67142857142857093
40
0.68571428571428517
40
0.6999999999999994
40
0.71428571428571364
40
0.72857142857142776
40
0.74285714285714211
40
0.75714285714285634
40
0.77142857142857058
40
0.78571428571428481
40
0.79999999999999905
40
0.81428571428571328
40
0.82857142857142752
40
0.84285714285714175
40
0.85714285714285599
40
0.87142857142857022
40
0.88571428571428445
40
0.89999999999999869
40
0.91428571428571281
40
0.92857142857142716
40
0.94285714285714117
40
0.95714285714285563
40
0.97142857142856975
40
0.98571428571428399
40
1
40
1
40
1
40
1
40
1
40
1
10
-25.405420178636781
20
-72.544682967475609
30
-6.352673089795573
10
-25.406985375595823
20
-72.552018578486809
30
-6.352673089795573
10
-25.409837854075779
20
-72.566712348767766
30
-6.352673089795573
10
-25.413282841396494
20
-72.588820648687886
30
-6.352673089795573
10
-25.416292637983542
20
-72.618431021063245
30
-6.352673089795573
10
-25.417900934512581
20
-72.655648702653224
30
-6.352673089795573
10
-25.417968055607449
20
-72.693048606292251
30
-6.352673089795573
10
-25.417093819692738
20
-72.730605541926892
30
-6.352673089795573
10
-25.41570815410541
20
-72.768295348566994
30
-6.352673089795573
10
-25.413961325184609
20
-72.806097812690354
30
-6.352673089795573
10
-25.411824311227935
20
-72.843995942620779
30
-6.352673089795573
10
-25.409162341045672
20
-72.881975752954446
30
-6.352673089795573
10
-25.405813650076531
20
-72.920025847942625
30
-6.352673089795573
10
-25.401677985521076
20
-72.958137108039978
30
-6.352673089795573
10
-25.396760394487305
20
-72.996302287802649
30
-6.352673089795573
10
-25.39112563143761
20
-73.034515540200374
30
-6.352673089795573
10
-25.384871039688992
20
-73.072771939142314
30
-6.352673089795573
10
-25.378094644458038
20
-73.111067037932855
30
-6.352673089795573
10
-25.370859086506073
20
-73.14939633049886
30
-6.352673089795573
10
-25.363181245073001
20
-73.187755071155209
30
-6.352673089795573
10
-25.355051628208358
20
-73.226138481529091
30
-6.352673089795573
10
-25.346446276261389
20
-73.264541860646773
30
-6.352673089795573
10
-25.337340547115559
20
-73.302960721328361
30
-6.352673089795573
10
-25.327724949601127
20
-73.341390947688609
30
-6.352673089795573
10
-25.317607471681399
20
-73.379828801122997
30
-6.352673089795573
10
-25.307005747869063
20
-73.41827081148864
30
-6.352673089795573
10
-25.295942054648684
20
-73.456713700022064
30
-6.352673089795573
10
-25.284437622235288
20
-73.495154295596109
30
-6.352673089795573
10
-25.272506059789983
20
-73.533589438488292
30
-6.352673089795573
10
-25.260153130205801
20
-73.572015967909465
30
-6.352673089795573
10
-25.247379988912321
20
-73.610430754980285
30
-6.352673089795573
10
-25.234185413739169
20
-73.648830722459579
30
-6.352673089795573
10
-25.220568259155726
20
-73.687212867960341
30
-6.352673089795573
10
-25.206530307045327
20
-73.725574291342824
30
-6.352673089795573
10
-25.192076231102227
20
-73.763912190192883
30
-6.352673089795573
10
-25.177212283186581
20
-73.802223841089599
30
-6.352673089795573
10
-25.161945363954636
20
-73.840506585405478
30
-6.352673089795573
10
-25.146282016946309
20
-73.878757814283986
30
-6.352673089795573
10
-25.130227256924577
20
-73.916974952267196
30
-6.352673089795573
10
-25.113784625852446
20
-73.955155453238859
30
-6.352673089795573
10
-25.096956757154629
20
-73.993296801738779
30
-6.352673089795573
10
-25.079745791129511
20
-74.031396512771167
30
-6.352673089795573
10
-25.062153818770803
20
-74.069452132652856
30
-6.352673089795573
10
-25.044183406385354
20
-74.107461239552805
30
-6.352673089795573
10
-25.025837590875398
20
-74.145421445569639
30
-6.352673089795573
10
-25.007119640578797
20
-74.183330399212537
30
-6.352673089795573
10
-24.988032887953679
20
-74.221185788665593
30
-6.352673089795573
10
-24.968580550571964
20
-74.258985343977187
30
-6.352673089795573
10
-24.94876552128277
20
-74.296726843108942
30
-6.352673089795573
10
-24.928590365873291
20
-74.334408102321134
30
-6.352673089795573
10
-24.908057435389974
20
-74.372026959150247
30
-6.352673089795573
10
-24.88716894859629
20
-74.409581256839033
30
-6.352673089795573
10
-24.865927080605587
20
-74.447068831491379
30
-6.352673089795573
10
-24.844334072849268
20
-74.484487491457799
30
-6.352673089795573
10
-24.822392242921431
20
-74.521835031074843
30
-6.352673089795573
10
-24.800103919615868
20
-74.559109268067687
30
-6.352673089795573
10
-24.77747140005124
20
-74.596308077500737
30
-6.352673089795573
10
-24.754496905291035
20
-74.633429421206614
30
-6.352673089795573
10
-24.731182526703144
20
-74.670471395777525
30
-6.352673089795573
10
-24.707530225651535
20
-74.707432212948319
30
-6.352673089795573
10
-24.683541893708927
20
-74.744310106518185
30
-6.352673089795573
10
-24.659219401870889
20
-74.78110325407161
30
-6.352673089795573
10
-24.634564650472601
20
-74.817809704208258
30
-6.352673089795573
10
-24.609579636196102
20
-74.85442727554171
30
-6.352673089795573
10
-24.584266464376235
20
-74.890953556437822
30
-6.352673089795573
10
-24.558627248809248
20
-74.927386104850996
30
-6.352673089795573
10
-24.532664037064819
20
-74.963722609296468
30
-6.352673089795573
10
-24.506378729513834
20
-74.999961058651579
30
-6.352673089795573
10
-24.479772999486205
20
-75.036099927003676
30
-6.352673089795573
10
-24.452848226487617
20
-75.072138299848319
30
-6.352673089795573
10
-24.425605494621365
20
-75.108075704888364
30
-6.352673089795573
10
-24.403557565730924
20
-75.136744728451418
30
-6.352673089795573
10
-24.38687910030696
20
-75.158200995884698
30
-6.352673089795573
10
-24.375696802719588
20
-75.172484958606915
30
-6.352673089795573
10
-24.37008982376673
20
-75.179621886073733
30
-6.352673089795573
0
ARC
5
123
100
AcDbEntity
8
0
100
AcDbCircle
10
-23.829096235760421
20
-65.19426631214769
30
-6.352673089795573
40
10.000000000000002
210
-0
220
0
230
1
100
AcDbArc
50
-3.1011789143313431
51
3.1011789143312432
0
LINE
5
124
100
AcDbEntity
8
0
100
AcDbLine
10
-20.556566101253672
20
-70.256437255457371
30
-6.352673089795573
11
-19.746196123586095
21
-71.506425123031192
31
-6.352673089795573
0
SPLINE
5
125
100
AcDbEntity
8
0
100
AcDbSpline
70
0
71
5
72
81
73
75
74
0
42
0.000000001
43
0.0000000001
44
0.0000000001
40
0
40
0
40
0
40
0
40
0
40
0
40
0.014285714285714284
40
0.028571428571428567
40
0.042857142857142858
40
0.057142857142857134
40
0.071428571428571438
40
0.085714285714285715
40
0.10000000000000001
40
0.1142857142857143
40
0.12857142857142859
40
0.14285714285714288
40
0.15714285714285714
40
0.17142857142857146
40
0.18571428571428572
40
0.20000000000000004
40
0.21428571428571436
40
0.22857142857142865
40
0.24285714285714291
40
0.25714285714285717
40
0.27142857142857146
40
0.2857142857142857
40
0.30000000000000004
40
0.31428571428571433
40
0.32857142857142863
40
0.34285714285714292
40
0.35714285714285721
40
0.3714285714285715
40
0.38571428571428573
40
0.40000000000000008
40
0.41428571428571442
40
0.42857142857142871
40
0.44285714285714295
40
0.4571428571428573
40
0.47142857142857147
40
0.48571428571428582
40
0.50000000000000011
40
0.51428571428571435
40
0.52857142857142858
40
0.54285714285714282
40
0.55714285714285705
40
0.57142857142857129
40
0.58571428571428552
40
0.59999999999999976
40
0.61428571428571399
40
0.62857142857142823
40
0.64285714285714246
40
0.6571428571428567
40
0.67142857142857093
40
0.68571428571428517
40
0.6999999999999994
40
0.71428571428571364
40
0.72857142857142776
40
0.74285714285714211
40
0.75714285714285634
40
0.77142857142857058
40
0.78571428571428481
40
0.79999999999999905
40
0.81428571428571328
40
0.82857142857142752
40
0.84285714285714175
40
0.85714285714285599
40
0.87142857142857022
40
0.88571428571428445
40
0.89999999999999869
40
0.91428571428571281
40
0.92857142857142716
40
0.94285714285714117
40
0.95714285714285563
40
0.97142857142856975
40
0.98571428571428399
40
1
40
1
40
1
40
1
40
1
40
1
10
-16.478679580432502
20
-66.770590255024047
30
-6.352673089795573
10
-16.471343969421298
20
-66.772155451983082
30
-6.352673089795573
10
-16.456650199140334
20
-66.775007930463048
30
-6.352673089795573
10
-16.434541899220221
20
-66.778452917783753
30
-6.352673089795573
10
-16.404931526844869
20
-66.781462714370804
30
-6.352673089795573
10
-16.367713845254883
20
-66.783071010899846
30
-6.352673089795573
10
-16.330313941615859
20
-66.783138131994718
30
-6.352673089795573
10
-16.292757005981215
20
-66.782263896079996
30
-6.352673089795573
10
-16.255067199341124
20
-66.780878230492675
30
-6.352673089795573
10
-16.217264735217746
20
-66.779131401571874
30
-6.352673089795573
10
-16.179366605287324
20
-66.776994387615204
30
-6.352673089795573
10
-16.141386794953661
20
-66.774332417432944
30
-6.352673089795573
10
-16.103336699965482
20
-66.770983726463811
30
-6.352673089795573
10
-16.065225439868129
20
-66.766848061908348
30
-6.352673089795573
10
-16.027060260105461
20
-66.761930470874574
30
-6.352673089795573
10
-15.988847007707729
20
-66.756295707824876
30
-6.352673089795573
10
-15.950590608765793
20
-66.750041116076261
30
-6.352673089795573
10
-15.912295509975261
20
-66.743264720845303
30
-6.352673089795573
10
-15.873966217409263
20
-66.736029162893331
30
-6.352673089795573
10
-15.8356074767529
20
-66.728351321460266
30
-6.352673089795573
10
-15.79722406637902
20
-66.72022170459563
30
-6.352673089795573
10
-15.758820687261338
20
-66.711616352648662
30
-6.352673089795573
10
-15.720401826579756
20
-66.702510623502818
30
-6.352673089795573
10
-15.681971600219482
20
-66.692895025988406
30
-6.352673089795573
10
-15.643533746785119
20
-66.682777548068657
30
-6.352673089795573
10
-15.605091736419482
20
-66.672175824256328
30
-6.352673089795573
10
-15.56664884788605
20
-66.661112131035935
30
-6.352673089795573
10
-15.528208252311995
20
-66.649607698622546
30
-6.352673089795573
10
-15.489773109419819
20
-66.637676136177234
30
-6.352673089795573
10
-15.451346579998626
20
-66.625323206593066
30
-6.352673089795573
10
-15.412931792927829
20
-66.612550065299587
30
-6.352673089795573
10
-15.374531825448532
20
-66.599355490126442
30
-6.352673089795573
10
-15.336149679947763
20
-66.585738335542999
30
-6.352673089795573
10
-15.297788256565275
20
-66.571700383432599
30
-6.352673089795573
10
-15.259450357715227
20
-66.557246307489493
30
-6.352673089795573
10
-15.221138706818511
20
-66.54238235957385
30
-6.352673089795573
10
-15.182855962502613
20
-66.527115440341902
30
-6.352673089795573
10
-15.14460473362413
20
-66.511452093333574
30
-6.352673089795573
10
-15.106387595640918
20
-66.495397333311843
30
-6.352673089795573
10
-15.068207094669258
20
-66.478954702239719
30
-6.352673089795573
10
-15.030065746169324
20
-66.462126833541902
30
-6.352673089795573
10
-14.991966035136937
20
-66.444915867516769
30
-6.352673089795573
10
-14.953910415255249
20
-66.427323895158068
30
-6.352673089795573
10
-14.915901308355295
20
-66.409353482772616
30
-6.352673089795573
10
-14.877941102338475
20
-66.391007667262656
30
-6.352673089795573
10
-14.840032148695578
20
-66.372289716966065
30
-6.352673089795573
10
-14.802176759242528
20
-66.353202964340952
30
-6.352673089795573
10
-14.764377203930916
20
-66.333750626959215
30
-6.352673089795573
10
-14.726635704799174
20
-66.313935597670039
30
-6.352673089795573
10
-14.688954445586976
20
-66.293760442260563
30
-6.352673089795573
10
-14.651335588757867
20
-66.273227511777236
30
-6.352673089795573
10
-14.613781291069095
20
-66.252339024983542
30
-6.352673089795573
10
-14.576293716416719
20
-66.23109715699286
30
-6.352673089795573
10
-14.538875056450316
20
-66.209504149236537
30
-6.352673089795573
10
-14.501527516833255
20
-66.187562319308711
30
-6.352673089795573
10
-14.464253279840422
20
-66.165273996003137
30
-6.352673089795573
10
-14.427054470407374
20
-66.142641476438513
30
-6.352673089795573
10
-14.389933126701484
20
-66.119666981678307
30
-6.352673089795573
10
-14.352891152130578
20
-66.096352603090409
30
-6.352673089795573
10
-14.315930334959788
20
-66.072700302038797
30
-6.352673089795573
10
-14.279052441389926
20
-66.048711970096178
30
-6.352673089795573
10
-14.242259293836481
20
-66.024389478258158
30
-6.352673089795573
10
-14.205552843699852
20
-65.99973472685987
30
-6.352673089795573
10
-14.168935272366404
20
-65.97474971258336
30
-6.352673089795573
10
-14.132408991470292
20
-65.949436540763486
30
-6.352673089795573
10
-14.095976443057108
20
-65.923797325196517
30
-6.352673089795573
10
-14.059639938611653
20
-65.897834113452092
30
-6.352673089795573
10
-14.023401489256525
20
-65.871548805901085
30
-6.352673089795573
10
-13.987262620904435
20
-65.844943075873474
30
-6.352673089795573
10
-13.951224248059798
20
-65.81801830287489
30
-6.352673089795573
10
-13.915286843019743
20
-65.790775571008624
30
-6.352673089795573
10
-13.886617819456696
20
-65.768727642118193
30
-6.352673089795573
10
-13.865161552023411
20
-65.752049176694229
30
-6.352673089795573
10
-13.850877589301206
20
-65.740866879106861
30
-6.352673089795573
10
-13.843740661834367
20
-65.735259900153991
30
-6.352673089795573
0
LINE
5
126
100
AcDbEntity
8
0
100
AcDbLine
10
-17.935572584473583
20
-66.459733463940438
30
-6.352673089795573
11
-16.478679580432502
21
-66.770590255024047
31
-6.352673089795573
0
ARC
5
127
100
AcDbEntity
8
0
100
AcDbCircle
10
-23.829096235760421
20
-65.19426631214769
30
-6.352673089795573
40
5.5491999999999955
210
-0
220
0
230
1
100
AcDbArc
50
286.85985568249419
51
298.14014431750581
0
SPLINE
5
128
100
AcDbEntity
8
0
100
AcDbSpline
70
0
71
5
72
81
73
75
74
0
42
0.000000001
43
0.0000000001
44
0.0000000001
40
0
40
0
40
0
40
0
40
0
40
0
40
0.014285714285714284
40
0.028571428571428567
40
0.042857142857142858
40
0.057142857142857134
40
0.071428571428571438
40
0.085714285714285715
40
0.10000000000000001
40
0.1142857142857143
40
0.12857142857142859
40
0.14285714285714288
40
0.15714285714285714
40
0.17142857142857146
40
0.18571428571428572
40
0.20000000000000004
40
0.21428571428571436
40
0.22857142857142865
40
0.24285714285714291
40
0.25714285714285717
40
0.27142857142857146
40
0.2857142857142857
40
0.30000000000000004
40
0.31428571428571433
40
0.32857142857142863
40
0.34285714285714292
40
0.35714285714285721
40
0.3714285714285715
40
0.38571428571428573
40
0.40000000000000008
40
0.41428571428571442
40
0.42857142857142871
40
0.44285714285714295
40
0.4571428571428573
40
0.47142857142857147
40
0.48571428571428582
40
0.50000000000000011
40
0.51428571428571435
40
0.52857142857142858
40
0.54285714285714282
40
0.55714285714285705
40
0.57142857142857129
40
0.58571428571428552
40
0.59999999999999976
40
0.61428571428571399
40
0.62857142857142823
40
0.64285714285714246
40
0.6571428571428567
40
0.67142857142857093
40
0.68571428571428517
40
0.6999999999999994
40
0.71428571428571364
40
0.72857142857142776
40
0.74285714285714211
40
0.75714285714285634
40
0.77142857142857058
40
0.78571428571428481
40
0.79999999999999905
40
0.81428571428571328
40
0.82857142857142752
40
0.84285714285714175
40
0.85714285714285599
40
0.87142857142857022
40
0.88571428571428445
40
0.89999999999999869
40
0.91428571428571281
40
0.92857142857142716
40
0.94285714285714117
40
0.95714285714285563
40
0.97142857142856975
40
0.98571428571428399
40
1
40
1
40
1
40
1
40
1
40
1
10
-17.516937424876918
20
-61.111366199973361
30
-6.352673089795573
10
-17.510643603203114
20
-61.107285901066831
30
-6.352673089795573
10
-17.498236531719883
20
-61.098912843336322
30
-6.352673089795573
10
-17.480167629030284
20
-61.085715888437889
30
-6.352673089795573
10
-17.457101686353525
20
-61.066906440914508
30
-6.352673089795573
10
-17.429647573939356
20
-61.041726803264034
30
-6.352673089795573
10
-17.403154386679141
20
-61.015328539566489
30
-6.352673089795573
10
-17.377215800954943
20
-60.988153597555012
30
-6.352673089795573
10
-17.351544896631385
20
-60.960523066164924
30
-6.352673089795573
10
-17.326049712479652
20
-60.932557492862252
30
-6.352673089795573
10
-17.300762784871814
20
-60.904248371133903
30
-6.352673089795573
10
-17.275789300603897
20
-60.875510292531601
30
-6.352673089795573
10
-17.251251702505343
20
-60.846236930248295
30
-6.352673089795573
10
-17.227227328502821
20
-60.816363843342018
30
-6.352673089795573
10
-17.203717733054511
20
-60.785899723959545
30
-6.352673089795573
10
-17.180681262315698
20
-60.754894494895098
30
-6.352673089795573
10
-17.158052567439078
20
-60.723420471540486
30
-6.352673089795573
10
-17.135765478417895
20
-60.691550112479675
30
-6.352673089795573
10
-17.113778887819894
20
-60.659330897694673
30
-6.352673089795573
10
-17.092084215926203
20
-60.626778118316587
30
-6.352673089795573
10
-17.070691553379209
20
-60.593888441342699
30
-6.352673089795573
10
-17.04962116630082
20
-60.56064824883191
30
-6.352673089795573
10
-17.028893652214077
20
-60.52704328909185
30
-6.352673089795573
10
-17.008518632759806
20
-60.493069761222344
30
-6.352673089795573
10
-16.988493103187654
20
-60.458735957159107
30
-6.352673089795573
10
-16.968807047775641
20
-60.424056800147156
30
-6.352673089795573
10
-16.949447033106352
20
-60.389050360475665
30
-6.352673089795573
10
-16.930400289476299
20
-60.353733892499193
30
-6.352673089795573
10
-16.911659428016598
20
-60.318119253609026
30
-6.352673089795573
10
-16.893222608761903
20
-60.282212753801346
30
-6.352673089795573
10
-16.875091227151977
20
-60.246017422540078
30
-6.352673089795573
10
-16.857268323329837
20
-60.209534571558308
30
-6.352673089795573
10
-16.839756830316173
20
-60.1727655138518
30
-6.352673089795573
10
-16.822557538837685
20
-60.135713560110844
30
-6.352673089795573
10
-16.805669125699517
20
-60.098383996742385
30
-6.352673089795573
10
-16.789089095918357
20
-60.060783170228511
30
-6.352673089795573
10
-16.772814449926891
20
-60.022917840003572
30
-6.352673089795573
10
-16.756842405483866
20
-59.984794477789208
30
-6.352673089795573
10
-16.741171237740076
20
-59.946418450682053
30
-6.352673089795573
10
-16.725800242525573
20
-59.907794063604236
30
-6.352673089795573
10
-16.710729336426809
20
-59.868924957367192
30
-6.352673089795573
10
-16.695958763181697
20
-59.829814402547811
30
-6.352673089795573
10
-16.681488779250383
20
-59.790465612717924
30
-6.352673089795573
10
-16.667319282473049
20
-59.750882115023657
30
-6.352673089795573
10
-16.65344981393681
20
-59.711067745380433
30
-6.352673089795573
10
-16.639879725332868
20
-59.671026477607214
30
-6.352673089795573
10
-16.626608294958206
20
-59.630762302808449
30
-6.352673089795573
10
-16.61363485274407
20
-59.590279101249237
30
-6.352673089795573
10
-16.600958924355673
20
-59.549580489701235
30
-6.352673089795573
10
-16.58858023964461
20
-59.508669826587109
30
-6.352673089795573
10
-16.576498665262648
20
-59.467550303440376
30
-6.352673089795573
10
-16.564714157364758
20
-59.426225014221401
30
-6.352673089795573
10
-16.553226708019125
20
-59.384697027073173
30
-6.352673089795573
10
-16.542036282024672
20
-59.342969476657316
30
-6.352673089795573
10
-16.531142800234431
20
-59.301045561399839
30
-6.352673089795573
10
-16.520546159043885
20
-59.258928471108014
30
-6.352673089795573
10
-16.510246236701196
20
-59.216621332646355
30
-6.352673089795573
10
-16.500242903879286
20
-59.174127157745886
30
-6.352673089795573
10
-16.490536027670299
20
-59.13144877113961
30
-6.352673089795573
10
-16.481125485674895
20
-59.088588824215691
30
-6.352673089795573
10
-16.472011189241744
20
-59.045549903410588
30
-6.352673089795573
10
-16.463193104019538
20
-59.00233462036033
30
-6.352673089795573
10
-16.454671266116843
20
-58.958945698653231
30
-6.352673089795573
10
-16.446445806139334
20
-58.915386092629809
30
-6.352673089795573
10
-16.438516940673335
20
-58.871658996269474
30
-6.352673089795573
10
-16.430884901826186
20
-58.827767631038881
30
-6.352673089795573
10
-16.423549876214057
20
-58.783715079255018
30
-6.352673089795573
10
-16.41651194215023
20
-58.739504106761451
30
-6.352673089795573
10
-16.409770995395021
20
-58.695136975764328
30
-6.352673089795573
10
-16.40332670714286
20
-58.650615308373744
30
-6.352673089795573
10
-16.397178644781455
20
-58.605940205130992
30
-6.352673089795573
10
-16.392496823839579
20
-58.570077904130017
30
-6.352673089795573
10
-16.389118407639621
20
-58.543112575927921
30
-6.352673089795573
10
-16.386925199189818
20
-58.525105210571553
30
-6.352673089795573
10
-16.385843362220719
20
-58.516093907923391
30
-6.352673089795573
0
LINE
5
129
100
AcDbEntity
8
0
100
AcDbLine
10
-16.478679580432505
20
-63.617942369271326
30
-6.352673089795573
11
-17.935572584473583
21
-63.928799160354934
31
-6.352673089795573
0
LINE
5
130
100
AcDbEntity
8
0
100
AcDbLine
10
-19.746196123586095
20
-58.882107501264187
30
-6.352673089795573
11
-20.556566101253672
21
-60.132095368837987
31
-6.352673089795573
0
ARC
5
131
100
AcDbEntity
8
0
100
AcDbCircle
10
-22.074636292425431
20
-59.405078895313352
30
-6.352673089795573
40
0.49999999999999734
210
0
220
0
230
1
100
AcDbArc
50
167.9554331252001
51
253.14014431750508
0
SPLINE
5
132
100
AcDbEntity
8
0
100
AcDbSpline
70
0
71
5
72
81
73
75
74
0
42
0.000000001
43
0.0000000001
44
0.0000000001
40
-1
40
-1
40
-1
40
-1
40
-1
40
-1
40
-0.98571428571428399
40
-0.97142857142856975
40
-0.95714285714285563
40
-0.94285714285714117
40
-0.92857142857142716
40
-0.91428571428571281
40
-0.89999999999999869
40
-0.88571428571428445
40
-0.87142857142857022
40
-0.85714285714285599
40
-0.84285714285714175
40
-0.82857142857142752
40
-0.81428571428571328
40
-0.79999999999999905
40
-0.78571428571428481
40
-0.77142857142857058
40
-0.75714285714285634
40
-0.74285714285714211
40
-0.72857142857142776
40
-0.71428571428571364
40
-0.6999999999999994
40
-0.68571428571428517
40
-0.67142857142857093
40
-0.6571428571428567
40
-0.64285714285714246
40
-0.62857142857142823
40
-0.61428571428571399
40
-0.59999999999999976
40
-0.58571428571428552
40
-0.57142857142857129
40
-0.55714285714285705
40
-0.54285714285714282
40
-0.52857142857142858
40
-0.51428571428571435
40
-0.50000000000000011
40
-0.48571428571428582
40
-0.47142857142857147
40
-0.4571428571428573
40
-0.44285714285714295
40
-0.42857142857142871
40
-0.41428571428571442
40
-0.40000000000000008
40
-0.38571428571428573
40
-0.3714285714285715
40
-0.35714285714285721
40
-0.34285714285714292
40
-0.32857142857142863
40
-0.31428571428571433
40
-0.30000000000000004
40
-0.2857142857142857
40
-0.27142857142857146
40
-0.25714285714285717
40
-0.24285714285714291
40
-0.22857142857142865
40
-0.21428571428571436
40
-0.20000000000000004
40
-0.18571428571428572
40
-0.17142857142857146
40
-0.15714285714285714
40
-0.14285714285714288
40
-0.12857142857142859
40
-0.1142857142857143
40
-0.10000000000000001
40
-0.085714285714285715
40
-0.071428571428571438
40
-0.057142857142857134
40
-0.042857142857142858
40
-0.028571428571428567
40
-0.014285714285714284
40
-0
40
-0
40
-0
40
-0
40
-0
40
-0
10
-13.843740661834367
20
-64.653272724141374
30
-6.352673089795573
10
-13.850877589301206
20
-64.647665745188519
30
-6.352673089795573
10
-13.865161552023411
20
-64.636483447601151
30
-6.352673089795573
10
-13.886617819456696
20
-64.619804982177172
30
-6.352673089795573
10
-13.915286843019743
20
-64.597757053286728
30
-6.352673089795573
10
-13.951224248059798
20
-64.57051432142049
30
-6.352673089795573
10
-13.987262620904435
20
-64.543589548421906
30
-6.352673089795573
10
-14.023401489256525
20
-64.516983818394266
30
-6.352673089795573
10
-14.059639938611653
20
-64.490698510843288
30
-6.352673089795573
10
-14.095976443057108
20
-64.464735299098862
30
-6.352673089795573
10
-14.132408991470292
20
-64.439096083531865
30
-6.352673089795573
10
-14.168935272366404
20
-64.413782911712005
30
-6.352673089795573
10
-14.205552843699852
20
-64.388797897435509
30
-6.352673089795573
10
-14.242259293836481
20
-64.364143146037222
30
-6.352673089795573
10
-14.279052441389926
20
-64.339820654199173
30
-6.352673089795573
10
-14.315930334959788
20
-64.315832322256568
30
-6.352673089795573
10
-14.352891152130578
20
-64.292180021204956
30
-6.352673089795573
10
-14.389933126701484
20
-64.268865642617072
30
-6.352673089795573
10
-14.427054470407374
20
-64.245891147856867
30
-6.352673089795573
10
-14.464253279840422
20
-64.223258628292243
30
-6.352673089795573
10
-14.501527516833255
20
-64.200970304986683
30
-6.352673089795573
10
-14.538875056450316
20
-64.179028475058843
30
-6.352673089795573
10
-14.576293716416719
20
-64.15743546730252
30
-6.352673089795573
10
-14.613781291069095
20
-64.13619359931181
30
-6.352673089795573
10
-14.651335588757867
20
-64.115305112518129
30
-6.352673089795573
10
-14.688954445586976
20
-64.094772182034802
30
-6.352673089795573
10
-14.726635704799174
20
-64.074597026625341
30
-6.352673089795573
10
-14.764377203930916
20
-64.054781997336136
30
-6.352673089795573
10
-14.802176759242528
20
-64.035329659954428
30
-6.352673089795573
10
-14.840032148695578
20
-64.016242907329314
30
-6.352673089795573
10
-14.877941102338475
20
-63.997524957032709
30
-6.352673089795573
10
-14.915901308355295
20
-63.979179141522742
30
-6.352673089795573
10
-14.953910415255249
20
-63.961208729137297
30
-6.352673089795573
10
-14.991966035136937
20
-63.943616756778596
30
-6.352673089795573
10
-15.030065746169324
20
-63.926405790753471
30
-6.352673089795573
10
-15.068207094669258
20
-63.909577922055661
30
-6.352673089795573
10
-15.106387595640918
20
-63.89313529098353
30
-6.352673089795573
10
-15.14460473362413
20
-63.877080530961798
30
-6.352673089795573
10
-15.182855962502613
20
-63.861417183953471
30
-6.352673089795573
10
-15.221138706818511
20
-63.846150264721516
30
-6.352673089795573
10
-15.259450357715227
20
-63.831286316805873
30
-6.352673089795573
10
-15.297788256565275
20
-63.81683224086278
30
-6.352673089795573
10
-15.336149679947763
20
-63.802794288752381
30
-6.352673089795573
10
-15.374531825448532
20
-63.789177134168938
30
-6.352673089795573
10
-15.412931792927829
20
-63.775982558995779
30
-6.352673089795573
10
-15.451346579998626
20
-63.763209417702306
30
-6.352673089795573
10
-15.489773109419819
20
-63.750856488118124
30
-6.352673089795573
10
-15.528208252311995
20
-63.738924925672819
30
-6.352673089795573
10
-15.56664884788605
20
-63.727420493259423
30
-6.352673089795573
10
-15.605091736419482
20
-63.716356800039044
30
-6.352673089795573
10
-15.643533746785119
20
-63.705755076226694
30
-6.352673089795573
10
-15.681971600219482
20
-63.69563759830698
30
-6.352673089795573
10
-15.720401826579756
20
-63.686022000792548
30
-6.352673089795573
10
-15.758820687261338
20
-63.676916271646718
30
-6.352673089795573
10
-15.79722406637902
20
-63.668310919699749
30
-6.352673089795573
10
-15.8356074767529
20
-63.660181302835099
30
-6.352673089795573
10
-15.873966217409263
20
-63.652503461402034
30
-6.352673089795573
10
-15.912295509975261
20
-63.645267903450069
30
-6.352673089795573
10
-15.950590608765793
20
-63.638491508219104
30
-6.352673089795573
10
-15.988847007707729
20
-63.632236916470497
30
-6.352673089795573
10
-16.027060260105461
20
-63.626602153420805
30
-6.352673089795573
10
-16.065225439868129
20
-63.621684562387031
30
-6.352673089795573
10
-16.103336699965482
20
-63.617548897831576
30
-6.352673089795573
10
-16.141386794953661
20
-63.614200206862435
30
-6.352673089795573
10
-16.179366605287324
20
-63.611538236680161
30
-6.352673089795573
10
-16.217264735217746
20
-63.609401222723498
30
-6.352673089795573
10
-16.255067199341124
20
-63.607654393802697
30
-6.352673089795573
10
-16.292757005981215
20
-63.606268728215355
30
-6.352673089795573
10
-16.330313941615859
20
-63.605394492300661
30
-6.352673089795573
10
-16.367713845254883
20
-63.605461613395526
30
-6.352673089795573
10
-16.404931526844869
20
-63.607069909924562
30
-6.352673089795573
10
-16.434541899220221
20
-63.610079706511613
30
-6.352673089795573
10
-16.456650199140334
20
-63.613524693832332
30
-6.352673089795573
10
-16.471343969421298
20
-63.616377172312269
30
-6.352673089795573
10
-16.478679580432502
20
-63.617942369271326
30
-6.352673089795573
0
LINE
5
133
100
AcDbEntity
8
0
100
AcDbLine
10
-25.405420178636781
20
-57.843849656819764
30
-6.352673089795573
11
-25.094563387553166
21
-59.300742660860841
31
-6.352673089795573
0
ARC
5
134
100
AcDbEntity
8
0
100
AcDbCircle
10
-18.039908818926087
20
-63.439806368812697
30
-6.352673089795573
40
0.50000000000000278
210
0
220
0
230
1
100
AcDbArc
50
196.85985568249478
51
282.04456687479995
0
ARC
5
135
100
AcDbEntity
8
0
100
AcDbCircle
10
-25.58355617909541
20
-59.405078895313338
30
-6.352673089795573
40
0.50000000000000711
210
-0
220
0
230
1
100
AcDbArc
50
-73.140144317505559
51
12.044566874798955
0
ARC
5
136
100
AcDbEntity
8
0
100
AcDbCircle
10
-23.829096235760421
20
-65.19426631214769
30
-6.352673089795573
40
5.5492000000000017
210
0
220
-0
230
1
100
AcDbArc
50
61.859855682494192
51
73.140144317505872
0
ARC
5
137
100
AcDbEntity
8
0
100
AcDbCircle
10
-20.976113079009366
20
-59.860102108891965
30
-6.352673089795573
40
0.49999999999999883
210
0
220
0
230
1
100
AcDbArc
50
241.85985568249404
51
327.04456687480007
0
ARC
5
138
100
AcDbEntity
8
0
100
AcDbCircle
10
-18.494932032504696
20
-68.047249468898741
30
-6.352673089795573
40
0.49999999999999462
210
0
220
0
230
1
100
AcDbArc
50
151.8598556824937
51
237.04456687479924
0
ARC
5
139
100
AcDbEntity
8
0
100
AcDbCircle
10
-23.829096235760421
20
-65.19426631214769
30
-6.352673089795573
40
10.000000000000011
210
0
220
0
230
1
100
AcDbArc
50
176.89882108566852
51
183.10117891433134
0
ARC
5
140
100
AcDbEntity
8
0
100
AcDbCircle
10
-29.618283652594755
20
-66.948726255482683
30
-6.352673089795573
40
0.50000000000000111
210
0
220
-0
230
1
100
AcDbArc
50
16.859855682497212
51
102.0445668747998
0
SPLINE
5
141
100
AcDbEntity
8
0
100
AcDbSpline
70
0
71
5
72
81
73
75
74
0
42
0.000000001
43
0.0000000001
44
0.0000000001
40
0
40
0
40
0
40
0
40
0
40
0
40
0.014285714285714284
40
0.028571428571428567
40
0.042857142857142858
40
0.057142857142857134
40
0.071428571428571438
40
0.085714285714285715
40
0.10000000000000001
40
0.1142857142857143
40
0.12857142857142859
40
0.14285714285714288
40
0.15714285714285714
40
0.17142857142857146
40
0.18571428571428572
40
0.20000000000000004
40
0.21428571428571436
40
0.22857142857142865
40
0.24285714285714291
40
0.25714285714285717
40
0.27142857142857146
40
0.2857142857142857
40
0.30000000000000004
40
0.31428571428571433
40
0.32857142857142863
40
0.34285714285714292
40
0.35714285714285721
40
0.3714285714285715
40
0.38571428571428573
40
0.40000000000000008
40
0.41428571428571442
40
0.42857142857142871
40
0.44285714285714295
40
0.4571428571428573
40
0.47142857142857147
40
0.48571428571428582
40
0.50000000000000011
40
0.51428571428571435
40
0.52857142857142858
40
0.54285714285714282
40
0.55714285714285705
40
0.57142857142857129
40
0.58571428571428552
40
0.59999999999999976
40
0.61428571428571399
40
0.62857142857142823
40
0.64285714285714246
40
0.6571428571428567
40
0.67142857142857093
40
0.68571428571428517
40
0.6999999999999994
40
0.71428571428571364
40
0.72857142857142776
40
0.74285714285714211
40
0.75714285714285634
40
0.77142857142857058
40
0.78571428571428481
40
0.79999999999999905
40
0.81428571428571328
40
0.82857142857142752
40
0.84285714285714175
40
0.85714285714285599
40
0.87142857142857022
40
0.88571428571428445
40
0.89999999999999869
40
0.91428571428571281
40
0.92857142857142716
40
0.94285714285714117
40
0.95714285714285563
40
0.97142857142856975
40
0.98571428571428399
40
1
40
1
40
1
40
1
40
1
40
1
10
-30.141255046643927
20
-69.277166424322004
30
-6.352673089795573
10
-30.147548868317724
20
-69.281246723228534
30
-6.352673089795573
10
-30.159955939800955
20
-69.289619780959057
30
-6.352673089795573
10
-30.178024842490558
20
-69.302816735857476
30
-6.352673089795573
10
-30.201090785167317
20
-69.321626183380857
30
-6.352673089795573
10
-30.228544897581486
20
-69.346805821031339
30
-6.352673089795573
10
-30.255038084841701
20
-69.373204084728883
30
-6.352673089795573
10
-30.280976670565902
20
-69.400379026740353
30
-6.352673089795573
10
-30.30664757488946
20
-69.428009558130441
30
-6.352673089795573
10
-30.33214275904119
20
-69.455975131433121
30
-6.352673089795573
10
-30.357429686649027
20
-69.484284253161448
30
-6.352673089795573
10
-30.382403170916945
20
-69.513022331763764
30
-6.352673089795573
10
-30.406940769015502
20
-69.542295694047084
30
-6.352673089795573
10
-30.430965143018021
20
-69.572168780953362
30
-6.352673089795573
10
-30.454474738466331
20
-69.60263290033582
30
-6.352673089795573
10
-30.477511209205144
20
-69.633638129400282
30
-6.352673089795573
10
-30.500139904081767
20
-69.665112152754887
30
-6.352673089795573
10
-30.522426993102947
20
-69.69698251181569
30
-6.352673089795573
10
-30.544413583700944
20
-69.729201726600692
30
-6.352673089795573
10
-30.566108255594635
20
-69.761754505978786
30
-6.352673089795573
10
-30.587500918141632
20
-69.794644182952666
30
-6.352673089795573
10
-30.608571305220025
20
-69.827884375463455
30
-6.352673089795573
10
-30.629298819306765
20
-69.86148933520353
30
-6.352673089795573
10
-30.649673838761036
20
-69.895462863073021
30
-6.352673089795573
10
-30.669699368333188
20
-69.929796667136259
30
-6.352673089795573
10
-30.689385423745197
20
-69.964475824148195
30
-6.352673089795573
10
-30.708745438414489
20
-69.999482263819715
30
-6.352673089795573
10
-30.727792182044542
20
-70.034798731796172
30
-6.352673089795573
10
-30.746533043504243
20
-70.070413370686353
30
-6.352673089795573
10
-30.764969862758935
20
-70.106319870494019
30
-6.352673089795573
10
-30.783101244368865
20
-70.142515201755288
30
-6.352673089795573
10
-30.800924148191005
20
-70.178998052737057
30
-6.352673089795573
10
-30.818435641204669
20
-70.215767110443579
30
-6.352673089795573
10
-30.835634932683156
20
-70.252819064184536
30
-6.352673089795573
10
-30.852523345821325
20
-70.290148627552981
30
-6.352673089795573
10
-30.869103375602485
20
-70.327749454066861
30
-6.352673089795573
10
-30.885378021593954
20
-70.365614784291793
30
-6.352673089795573
10
-30.901350066036972
20
-70.403738146506157
30
-6.352673089795573
10
-30.917021233780765
20
-70.442114173613319
30
-6.352673089795573
10
-30.932392228995269
20
-70.480738560691123
30
-6.352673089795573
10
-30.947463135094033
20
-70.519607666928181
30
-6.352673089795573
10
-30.962233708339149
20
-70.558718221747569
30
-6.352673089795573
10
-30.976703692270462
20
-70.598067011577427
30
-6.352673089795573
10
-30.99087318904779
20
-70.637650509271722
30
-6.352673089795573
10
-31.004742657584032
20
-70.677464878914947
30
-6.352673089795573
10
-31.018312746187977
20
-70.717506146688152
30
-6.352673089795573
10
-31.031584176562639
20
-70.75777032148693
30
-6.352673089795573
10
-31.044557618776771
20
-70.798253523046128
30
-6.352673089795573
10
-31.057233547165168
20
-70.838952134594138
30
-6.352673089795573
10
-31.069612231876231
20
-70.879862797708256
30
-6.352673089795573
10
-31.08169380625819
20
-70.920982320854989
30
-6.352673089795573
10
-31.09347831415608
20
-70.962307610073978
30
-6.352673089795573
10
-31.104965763501717
20
-71.003835597222192
30
-6.352673089795573
10
-31.116156189496174
20
-71.045563147638049
30
-6.352673089795573
10
-31.127049671286411
20
-71.087487062895534
30
-6.352673089795573
10
-31.137646312476956
20
-71.129604153187358
30
-6.352673089795573
10
-31.147946234819646
20
-71.17191129164901
30
-6.352673089795573
10
-31.157949567641552
20
-71.214405466549493
30
-6.352673089795573
10
-31.167656443850547
20
-71.257083853155763
30
-6.352673089795573
10
-31.177066985845947
20
-71.299943800079689
30
-6.352673089795573
10
-31.186181282279097
20
-71.342982720884791
30
-6.352673089795573
10
-31.194999367501303
20
-71.38619800393505
30
-6.352673089795573
10
-31.203521205403995
20
-71.429586925642141
30
-6.352673089795573
10
-31.211746665381508
20
-71.473146531665577
30
-6.352673089795573
10
-31.21967553084751
20
-71.516873628025891
30
-6.352673089795573
10
-31.227307569694656
20
-71.560764993256484
30
-6.352673089795573
10
-31.234642595306781
20
-71.604817545040348
30
-6.352673089795573
10
-31.241680529370612
20
-71.649028517533907
30
-6.352673089795573
10
-31.24842147612582
20
-71.693395648531038
30
-6.352673089795573
10
-31.254865764377982
20
-71.737917315921621
30
-6.352673089795573
10
-31.261013826739379
20
-71.782592419164359
30
-6.352673089795573
10
-31.265695647681262
20
-71.818454720165334
30
-6.352673089795573
10
-31.269074063881224
20
-71.845420048367444
30
-6.352673089795573
10
-31.271267272331027
20
-71.863427413723826
30
-6.352673089795573
10
-31.27234910930013
20
-71.872438716371988
30
-6.352673089795573
0
SPLINE
5
142
100
AcDbEntity
8
0
100
AcDbSpline
70
0
71
5
72
81
73
75
74
0
42
0.000000001
43
0.0000000001
44
0.0000000001
40
0
40
0
40
0
40
0
40
0
40
0
40
0.014285714285714284
40
0.028571428571428567
40
0.042857142857142858
40
0.057142857142857134
40
0.071428571428571438
40
0.085714285714285715
40
0.10000000000000001
40
0.1142857142857143
40
0.12857142857142859
40
0.14285714285714288
40
0.15714285714285714
40
0.17142857142857146
40
0.18571428571428572
40
0.20000000000000004
40
0.21428571428571436
40
0.22857142857142865
40
0.24285714285714291
40
0.25714285714285717
40
0.27142857142857146
40
0.2857142857142857
40
0.30000000000000004
40
0.31428571428571433
40
0.32857142857142863
40
0.34285714285714292
40
0.35714285714285721
40
0.3714285714285715
40
0.38571428571428573
40
0.40000000000000008
40
0.41428571428571442
40
0.42857142857142871
40
0.44285714285714295
40
0.4571428571428573
40
0.47142857142857147
40
0.48571428571428582
40
0.50000000000000011
40
0.51428571428571435
40
0.52857142857142858
40
0.54285714285714282
40
0.55714285714285705
40
0.57142857142857129
40
0.58571428571428552
40
0.59999999999999976
40
0.61428571428571399
40
0.62857142857142823
40
0.64285714285714246
40
0.6571428571428567
40
0.67142857142857093
40
0.68571428571428517
40
0.6999999999999994
40
0.71428571428571364
40
0.72857142857142776
40
0.74285714285714211
40
0.75714285714285634
40
0.77142857142857058
40
0.78571428571428481
40
0.79999999999999905
40
0.81428571428571328
40
0.82857142857142752
40
0.84285714285714175
40
0.85714285714285599
40
0.87142857142857022
40
0.88571428571428445
40
0.89999999999999869
40
0.91428571428571281
40
0.92857142857142716
40
0.94285714285714117
40
0.95714285714285563
40
0.97142857142856975
40
0.98571428571428399
40
1
40
1
40
1
40
1
40
1
40
1
10
-22.252772292884053
20
-57.843849656819764
30
-6.352673089795573
10
-22.251207095925007
20
-57.83651404580857
30
-6.352673089795573
10
-22.248354617445063
20
-57.8218202755276
30
-6.352673089795573
10
-22.244909630124347
20
-57.79971197560748
30
-6.352673089795573
10
-22.2418998335373
20
-57.770101603232135
30
-6.352673089795573
10
-22.240291537008261
20
-57.732883921642149
30
-6.352673089795573
10
-22.240224415913392
20
-57.695484018003128
30
-6.352673089795573
10
-22.241098651828093
20
-57.657927082368481
30
-6.352673089795573
10
-22.242484317415432
20
-57.620237275728385
30
-6.352673089795573
10
-22.244231146336233
20
-57.582434811604998
30
-6.352673089795573
10
-22.246368160292896
20
-57.544536681674586
30
-6.352673089795573
10
-22.24903013047517
20
-57.506556871340919
30
-6.352673089795573
10
-22.25237882144431
20
-57.46850677635274
30
-6.352673089795573
10
-22.256514485999766
20
-57.430395516255395
30
-6.352673089795573
10
-22.261432077033536
20
-57.39223033649273
30
-6.352673089795573
10
-22.267066840083231
20
-57.354017084094991
30
-6.352673089795573
10
-22.273321431831839
20
-57.315760685153059
30
-6.352673089795573
10
-22.280097827062804
20
-57.277465586362517
30
-6.352673089795573
10
-22.287333385014769
20
-57.239136293796527
30
-6.352673089795573
10
-22.295011226447834
20
-57.200777553140156
30
-6.352673089795573
10
-22.303140843312484
20
-57.162394142766281
30
-6.352673089795573
10
-22.311746195259452
20
-57.1239907636486
30
-6.352673089795573
10
-22.320851924405282
20
-57.085571902967018
30
-6.352673089795573
10
-22.330467521919715
20
-57.047141676606742
30
-6.352673089795573
10
-22.340584999839432
20
-57.008703823172375
30
-6.352673089795573
10
-22.351186723651779
20
-56.97026181280674
30
-6.352673089795573
10
-22.362250416872158
20
-56.931818924273315
30
-6.352673089795573
10
-22.373754849285554
20
-56.893378328699256
30
-6.352673089795573
10
-22.385686411730859
20
-56.85494318580708
30
-6.352673089795573
10
-22.398039341315041
20
-56.816516656385893
30
-6.352673089795573
10
-22.410812482608513
20
-56.778101869315094
30
-6.352673089795573
10
-22.424007057781672
20
-56.739701901835801
30
-6.352673089795573
10
-22.437624212365115
20
-56.701319756335025
30
-6.352673089795573
10
-22.451662164475515
20
-56.662958332952542
30
-6.352673089795573
10
-22.466116240418607
20
-56.624620434102496
30
-6.352673089795573
10
-22.48098018833425
20
-56.58630878320578
30
-6.352673089795573
10
-22.496247107566205
20
-56.54802603888988
30
-6.352673089795573
10
-22.511910454574533
20
-56.509774810011393
30
-6.352673089795573
10
-22.527965214596264
20
-56.471557672028183
30
-6.352673089795573
10
-22.544407845668395
20
-56.43337717105652
30
-6.352673089795573
10
-22.561235714366212
20
-56.395235822556586
30
-6.352673089795573
10
-22.57844668039133
20
-56.357136111524198
30
-6.352673089795573
10
-22.596038652750032
20
-56.319080491642517
30
-6.352673089795573
10
-22.614009065135477
20
-56.28107138474256
30
-6.352673089795573
10
-22.632354880645444
20
-56.243111178725734
30
-6.352673089795573
10
-22.651072830942045
20
-56.205202225082836
30
-6.352673089795573
10
-22.670159583567163
20
-56.167346835629786
30
-6.352673089795573
10
-22.689611920948877
20
-56.129547280318178
30
-6.352673089795573
10
-22.709426950238072
20
-56.09180578118643
30
-6.352673089795573
10
-22.729602105647544
20
-56.054124521974238
30
-6.352673089795573
10
-22.750135036130867
20
-56.016505665145132
30
-6.352673089795573
10
-22.771023522924551
20
-55.978951367456354
30
-6.352673089795573
10
-22.792265390915254
20
-55.941463792803972
30
-6.352673089795573
10
-22.813858398671574
20
-55.904045132837581
30
-6.352673089795573
10
-22.83580022859941
20
-55.866697593220508
30
-6.352673089795573
10
-22.858088551904974
20
-55.829423356227679
30
-6.352673089795573
10
-22.880721071469601
20
-55.792224546794635
30
-6.352673089795573
10
-22.903695566229807
20
-55.755103203088751
30
-6.352673089795573
10
-22.927009944817691
20
-55.71806122851784
30
-6.352673089795573
10
-22.950662245869307
20
-55.681100411347053
30
-6.352673089795573
10
-22.974650577811914
20
-55.644222517777195
30
-6.352673089795573
10
-22.998973069649953
20
-55.607429370223748
30
-6.352673089795573
10
-23.02362782104824
20
-55.570722920087114
30
-6.352673089795573
10
-23.048612835324739
20
-55.53410534875367
30
-6.352673089795573
10
-23.073926007144607
20
-55.497579067857558
30
-6.352673089795573
10
-23.099565222711593
20
-55.46114651944437
30
-6.352673089795573
10
-23.125528434456022
20
-55.424810014998911
30
-6.352673089795573
10
-23.151813742006997
20
-55.388571565643787
30
-6.352673089795573
10
-23.178419472034637
20
-55.352432697291704
30
-6.352673089795573
10
-23.205344245033217
20
-55.31639432444706
30
-6.352673089795573
10
-23.232586976899469
20
-55.280456919407008
30
-6.352673089795573
10
-23.254634905789906
20
-55.251787895843954
30
-6.352673089795573
10
-23.271313371213882
20
-55.230331628410667
30
-6.352673089795573
10
-23.282495668801253
20
-55.216047665688464
30
-6.352673089795573
10
-23.288102647754112
20
-55.208910738221633
30
-6.352673089795573
0
SPLINE
5
143
100
AcDbEntity
8
0
100
AcDbSpline
70
0
71
5
72
81
73
75
74
0
42
0.000000001
43
0.0000000001
44
0.0000000001
40
0
40
0
40
0
40
0
40
0
40
0
40
0.014285714285714284
40
0.028571428571428567
40
0.042857142857142858
40
0.057142857142857134
40
0.071428571428571438
40
0.085714285714285715
40
0.10000000000000001
40
0.1142857142857143
40
0.12857142857142859
40
0.14285714285714288
40
0.15714285714285714
40
0.17142857142857146
40
0.18571428571428572
40
0.20000000000000004
40
0.21428571428571436
40
0.22857142857142865
40
0.24285714285714291
40
0.25714285714285717
40
0.27142857142857146
40
0.2857142857142857
40
0.30000000000000004
40
0.31428571428571433
40
0.32857142857142863
40
0.34285714285714292
40
0.35714285714285721
40
0.3714285714285715
40
0.38571428571428573
40
0.40000000000000008
40
0.41428571428571442
40
0.42857142857142871
40
0.44285714285714295
40
0.4571428571428573
40
0.47142857142857147
40
0.48571428571428582
40
0.50000000000000011
40
0.51428571428571435
40
0.52857142857142858
40
0.54285714285714282
40
0.55714285714285705
40
0.57142857142857129
40
0.58571428571428552
40
0.59999999999999976
40
0.61428571428571399
40
0.62857142857142823
40
0.64285714285714246
40
0.6571428571428567
40
0.67142857142857093
40
0.68571428571428517
40
0.6999999999999994
40
0.71428571428571364
40
0.72857142857142776
40
0.74285714285714211
40
0.75714285714285634
40
0.77142857142857058
40
0.78571428571428481
40
0.79999999999999905
40
0.81428571428571328
40
0.82857142857142752
40
0.84285714285714175
40
0.85714285714285599
40
0.87142857142857022
40
0.88571428571428445
40
0.89999999999999869
40
0.91428571428571281
40
0.92857142857142716
40
0.94285714285714117
40
0.95714285714285563
40
0.97142857142856975
40
0.98571428571428399
40
1
40
1
40
1
40
1
40
1
40
1
10
-27.911996347934746
20
-58.88210750126418
30
-6.352673089795573
10
-27.916076646841272
20
-58.875813679590372
30
-6.352673089795573
10
-27.924449704571785
20
-58.863406608107155
30
-6.352673089795573
10
-27.937646659470225
20
-58.845337705417542
30
-6.352673089795573
10
-27.956456106993599
20
-58.822271762740783
30
-6.352673089795573
10
-27.981635744644073
20
-58.794817650326614
30
-6.352673089795573
10
-28.008034008341617
20
-58.768324463066399
30
-6.352673089795573
10
-28.035208950353095
20
-58.742385877342201
30
-6.352673089795573
10
-28.062839481743183
20
-58.716714973018647
30
-6.352673089795573
10
-28.090805055045855
20
-58.691219788866903
30
-6.352673089795573
10
-28.11911417677419
20
-58.66593286125908
30
-6.352673089795573
10
-28.147852255376506
20
-58.640959376991162
30
-6.352673089795573
10
-28.177125617659815
20
-58.616421778892601
30
-6.352673089795573
10
-28.206998704566093
20
-58.592397404890086
30
-6.352673089795573
10
-28.237462823948558
20
-58.568887809441776
30
-6.352673089795573
10
-28.268468053013009
20
-58.54585133870296
30
-6.352673089795573
10
-28.299942076367621
20
-58.523222643826344
30
-6.352673089795573
10
-28.331812435428432
20
-58.50093555480516
30
-6.352673089795573
10
-28.36403165021343
20
-58.478948964207156
30
-6.352673089795573
10
-28.396584429591528
20
-58.457254292313465
30
-6.352673089795573
10
-28.429474106565404
20
-58.435861629766478
30
-6.352673089795573
10
-28.462714299076197
20
-58.414791242688082
30
-6.352673089795573
10
-28.496319258816261
20
-58.394063728601338
30
-6.352673089795573
10
-28.530292786685763
20
-58.373688709147075
30
-6.352673089795573
10
-28.564626590748993
20
-58.353663179574923
30
-6.352673089795573
10
-28.599305747760955
20
-58.333977124162899
30
-6.352673089795573
10
-28.634312187432442
20
-58.314617109493611
30
-6.352673089795573
10
-28.669628655408914
20
-58.295570365863568
30
-6.352673089795573
10
-28.705243294299081
20
-58.27682950440385
30
-6.352673089795573
10
-28.741149794106757
20
-58.258392685149161
30
-6.352673089795573
10
-28.777345125368026
20
-58.240261303539228
30
-6.352673089795573
10
-28.813827976349799
20
-58.222438399717106
30
-6.352673089795573
10
-28.8505970340563
20
-58.204926906703434
30
-6.352673089795573
10
-28.887648987797263
20
-58.187727615224944
30
-6.352673089795573
10
-28.924978551165719
20
-58.170839202086775
30
-6.352673089795573
10
-28.962579377679596
20
-58.154259172305615
30
-6.352673089795573
10
-29.000444707904542
20
-58.137984526314156
30
-6.352673089795573
10
-29.038568070118895
20
-58.122012481871124
30
-6.352673089795573
10
-29.076944097226054
20
-58.106341314127341
30
-6.352673089795573
10
-29.115568484303871
20
-58.090970318912838
30
-6.352673089795573
10
-29.154437590540915
20
-58.075899412814067
30
-6.352673089795573
10
-29.1935481453603
20
-58.061128839568958
30
-6.352673089795573
10
-29.232896935190187
20
-58.046658855637645
30
-6.352673089795573
10
-29.272480432884453
20
-58.03248935886031
30
-6.352673089795573
10
-29.312294802527674
20
-58.018619890324068
30
-6.352673089795573
10
-29.352336070300893
20
-58.005049801720133
30
-6.352673089795573
10
-29.392600245099658
20
-57.991778371345468
30
-6.352673089795573
10
-29.43308344665887
20
-57.978804929131336
30
-6.352673089795573
10
-29.473782058206872
20
-57.966129000742939
30
-6.352673089795573
10
-29.514692721320994
20
-57.953750316031872
30
-6.352673089795573
10
-29.555812244467727
20
-57.94166874164992
30
-6.352673089795573
10
-29.597137533686706
20
-57.929884233752027
30
-6.352673089795573
10
-29.63866552083493
20
-57.918396784406383
30
-6.352673089795573
10
-29.680393071250791
20
-57.907206358411933
30
-6.352673089795573
10
-29.722316986508268
20
-57.896312876621693
30
-6.352673089795573
10
-29.764434076800093
20
-57.885716235431147
30
-6.352673089795573
10
-29.806741215261752
20
-57.875416313088465
30
-6.352673089795573
10
-29.849235390162221
20
-57.865412980266548
30
-6.352673089795573
10
-29.891913776768497
20
-57.85570610405756
30
-6.352673089795573
10
-29.934773723692423
20
-57.84629556206216
30
-6.352673089795573
10
-29.977812644497519
20
-57.837181265629013
30
-6.352673089795573
10
-30.021027927547781
20
-57.828363180406797
30
-6.352673089795573
10
-30.064416849254876
20
-57.819841342504112
30
-6.352673089795573
10
-30.107976455278298
20
-57.811615882526596
30
-6.352673089795573
10
-30.151703551638633
20
-57.803687017060597
30
-6.352673089795573
10
-30.195594916869226
20
-57.796054978213448
30
-6.352673089795573
10
-30.239647468653086
20
-57.788719952601319
30
-6.352673089795573
10
-30.283858441146656
20
-57.781682018537495
30
-6.352673089795573
10
-30.328225572143779
20
-57.77494107178228
30
-6.352673089795573
10
-30.372747239534359
20
-57.768496783530111
30
-6.352673089795573
10
-30.417422342777112
20
-57.762348721168721
30
-6.352673089795573
10
-30.453284643778087
20
-57.757666900226845
30
-6.352673089795573
10
-30.480249971980182
20
-57.754288484026887
30
-6.352673089795573
10
-30.498257337336554
20
-57.752095275577076
30
-6.352673089795573
10
-30.507268639984719
20
-57.751013438607977
30
-6.352673089795573
0
CIRCLE
5
144
100
AcDbEntity
8
0
100
AcDbCircle
10
-23.829096235760421
20
-65.19426631214769
30
-6.352673089795573
40
3.0000000000000009
210
0
220
0
230
1
0
ARC
5
145
100
AcDbEntity
8
0
100
AcDbCircle
10
-23.829096235760421
20
-65.19426631214769
30
-6.352673089795573
40
10.000000000000002
210
0
220
0
230
1
100
AcDbArc
50
221.89882108566846
51
228.10117891433131
0
LINE
5
146
100
AcDbEntity
8
0
100
AcDbLine
10
-31.179512891088336
20
-66.770590255024047
30
-6.352673089795573
11
-29.722619887047259
21
-66.459733463940438
31
-6.352673089795573
0
LINE
5
147
100
AcDbEntity
8
0
100
AcDbLine
10
-27.911996347934746
20
-71.506425123031192
30
-6.352673089795573
11
-27.101626370267169
21
-70.256437255457371
31
-6.352673089795573
0
ARC
5
148
100
AcDbEntity
8
0
100
AcDbCircle
10
-29.618283652594755
20
-63.439806368812697
30
-6.352673089795573
40
0.49999999999999734
210
0
220
0
230
1
100
AcDbArc
50
257.95543312520005
51
343.14014431750616
0
LINE
5
149
100
AcDbEntity
8
0
100
AcDbLine
10
-29.722619887047259
20
-63.928799160354934
30
-6.352673089795573
11
-31.179512891088336
21
-63.617942369271319
31
-6.352673089795573
0
LINE
5
150
100
AcDbEntity
8
0
100
AcDbLine
10
-28.89126717907012
20
-68.466796446654428
30
-6.352673089795573
11
-30.141255046643927
21
-69.277166424322004
31
-6.352673089795573
0
ARC
5
151
100
AcDbEntity
8
0
100
AcDbCircle
10
-23.829096235760421
20
-65.19426631214769
30
-6.352673089795573
40
5.5492000000000008
210
0
220
0
230
1
100
AcDbArc
50
196.85985568249399
51
208.14014431750559
0
ARC
5
152
100
AcDbEntity
8
0
100
AcDbCircle
10
-23.829096235760421
20
-65.19426631214769
30
-6.352673089795573
40
5.5491999999999972
210
0
220
0
230
1
100
AcDbArc
50
151.85985568249404
51
163.14014431750576
0
ARC
5
153
100
AcDbEntity
8
0
100
AcDbCircle
10
-26.682079392511476
20
-70.528430515403414
30
-6.352673089795573
40
0.49999999999999462
210
0
220
-0
230
1
100
AcDbArc
50
61.859855682495109
51
147.04456687479802
0
LINE
5
154
100
AcDbEntity
8
0
100
AcDbLine
10
-30.14125504664392
20
-61.111366199973361
30
-6.352673089795573
11
-28.89126717907012
21
-61.921736177640938
31
-6.352673089795573
0
ARC
5
155
100
AcDbEntity
8
0
100
AcDbCircle
10
-29.163260439016145
20
-62.341283155396631
30
-6.352673089795573
40
0.50000000000000244
210
-0
220
0
230
1
100
AcDbArc
50
-28.140144317504276
51
57.044566874799706
0
SPLINE
5
156
100
AcDbEntity
8
0
100
AcDbSpline
70
0
71
5
72
81
73
75
74
0
42
0.000000001
43
0.0000000001
44
0.0000000001
40
-1
40
-1
40
-1
40
-1
40
-1
40
-1
40
-0.98571428571428399
40
-0.97142857142856975
40
-0.95714285714285563
40
-0.94285714285714117
40
-0.92857142857142716
40
-0.91428571428571281
40
-0.89999999999999869
40
-0.88571428571428445
40
-0.87142857142857022
40
-0.85714285714285599
40
-0.84285714285714175
40
-0.82857142857142752
40
-0.81428571428571328
40
-0.79999999999999905
40
-0.78571428571428481
40
-0.77142857142857058
40
-0.75714285714285634
40
-0.74285714285714211
40
-0.72857142857142776
40
-0.71428571428571364
40
-0.6999999999999994
40
-0.68571428571428517
40
-0.67142857142857093
40
-0.6571428571428567
40
-0.64285714285714246
40
-0.62857142857142823
40
-0.61428571428571399
40
-0.59999999999999976
40
-0.58571428571428552
40
-0.57142857142857129
40
-0.55714285714285705
40
-0.54285714285714282
40
-0.52857142857142858
40
-0.51428571428571435
40
-0.50000000000000011
40
-0.48571428571428582
40
-0.47142857142857147
40
-0.4571428571428573
40
-0.44285714285714295
40
-0.42857142857142871
40
-0.41428571428571442
40
-0.40000000000000008
40
-0.38571428571428573
40
-0.3714285714285715
40
-0.35714285714285721
40
-0.34285714285714292
40
-0.32857142857142863
40
-0.31428571428571433
40
-0.30000000000000004
40
-0.2857142857142857
40
-0.27142857142857146
40
-0.25714285714285717
40
-0.24285714285714291
40
-0.22857142857142865
40
-0.21428571428571436
40
-0.20000000000000004
40
-0.18571428571428572
40
-0.17142857142857146
40
-0.15714285714285714
40
-0.14285714285714288
40
-0.12857142857142859
40
-0.1142857142857143
40
-0.10000000000000001
40
-0.085714285714285715
40
-0.071428571428571438
40
-0.057142857142857134
40
-0.042857142857142858
40
-0.028571428571428567
40
-0.014285714285714284
40
-0
40
-0
40
-0
40
-0
40
-0
40
-0
10
-24.37008982376673
20
-55.208910738221633
30
-6.352673089795573
10
-24.375696802719578
20
-55.216047665688464
30
-6.352673089795573
10
-24.38687910030696
20
-55.230331628410667
30
-6.352673089795573
10
-24.403557565730924
20
-55.251787895843954
30
-6.352673089795573
10
-24.425605494621365
20
-55.280456919407008
30
-6.352673089795573
10
-24.452848226487617
20
-55.31639432444706
30
-6.352673089795573
10
-24.479772999486205
20
-55.352432697291704
30
-6.352673089795573
10
-24.506378729513834
20
-55.388571565643787
30
-6.352673089795573
10
-24.532664037064819
20
-55.424810014998911
30
-6.352673089795573
10
-24.558627248809248
20
-55.46114651944437
30
-6.352673089795573
10
-24.584266464376235
20
-55.497579067857558
30
-6.352673089795573
10
-24.609579636196102
20
-55.53410534875367
30
-6.352673089795573
10
-24.634564650472601
20
-55.570722920087114
30
-6.352673089795573
10
-24.659219401870889
20
-55.607429370223748
30
-6.352673089795573
10
-24.68354189370892
20
-55.644222517777195
30
-6.352673089795573
10
-24.707530225651535
20
-55.681100411347053
30
-6.352673089795573
10
-24.731182526703144
20
-55.71806122851784
30
-6.352673089795573
10
-24.754496905291035
20
-55.755103203088751
30
-6.352673089795573
10
-24.77747140005124
20
-55.792224546794635
30
-6.352673089795573
10
-24.800103919615868
20
-55.829423356227679
30
-6.352673089795573
10
-24.822392242921431
20
-55.866697593220508
30
-6.352673089795573
10
-24.844334072849268
20
-55.904045132837581
30
-6.352673089795573
10
-24.865927080605587
20
-55.941463792803972
30
-6.352673089795573
10
-24.88716894859629
20
-55.978951367456354
30
-6.352673089795573
10
-24.908057435389974
20
-56.016505665145132
30
-6.352673089795573
10
-24.928590365873291
20
-56.054124521974238
30
-6.352673089795573
10
-24.94876552128277
20
-56.09180578118643
30
-6.352673089795573
10
-24.968580550571964
20
-56.129547280318178
30
-6.352673089795573
10
-24.988032887953679
20
-56.167346835629786
30
-6.352673089795573
10
-25.007119640578797
20
-56.205202225082836
30
-6.352673089795573
10
-25.025837590875398
20
-56.243111178725734
30
-6.352673089795573
10
-25.044183406385354
20
-56.28107138474256
30
-6.352673089795573
10
-25.062153818770803
20
-56.319080491642517
30
-6.352673089795573
10
-25.079745791129504
20
-56.357136111524198
30
-6.352673089795573
10
-25.096956757154629
20
-56.395235822556586
30
-6.352673089795573
10
-25.113784625852446
20
-56.43337717105652
30
-6.352673089795573
10
-25.130227256924577
20
-56.471557672028183
30
-6.352673089795573
10
-25.146282016946309
20
-56.509774810011393
30
-6.352673089795573
10
-25.161945363954636
20
-56.54802603888988
30
-6.352673089795573
10
-25.177212283186581
20
-56.58630878320578
30
-6.352673089795573
10
-25.192076231102227
20
-56.624620434102496
30
-6.352673089795573
10
-25.206530307045327
20
-56.662958332952542
30
-6.352673089795573
10
-25.220568259155726
20
-56.701319756335025
30
-6.352673089795573
10
-25.234185413739169
20
-56.739701901835801
30
-6.352673089795573
10
-25.247379988912321
20
-56.778101869315094
30
-6.352673089795573
10
-25.260153130205801
20
-56.816516656385893
30
-6.352673089795573
10
-25.272506059789972
20
-56.85494318580708
30
-6.352673089795573
10
-25.284437622235288
20
-56.893378328699256
30
-6.352673089795573
10
-25.295942054648684
20
-56.931818924273315
30
-6.352673089795573
10
-25.307005747869063
20
-56.97026181280674
30
-6.352673089795573
10
-25.317607471681399
20
-57.008703823172375
30
-6.352673089795573
10
-25.327724949601127
20
-57.047141676606742
30
-6.352673089795573
10
-25.337340547115559
20
-57.085571902967018
30
-6.352673089795573
10
-25.346446276261389
20
-57.1239907636486
30
-6.352673089795573
10
-25.355051628208358
20
-57.162394142766281
30
-6.352673089795573
10
-25.363181245073001
20
-57.200777553140156
30
-6.352673089795573
10
-25.370859086506073
20
-57.239136293796527
30
-6.352673089795573
10
-25.378094644458031
20
-57.277465586362517
30
-6.352673089795573
10
-25.384871039688992
20
-57.315760685153059
30
-6.352673089795573
10
-25.39112563143761
20
-57.354017084094991
30
-6.352673089795573
10
-25.396760394487305
20
-57.39223033649273
30
-6.352673089795573
10
-25.401677985521076
20
-57.430395516255395
30
-6.352673089795573
10
-25.405813650076531
20
-57.46850677635274
30
-6.352673089795573
10
-25.409162341045672
20
-57.506556871340919
30
-6.352673089795573
10
-25.411824311227935
20
-57.544536681674586
30
-6.352673089795573
10
-25.413961325184609
20
-57.582434811604998
30
-6.352673089795573
10
-25.41570815410541
20
-57.620237275728385
30
-6.352673089795573
10
-25.417093819692738
20
-57.657927082368481
30
-6.352673089795573
10
-25.417968055607449
20
-57.695484018003128
30
-6.352673089795573
10
-25.417900934512581
20
-57.732883921642149
30
-6.352673089795573
10
-25.416292637983542
20
-57.770101603232135
30
-6.352673089795573
10
-25.413282841396494
20
-57.79971197560748
30
-6.352673089795573
10
-25.409837854075779
20
-57.8218202755276
30
-6.352673089795573
10
-25.406985375595823
20
-57.83651404580857
30
-6.352673089795573
10
-25.405420178636781
20
-57.843849656819764
30
-6.352673089795573
0
SPLINE
5
157
100
AcDbEntity
8
0
100
AcDbSpline
70
0
71
5
72
81
73
75
74
0
42
0.000000001
43
0.0000000001
44
0.0000000001
40
-1
40
-1
40
-1
40
-1
40
-1
40
-1
40
-0.98571428571428399
40
-0.97142857142856975
40
-0.95714285714285563
40
-0.94285714285714117
40
-0.92857142857142716
40
-0.91428571428571281
40
-0.89999999999999869
40
-0.88571428571428445
40
-0.87142857142857022
40
-0.85714285714285599
40
-0.84285714285714175
40
-0.82857142857142752
40
-0.81428571428571328
40
-0.79999999999999905
40
-0.78571428571428481
40
-0.77142857142857058
40
-0.75714285714285634
40
-0.74285714285714211
40
-0.72857142857142776
40
-0.71428571428571364
40
-0.6999999999999994
40
-0.68571428571428517
40
-0.67142857142857093
40
-0.6571428571428567
40
-0.64285714285714246
40
-0.62857142857142823
40
-0.61428571428571399
40
-0.59999999999999976
40
-0.58571428571428552
40
-0.57142857142857129
40
-0.55714285714285705
40
-0.54285714285714282
40
-0.52857142857142858
40
-0.51428571428571435
40
-0.50000000000000011
40
-0.48571428571428582
40
-0.47142857142857147
40
-0.4571428571428573
40
-0.44285714285714295
40
-0.42857142857142871
40
-0.41428571428571442
40
-0.40000000000000008
40
-0.38571428571428573
40
-0.3714285714285715
40
-0.35714285714285721
40
-0.34285714285714292
40
-0.32857142857142863
40
-0.31428571428571433
40
-0.30000000000000004
40
-0.2857142857142857
40
-0.27142857142857146
40
-0.25714285714285717
40
-0.24285714285714291
40
-0.22857142857142865
40
-0.21428571428571436
40
-0.20000000000000004
40
-0.18571428571428572
40
-0.17142857142857146
40
-0.15714285714285714
40
-0.14285714285714288
40
-0.12857142857142859
40
-0.1142857142857143
40
-0.10000000000000001
40
-0.085714285714285715
40
-0.071428571428571438
40
-0.057142857142857134
40
-0.042857142857142858
40
-0.028571428571428567
40
-0.014285714285714284
40
-0
40
-0
40
-0
40
-0
40
-0
40
-0
10
-31.272349109300119
20
-58.516093907923391
30
-6.352673089795573
10
-31.271267272331027
20
-58.525105210571553
30
-6.352673089795573
10
-31.269074063881213
20
-58.543112575927921
30
-6.352673089795573
10
-31.265695647681255
20
-58.570077904130017
30
-6.352673089795573
10
-31.26101382673939
20
-58.605940205130992
30
-6.352673089795573
10
-31.254865764377982
20
-58.650615308373744
30
-6.352673089795573
10
-31.24842147612582
20
-58.695136975764314
30
-6.352673089795573
10
-31.241680529370612
20
-58.739504106761451
30
-6.352673089795573
10
-31.234642595306781
20
-58.783715079255018
30
-6.352673089795573
10
-31.227307569694656
20
-58.827767631038881
30
-6.352673089795573
10
-31.219675530847503
20
-58.871658996269474
30
-6.352673089795573
10
-31.211746665381508
20
-58.915386092629802
30
-6.352673089795573
10
-31.203521205403995
20
-58.958945698653231
30
-6.352673089795573
10
-31.194999367501303
20
-59.00233462036033
30
-6.352673089795573
10
-31.186181282279097
20
-59.045549903410581
30
-6.352673089795573
10
-31.177066985845947
20
-59.088588824215684
30
-6.352673089795573
10
-31.167656443850547
20
-59.13144877113961
30
-6.352673089795573
10
-31.157949567641552
20
-59.174127157745879
30
-6.352673089795573
10
-31.147946234819646
20
-59.216621332646341
30
-6.352673089795573
10
-31.137646312476956
20
-59.258928471108007
30
-6.352673089795573
10
-31.127049671286411
20
-59.301045561399839
30
-6.352673089795573
10
-31.116156189496174
20
-59.342969476657302
30
-6.352673089795573
10
-31.104965763501717
20
-59.384697027073173
30
-6.352673089795573
10
-31.09347831415608
20
-59.426225014221401
30
-6.352673089795573
10
-31.08169380625819
20
-59.467550303440376
30
-6.352673089795573
10
-31.069612231876231
20
-59.508669826587102
30
-6.352673089795573
10
-31.057233547165168
20
-59.549580489701235
30
-6.352673089795573
10
-31.044557618776771
20
-59.590279101249237
30
-6.352673089795573
10
-31.031584176562639
20
-59.630762302808449
30
-6.352673089795573
10
-31.018312746187977
20
-59.671026477607199
30
-6.352673089795573
10
-31.004742657584032
20
-59.711067745380426
30
-6.352673089795573
10
-30.99087318904779
20
-59.750882115023657
30
-6.352673089795573
10
-30.976703692270462
20
-59.790465612717924
30
-6.352673089795573
10
-30.962233708339149
20
-59.829814402547811
30
-6.352673089795573
10
-30.947463135094033
20
-59.868924957367184
30
-6.352673089795573
10
-30.932392228995269
20
-59.907794063604236
30
-6.352673089795573
10
-30.917021233780765
20
-59.946418450682046
30
-6.352673089795573
10
-30.901350066036972
20
-59.984794477789208
30
-6.352673089795573
10
-30.885378021593954
20
-60.022917840003565
30
-6.352673089795573
10
-30.869103375602485
20
-60.060783170228511
30
-6.352673089795573
10
-30.852523345821332
20
-60.098383996742385
30
-6.352673089795573
10
-30.835634932683156
20
-60.135713560110844
30
-6.352673089795573
10
-30.818435641204669
20
-60.1727655138518
30
-6.352673089795573
10
-30.800924148191005
20
-60.209534571558308
30
-6.352673089795573
10
-30.783101244368865
20
-60.246017422540071
30
-6.352673089795573
10
-30.764969862758935
20
-60.282212753801339
30
-6.352673089795573
10
-30.746533043504243
20
-60.318119253609019
30
-6.352673089795573
10
-30.727792182044542
20
-60.353733892499186
30
-6.352673089795573
10
-30.708745438414489
20
-60.389050360475665
30
-6.352673089795573
10
-30.689385423745197
20
-60.424056800147156
30
-6.352673089795573
10
-30.669699368333188
20
-60.458735957159107
30
-6.352673089795573
10
-30.649673838761036
20
-60.493069761222344
30
-6.352673089795573
10
-30.629298819306765
20
-60.527043289091836
30
-6.352673089795573
10
-30.608571305220025
20
-60.56064824883191
30
-6.352673089795573
10
-30.587500918141632
20
-60.593888441342692
30
-6.352673089795573
10
-30.566108255594635
20
-60.626778118316579
30
-6.352673089795573
10
-30.544413583700944
20
-60.659330897694673
30
-6.352673089795573
10
-30.522426993102947
20
-60.691550112479661
30
-6.352673089795573
10
-30.500139904081756
20
-60.723420471540479
30
-6.352673089795573
10
-30.477511209205144
20
-60.754894494895098
30
-6.352673089795573
10
-30.454474738466331
20
-60.785899723959545
30
-6.352673089795573
10
-30.430965143018021
20
-60.816363843342003
30
-6.352673089795573
10
-30.406940769015502
20
-60.846236930248295
30
-6.352673089795573
10
-30.382403170916945
20
-60.875510292531601
30
-6.352673089795573
10
-30.357429686649027
20
-60.904248371133903
30
-6.352673089795573
10
-30.33214275904119
20
-60.932557492862252
30
-6.352673089795573
10
-30.30664757488946
20
-60.960523066164924
30
-6.352673089795573
10
-30.280976670565892
20
-60.988153597554998
30
-6.352673089795573
10
-30.255038084841701
20
-61.015328539566489
30
-6.352673089795573
10
-30.228544897581486
20
-61.041726803264034
30
-6.352673089795573
10
-30.201090785167317
20
-61.066906440914501
30
-6.352673089795573
10
-30.178024842490558
20
-61.085715888437882
30
-6.352673089795573
10
-30.159955939800955
20
-61.098912843336315
30
-6.352673089795573
10
-30.147548868317724
20
-61.107285901066824
30
-6.352673089795573
10
-30.14125504664392
20
-61.111366199973361
30
-6.352673089795573
0
ARC
5
158
100
AcDbEntity
8
0
100
AcDbCircle
10
-26.682079392511476
20
-59.860102108891965
30
-6.352673089795573
40
0.49999999999998962
210
0
220
0
230
1
100
AcDbArc
50
212.9554331251997
51
298.14014431750599
0
ARC
5
159
100
AcDbEntity
8
0
100
AcDbCircle
10
-23.829096235760421
20
-65.19426631214769
30
-6.352673089795573
40
5.5492000000000044
210
0
220
0
230
1
100
AcDbArc
50
106.85985568249413
51
118.14014431750581
0
ARC
5
160
100
AcDbEntity
8
0
100
AcDbCircle
10
-29.163260439016145
20
-68.047249468898741
30
-6.352673089795573
40
0.50000000000000189
210
-0
220
0
230
1
100
AcDbArc
50
-57.044566874799251
51
28.140144317507762
0
SPLINE
5
161
100
AcDbEntity
8
0
100
AcDbSpline
70
0
71
5
72
81
73
75
74
0
42
0.000000001
43
0.0000000001
44
0.0000000001
40
0
40
0
40
0
40
0
40
0
40
0
40
0.014285714285714284
40
0.028571428571428567
40
0.042857142857142858
40
0.057142857142857134
40
0.071428571428571438
40
0.085714285714285715
40
0.10000000000000001
40
0.1142857142857143
40
0.12857142857142859
40
0.14285714285714288
40
0.15714285714285714
40
0.17142857142857146
40
0.18571428571428572
40
0.20000000000000004
40
0.21428571428571436
40
0.22857142857142865
40
0.24285714285714291
40
0.25714285714285717
40
0.27142857142857146
40
0.2857142857142857
40
0.30000000000000004
40
0.31428571428571433
40
0.32857142857142863
40
0.34285714285714292
40
0.35714285714285721
40
0.3714285714285715
40
0.38571428571428573
40
0.40000000000000008
40
0.41428571428571442
40
0.42857142857142871
40
0.44285714285714295
40
0.4571428571428573
40
0.47142857142857147
40
0.48571428571428582
40
0.50000000000000011
40
0.51428571428571435
40
0.52857142857142858
40
0.54285714285714282
40
0.55714285714285705
40
0.57142857142857129
40
0.58571428571428552
40
0.59999999999999976
40
0.61428571428571399
40
0.62857142857142823
40
0.64285714285714246
40
0.6571428571428567
40
0.67142857142857093
40
0.68571428571428517
40
0.6999999999999994
40
0.71428571428571364
40
0.72857142857142776
40
0.74285714285714211
40
0.75714285714285634
40
0.77142857142857058
40
0.78571428571428481
40
0.79999999999999905
40
0.81428571428571328
40
0.82857142857142752
40
0.84285714285714175
40
0.85714285714285599
40
0.87142857142857022
40
0.88571428571428445
40
0.89999999999999869
40
0.91428571428571281
40
0.92857142857142716
40
0.94285714285714117
40
0.95714285714285563
40
0.97142857142856975
40
0.98571428571428399
40
1
40
1
40
1
40
1
40
1
40
1
10
-31.179512891088336
20
-63.617942369271319
30
-6.352673089795573
10
-31.18684850209954
20
-63.616377172312269
30
-6.352673089795573
10
-31.201542272380507
20
-63.613524693832318
30
-6.352673089795573
10
-31.22365057230062
20
-63.610079706511598
30
-6.352673089795573
10
-31.253260944675976
20
-63.607069909924562
30
-6.352673089795573
10
-31.290478626265958
20
-63.605461613395519
30
-6.352673089795573
10
-31.327878529904982
20
-63.605394492300661
30
-6.352673089795573
10
-31.365435465539626
20
-63.606268728215355
30
-6.352673089795573
10
-31.403125272179714
20
-63.60765439380269
30
-6.352673089795573
10
-31.440927736303095
20
-63.609401222723491
30
-6.352673089795573
10
-31.478825866233517
20
-63.611538236680161
30
-6.352673089795573
10
-31.516805676567181
20
-63.614200206862428
30
-6.352673089795573
10
-31.554855771555363
20
-63.617548897831568
30
-6.352673089795573
10
-31.592967031652712
20
-63.621684562387031
30
-6.352673089795573
10
-31.63113221141538
20
-63.626602153420791
30
-6.352673089795573
10
-31.669345463813112
20
-63.632236916470497
30
-6.352673089795573
10
-31.707601862755048
20
-63.638491508219104
30
-6.352673089795573
10
-31.745896961545583
20
-63.645267903450069
30
-6.352673089795573
10
-31.78422625411158
20
-63.65250346140202
30
-6.352673089795573
10
-31.822584994767944
20
-63.660181302835099
30
-6.352673089795573
10
-31.860968405141826
20
-63.668310919699749
30
-6.352673089795573
10
-31.8993717842595
20
-63.676916271646718
30
-6.352673089795573
10
-31.937790644941089
20
-63.686022000792548
30
-6.352673089795573
10
-31.976220871301358
20
-63.695637598306973
30
-6.352673089795573
10
-32.014658724735725
20
-63.705755076226694
30
-6.352673089795573
10
-32.053100735101353
20
-63.716356800039037
30
-6.352673089795573
10
-32.091543623634792
20
-63.727420493259416
30
-6.352673089795573
10
-32.129984219208851
20
-63.738924925672805
30
-6.352673089795573
10
-32.168419362101027
20
-63.750856488118124
30
-6.352673089795573
10
-32.206845891522214
20
-63.763209417702299
30
-6.352673089795573
10
-32.245260678593013
20
-63.775982558995779
30
-6.352673089795573
10
-32.283660646072306
20
-63.789177134168931
30
-6.352673089795573
10
-32.322042791573082
20
-63.802794288752381
30
-6.352673089795573
10
-32.360404214955565
20
-63.81683224086278
30
-6.352673089795573
10
-32.398742113805611
20
-63.831286316805873
30
-6.352673089795573
10
-32.437053764702327
20
-63.846150264721516
30
-6.352673089795573
10
-32.475336509018227
20
-63.861417183953471
30
-6.352673089795573
10
-32.513587737896714
20
-63.877080530961798
30
-6.352673089795573
10
-32.551804875879924
20
-63.893135290983523
30
-6.352673089795573
10
-32.589985376851587
20
-63.909577922055661
30
-6.352673089795573
10
-32.628126725351514
20
-63.926405790753471
30
-6.352673089795573
10
-32.666226436383909
20
-63.943616756778596
30
-6.352673089795573
10
-32.70428205626559
20
-63.961208729137297
30
-6.352673089795573
10
-32.742291163165547
20
-63.979179141522742
30
-6.352673089795573
10
-32.780251369182366
20
-63.997524957032709
30
-6.352673089795573
10
-32.818160322825264
20
-64.016242907329314
30
-6.352673089795573
10
-32.856015712278321
20
-64.035329659954414
30
-6.352673089795573
10
-32.893815267589936
20
-64.054781997336136
30
-6.352673089795573
10
-32.93155676672167
20
-64.074597026625341
30
-6.352673089795573
10
-32.969238025933876
20
-64.094772182034802
30
-6.352673089795573
10
-33.006856882762989
20
-64.115305112518129
30
-6.352673089795573
10
-33.044411180451753
20
-64.13619359931181
30
-6.352673089795573
10
-33.08189875510412
20
-64.15743546730252
30
-6.352673089795573
10
-33.119317415070533
20
-64.179028475058828
30
-6.352673089795573
10
-33.156664954687585
20
-64.200970304986683
30
-6.352673089795573
10
-33.193939191680421
20
-64.223258628292243
30
-6.352673089795573
10
-33.231138001113479
20
-64.245891147856867
30
-6.352673089795573
10
-33.268259344819356
20
-64.268865642617072
30
-6.352673089795573
10
-33.305301319390274
20
-64.292180021204956
30
-6.352673089795573
10
-33.342262136561061
20
-64.315832322256568
30
-6.352673089795573
10
-33.379140030130927
20
-64.339820654199173
30
-6.352673089795573
10
-33.415933177684359
20
-64.364143146037208
30
-6.352673089795573
10
-33.452639627820993
20
-64.388797897435509
30
-6.352673089795573
10
-33.489257199154451
20
-64.413782911711991
30
-6.352673089795573
10
-33.525783480050563
20
-64.439096083531865
30
-6.352673089795573
10
-33.562216028463745
20
-64.464735299098848
30
-6.352673089795573
10
-33.598552532909196
20
-64.490698510843288
30
-6.352673089795573
10
-33.63479098226432
20
-64.516983818394266
30
-6.352673089795573
10
-33.670929850616417
20
-64.543589548421892
30
-6.352673089795573
10
-33.706968223461054
20
-64.57051432142049
30
-6.352673089795573
10
-33.742905628501106
20
-64.597757053286728
30
-6.352673089795573
10
-33.771574652064153
20
-64.619804982177172
30
-6.352673089795573
10
-33.793030919497433
20
-64.636483447601137
30
-6.352673089795573
10
-33.807314882219643
20
-64.647665745188519
30
-6.352673089795573
10
-33.814451809686481
20
-64.653272724141374
30
-6.352673089795573
0
SPLINE
5
162
100
AcDbEntity
8
0
100
AcDbSpline
70
0
71
5
72
81
73
75
74
0
42
0.000000001
43
0.0000000001
44
0.0000000001
40
-1
40
-1
40
-1
40
-1
40
-1
40
-1
40
-0.98571428571428399
40
-0.97142857142856975
40
-0.95714285714285563
40
-0.94285714285714117
40
-0.92857142857142716
40
-0.91428571428571281
40
-0.89999999999999869
40
-0.88571428571428445
40
-0.87142857142857022
40
-0.85714285714285599
40
-0.84285714285714175
40
-0.82857142857142752
40
-0.81428571428571328
40
-0.79999999999999905
40
-0.78571428571428481
40
-0.77142857142857058
40
-0.75714285714285634
40
-0.74285714285714211
40
-0.72857142857142776
40
-0.71428571428571364
40
-0.6999999999999994
40
-0.68571428571428517
40
-0.67142857142857093
40
-0.6571428571428567
40
-0.64285714285714246
40
-0.62857142857142823
40
-0.61428571428571399
40
-0.59999999999999976
40
-0.58571428571428552
40
-0.57142857142857129
40
-0.55714285714285705
40
-0.54285714285714282
40
-0.52857142857142858
40
-0.51428571428571435
40
-0.50000000000000011
40
-0.48571428571428582
40
-0.47142857142857147
40
-0.4571428571428573
40
-0.44285714285714295
40
-0.42857142857142871
40
-0.41428571428571442
40
-0.40000000000000008
40
-0.38571428571428573
40
-0.3714285714285715
40
-0.35714285714285721
40
-0.34285714285714292
40
-0.32857142857142863
40
-0.31428571428571433
40
-0.30000000000000004
40
-0.2857142857142857
40
-0.27142857142857146
40
-0.25714285714285717
40
-0.24285714285714291
40
-0.22857142857142865
40
-0.21428571428571436
40
-0.20000000000000004
40
-0.18571428571428572
40
-0.17142857142857146
40
-0.15714285714285714
40
-0.14285714285714288
40
-0.12857142857142859
40
-0.1142857142857143
40
-0.10000000000000001
40
-0.085714285714285715
40
-0.071428571428571438
40
-0.057142857142857134
40
-0.042857142857142858
40
-0.028571428571428567
40
-0.014285714285714284
40
-0
40
-0
40
-0
40
-0
40
-0
40
-0
10
-33.814451809686481
20
-65.735259900153977
30
-6.352673089795573
10
-33.807314882219643
20
-65.740866879106846
30
-6.352673089795573
10
-33.793030919497433
20
-65.752049176694229
30
-6.352673089795573
10
-33.771574652064153
20
-65.768727642118193
30
-6.352673089795573
10
-33.742905628501106
20
-65.790775571008624
30
-6.352673089795573
10
-33.706968223461054
20
-65.81801830287489
30
-6.352673089795573
10
-33.670929850616417
20
-65.844943075873474
30
-6.352673089795573
10
-33.63479098226432
20
-65.871548805901085
30
-6.352673089795573
10
-33.598552532909196
20
-65.897834113452078
30
-6.352673089795573
10
-33.562216028463745
20
-65.923797325196517
30
-6.352673089795573
10
-33.525783480050563
20
-65.949436540763486
30
-6.352673089795573
10
-33.489257199154451
20
-65.97474971258336
30
-6.352673089795573
10
-33.452639627820993
20
-65.999734726859856
30
-6.352673089795573
10
-33.415933177684359
20
-66.024389478258158
30
-6.352673089795573
10
-33.379140030130927
20
-66.048711970096178
30
-6.352673089795573
10
-33.342262136561061
20
-66.072700302038783
30
-6.352673089795573
10
-33.305301319390274
20
-66.096352603090409
30
-6.352673089795573
10
-33.268259344819356
20
-66.119666981678307
30
-6.352673089795573
10
-33.231138001113479
20
-66.142641476438513
30
-6.352673089795573
10
-33.193939191680421
20
-66.165273996003123
30
-6.352673089795573
10
-33.156664954687585
20
-66.187562319308682
30
-6.352673089795573
10
-33.119317415070533
20
-66.209504149236537
30
-6.352673089795573
10
-33.08189875510412
20
-66.231097156992845
30
-6.352673089795573
10
-33.044411180451753
20
-66.252339024983542
30
-6.352673089795573
10
-33.006856882762989
20
-66.273227511777236
30
-6.352673089795573
10
-32.969238025933876
20
-66.293760442260563
30
-6.352673089795573
10
-32.93155676672167
20
-66.313935597670024
30
-6.352673089795573
10
-32.893815267589936
20
-66.333750626959215
30
-6.352673089795573
10
-32.856015712278321
20
-66.353202964340952
30
-6.352673089795573
10
-32.818160322825264
20
-66.372289716966037
30
-6.352673089795573
10
-32.780251369182366
20
-66.391007667262656
30
-6.352673089795573
10
-32.742291163165547
20
-66.409353482772616
30
-6.352673089795573
10
-32.70428205626559
20
-66.427323895158068
30
-6.352673089795573
10
-32.666226436383909
20
-66.444915867516769
30
-6.352673089795573
10
-32.628126725351514
20
-66.462126833541902
30
-6.352673089795573
10
-32.589985376851587
20
-66.478954702239704
30
-6.352673089795573
10
-32.551804875879924
20
-66.495397333311843
30
-6.352673089795573
10
-32.513587737896714
20
-66.511452093333574
30
-6.352673089795573
10
-32.475336509018227
20
-66.527115440341902
30
-6.352673089795573
10
-32.437053764702327
20
-66.54238235957385
30
-6.352673089795573
10
-32.398742113805611
20
-66.557246307489493
30
-6.352673089795573
10
-32.360404214955565
20
-66.571700383432585
30
-6.352673089795573
10
-32.322042791573082
20
-66.585738335542985
30
-6.352673089795573
10
-32.283660646072306
20
-66.599355490126442
30
-6.352673089795573
10
-32.245260678593013
20
-66.612550065299587
30
-6.352673089795573
10
-32.206845891522214
20
-66.625323206593066
30
-6.352673089795573
10
-32.168419362101027
20
-66.637676136177234
30
-6.352673089795573
10
-32.129984219208851
20
-66.649607698622546
30
-6.352673089795573
10
-32.091543623634792
20
-66.661112131035935
30
-6.352673089795573
10
-32.053100735101353
20
-66.672175824256328
30
-6.352673089795573
10
-32.014658724735725
20
-66.682777548068657
30
-6.352673089795573
10
-31.976220871301358
20
-66.692895025988378
30
-6.352673089795573
10
-31.937790644941089
20
-66.702510623502818
30
-6.352673089795573
10
-31.8993717842595
20
-66.711616352648647
30
-6.352673089795573
10
-31.860968405141826
20
-66.720221704595616
30
-6.352673089795573
10
-31.822584994767944
20
-66.728351321460266
30
-6.352673089795573
10
-31.78422625411158
20
-66.736029162893331
30
-6.352673089795573
10
-31.745896961545583
20
-66.743264720845303
30
-6.352673089795573
10
-31.707601862755048
20
-66.750041116076261
30
-6.352673089795573
10
-31.669345463813112
20
-66.756295707824876
30
-6.352673089795573
10
-31.63113221141538
20
-66.761930470874574
30
-6.352673089795573
10
-31.592967031652712
20
-66.766848061908334
30
-6.352673089795573
10
-31.554855771555363
20
-66.770983726463811
30
-6.352673089795573
10
-31.516805676567181
20
-66.774332417432944
30
-6.352673089795573
10
-31.478825866233517
20
-66.776994387615204
30
-6.352673089795573
10
-31.440927736303095
20
-66.779131401571874
30
-6.352673089795573
10
-31.403125272179714
20
-66.780878230492675
30
-6.352673089795573
10
-31.365435465539626
20
-66.782263896079996
30
-6.352673089795573
10
-31.327878529904982
20
-66.78313813199469
30
-6.352673089795573
10
-31.290478626265958
20
-66.783071010899846
30
-6.352673089795573
10
-31.253260944675976
20
-66.78146271437079
30
-6.352673089795573
10
-31.22365057230062
20
-66.778452917783753
30
-6.352673089795573
10
-31.201542272380507
20
-66.775007930463048
30
-6.352673089795573
10
-31.18684850209954
20
-66.772155451983082
30
-6.352673089795573
10
-31.179512891088336
20
-66.770590255024047
30
-6.352673089795573
0
SPLINE
5
163
100
AcDbEntity
8
0
100
AcDbSpline
70
0
71
5
72
81
73
75
74
0
42
0.000000001
43
0.0000000001
44
0.0000000001
40
-1
40
-1
40
-1
40
-1
40
-1
40
-1
40
-0.98571428571428399
40
-0.97142857142856975
40
-0.95714285714285563
40
-0.94285714285714117
40
-0.92857142857142716
40
-0.91428571428571281
40
-0.89999999999999869
40
-0.88571428571428445
40
-0.87142857142857022
40
-0.85714285714285599
40
-0.84285714285714175
40
-0.82857142857142752
40
-0.81428571428571328
40
-0.79999999999999905
40
-0.78571428571428481
40
-0.77142857142857058
40
-0.75714285714285634
40
-0.74285714285714211
40
-0.72857142857142776
40
-0.71428571428571364
40
-0.6999999999999994
40
-0.68571428571428517
40
-0.67142857142857093
40
-0.6571428571428567
40
-0.64285714285714246
40
-0.62857142857142823
40
-0.61428571428571399
40
-0.59999999999999976
40
-0.58571428571428552
40
-0.57142857142857129
40
-0.55714285714285705
40
-0.54285714285714282
40
-0.52857142857142858
40
-0.51428571428571435
40
-0.50000000000000011
40
-0.48571428571428582
40
-0.47142857142857147
40
-0.4571428571428573
40
-0.44285714285714295
40
-0.42857142857142871
40
-0.41428571428571442
40
-0.40000000000000008
40
-0.38571428571428573
40
-0.3714285714285715
40
-0.35714285714285721
40
-0.34285714285714292
40
-0.32857142857142863
40
-0.31428571428571433
40
-0.30000000000000004
40
-0.2857142857142857
40
-0.27142857142857146
40
-0.25714285714285717
40
-0.24285714285714291
40
-0.22857142857142865
40
-0.21428571428571436
40
-0.20000000000000004
40
-0.18571428571428572
40
-0.17142857142857146
40
-0.15714285714285714
40
-0.14285714285714288
40
-0.12857142857142859
40
-0.1142857142857143
40
-0.10000000000000001
40
-0.085714285714285715
40
-0.071428571428571438
40
-0.057142857142857134
40
-0.042857142857142858
40
-0.028571428571428567
40
-0.014285714285714284
40
-0
40
-0
40
-0
40
-0
40
-0
40
-0
10
-30.507268639984719
20
-72.637519185687381
30
-6.352673089795573
10
-30.498257337336554
20
-72.636437348718275
30
-6.352673089795573
10
-30.480249971980182
20
-72.634244140268464
30
-6.352673089795573
10
-30.453284643778087
20
-72.630865724068514
30
-6.352673089795573
10
-30.417422342777112
20
-72.626183903126645
30
-6.352673089795573
10
-30.372747239534359
20
-72.62003584076524
30
-6.352673089795573
10
-30.328225572143779
20
-72.6135915525131
30
-6.352673089795573
10
-30.283858441146656
20
-72.60685060575787
30
-6.352673089795573
10
-30.239647468653086
20
-72.599812671694053
30
-6.352673089795573
10
-30.195594916869226
20
-72.592477646081917
30
-6.352673089795573
10
-30.151703551638633
20
-72.584845607234769
30
-6.352673089795573
10
-30.107976455278298
20
-72.57691674176877
30
-6.352673089795573
10
-30.064416849254876
20
-72.56869128179126
30
-6.352673089795573
10
-30.021027927547781
20
-72.560169443888583
30
-6.352673089795573
10
-29.977812644497526
20
-72.551351358666366
30
-6.352673089795573
10
-29.934773723692423
20
-72.542237062233212
30
-6.352673089795573
10
-29.891913776768497
20
-72.532826520237819
30
-6.352673089795573
10
-29.849235390162221
20
-72.52311964402881
30
-6.352673089795573
10
-29.806741215261752
20
-72.513116311206915
30
-6.352673089795573
10
-29.764434076800093
20
-72.502816388864204
30
-6.352673089795573
10
-29.722316986508268
20
-72.492219747673659
30
-6.352673089795573
10
-29.680393071250791
20
-72.481326265883439
30
-6.352673089795573
10
-29.63866552083493
20
-72.470135839888997
30
-6.352673089795573
10
-29.597137533686706
20
-72.458648390543345
30
-6.352673089795573
10
-29.555812244467727
20
-72.446863882645459
30
-6.352673089795573
10
-29.514692721320994
20
-72.434782308263493
30
-6.352673089795573
10
-29.473782058206872
20
-72.422403623552441
30
-6.352673089795573
10
-29.43308344665887
20
-72.409727695164037
30
-6.352673089795573
10
-29.392600245099658
20
-72.396754252949904
30
-6.352673089795573
10
-29.352336070300893
20
-72.383482822575218
30
-6.352673089795573
10
-29.312294802527674
20
-72.369912733971304
30
-6.352673089795573
10
-29.272480432884453
20
-72.356043265435062
30
-6.352673089795573
10
-29.232896935190187
20
-72.341873768657734
30
-6.352673089795573
10
-29.1935481453603
20
-72.327403784726414
30
-6.352673089795573
10
-29.154437590540915
20
-72.312633211481312
30
-6.352673089795573
10
-29.115568484303871
20
-72.297562305382542
30
-6.352673089795573
10
-29.076944097226054
20
-72.282191310168017
30
-6.352673089795573
10
-29.038568070118895
20
-72.266520142424241
30
-6.352673089795573
10
-29.000444707904542
20
-72.250548097981209
30
-6.352673089795573
10
-28.962579377679596
20
-72.234273451989736
30
-6.352673089795573
10
-28.924978551165719
20
-72.217693422208598
30
-6.352673089795573
10
-28.887648987797263
20
-72.200805009070422
30
-6.352673089795573
10
-28.8505970340563
20
-72.183605717591931
30
-6.352673089795573
10
-28.813827976349799
20
-72.166094224578273
30
-6.352673089795573
10
-28.777345125368026
20
-72.148271320756123
30
-6.352673089795573
10
-28.741149794106757
20
-72.130139939146204
30
-6.352673089795573
10
-28.705243294299088
20
-72.111703119891502
30
-6.352673089795573
10
-28.669628655408921
20
-72.092962258431811
30
-6.352673089795573
10
-28.634312187432442
20
-72.07391551480174
30
-6.352673089795573
10
-28.599305747760955
20
-72.054555500132466
30
-6.352673089795573
10
-28.564626590749
20
-72.034869444720456
30
-6.352673089795573
10
-28.530292786685763
20
-72.014843915148305
30
-6.352673089795573
10
-28.496319258816261
20
-71.994468895694027
30
-6.352673089795573
10
-28.462714299076197
20
-71.973741381607283
30
-6.352673089795573
10
-28.429474106565404
20
-71.952670994528901
30
-6.352673089795573
10
-28.396584429591528
20
-71.9312783319819
30
-6.352673089795573
10
-28.36403165021343
20
-71.909583660088217
30
-6.352673089795573
10
-28.331812435428443
20
-71.887597069490212
30
-6.352673089795573
10
-28.299942076367628
20
-71.865309980469021
30
-6.352673089795573
10
-28.268468053013009
20
-71.842681285592391
30
-6.352673089795573
10
-28.237462823948558
20
-71.819644814853589
30
-6.352673089795573
10
-28.206998704566093
20
-71.796135219405272
30
-6.352673089795573
10
-28.177125617659815
20
-71.77211084540275
30
-6.352673089795573
10
-28.147852255376506
20
-71.747573247304203
30
-6.352673089795573
10
-28.1191141767742
20
-71.722599763036285
30
-6.352673089795573
10
-28.090805055045855
20
-71.697312835428448
30
-6.352673089795573
10
-28.062839481743183
20
-71.671817651276726
30
-6.352673089795573
10
-28.035208950353095
20
-71.64614674695315
30
-6.352673089795573
10
-28.008034008341617
20
-71.620208161228973
30
-6.352673089795573
10
-27.981635744644073
20
-71.593714973968758
30
-6.352673089795573
10
-27.956456106993599
20
-71.566260861554582
30
-6.352673089795573
10
-27.937646659470225
20
-71.54319491887783
30
-6.352673089795573
10
-27.924449704571785
20
-71.525126016188224
30
-6.352673089795573
10
-27.916076646841283
20
-71.512718944704986
30
-6.352673089795573
10
-27.911996347934746
20
-71.506425123031192
30
-6.352673089795573
0
ARC
5
164
100
AcDbEntity
8
0
100
AcDbCircle
10
-23.829096235760421
20
-65.19426631214769
30
-6.352673089795573
40
10.000000000000002
210
0
220
0
230
1
100
AcDbArc
50
131.89882108566849
51
138.10117891433151
0
ENDSEC
0
SECTION
2
OBJECTS
0
DICTIONARY
5
C
100
AcDbDictionary
3
ACAD_GROUP
350
D
3
ACAD_MLINESTYLE
350
17
0
DICTIONARY
5
D
100
AcDbDictionary
0
DICTIONARY
5
1A
330
C
100
AcDbDictionary
0
DICTIONARY
5
17
100
AcDbDictionary
0
ENDSEC
0
EOF
