0
SECTION
2
HEADER
9
$INSUNITS
70
4
9
$ACADVER
1
AC1014
9
$HANDSEED
5
FFFF
0
ENDSEC
0
SECTION
2
TABLES
0
TABLE
2
VPORT
5
8
100
AcDbSymbolTable
0
ENDTAB
0
TABLE
2
LTYPE
5
5
100
AcDbSymbolTable
0
LTYPE
5
14
100
AcDbSymbolTableRecord
100
AcDbLinetypeTableRecord
2
BYBLOCK
70
0
0
LTYPE
5
15
100
AcDbSymbolTableRecord
100
AcDbLinetypeTableRecord
2
BYLAYER
70
0
0
ENDTAB
0
TABLE
2
LAYER
5
2
100
AcDbSymbolTable
70
2
0
LAYER
5
50
100
AcDbSymbolTableRecord
100
AcDbLayerTableRecord
2
0
70
0
6
CONTINUOUS
0
ENDTAB
0
TABLE
2
STYLE
5
3
100
AcDbSymbolTable
70
1
0
STYLE
5
11
100
AcDbSymbolTableRecord
100
AcDbTextStyleTableRecord
2
STANDARD
70
0
0
ENDTAB
0
TABLE
2
VIEW
5
6
100
AcDbSymbolTable
70
0
0
ENDTAB
0
TABLE
2
UCS
5
7
100
AcDbSymbolTable
70
0
0
ENDTAB
0
TABLE
2
APPID
5
9
100
AcDbSymbolTable
70
2
0
APPID
5
12
100
AcDbSymbolTableRecord
100
AcDbRegAppTableRecord
2
ACAD
70
0
0
ENDTAB
0
TABLE
2
DIMSTYLE
5
A
100
AcDbSymbolTable
70
1
0
ENDTAB
0
TABLE
2
BLOCK_RECORD
5
1
100
AcDbSymbolTable
70
1
0
BLOCK_RECORD
5
1F
100
AcDbSymbolTableRecord
100
AcDbBlockTableRecord
2
*MODEL_SPACE
0
BLOCK_RECORD
5
1B
100
AcDbSymbolTableRecord
100
AcDbBlockTableRecord
2
*PAPER_SPACE
0
ENDTAB
0
ENDSEC
0
SECTION
2
BLOCKS
0
BLOCK
5
20
100
AcDbEntity
100
AcDbBlockBegin
2
*MODEL_SPACE
0
ENDBLK
5
21
100
AcDbEntity
100
AcDbBlockEnd
0
BLOCK
5
1C
100
AcDbEntity
100
AcDbBlockBegin
2
*PAPER_SPACE
0
ENDBLK
5
1D
100
AcDbEntity
100
AcDbBlockEnd
0
ENDSEC
0
SECTION
2
ENTITIES
0
LINE
5
100
100
AcDbEntity
8
0
100
AcDbLine
10
-58.7847345147852
20
-62.263951809332255
30
-6.352673089795573
11
-56.733350025733245
21
-71.993769571729075
31
-6.352673089795573
0
ARC
5
101
100
AcDbEntity
8
0
100
AcDbCircle
10
-59.829096235760815
20
-48.194266312144833
30
-6.352673089795573
40
23.999999999997101
210
-0
220
0
230
1
100
AcDbArc
50
277.41119899009931
51
279.86731803359339
0
ARC
5
102
100
AcDbEntity
8
0
100
AcDbCircle
10
-59.829096235760815
20
-48.194266312144833
30
-6.352673089795573
40
19.549199999997139
210
-0
220
0
230
1
100
AcDbArc
50
284.55707806819686
51
288.17019465907828
0
SPLINE
5
103
100
AcDbEntity
8
0
100
AcDbSpline
70
0
71
5
72
81
73
75
74
0
42
0.000000001
43
0.0000000001
44
0.0000000001
40
-1
40
-1
40
-1
40
-1
40
-1
40
-1
40
-0.98571428571428399
40
-0.97142857142856975
40
-0.95714285714285563
40
-0.94285714285714117
40
-0.92857142857142716
40
-0.91428571428571281
40
-0.89999999999999869
40
-0.88571428571428445
40
-0.87142857142857022
40
-0.85714285714285599
40
-0.84285714285714175
40
-0.82857142857142752
40
-0.81428571428571328
40
-0.79999999999999905
40
-0.78571428571428481
40
-0.77142857142857058
40
-0.75714285714285634
40
-0.74285714285714211
40
-0.72857142857142776
40
-0.71428571428571364
40
-0.6999999999999994
40
-0.68571428571428517
40
-0.67142857142857093
40
-0.6571428571428567
40
-0.64285714285714246
40
-0.62857142857142823
40
-0.61428571428571399
40
-0.59999999999999976
40
-0.58571428571428552
40
-0.57142857142857129
40
-0.55714285714285705
40
-0.54285714285714282
40
-0.52857142857142858
40
-0.51428571428571435
40
-0.50000000000000011
40
-0.48571428571428582
40
-0.47142857142857147
40
-0.4571428571428573
40
-0.44285714285714295
40
-0.42857142857142871
40
-0.41428571428571442
40
-0.40000000000000008
40
-0.38571428571428573
40
-0.3714285714285715
40
-0.35714285714285721
40
-0.34285714285714292
40
-0.32857142857142863
40
-0.31428571428571433
40
-0.30000000000000004
40
-0.2857142857142857
40
-0.27142857142857146
40
-0.25714285714285717
40
-0.24285714285714291
40
-0.22857142857142865
40
-0.21428571428571436
40
-0.20000000000000004
40
-0.18571428571428572
40
-0.17142857142857146
40
-0.15714285714285714
40
-0.14285714285714288
40
-0.12857142857142859
40
-0.1142857142857143
40
-0.10000000000000001
40
-0.085714285714285715
40
-0.071428571428571438
40
-0.057142857142857134
40
-0.042857142857142858
40
-0.028571428571428567
40
-0.014285714285714284
40
-0
40
-0
40
-0
40
-0
40
-0
40
-0
10
-55.716284439477796
20
-71.839239966776319
30
-6.352673089795573
10
-55.712477776915357
20
-71.829145898002039
30
-6.352673089795573
10
-55.704889587286218
20
-71.808956274436071
30
-6.352673089795573
10
-55.693582709330158
20
-71.778667381038929
30
-6.352673089795573
10
-55.678657735131971
20
-71.738273270748735
30
-6.352673089795573
10
-55.660253327784275
20
-71.687765798783886
30
-6.352673089795573
10
-55.642101344232785
20
-71.637243614981855
30
-6.352673089795573
10
-55.624202633713551
20
-71.586706987504243
30
-6.352673089795573
10
-55.606558273056102
20
-71.536156381165341
30
-6.352673089795573
10
-55.589169561353032
20
-71.485592519205753
30
-6.352673089795573
10
-55.572037968108134
20
-71.435016320711227
30
-6.352673089795573
10
-55.555165076286613
20
-71.384428825645116
30
-6.352673089795573
10
-55.53855252354915
20
-71.333831122569293
30
-6.352673089795573
10
-55.522201946978491
20
-71.283224279985419
30
-6.352673089795573
10
-55.506114912600282
20
-71.232609264315613
30
-6.352673089795573
10
-55.49029294226478
20
-71.181986957373454
30
-6.352673089795573
10
-55.474737561056813
20
-71.131358196365468
30
-6.352673089795573
10
-55.459450337526015
20
-71.080723807328525
30
-6.352673089795573
10
-55.444432921137931
20
-71.030084638668981
30
-6.352673089795573
10
-55.429687088895463
20
-70.979441601549226
30
-6.352673089795573
10
-55.415214726698075
20
-70.928795665848682
30
-6.352673089795573
10
-55.401017788041607
20
-70.878147840313645
30
-6.352673089795573
10
-55.387098255152729
20
-70.827499157272001
30
-6.352673089795573
10
-55.373458104411775
20
-70.776850657144465
30
-6.352673089795573
10
-55.360099249543836
20
-70.726203368912877
30
-6.352673089795573
10
-55.347023587614963
20
-70.675558314103682
30
-6.352673089795573
10
-55.334233089763735
20
-70.624916521865103
30
-6.352673089795573
10
-55.321729882251127
20
-70.574279041227683
30
-6.352673089795573
10
-55.309516315464435
20
-70.523646952935124
30
-6.352673089795573
10
-55.29759507160761
20
-70.473021385475647
30
-6.352673089795573
10
-55.285969085849196
20
-70.422403510193192
30
-6.352673089795573
10
-55.274641368103623
20
-70.371794524900622
30
-6.352673089795573
10
-55.263614837889875
20
-70.321195639715043
30
-6.352673089795573
10
-55.252892186063285
20
-70.270608064825154
30
-6.352673089795573
10
-55.242475636657346
20
-70.220032990171234
30
-6.352673089795573
10
-55.232367139341669
20
-70.169471601240957
30
-6.352673089795573
10
-55.222568818330402
20
-70.118925116615941
30
-6.352673089795573
10
-55.213083377698943
20
-70.068394821684095
30
-6.352673089795573
10
-55.203914444588527
20
-70.017882097788089
30
-6.352673089795573
10
-55.195067132647779
20
-69.967388468526011
30
-6.352673089795573
10
-55.186547638479581
20
-69.916915570741267
30
-6.352673089795573
10
-55.17836223861552
20
-69.866465078805021
30
-6.352673089795573
10
-55.170516379171787
20
-69.816038636189731
30
-6.352673089795573
10
-55.163013910533948
20
-69.76563779840464
30
-6.352673089795573
10
-55.155855792049749
20
-69.715263934641484
30
-6.352673089795573
10
-55.149041121413305
20
-69.664918310836356
30
-6.352673089795573
10
-55.142569557545606
20
-69.614602281648786
30
-6.352673089795573
10
-55.136443516185352
20
-69.56431746445142
30
-6.352673089795573
10
-55.130670031390743
20
-69.514065887953933
30
-6.352673089795573
10
-55.125263832214131
20
-69.463850234011929
30
-6.352673089795573
10
-55.120244835164492
20
-69.413673651064812
30
-6.352673089795573
10
-55.115632638724854
20
-69.363539337910851
30
-6.352673089795573
10
-55.111441492808169
20
-69.313450163292032
30
-6.352673089795573
10
-55.107676045525736
20
-69.263408346650692
30
-6.352673089795573
10
-55.104324271982875
20
-69.213414918928052
30
-6.352673089795573
10
-55.101364341215088
20
-69.163470270741044
30
-6.352673089795573
10
-55.098777681403313
20
-69.113575184673607
30
-6.352673089795573
10
-55.096561022942993
20
-69.063731786666523
30
-6.352673089795573
10
-55.09473678356693
20
-69.013944370935974
30
-6.352673089795573
10
-55.093369528149367
20
-68.964220691580351
30
-6.352673089795573
10
-55.092548030662812
20
-68.914570614353536
30
-6.352673089795573
10
-55.092355860830089
20
-68.865003896797191
30
-6.352673089795573
10
-55.092843885196991
20
-68.815528096752629
30
-6.352673089795573
10
-55.094006094392903
20
-68.766146779416857
30
-6.352673089795573
10
-55.095743134785025
20
-68.716856671055922
30
-6.352673089795573
10
-55.097914638455556
20
-68.667652371306644
30
-6.352673089795573
10
-55.100411377062713
20
-68.618532736603939
30
-6.352673089795573
10
-55.103222889204019
20
-68.569506913551123
30
-6.352673089795573
10
-55.106502019621317
20
-68.520600033706245
30
-6.352673089795573
10
-55.110644557088079
20
-68.47186039644285
30
-6.352673089795573
10
-55.116181484561373
20
-68.423348374229676
30
-6.352673089795573
10
-55.12215621383136
20
-68.384768266427173
30
-6.352673089795573
10
-55.127696266296418
20
-68.355982872559451
30
-6.352673089795573
10
-55.131884534266362
20
-68.336861731817322
30
-6.352673089795573
10
-55.134102394447012
20
-68.327318442030645
30
-6.352673089795573
0
ARC
5
104
100
AcDbEntity
8
0
100
AcDbCircle
10
-53.576939682426172
20
-67.243700925079693
30
-6.352673089795573
40
0.50000000000000011
210
0
220
-0
230
1
100
AcDbArc
50
19.643977883116943
51
108.17019465907879
0
LINE
5
105
100
AcDbEntity
8
0
100
AcDbLine
10
-53.10603983418433
20
-67.075613647376073
30
-6.352673089795573
11
-52.894026630008277
21
-67.669572851402251
31
-6.352673089795573
0
SPLINE
5
106
100
AcDbEntity
8
0
100
AcDbSpline
70
0
71
5
72
81
73
75
74
0
42
0.000000001
43
0.0000000001
44
0.0000000001
40
0
40
0
40
0
40
0
40
0
40
0
40
0.014285714285714284
40
0.028571428571428567
40
0.042857142857142858
40
0.057142857142857134
40
0.071428571428571438
40
0.085714285714285715
40
0.10000000000000001
40
0.1142857142857143
40
0.12857142857142859
40
0.14285714285714288
40
0.15714285714285714
40
0.17142857142857146
40
0.18571428571428572
40
0.20000000000000004
40
0.21428571428571436
40
0.22857142857142865
40
0.24285714285714291
40
0.25714285714285717
40
0.27142857142857146
40
0.2857142857142857
40
0.30000000000000004
40
0.31428571428571433
40
0.32857142857142863
40
0.34285714285714292
40
0.35714285714285721
40
0.3714285714285715
40
0.38571428571428573
40
0.40000000000000008
40
0.41428571428571442
40
0.42857142857142871
40
0.44285714285714295
40
0.4571428571428573
40
0.47142857142857147
40
0.48571428571428582
40
0.50000000000000011
40
0.51428571428571435
40
0.52857142857142858
40
0.54285714285714282
40
0.55714285714285705
40
0.57142857142857129
40
0.58571428571428552
40
0.59999999999999976
40
0.61428571428571399
40
0.62857142857142823
40
0.64285714285714246
40
0.6571428571428567
40
0.67142857142857093
40
0.68571428571428517
40
0.6999999999999994
40
0.71428571428571364
40
0.72857142857142776
40
0.74285714285714211
40
0.75714285714285634
40
0.77142857142857058
40
0.78571428571428481
40
0.79999999999999905
40
0.81428571428571328
40
0.82857142857142752
40
0.84285714285714175
40
0.85714285714285599
40
0.87142857142857022
40
0.88571428571428445
40
0.89999999999999869
40
0.91428571428571281
40
0.92857142857142716
40
0.94285714285714117
40
0.95714285714285563
40
0.97142857142856975
40
0.98571428571428399
40
1
40
1
40
1
40
1
40
1
40
1
10
-52.894026630008277
20
-67.669572851402251
30
-6.352673089795573
10
-52.890732920729072
20
-67.678800243391208
30
-6.352673089795573
10
-52.883918646793724
20
-67.697150319211261
30
-6.352673089795573
10
-52.873016676630598
20
-67.724361311989881
30
-6.352673089795573
10
-52.857184957716811
20
-67.760047146492354
30
-6.352673089795573
10
-52.835615338168999
20
-67.803851545559326
30
-6.352673089795573
10
-52.812749625115231
20
-67.847093562438445
30
-6.352673089795573
10
-52.789067149664859
20
-67.89000947963703
30
-6.352673089795573
10
-52.764926983134615
20
-67.932772644702553
30
-6.352673089795573
10
-52.740471293849652
20
-67.975444549729133
30
-6.352673089795573
10
-52.715696226145276
20
-68.018011844243219
30
-6.352673089795573
10
-52.69050927303509
20
-68.060416436973014
30
-6.352673089795573
10
-52.664789429855574
20
-68.10258698236737
30
-6.352673089795573
10
-52.638451345097977
20
-68.144472519837151
30
-6.352673089795573
10
-52.611491890849038
20
-68.186066801236819
30
-6.352673089795573
10
-52.583957944847626
20
-68.227390969036549
30
-6.352673089795573
10
-52.55592508574361
20
-68.268481995873202
30
-6.352673089795573
10
-52.527473328784211
20
-68.309379576979552
30
-6.352673089795573
10
-52.498661181580061
20
-68.350112095599314
30
-6.352673089795573
10
-52.469509824756656
20
-68.390688059149355
30
-6.352673089795573
10
-52.440017657117963
20
-68.431103911492784
30
-6.352673089795573
10
-52.410169478152397
20
-68.471348953594628
30
-6.352673089795573
10
-52.379947133667429
20
-68.511411054136616
30
-6.352673089795573
10
-52.349341065046808
20
-68.551282844686824
30
-6.352673089795573
10
-52.318356382451718
20
-68.590964971090244
30
-6.352673089795573
10
-52.287006624630777
20
-68.630462724092197
30
-6.352673089795573
10
-52.255310008278002
20
-68.669784008432146
30
-6.352673089795573
10
-52.223284990401751
20
-68.708936943152068
30
-6.352673089795573
10
-52.190945411789983
20
-68.747927235258359
30
-6.352673089795573
10
-52.158298286672249
20
-68.786756980990802
30
-6.352673089795573
10
-52.125346521714924
20
-68.825426125775877
30
-6.352673089795573
10
-52.092090562368377
20
-68.863933345600245
30
-6.352673089795573
10
-52.058530333981253
20
-68.902277087667301
30
-6.352673089795573
10
-52.024667383849206
20
-68.94045671880221
30
-6.352673089795573
10
-51.990505792094488
20
-68.978473012102938
30
-6.352673089795573
10
-51.95605102880986
20
-69.016327529385194
30
-6.352673089795573
10
-51.921309279383095
20
-69.054022255427441
30
-6.352673089795573
10
-51.886286641672619
20
-69.091559163365886
30
-6.352673089795573
10
-51.850988241272724
20
-69.128939736115385
30
-6.352673089795573
10
-51.815417876339005
20
-69.166164772597142
30
-6.352673089795573
10
-51.779578516617605
20
-69.203234653407605
30
-6.352673089795573
10
-51.743472607926186
20
-69.240149501847526
30
-6.352673089795573
10
-51.707102431354187
20
-69.276909374692167
30
-6.352673089795573
10
-51.67047050120793
20
-69.313514473303414
30
-6.352673089795573
10
-51.633579735456365
20
-69.349965234391931
30
-6.352673089795573
10
-51.596433244393893
20
-69.386262218353522
30
-6.352673089795573
10
-51.559034207708152
20
-69.422406044806564
30
-6.352673089795573
10
-51.521385727896401
20
-69.458397315225682
30
-6.352673089795573
10
-51.483490671478989
20
-69.494236530375147
30
-6.352673089795573
10
-51.445351600021695
20
-69.529924051790815
30
-6.352673089795573
10
-51.40697086939781
20
-69.565460146515477
30
-6.352673089795573
10
-51.368350694234131
20
-69.600845014452531
30
-6.352673089795573
10
-51.329493222723109
20
-69.636078821870626
30
-6.352673089795573
10
-51.290400621102293
20
-69.671161737772991
30
-6.352673089795573
10
-51.251075114502541
20
-69.706093955413962
30
-6.352673089795573
10
-51.211518928597627
20
-69.740875678016678
30
-6.352673089795573
10
-51.171734252142258
20
-69.77550711310937
30
-6.352673089795573
10
-51.131723196012416
20
-69.809988464371713
30
-6.352673089795573
10
-51.091487747729651
20
-69.844319926005468
30
-6.352673089795573
10
-51.051029753595799
20
-69.878501676054171
30
-6.352673089795573
10
-51.010350979748011
20
-69.9125338676334
30
-6.352673089795573
10
-50.969453161797311
20
-69.946416620963262
30
-6.352673089795573
10
-50.928338056750029
20
-69.980150016989342
30
-6.352673089795573
10
-50.887007504518003
20
-70.013734089363012
30
-6.352673089795573
10
-50.845463459978504
20
-70.047168824277236
30
-6.352673089795573
10
-50.803707889340323
20
-70.080454191361667
30
-6.352673089795573
10
-50.761742686525189
20
-70.113590171559125
30
-6.352673089795573
10
-50.719569584653627
20
-70.146576786159159
30
-6.352673089795573
10
-50.677190067605252
20
-70.179414129075553
30
-6.352673089795573
10
-50.634605292564302
20
-70.212102391459652
30
-6.352673089795573
10
-50.591816118932691
20
-70.244641806851206
30
-6.352673089795573
10
-50.557421726853363
20
-70.27055444458739
30
-6.352673089795573
10
-50.531534363741471
20
-70.289922123422258
30
-6.352673089795573
10
-50.514235437819352
20
-70.302804230529546
30
-6.352673089795573
10
-50.505575803896832
20
-70.309237864387001
30
-6.352673089795573
0
ARC
5
107
100
AcDbEntity
8
0
100
AcDbCircle
10
-54.789843122862351
20
-67.599841508567835
30
-6.352673089795573
40
0.49999999999998873
210
0
220
0
230
1
100
AcDbArc
50
104.55707806819683
51
193.08329484415509
0
ARC
5
108
100
AcDbEntity
8
0
100
AcDbCircle
10
-59.829096235760815
20
-48.194266312144833
30
-6.352673089795573
40
23.9999999999972
210
-0
220
0
230
1
100
AcDbArc
50
292.85995469368135
51
296.23095439723176
0
LINE
5
109
100
AcDbEntity
8
0
100
AcDbLine
10
-55.134102394447012
20
-68.327318442030645
30
-6.352673089795573
11
-55.276864127027032
21
-67.713025171268868
31
-6.352673089795573
0
ARC
5
110
100
AcDbEntity
8
0
100
AcDbCircle
10
-59.829096235760815
20
-48.194266312144833
30
-6.352673089795573
40
23.999999999997527
210
-0
220
0
230
1
100
AcDbArc
50
309.22359105731954
51
312.59459076086989
0
ARC
5
111
100
AcDbEntity
8
0
100
AcDbCircle
10
-45.09836071431279
20
-61.794849080433067
30
-6.352673089795573
40
0.49999999999998246
210
0
220
0
230
1
100
AcDbArc
50
137.28435079546787
51
225.81056757142989
0
ARC
5
112
100
AcDbEntity
8
0
100
AcDbCircle
10
-44.270545546248897
20
-60.839499448856984
30
-6.352673089795573
40
0.50000000000000844
210
0
220
-0
230
1
100
AcDbArc
50
52.37125061038968
51
140.89746738634793
0
SPLINE
5
113
100
AcDbEntity
8
0
100
AcDbSpline
70
0
71
5
72
81
73
75
74
0
42
0.000000001
43
0.0000000001
44
0.0000000001
40
-1
40
-1
40
-1
40
-1
40
-1
40
-1
40
-0.98571428571428399
40
-0.97142857142856975
40
-0.95714285714285563
40
-0.94285714285714117
40
-0.92857142857142716
40
-0.91428571428571281
40
-0.89999999999999869
40
-0.88571428571428445
40
-0.87142857142857022
40
-0.85714285714285599
40
-0.84285714285714175
40
-0.82857142857142752
40
-0.81428571428571328
40
-0.79999999999999905
40
-0.78571428571428481
40
-0.77142857142857058
40
-0.75714285714285634
40
-0.74285714285714211
40
-0.72857142857142776
40
-0.71428571428571364
40
-0.6999999999999994
40
-0.68571428571428517
40
-0.67142857142857093
40
-0.6571428571428567
40
-0.64285714285714246
40
-0.62857142857142823
40
-0.61428571428571399
40
-0.59999999999999976
40
-0.58571428571428552
40
-0.57142857142857129
40
-0.55714285714285705
40
-0.54285714285714282
40
-0.52857142857142858
40
-0.51428571428571435
40
-0.50000000000000011
40
-0.48571428571428582
40
-0.47142857142857147
40
-0.4571428571428573
40
-0.44285714285714295
40
-0.42857142857142871
40
-0.41428571428571442
40
-0.40000000000000008
40
-0.38571428571428573
40
-0.3714285714285715
40
-0.35714285714285721
40
-0.34285714285714292
40
-0.32857142857142863
40
-0.31428571428571433
40
-0.30000000000000004
40
-0.2857142857142857
40
-0.27142857142857146
40
-0.25714285714285717
40
-0.24285714285714291
40
-0.22857142857142865
40
-0.21428571428571436
40
-0.20000000000000004
40
-0.18571428571428572
40
-0.17142857142857146
40
-0.15714285714285714
40
-0.14285714285714288
40
-0.12857142857142859
40
-0.1142857142857143
40
-0.10000000000000001
40
-0.085714285714285715
40
-0.071428571428571438
40
-0.057142857142857134
40
-0.042857142857142858
40
-0.028571428571428567
40
-0.014285714285714284
40
-0
40
-0
40
-0
40
-0
40
-0
40
-0
10
-43.585740896910451
20
-65.862130001219612
30
-6.352673089795573
10
-43.587995794175086
20
-65.851580293043085
30
-6.352673089795573
10
-43.592527537430584
20
-65.830493215847596
30
-6.352673089795573
10
-43.599390998490826
20
-65.798899617530651
30
-6.352673089795573
10
-43.608674016026882
20
-65.75684887929242
30
-6.352673089795573
10
-43.620497644256645
20
-65.704409116234388
30
-6.352673089795573
10
-43.632541578716442
20
-65.652093447398855
30
-6.352673089795573
10
-43.644806388849972
20
-65.599902557509438
30
-6.352673089795573
10
-43.657292729246265
20
-65.547837419770758
30
-6.352673089795573
10
-43.670001301758234
20
-65.495899344954012
30
-6.352673089795573
10
-43.682932845715797
20
-65.444089900717088
30
-6.352673089795573
10
-43.696088130547452
20
-65.392410817748413
30
-6.352673089795573
10
-43.709467945419988
20
-65.340863897190729
30
-6.352673089795573
10
-43.72307308985949
20
-65.289450922998569
30
-6.352673089795573
10
-43.736904358803287
20
-65.23817355483537
30
-6.352673089795573
10
-43.750962555768908
20
-65.187033357304273
30
-6.352673089795573
10
-43.765248511111295
20
-65.136031859231338
30
-6.352673089795573
10
-43.779763097789122
20
-65.085170603544938
30
-6.352673089795573
10
-43.794507244738021
20
-65.034451195738342
30
-6.352673089795573
10
-43.80948195425637
20
-64.98387536305043
30
-6.352673089795573
10
-43.824688288507346
20
-64.933444940989887
30
-6.352673089795573
10
-43.840127345506815
20
-64.8831618343077
30
-6.352673089795573
10
-43.855800234691372
20
-64.833027983126044
30
-6.352673089795573
10
-43.871708056204056
20
-64.783045331214339
30
-6.352673089795573
10
-43.887851863663258
20
-64.733215778845121
30
-6.352673089795573
10
-43.904232700703588
20
-64.683541211012482
30
-6.352673089795573
10
-43.920851669152867
20
-64.634023559168909
30
-6.352673089795573
10
-43.937709990586868
20
-64.584664855358582
30
-6.352673089795573
10
-43.95480905798307
20
-64.535467279476251
30
-6.352673089795573
10
-43.972150517648231
20
-64.486433230975535
30
-6.352673089795573
10
-43.989736205526881
20
-64.437565282125604
30
-6.352673089795573
10
-44.007568006133667
20
-64.388866067873352
30
-6.352673089795573
10
-44.025647721285566
20
-64.340338184645205
30
-6.352673089795573
10
-44.043976960396698
20
-64.291984105302902
30
-6.352673089795573
10
-44.062556951112803
20
-64.243806033291207
30
-6.352673089795573
10
-44.081388692677343
20
-64.195806019976743
30
-6.352673089795573
10
-44.100473313277973
20
-64.147986238932532
30
-6.352673089795573
10
-44.119812392794522
20
-64.100349233429199
30
-6.352673089795573
10
-44.139408235762133
20
-64.052898126506733
30
-6.352673089795573
10
-44.159264320336469
20
-64.005636964544621
30
-6.352673089795573
10
-44.179384974487235
20
-63.958570474679576
30
-6.352673089795573
10
-44.199774573135414
20
-63.911703458831454
30
-6.352673089795573
10
-44.220436809317164
20
-63.865040243969915
30
-6.352673089795573
10
-44.241374081211205
20
-63.818584220348257
30
-6.352673089795573
10
-44.262586455631272
20
-63.77233705846642
30
-6.352673089795573
10
-44.284072489092608
20
-63.726299335474188
30
-6.352673089795573
10
-44.305831162277052
20
-63.680472006582427
30
-6.352673089795573
10
-44.327863633015653
20
-63.634857738458628
30
-6.352673089795573
10
-44.350174721931467
20
-63.589462040660848
30
-6.352673089795573
10
-44.372775369971222
20
-63.544295132436531
30
-6.352673089795573
10
-44.395680629793617
20
-63.499370430099162
30
-6.352673089795573
10
-44.418905259290767
20
-63.454701220388934
30
-6.352673089795573
10
-44.442459695293351
20
-63.410297620729779
30
-6.352673089795573
10
-44.466346648120251
20
-63.366164011194108
30
-6.352673089795573
10
-44.490555444417446
20
-63.322294757915962
30
-6.352673089795573
10
-44.515067507625474
20
-63.278678386792713
30
-6.352673089795573
10
-44.539866791039096
20
-63.235305515492435
30
-6.352673089795573
10
-44.564949394721594
20
-63.192176164788656
30
-6.352673089795573
10
-44.590331856041331
20
-63.149306067147286
30
-6.352673089795573
10
-44.616064298244723
20
-63.1067366521374
30
-6.352673089795573
10
-44.64221606892059
20
-63.064524214192332
30
-6.352673089795573
10
-44.668852196068158
20
-63.022722143081751
30
-6.352673089795573
10
-44.696011385271284
20
-62.981364297397285
30
-6.352673089795573
10
-44.723686653634701
20
-62.940450427462416
30
-6.352673089795573
10
-44.751796189477972
20
-62.899924064607696
30
-6.352673089795573
10
-44.780224827451121
20
-62.859704777132698
30
-6.352673089795573
10
-44.808881297083744
20
-62.819732549709215
30
-6.352673089795573
10
-44.837751852656922
20
-62.78000942108843
30
-6.352673089795573
10
-44.866951488203632
20
-62.740639167388537
30
-6.352673089795573
10
-44.896787049815003
20
-62.701876400194159
30
-6.352673089795573
10
-44.927672588958686
20
-62.664058979117897
30
-6.352673089795573
10
-44.953556832084658
20
-62.63483350964863
30
-6.352673089795573
10
-44.973779979664386
20
-62.61361287385693
30
-6.352673089795573
10
-44.98764104405204
20
-62.59979149527485
30
-6.352673089795573
10
-44.994666318755833
20
-62.592962234768031
30
-6.352673089795573
0
ARC
5
114
100
AcDbEntity
8
0
100
AcDbCircle
10
-41.863332048913797
20
-57.093802132767152
30
-6.352673089795573
40
0.49999999999999345
210
0
220
0
230
1
100
AcDbArc
50
153.64798715910382
51
242.17420393506484
0
ARC
5
115
100
AcDbEntity
8
0
100
AcDbCircle
10
-59.829096235760815
20
-48.194266312144833
30
-6.352673089795573
40
23.999999999998035
210
-0
220
0
230
1
100
AcDbArc
50
325.58722742095745
51
328.95822712450763
0
ARC
5
116
100
AcDbEntity
8
0
100
AcDbCircle
10
-59.829096235760815
20
-48.194266312144833
30
-6.352673089795573
40
19.549199999997764
210
-0
220
0
230
1
100
AcDbArc
50
317.28435079547398
51
320.89746738635534
0
ARC
5
117
100
AcDbEntity
8
0
100
AcDbCircle
10
-59.829096235760815
20
-48.194266312144833
30
-6.352673089795573
40
19.549199999997327
210
-0
220
0
230
1
100
AcDbArc
50
300.92071443183551
51
304.53383102271692
0
LINE
5
118
100
AcDbEntity
8
0
100
AcDbLine
10
-41.156860374430963
20
-55.47797227211781
30
-6.352673089795573
11
-40.569136836311529
21
-55.706703943586426
31
-6.352673089795573
0
ARC
5
119
100
AcDbEntity
8
0
100
AcDbCircle
10
-41.338202306086451
20
-55.943928390033918
30
-6.352673089795573
40
0.49999999999999778
210
0
220
-0
230
1
100
AcDbArc
50
68.734886974026907
51
157.26110374998726
0
ARC
5
120
100
AcDbEntity
8
0
100
AcDbCircle
10
-49.526785964602084
20
-65.394057697992238
30
-6.352673089795573
40
0.50000000000001199
210
0
220
0
230
1
100
AcDbArc
50
120.92071443183143
51
209.44693120778962
0
LINE
5
121
100
AcDbEntity
8
0
100
AcDbLine
10
-44.994666318755833
20
-62.592962234768031
30
-6.352673089795573
11
-45.44687714670399
21
-62.153368670348726
31
-6.352673089795573
0
LINE
5
122
100
AcDbEntity
8
0
100
AcDbLine
10
-49.652146380281565
20
-66.189055748916303
30
-6.352673089795573
11
-49.962191673415333
21
-65.639866299820611
31
-6.352673089795573
0
SPLINE
5
123
100
AcDbEntity
8
0
100
AcDbSpline
70
0
71
5
72
81
73
75
74
0
42
0.000000001
43
0.0000000001
44
0.0000000001
40
0
40
0
40
0
40
0
40
0
40
0
40
0.014285714285714284
40
0.028571428571428567
40
0.042857142857142858
40
0.057142857142857134
40
0.071428571428571438
40
0.085714285714285715
40
0.10000000000000001
40
0.1142857142857143
40
0.12857142857142859
40
0.14285714285714288
40
0.15714285714285714
40
0.17142857142857146
40
0.18571428571428572
40
0.20000000000000004
40
0.21428571428571436
40
0.22857142857142865
40
0.24285714285714291
40
0.25714285714285717
40
0.27142857142857146
40
0.2857142857142857
40
0.30000000000000004
40
0.31428571428571433
40
0.32857142857142863
40
0.34285714285714292
40
0.35714285714285721
40
0.3714285714285715
40
0.38571428571428573
40
0.40000000000000008
40
0.41428571428571442
40
0.42857142857142871
40
0.44285714285714295
40
0.4571428571428573
40
0.47142857142857147
40
0.48571428571428582
40
0.50000000000000011
40
0.51428571428571435
40
0.52857142857142858
40
0.54285714285714282
40
0.55714285714285705
40
0.57142857142857129
40
0.58571428571428552
40
0.59999999999999976
40
0.61428571428571399
40
0.62857142857142823
40
0.64285714285714246
40
0.6571428571428567
40
0.67142857142857093
40
0.68571428571428517
40
0.6999999999999994
40
0.71428571428571364
40
0.72857142857142776
40
0.74285714285714211
40
0.75714285714285634
40
0.77142857142857058
40
0.78571428571428481
40
0.79999999999999905
40
0.81428571428571328
40
0.82857142857142752
40
0.84285714285714175
40
0.85714285714285599
40
0.87142857142857022
40
0.88571428571428445
40
0.89999999999999869
40
0.91428571428571281
40
0.92857142857142716
40
0.94285714285714117
40
0.95714285714285563
40
0.97142857142856975
40
0.98571428571428399
40
1
40
1
40
1
40
1
40
1
40
1
10
-47.688117770937382
20
-64.926851203648624
30
-6.352673089795573
10
-47.682357823288832
20
-64.934776876290101
30
-6.352673089795573
10
-47.670649761548574
20
-64.950463842285899
30
-6.352673089795573
10
-47.652523175208771
20
-64.973501158733399
30
-6.352673089795573
10
-47.62727889075336
20
-65.003281155547313
30
-6.352673089795573
10
-47.59424186700366
20
-65.039234304600171
30
-6.352673089795573
10
-47.560119692013544
20
-65.074282700157966
30
-6.352673089795573
10
-47.525305712139563
20
-65.10878809680527
30
-6.352673089795573
10
-47.490095616139371
20
-65.143017982375994
30
-6.352673089795573
10
-47.454608489197113
20
-65.17707141154817
30
-6.352673089795573
10
-47.418844393092655
20
-65.210934488369944
30
-6.352673089795573
10
-47.38273093422508
20
-65.244525412444418
30
-6.352673089795573
10
-47.346172109834527
20
-65.277741637263233
30
-6.352673089795573
10
-47.309100383005131
20
-65.310510220200513
30
-6.352673089795573
10
-47.27151451283207
20
-65.342824284969439
30
-6.352673089795573
10
-47.233453521654276
20
-65.374717324606848
30
-6.352673089795573
10
-47.194979510259714
20
-65.406246107064234
30
-6.352673089795573
10
-47.156158069276458
20
-65.437471262538821
30
-6.352673089795573
10
-47.117037339861994
20
-65.468436508052179
30
-6.352673089795573
10
-47.077635247861345
20
-65.499155973682832
30
-6.352673089795573
10
-47.037951258817721
20
-65.529625796233333
30
-6.352673089795573
10
-46.997973802213536
20
-65.559831427575858
30
-6.352673089795573
10
-46.957688877015912
20
-65.589756113168647
30
-6.352673089795573
10
-46.917089387726904
20
-65.619390090079648
30
-6.352673089795573
10
-46.876180055554698
20
-65.648735417691384
30
-6.352673089795573
10
-46.834972380258279
20
-65.677800986743051
30
-6.352673089795573
10
-46.793481613605024
20
-65.706599514012453
30
-6.352673089795573
10
-46.751723177566419
20
-65.735143989603429
30
-6.352673089795573
10
-46.709708744431673
20
-65.7634437887491
30
-6.352673089795573
10
-46.667444453725778
20
-65.791502898913677
30
-6.352673089795573
10
-46.624933109749861
20
-65.819322086636802
30
-6.352673089795573
10
-46.58217551292806
20
-65.846900207034793
30
-6.352673089795573
10
-46.539172029106304
20
-65.874235749178524
30
-6.352673089795573
10
-46.495924321289834
20
-65.901328541464778
30
-6.352673089795573
10
-46.45243608652045
20
-65.928180475178877
30
-6.352673089795573
10
-46.408712133299375
20
-65.954794589975194
30
-6.352673089795573
10
-46.364757837286007
20
-65.981174532859924
30
-6.352673089795573
10
-46.320578493435946
20
-66.007323915008556
30
-6.352673089795573
10
-46.276178601935491
20
-66.033245603314313
30
-6.352673089795573
10
-46.231561582006165
20
-66.058941434400538
30
-6.352673089795573
10
-46.186730175872114
20
-66.084412610121049
30
-6.352673089795573
10
-46.141686695540329
20
-66.109659937848463
30
-6.352673089795573
10
-46.096433313704694
20
-66.134684114715469
30
-6.352673089795573
10
-46.05097238609423
20
-66.159486042289274
30
-6.352673089795573
10
-46.005306589444075
20
-66.184066961677559
30
-6.352673089795573
10
-45.959438750178059
20
-66.208428286847422
30
-6.352673089795573
10
-45.913371744617493
20
-66.23257150813977
30
-6.352673089795573
10
-45.867108380131697
20
-66.256498076739817
30
-6.352673089795573
10
-45.820651266045203
20
-66.280209280719475
30
-6.352673089795573
10
-45.774002758305997
20
-66.303706188646288
30
-6.352673089795573
10
-45.727165042123247
20
-66.32698972047217
30
-6.352673089795573
10
-45.680140186096537
20
-66.350060691935539
30
-6.352673089795573
10
-45.632930204558129
20
-66.372919867785697
30
-6.352673089795573
10
-45.585537128384019
20
-66.395568020479743
30
-6.352673089795573
10
-45.537963038125596
20
-66.41800596233557
30
-6.352673089795573
10
-45.490210012046632
20
-66.440234515389207
30
-6.352673089795573
10
-45.442280091774435
20
-66.462254495405915
30
-6.352673089795573
10
-45.394175245296452
20
-66.484066692517487
30
-6.352673089795573
10
-45.345897324912734
20
-66.50567185300865
30
-6.352673089795573
10
-45.297448051976232
20
-66.527070667874213
30
-6.352673089795573
10
-45.248829077945487
20
-66.548263781605868
30
-6.352673089795573
10
-45.200042034257194
20
-66.569251798532108
30
-6.352673089795573
10
-45.151088583941515
20
-66.590035291325506
30
-6.352673089795573
10
-45.101970482900299
20
-66.610614810637401
30
-6.352673089795573
10
-45.052689610714424
20
-66.630990893972623
30
-6.352673089795573
10
-45.003247862503727
20
-66.651164066136062
30
-6.352673089795573
10
-44.953647060841803
20
-66.671134842421864
30
-6.352673089795573
10
-44.903888862647712
20
-66.690903731533695
30
-6.352673089795573
10
-44.853974665234908
20
-66.710471241638416
30
-6.352673089795573
10
-44.803905525059982
20
-66.729837882160808
30
-6.352673089795573
10
-44.753682200917297
20
-66.749004119302171
30
-6.352673089795573
10
-44.713380589701529
20
-66.764177093116359
30
-6.352673089795573
10
-44.683085341012031
20
-66.775466931874234
30
-6.352673089795573
10
-44.66285783416582
20
-66.78295355249837
30
-6.352673089795573
10
-44.652736412146652
20
-66.7866868781731
30
-6.352673089795573
0
LINE
5
124
100
AcDbEntity
8
0
100
AcDbLine
10
-48.05888059586762
20
-64.4166825428685
30
-6.352673089795573
11
-47.688117770937382
21
-64.926851203648624
31
-6.352673089795573
0
SPLINE
5
125
100
AcDbEntity
8
0
100
AcDbSpline
70
0
71
5
72
81
73
75
74
0
42
0.000000001
43
0.0000000001
44
0.0000000001
40
-1
40
-1
40
-1
40
-1
40
-1
40
-1
40
-0.98571428571428399
40
-0.97142857142856975
40
-0.95714285714285563
40
-0.94285714285714117
40
-0.92857142857142716
40
-0.91428571428571281
40
-0.89999999999999869
40
-0.88571428571428445
40
-0.87142857142857022
40
-0.85714285714285599
40
-0.84285714285714175
40
-0.82857142857142752
40
-0.81428571428571328
40
-0.79999999999999905
40
-0.78571428571428481
40
-0.77142857142857058
40
-0.75714285714285634
40
-0.74285714285714211
40
-0.72857142857142776
40
-0.71428571428571364
40
-0.6999999999999994
40
-0.68571428571428517
40
-0.67142857142857093
40
-0.6571428571428567
40
-0.64285714285714246
40
-0.62857142857142823
40
-0.61428571428571399
40
-0.59999999999999976
40
-0.58571428571428552
40
-0.57142857142857129
40
-0.55714285714285705
40
-0.54285714285714282
40
-0.52857142857142858
40
-0.51428571428571435
40
-0.50000000000000011
40
-0.48571428571428582
40
-0.47142857142857147
40
-0.4571428571428573
40
-0.44285714285714295
40
-0.42857142857142871
40
-0.41428571428571442
40
-0.40000000000000008
40
-0.38571428571428573
40
-0.3714285714285715
40
-0.35714285714285721
40
-0.34285714285714292
40
-0.32857142857142863
40
-0.31428571428571433
40
-0.30000000000000004
40
-0.2857142857142857
40
-0.27142857142857146
40
-0.25714285714285717
40
-0.24285714285714291
40
-0.22857142857142865
40
-0.21428571428571436
40
-0.20000000000000004
40
-0.18571428571428572
40
-0.17142857142857146
40
-0.15714285714285714
40
-0.14285714285714288
40
-0.12857142857142859
40
-0.1142857142857143
40
-0.10000000000000001
40
-0.085714285714285715
40
-0.071428571428571438
40
-0.057142857142857134
40
-0.042857142857142858
40
-0.028571428571428567
40
-0.014285714285714284
40
-0
40
-0
40
-0
40
-0
40
-0
40
-0
10
-49.221323331260081
20
-69.722739411888995
30
-6.352673089795573
10
-49.220514693083217
20
-69.711981763048158
30
-6.352673089795573
10
-49.218921952720493
20
-69.690472121030695
30
-6.352673089795573
10
-49.216606450148817
20
-69.658224625001111
30
-6.352673089795573
10
-49.213666378247666
20
-69.615261908860603
30
-6.352673089795573
10
-49.210237077930273
20
-69.561615223656077
30
-6.352673089795573
10
-49.207054121275213
20
-69.508025538548651
30
-6.352673089795573
10
-49.204118247568672
20
-69.454493350094978
30
-6.352673089795573
10
-49.201430359067672
20
-69.401019407658993
30
-6.352673089795573
10
-49.198991498482002
20
-69.347604771181679
30
-6.352673089795573
10
-49.196802816853889
20
-69.294250736526379
30
-6.352673089795573
10
-49.194865540035764
20
-69.240958747503512
30
-6.352673089795573
10
-49.193180932668227
20
-69.187730309962845
30
-6.352673089795573
10
-49.191750264488959
20
-69.134566910343722
30
-6.352673089795573
10
-49.190574765815995
20
-69.081469917121794
30
-6.352673089795573
10
-49.189655648418352
20
-69.028440605145704
30
-6.352673089795573
10
-49.188994139735925
20
-68.975480207375398
30
-6.352673089795573
10
-49.188591512059517
20
-68.922589958298843
30
-6.352673089795573
10
-49.188449109016105
20
-68.86977113666417
30
-6.352673089795573
10
-49.188568378923314
20
-68.81702511736485
30
-6.352673089795573
10
-49.188950858041864
20
-68.764353362312647
30
-6.352673089795573
10
-49.189598136540567
20
-68.711757389755888
30
-6.352673089795573
10
-49.190511825511663
20
-68.659238748663796
30
-6.352673089795573
10
-49.191693528157799
20
-68.606798994123352
30
-6.352673089795573
10
-49.193144790787059
20
-68.554439652594098
30
-6.352673089795573
10
-49.194867145823707
20
-68.502162238688769
30
-6.352673089795573
10
-49.196862194616827
20
-68.4499682952017
30
-6.352673089795573
10
-49.199131681752831
20
-68.397859427707303
30
-6.352673089795573
10
-49.201677557931106
20
-68.345837335352201
30
-6.352673089795573
10
-49.204502078775647
20
-68.29390385657706
30
-6.352673089795573
10
-49.207607730554329
20
-68.242060942210713
30
-6.352673089795573
10
-49.210997063795986
20
-68.19031058953712
30
-6.352673089795573
10
-49.214672538829177
20
-68.138654782178619
30
-6.352673089795573
10
-49.218636396561202
20
-68.087095439404351
30
-6.352673089795573
10
-49.222890435691596
20
-68.035634329536293
30
-6.352673089795573
10
-49.227436192924173
20
-67.984273139326916
30
-6.352673089795573
10
-49.232275363113388
20
-67.933013636457034
30
-6.352673089795573
10
-49.237410178664987
20
-67.881857816073406
30
-6.352673089795573
10
-49.242843730626248
20
-67.830808025448334
30
-6.352673089795573
10
-49.248580496259926
20
-67.779867167144857
30
-6.352673089795573
10
-49.254625960010884
20
-67.729038557487428
30
-6.352673089795573
10
-49.260985672442189
20
-67.678325571326752
30
-6.352673089795573
10
-49.267664396044388
20
-67.627731319911277
30
-6.352673089795573
10
-49.274665386997754
20
-67.577258380520249
30
-6.352673089795573
10
-49.281989180043851
20
-67.526908337162979
30
-6.352673089795573
10
-49.289634552771076
20
-67.476682150287246
30
-6.352673089795573
10
-49.297600796264845
20
-67.42658102358638
30
-6.352673089795573
10
-49.305889772742937
20
-67.376607189510281
30
-6.352673089795573
10
-49.314507659781185
20
-67.326764576314815
30
-6.352673089795573
10
-49.323467834235814
20
-67.277059906875195
30
-6.352673089795573
10
-49.332788518839351
20
-67.227501813225871
30
-6.352673089795573
10
-49.342487616992941
20
-67.178098886122086
30
-6.352673089795573
10
-49.352577993169916
20
-67.128857892765964
30
-6.352673089795573
10
-49.363063481911276
20
-67.079782272221152
30
-6.352673089795573
10
-49.373932254965297
20
-67.030869625864199
30
-6.352673089795573
10
-49.385163255625514
20
-66.98211417799584
30
-6.352673089795573
10
-49.396738443882583
20
-66.933511447213775
30
-6.352673089795573
10
-49.408654083627198
20
-66.88506255218924
30
-6.352673089795573
10
-49.420930474695979
20
-66.836777928997648
30
-6.352673089795573
10
-49.433627382050105
20
-66.788683207669024
30
-6.352673089795573
10
-49.446827204188395
20
-66.740812864843164
30
-6.352673089795573
10
-49.460607376655545
20
-66.693199807124387
30
-6.352673089795573
10
-49.475014576254864
20
-66.645865616970354
30
-6.352673089795573
10
-49.49004203260543
20
-66.598812022127177
30
-6.352673089795573
10
-49.505595338912073
20
-66.552007890317213
30
-6.352673089795573
10
-49.521541334602063
20
-66.505408493717439
30
-6.352673089795573
10
-49.537775538028498
20
-66.458981961905266
30
-6.352673089795573
10
-49.554285334653244
20
-66.412734123664563
30
-6.352673089795573
10
-49.571210297554046
20
-66.366732153888677
30
-6.352673089795573
10
-49.588916575772082
20
-66.321133902070244
30
-6.352673089795573
10
-49.607896634833786
20
-66.276146890354966
30
-6.352673089795573
10
-49.624498618002008
20
-66.240812823750844
30
-6.352673089795573
10
-49.637924042029731
20
-66.21475425373805
30
-6.352673089795573
10
-49.647329703589506
20
-66.197587624992423
30
-6.352673089795573
10
-49.652146380281565
20
-66.189055748916303
30
-6.352673089795573
0
LINE
5
126
100
AcDbEntity
8
0
100
AcDbLine
10
-43.965274228527349
20
-60.443507753771648
30
-6.352673089795573
11
-43.465798781907395
21
-60.828555040499154
31
-6.352673089795573
0
ARC
5
127
100
AcDbEntity
8
0
100
AcDbCircle
10
-48.463350033011835
20
-64.710628923040531
30
-6.352673089795573
40
0.5
210
0
220
-0
230
1
100
AcDbArc
50
36.007614246754279
51
124.5338310227128
0
SPLINE
5
128
100
AcDbEntity
8
0
100
AcDbSpline
70
0
71
5
72
81
73
75
74
0
42
0.000000001
43
0.0000000001
44
0.0000000001
40
0
40
0
40
0
40
0
40
0
40
0
40
0.014285714285714284
40
0.028571428571428567
40
0.042857142857142858
40
0.057142857142857134
40
0.071428571428571438
40
0.085714285714285715
40
0.10000000000000001
40
0.1142857142857143
40
0.12857142857142859
40
0.14285714285714288
40
0.15714285714285714
40
0.17142857142857146
40
0.18571428571428572
40
0.20000000000000004
40
0.21428571428571436
40
0.22857142857142865
40
0.24285714285714291
40
0.25714285714285717
40
0.27142857142857146
40
0.2857142857142857
40
0.30000000000000004
40
0.31428571428571433
40
0.32857142857142863
40
0.34285714285714292
40
0.35714285714285721
40
0.3714285714285715
40
0.38571428571428573
40
0.40000000000000008
40
0.41428571428571442
40
0.42857142857142871
40
0.44285714285714295
40
0.4571428571428573
40
0.47142857142857147
40
0.48571428571428582
40
0.50000000000000011
40
0.51428571428571435
40
0.52857142857142858
40
0.54285714285714282
40
0.55714285714285705
40
0.57142857142857129
40
0.58571428571428552
40
0.59999999999999976
40
0.61428571428571399
40
0.62857142857142823
40
0.64285714285714246
40
0.6571428571428567
40
0.67142857142857093
40
0.68571428571428517
40
0.6999999999999994
40
0.71428571428571364
40
0.72857142857142776
40
0.74285714285714211
40
0.75714285714285634
40
0.77142857142857058
40
0.78571428571428481
40
0.79999999999999905
40
0.81428571428571328
40
0.82857142857142752
40
0.84285714285714175
40
0.85714285714285599
40
0.87142857142857022
40
0.88571428571428445
40
0.89999999999999869
40
0.91428571428571281
40
0.92857142857142716
40
0.94285714285714117
40
0.95714285714285563
40
0.97142857142856975
40
0.98571428571428399
40
1
40
1
40
1
40
1
40
1
40
1
10
-43.465798781907395
20
-60.828555040499154
30
-6.352673089795573
10
-43.458039232592242
20
-60.834536902931511
30
-6.352673089795573
10
-43.442385900578735
20
-60.846289894412067
30
-6.352673089795573
10
-43.418503206284583
20
-60.863287188158054
30
-6.352673089795573
10
-43.385891498080568
20
-60.884748749050019
30
-6.352673089795573
10
-43.344063533314419
20
-60.90993793777411
30
-6.352673089795573
10
-43.30144927207327
20
-60.933953299443324
30
-6.352673089795573
10
-43.258324209378358
20
-60.957252753514481
30
-6.352673089795573
10
-43.214896696483649
20
-60.980176257834451
30
-6.352673089795573
10
-43.171253087858886
20
-61.002852404844234
30
-6.352673089795573
10
-43.127397357723481
20
-61.02526787888106
30
-6.352673089795573
10
-43.083283090760972
20
-61.04732379740458
30
-6.352673089795573
10
-43.038847063687783
20
-61.068894720657582
30
-6.352673089795573
10
-42.994045025620231
20
-61.089891633355009
30
-6.352673089795573
10
-42.948877723192723
20
-61.110307588144757
30
-6.352673089795573
10
-42.903373161986323
20
-61.130185715223604
30
-6.352673089795573
10
-42.857574933890646
20
-61.149597978855972
30
-6.352673089795573
10
-42.811528891151994
20
-61.168621032305367
30
-6.352673089795573
10
-42.765268908364447
20
-61.187310384678248
30
-6.352673089795573
10
-42.718808204347184
20
-61.205684643979801
30
-6.352673089795573
10
-42.672147354681172
20
-61.223739952925378
30
-6.352673089795573
10
-42.625279356217348
20
-61.241459092897003
30
-6.352673089795573
10
-42.57819549536292
20
-61.258822043482795
30
-6.352673089795573
10
-42.530891714573272
20
-61.275817438185314
30
-6.352673089795573
10
-42.483371963619362
20
-61.292448583085637
30
-6.352673089795573
10
-42.435644771628475
20
-61.308727248642072
30
-6.352673089795573
10
-42.387721189833947
20
-61.324669933432972
30
-6.352673089795573
10
-42.339612355773809
20
-61.340293446243173
30
-6.352673089795573
10
-42.291326827619216
20
-61.355610071006851
30
-6.352673089795573
10
-42.242869372802758
20
-61.370625363371985
30
-6.352673089795573
10
-42.194242466072481
20
-61.385340848890877
30
-6.352673089795573
10
-42.145447197980715
20
-61.399755654561247
30
-6.352673089795573
10
-42.096484345231971
20
-61.413868433727913
30
-6.352673089795573
10
-42.047355551814363
20
-61.427679490261504
30
-6.352673089795573
10
-41.99806383217684
20
-61.441191680414029
30
-6.352673089795573
10
-41.948612943672913
20
-61.454409275423892
30
-6.352673089795573
10
-41.899007016729684
20
-61.467337289066108
30
-6.352673089795573
10
-41.849250114434078
20
-61.479980677999642
30
-6.352673089795573
10
-41.799345746986134
20
-61.49234346083734
30
-6.352673089795573
10
-41.749296677668241
20
-61.504428363112424
30
-6.352673089795573
10
-41.699105199023862
20
-61.516237310569011
30
-6.352673089795573
10
-41.648773301944303
20
-61.527771729243099
30
-6.352673089795573
10
-41.59830287470912
20
-61.539032900147213
30
-6.352673089795573
10
-41.547695923622939
20
-61.550022352014281
30
-6.352673089795573
10
-41.496954667333824
20
-61.560742029801894
30
-6.352673089795573
10
-41.446081419415052
20
-61.571194086497094
30
-6.352673089795573
10
-41.395078519799142
20
-61.581380762424907
30
-6.352673089795573
10
-41.343948253291117
20
-61.591304240914688
30
-6.352673089795573
10
-41.292692760627773
20
-61.600966492994047
30
-6.352673089795573
10
-41.241314001274304
20
-61.610369207693282
30
-6.352673089795573
10
-41.189813812743182
20
-61.619513883344382
30
-6.352673089795573
10
-41.138193950021119
20
-61.62840188543445
30
-6.352673089795573
10
-41.086456130391014
20
-61.637034515238028
30
-6.352673089795573
10
-41.034602084837744
20
-61.64541308608618
30
-6.352673089795573
10
-40.982633580779378
20
-61.65353896355132
30
-6.352673089795573
10
-40.930552380701087
20
-61.661413521885748
30
-6.352673089795573
10
-40.878360213702308
20
-61.669038119003439
30
-6.352673089795573
10
-40.826058745447327
20
-61.676414067476387
30
-6.352673089795573
10
-40.773649542952285
20
-61.683542605212764
30
-6.352673089795573
10
-40.721134063167526
20
-61.690424880178455
30
-6.352673089795573
10
-40.668513709081623
20
-61.697061976028294
30
-6.352673089795573
10
-40.615789875787613
20
-61.703454932240064
30
-6.352673089795573
10
-40.562963997610751
20
-61.709604766818877
30
-6.352673089795573
10
-40.510037604190131
20
-61.715512502805453
30
-6.352673089795573
10
-40.457012347537727
20
-61.721179185471087
30
-6.352673089795573
10
-40.403889898153139
20
-61.726605852279306
30
-6.352673089795573
10
-40.350671859607786
20
-61.731793511129567
30
-6.352673089795573
10
-40.297359678385419
20
-61.736743116927499
30
-6.352673089795573
10
-40.243954552031425
20
-61.7414555509243
30
-6.352673089795573
10
-40.190457350686856
20
-61.745931599547731
30
-6.352673089795573
10
-40.136868671065535
20
-61.750171923891699
30
-6.352673089795573
10
-40.093924837571095
20
-61.75337600968259
30
-6.352673089795573
10
-40.061676044180018
20
-61.75567337277058
30
-6.352673089795573
10
-40.040158668716813
20
-61.757157985433238
30
-6.352673089795573
10
-40.029395436018561
20
-61.757888551082054
30
-6.352673089795573
0
SPLINE
5
129
100
AcDbEntity
8
0
100
AcDbSpline
70
0
71
5
72
81
73
75
74
0
42
0.000000001
43
0.0000000001
44
0.0000000001
40
-1
40
-1
40
-1
40
-1
40
-1
40
-1
40
-0.98571428571428399
40
-0.97142857142856975
40
-0.95714285714285563
40
-0.94285714285714117
40
-0.92857142857142716
40
-0.91428571428571281
40
-0.89999999999999869
40
-0.88571428571428445
40
-0.87142857142857022
40
-0.85714285714285599
40
-0.84285714285714175
40
-0.82857142857142752
40
-0.81428571428571328
40
-0.79999999999999905
40
-0.78571428571428481
40
-0.77142857142857058
40
-0.75714285714285634
40
-0.74285714285714211
40
-0.72857142857142776
40
-0.71428571428571364
40
-0.6999999999999994
40
-0.68571428571428517
40
-0.67142857142857093
40
-0.6571428571428567
40
-0.64285714285714246
40
-0.62857142857142823
40
-0.61428571428571399
40
-0.59999999999999976
40
-0.58571428571428552
40
-0.57142857142857129
40
-0.55714285714285705
40
-0.54285714285714282
40
-0.52857142857142858
40
-0.51428571428571435
40
-0.50000000000000011
40
-0.48571428571428582
40
-0.47142857142857147
40
-0.4571428571428573
40
-0.44285714285714295
40
-0.42857142857142871
40
-0.41428571428571442
40
-0.40000000000000008
40
-0.38571428571428573
40
-0.3714285714285715
40
-0.35714285714285721
40
-0.34285714285714292
40
-0.32857142857142863
40
-0.31428571428571433
40
-0.30000000000000004
40
-0.2857142857142857
40
-0.27142857142857146
40
-0.25714285714285717
40
-0.24285714285714291
40
-0.22857142857142865
40
-0.21428571428571436
40
-0.20000000000000004
40
-0.18571428571428572
40
-0.17142857142857146
40
-0.15714285714285714
40
-0.14285714285714288
40
-0.12857142857142859
40
-0.1142857142857143
40
-0.10000000000000001
40
-0.085714285714285715
40
-0.071428571428571438
40
-0.057142857142857134
40
-0.042857142857142858
40
-0.028571428571428567
40
-0.014285714285714284
40
-0
40
-0
40
-0
40
-0
40
-0
40
-0
10
-39.26609850916067
20
-60.57017534929237
30
-6.352673089795573
10
-39.271234263500801
20
-60.560688256395082
30
-6.352673089795573
10
-39.281523355487295
20
-60.541732093606264
30
-6.352673089795573
10
-39.297009743382944
20
-60.513351918443234
30
-6.352673089795573
10
-39.317763795483657
20
-60.475619858834008
30
-6.352673089795573
10
-39.343882472219235
20
-60.42863537565411
30
-6.352673089795573
10
-39.370177569851975
20
-60.381832027446279
30
-6.352673089795573
10
-39.396649441850201
20
-60.335210631628762
30
-6.352673089795573
10
-39.423298442104041
20
-60.288772306403686
30
-6.352673089795573
10
-39.450124874749463
20
-60.242518507181551
30
-6.352673089795573
10
-39.47712900750814
20
-60.196450946412419
30
-6.352673089795573
10
-39.504311091049985
20
-60.150571501452745
30
-6.352673089795573
10
-39.531671375134479
20
-60.104882122820285
30
-6.352673089795573
10
-39.559210124303178
20
-60.059384747459433
30
-6.352673089795573
10
-39.586927633711625
20
-60.0140811917653
30
-6.352673089795573
10
-39.614824233529632
20
-59.968973183340637
30
-6.352673089795573
10
-39.642900289756881
20
-59.924062423021383
30
-6.352673089795573
10
-39.671156205297834
20
-59.879350637177318
30
-6.352673089795573
10
-39.699592419140103
20
-59.834839627979349
30
-6.352673089795573
10
-39.72820940636241
20
-59.790531335081155
30
-6.352673089795573
10
-39.757007668980378
20
-59.746427818886367
30
-6.352673089795573
10
-39.785987723902082
20
-59.702531216337
30
-6.352673089795573
10
-39.81515008902862
20
-59.658843701530998
30
-6.352673089795573
10
-39.844495272316379
20
-59.61536744944766
30
-6.352673089795573
10
-39.874023749336104
20
-59.572104580223666
30
-6.352673089795573
10
-39.903735990383723
20
-59.529057196523489
30
-6.352673089795573
10
-39.933632508502171
20
-59.486227461982978
30
-6.352673089795573
10
-39.963713903291911
20
-59.443617670491889
30
-6.352673089795573
10
-39.993980897157648
20
-59.401230306091072
30
-6.352673089795573
10
-40.024434393714984
20
-59.35906813485758
30
-6.352673089795573
10
-40.055075429847818
20
-59.317134142111016
30
-6.352673089795573
10
-40.085905071384374
20
-59.275431386993453
30
-6.352673089795573
10
-40.116924315657542
20
-59.233962868388375
30
-6.352673089795573
10
-40.148134010203208
20
-59.192731412413565
30
-6.352673089795573
10
-40.179534712156681
20
-59.151739479126597
30
-6.352673089795573
10
-40.211126802348275
20
-59.11098931831873
30
-6.352673089795573
10
-40.242910750899853
20
-59.070483333365189
30
-6.352673089795573
10
-40.274887357172901
20
-59.030224409619869
30
-6.352673089795573
10
-40.307057952490609
20
-58.990216192880268
30
-6.352673089795573
10
-40.339424734122034
20
-58.950463545528748
30
-6.352673089795573
10
-40.371990522935462
20
-58.910972222549759
30
-6.352673089795573
10
-40.404758163779618
20
-58.871748063909308
30
-6.352673089795573
10
-40.437729981048577
20
-58.832796261752954
30
-6.352673089795573
10
-40.470907320633174
20
-58.794120744649888
30
-6.352673089795573
10
-40.504289776006516
20
-58.755723134256698
30
-6.352673089795573
10
-40.537875799553277
20
-58.717603577667873
30
-6.352673089795573
10
-40.571664144130821
20
-58.679762704226448
30
-6.352673089795573
10
-40.605655169382842
20
-58.642203398779806
30
-6.352673089795573
10
-40.639851948441446
20
-58.604932305836684
30
-6.352673089795573
10
-40.674262099973362
20
-58.56796231311408
30
-6.352673089795573
10
-40.708896287086617
20
-58.531310534294519
30
-6.352673089795573
10
-40.743764926567692
20
-58.494993875690582
30
-6.352673089795573
10
-40.778875182074543
20
-58.459024985294391
30
-6.352673089795573
10
-40.814228420130178
20
-58.423408829339742
30
-6.352673089795573
10
-40.849815986969759
20
-58.388136995140499
30
-6.352673089795573
10
-40.885623291143332
20
-58.353193239754248
30
-6.352673089795573
10
-40.921637579258373
20
-58.318564040020107
30
-6.352673089795573
10
-40.95785510350035
20
-58.284248317130988
30
-6.352673089795573
10
-40.994287299010225
20
-58.250265825392454
30
-6.352673089795573
10
-41.030970586632321
20
-58.216670437535321
30
-6.352673089795573
10
-41.067955644916161
20
-58.18353570514634
30
-6.352673089795573
10
-41.105289826133813
20
-58.150931175838849
30
-6.352673089795573
10
-41.14300072895341
20
-58.118900241316702
30
-6.352673089795573
10
-41.181081723678034
20
-58.087440694708114
30
-6.352673089795573
10
-41.219470221637749
20
-58.056475305707622
30
-6.352673089795573
10
-41.258078382717102
20
-58.025894454835267
30
-6.352673089795573
10
-41.296835541812854
20
-57.995614843942363
30
-6.352673089795573
10
-41.335727935621748
20
-57.965634556579801
30
-6.352673089795573
10
-41.3748366629993
20
-57.936085562766735
30
-6.352673089795573
10
-41.414384408241162
20
-57.907298609063453
30
-6.352673089795573
10
-41.454673264768793
20
-57.879714521172943
30
-6.352673089795573
10
-41.487742780413953
20
-57.858965322564373
30
-6.352673089795573
10
-41.51312529240046
20
-57.844301790701628
30
-6.352673089795573
10
-41.530318818614248
20
-57.834945388176926
30
-6.352673089795573
10
-41.538983545354156
20
-57.830372009310466
30
-6.352673089795573
0
LINE
5
130
100
AcDbEntity
8
0
100
AcDbLine
10
-41.538983545354156
20
-57.830372009310466
30
-6.352673089795573
11
-42.096724476237682
21
-57.535987585793208
31
-6.352673089795573
0
LINE
5
131
100
AcDbEntity
8
0
100
AcDbLine
10
-43.465798781907381
20
-35.559977583784786
30
-6.352673089795573
11
-43.965274228527349
21
-35.945024870512292
31
-6.352673089795573
0
SPLINE
5
132
100
AcDbEntity
8
0
100
AcDbSpline
70
0
71
5
72
81
73
75
74
0
42
0.000000001
43
0.0000000001
44
0.0000000001
40
-1
40
-1
40
-1
40
-1
40
-1
40
-1
40
-0.98571428571428399
40
-0.97142857142856975
40
-0.95714285714285563
40
-0.94285714285714117
40
-0.92857142857142716
40
-0.91428571428571281
40
-0.89999999999999869
40
-0.88571428571428445
40
-0.87142857142857022
40
-0.85714285714285599
40
-0.84285714285714175
40
-0.82857142857142752
40
-0.81428571428571328
40
-0.79999999999999905
40
-0.78571428571428481
40
-0.77142857142857058
40
-0.75714285714285634
40
-0.74285714285714211
40
-0.72857142857142776
40
-0.71428571428571364
40
-0.6999999999999994
40
-0.68571428571428517
40
-0.67142857142857093
40
-0.6571428571428567
40
-0.64285714285714246
40
-0.62857142857142823
40
-0.61428571428571399
40
-0.59999999999999976
40
-0.58571428571428552
40
-0.57142857142857129
40
-0.55714285714285705
40
-0.54285714285714282
40
-0.52857142857142858
40
-0.51428571428571435
40
-0.50000000000000011
40
-0.48571428571428582
40
-0.47142857142857147
40
-0.4571428571428573
40
-0.44285714285714295
40
-0.42857142857142871
40
-0.41428571428571442
40
-0.40000000000000008
40
-0.38571428571428573
40
-0.3714285714285715
40
-0.35714285714285721
40
-0.34285714285714292
40
-0.32857142857142863
40
-0.31428571428571433
40
-0.30000000000000004
40
-0.2857142857142857
40
-0.27142857142857146
40
-0.25714285714285717
40
-0.24285714285714291
40
-0.22857142857142865
40
-0.21428571428571436
40
-0.20000000000000004
40
-0.18571428571428572
40
-0.17142857142857146
40
-0.15714285714285714
40
-0.14285714285714288
40
-0.12857142857142859
40
-0.1142857142857143
40
-0.10000000000000001
40
-0.085714285714285715
40
-0.071428571428571438
40
-0.057142857142857134
40
-0.042857142857142858
40
-0.028571428571428567
40
-0.014285714285714284
40
-0
40
-0
40
-0
40
-0
40
-0
40
-0
10
-44.652736412146666
20
-29.601845746110822
30
-6.352673089795573
10
-44.66285783416582
20
-29.60557907178557
30
-6.352673089795573
10
-44.683085341012031
20
-29.613065692409705
30
-6.352673089795573
10
-44.713380589701529
20
-29.624355531167595
30
-6.352673089795573
10
-44.753682200917311
20
-29.639528504981769
30
-6.352673089795573
10
-44.803905525060003
20
-29.658694742123124
30
-6.352673089795573
10
-44.853974665234929
20
-29.678061382645513
30
-6.352673089795573
10
-44.903888862647733
20
-29.697628892750227
30
-6.352673089795573
10
-44.953647060841817
20
-29.717397781862076
30
-6.352673089795573
10
-45.003247862503727
20
-29.737368558147878
30
-6.352673089795573
10
-45.052689610714424
20
-29.757541730311317
30
-6.352673089795573
10
-45.101970482900299
20
-29.777917813646528
30
-6.352673089795573
10
-45.151088583941515
20
-29.798497332958426
30
-6.352673089795573
10
-45.200042034257194
20
-29.819280825751839
30
-6.352673089795573
10
-45.248829077945501
20
-29.840268842678057
30
-6.352673089795573
10
-45.297448051976247
20
-29.861461956409716
30
-6.352673089795573
10
-45.345897324912755
20
-29.882860771275304
30
-6.352673089795573
10
-45.394175245296466
20
-29.904465931766442
30
-6.352673089795573
10
-45.442280091774435
20
-29.92627812887801
30
-6.352673089795573
10
-45.490210012046632
20
-29.948298108894733
30
-6.352673089795573
10
-45.537963038125596
20
-29.970526661948362
30
-6.352673089795573
10
-45.585537128384019
20
-29.992964603804211
30
-6.352673089795573
10
-45.63293020455815
20
-30.015612756498243
30
-6.352673089795573
10
-45.680140186096537
20
-30.038471932348394
30
-6.352673089795573
10
-45.727165042123247
20
-30.061542903811755
30
-6.352673089795573
10
-45.774002758305997
20
-30.084826435637638
30
-6.352673089795573
10
-45.820651266045225
20
-30.108323343564464
30
-6.352673089795573
10
-45.867108380131697
20
-30.132034547544116
30
-6.352673089795573
10
-45.913371744617493
20
-30.155961116144169
30
-6.352673089795573
10
-45.95943875017808
20
-30.180104337436518
30
-6.352673089795573
10
-46.005306589444089
20
-30.204465662606353
30
-6.352673089795573
10
-46.050972386094244
20
-30.229046581994659
30
-6.352673089795573
10
-46.096433313704694
20
-30.253848509568463
30
-6.352673089795573
10
-46.141686695540344
20
-30.27887268643547
30
-6.352673089795573
10
-46.186730175872114
20
-30.304120014162883
30
-6.352673089795573
10
-46.231561582006165
20
-30.329591189883381
30
-6.352673089795573
10
-46.276178601935513
20
-30.35528702096962
30
-6.352673089795573
10
-46.320578493435946
20
-30.381208709275384
30
-6.352673089795573
10
-46.364757837286007
20
-30.407358091424015
30
-6.352673089795573
10
-46.408712133299389
20
-30.433738034308728
30
-6.352673089795573
10
-46.452436086520464
20
-30.46035214910507
30
-6.352673089795573
10
-46.495924321289849
20
-30.487204082819154
30
-6.352673089795573
10
-46.539172029106325
20
-30.514296875105408
30
-6.352673089795573
10
-46.582175512928075
20
-30.541632417249147
30
-6.352673089795573
10
-46.624933109749875
20
-30.569210537647137
30
-6.352673089795573
10
-46.667444453725778
20
-30.597029725370248
30
-6.352673089795573
10
-46.709708744431694
20
-30.625088835534832
30
-6.352673089795573
10
-46.751723177566419
20
-30.653388634680503
30
-6.352673089795573
10
-46.793481613605046
20
-30.681933110271487
30
-6.352673089795573
10
-46.834972380258279
20
-30.710731637540889
30
-6.352673089795573
10
-46.876180055554713
20
-30.739797206592563
30
-6.352673089795573
10
-46.917089387726918
20
-30.769142534204299
30
-6.352673089795573
10
-46.957688877015912
20
-30.7987765111153
30
-6.352673089795573
10
-46.997973802213536
20
-30.828701196708064
30
-6.352673089795573
10
-47.037951258817742
20
-30.858906828050596
30
-6.352673089795573
10
-47.077635247861366
20
-30.889376650601108
30
-6.352673089795573
10
-47.117037339861994
20
-30.920096116231754
30
-6.352673089795573
10
-47.156158069276458
20
-30.951061361745118
30
-6.352673089795573
10
-47.194979510259728
20
-30.982286517219695
30
-6.352673089795573
10
-47.233453521654276
20
-31.013815299677105
30
-6.352673089795573
10
-47.27151451283207
20
-31.045708339314501
30
-6.352673089795573
10
-47.309100383005131
20
-31.078022404083427
30
-6.352673089795573
10
-47.346172109834548
20
-31.1107909870207
30
-6.352673089795573
10
-47.38273093422508
20
-31.144007211839522
30
-6.352673089795573
10
-47.41884439309267
20
-31.177598135913982
30
-6.352673089795573
10
-47.454608489197113
20
-31.211461212735763
30
-6.352673089795573
10
-47.490095616139371
20
-31.245514641907928
30
-6.352673089795573
10
-47.525305712139584
20
-31.279744527478659
30
-6.352673089795573
10
-47.560119692013544
20
-31.314249924125974
30
-6.352673089795573
10
-47.59424186700366
20
-31.349298319683754
30
-6.352673089795573
10
-47.627278890753374
20
-31.38525146873663
30
-6.352673089795573
10
-47.652523175208771
20
-31.415031465550534
30
-6.352673089795573
10
-47.670649761548574
20
-31.438068781998034
30
-6.352673089795573
10
-47.682357823288854
20
-31.453755747993839
30
-6.352673089795573
10
-47.688117770937396
20
-31.461681420635308
30
-6.352673089795573
0
ARC
5
133
100
AcDbEntity
8
0
100
AcDbCircle
10
-59.829096235760815
20
-48.194266312144833
30
-6.352673089795573
40
23.99999999999952
210
-0
220
0
230
1
100
AcDbArc
50
-1.6854998517679993
51
1.6854998517818509
0
SPLINE
5
134
100
AcDbEntity
8
0
100
AcDbSpline
70
0
71
5
72
81
73
75
74
0
42
0.000000001
43
0.0000000001
44
0.0000000001
40
-1
40
-1
40
-1
40
-1
40
-1
40
-1
40
-0.98571428571428399
40
-0.97142857142856975
40
-0.95714285714285563
40
-0.94285714285714117
40
-0.92857142857142716
40
-0.91428571428571281
40
-0.89999999999999869
40
-0.88571428571428445
40
-0.87142857142857022
40
-0.85714285714285599
40
-0.84285714285714175
40
-0.82857142857142752
40
-0.81428571428571328
40
-0.79999999999999905
40
-0.78571428571428481
40
-0.77142857142857058
40
-0.75714285714285634
40
-0.74285714285714211
40
-0.72857142857142776
40
-0.71428571428571364
40
-0.6999999999999994
40
-0.68571428571428517
40
-0.67142857142857093
40
-0.6571428571428567
40
-0.64285714285714246
40
-0.62857142857142823
40
-0.61428571428571399
40
-0.59999999999999976
40
-0.58571428571428552
40
-0.57142857142857129
40
-0.55714285714285705
40
-0.54285714285714282
40
-0.52857142857142858
40
-0.51428571428571435
40
-0.50000000000000011
40
-0.48571428571428582
40
-0.47142857142857147
40
-0.4571428571428573
40
-0.44285714285714295
40
-0.42857142857142871
40
-0.41428571428571442
40
-0.40000000000000008
40
-0.38571428571428573
40
-0.3714285714285715
40
-0.35714285714285721
40
-0.34285714285714292
40
-0.32857142857142863
40
-0.31428571428571433
40
-0.30000000000000004
40
-0.2857142857142857
40
-0.27142857142857146
40
-0.25714285714285717
40
-0.24285714285714291
40
-0.22857142857142865
40
-0.21428571428571436
40
-0.20000000000000004
40
-0.18571428571428572
40
-0.17142857142857146
40
-0.15714285714285714
40
-0.14285714285714288
40
-0.12857142857142859
40
-0.1142857142857143
40
-0.10000000000000001
40
-0.085714285714285715
40
-0.071428571428571438
40
-0.057142857142857134
40
-0.042857142857142858
40
-0.028571428571428567
40
-0.014285714285714284
40
-0
40
-0
40
-0
40
-0
40
-0
40
-0
10
-37.01010846533093
20
-40.758286408124427
30
-6.352673089795573
10
-37.020641535606451
20
-40.755955027663255
30
-6.352673089795573
10
-37.041705569895399
20
-40.751317357875855
30
-6.352673089795573
10
-37.073295302538455
20
-40.744436126599517
30
-6.352673089795573
10
-37.115402304318636
20
-40.735411748391776
30
-6.352673089795573
10
-37.168014903299834
20
-40.724382634078182
30
-6.352673089795573
10
-37.220606140721216
20
-40.713605467963248
30
-6.352673089795573
10
-37.27317563029176
20
-40.703081052475639
30
-6.352673089795573
10
-37.325722758679461
20
-40.692810387334362
30
-6.352673089795573
10
-37.378246625125172
20
-40.682794655481224
30
-6.352673089795573
10
-37.430746110765902
20
-40.673035180663064
30
-6.352673089795573
10
-37.483219960944169
20
-40.663533381730581
30
-6.352673089795573
10
-37.535666865114678
20
-40.654290724756883
30
-6.352673089795573
10
-37.588085532670412
20
-40.645308678097976
30
-6.352673089795573
10
-37.640474784157348
20
-40.636588654303402
30
-6.352673089795573
10
-37.692833530155653
20
-40.628132034238007
30
-6.352673089795573
10
-37.745160724938103
20
-40.619940208316564
30
-6.352673089795573
10
-37.797455327647839
20
-40.612014611565812
30
-6.352673089795573
10
-37.849716263770659
20
-40.604356755921309
30
-6.352673089795573
10
-37.901942378524552
20
-40.596968270626704
30
-6.352673089795573
10
-37.954132443510616
20
-40.589850884357482
30
-6.352673089795573
10
-38.006285182238727
20
-40.583006387166151
30
-6.352673089795573
10
-38.058399290788287
20
-40.576436594187591
30
-6.352673089795573
10
-38.110473458060348
20
-40.570143313618146
30
-6.352673089795573
10
-38.162506393195144
20
-40.564128293264538
30
-6.352673089795573
10
-38.214496815083251
20
-40.558393265505075
30
-6.352673089795573
10
-38.266443424529385
20
-40.552940034951902
30
-6.352673089795573
10
-38.318344880582217
20
-40.547770556931113
30
-6.352673089795573
10
-38.370199779003386
20
-40.542887004100592
30
-6.352673089795573
10
-38.422006621073649
20
-40.538291870762706
30
-6.352673089795573
10
-38.473763829653663
20
-40.533987895510592
30
-6.352673089795573
10
-38.525469790767048
20
-40.529977887155525
30
-6.352673089795573
10
-38.577122891123082
20
-40.52626456328241
30
-6.352673089795573
10
-38.628721549902437
20
-40.522850415129724
30
-6.352673089795573
10
-38.680264272763679
20
-40.519737474747338
30
-6.352673089795573
10
-38.731749608818816
20
-40.516927503247572
30
-6.352673089795573
10
-38.783176049582423
20
-40.514422429800881
30
-6.352673089795573
10
-38.834541937919965
20
-40.512224748029304
30
-6.352673089795573
10
-38.885845390352799
20
-40.510337851569446
30
-6.352673089795573
10
-38.93708417104277
20
-40.50876658518974
30
-6.352673089795573
10
-38.988255777938704
20
-40.507516849473497
30
-6.352673089795573
10
-39.039357660468482
20
-40.506594618778408
30
-6.352673089795573
10
-39.090387416824711
20
-40.506005049896501
30
-6.352673089795573
10
-39.14134295936401
20
-40.505751732649948
30
-6.352673089795573
10
-39.192222796301564
20
-40.505835421765426
30
-6.352673089795573
10
-39.243025802998289
20
-40.506255043959705
30
-6.352673089795573
10
-39.293750687123691
20
-40.507010068837339
30
-6.352673089795573
10
-39.344395503972137
20
-40.508102657372156
30
-6.352673089795573
10
-39.394957244432476
20
-40.509539483310292
30
-6.352673089795573
10
-39.445431157783815
20
-40.51133474411575
30
-6.352673089795573
10
-39.495811293218622
20
-40.513507705506512
30
-6.352673089795573
10
-39.546091695342781
20
-40.516077311244835
30
-6.352673089795573
10
-39.596267496639911
20
-40.519057257935557
30
-6.352673089795573
10
-39.646335838763221
20
-40.522451830519366
30
-6.352673089795573
10
-39.696297412585878
20
-40.526248979779368
30
-6.352673089795573
10
-39.746154938337114
20
-40.530427041368284
30
-6.352673089795573
10
-39.795910284443949
20
-40.53496752112806
30
-6.352673089795573
10
-39.845561811917861
20
-40.539866880181073
30
-6.352673089795573
10
-39.895102079875556
20
-40.545146696949274
30
-6.352673089795573
10
-39.944514224604589
20
-40.55086977560628
30
-6.352673089795573
10
-39.993775846916662
20
-40.557122582490436
30
-6.352673089795573
10
-40.042865395376253
20
-40.563986448062288
30
-6.352673089795573
10
-40.091768150005734
20
-40.571510645526587
30
-6.352673089795573
10
-40.140481437119263
20
-40.579688719299021
30
-6.352673089795573
10
-40.189022636625076
20
-40.588422792924412
30
-6.352673089795573
10
-40.23741707035596
20
-40.597574695779798
30
-6.352673089795573
10
-40.285681415050959
20
-40.607036474056684
30
-6.352673089795573
10
-40.333808106018822
20
-40.616796471137235
30
-6.352673089795573
10
-40.381750515429729
20
-40.62700239943058
30
-6.352673089795573
10
-40.429404508912938
20
-40.638039145433609
30
-6.352673089795573
10
-40.476634761750638
20
-40.650423695564406
30
-6.352673089795573
10
-40.513971887053856
20
-40.66182813250775
30
-6.352673089795573
10
-40.541675855446528
20
-40.671408383899731
30
-6.352673089795573
10
-40.560006317867504
20
-40.678275243393031
30
-6.352673089795573
10
-40.569136836311529
20
-40.681828680697514
30
-6.352673089795573
0
LINE
5
135
100
AcDbEntity
8
0
100
AcDbLine
10
-40.569136836311529
20
-40.681828680697514
30
-6.352673089795573
11
-41.156860374430963
21
-40.910560352166115
31
-6.352673089795573
0
ARC
5
136
100
AcDbEntity
8
0
100
AcDbCircle
10
-59.829096235760815
20
-48.194266312144833
30
-6.352673089795573
40
24.000000000001126
210
0
220
-0
230
1
100
AcDbArc
50
31.04177287550408
51
34.412772579053865
0
ARC
5
137
100
AcDbEntity
8
0
100
AcDbCircle
10
-44.270545546248897
20
-35.549033175426956
30
-6.352673089795573
40
0.49999999999999017
210
0
220
0
230
1
100
AcDbArc
50
219.10253261365082
51
307.62874938961033
0
SPLINE
5
138
100
AcDbEntity
8
0
100
AcDbSpline
70
0
71
5
72
81
73
75
74
0
42
0.000000001
43
0.0000000001
44
0.0000000001
40
0
40
0
40
0
40
0
40
0
40
0
40
0.014285714285714284
40
0.028571428571428567
40
0.042857142857142858
40
0.057142857142857134
40
0.071428571428571438
40
0.085714285714285715
40
0.10000000000000001
40
0.1142857142857143
40
0.12857142857142859
40
0.14285714285714288
40
0.15714285714285714
40
0.17142857142857146
40
0.18571428571428572
40
0.20000000000000004
40
0.21428571428571436
40
0.22857142857142865
40
0.24285714285714291
40
0.25714285714285717
40
0.27142857142857146
40
0.2857142857142857
40
0.30000000000000004
40
0.31428571428571433
40
0.32857142857142863
40
0.34285714285714292
40
0.35714285714285721
40
0.3714285714285715
40
0.38571428571428573
40
0.40000000000000008
40
0.41428571428571442
40
0.42857142857142871
40
0.44285714285714295
40
0.4571428571428573
40
0.47142857142857147
40
0.48571428571428582
40
0.50000000000000011
40
0.51428571428571435
40
0.52857142857142858
40
0.54285714285714282
40
0.55714285714285705
40
0.57142857142857129
40
0.58571428571428552
40
0.59999999999999976
40
0.61428571428571399
40
0.62857142857142823
40
0.64285714285714246
40
0.6571428571428567
40
0.67142857142857093
40
0.68571428571428517
40
0.6999999999999994
40
0.71428571428571364
40
0.72857142857142776
40
0.74285714285714211
40
0.75714285714285634
40
0.77142857142857058
40
0.78571428571428481
40
0.79999999999999905
40
0.81428571428571328
40
0.82857142857142752
40
0.84285714285714175
40
0.85714285714285599
40
0.87142857142857022
40
0.88571428571428445
40
0.89999999999999869
40
0.91428571428571281
40
0.92857142857142716
40
0.94285714285714117
40
0.95714285714285563
40
0.97142857142856975
40
0.98571428571428399
40
1
40
1
40
1
40
1
40
1
40
1
10
-39.56505692664075
20
-44.101410815888435
30
-6.352673089795573
10
-39.555454712494026
20
-44.09946382661915
30
-6.352673089795573
10
-39.536321641694144
20
-44.095330400239732
30
-6.352673089795573
10
-39.507836105466382
20
-44.088411924450064
30
-6.352673089795573
10
-39.470260412787624
20
-44.077819973373231
30
-6.352673089795573
10
-39.423832202424848
20
-44.062703917420471
30
-6.352673089795573
10
-39.3777761966725
20
-44.046224924994711
30
-6.352673089795573
10
-39.331926733967691
20
-44.028891074812584
30
-6.352673089795573
10
-39.286163332367522
20
-44.011082453290726
30
-6.352673089795573
10
-39.240445358340864
20
-43.992948532923165
30
-6.352673089795573
10
-39.194785477754394
20
-43.974483597319818
30
-6.352673089795573
10
-39.149228025477726
20
-43.955587813832096
30
-6.352673089795573
10
-39.103826400108076
20
-43.936131255918895
30
-6.352673089795573
10
-39.05861889674307
20
-43.916022188378747
30
-6.352673089795573
10
-39.013611254782688
20
-43.895256625932227
30
-6.352673089795573
10
-38.968789218354388
20
-43.873883978057641
30
-6.352673089795573
10
-38.924126947112882
20
-43.851984315877992
30
-6.352673089795573
10
-38.879596537222469
20
-43.829642489421303
30
-6.352673089795573
10
-38.835178220841144
20
-43.806920450131848
30
-6.352673089795573
10
-38.790866591462546
20
-43.783840373778524
30
-6.352673089795573
10
-38.746664941153327
20
-43.760400169372133
30
-6.352673089795573
10
-38.702581696789252
20
-43.736583268488943
30
-6.352673089795573
10
-38.658626282598419
20
-43.712369975253331
30
-6.352673089795573
10
-38.614804631679704
20
-43.687749779704781
30
-6.352673089795573
10
-38.571116832013686
20
-43.662727831903737
30
-6.352673089795573
10
-38.527559573472047
20
-43.63731828574543
30
-6.352673089795573
10
-38.484127624279992
20
-43.611540297465901
30
-6.352673089795573
10
-38.440815574741904
20
-43.585413291667969
30
-6.352673089795573
10
-38.397619745689951
20
-43.558951780451977
30
-6.352673089795573
10
-38.35453906044998
20
-43.532163004978777
30
-6.352673089795573
10
-38.311573986701774
20
-43.505049834562456
30
-6.352673089795573
10
-38.26872589837636
20
-43.477612521692578
30
-6.352673089795573
10
-38.225996321841137
20
-43.449850771491647
30
-6.352673089795573
10
-38.183386104029168
20
-43.421766025395897
30
-6.352673089795573
10
-38.140895060373538
20
-43.393362432021135
30
-6.352673089795573
10
-38.098522423430921
20
-43.364645628052017
30
-6.352673089795573
10
-38.056267108897487
20
-43.335622018381414
30
-6.352673089795573
10
-38.014128031536444
20
-43.306297919606891
30
-6.352673089795573
10
-37.972104452974961
20
-43.276678616192385
30
-6.352673089795573
10
-37.930196122957668
20
-43.246767981332077
30
-6.352673089795573
10
-37.888403087400931
20
-43.216569008708909
30
-6.352673089795573
10
-37.846725572335203
20
-43.186084136793156
30
-6.352673089795573
10
-37.805163846195896
20
-43.155315631536027
30
-6.352673089795573
10
-37.76371806749394
20
-43.12426601030861
30
-6.352673089795573
10
-37.722388219233963
20
-43.092938223529558
30
-6.352673089795573
10
-37.68117418936518
20
-43.061335429587587
30
-6.352673089795573
10
-37.640075817092807
20
-43.029460863986586
30
-6.352673089795573
10
-37.599092948595811
20
-42.997317683243651
30
-6.352673089795573
10
-37.558225496155288
20
-42.964908795968242
30
-6.352673089795573
10
-37.517473466464125
20
-42.932236789105033
30
-6.352673089795573
10
-37.476836930473411
20
-42.899304032552052
30
-6.352673089795573
10
-37.436316005488649
20
-42.86611274684364
30
-6.352673089795573
10
-37.395910832653328
20
-42.832665081969203
30
-6.352673089795573
10
-37.35562155297211
20
-42.798963206168821
30
-6.352673089795573
10
-37.315448291826868
20
-42.765009349427643
30
-6.352673089795573
10
-37.275391164809392
20
-42.730805743687014
30
-6.352673089795573
10
-37.235450277996037
20
-42.696354584957568
30
-6.352673089795573
10
-37.195625730189278
20
-42.661657991616302
30
-6.352673089795573
10
-37.155917612017873
20
-42.626717958592415
30
-6.352673089795573
10
-37.116326010006603
20
-42.591536338733327
30
-6.352673089795573
10
-37.076851023945977
20
-42.556114901990028
30
-6.352673089795573
10
-37.037492781842744
20
-42.520455383416682
30
-6.352673089795573
10
-36.998251453623269
20
-42.484559533655556
30
-6.352673089795573
10
-36.959127267825508
20
-42.44842917867993
30
-6.352673089795573
10
-36.920120516323948
20
-42.412066251504314
30
-6.352673089795573
10
-36.881231509000486
20
-42.375472694002156
30
-6.352673089795573
10
-36.842460534251572
20
-42.338650378105676
30
-6.352673089795573
10
-36.803807817653066
20
-42.301601022324569
30
-6.352673089795573
10
-36.765273477425175
20
-42.264326108799999
30
-6.352673089795573
10
-36.726857489046708
20
-42.226826810141411
30
-6.352673089795573
10
-36.688559743660662
20
-42.18910401023944
30
-6.352673089795573
10
-36.658016026867401
20
-42.158747456327525
30
-6.352673089795573
10
-36.635161327182587
20
-42.135879897326731
30
-6.352673089795573
10
-36.619948447506289
20
-42.120590364517092
30
-6.352673089795573
10
-36.612347904363759
20
-42.112934474743682
30
-6.352673089795573
0
ARC
5
139
100
AcDbEntity
8
0
100
AcDbCircle
10
-48.463350033011835
20
-31.677903701243409
30
-6.352673089795573
40
0.50000000000000278
210
0
220
0
230
1
100
AcDbArc
50
235.46616897728705
51
323.99238575324608
0
ARC
5
140
100
AcDbEntity
8
0
100
AcDbCircle
10
-59.829096235760815
20
-48.194266312144833
30
-6.352673089795573
40
19.549200000002131
210
0
220
-0
230
1
100
AcDbArc
50
55.466168977292554
51
59.079285568173113
0
ARC
5
141
100
AcDbEntity
8
0
100
AcDbCircle
10
-49.526785964602084
20
-30.994474926291701
30
-6.352673089795573
40
0.50000000000000833
210
0
220
0
230
1
100
AcDbArc
50
150.55306879220907
51
239.0792855681664
0
LINE
5
142
100
AcDbEntity
8
0
100
AcDbLine
10
-39.232802257870119
20
-46.412292796322959
30
-6.352673089795573
11
-39.861160021757044
21
-46.466178372829916
31
-6.352673089795573
0
ARC
5
143
100
AcDbEntity
8
0
100
AcDbCircle
10
-39.903881322525748
20
-45.968006825608853
30
-6.352673089795573
40
0.50000000000001354
210
0
220
0
230
1
100
AcDbArc
50
186.37525988637751
51
274.90147666233605
0
LINE
5
144
100
AcDbEntity
8
0
100
AcDbLine
10
-42.096724476237682
20
-38.852545038490732
30
-6.352673089795573
11
-41.538983545354156
21
-38.558160614973467
31
-6.352673089795573
0
ARC
5
145
100
AcDbEntity
8
0
100
AcDbCircle
10
-59.829096235760815
20
-48.194266312144833
30
-6.352673089795573
40
19.549200000000734
210
0
220
-0
230
1
100
AcDbArc
50
22.738896250022204
51
26.352012840903001
0
ARC
5
146
100
AcDbEntity
8
0
100
AcDbCircle
10
-39.903881322525748
20
-50.420525798675087
30
-6.352673089795573
40
0.49999999999999734
210
0
220
-0
230
1
100
AcDbArc
50
85.098523337663948
51
173.62474011362249
0
ARC
5
147
100
AcDbEntity
8
0
100
AcDbCircle
10
-59.829096235760815
20
-48.194266312144833
30
-6.352673089795573
40
19.5491999999991
210
-0
220
0
230
1
100
AcDbArc
50
350.0116235227494
51
353.62474011363048
0
SPLINE
5
148
100
AcDbEntity
8
0
100
AcDbSpline
70
0
71
5
72
81
73
75
74
0
42
0.000000001
43
0.0000000001
44
0.0000000001
40
0
40
0
40
0
40
0
40
0
40
0
40
0.014285714285714284
40
0.028571428571428567
40
0.042857142857142858
40
0.057142857142857134
40
0.071428571428571438
40
0.085714285714285715
40
0.10000000000000001
40
0.1142857142857143
40
0.12857142857142859
40
0.14285714285714288
40
0.15714285714285714
40
0.17142857142857146
40
0.18571428571428572
40
0.20000000000000004
40
0.21428571428571436
40
0.22857142857142865
40
0.24285714285714291
40
0.25714285714285717
40
0.27142857142857146
40
0.2857142857142857
40
0.30000000000000004
40
0.31428571428571433
40
0.32857142857142863
40
0.34285714285714292
40
0.35714285714285721
40
0.3714285714285715
40
0.38571428571428573
40
0.40000000000000008
40
0.41428571428571442
40
0.42857142857142871
40
0.44285714285714295
40
0.4571428571428573
40
0.47142857142857147
40
0.48571428571428582
40
0.50000000000000011
40
0.51428571428571435
40
0.52857142857142858
40
0.54285714285714282
40
0.55714285714285705
40
0.57142857142857129
40
0.58571428571428552
40
0.59999999999999976
40
0.61428571428571399
40
0.62857142857142823
40
0.64285714285714246
40
0.6571428571428567
40
0.67142857142857093
40
0.68571428571428517
40
0.6999999999999994
40
0.71428571428571364
40
0.72857142857142776
40
0.74285714285714211
40
0.75714285714285634
40
0.77142857142857058
40
0.78571428571428481
40
0.79999999999999905
40
0.81428571428571328
40
0.82857142857142752
40
0.84285714285714175
40
0.85714285714285599
40
0.87142857142857022
40
0.88571428571428445
40
0.89999999999999869
40
0.91428571428571281
40
0.92857142857142716
40
0.94285714285714117
40
0.95714285714285563
40
0.97142857142856975
40
0.98571428571428399
40
1
40
1
40
1
40
1
40
1
40
1
10
-41.538983545354156
20
-38.558160614973467
30
-6.352673089795573
10
-41.530318818614234
20
-38.553587236106999
30
-6.352673089795573
10
-41.51312529240046
20
-38.544230833582311
30
-6.352673089795573
10
-41.487742780413953
20
-38.529567301719553
30
-6.352673089795573
10
-41.454673264768793
20
-38.508818103110983
30
-6.352673089795573
10
-41.414384408241162
20
-38.48123401522048
30
-6.352673089795573
10
-41.374836662999286
20
-38.452447061517191
30
-6.352673089795573
10
-41.335727935621748
20
-38.422898067704139
30
-6.352673089795573
10
-41.296835541812854
20
-38.392917780341563
30
-6.352673089795573
10
-41.258078382717102
20
-38.362638169448672
30
-6.352673089795573
10
-41.219470221637749
20
-38.332057318576311
30
-6.352673089795573
10
-41.181081723678034
20
-38.301091929575819
30
-6.352673089795573
10
-41.14300072895341
20
-38.269632382967231
30
-6.352673089795573
10
-41.105289826133813
20
-38.237601448445076
30
-6.352673089795573
10
-41.067955644916161
20
-38.204996919137592
30
-6.352673089795573
10
-41.030970586632321
20
-38.171862186748598
30
-6.352673089795573
10
-40.994287299010225
20
-38.138266798891472
30
-6.352673089795573
10
-40.95785510350035
20
-38.104284307152952
30
-6.352673089795573
10
-40.921637579258373
20
-38.069968584263819
30
-6.352673089795573
10
-40.885623291143332
20
-38.035339384529685
30
-6.352673089795573
10
-40.849815986969737
20
-38.000395629143426
30
-6.352673089795573
10
-40.814228420130135
20
-37.965123794944191
30
-6.352673089795573
10
-40.778875182074543
20
-37.929507638989534
30
-6.352673089795573
10
-40.743764926567678
20
-37.893538748593343
30
-6.352673089795573
10
-40.708896287086617
20
-37.857222089989406
30
-6.352673089795573
10
-40.674262099973362
20
-37.820570311169845
30
-6.352673089795573
10
-40.639851948441432
20
-37.783600318447242
30
-6.352673089795573
10
-40.605655169382842
20
-37.746329225504127
30
-6.352673089795573
10
-40.571664144130807
20
-37.70876992005747
30
-6.352673089795573
10
-40.537875799553277
20
-37.670929046616052
30
-6.352673089795573
10
-40.504289776006516
20
-37.632809490027228
30
-6.352673089795573
10
-40.47090732063316
20
-37.594411879634031
30
-6.352673089795573
10
-40.437729981048577
20
-37.555736362530972
30
-6.352673089795573
10
-40.404758163779618
20
-37.516784560374617
30
-6.352673089795573
10
-40.371990522935462
20
-37.477560401734173
30
-6.352673089795573
10
-40.339424734122034
20
-37.438069078755177
30
-6.352673089795573
10
-40.307057952490609
20
-37.398316431403664
30
-6.352673089795573
10
-40.274887357172901
20
-37.358308214664063
30
-6.352673089795573
10
-40.242910750899853
20
-37.318049290918736
30
-6.352673089795573
10
-40.211126802348275
20
-37.277543305965196
30
-6.352673089795573
10
-40.179534712156681
20
-37.236793145157321
30
-6.352673089795573
10
-40.148134010203194
20
-37.195801211870361
30
-6.352673089795573
10
-40.116924315657542
20
-37.154569755895551
30
-6.352673089795573
10
-40.085905071384374
20
-37.113101237290465
30
-6.352673089795573
10
-40.055075429847818
20
-37.071398482172917
30
-6.352673089795573
10
-40.024434393714984
20
-37.029464489426339
30
-6.352673089795573
10
-39.993980897157648
20
-36.98730231819286
30
-6.352673089795573
10
-39.96371390329189
20
-36.944914953792029
30
-6.352673089795573
10
-39.933632508502171
20
-36.902305162300941
30
-6.352673089795573
10
-39.903735990383723
20
-36.859475427760444
30
-6.352673089795573
10
-39.874023749336104
20
-36.816428044060252
30
-6.352673089795573
10
-39.844495272316358
20
-36.773165174836265
30
-6.352673089795573
10
-39.81515008902862
20
-36.729688922752928
30
-6.352673089795573
10
-39.785987723902082
20
-36.686001407946939
30
-6.352673089795573
10
-39.757007668980378
20
-36.642104805397565
30
-6.352673089795573
10
-39.72820940636241
20
-36.598001289202777
30
-6.352673089795573
10
-39.699592419140103
20
-36.553692996304569
30
-6.352673089795573
10
-39.671156205297834
20
-36.509181987106615
30
-6.352673089795573
10
-39.642900289756838
20
-36.464470201262536
30
-6.352673089795573
10
-39.614824233529632
20
-36.419559440943281
30
-6.352673089795573
10
-39.586927633711625
20
-36.374451432518626
30
-6.352673089795573
10
-39.559210124303178
20
-36.329147876824493
30
-6.352673089795573
10
-39.531671375134479
20
-36.283650501463647
30
-6.352673089795573
10
-39.504311091049985
20
-36.237961122831194
30
-6.352673089795573
10
-39.47712900750814
20
-36.192081677871506
30
-6.352673089795573
10
-39.450124874749463
20
-36.146014117102368
30
-6.352673089795573
10
-39.423298442104041
20
-36.099760317880232
30
-6.352673089795573
10
-39.396649441850201
20
-36.053321992655157
30
-6.352673089795573
10
-39.370177569851975
20
-36.006700596837646
30
-6.352673089795573
10
-39.343882472219235
20
-35.959897248629808
30
-6.352673089795573
10
-39.317763795483614
20
-35.912912765449924
30
-6.352673089795573
10
-39.297009743382944
20
-35.875180705840684
30
-6.352673089795573
10
-39.281523355487295
20
-35.846800530677669
30
-6.352673089795573
10
-39.271234263500801
20
-35.827844367888837
30
-6.352673089795573
10
-39.26609850916067
20
-35.818357274991556
30
-6.352673089795573
0
ARC
5
149
100
AcDbEntity
8
0
100
AcDbCircle
10
-59.829096235760815
20
-48.194266312144833
30
-6.352673089795573
40
23.999999999998725
210
-0
220
0
230
1
100
AcDbArc
50
341.95086378459484
51
345.32186348814508
0
LINE
5
150
100
AcDbEntity
8
0
100
AcDbLine
10
-39.56505692664075
20
-52.287121808395504
30
-6.352673089795573
11
-40.183143107252505
21
-52.161795801002071
31
-6.352673089795573
0
LINE
5
151
100
AcDbEntity
8
0
100
AcDbLine
10
-39.861160021757044
20
-49.922354251454024
30
-6.352673089795573
11
-39.232802257870119
21
-49.976239827960981
31
-6.352673089795573
0
ARC
5
152
100
AcDbEntity
8
0
100
AcDbCircle
10
-41.863332048913797
20
-39.294730491516788
30
-6.352673089795573
40
0.499999999999995
210
0
220
0
230
1
100
AcDbArc
50
117.8257960649351
51
206.35201284089771
0
ARC
5
153
100
AcDbEntity
8
0
100
AcDbCircle
10
-59.829096235760815
20
-48.194266312144833
30
-6.352673089795573
40
19.549199999998375
210
-0
220
0
230
1
100
AcDbArc
50
333.64798715911201
51
337.26110374999325
0
ARC
5
154
100
AcDbEntity
8
0
100
AcDbCircle
10
-59.829096235760815
20
-48.194266312144833
30
-6.352673089795573
40
19.549199999999907
210
0
220
-0
230
1
100
AcDbArc
50
6.3752598863861598
51
9.9883764772670958
0
LINE
5
155
100
AcDbEntity
8
0
100
AcDbLine
10
-40.183143107252505
20
-44.226736823281868
30
-6.352673089795573
11
-39.56505692664075
21
-44.101410815888435
31
-6.352673089795573
0
ARC
5
156
100
AcDbEntity
8
0
100
AcDbCircle
10
-59.829096235760815
20
-48.194266312144833
30
-6.352673089795573
40
24.000000000000348
210
0
220
-0
230
1
100
AcDbArc
50
14.678136511868225
51
18.049136215418134
0
SPLINE
5
157
100
AcDbEntity
8
0
100
AcDbSpline
70
0
71
5
72
81
73
75
74
0
42
0.000000001
43
0.0000000001
44
0.0000000001
40
0
40
0
40
0
40
0
40
0
40
0
40
0.014285714285714284
40
0.028571428571428567
40
0.042857142857142858
40
0.057142857142857134
40
0.071428571428571438
40
0.085714285714285715
40
0.10000000000000001
40
0.1142857142857143
40
0.12857142857142859
40
0.14285714285714288
40
0.15714285714285714
40
0.17142857142857146
40
0.18571428571428572
40
0.20000000000000004
40
0.21428571428571436
40
0.22857142857142865
40
0.24285714285714291
40
0.25714285714285717
40
0.27142857142857146
40
0.2857142857142857
40
0.30000000000000004
40
0.31428571428571433
40
0.32857142857142863
40
0.34285714285714292
40
0.35714285714285721
40
0.3714285714285715
40
0.38571428571428573
40
0.40000000000000008
40
0.41428571428571442
40
0.42857142857142871
40
0.44285714285714295
40
0.4571428571428573
40
0.47142857142857147
40
0.48571428571428582
40
0.50000000000000011
40
0.51428571428571435
40
0.52857142857142858
40
0.54285714285714282
40
0.55714285714285705
40
0.57142857142857129
40
0.58571428571428552
40
0.59999999999999976
40
0.61428571428571399
40
0.62857142857142823
40
0.64285714285714246
40
0.6571428571428567
40
0.67142857142857093
40
0.68571428571428517
40
0.6999999999999994
40
0.71428571428571364
40
0.72857142857142776
40
0.74285714285714211
40
0.75714285714285634
40
0.77142857142857058
40
0.78571428571428481
40
0.79999999999999905
40
0.81428571428571328
40
0.82857142857142752
40
0.84285714285714175
40
0.85714285714285599
40
0.87142857142857022
40
0.88571428571428445
40
0.89999999999999869
40
0.91428571428571281
40
0.92857142857142716
40
0.94285714285714117
40
0.95714285714285563
40
0.97142857142856975
40
0.98571428571428399
40
1
40
1
40
1
40
1
40
1
40
1
10
-40.569136836311529
20
-55.706703943586426
30
-6.352673089795573
10
-40.560006317867519
20
-55.710257380890909
30
-6.352673089795573
10
-40.541675855446528
20
-55.717124240384209
30
-6.352673089795573
10
-40.513971887053856
20
-55.726704491776189
30
-6.352673089795573
10
-40.476634761750638
20
-55.738108928719534
30
-6.352673089795573
10
-40.429404508912938
20
-55.750493478850331
30
-6.352673089795573
10
-40.381750515429729
20
-55.761530224853352
30
-6.352673089795573
10
-40.333808106018822
20
-55.771736153146698
30
-6.352673089795573
10
-40.285681415050959
20
-55.781496150227248
30
-6.352673089795573
10
-40.23741707035596
20
-55.790957928504142
30
-6.352673089795573
10
-40.189022636625076
20
-55.800109831359521
30
-6.352673089795573
10
-40.140481437119263
20
-55.808843904984911
30
-6.352673089795573
10
-40.091768150005734
20
-55.817021978757346
30
-6.352673089795573
10
-40.042865395376253
20
-55.824546176221645
30
-6.352673089795573
10
-39.993775846916662
20
-55.831410041793504
30
-6.352673089795573
10
-39.944514224604589
20
-55.837662848677653
30
-6.352673089795573
10
-39.895102079875556
20
-55.843385927334666
30
-6.352673089795573
10
-39.845561811917861
20
-55.848665744102853
30
-6.352673089795573
10
-39.795910284443949
20
-55.85356510315588
30
-6.352673089795573
10
-39.746154938337114
20
-55.858105582915641
30
-6.352673089795573
10
-39.696297412585878
20
-55.862283644504565
30
-6.352673089795573
10
-39.646335838763221
20
-55.866080793764574
30
-6.352673089795573
10
-39.596267496639911
20
-55.869475366348375
30
-6.352673089795573
10
-39.546091695342781
20
-55.872455313039104
30
-6.352673089795573
10
-39.495811293218622
20
-55.875024918777427
30
-6.352673089795573
10
-39.445431157783815
20
-55.87719788016819
30
-6.352673089795573
10
-39.39495724443249
20
-55.878993140973641
30
-6.352673089795573
10
-39.344395503972137
20
-55.880429966911784
30
-6.352673089795573
10
-39.293750687123691
20
-55.881522555446594
30
-6.352673089795573
10
-39.243025802998289
20
-55.882277580324235
30
-6.352673089795573
10
-39.192222796301564
20
-55.882697202518514
30
-6.352673089795573
10
-39.14134295936401
20
-55.882780891633992
30
-6.352673089795573
10
-39.090387416824711
20
-55.882527574387439
30
-6.352673089795573
10
-39.039357660468482
20
-55.881938005505532
30
-6.352673089795573
10
-38.988255777938704
20
-55.881015774810436
30
-6.352673089795573
10
-38.93708417104277
20
-55.879766039094186
30
-6.352673089795573
10
-38.885845390352799
20
-55.878194772714487
30
-6.352673089795573
10
-38.834541937919965
20
-55.876307876254636
30
-6.352673089795573
10
-38.783176049582423
20
-55.874110194483052
30
-6.352673089795573
10
-38.731749608818816
20
-55.87160512103636
30
-6.352673089795573
10
-38.680264272763679
20
-55.868795149536595
30
-6.352673089795573
10
-38.628721549902437
20
-55.865682209154215
30
-6.352673089795573
10
-38.577122891123082
20
-55.862268061001529
30
-6.352673089795573
10
-38.525469790767048
20
-55.858554737128401
30
-6.352673089795573
10
-38.473763829653663
20
-55.854544728773348
30
-6.352673089795573
10
-38.422006621073649
20
-55.850240753521227
30
-6.352673089795573
10
-38.370199779003386
20
-55.845645620183348
30
-6.352673089795573
10
-38.318344880582217
20
-55.840762067352827
30
-6.352673089795573
10
-38.266443424529385
20
-55.835592589332038
30
-6.352673089795573
10
-38.214496815083251
20
-55.830139358778865
30
-6.352673089795573
10
-38.162506393195144
20
-55.824404331019394
30
-6.352673089795573
10
-38.110473458060369
20
-55.818389310665786
30
-6.352673089795573
10
-38.058399290788287
20
-55.812096030096335
30
-6.352673089795573
10
-38.006285182238727
20
-55.805526237117789
30
-6.352673089795573
10
-37.954132443510616
20
-55.798681739926444
30
-6.352673089795573
10
-37.901942378524552
20
-55.791564353657236
30
-6.352673089795573
10
-37.849716263770659
20
-55.784175868362631
30
-6.352673089795573
10
-37.797455327647839
20
-55.776518012718128
30
-6.352673089795573
10
-37.745160724938103
20
-55.768592415967369
30
-6.352673089795573
10
-37.692833530155653
20
-55.760400590045919
30
-6.352673089795573
10
-37.640474784157348
20
-55.75194396998053
30
-6.352673089795573
10
-37.588085532670412
20
-55.74322394618595
30
-6.352673089795573
10
-37.535666865114678
20
-55.734241899527049
30
-6.352673089795573
10
-37.483219960944169
20
-55.724999242553359
30
-6.352673089795573
10
-37.430746110765902
20
-55.715497443620876
30
-6.352673089795573
10
-37.378246625125172
20
-55.705737968802708
30
-6.352673089795573
10
-37.325722758679461
20
-55.695722236949578
30
-6.352673089795573
10
-37.27317563029176
20
-55.685451571808287
30
-6.352673089795573
10
-37.220606140721216
20
-55.674927156320692
30
-6.352673089795573
10
-37.168014903299849
20
-55.664149990205757
30
-6.352673089795573
10
-37.115402304318636
20
-55.653120875892164
30
-6.352673089795573
10
-37.073295302538455
20
-55.644096497684423
30
-6.352673089795573
10
-37.041705569895399
20
-55.637215266408077
30
-6.352673089795573
10
-37.020641535606451
20
-55.632577596620678
30
-6.352673089795573
10
-37.01010846533093
20
-55.630246216159513
30
-6.352673089795573
0
SPLINE
5
158
100
AcDbEntity
8
0
100
AcDbSpline
70
0
71
5
72
81
73
75
74
0
42
0.000000001
43
0.0000000001
44
0.0000000001
40
-1
40
-1
40
-1
40
-1
40
-1
40
-1
40
-0.98571428571428399
40
-0.97142857142856975
40
-0.95714285714285563
40
-0.94285714285714117
40
-0.92857142857142716
40
-0.91428571428571281
40
-0.89999999999999869
40
-0.88571428571428445
40
-0.87142857142857022
40
-0.85714285714285599
40
-0.84285714285714175
40
-0.82857142857142752
40
-0.81428571428571328
40
-0.79999999999999905
40
-0.78571428571428481
40
-0.77142857142857058
40
-0.75714285714285634
40
-0.74285714285714211
40
-0.72857142857142776
40
-0.71428571428571364
40
-0.6999999999999994
40
-0.68571428571428517
40
-0.67142857142857093
40
-0.6571428571428567
40
-0.64285714285714246
40
-0.62857142857142823
40
-0.61428571428571399
40
-0.59999999999999976
40
-0.58571428571428552
40
-0.57142857142857129
40
-0.55714285714285705
40
-0.54285714285714282
40
-0.52857142857142858
40
-0.51428571428571435
40
-0.50000000000000011
40
-0.48571428571428582
40
-0.47142857142857147
40
-0.4571428571428573
40
-0.44285714285714295
40
-0.42857142857142871
40
-0.41428571428571442
40
-0.40000000000000008
40
-0.38571428571428573
40
-0.3714285714285715
40
-0.35714285714285721
40
-0.34285714285714292
40
-0.32857142857142863
40
-0.31428571428571433
40
-0.30000000000000004
40
-0.2857142857142857
40
-0.27142857142857146
40
-0.25714285714285717
40
-0.24285714285714291
40
-0.22857142857142865
40
-0.21428571428571436
40
-0.20000000000000004
40
-0.18571428571428572
40
-0.17142857142857146
40
-0.15714285714285714
40
-0.14285714285714288
40
-0.12857142857142859
40
-0.1142857142857143
40
-0.10000000000000001
40
-0.085714285714285715
40
-0.071428571428571438
40
-0.057142857142857134
40
-0.042857142857142858
40
-0.028571428571428567
40
-0.014285714285714284
40
-0
40
-0
40
-0
40
-0
40
-0
40
-0
10
-36.61234790436378
20
-54.275598149540258
30
-6.352673089795573
10
-36.619948447506289
20
-54.267942259766848
30
-6.352673089795573
10
-36.635161327182587
20
-54.252652726957209
30
-6.352673089795573
10
-36.658016026867415
20
-54.229785167956408
30
-6.352673089795573
10
-36.688559743660662
20
-54.1994286140445
30
-6.352673089795573
10
-36.726857489046708
20
-54.161705814142529
30
-6.352673089795573
10
-36.765273477425175
20
-54.124206515483941
30
-6.352673089795573
10
-36.803807817653066
20
-54.086931601959371
30
-6.352673089795573
10
-36.842460534251572
20
-54.049882246178257
30
-6.352673089795573
10
-36.881231509000486
20
-54.013059930281784
30
-6.352673089795573
10
-36.920120516323948
20
-53.976466372779626
30
-6.352673089795573
10
-36.959127267825508
20
-53.940103445604002
30
-6.352673089795573
10
-36.998251453623269
20
-53.903973090628376
30
-6.352673089795573
10
-37.037492781842744
20
-53.868077240867251
30
-6.352673089795573
10
-37.076851023946006
20
-53.832417722293904
30
-6.352673089795573
10
-37.116326010006603
20
-53.796996285550605
30
-6.352673089795573
10
-37.155917612017873
20
-53.76181466569151
30
-6.352673089795573
10
-37.195625730189278
20
-53.726874632667638
30
-6.352673089795573
10
-37.235450277996037
20
-53.692178039326357
30
-6.352673089795573
10
-37.275391164809392
20
-53.657726880596925
30
-6.352673089795573
10
-37.315448291826868
20
-53.623523274856282
30
-6.352673089795573
10
-37.35562155297211
20
-53.589569418115119
30
-6.352673089795573
10
-37.395910832653328
20
-53.555867542314736
30
-6.352673089795573
10
-37.436316005488663
20
-53.522419877440299
30
-6.352673089795573
10
-37.476836930473411
20
-53.489228591731873
30
-6.352673089795573
10
-37.517473466464125
20
-53.456295835178906
30
-6.352673089795573
10
-37.558225496155288
20
-53.423623828315698
30
-6.352673089795573
10
-37.599092948595811
20
-53.391214941040282
30
-6.352673089795573
10
-37.640075817092807
20
-53.359071760297347
30
-6.352673089795573
10
-37.68117418936518
20
-53.327197194696353
30
-6.352673089795573
10
-37.722388219233963
20
-53.295594400754382
30
-6.352673089795573
10
-37.763718067493969
20
-53.26426661397533
30
-6.352673089795573
10
-37.805163846195917
20
-53.233216992747913
30
-6.352673089795573
10
-37.846725572335203
20
-53.202448487490777
30
-6.352673089795573
10
-37.888403087400931
20
-53.171963615575024
30
-6.352673089795573
10
-37.930196122957668
20
-53.141764642951856
30
-6.352673089795573
10
-37.972104452974961
20
-53.111854008091555
30
-6.352673089795573
10
-38.014128031536444
20
-53.082234704677049
30
-6.352673089795573
10
-38.056267108897487
20
-53.052910605902511
30
-6.352673089795573
10
-38.098522423430921
20
-53.023886996231923
30
-6.352673089795573
10
-38.140895060373538
20
-52.995170192262798
30
-6.352673089795573
10
-38.183386104029168
20
-52.966766598888036
30
-6.352673089795573
10
-38.225996321841137
20
-52.938681852792293
30
-6.352673089795573
10
-38.26872589837636
20
-52.910920102591355
30
-6.352673089795573
10
-38.311573986701774
20
-52.883482789721484
30
-6.352673089795573
10
-38.35453906044998
20
-52.856369619305156
30
-6.352673089795573
10
-38.397619745689951
20
-52.829580843831955
30
-6.352673089795573
10
-38.440815574741904
20
-52.803119332615971
30
-6.352673089795573
10
-38.484127624280013
20
-52.776992326818039
30
-6.352673089795573
10
-38.527559573472047
20
-52.75121433853851
30
-6.352673089795573
10
-38.571116832013686
20
-52.725804792380202
30
-6.352673089795573
10
-38.614804631679704
20
-52.700782844579159
30
-6.352673089795573
10
-38.658626282598419
20
-52.676162649030609
30
-6.352673089795573
10
-38.702581696789252
20
-52.651949355794983
30
-6.352673089795573
10
-38.746664941153327
20
-52.628132454911807
30
-6.352673089795573
10
-38.790866591462546
20
-52.604692250505416
30
-6.352673089795573
10
-38.835178220841144
20
-52.581612174152085
30
-6.352673089795573
10
-38.879596537222469
20
-52.558890134862622
30
-6.352673089795573
10
-38.924126947112882
20
-52.536548308405948
30
-6.352673089795573
10
-38.968789218354388
20
-52.514648646226298
30
-6.352673089795573
10
-39.013611254782688
20
-52.493275998351699
30
-6.352673089795573
10
-39.05861889674307
20
-52.472510435905178
30
-6.352673089795573
10
-39.103826400108076
20
-52.452401368365045
30
-6.352673089795573
10
-39.149228025477726
20
-52.432944810451836
30
-6.352673089795573
10
-39.194785477754394
20
-52.414049026964108
30
-6.352673089795573
10
-39.240445358340864
20
-52.395584091360774
30
-6.352673089795573
10
-39.286163332367522
20
-52.377450170993214
30
-6.352673089795573
10
-39.331926733967691
20
-52.359641549471341
30
-6.352673089795573
10
-39.3777761966725
20
-52.342307699289222
30
-6.352673089795573
10
-39.423832202424848
20
-52.325828706863462
30
-6.352673089795573
10
-39.470260412787624
20
-52.310712650910702
30
-6.352673089795573
10
-39.507836105466382
20
-52.300120699833869
30
-6.352673089795573
10
-39.536321641694144
20
-52.293202224044208
30
-6.352673089795573
10
-39.555454712494026
20
-52.289068797664775
30
-6.352673089795573
10
-39.56505692664075
20
-52.287121808395504
30
-6.352673089795573
0
ARC
5
159
100
AcDbEntity
8
0
100
AcDbCircle
10
-40.08378275141952
20
-51.67176772049163
30
-6.352673089795573
40
0.500000000000002
210
0
220
0
230
1
100
AcDbArc
50
170.01162352274108
51
258.53784029870133
0
ARC
5
160
100
AcDbEntity
8
0
100
AcDbCircle
10
-40.08378275141952
20
-44.716764903792303
30
-6.352673089795573
40
0.49999999999999856
210
0
220
0
230
1
100
AcDbArc
50
101.46215970129887
51
189.98837647725782
0
SPLINE
5
161
100
AcDbEntity
8
0
100
AcDbSpline
70
0
71
5
72
81
73
75
74
0
42
0.000000001
43
0.0000000001
44
0.0000000001
40
-1
40
-1
40
-1
40
-1
40
-1
40
-1
40
-0.98571428571428399
40
-0.97142857142856975
40
-0.95714285714285563
40
-0.94285714285714117
40
-0.92857142857142716
40
-0.91428571428571281
40
-0.89999999999999869
40
-0.88571428571428445
40
-0.87142857142857022
40
-0.85714285714285599
40
-0.84285714285714175
40
-0.82857142857142752
40
-0.81428571428571328
40
-0.79999999999999905
40
-0.78571428571428481
40
-0.77142857142857058
40
-0.75714285714285634
40
-0.74285714285714211
40
-0.72857142857142776
40
-0.71428571428571364
40
-0.6999999999999994
40
-0.68571428571428517
40
-0.67142857142857093
40
-0.6571428571428567
40
-0.64285714285714246
40
-0.62857142857142823
40
-0.61428571428571399
40
-0.59999999999999976
40
-0.58571428571428552
40
-0.57142857142857129
40
-0.55714285714285705
40
-0.54285714285714282
40
-0.52857142857142858
40
-0.51428571428571435
40
-0.50000000000000011
40
-0.48571428571428582
40
-0.47142857142857147
40
-0.4571428571428573
40
-0.44285714285714295
40
-0.42857142857142871
40
-0.41428571428571442
40
-0.40000000000000008
40
-0.38571428571428573
40
-0.3714285714285715
40
-0.35714285714285721
40
-0.34285714285714292
40
-0.32857142857142863
40
-0.31428571428571433
40
-0.30000000000000004
40
-0.2857142857142857
40
-0.27142857142857146
40
-0.25714285714285717
40
-0.24285714285714291
40
-0.22857142857142865
40
-0.21428571428571436
40
-0.20000000000000004
40
-0.18571428571428572
40
-0.17142857142857146
40
-0.15714285714285714
40
-0.14285714285714288
40
-0.12857142857142859
40
-0.1142857142857143
40
-0.10000000000000001
40
-0.085714285714285715
40
-0.071428571428571438
40
-0.057142857142857134
40
-0.042857142857142858
40
-0.028571428571428567
40
-0.014285714285714284
40
-0
40
-0
40
-0
40
-0
40
-0
40
-0
10
-35.839480174057869
20
-47.48834761139517
30
-6.352673089795573
10
-35.848929755199507
20
-47.483143159403738
30
-6.352673089795573
10
-35.867833965528732
20
-47.472758923591172
30
-6.352673089795573
10
-35.89620542515641
20
-47.457256574384239
30
-6.352673089795573
10
-35.934064336358119
20
-47.436734833630211
30
-6.352673089795573
10
-35.981438494828893
20
-47.411329793908081
30
-6.352673089795573
10
-36.028863139043338
20
-47.386172514959142
30
-6.352673089795573
10
-36.07633812442819
20
-47.361263875538839
30
-6.352673089795573
10
-36.123863144149112
20
-47.33660500766608
30
-6.352673089795573
10
-36.171437667207215
20
-47.312197300138443
30
-6.352673089795573
10
-36.219060993003907
20
-47.288042338301828
30
-6.352673089795573
10
-36.266732317440585
20
-47.264141837011373
30
-6.352673089795573
10
-36.314450796098839
20
-47.240497572177212
30
-6.352673089795573
10
-36.362215604333926
20
-47.217111316282612
30
-6.352673089795573
10
-36.410026008429185
20
-47.193984756949533
30
-6.352673089795573
10
-36.457881352128595
20
-47.171119526033152
30
-6.352673089795573
10
-36.50578102378924
20
-47.148517252242058
30
-6.352673089795573
10
-36.553724429010117
20
-47.126179605717581
30
-6.352673089795573
10
-36.601710962763804
20
-47.10410833987693
30
-6.352673089795573
10
-36.649739976056125
20
-47.082305343307596
30
-6.352673089795573
10
-36.697810777271101
20
-47.060772620741531
30
-6.352673089795573
10
-36.745922645941448
20
-47.039512249350366
30
-6.352673089795573
10
-36.794074842347172
20
-47.018526338100159
30
-6.352673089795573
10
-36.842266617925802
20
-46.997816991321848
30
-6.352673089795573
10
-36.890497226520495
20
-46.97738624970092
30
-6.352673089795573
10
-36.938765926983152
20
-46.957236136372423
30
-6.352673089795573
10
-36.987071981163041
20
-46.937368748874647
30
-6.352673089795573
10
-37.035414653305736
20
-46.917786341118905
30
-6.352673089795573
10
-37.08379320816293
20
-46.898491393374798
30
-6.352673089795573
10
-37.132206910450222
20
-46.879486721145931
30
-6.352673089795573
10
-37.180655018464265
20
-46.860775396424692
30
-6.352673089795573
10
-37.229136774939718
20
-46.842360568955463
30
-6.352673089795573
10
-37.27765139756761
20
-46.824245300758349
30
-6.352673089795573
10
-37.3261980714258
20
-46.806432427527476
30
-6.352673089795573
10
-37.374775935198898
20
-46.788924320005037
30
-6.352673089795573
10
-37.423384092932736
20
-46.771723076728293
30
-6.352673089795573
10
-37.472021640756182
20
-46.754830973712217
30
-6.352673089795573
10
-37.52068769119488
20
-46.738250870438385
30
-6.352673089795573
10
-37.569381393162203
20
-46.721986553714522
30
-6.352673089795573
10
-37.618101966316203
20
-46.706043301970297
30
-6.352673089795573
10
-37.666848672342695
20
-46.690427481683216
30
-6.352673089795573
10
-37.715620747156763
20
-46.675145543786691
30
-6.352673089795573
10
-37.764417339077298
20
-46.6602031128538
30
-6.352673089795573
10
-37.813237456394901
20
-46.645604221450796
30
-6.352673089795573
10
-37.862079880383646
20
-46.631350014016974
30
-6.352673089795573
10
-37.910943229581321
20
-46.617439777592054
30
-6.352673089795573
10
-37.959826114576302
20
-46.603873367356925
30
-6.352673089795573
10
-38.008727278253872
20
-46.590653404637656
30
-6.352673089795573
10
-38.057645713604572
20
-46.577787140611363
30
-6.352673089795573
10
-38.106580862232931
20
-46.565289536077721
30
-6.352673089795573
10
-38.155532442160919
20
-46.553180752894036
30
-6.352673089795573
10
-38.204500076304285
20
-46.541480645295465
30
-6.352673089795573
10
-38.253482953094803
20
-46.530203726415955
30
-6.352673089795573
10
-38.30247953717604
20
-46.519354912915318
30
-6.352673089795573
10
-38.351487096779366
20
-46.508922449013184
30
-6.352673089795573
10
-38.400502138393534
20
-46.498884781543396
30
-6.352673089795573
10
-38.449521244354813
20
-46.489223639094533
30
-6.352673089795573
10
-38.498541845048152
20
-46.479936087894806
30
-6.352673089795573
10
-38.547562880342298
20
-46.471044928627528
30
-6.352673089795573
10
-38.596585863604048
20
-46.462615172512841
30
-6.352673089795573
10
-38.645613663352272
20
-46.454736093975413
30
-6.352673089795573
10
-38.694648514574524
20
-46.447491800761739
30
-6.352673089795573
10
-38.743690175421705
20
-46.440933717262467
30
-6.352673089795573
10
-38.792734261762746
20
-46.435056402654169
30
-6.352673089795573
10
-38.841769874513531
20
-46.429761048679843
30
-6.352673089795573
10
-38.890782382631755
20
-46.424907947612894
30
-6.352673089795573
10
-38.939757373228936
20
-46.420388820152276
30
-6.352673089795573
10
-38.988684303988194
20
-46.416194613074858
30
-6.352673089795573
10
-39.037560051229136
20
-46.412480191977053
30
-6.352673089795573
10
-39.086393133811569
20
-46.409644190790814
30
-6.352673089795573
10
-39.135199360525078
20
-46.408220779730449
30
-6.352673089795573
10
-39.174237071087873
20
-46.408644173068836
30
-6.352673089795573
10
-39.203517902821702
20
-46.410031247114972
30
-6.352673089795573
10
-39.223040470600253
20
-46.411455662503649
30
-6.352673089795573
10
-39.232802257870119
20
-46.412292796322959
30
-6.352673089795573
0
ARC
5
162
100
AcDbEntity
8
0
100
AcDbCircle
10
-41.338202306086451
20
-40.444604234250008
30
-6.352673089795573
40
0.49999999999999828
210
0
220
0
230
1
100
AcDbArc
50
202.73889625001746
51
291.26511302597311
0
SPLINE
5
163
100
AcDbEntity
8
0
100
AcDbSpline
70
0
71
5
72
81
73
75
74
0
42
0.000000001
43
0.0000000001
44
0.0000000001
40
0
40
0
40
0
40
0
40
0
40
0
40
0.014285714285714284
40
0.028571428571428567
40
0.042857142857142858
40
0.057142857142857134
40
0.071428571428571438
40
0.085714285714285715
40
0.10000000000000001
40
0.1142857142857143
40
0.12857142857142859
40
0.14285714285714288
40
0.15714285714285714
40
0.17142857142857146
40
0.18571428571428572
40
0.20000000000000004
40
0.21428571428571436
40
0.22857142857142865
40
0.24285714285714291
40
0.25714285714285717
40
0.27142857142857146
40
0.2857142857142857
40
0.30000000000000004
40
0.31428571428571433
40
0.32857142857142863
40
0.34285714285714292
40
0.35714285714285721
40
0.3714285714285715
40
0.38571428571428573
40
0.40000000000000008
40
0.41428571428571442
40
0.42857142857142871
40
0.44285714285714295
40
0.4571428571428573
40
0.47142857142857147
40
0.48571428571428582
40
0.50000000000000011
40
0.51428571428571435
40
0.52857142857142858
40
0.54285714285714282
40
0.55714285714285705
40
0.57142857142857129
40
0.58571428571428552
40
0.59999999999999976
40
0.61428571428571399
40
0.62857142857142823
40
0.64285714285714246
40
0.6571428571428567
40
0.67142857142857093
40
0.68571428571428517
40
0.6999999999999994
40
0.71428571428571364
40
0.72857142857142776
40
0.74285714285714211
40
0.75714285714285634
40
0.77142857142857058
40
0.78571428571428481
40
0.79999999999999905
40
0.81428571428571328
40
0.82857142857142752
40
0.84285714285714175
40
0.85714285714285599
40
0.87142857142857022
40
0.88571428571428445
40
0.89999999999999869
40
0.91428571428571281
40
0.92857142857142716
40
0.94285714285714117
40
0.95714285714285563
40
0.97142857142856975
40
0.98571428571428399
40
1
40
1
40
1
40
1
40
1
40
1
10
-39.232802257870119
20
-49.976239827960981
30
-6.352673089795573
10
-39.223040470600253
20
-49.977076961780284
30
-6.352673089795573
10
-39.203517902821702
20
-49.978501377168953
30
-6.352673089795573
10
-39.174237071087873
20
-49.979888451215103
30
-6.352673089795573
10
-39.135199360525078
20
-49.980311844553484
30
-6.352673089795573
10
-39.086393133811569
20
-49.978888433493118
30
-6.352673089795573
10
-39.037560051229136
20
-49.976052432306872
30
-6.352673089795573
10
-38.988684303988194
20
-49.972338011209068
30
-6.352673089795573
10
-38.939757373228936
20
-49.968143804131664
30
-6.352673089795573
10
-38.890782382631755
20
-49.963624676671039
30
-6.352673089795573
10
-38.841769874513531
20
-49.958771575604089
30
-6.352673089795573
10
-38.792734261762746
20
-49.953476221629771
30
-6.352673089795573
10
-38.743690175421705
20
-49.947598907021472
30
-6.352673089795573
10
-38.694648514574524
20
-49.941040823522201
30
-6.352673089795573
10
-38.645613663352272
20
-49.933796530308513
30
-6.352673089795573
10
-38.596585863604048
20
-49.925917451771092
30
-6.352673089795573
10
-38.547562880342298
20
-49.917487695656405
30
-6.352673089795573
10
-38.498541845048152
20
-49.908596536389133
30
-6.352673089795573
10
-38.449521244354813
20
-49.899308985189407
30
-6.352673089795573
10
-38.400502138393534
20
-49.88964784274053
30
-6.352673089795573
10
-38.351487096779366
20
-49.879610175270741
30
-6.352673089795573
10
-38.30247953717604
20
-49.869177711368607
30
-6.352673089795573
10
-38.253482953094803
20
-49.858328897867985
30
-6.352673089795573
10
-38.204500076304285
20
-49.847051978988475
30
-6.352673089795573
10
-38.155532442160919
20
-49.835351871389904
30
-6.352673089795573
10
-38.106580862232931
20
-49.823243088206212
30
-6.352673089795573
10
-38.057645713604572
20
-49.810745483672576
30
-6.352673089795573
10
-38.008727278253872
20
-49.797879219646283
30
-6.352673089795573
10
-37.959826114576302
20
-49.784659256927014
30
-6.352673089795573
10
-37.910943229581321
20
-49.771092846691872
30
-6.352673089795573
10
-37.862079880383646
20
-49.757182610266966
30
-6.352673089795573
10
-37.813237456394901
20
-49.742928402833144
30
-6.352673089795573
10
-37.764417339077298
20
-49.728329511430132
30
-6.352673089795573
10
-37.715620747156763
20
-49.713387080497249
30
-6.352673089795573
10
-37.666848672342695
20
-49.698105142600724
30
-6.352673089795573
10
-37.618101966316203
20
-49.682489322313643
30
-6.352673089795573
10
-37.569381393162203
20
-49.666546070569417
30
-6.352673089795573
10
-37.52068769119488
20
-49.650281753845547
30
-6.352673089795573
10
-37.472021640756182
20
-49.633701650571716
30
-6.352673089795573
10
-37.423384092932736
20
-49.61680954755564
30
-6.352673089795573
10
-37.374775935198898
20
-49.599608304278895
30
-6.352673089795573
10
-37.3261980714258
20
-49.582100196756464
30
-6.352673089795573
10
-37.27765139756761
20
-49.564287323525591
30
-6.352673089795573
10
-37.229136774939718
20
-49.546172055328476
30
-6.352673089795573
10
-37.180655018464265
20
-49.527757227859233
30
-6.352673089795573
10
-37.132206910450222
20
-49.509045903138002
30
-6.352673089795573
10
-37.08379320816293
20
-49.490041230909142
30
-6.352673089795573
10
-37.035414653305736
20
-49.470746283165035
30
-6.352673089795573
10
-36.987071981163041
20
-49.451163875409279
30
-6.352673089795573
10
-36.938765926983152
20
-49.431296487911503
30
-6.352673089795573
10
-36.890497226520495
20
-49.411146374583019
30
-6.352673089795573
10
-36.842266617925802
20
-49.390715632962092
30
-6.352673089795573
10
-36.794074842347172
20
-49.370006286183774
30
-6.352673089795573
10
-36.745922645941448
20
-49.349020374933573
30
-6.352673089795573
10
-36.697810777271101
20
-49.327760003542409
30
-6.352673089795573
10
-36.649739976056125
20
-49.306227280976344
30
-6.352673089795573
10
-36.601710962763804
20
-49.284424284407002
30
-6.352673089795573
10
-36.553724429010117
20
-49.262353018566351
30
-6.352673089795573
10
-36.50578102378924
20
-49.240015372041874
30
-6.352673089795573
10
-36.457881352128595
20
-49.217413098250773
30
-6.352673089795573
10
-36.410026008429185
20
-49.194547867334393
30
-6.352673089795573
10
-36.362215604333926
20
-49.171421308001314
30
-6.352673089795573
10
-36.314450796098839
20
-49.148035052106721
30
-6.352673089795573
10
-36.266732317440585
20
-49.124390787272567
30
-6.352673089795573
10
-36.219060993003907
20
-49.100490285982104
30
-6.352673089795573
10
-36.171437667207215
20
-49.076335324145496
30
-6.352673089795573
10
-36.123863144149112
20
-49.05192761661786
30
-6.352673089795573
10
-36.07633812442819
20
-49.027268748745101
30
-6.352673089795573
10
-36.028863139043338
20
-49.002360109324783
30
-6.352673089795573
10
-35.981438494828893
20
-48.977202830375859
30
-6.352673089795573
10
-35.934064336358119
20
-48.951797790653728
30
-6.352673089795573
10
-35.89620542515641
20
-48.931276049899701
30
-6.352673089795573
10
-35.867833965528732
20
-48.915773700692768
30
-6.352673089795573
10
-35.848929755199507
20
-48.905389464880187
30
-6.352673089795573
10
-35.839480174057869
20
-48.90018501288877
30
-6.352673089795573
0
SPLINE
5
164
100
AcDbEntity
8
0
100
AcDbSpline
70
0
71
5
72
81
73
75
74
0
42
0.000000001
43
0.0000000001
44
0.0000000001
40
-1
40
-1
40
-1
40
-1
40
-1
40
-1
40
-0.98571428571428399
40
-0.97142857142856975
40
-0.95714285714285563
40
-0.94285714285714117
40
-0.92857142857142716
40
-0.91428571428571281
40
-0.89999999999999869
40
-0.88571428571428445
40
-0.87142857142857022
40
-0.85714285714285599
40
-0.84285714285714175
40
-0.82857142857142752
40
-0.81428571428571328
40
-0.79999999999999905
40
-0.78571428571428481
40
-0.77142857142857058
40
-0.75714285714285634
40
-0.74285714285714211
40
-0.72857142857142776
40
-0.71428571428571364
40
-0.6999999999999994
40
-0.68571428571428517
40
-0.67142857142857093
40
-0.6571428571428567
40
-0.64285714285714246
40
-0.62857142857142823
40
-0.61428571428571399
40
-0.59999999999999976
40
-0.58571428571428552
40
-0.57142857142857129
40
-0.55714285714285705
40
-0.54285714285714282
40
-0.52857142857142858
40
-0.51428571428571435
40
-0.50000000000000011
40
-0.48571428571428582
40
-0.47142857142857147
40
-0.4571428571428573
40
-0.44285714285714295
40
-0.42857142857142871
40
-0.41428571428571442
40
-0.40000000000000008
40
-0.38571428571428573
40
-0.3714285714285715
40
-0.35714285714285721
40
-0.34285714285714292
40
-0.32857142857142863
40
-0.31428571428571433
40
-0.30000000000000004
40
-0.2857142857142857
40
-0.27142857142857146
40
-0.25714285714285717
40
-0.24285714285714291
40
-0.22857142857142865
40
-0.21428571428571436
40
-0.20000000000000004
40
-0.18571428571428572
40
-0.17142857142857146
40
-0.15714285714285714
40
-0.14285714285714288
40
-0.12857142857142859
40
-0.1142857142857143
40
-0.10000000000000001
40
-0.085714285714285715
40
-0.071428571428571438
40
-0.057142857142857134
40
-0.042857142857142858
40
-0.028571428571428567
40
-0.014285714285714284
40
-0
40
-0
40
-0
40
-0
40
-0
40
-0
10
-40.029395436018561
20
-34.630644073201886
30
-6.352673089795573
10
-40.040158668716813
20
-34.63137463885068
30
-6.352673089795573
10
-40.061676044180018
20
-34.632859251513352
30
-6.352673089795573
10
-40.093924837571095
20
-34.63515661460135
30
-6.352673089795573
10
-40.136868671065514
20
-34.638360700392226
30
-6.352673089795573
10
-40.190457350686856
20
-34.642601024736202
30
-6.352673089795573
10
-40.243954552031425
20
-34.647077073359618
30
-6.352673089795573
10
-40.297359678385419
20
-34.651789507356419
30
-6.352673089795573
10
-40.350671859607786
20
-34.656739113154352
30
-6.352673089795573
10
-40.403889898153139
20
-34.66192677200462
30
-6.352673089795573
10
-40.457012347537727
20
-34.667353438812839
30
-6.352673089795573
10
-40.510037604190131
20
-34.673020121478466
30
-6.352673089795573
10
-40.562963997610751
20
-34.678927857465062
30
-6.352673089795573
10
-40.615789875787613
20
-34.685077692043855
30
-6.352673089795573
10
-40.668513709081623
20
-34.691470648255631
30
-6.352673089795573
10
-40.721134063167526
20
-34.698107744105478
30
-6.352673089795573
10
-40.773649542952285
20
-34.704990019071175
30
-6.352673089795573
10
-40.826058745447313
20
-34.712118556807539
30
-6.352673089795573
10
-40.878360213702308
20
-34.719494505280494
30
-6.352673089795573
10
-40.930552380701087
20
-34.72711910239817
30
-6.352673089795573
10
-40.982633580779378
20
-34.734993660732613
30
-6.352673089795573
10
-41.034602084837744
20
-34.743119538197746
30
-6.352673089795573
10
-41.086456130391014
20
-34.751498109045905
30
-6.352673089795573
10
-41.138193950021119
20
-34.760130738849483
30
-6.352673089795573
10
-41.189813812743182
20
-34.769018740939536
30
-6.352673089795573
10
-41.241314001274283
20
-34.778163416590637
30
-6.352673089795573
10
-41.292692760627773
20
-34.787566131289871
30
-6.352673089795573
10
-41.343948253291117
20
-34.79722838336923
30
-6.352673089795573
10
-41.395078519799142
20
-34.807151861859012
30
-6.352673089795573
10
-41.446081419415052
20
-34.817338537786839
30
-6.352673089795573
10
-41.496954667333824
20
-34.827790594482039
30
-6.352673089795573
10
-41.547695923622939
20
-34.838510272269644
30
-6.352673089795573
10
-41.59830287470912
20
-34.849499724136727
30
-6.352673089795573
10
-41.648773301944303
20
-34.860760895040841
30
-6.352673089795573
10
-41.699105199023862
20
-34.872295313714929
30
-6.352673089795573
10
-41.749296677668241
20
-34.884104261171494
30
-6.352673089795573
10
-41.79934574698612
20
-34.896189163446593
30
-6.352673089795573
10
-41.849250114434078
20
-34.908551946284291
30
-6.352673089795573
10
-41.899007016729669
20
-34.92119533521781
30
-6.352673089795573
10
-41.948612943672913
20
-34.934123348860034
30
-6.352673089795573
10
-41.998063832176825
20
-34.947340943869889
30
-6.352673089795573
10
-42.047355551814363
20
-34.960853134022429
30
-6.352673089795573
10
-42.096484345231971
20
-34.97466419055602
30
-6.352673089795573
10
-42.145447197980715
20
-34.988776969722693
30
-6.352673089795573
10
-42.194242466072481
20
-35.003191775393063
30
-6.352673089795573
10
-42.242869372802744
20
-35.01790726091194
30
-6.352673089795573
10
-42.291326827619216
20
-35.032922553277068
30
-6.352673089795573
10
-42.339612355773809
20
-35.048239178040753
30
-6.352673089795573
10
-42.387721189833947
20
-35.063862690850954
30
-6.352673089795573
10
-42.435644771628475
20
-35.079805375641861
30
-6.352673089795573
10
-42.483371963619362
20
-35.096084041198296
30
-6.352673089795573
10
-42.530891714573272
20
-35.112715186098612
30
-6.352673089795573
10
-42.57819549536292
20
-35.129710580801124
30
-6.352673089795573
10
-42.625279356217348
20
-35.147073531386923
30
-6.352673089795573
10
-42.672147354681172
20
-35.164792671358555
30
-6.352673089795573
10
-42.718808204347184
20
-35.182847980304132
30
-6.352673089795573
10
-42.765268908364447
20
-35.20122223960567
30
-6.352673089795573
10
-42.811528891151994
20
-35.219911591978565
30
-6.352673089795573
10
-42.857574933890646
20
-35.238934645427953
30
-6.352673089795573
10
-42.903373161986323
20
-35.258346909060315
30
-6.352673089795573
10
-42.948877723192723
20
-35.278225036139176
30
-6.352673089795573
10
-42.994045025620231
20
-35.298640990928916
30
-6.352673089795573
10
-43.038847063687783
20
-35.319637903626351
30
-6.352673089795573
10
-43.083283090760972
20
-35.341208826879353
30
-6.352673089795573
10
-43.127397357723481
20
-35.363264745402859
30
-6.352673089795573
10
-43.171253087858886
20
-35.385680219439699
30
-6.352673089795573
10
-43.214896696483635
20
-35.408356366449482
30
-6.352673089795573
10
-43.258324209378358
20
-35.431279870769458
30
-6.352673089795573
10
-43.30144927207327
20
-35.454579324840616
30
-6.352673089795573
10
-43.344063533314419
20
-35.478594686509808
30
-6.352673089795573
10
-43.385891498080568
20
-35.503783875233921
30
-6.352673089795573
10
-43.418503206284583
20
-35.525245436125871
30
-6.352673089795573
10
-43.442385900578735
20
-35.542242729871852
30
-6.352673089795573
10
-43.458039232592242
20
-35.553995721352429
30
-6.352673089795573
10
-43.465798781907395
20
-35.559977583784786
30
-6.352673089795573
0
LINE
5
165
100
AcDbEntity
8
0
100
AcDbLine
10
-59.829096251181312
20
-42.494266693108401
30
-6.352673089795573
11
-59.829096235761234
21
-44.194266693108474
31
-6.352673089795573
0
LINE
5
166
100
AcDbEntity
8
0
100
AcDbLine
10
-45.44687714670399
20
-34.235163953935206
30
-6.352673089795573
11
-44.994666318755833
21
-33.795570389515902
31
-6.352673089795573
0
LINE
5
167
100
AcDbEntity
8
0
100
AcDbLine
10
-55.276864127027039
20
-28.675507453015054
30
-6.352673089795573
11
-55.134102394447019
21
-28.061214182253302
31
-6.352673089795573
0
SPLINE
5
168
100
AcDbEntity
8
0
100
AcDbSpline
70
0
71
5
72
81
73
75
74
0
42
0.000000001
43
0.0000000001
44
0.0000000001
40
0
40
0
40
0
40
0
40
0
40
0
40
0.014285714285714284
40
0.028571428571428567
40
0.042857142857142858
40
0.057142857142857134
40
0.071428571428571438
40
0.085714285714285715
40
0.10000000000000001
40
0.1142857142857143
40
0.12857142857142859
40
0.14285714285714288
40
0.15714285714285714
40
0.17142857142857146
40
0.18571428571428572
40
0.20000000000000004
40
0.21428571428571436
40
0.22857142857142865
40
0.24285714285714291
40
0.25714285714285717
40
0.27142857142857146
40
0.2857142857142857
40
0.30000000000000004
40
0.31428571428571433
40
0.32857142857142863
40
0.34285714285714292
40
0.35714285714285721
40
0.3714285714285715
40
0.38571428571428573
40
0.40000000000000008
40
0.41428571428571442
40
0.42857142857142871
40
0.44285714285714295
40
0.4571428571428573
40
0.47142857142857147
40
0.48571428571428582
40
0.50000000000000011
40
0.51428571428571435
40
0.52857142857142858
40
0.54285714285714282
40
0.55714285714285705
40
0.57142857142857129
40
0.58571428571428552
40
0.59999999999999976
40
0.61428571428571399
40
0.62857142857142823
40
0.64285714285714246
40
0.6571428571428567
40
0.67142857142857093
40
0.68571428571428517
40
0.6999999999999994
40
0.71428571428571364
40
0.72857142857142776
40
0.74285714285714211
40
0.75714285714285634
40
0.77142857142857058
40
0.78571428571428481
40
0.79999999999999905
40
0.81428571428571328
40
0.82857142857142752
40
0.84285714285714175
40
0.85714285714285599
40
0.87142857142857022
40
0.88571428571428445
40
0.89999999999999869
40
0.91428571428571281
40
0.92857142857142716
40
0.94285714285714117
40
0.95714285714285563
40
0.97142857142856975
40
0.98571428571428399
40
1
40
1
40
1
40
1
40
1
40
1
10
-49.652146380281579
20
-30.199476875367608
30
-6.352673089795573
10
-49.647329703589506
20
-30.190944999291524
30
-6.352673089795573
10
-49.637924042029752
20
-30.173778370545882
30
-6.352673089795573
10
-49.624498618002008
20
-30.147719800533082
30
-6.352673089795573
10
-49.607896634833807
20
-30.112385733928953
30
-6.352673089795573
10
-49.588916575772082
20
-30.067398722213685
30
-6.352673089795573
10
-49.571210297554046
20
-30.021800470395263
30
-6.352673089795573
10
-49.554285334653244
20
-29.975798500619383
30
-6.352673089795573
10
-49.537775538028512
20
-29.929550662378681
30
-6.352673089795573
10
-49.521541334602084
20
-29.883124130566479
30
-6.352673089795573
10
-49.505595338912073
20
-29.836524733966733
30
-6.352673089795573
10
-49.490042032605444
20
-29.789720602156748
30
-6.352673089795573
10
-49.475014576254864
20
-29.742667007313564
30
-6.352673089795573
10
-49.46060737665556
20
-29.695332817159539
30
-6.352673089795573
10
-49.446827204188409
20
-29.647719759440776
30
-6.352673089795573
10
-49.433627382050105
20
-29.599849416614894
30
-6.352673089795573
10
-49.420930474695993
20
-29.551754695286292
30
-6.352673089795573
10
-49.408654083627198
20
-29.5034700720947
30
-6.352673089795573
10
-49.396738443882583
20
-29.455021177070158
30
-6.352673089795573
10
-49.385163255625514
20
-29.4064184462881
30
-6.352673089795573
10
-49.373932254965318
20
-29.357662998419734
30
-6.352673089795573
10
-49.363063481911297
20
-29.308750352062773
30
-6.352673089795573
10
-49.352577993169916
20
-29.259674731517968
30
-6.352673089795573
10
-49.342487616992941
20
-29.210433738161854
30
-6.352673089795573
10
-49.332788518839351
20
-29.161030811058062
30
-6.352673089795573
10
-49.323467834235814
20
-29.111472717408731
30
-6.352673089795573
10
-49.314507659781185
20
-29.06176804796911
30
-6.352673089795573
10
-49.305889772742958
20
-29.011925434773644
30
-6.352673089795573
10
-49.297600796264845
20
-28.96195160069756
30
-6.352673089795573
10
-49.289634552771076
20
-28.911850473996672
30
-6.352673089795573
10
-49.281989180043851
20
-28.861624287120957
30
-6.352673089795573
10
-49.274665386997768
20
-28.81127424376368
30
-6.352673089795573
10
-49.26766439604441
20
-28.760801304372645
30
-6.352673089795573
10
-49.260985672442189
20
-28.710207052957195
30
-6.352673089795573
10
-49.254625960010884
20
-28.659494066796512
30
-6.352673089795573
10
-49.248580496259947
20
-28.608665457139075
30
-6.352673089795573
10
-49.242843730626248
20
-28.557724598835598
30
-6.352673089795573
10
-49.237410178664987
20
-28.506674808210526
30
-6.352673089795573
10
-49.232275363113388
20
-28.455518987826885
30
-6.352673089795573
10
-49.227436192924188
20
-28.404259484957024
30
-6.352673089795573
10
-49.222890435691596
20
-28.352898294747639
30
-6.352673089795573
10
-49.218636396561223
20
-28.301437184879596
30
-6.352673089795573
10
-49.214672538829198
20
-28.24987784210532
30
-6.352673089795573
10
-49.210997063795986
20
-28.19822203474682
30
-6.352673089795573
10
-49.207607730554329
20
-28.146471682073198
30
-6.352673089795573
10
-49.204502078775661
20
-28.094628767706872
30
-6.352673089795573
10
-49.201677557931106
20
-28.042695288931732
30
-6.352673089795573
10
-49.199131681752831
20
-27.990673196576637
30
-6.352673089795573
10
-49.196862194616827
20
-27.93856432908224
30
-6.352673089795573
10
-49.194867145823707
20
-27.886370385595171
30
-6.352673089795573
10
-49.193144790787059
20
-27.834092971689834
30
-6.352673089795573
10
-49.191693528157799
20
-27.781733630160559
30
-6.352673089795573
10
-49.190511825511685
20
-27.72929387562014
30
-6.352673089795573
10
-49.189598136540589
20
-27.67677523452803
30
-6.352673089795573
10
-49.188950858041864
20
-27.6241792619713
30
-6.352673089795573
10
-49.188568378923335
20
-27.57150750691909
30
-6.352673089795573
10
-49.188449109016105
20
-27.518761487619756
30
-6.352673089795573
10
-49.188591512059517
20
-27.465942665985075
30
-6.352673089795573
10
-49.188994139735925
20
-27.413052416908535
30
-6.352673089795573
10
-49.189655648418373
20
-27.360092019138207
30
-6.352673089795573
10
-49.190574765815995
20
-27.307062707162146
30
-6.352673089795573
10
-49.191750264488959
20
-27.253965713940211
30
-6.352673089795573
10
-49.193180932668227
20
-27.200802314321095
30
-6.352673089795573
10
-49.194865540035778
20
-27.14757387678042
30
-6.352673089795573
10
-49.196802816853889
20
-27.094281887757539
30
-6.352673089795573
10
-49.198991498482002
20
-27.040927853102261
30
-6.352673089795573
10
-49.201430359067672
20
-26.987513216624926
30
-6.352673089795573
10
-49.204118247568672
20
-26.934039274188962
30
-6.352673089795573
10
-49.207054121275235
20
-26.880507085735267
30
-6.352673089795573
10
-49.210237077930273
20
-26.826917400627856
30
-6.352673089795573
10
-49.21366637824768
20
-26.773270715423322
30
-6.352673089795573
10
-49.216606450148831
20
-26.730307999282815
30
-6.352673089795573
10
-49.218921952720507
20
-26.698060503253238
30
-6.352673089795573
10
-49.220514693083217
20
-26.676550861235768
30
-6.352673089795573
10
-49.221323331260095
20
-26.665793212394931
30
-6.352673089795573
0
LINE
5
169
100
AcDbEntity
8
0
100
AcDbLine
10
-47.688117770937396
20
-31.461681420635308
30
-6.352673089795573
11
-48.05888059586762
21
-31.971850081415436
31
-6.352673089795573
0
SPLINE
5
170
100
AcDbEntity
8
0
100
AcDbSpline
70
0
71
5
72
81
73
75
74
0
42
0.000000001
43
0.0000000001
44
0.0000000001
40
0
40
0
40
0
40
0
40
0
40
0
40
0.014285714285714284
40
0.028571428571428567
40
0.042857142857142858
40
0.057142857142857134
40
0.071428571428571438
40
0.085714285714285715
40
0.10000000000000001
40
0.1142857142857143
40
0.12857142857142859
40
0.14285714285714288
40
0.15714285714285714
40
0.17142857142857146
40
0.18571428571428572
40
0.20000000000000004
40
0.21428571428571436
40
0.22857142857142865
40
0.24285714285714291
40
0.25714285714285717
40
0.27142857142857146
40
0.2857142857142857
40
0.30000000000000004
40
0.31428571428571433
40
0.32857142857142863
40
0.34285714285714292
40
0.35714285714285721
40
0.3714285714285715
40
0.38571428571428573
40
0.40000000000000008
40
0.41428571428571442
40
0.42857142857142871
40
0.44285714285714295
40
0.4571428571428573
40
0.47142857142857147
40
0.48571428571428582
40
0.50000000000000011
40
0.51428571428571435
40
0.52857142857142858
40
0.54285714285714282
40
0.55714285714285705
40
0.57142857142857129
40
0.58571428571428552
40
0.59999999999999976
40
0.61428571428571399
40
0.62857142857142823
40
0.64285714285714246
40
0.6571428571428567
40
0.67142857142857093
40
0.68571428571428517
40
0.6999999999999994
40
0.71428571428571364
40
0.72857142857142776
40
0.74285714285714211
40
0.75714285714285634
40
0.77142857142857058
40
0.78571428571428481
40
0.79999999999999905
40
0.81428571428571328
40
0.82857142857142752
40
0.84285714285714175
40
0.85714285714285599
40
0.87142857142857022
40
0.88571428571428445
40
0.89999999999999869
40
0.91428571428571281
40
0.92857142857142716
40
0.94285714285714117
40
0.95714285714285563
40
0.97142857142856975
40
0.98571428571428399
40
1
40
1
40
1
40
1
40
1
40
1
10
-44.994666318755833
20
-33.795570389515902
30
-6.352673089795573
10
-44.987641044052054
20
-33.78874112900909
30
-6.352673089795573
10
-44.9737799796644
20
-33.77491975042701
30
-6.352673089795573
10
-44.953556832084672
20
-33.753699114635303
30
-6.352673089795573
10
-44.927672588958707
20
-33.724473645166036
30
-6.352673089795573
10
-44.896787049815018
20
-33.686656224089774
30
-6.352673089795573
10
-44.866951488203654
20
-33.647893456895403
30
-6.352673089795573
10
-44.837751852656936
20
-33.60852320319551
30
-6.352673089795573
10
-44.808881297083744
20
-33.56880007457471
30
-6.352673089795573
10
-44.780224827451121
20
-33.528827847151241
30
-6.352673089795573
10
-44.751796189477972
20
-33.48860855967623
30
-6.352673089795573
10
-44.723686653634701
20
-33.448082196821517
30
-6.352673089795573
10
-44.696011385271305
20
-33.407168326886648
30
-6.352673089795573
10
-44.668852196068173
20
-33.365810481202175
30
-6.352673089795573
10
-44.64221606892059
20
-33.324008410091601
30
-6.352673089795573
10
-44.616064298244723
20
-33.281795972146533
30
-6.352673089795573
10
-44.590331856041331
20
-33.239226557136647
30
-6.352673089795573
10
-44.564949394721594
20
-33.196356459495284
30
-6.352673089795573
10
-44.539866791039117
20
-33.153227108791498
30
-6.352673089795573
10
-44.515067507625488
20
-33.109854237491227
30
-6.352673089795573
10
-44.490555444417467
20
-33.066237866367985
30
-6.352673089795573
10
-44.466346648120272
20
-33.022368613089839
30
-6.352673089795573
10
-44.442459695293351
20
-32.978235003554161
30
-6.352673089795573
10
-44.418905259290788
20
-32.933831403894999
30
-6.352673089795573
10
-44.395680629793617
20
-32.889162194184784
30
-6.352673089795573
10
-44.372775369971237
20
-32.844237491847394
30
-6.352673089795573
10
-44.350174721931467
20
-32.799070583623092
30
-6.352673089795573
10
-44.327863633015653
20
-32.753674885825319
30
-6.352673089795573
10
-44.305831162277073
20
-32.708060617701506
30
-6.352673089795573
10
-44.284072489092608
20
-32.662233288809759
30
-6.352673089795573
10
-44.262586455631272
20
-32.616195565817506
30
-6.352673089795573
10
-44.241374081211205
20
-32.569948403935669
30
-6.352673089795573
10
-44.220436809317185
20
-32.523492380314011
30
-6.352673089795573
10
-44.199774573135414
20
-32.476829165452479
30
-6.352673089795573
10
-44.179384974487249
20
-32.42996214960435
30
-6.352673089795573
10
-44.15926432033649
20
-32.382895659739297
30
-6.352673089795573
10
-44.139408235762154
20
-32.335634497777193
30
-6.352673089795573
10
-44.119812392794543
20
-32.288183390854726
30
-6.352673089795573
10
-44.100473313277973
20
-32.240546385351394
30
-6.352673089795573
10
-44.081388692677365
20
-32.19272660430719
30
-6.352673089795573
10
-44.062556951112825
20
-32.144726590992725
30
-6.352673089795573
10
-44.043976960396719
20
-32.096548518981038
30
-6.352673089795573
10
-44.02564772128558
20
-32.048194439638735
30
-6.352673089795573
10
-44.007568006133667
20
-31.999666556410588
30
-6.352673089795573
10
-43.989736205526896
20
-31.950967342158336
30
-6.352673089795573
10
-43.972150517648231
20
-31.902099393308411
30
-6.352673089795573
10
-43.95480905798307
20
-31.853065344807689
30
-6.352673089795573
10
-43.937709990586868
20
-31.803867768925357
30
-6.352673089795573
10
-43.920851669152881
20
-31.754509065115009
30
-6.352673089795573
10
-43.904232700703588
20
-31.704991413271458
30
-6.352673089795573
10
-43.887851863663258
20
-31.655316845438819
30
-6.352673089795573
10
-43.871708056204056
20
-31.605487293069583
30
-6.352673089795573
10
-43.855800234691372
20
-31.555504641157903
30
-6.352673089795573
10
-43.840127345506815
20
-31.505370789976233
30
-6.352673089795573
10
-43.824688288507346
20
-31.45508768329406
30
-6.352673089795573
10
-43.80948195425637
20
-31.404657261233517
30
-6.352673089795573
10
-43.794507244738043
20
-31.354081428545591
30
-6.352673089795573
10
-43.779763097789143
20
-31.303362020738987
30
-6.352673089795573
10
-43.765248511111295
20
-31.252500765052595
30
-6.352673089795573
10
-43.750962555768922
20
-31.201499266979667
30
-6.352673089795573
10
-43.736904358803308
20
-31.150359069448548
30
-6.352673089795573
10
-43.723073089859511
20
-31.09908170128535
30
-6.352673089795573
10
-43.709467945420002
20
-31.047668727093203
30
-6.352673089795573
10
-43.696088130547452
20
-30.99612180653552
30
-6.352673089795573
10
-43.682932845715797
20
-30.944442723566851
30
-6.352673089795573
10
-43.670001301758234
20
-30.892633279329917
30
-6.352673089795573
10
-43.657292729246265
20
-30.840695204513182
30
-6.352673089795573
10
-43.644806388849972
20
-30.788630066774509
30
-6.352673089795573
10
-43.632541578716456
20
-30.736439176885064
30
-6.352673089795573
10
-43.620497644256645
20
-30.684123508049545
30
-6.352673089795573
10
-43.608674016026882
20
-30.631683744991498
30
-6.352673089795573
10
-43.599390998490847
20
-30.589633006753296
30
-6.352673089795573
10
-43.592527537430584
20
-30.558039408436343
30
-6.352673089795573
10
-43.587995794175086
20
-30.53695233124084
30
-6.352673089795573
10
-43.585740896910451
20
-30.526402623064321
30
-6.352673089795573
0
SPLINE
5
171
100
AcDbEntity
8
0
100
AcDbSpline
70
0
71
5
72
81
73
75
74
0
42
0.000000001
43
0.0000000001
44
0.0000000001
40
-1
40
-1
40
-1
40
-1
40
-1
40
-1
40
-0.98571428571428399
40
-0.97142857142856975
40
-0.95714285714285563
40
-0.94285714285714117
40
-0.92857142857142716
40
-0.91428571428571281
40
-0.89999999999999869
40
-0.88571428571428445
40
-0.87142857142857022
40
-0.85714285714285599
40
-0.84285714285714175
40
-0.82857142857142752
40
-0.81428571428571328
40
-0.79999999999999905
40
-0.78571428571428481
40
-0.77142857142857058
40
-0.75714285714285634
40
-0.74285714285714211
40
-0.72857142857142776
40
-0.71428571428571364
40
-0.6999999999999994
40
-0.68571428571428517
40
-0.67142857142857093
40
-0.6571428571428567
40
-0.64285714285714246
40
-0.62857142857142823
40
-0.61428571428571399
40
-0.59999999999999976
40
-0.58571428571428552
40
-0.57142857142857129
40
-0.55714285714285705
40
-0.54285714285714282
40
-0.52857142857142858
40
-0.51428571428571435
40
-0.50000000000000011
40
-0.48571428571428582
40
-0.47142857142857147
40
-0.4571428571428573
40
-0.44285714285714295
40
-0.42857142857142871
40
-0.41428571428571442
40
-0.40000000000000008
40
-0.38571428571428573
40
-0.3714285714285715
40
-0.35714285714285721
40
-0.34285714285714292
40
-0.32857142857142863
40
-0.31428571428571433
40
-0.30000000000000004
40
-0.2857142857142857
40
-0.27142857142857146
40
-0.25714285714285717
40
-0.24285714285714291
40
-0.22857142857142865
40
-0.21428571428571436
40
-0.20000000000000004
40
-0.18571428571428572
40
-0.17142857142857146
40
-0.15714285714285714
40
-0.14285714285714288
40
-0.12857142857142859
40
-0.1142857142857143
40
-0.10000000000000001
40
-0.085714285714285715
40
-0.071428571428571438
40
-0.057142857142857134
40
-0.042857142857142858
40
-0.028571428571428567
40
-0.014285714285714284
40
-0
40
-0
40
-0
40
-0
40
-0
40
-0
10
-50.505575803896846
20
-26.079294759896918
30
-6.352673089795573
10
-50.514235437819359
20
-26.08572839375438
30
-6.352673089795573
10
-50.531534363741486
20
-26.098610500861668
30
-6.352673089795573
10
-50.557421726853377
20
-26.117978179696529
30
-6.352673089795573
10
-50.591816118932698
20
-26.14389081743272
30
-6.352673089795573
10
-50.634605292564309
20
-26.176430232824288
30
-6.352673089795573
10
-50.67719006760526
20
-26.209118495208365
30
-6.352673089795573
10
-50.719569584653634
20
-26.241955838124767
30
-6.352673089795573
10
-50.761742686525196
20
-26.274942452724794
30
-6.352673089795573
10
-50.80370788934033
20
-26.308078432922251
30
-6.352673089795573
10
-50.845463459978511
20
-26.34136380000669
30
-6.352673089795573
10
-50.887007504518003
20
-26.374798534920913
30
-6.352673089795573
10
-50.928338056750036
20
-26.408382607294591
30
-6.352673089795573
10
-50.969453161797318
20
-26.442116003320677
30
-6.352673089795573
10
-51.010350979748019
20
-26.475998756650519
30
-6.352673089795573
10
-51.051029753595813
20
-26.510030948229748
30
-6.352673089795573
10
-51.091487747729659
20
-26.544212698278464
30
-6.352673089795573
10
-51.13172319601243
20
-26.578544159912212
30
-6.352673089795573
10
-51.171734252142265
20
-26.613025511174577
30
-6.352673089795573
10
-51.211518928597634
20
-26.64765694626724
30
-6.352673089795573
10
-51.251075114502555
20
-26.682438668869963
30
-6.352673089795573
10
-51.290400621102307
20
-26.717370886510928
30
-6.352673089795573
10
-51.329493222723116
20
-26.752453802413314
30
-6.352673089795573
10
-51.368350694234138
20
-26.787687609831387
30
-6.352673089795573
10
-51.406970869397817
20
-26.82307247776847
30
-6.352673089795573
10
-51.445351600021702
20
-26.858608572493115
30
-6.352673089795573
10
-51.483490671478989
20
-26.894296093908771
30
-6.352673089795573
10
-51.521385727896416
20
-26.930135309058237
30
-6.352673089795573
10
-51.559034207708152
20
-26.966126579477361
30
-6.352673089795573
10
-51.5964332443939
20
-27.00227040593041
30
-6.352673089795573
10
-51.633579735456372
20
-27.038567389892016
30
-6.352673089795573
10
-51.670470501207937
20
-27.075018150980526
30
-6.352673089795573
10
-51.707102431354201
20
-27.111623249591752
30
-6.352673089795573
10
-51.743472607926194
20
-27.148383122436421
30
-6.352673089795573
10
-51.779578516617619
20
-27.185297970876316
30
-6.352673089795573
10
-51.815417876339012
20
-27.222367851686798
30
-6.352673089795573
10
-51.850988241272731
20
-27.259592888168534
30
-6.352673089795573
10
-51.886286641672626
20
-27.296973460918039
30
-6.352673089795573
10
-51.921309279383109
20
-27.334510368856499
30
-6.352673089795573
10
-51.956051028809867
20
-27.372205094898725
30
-6.352673089795573
10
-51.990505792094488
20
-27.410059612180973
30
-6.352673089795573
10
-52.024667383849206
20
-27.448075905481709
30
-6.352673089795573
10
-52.058530333981267
20
-27.486255536616618
30
-6.352673089795573
10
-52.092090562368384
20
-27.524599278683681
30
-6.352673089795573
10
-52.125346521714931
20
-27.563106498508041
30
-6.352673089795573
10
-52.158298286672256
20
-27.601775643293138
30
-6.352673089795573
10
-52.190945411789997
20
-27.640605389025581
30
-6.352673089795573
10
-52.223284990401766
20
-27.67959568113185
30
-6.352673089795573
10
-52.255310008278009
20
-27.71874861585178
30
-6.352673089795573
10
-52.287006624630791
20
-27.758069900191735
30
-6.352673089795573
10
-52.318356382451725
20
-27.797567653193667
30
-6.352673089795573
10
-52.349341065046815
20
-27.837249779597116
30
-6.352673089795573
10
-52.379947133667443
20
-27.877121570147317
30
-6.352673089795573
10
-52.410169478152405
20
-27.917183670689283
30
-6.352673089795573
10
-52.440017657117963
20
-27.957428712791142
30
-6.352673089795573
10
-52.469509824756663
20
-27.997844565134578
30
-6.352673089795573
10
-52.498661181580069
20
-28.038420528684611
30
-6.352673089795573
10
-52.527473328784211
20
-28.079153047304377
30
-6.352673089795573
10
-52.55592508574361
20
-28.120050628410731
30
-6.352673089795573
10
-52.583957944847633
20
-28.16114165524737
30
-6.352673089795573
10
-52.611491890849045
20
-28.202465823047113
30
-6.352673089795573
10
-52.638451345097991
20
-28.244060104446778
30
-6.352673089795573
10
-52.664789429855581
20
-28.28594564191657
30
-6.352673089795573
10
-52.690509273035097
20
-28.328116187310897
30
-6.352673089795573
10
-52.715696226145283
20
-28.370520780040707
30
-6.352673089795573
10
-52.740471293849666
20
-28.413088074554807
30
-6.352673089795573
10
-52.764926983134622
20
-28.455759979581376
30
-6.352673089795573
10
-52.789067149664874
20
-28.498523144646882
30
-6.352673089795573
10
-52.812749625115238
20
-28.541439061845495
30
-6.352673089795573
10
-52.835615338169006
20
-28.584681078724607
30
-6.352673089795573
10
-52.857184957716818
20
-28.628485477791578
30
-6.352673089795573
10
-52.873016676630613
20
-28.664171312294044
30
-6.352673089795573
10
-52.883918646793731
20
-28.691382305072672
30
-6.352673089795573
10
-52.890732920729079
20
-28.709732380892721
30
-6.352673089795573
10
-52.894026630008284
20
-28.718959772881671
30
-6.352673089795573
0
ARC
5
172
100
AcDbEntity
8
0
100
AcDbCircle
10
-59.829096235760815
20
-48.194266312144833
30
-6.352673089795573
40
24.000000000002387
210
0
220
-0
230
1
100
AcDbArc
50
63.769045602774426
51
67.140045306324012
0
ARC
5
173
100
AcDbEntity
8
0
100
AcDbCircle
10
-59.829096235760815
20
-48.194266312144833
30
-6.352673089795573
40
19.549200000001498
210
0
220
-0
230
1
100
AcDbArc
50
39.102532613657729
51
42.715649204538366
0
ARC
5
174
100
AcDbEntity
8
0
100
AcDbCircle
10
-53.576939682426179
20
-29.144831699204239
30
-6.352673089795573
40
0.50000000000000244
210
0
220
0
230
1
100
AcDbArc
50
251.82980534092326
51
340.356022116882
0
LINE
5
175
100
AcDbEntity
8
0
100
AcDbLine
10
-49.962191673415347
20
-30.748666324463308
30
-6.352673089795573
11
-49.652146380281579
21
-30.199476875367608
31
-6.352673089795573
0
LINE
5
176
100
AcDbEntity
8
0
100
AcDbLine
10
-52.894026630008284
20
-28.718959772881671
30
-6.352673089795573
11
-53.106039834184344
21
-29.312918976907866
31
-6.352673089795573
0
ARC
5
177
100
AcDbEntity
8
0
100
AcDbCircle
10
-59.829096235761227
20
-58.144266312141966
30
-6.352673089795573
40
4.2500000000000053
210
-0
220
0
230
1
100
AcDbArc
50
-75.774893203639834
51
90.000000207883701
0
ARC
5
178
100
AcDbEntity
8
0
100
AcDbCircle
10
-59.829096235760815
20
-48.194266312144833
30
-6.352673089795573
40
24.000000000002757
210
0
220
-0
230
1
100
AcDbArc
50
80.132681966408981
51
82.588800821696296
0
LINE
5
179
100
AcDbEntity
8
0
100
AcDbLine
10
-59.829096235761234
20
-52.194266312141899
30
-6.352673089795573
11
-59.829096251181312
21
-53.894266312141966
31
-6.352673089795573
0
ARC
5
180
100
AcDbEntity
8
0
100
AcDbCircle
10
-54.789843122862358
20
-28.788691115716087
30
-6.352673089795573
40
0.49999999999999928
210
0
220
0
230
1
100
AcDbArc
50
166.91670515584494
51
255.44292193180564
0
ARC
5
181
100
AcDbEntity
8
0
100
AcDbCircle
10
-45.098360714312747
20
-34.593683543850872
30
-6.352673089795573
40
0.50000000000001199
210
0
220
0
230
1
100
AcDbArc
50
134.18943242857304
51
222.71564920452897
0
ARC
5
182
100
AcDbEntity
8
0
100
AcDbCircle
10
-59.829096235761227
20
-38.244266693108393
30
-6.352673089795573
40
4.2500000000000071
210
0
220
0
230
1
100
AcDbArc
50
-90.000000207883701
51
75.774893203639834
0
LINE
5
183
100
AcDbEntity
8
0
100
AcDbLine
10
-56.733349947556235
20
-24.394763062723854
30
-6.352673089795573
11
-58.7847345147852
21
-34.124581195918104
31
-6.352673089795573
0
ARC
5
184
100
AcDbEntity
8
0
100
AcDbCircle
10
-59.829096235761227
20
-48.194266312141963
30
-6.352673089795573
40
3.9999999999999325
210
0
220
0
230
1
100
AcDbArc
50
-90.000000000000099
51
89.999999999999801
0
ARC
5
185
100
AcDbEntity
8
0
100
AcDbCircle
10
-59.829096235760815
20
-48.194266312144833
30
-6.352673089795573
40
19.5492000000026
210
0
220
-0
230
1
100
AcDbArc
50
71.829805340926953
51
75.442921931807348
0
SPLINE
5
186
100
AcDbEntity
8
0
100
AcDbSpline
70
0
71
5
72
81
73
75
74
0
42
0.000000001
43
0.0000000001
44
0.0000000001
40
0
40
0
40
0
40
0
40
0
40
0
40
0.014285714285714284
40
0.028571428571428567
40
0.042857142857142858
40
0.057142857142857134
40
0.071428571428571438
40
0.085714285714285715
40
0.10000000000000001
40
0.1142857142857143
40
0.12857142857142859
40
0.14285714285714288
40
0.15714285714285714
40
0.17142857142857146
40
0.18571428571428572
40
0.20000000000000004
40
0.21428571428571436
40
0.22857142857142865
40
0.24285714285714291
40
0.25714285714285717
40
0.27142857142857146
40
0.2857142857142857
40
0.30000000000000004
40
0.31428571428571433
40
0.32857142857142863
40
0.34285714285714292
40
0.35714285714285721
40
0.3714285714285715
40
0.38571428571428573
40
0.40000000000000008
40
0.41428571428571442
40
0.42857142857142871
40
0.44285714285714295
40
0.4571428571428573
40
0.47142857142857147
40
0.48571428571428582
40
0.50000000000000011
40
0.51428571428571435
40
0.52857142857142858
40
0.54285714285714282
40
0.55714285714285705
40
0.57142857142857129
40
0.58571428571428552
40
0.59999999999999976
40
0.61428571428571399
40
0.62857142857142823
40
0.64285714285714246
40
0.6571428571428567
40
0.67142857142857093
40
0.68571428571428517
40
0.6999999999999994
40
0.71428571428571364
40
0.72857142857142776
40
0.74285714285714211
40
0.75714285714285634
40
0.77142857142857058
40
0.78571428571428481
40
0.79999999999999905
40
0.81428571428571328
40
0.82857142857142752
40
0.84285714285714175
40
0.85714285714285599
40
0.87142857142857022
40
0.88571428571428445
40
0.89999999999999869
40
0.91428571428571281
40
0.92857142857142716
40
0.94285714285714117
40
0.95714285714285563
40
0.97142857142856975
40
0.98571428571428399
40
1
40
1
40
1
40
1
40
1
40
1
10
-55.134102394447019
20
-28.061214182253302
30
-6.352673089795573
10
-55.131884534266369
20
-28.051670892466596
30
-6.352673089795573
10
-55.127696266296425
20
-28.032549751724495
30
-6.352673089795573
10
-55.122156213831374
20
-28.003764357856767
30
-6.352673089795573
10
-55.11618148456138
20
-27.965184250054243
30
-6.352673089795573
10
-55.110644557088087
20
-27.91667222784109
30
-6.352673089795573
10
-55.106502019621324
20
-27.867932590577674
30
-6.352673089795573
10
-55.103222889204019
20
-27.819025710732809
30
-6.352673089795573
10
-55.100411377062727
20
-27.76999988767998
30
-6.352673089795573
10
-55.097914638455563
20
-27.720880252977274
30
-6.352673089795573
10
-55.095743134785032
20
-27.671675953228025
30
-6.352673089795573
10
-55.09400609439291
20
-27.62238584486709
30
-6.352673089795573
10
-55.092843885196999
20
-27.573004527531289
30
-6.352673089795573
10
-55.092355860830097
20
-27.523528727486735
30
-6.352673089795573
10
-55.092548030662826
20
-27.473962009930382
30
-6.352673089795573
10
-55.093369528149374
20
-27.424311932703567
30
-6.352673089795573
10
-55.094736783566944
20
-27.374588253347962
30
-6.352673089795573
10
-55.096561022943
20
-27.324800837617413
30
-6.352673089795573
10
-55.09877768140332
20
-27.274957439610318
30
-6.352673089795573
10
-55.101364341215096
20
-27.225062353542889
30
-6.352673089795573
10
-55.104324271982883
20
-27.175117705355881
30
-6.352673089795573
10
-55.10767604552575
20
-27.125124277633248
30
-6.352673089795573
10
-55.111441492808176
20
-27.075082460991897
30
-6.352673089795573
10
-55.115632638724861
20
-27.024993286373071
30
-6.352673089795573
10
-55.120244835164499
20
-26.974858973219114
30
-6.352673089795573
10
-55.125263832214138
20
-26.92468239027199
30
-6.352673089795573
10
-55.13067003139075
20
-26.874466736330007
30
-6.352673089795573
10
-55.136443516185366
20
-26.824215159832512
30
-6.352673089795573
10
-55.142569557545613
20
-26.773930342635161
30
-6.352673089795573
10
-55.149041121413312
20
-26.72361431344757
30
-6.352673089795573
10
-55.155855792049763
20
-26.673268689642427
30
-6.352673089795573
10
-55.163013910533955
20
-26.622894825879271
30
-6.352673089795573
10
-55.170516379171801
20
-26.572493988094202
30
-6.352673089795573
10
-55.178362238615534
20
-26.522067545478897
30
-6.352673089795573
10
-55.186547638479588
20
-26.471617053542651
30
-6.352673089795573
10
-55.195067132647786
20
-26.421144155757908
30
-6.352673089795573
10
-55.203914444588534
20
-26.370650526495851
30
-6.352673089795573
10
-55.21308337769895
20
-26.320137802599834
30
-6.352673089795573
10
-55.222568818330409
20
-26.269607507667985
30
-6.352673089795573
10
-55.232367139341676
20
-26.219061023042983
30
-6.352673089795573
10
-55.242475636657353
20
-26.168499634112685
30
-6.352673089795573
10
-55.252892186063292
20
-26.117924559458785
30
-6.352673089795573
10
-55.263614837889882
20
-26.067336984568882
30
-6.352673089795573
10
-55.27464136810363
20
-26.016738099383304
30
-6.352673089795573
10
-55.285969085849203
20
-25.96612911409072
30
-6.352673089795573
10
-55.297595071607617
20
-25.915511238808293
30
-6.352673089795573
10
-55.309516315464442
20
-25.864885671348794
30
-6.352673089795573
10
-55.321729882251134
20
-25.814253583056235
30
-6.352673089795573
10
-55.334233089763742
20
-25.763616102418816
30
-6.352673089795573
10
-55.34702358761497
20
-25.712974310180236
30
-6.352673089795573
10
-55.360099249543843
20
-25.66232925537107
30
-6.352673089795573
10
-55.373458104411782
20
-25.611681967139461
30
-6.352673089795573
10
-55.387098255152729
20
-25.561033467011931
30
-6.352673089795573
10
-55.401017788041614
20
-25.510384783970295
30
-6.352673089795573
10
-55.415214726698082
20
-25.459736958435251
30
-6.352673089795573
10
-55.42968708889547
20
-25.409091022734714
30
-6.352673089795573
10
-55.444432921137938
20
-25.358447985614944
30
-6.352673089795573
10
-55.459450337526022
20
-25.307808816955408
30
-6.352673089795573
10
-55.47473756105682
20
-25.25717442791845
30
-6.352673089795573
10
-55.490292942264787
20
-25.206545666910493
30
-6.352673089795573
10
-55.506114912600289
20
-25.155923359968313
30
-6.352673089795573
10
-55.522201946978498
20
-25.105308344298514
30
-6.352673089795573
10
-55.538552523549157
20
-25.054701501714636
30
-6.352673089795573
10
-55.555165076286627
20
-25.004103798638823
30
-6.352673089795573
10
-55.572037968108141
20
-24.953516303572705
30
-6.352673089795573
10
-55.589169561353046
20
-24.90294010507818
30
-6.352673089795573
10
-55.606558273056109
20
-24.852376243118599
30
-6.352673089795573
10
-55.624202633713566
20
-24.801825636779704
30
-6.352673089795573
10
-55.642101344232799
20
-24.751289009302077
30
-6.352673089795573
10
-55.660253327784289
20
-24.700766825500054
30
-6.352673089795573
10
-55.678657735131978
20
-24.650259353535205
30
-6.352673089795573
10
-55.693582709330165
20
-24.609865243244997
30
-6.352673089795573
10
-55.704889587286232
20
-24.579576349847841
30
-6.352673089795573
10
-55.712477776915364
20
-24.559386726281886
30
-6.352673089795573
10
-55.716284439477796
20
-24.549292657507628
30
-6.352673089795573
0
ARC
5
187
100
AcDbEntity
8
0
100
AcDbCircle
10
-59.829096235760815
20
-48.194266312144833
30
-6.352673089795573
40
24.000000000001847
210
0
220
-0
230
1
100
AcDbArc
50
47.405409239139459
51
50.776408942689152
0
ENDSEC
0
SECTION
2
OBJECTS
0
DICTIONARY
5
C
100
AcDbDictionary
3
ACAD_GROUP
350
D
3
ACAD_MLINESTYLE
350
17
0
DICTIONARY
5
D
100
AcDbDictionary
0
DICTIONARY
5
1A
330
C
100
AcDbDictionary
0
DICTIONARY
5
17
100
AcDbDictionary
0
ENDSEC
0
EOF
